M48
;GenerationSoftware,Autodesk,EAGLE,9.4.2*%
;CreationDate,2019-07-18T19:24:52Z*%
FMAT,2
ICI,OFF
INCH,TZ,000.000
T6C0.031
T5C0.032
T4C0.036
T3C0.039
T2C0.040
T1C0.112
%
G90
M72
T1
X3450Y3530
X-50Y900
X100Y3530
X3450Y250
T2
X264Y1523
X321Y1441
X379Y1359
X436Y1277
X3200Y300
X3100Y300
X3000Y300
X2900Y300
X2500Y250
X2500Y750
X1800Y750
X300Y200
X300Y750
X2650Y1550
X1480Y2110
X2650Y1450
X1800Y250
X2650Y1350
X2650Y1250
X2000Y2200
X2050Y1250
X5Y400
X5Y500
X2900Y2650
X2650Y2450
X2650Y2350
X2650Y2250
X2650Y2150
T3
X1200Y3300
X400Y3400
X400Y3300
X400Y3200
X400Y3100
X400Y3000
X400Y2900
X400Y2800
X400Y2700
X400Y2600
X400Y2500
X400Y2400
X400Y2300
X1200Y3400
X1200Y1900
X1200Y2000
X1200Y2100
X1200Y2200
X1200Y2300
X1200Y2400
X1200Y2500
X1200Y2600
X1200Y2700
X1200Y2800
X1200Y2900
X1200Y3000
X1200Y3100
X1200Y3200
T4
X3150Y950
X3250Y1050
X3150Y1450
X3250Y1450
X3150Y1350
X3250Y1350
X3150Y1250
X3250Y1250
X3150Y1150
X3250Y1150
X3150Y1050
X3250Y950
X3150Y850
X3250Y850
X3150Y750
X3250Y750
T5
X2650Y2900
X2850Y2900
X2900Y2050
X2900Y1850
X1457Y1382
X1368Y2736
X2450Y3300
X1452Y2554
X530Y2429
X945Y3512
X695Y3078
X593Y1764
X627Y1366
X2745Y535
X2745Y935
X1055Y3462
X805Y3028
X850Y1200
X950Y1200
X950Y1500
X850Y1500
X1315Y1514
X1085Y1186
X660Y2911
X2450Y3500
X1185Y1186
X1415Y1514
X1343Y1218
X610Y2319
X740Y2801
T6
X2300Y1300
X2300Y1200
X2300Y1100
X2300Y1000
X1800Y1000
X1800Y1100
X1800Y1200
X1800Y1300
X1800Y2350
X1800Y2250
X1800Y1400
X1800Y2150
X1800Y2050
X1800Y1950
X2300Y1950
X2300Y2050
X2300Y2350
X2300Y2450
X2300Y2550
X2300Y2250
X2300Y1700
X2300Y2150
X2300Y1600
X2300Y1500
X1800Y2650
X1800Y2550
X1800Y2450
X1900Y3450
X1800Y3450
X2300Y1400
X2100Y3450
X2200Y3450
X1700Y3450
X1600Y3450
X1500Y3450
X1800Y1500
X1800Y1600
X1800Y1700
X2300Y2650
X2000Y3450
M30