M48
;GenerationSoftware,Autodesk,EAGLE,9.4.0*%
;CreationDate,2019-06-15T20:08:03Z*%
FMAT,2
ICI,OFF
METRIC,TZ,000.000
T9C0.350
T8C0.914
T7C0.920
T6C1.000
T5C1.016
T4C1.200
T3C1.499
T2C2.300
T1C2.845
%
G90
M71
T1
X87630Y89662
X-1270Y22860
X2540Y89662
X87630Y6350
T2
X50490Y31585
X38450Y31585
T3
X62230Y76200
X77470Y76200
X62230Y83820
X77470Y83820
T4
X44450Y54610
X67310Y59690
X67310Y54610
X72390Y62230
X72390Y57150
X72390Y52070
X44450Y59690
X49530Y62230
X49530Y57150
X49530Y52070
X24130Y57150
X19050Y57150
X26670Y52070
X16510Y52070
X21590Y52070
X49530Y74930
X49530Y80010
X49530Y85090
X44450Y77470
X44450Y82550
T5
X75057Y7620
X53340Y7620
X72517Y7620
X55880Y7620
T6
X54610Y46990
X29210Y20320
X18415Y5715
X45593Y46990
T7
X43220Y34290
X45720Y34290
X45720Y31080
X43220Y31080
T8
X25400Y10160
X25400Y12700
X30480Y10160
X22860Y12700
X20320Y10160
X20320Y12700
X17780Y10160
X17780Y12700
X30480Y12700
X15240Y10160
X12700Y10160
X12700Y12700
X22860Y10160
X15240Y12700
X27940Y10160
X27940Y12700
T9
X17780Y40640
M30