M48
;GenerationSoftware,Autodesk,EAGLE,9.4.0*%
;CreationDate,2019-05-14T04:04:21Z*%
FMAT,2
ICI,OFF
METRIC,TZ,000.000
T7C0.800
T6C0.813
T5C0.914
T4C1.000
T3C1.016
T2C1.499
T1C2.845
%
G90
M71
T1
X77470Y92202
X5080Y20320
X5080Y92202
X77470Y5080
T2
X29210Y13970
X27940Y8890
X12700Y8890
X13970Y13970
T3
X11430Y38100
X11430Y35560
X11430Y33020
X11430Y30480
X67310Y39370
X67310Y36830
X67310Y34290
X67310Y31750
X2667Y12700
X73660Y67310
X63500Y69850
X63500Y46990
X7620Y5080
X49530Y11430
X54610Y11430
X73660Y12700
X12700Y3810
X77470Y12700
X36830Y13970
X2667Y10160
X68580Y85090
X60960Y80010
X50800Y30480
X50800Y55880
X19050Y49530
X33528Y10160
X27940Y36830
X38735Y58039
X67310Y62230
X67310Y59690
X67310Y57150
X67310Y54610
X68580Y10160
X7620Y17780
X68580Y12700
X68580Y15240
X68580Y17780
X63500Y5080
X63500Y17780
X45720Y5080
X45720Y17780
T4
X30480Y48260
X30480Y73660
X30480Y76200
X30480Y78740
X30480Y81280
X30480Y83820
X30480Y86360
X10160Y86360
X10160Y83820
X30480Y50800
X10160Y78740
X10160Y76200
X10160Y73660
X10160Y71120
X10160Y68580
X10160Y66040
X10160Y63500
X10160Y60960
X10160Y81280
X30480Y53340
X30480Y55880
X30480Y58420
X30480Y60960
X30480Y63500
X30480Y66040
X30480Y68580
X30480Y71120
X10160Y58420
T5
X74930Y21590
X77470Y21590
X74930Y19050
X77470Y19050
X77470Y31750
X74930Y36830
X77470Y36830
X74930Y34290
X77470Y34290
X74930Y31750
X74930Y29210
X77470Y29210
X74930Y26670
X77470Y26670
X74930Y24130
X77470Y24130
T6
X24130Y30480
X26797Y87922
X20447Y76924
X59690Y21590
X35934Y38451
X34103Y30939
X37017Y35101
X21590Y30480
X59690Y11430
X24130Y38100
X21590Y38100
X16465Y49357
X19095Y39543
X17653Y78194
X62230Y83820
X62230Y88900
X36887Y64881
X73660Y45720
X73660Y50800
X34741Y69485
X72390Y73660
X67310Y73660
X18789Y71158
X15501Y58890
X16757Y73952
X13469Y61684
X24003Y89192
X33394Y38451
X27566Y30129
X30106Y30129
T7
X45720Y35560
X45720Y38100
X45720Y40640
X45720Y43180
X58420Y67310
X45720Y67310
X58420Y62230
X58420Y57150
X58420Y54610
X58420Y52070
X58420Y49530
X45720Y49530
X45720Y52070
X45720Y54610
X45720Y64770
X45720Y62230
X45720Y59690
X58420Y59690
X58420Y43180
X58420Y40640
X58420Y38100
X58420Y35560
X58420Y33020
X58420Y30480
X58420Y27940
X58420Y25400
X45720Y25400
X45720Y27940
X45720Y30480
X45720Y33020
X48260Y87630
X58420Y64770
X50800Y87630
X53340Y87630
X55880Y87630
X43180Y87630
X40640Y87630
X38100Y87630
X45720Y57150
X45720Y87630
M30