G04 EAGLE Gerber RS-274X export*
G75*
%MOIN*%
%FSLAX34Y34*%
%LPD*%
%INSilkscreen Bottom*%
%IPPOS*%
%AMOC8*
5,1,8,0,0,1.08239X$1,22.5*%
G01*
%ADD10C,0.006000*%
%ADD11C,0.005000*%
%ADD12R,0.020000X0.010000*%
%ADD13R,0.015000X0.005000*%
%ADD14R,0.010000X0.010000*%
%ADD15C,0.007000*%


D10*
X4500Y750D02*
X7500Y1050D01*
X4500Y6140D02*
X12500Y6140D01*
X9000Y750D02*
X7500Y1050D01*
X9000Y750D02*
X11000Y1500D01*
X12500Y750D01*
X4500Y5870D02*
X4500Y6140D01*
X12500Y6140D02*
X12500Y5870D01*
X12500Y3120D02*
X12500Y750D01*
X4500Y750D02*
X4500Y3120D01*
X4830Y5420D02*
X5170Y5420D01*
X5000Y5750D01*
X4830Y5420D01*
X5000Y5650D02*
X5000Y5750D01*
X4500Y3120D02*
X12500Y3120D01*
X12500Y5870D02*
X4500Y5870D01*
X13490Y5870D02*
X13490Y5350D01*
X13490Y3120D02*
X13150Y3120D01*
X3500Y3120D02*
X3500Y3650D01*
X3500Y5870D02*
X3850Y5870D01*
X13150Y3650D02*
X13150Y3120D01*
X13150Y3650D02*
X13490Y3650D01*
X13490Y4250D02*
X13150Y4250D01*
X13150Y3120D02*
X12500Y3120D01*
X13490Y3120D02*
X13490Y3650D01*
X13490Y4250D01*
X13490Y5350D02*
X13150Y5350D01*
X13150Y5870D01*
X13490Y5350D02*
X13490Y4750D01*
X13150Y4750D01*
X13490Y4750D02*
X13490Y4250D01*
X13150Y5870D02*
X12500Y5870D01*
X4500Y3120D02*
X3850Y3120D01*
X13150Y4250D02*
X13150Y4750D01*
X3850Y3650D02*
X3850Y3120D01*
X3500Y3120D01*
X3500Y3650D02*
X3850Y3650D01*
X3850Y4250D02*
X3500Y4250D01*
X3850Y4250D02*
X3850Y4750D01*
X3500Y4750D01*
X3500Y5350D02*
X3850Y5350D01*
X3850Y5870D01*
X3500Y4750D02*
X3500Y4250D01*
X3500Y3650D01*
X3500Y4750D02*
X3500Y5350D01*
X3500Y5870D01*
X3850Y5870D02*
X4500Y5870D01*
X13150Y5870D02*
X13490Y5870D01*
X4380Y5100D02*
X4230Y5220D01*
X4230Y4680D01*
X4380Y4680D02*
X4080Y4680D01*
D11*
X8959Y2875D02*
X8959Y2425D01*
X8959Y2875D02*
X8834Y2875D01*
X8813Y2873D01*
X8793Y2868D01*
X8775Y2860D01*
X8757Y2849D01*
X8742Y2835D01*
X8729Y2818D01*
X8720Y2800D01*
X8713Y2781D01*
X8709Y2760D01*
X8709Y2740D01*
X8713Y2719D01*
X8720Y2700D01*
X8729Y2682D01*
X8742Y2665D01*
X8757Y2651D01*
X8775Y2640D01*
X8793Y2632D01*
X8813Y2627D01*
X8834Y2625D01*
X8959Y2625D01*
X8809Y2625D02*
X8709Y2425D01*
X8507Y2600D02*
X8207Y2600D01*
X7904Y2425D02*
X7804Y2425D01*
X7904Y2425D02*
X7921Y2427D01*
X7938Y2431D01*
X7954Y2438D01*
X7968Y2448D01*
X7981Y2461D01*
X7991Y2475D01*
X7998Y2491D01*
X8002Y2508D01*
X8004Y2525D01*
X8004Y2775D01*
X8002Y2792D01*
X7998Y2809D01*
X7991Y2825D01*
X7981Y2839D01*
X7968Y2852D01*
X7954Y2862D01*
X7938Y2869D01*
X7921Y2873D01*
X7904Y2875D01*
X7804Y2875D01*
X7548Y2600D02*
X7435Y2600D01*
X7548Y2601D02*
X7566Y2599D01*
X7584Y2593D01*
X7600Y2584D01*
X7613Y2572D01*
X7624Y2557D01*
X7632Y2540D01*
X7636Y2522D01*
X7636Y2504D01*
X7632Y2486D01*
X7624Y2469D01*
X7613Y2454D01*
X7600Y2442D01*
X7584Y2433D01*
X7566Y2427D01*
X7548Y2425D01*
X7435Y2425D01*
X7435Y2650D01*
X7436Y2665D01*
X7441Y2679D01*
X7448Y2692D01*
X7457Y2703D01*
X7468Y2712D01*
X7481Y2719D01*
X7495Y2724D01*
X7510Y2725D01*
X7610Y2725D01*
X7210Y2875D02*
X7210Y2425D01*
X7085Y2425D01*
X7070Y2426D01*
X7056Y2431D01*
X7043Y2438D01*
X7032Y2447D01*
X7023Y2458D01*
X7016Y2471D01*
X7011Y2485D01*
X7010Y2500D01*
X7010Y2650D01*
X7011Y2665D01*
X7016Y2679D01*
X7023Y2692D01*
X7032Y2703D01*
X7043Y2712D01*
X7056Y2719D01*
X7070Y2724D01*
X7085Y2725D01*
X7210Y2725D01*
X6818Y2875D02*
X6818Y2500D01*
X6817Y2485D01*
X6812Y2471D01*
X6805Y2458D01*
X6796Y2447D01*
X6785Y2438D01*
X6772Y2431D01*
X6758Y2426D01*
X6743Y2425D01*
X6508Y2425D02*
X6383Y2425D01*
X6508Y2425D02*
X6523Y2426D01*
X6537Y2431D01*
X6550Y2438D01*
X6561Y2447D01*
X6570Y2458D01*
X6577Y2471D01*
X6582Y2485D01*
X6583Y2500D01*
X6583Y2625D01*
X6581Y2643D01*
X6576Y2661D01*
X6568Y2678D01*
X6557Y2692D01*
X6543Y2705D01*
X6528Y2715D01*
X6510Y2721D01*
X6492Y2725D01*
X6474Y2725D01*
X6456Y2721D01*
X6438Y2715D01*
X6423Y2705D01*
X6409Y2692D01*
X6398Y2678D01*
X6390Y2661D01*
X6385Y2643D01*
X6383Y2625D01*
X6383Y2575D01*
X6583Y2575D01*
X5948Y2775D02*
X5823Y2875D01*
X5823Y2425D01*
X5948Y2425D02*
X5698Y2425D01*
X5498Y2675D02*
X5348Y2675D01*
X5331Y2673D01*
X5314Y2669D01*
X5298Y2662D01*
X5284Y2652D01*
X5271Y2639D01*
X5261Y2625D01*
X5254Y2609D01*
X5250Y2592D01*
X5248Y2575D01*
X5248Y2550D01*
X5250Y2529D01*
X5255Y2509D01*
X5263Y2491D01*
X5274Y2473D01*
X5288Y2458D01*
X5305Y2445D01*
X5323Y2436D01*
X5342Y2429D01*
X5363Y2425D01*
X5383Y2425D01*
X5404Y2429D01*
X5423Y2436D01*
X5441Y2445D01*
X5458Y2458D01*
X5472Y2473D01*
X5483Y2491D01*
X5491Y2509D01*
X5496Y2529D01*
X5498Y2550D01*
X5498Y2675D01*
X5496Y2701D01*
X5491Y2727D01*
X5483Y2752D01*
X5471Y2775D01*
X5457Y2797D01*
X5439Y2816D01*
X5420Y2834D01*
X5398Y2848D01*
X5375Y2860D01*
X5350Y2868D01*
X5324Y2873D01*
X5298Y2875D01*
X5025Y2875D02*
X5025Y2425D01*
X5025Y2875D02*
X4900Y2875D01*
X4879Y2873D01*
X4859Y2868D01*
X4841Y2860D01*
X4823Y2849D01*
X4808Y2835D01*
X4795Y2818D01*
X4786Y2800D01*
X4779Y2781D01*
X4775Y2760D01*
X4775Y2740D01*
X4779Y2719D01*
X4786Y2700D01*
X4795Y2682D01*
X4808Y2665D01*
X4823Y2651D01*
X4841Y2640D01*
X4859Y2632D01*
X4879Y2627D01*
X4900Y2625D01*
X5025Y2625D01*
D12*
X5000Y5540D03*
D13*
X4925Y5465D03*
X5075Y5465D03*
D14*
X5000Y5620D03*
D15*
X2281Y3465D02*
X2141Y3465D01*
X2281Y3465D02*
X2303Y3467D01*
X2324Y3472D01*
X2345Y3480D01*
X2363Y3492D01*
X2380Y3506D01*
X2394Y3523D01*
X2406Y3541D01*
X2414Y3562D01*
X2419Y3583D01*
X2421Y3605D01*
X2421Y3955D01*
X2419Y3977D01*
X2414Y3998D01*
X2406Y4019D01*
X2394Y4037D01*
X2380Y4054D01*
X2363Y4068D01*
X2345Y4080D01*
X2324Y4088D01*
X2303Y4093D01*
X2281Y4095D01*
X2141Y4095D01*
X1907Y3920D02*
X1907Y3640D01*
X1907Y3920D02*
X1905Y3945D01*
X1900Y3969D01*
X1891Y3993D01*
X1879Y4015D01*
X1864Y4035D01*
X1847Y4052D01*
X1827Y4067D01*
X1805Y4079D01*
X1781Y4088D01*
X1757Y4093D01*
X1732Y4095D01*
X1707Y4093D01*
X1683Y4088D01*
X1659Y4079D01*
X1637Y4067D01*
X1617Y4052D01*
X1600Y4035D01*
X1585Y4015D01*
X1573Y3993D01*
X1564Y3969D01*
X1559Y3945D01*
X1557Y3920D01*
X1557Y3640D01*
X1559Y3615D01*
X1564Y3591D01*
X1573Y3567D01*
X1585Y3545D01*
X1600Y3525D01*
X1617Y3508D01*
X1637Y3493D01*
X1659Y3481D01*
X1683Y3472D01*
X1707Y3467D01*
X1732Y3465D01*
X1757Y3467D01*
X1781Y3472D01*
X1805Y3481D01*
X1827Y3493D01*
X1847Y3508D01*
X1864Y3525D01*
X1879Y3545D01*
X1891Y3567D01*
X1900Y3591D01*
X1905Y3615D01*
X1907Y3640D01*
X1271Y3465D02*
X1271Y4095D01*
X921Y3465D01*
X921Y4095D01*
X635Y3955D02*
X460Y4095D01*
X460Y3465D01*
X635Y3465D02*
X285Y3465D01*
M02*
