G04 EAGLE Gerber RS-274X export*
G75*
%MOIN*%
%FSLAX34Y34*%
%LPD*%
%INSoldermask Bottom*%
%IPPOS*%
%AMOC8*
5,1,8,0,0,1.08239X$1,22.5*%
G01*
%ADD10C,0.120008*%
%ADD11C,0.064000*%
%ADD12P,0.069273X8X22.500000*%
%ADD13C,0.068000*%
%ADD14R,0.078866X0.078866*%
%ADD15C,0.078866*%
%ADD16C,0.064220*%
%ADD17R,0.064220X0.064220*%
%ADD18C,0.138551*%
%ADD19C,0.096500*%
%ADD20P,0.072921X8X202.500000*%
%ADD21C,0.037780*%


D10*
X34500Y35300D03*
X-500Y9000D03*
X1000Y35300D03*
X34500Y2500D03*
D11*
X5000Y5000D03*
D12*
X5000Y4000D03*
X6000Y5000D03*
X6000Y4000D03*
X7000Y5000D03*
X7000Y4000D03*
X8000Y5000D03*
X8000Y4000D03*
X9000Y5000D03*
X9000Y4000D03*
X10000Y5000D03*
X10000Y4000D03*
X11000Y5000D03*
X11000Y4000D03*
X12000Y5000D03*
X12000Y4000D03*
D13*
X28550Y3300D02*
X28550Y2700D01*
X29550Y2700D02*
X29550Y3300D01*
D14*
X19500Y29500D03*
D15*
X19500Y31500D03*
X19500Y33500D03*
X17500Y30500D03*
X17500Y32500D03*
D14*
X6500Y20500D03*
D15*
X8500Y20500D03*
X10500Y20500D03*
X7500Y22500D03*
X9500Y22500D03*
D14*
X19500Y20500D03*
D15*
X19500Y22500D03*
X19500Y24500D03*
X17500Y21500D03*
X17500Y23500D03*
D14*
X28500Y20500D03*
D15*
X28500Y22500D03*
X28500Y24500D03*
X26500Y21500D03*
X26500Y23500D03*
D13*
X21000Y3300D02*
X21000Y2700D01*
X22000Y2700D02*
X22000Y3300D01*
D16*
X17016Y13500D03*
D17*
X18000Y13500D03*
D16*
X18000Y12236D03*
X17016Y12236D03*
D18*
X15138Y12435D03*
X19878Y12435D03*
D19*
X30058Y30000D02*
X30943Y30000D01*
X24943Y30000D02*
X24058Y30000D01*
X24058Y33000D02*
X24943Y33000D01*
X30058Y33000D02*
X30943Y33000D01*
D20*
X21500Y18500D03*
X11500Y8000D03*
X7250Y2250D03*
X17950Y18500D03*
D21*
X7000Y16000D03*
M02*
