M48
;GenerationSoftware,Autodesk,EAGLE,9.3.0*%
;CreationDate,2019-02-11T23:19:05Z*%
FMAT,2
ICI,OFF
METRIC,TZ,000.000
T5C0.800
T4C0.813
T3C1.000
T2C1.016
T1C3.302
%
G90
M71
T1
X45720Y54000
X45720Y6960
T2
X44298Y41529
X44298Y38760
X44298Y35992
X44298Y33249
X44298Y30480
X44298Y27711
X44298Y24968
X44298Y22200
X44298Y19431
X44298Y16688
X44298Y13919
X47142Y45669
X47142Y42901
X47142Y40132
X47142Y37389
X47142Y34620
X47142Y31852
X47142Y29108
X47142Y26340
X47142Y23571
X47142Y20828
X47142Y18059
X47142Y15291
X44298Y44272
X44298Y47041
X64770Y34290
X64770Y36830
X64770Y39370
X64770Y41910
X12700Y24130
X12700Y21590
X12700Y19050
X12700Y16510
X58420Y50800
X26670Y34290
X25019Y39370
X58420Y33020
T3
X30480Y53340
X30480Y50800
X30480Y48260
X30480Y45720
X30480Y43180
X30480Y40640
X30480Y38100
X30480Y35560
X30480Y55880
X30480Y58420
X30480Y60960
X30480Y63500
X30480Y66040
X30480Y68580
X30480Y71120
X10160Y45720
X10160Y48260
X10160Y50800
X10160Y53340
X10160Y55880
X10160Y58420
X10160Y60960
X30480Y73660
X10160Y63500
X10160Y66040
X10160Y68580
X10160Y71120
X10160Y73660
T4
X62230Y73660
X21590Y62103
X21590Y74803
X17780Y63500
X17780Y76200
X11557Y28067
X11557Y40767
X17780Y45593
X17780Y58293
X54610Y7620
X54610Y12700
X62230Y68580
X38100Y25400
X35560Y64770
X35560Y69850
X38100Y30480
T5
X38100Y74930
X40640Y74930
X43180Y74930
X55880Y74930
X53340Y74930
X50800Y74930
X45720Y74930
X48260Y74930
X35560Y22860
X35560Y20320
X35560Y17780
X35560Y15240
X35560Y12700
X35560Y7620
X35560Y5080
X22860Y5080
X22860Y7620
X22860Y10160
X22860Y12700
X22860Y15240
X22860Y17780
X22860Y20320
X22860Y22860
X59690Y8890
X59690Y11430
X59690Y13970
X59690Y16510
X59690Y19050
X59690Y21590
X59690Y24130
X59690Y26670
X72390Y26670
X72390Y24130
X72390Y21590
X72390Y19050
X72390Y16510
X72390Y13970
X72390Y11430
X72390Y8890
X35560Y10160
M30