M48
;GenerationSoftware,Autodesk,EAGLE,9.2.2*%
;CreationDate,2018-10-28T23:43:31Z*%
FMAT,2
ICI,OFF
INCH,TZ,000.000
T5C0.031
T4C0.032
T3C0.039
T2C0.040
T1C0.130
%
G90
M72
T1
X1450Y1976
X1450Y124
T2
X1506Y1485
X1506Y1376
X1506Y1267
X1506Y1159
X1506Y1050
X1506Y941
X1506Y833
X1506Y724
X1506Y615
X1506Y507
X1506Y398
X1394Y1648
X1394Y1539
X1394Y1430
X1394Y1322
X1394Y1213
X1394Y1104
X1394Y996
X1394Y887
X1394Y778
X1394Y670
X1394Y561
X1394Y452
X1506Y1593
X1506Y1702
X700Y1200
X700Y1300
X700Y1400
X700Y1500
X2750Y800
X2750Y700
X2750Y600
X2750Y500
T3
X2200Y1300
X1050Y1650
X2850Y1650
X2850Y1750
X2850Y1850
X2850Y1950
X2850Y2050
X2850Y2150
X2850Y2250
X2850Y2350
X2850Y2450
X2850Y2550
X2850Y2650
X2850Y2750
X2050Y2750
X2050Y2650
X2050Y2550
X2050Y2450
X2050Y2350
X2050Y2250
X2050Y2150
X2050Y2050
X2050Y1950
X2050Y1850
X2050Y1750
X2050Y1650
X2050Y1550
X2050Y1450
X2050Y1350
X2050Y1250
T4
X800Y2800
X800Y2600
X1900Y2550
X1900Y2350
X1750Y950
X1750Y1150
X1100Y350
X1100Y150
X2600Y1550
X2600Y1050
X2750Y1450
X2750Y950
X2450Y2850
X2450Y2350
X2300Y2850
X2300Y2350
T5
X1850Y550
X2350Y250
X2350Y350
X2350Y450
X2350Y550
X2350Y650
X2350Y750
X2350Y850
X900Y200
X900Y300
X900Y400
X900Y500
X900Y600
X900Y700
X900Y800
X900Y900
X400Y900
X400Y800
X400Y700
X400Y600
X400Y500
X400Y400
X400Y300
X400Y200
X1850Y150
X1850Y250
X1850Y350
X1850Y450
X1750Y2800
X1650Y2800
X1550Y2800
X1050Y2800
X1150Y2800
X1250Y2800
X1450Y2800
X1350Y2800
X1850Y850
X1850Y750
X1850Y650
X2350Y150
M30