M48
;GenerationSoftware,Autodesk,EAGLE,9.3.0*%
;CreationDate,2019-01-30T19:44:04Z*%
FMAT,2
ICI,OFF
INCH,TZ,000.000
T5C0.031
T4C0.032
T3C0.039
T2C0.040
T1C0.130
%
G90
M72
T1
X1800Y2126
X1800Y274
T2
X1744Y1635
X1744Y1526
X1744Y1417
X1744Y1309
X1744Y1200
X1744Y1091
X1744Y983
X1744Y874
X1744Y765
X1744Y657
X1744Y548
X1856Y1798
X1856Y1689
X1856Y1580
X1856Y1472
X1856Y1363
X1856Y1254
X1856Y1146
X1856Y1037
X1856Y928
X1856Y820
X1856Y711
X1856Y602
X1744Y1743
X1744Y1852
X2550Y1350
X2550Y1450
X2550Y1550
X2550Y1650
X500Y950
X500Y850
X500Y750
X500Y650
X2300Y2000
X1050Y1350
X985Y1550
X2300Y1300
T3
X1200Y2100
X1200Y2000
X1200Y1900
X1200Y1800
X1200Y1700
X1200Y1600
X1200Y1500
X1200Y1400
X1200Y2200
X1200Y2300
X1200Y2400
X1200Y2500
X1200Y2600
X1200Y2700
X1200Y2800
X400Y1800
X400Y1900
X400Y2000
X400Y2100
X400Y2200
X400Y2300
X400Y2400
X1200Y2900
X400Y2500
X400Y2600
X400Y2700
X400Y2800
X400Y2900
T4
X2450Y2900
X850Y2445
X850Y2945
X700Y2500
X700Y3000
X455Y1105
X455Y1605
X700Y1795
X700Y2295
X2150Y300
X2150Y500
X2450Y2700
X1500Y1000
X1400Y2550
X1400Y2750
X1500Y1200
T5
X1500Y2950
X1600Y2950
X1700Y2950
X2200Y2950
X2100Y2950
X2000Y2950
X1800Y2950
X1900Y2950
X1400Y900
X1400Y800
X1400Y700
X1400Y600
X1400Y500
X1400Y300
X1400Y200
X900Y200
X900Y300
X900Y400
X900Y500
X900Y600
X900Y700
X900Y800
X900Y900
X2350Y350
X2350Y450
X2350Y550
X2350Y650
X2350Y750
X2350Y850
X2350Y950
X2350Y1050
X2850Y1050
X2850Y950
X2850Y850
X2850Y750
X2850Y650
X2850Y550
X2850Y450
X2850Y350
X1400Y400
M30