G04 EAGLE Gerber RS-274X export*
G75*
%MOIN*%
%FSLAX34Y34*%
%LPD*%
%INTop Copper*%
%IPPOS*%
%AMOC8*
5,1,8,0,0,1.08239X$1,22.5*%
G01*
%ADD10C,0.005118*%
%ADD11C,0.006000*%
%ADD12C,0.060000*%
%ADD13C,0.051496*%
%ADD14P,0.075767X8X112.500000*%
%ADD15P,0.056284X8X82.500000*%
%ADD16P,0.056284X8X97.500000*%
%ADD17P,0.056284X8X22.500000*%
%ADD18P,0.056284X8X292.500000*%
%ADD19P,0.056284X8X137.500000*%
%ADD20P,0.056284X8X112.500000*%
%ADD21P,0.064943X8X22.500000*%
%ADD22P,0.056284X8X257.500000*%
%ADD23P,0.056284X8X77.500000*%
%ADD24C,0.052000*%
%ADD25P,0.056284X8X297.500000*%
%ADD26P,0.060614X8X292.500000*%
%ADD27P,0.075767X8X292.500000*%
%ADD28C,0.016000*%
%ADD29C,0.050000*%


D10*
X-3000Y0D02*
X-4268Y0D01*
X-4268Y38000D02*
X-3000Y38000D01*
X-3500Y37974D02*
X-3500Y26D01*
X-3626Y1024D01*
X-3374Y1024D01*
X-3500Y26D01*
X-3551Y1024D01*
X-3449Y1024D02*
X-3500Y26D01*
X-3602Y1024D01*
X-3398Y1024D02*
X-3500Y26D01*
X-3626Y36976D02*
X-3500Y37974D01*
X-3626Y36976D02*
X-3374Y36976D01*
X-3500Y37974D01*
X-3551Y36976D01*
X-3449Y36976D02*
X-3500Y37974D01*
X-3602Y36976D01*
X-3398Y36976D02*
X-3500Y37974D01*
D11*
X-3756Y18231D02*
X-3756Y18053D01*
X-3756Y18231D02*
X-3758Y18256D01*
X-3763Y18281D01*
X-3772Y18305D01*
X-3784Y18327D01*
X-3799Y18348D01*
X-3817Y18366D01*
X-3838Y18381D01*
X-3860Y18393D01*
X-3884Y18402D01*
X-3909Y18407D01*
X-3934Y18409D01*
X-3959Y18407D01*
X-3984Y18402D01*
X-4008Y18393D01*
X-4030Y18381D01*
X-4051Y18366D01*
X-4069Y18348D01*
X-4084Y18327D01*
X-4096Y18305D01*
X-4105Y18281D01*
X-4110Y18256D01*
X-4112Y18231D01*
X-4396Y18266D02*
X-4396Y18053D01*
X-4396Y18266D02*
X-4394Y18288D01*
X-4389Y18310D01*
X-4381Y18330D01*
X-4369Y18349D01*
X-4354Y18366D01*
X-4337Y18381D01*
X-4318Y18393D01*
X-4298Y18401D01*
X-4276Y18406D01*
X-4254Y18408D01*
X-4232Y18406D01*
X-4210Y18401D01*
X-4190Y18393D01*
X-4171Y18381D01*
X-4154Y18366D01*
X-4139Y18349D01*
X-4127Y18330D01*
X-4119Y18310D01*
X-4114Y18288D01*
X-4112Y18266D01*
X-4112Y18124D01*
X-3792Y18644D02*
X-3756Y18644D01*
X-3792Y18644D02*
X-3792Y18679D01*
X-3756Y18679D01*
X-3756Y18644D01*
X-3934Y18914D02*
X-3959Y18916D01*
X-3984Y18921D01*
X-4008Y18930D01*
X-4030Y18942D01*
X-4051Y18957D01*
X-4069Y18975D01*
X-4084Y18996D01*
X-4096Y19018D01*
X-4105Y19042D01*
X-4110Y19067D01*
X-4112Y19092D01*
X-4110Y19117D01*
X-4105Y19142D01*
X-4096Y19166D01*
X-4084Y19188D01*
X-4069Y19209D01*
X-4051Y19227D01*
X-4030Y19242D01*
X-4008Y19254D01*
X-3984Y19263D01*
X-3959Y19268D01*
X-3934Y19270D01*
X-3909Y19268D01*
X-3884Y19263D01*
X-3860Y19254D01*
X-3838Y19242D01*
X-3817Y19227D01*
X-3799Y19209D01*
X-3784Y19188D01*
X-3772Y19166D01*
X-3763Y19142D01*
X-3758Y19117D01*
X-3756Y19092D01*
X-3758Y19067D01*
X-3763Y19042D01*
X-3772Y19018D01*
X-3784Y18996D01*
X-3799Y18975D01*
X-3817Y18957D01*
X-3838Y18942D01*
X-3860Y18930D01*
X-3884Y18921D01*
X-3909Y18916D01*
X-3934Y18914D01*
X-4254Y18950D02*
X-4276Y18952D01*
X-4298Y18957D01*
X-4318Y18965D01*
X-4337Y18977D01*
X-4354Y18992D01*
X-4369Y19009D01*
X-4381Y19028D01*
X-4389Y19048D01*
X-4394Y19070D01*
X-4396Y19092D01*
X-4394Y19114D01*
X-4389Y19136D01*
X-4381Y19156D01*
X-4369Y19175D01*
X-4354Y19192D01*
X-4337Y19207D01*
X-4318Y19219D01*
X-4298Y19227D01*
X-4276Y19232D01*
X-4254Y19234D01*
X-4232Y19232D01*
X-4210Y19227D01*
X-4190Y19219D01*
X-4171Y19207D01*
X-4154Y19192D01*
X-4139Y19175D01*
X-4127Y19156D01*
X-4119Y19136D01*
X-4114Y19114D01*
X-4112Y19092D01*
X-4114Y19070D01*
X-4119Y19048D01*
X-4127Y19028D01*
X-4139Y19009D01*
X-4154Y18992D01*
X-4171Y18977D01*
X-4190Y18965D01*
X-4210Y18957D01*
X-4232Y18952D01*
X-4254Y18950D01*
X-4076Y19530D02*
X-4116Y19532D01*
X-4155Y19536D01*
X-4195Y19543D01*
X-4233Y19554D01*
X-4270Y19567D01*
X-4307Y19583D01*
X-4308Y19583D02*
X-4327Y19591D01*
X-4344Y19602D01*
X-4359Y19616D01*
X-4372Y19631D01*
X-4383Y19649D01*
X-4391Y19668D01*
X-4395Y19688D01*
X-4397Y19708D01*
X-4395Y19728D01*
X-4391Y19748D01*
X-4383Y19767D01*
X-4372Y19785D01*
X-4359Y19800D01*
X-4344Y19814D01*
X-4327Y19825D01*
X-4308Y19833D01*
X-4307Y19832D02*
X-4270Y19848D01*
X-4233Y19861D01*
X-4195Y19872D01*
X-4155Y19879D01*
X-4116Y19883D01*
X-4076Y19885D01*
X-4076Y19530D02*
X-4036Y19532D01*
X-3997Y19536D01*
X-3958Y19543D01*
X-3919Y19554D01*
X-3882Y19567D01*
X-3845Y19583D01*
X-3826Y19591D01*
X-3809Y19602D01*
X-3794Y19616D01*
X-3781Y19631D01*
X-3770Y19649D01*
X-3762Y19668D01*
X-3758Y19688D01*
X-3756Y19708D01*
X-3845Y19832D02*
X-3882Y19848D01*
X-3919Y19861D01*
X-3958Y19872D01*
X-3997Y19879D01*
X-4036Y19883D01*
X-4076Y19885D01*
X-3845Y19833D02*
X-3826Y19825D01*
X-3809Y19814D01*
X-3794Y19800D01*
X-3781Y19785D01*
X-3770Y19767D01*
X-3762Y19748D01*
X-3758Y19728D01*
X-3756Y19708D01*
X-3898Y19566D02*
X-4254Y19850D01*
D10*
X37000Y39232D02*
X37000Y42000D01*
X-2000Y42000D02*
X-2000Y39232D01*
X-1974Y40000D02*
X36974Y40000D01*
X35976Y40126D01*
X35976Y39874D01*
X36974Y40000D01*
X35976Y40051D01*
X35976Y39949D02*
X36974Y40000D01*
X35976Y40102D01*
X35976Y39898D02*
X36974Y40000D01*
X-976Y40126D02*
X-1974Y40000D01*
X-976Y40126D02*
X-976Y39874D01*
X-1974Y40000D01*
X-976Y40051D01*
X-976Y39949D02*
X-1974Y40000D01*
X-976Y40102D01*
X-976Y39898D02*
X-1974Y40000D01*
D11*
X16553Y40256D02*
X16731Y40256D01*
X16756Y40258D01*
X16781Y40263D01*
X16805Y40272D01*
X16827Y40284D01*
X16848Y40299D01*
X16866Y40317D01*
X16881Y40338D01*
X16893Y40360D01*
X16902Y40384D01*
X16907Y40409D01*
X16909Y40434D01*
X16907Y40459D01*
X16902Y40484D01*
X16893Y40508D01*
X16881Y40530D01*
X16866Y40551D01*
X16848Y40569D01*
X16827Y40584D01*
X16805Y40596D01*
X16781Y40605D01*
X16756Y40610D01*
X16731Y40612D01*
X16766Y40896D02*
X16553Y40896D01*
X16766Y40896D02*
X16788Y40894D01*
X16810Y40889D01*
X16830Y40881D01*
X16849Y40869D01*
X16866Y40854D01*
X16881Y40837D01*
X16893Y40818D01*
X16901Y40798D01*
X16906Y40776D01*
X16908Y40754D01*
X16906Y40732D01*
X16901Y40710D01*
X16893Y40690D01*
X16881Y40671D01*
X16866Y40654D01*
X16849Y40639D01*
X16830Y40627D01*
X16810Y40619D01*
X16788Y40614D01*
X16766Y40612D01*
X16624Y40612D01*
X17144Y40292D02*
X17144Y40256D01*
X17144Y40292D02*
X17179Y40292D01*
X17179Y40256D01*
X17144Y40256D01*
X17557Y40541D02*
X17770Y40541D01*
X17557Y40541D02*
X17535Y40543D01*
X17513Y40548D01*
X17493Y40556D01*
X17474Y40568D01*
X17457Y40583D01*
X17442Y40600D01*
X17430Y40619D01*
X17422Y40639D01*
X17417Y40661D01*
X17415Y40683D01*
X17415Y40718D01*
X17414Y40718D02*
X17416Y40743D01*
X17421Y40768D01*
X17430Y40792D01*
X17442Y40814D01*
X17457Y40835D01*
X17475Y40853D01*
X17496Y40868D01*
X17518Y40880D01*
X17542Y40889D01*
X17567Y40894D01*
X17592Y40896D01*
X17617Y40894D01*
X17642Y40889D01*
X17666Y40880D01*
X17688Y40868D01*
X17709Y40853D01*
X17727Y40835D01*
X17742Y40814D01*
X17754Y40792D01*
X17763Y40768D01*
X17768Y40743D01*
X17770Y40718D01*
X17770Y40541D01*
X17768Y40509D01*
X17763Y40478D01*
X17754Y40447D01*
X17742Y40418D01*
X17726Y40390D01*
X17708Y40364D01*
X17687Y40340D01*
X17663Y40319D01*
X17637Y40301D01*
X17609Y40285D01*
X17580Y40273D01*
X17549Y40264D01*
X17518Y40259D01*
X17486Y40257D01*
X18030Y40576D02*
X18032Y40616D01*
X18036Y40655D01*
X18043Y40695D01*
X18054Y40733D01*
X18067Y40770D01*
X18083Y40807D01*
X18083Y40808D02*
X18091Y40827D01*
X18102Y40844D01*
X18116Y40859D01*
X18131Y40872D01*
X18149Y40883D01*
X18168Y40891D01*
X18188Y40895D01*
X18208Y40897D01*
X18228Y40895D01*
X18248Y40891D01*
X18267Y40883D01*
X18285Y40872D01*
X18300Y40859D01*
X18314Y40844D01*
X18325Y40827D01*
X18333Y40808D01*
X18332Y40807D02*
X18348Y40770D01*
X18361Y40733D01*
X18372Y40695D01*
X18379Y40655D01*
X18383Y40616D01*
X18385Y40576D01*
X18030Y40576D02*
X18032Y40536D01*
X18036Y40497D01*
X18043Y40458D01*
X18054Y40419D01*
X18067Y40382D01*
X18083Y40345D01*
X18091Y40326D01*
X18102Y40309D01*
X18116Y40294D01*
X18131Y40281D01*
X18149Y40270D01*
X18168Y40262D01*
X18188Y40258D01*
X18208Y40256D01*
X18332Y40345D02*
X18348Y40382D01*
X18361Y40419D01*
X18372Y40458D01*
X18379Y40497D01*
X18383Y40536D01*
X18385Y40576D01*
X18333Y40345D02*
X18325Y40326D01*
X18314Y40309D01*
X18300Y40294D01*
X18285Y40281D01*
X18267Y40270D01*
X18248Y40262D01*
X18228Y40258D01*
X18208Y40256D01*
X18066Y40398D02*
X18350Y40754D01*
D12*
X2885Y15401D02*
X2394Y15057D01*
X2967Y14238D02*
X3459Y14582D01*
X4033Y13762D02*
X3541Y13418D01*
X4115Y12599D02*
X4606Y12943D01*
D13*
X17743Y26500D02*
X18257Y26500D01*
X18257Y25500D02*
X17743Y25500D01*
X17743Y24500D02*
X18257Y24500D01*
X18257Y23500D02*
X17743Y23500D01*
X17743Y22500D02*
X18257Y22500D01*
X18257Y21500D02*
X17743Y21500D01*
X17743Y20500D02*
X18257Y20500D01*
X18257Y19500D02*
X17743Y19500D01*
X22743Y19500D02*
X23257Y19500D01*
X23257Y20500D02*
X22743Y20500D01*
X22743Y21500D02*
X23257Y21500D01*
X23257Y22500D02*
X22743Y22500D01*
X22743Y23500D02*
X23257Y23500D01*
X23257Y24500D02*
X22743Y24500D01*
X22743Y25500D02*
X23257Y25500D01*
X23257Y26500D02*
X22743Y26500D01*
X18257Y17000D02*
X17743Y17000D01*
X17743Y16000D02*
X18257Y16000D01*
X18257Y15000D02*
X17743Y15000D01*
X17743Y14000D02*
X18257Y14000D01*
X18257Y13000D02*
X17743Y13000D01*
X17743Y12000D02*
X18257Y12000D01*
X18257Y11000D02*
X17743Y11000D01*
X17743Y10000D02*
X18257Y10000D01*
X22743Y10000D02*
X23257Y10000D01*
X23257Y11000D02*
X22743Y11000D01*
X22743Y12000D02*
X23257Y12000D01*
X23257Y13000D02*
X22743Y13000D01*
X22743Y14000D02*
X23257Y14000D01*
X23257Y15000D02*
X22743Y15000D01*
X22743Y16000D02*
X23257Y16000D01*
X23257Y17000D02*
X22743Y17000D01*
D14*
X12000Y19000D03*
X12000Y20000D03*
X12000Y21000D03*
X12000Y22000D03*
X12000Y23000D03*
X12000Y24000D03*
X12000Y25000D03*
X12000Y26000D03*
X12000Y27000D03*
X12000Y28000D03*
X12000Y29000D03*
X12000Y30000D03*
X12000Y31000D03*
X12000Y32000D03*
X12000Y33000D03*
X12000Y34000D03*
X4000Y34000D03*
X4000Y33000D03*
X4000Y32000D03*
X4000Y31000D03*
X4000Y30000D03*
X4000Y29000D03*
X4000Y28000D03*
X4000Y27000D03*
X4000Y26000D03*
X4000Y25000D03*
X4000Y24000D03*
X4000Y23000D03*
D15*
X8050Y30285D03*
X10550Y34615D03*
X6950Y30785D03*
X9450Y35115D03*
D16*
X5303Y24285D03*
X6597Y29115D03*
X6103Y23185D03*
X7397Y28015D03*
D17*
X26500Y29000D03*
X28500Y29000D03*
D18*
X29000Y20500D03*
X29000Y18500D03*
D19*
X14523Y25544D03*
X13677Y27356D03*
D20*
X24500Y33000D03*
X24500Y35000D03*
D12*
X26200Y12500D02*
X26800Y12500D01*
X26800Y13500D02*
X26200Y13500D01*
X26200Y14500D02*
X26800Y14500D01*
X26800Y15500D02*
X26200Y15500D01*
D21*
X3000Y7500D03*
X3000Y2000D03*
X18000Y7500D03*
X18000Y2500D03*
X25000Y7500D03*
X25000Y2500D03*
D22*
X13147Y15138D03*
X10853Y11862D03*
D23*
X11853Y11862D03*
X14147Y15138D03*
X13426Y12181D03*
X14574Y13819D03*
D24*
X8500Y12260D02*
X8500Y11740D01*
X9500Y11740D02*
X9500Y12260D01*
X9500Y14740D02*
X9500Y15260D01*
X8500Y15260D02*
X8500Y14740D01*
D25*
X5926Y17642D03*
X6274Y13658D03*
D12*
X29000Y3300D02*
X29000Y2700D01*
X30000Y2700D02*
X30000Y3300D01*
X31000Y3300D02*
X31000Y2700D01*
X32000Y2700D02*
X32000Y3300D01*
X26800Y21500D02*
X26200Y21500D01*
X26200Y22500D02*
X26800Y22500D01*
X26800Y23500D02*
X26200Y23500D01*
X26200Y24500D02*
X26800Y24500D01*
D20*
X27450Y5350D03*
X27450Y9350D03*
D21*
X29000Y26500D03*
D26*
X31500Y14500D03*
X32500Y14500D03*
X31500Y13500D03*
X32500Y13500D03*
X31500Y12500D03*
X32500Y12500D03*
X31500Y11500D03*
X32500Y11500D03*
X31500Y10500D03*
X32500Y10500D03*
X31500Y9500D03*
X32500Y9500D03*
X31500Y8500D03*
X32500Y8500D03*
X31500Y7500D03*
X32500Y7500D03*
D27*
X19000Y34500D03*
X18000Y34500D03*
X20000Y34500D03*
X21000Y34500D03*
X22000Y34500D03*
X17000Y34500D03*
X16000Y34500D03*
X15000Y34500D03*
D12*
X350Y5000D02*
X-250Y5000D01*
X-250Y4000D02*
X350Y4000D01*
D21*
X20500Y12500D03*
X20000Y22000D03*
X14800Y21100D03*
D28*
X4000Y30000D02*
X3500Y30000D01*
X-500Y26000D01*
X16500Y10000D02*
X18000Y10000D01*
X16500Y10000D02*
X16000Y9500D01*
X-500Y13300D02*
X-500Y26000D01*
X3300Y9500D02*
X16000Y9500D01*
X3300Y9500D02*
X-500Y13300D01*
X27500Y33000D02*
X27500Y36000D01*
X27000Y36500D02*
X8000Y36500D01*
X27000Y36500D02*
X27500Y36000D01*
X27500Y33000D02*
X30000Y33000D01*
X27500Y33000D02*
X24500Y33000D01*
X30000Y33000D02*
X32500Y30500D01*
X12500Y20000D02*
X12000Y20000D01*
X12500Y20000D02*
X13000Y21000D01*
X32500Y14500D02*
X32500Y30500D01*
X8000Y36500D02*
X7000Y35500D01*
X14523Y25544D02*
X13500Y24596D01*
X13500Y22700D01*
X14523Y25544D02*
X15000Y26021D01*
X15000Y28000D01*
X22000Y33500D02*
X22000Y34500D01*
X8050Y30285D02*
X6950Y30785D01*
X7000Y35500D01*
X18000Y13000D02*
X20000Y13000D01*
X20500Y12500D01*
X19500Y22500D02*
X18000Y22500D01*
X19500Y22500D02*
X20000Y22000D01*
X23500Y29000D02*
X23500Y32000D01*
X23500Y29000D02*
X23000Y28500D01*
X15500Y28500D01*
X15000Y28000D01*
X22000Y33500D02*
X23500Y32000D01*
X24500Y33000D01*
X13000Y22000D02*
X13000Y21000D01*
X13000Y22000D02*
X13500Y22700D01*
X18000Y22500D02*
X18000Y21500D01*
X18000Y13000D02*
X18000Y12000D01*
X13500Y16500D02*
X10800Y16500D01*
X9500Y17800D02*
X9500Y25000D01*
X9500Y17800D02*
X10800Y16500D01*
X17500Y20500D02*
X18000Y20500D01*
X17500Y20500D02*
X13500Y16500D01*
X12000Y30000D02*
X10525Y30000D01*
X10525Y28725D01*
X10000Y28200D01*
X10000Y25500D02*
X9500Y25000D01*
X10000Y25500D02*
X10000Y28200D01*
X4500Y34000D02*
X7500Y37000D01*
X4500Y34000D02*
X4000Y34000D01*
X7500Y37000D02*
X28000Y37000D01*
X33500Y31500D01*
X33500Y14000D01*
X33000Y13500D02*
X32500Y13500D01*
X33000Y13500D02*
X33500Y14000D01*
X9500Y33000D02*
X9000Y33500D01*
X9500Y33000D02*
X12000Y33000D01*
X9000Y33500D02*
X9000Y34500D01*
X19000Y34500D02*
X19000Y33500D01*
X14500Y33500D01*
X12500Y35500D01*
X9835Y35500D02*
X9450Y35115D01*
X9835Y35500D02*
X12500Y35500D01*
X9450Y34950D02*
X9000Y34500D01*
X9450Y34950D02*
X9450Y35115D01*
X4588Y25000D02*
X5303Y24285D01*
X4588Y25000D02*
X4000Y25000D01*
X5303Y24285D02*
X5303Y23985D01*
X6103Y23185D01*
X4500Y32000D02*
X4000Y32000D01*
X5000Y30496D02*
X6597Y29115D01*
X5000Y31500D02*
X4500Y32000D01*
X5000Y31500D02*
X5000Y30496D01*
X7000Y25000D02*
X7000Y22450D01*
X5500Y26500D02*
X5500Y28000D01*
X6597Y29097D01*
X6597Y29115D01*
X5500Y26500D02*
X7000Y25000D01*
X7000Y22450D02*
X2500Y17950D01*
X2500Y15368D02*
X2640Y15229D01*
X2500Y15368D02*
X2500Y17950D01*
X3500Y29000D02*
X4000Y29000D01*
X3500Y29000D02*
X0Y25500D01*
X16500Y11000D02*
X18000Y11000D01*
X16500Y11000D02*
X15500Y10000D01*
X3550Y10000D01*
X0Y13550D02*
X0Y25500D01*
X0Y13550D02*
X3550Y10000D01*
X4000Y33000D02*
X5000Y33000D01*
X6000Y32000D01*
X6000Y30500D01*
X7485Y28015D02*
X7500Y28000D01*
X7485Y28015D02*
X7397Y28015D01*
X7500Y28000D02*
X7500Y22250D01*
X6500Y30000D02*
X6000Y30500D01*
X6500Y30000D02*
X7000Y30000D01*
X7500Y29500D01*
X7500Y28000D01*
X7500Y22250D02*
X3950Y18700D01*
X3950Y15146D02*
X3213Y14410D01*
X3950Y15146D02*
X3950Y18700D01*
X8500Y12000D02*
X9500Y12000D01*
X10853Y11862D02*
X10885Y12000D01*
X9500Y12000D01*
X16000Y28000D02*
X23200Y28000D01*
X25000Y31500D02*
X30000Y31500D01*
X12500Y19000D02*
X12000Y19000D01*
X12500Y19000D02*
X13000Y19500D01*
X13500Y20500D01*
X14000Y22650D02*
X14000Y23500D01*
X15500Y25000D02*
X15500Y27500D01*
X15500Y25000D02*
X14000Y23500D01*
X31500Y30000D02*
X31500Y14500D01*
X31500Y30000D02*
X30000Y31500D01*
X16000Y28000D02*
X15500Y27500D01*
X23200Y28000D02*
X24000Y28800D01*
X24000Y30500D01*
X25000Y31500D01*
X13500Y22000D02*
X13500Y20500D01*
X13500Y22000D02*
X14000Y22650D01*
X9000Y25500D02*
X9000Y17500D01*
X9500Y28500D02*
X10000Y29000D01*
X9000Y17500D02*
X10500Y16000D01*
X17400Y19500D02*
X18000Y19500D01*
X17400Y19500D02*
X14450Y16550D01*
X14000Y16000D01*
X10500Y16000D01*
X10000Y29000D02*
X10000Y30500D01*
X10500Y31000D02*
X12000Y31000D01*
X9500Y26000D02*
X9000Y25500D01*
X9500Y26000D02*
X9500Y28500D01*
X10000Y30500D02*
X10500Y31000D01*
D29*
X25750Y13500D02*
X26500Y13500D01*
X25750Y13500D02*
X25250Y13000D01*
X23000Y13000D01*
X26000Y12000D02*
X26500Y12500D01*
X26000Y12000D02*
X23000Y12000D01*
X23000Y24500D02*
X26500Y24500D01*
X26500Y23500D02*
X23000Y23500D01*
X23000Y22500D02*
X26500Y22500D01*
X26500Y21500D02*
X23000Y21500D01*
D28*
X30500Y9500D02*
X31500Y9500D01*
X30500Y9500D02*
X29850Y8850D01*
X29850Y4650D01*
X30000Y4500D02*
X30000Y3000D01*
X30000Y4500D02*
X29850Y4650D01*
X31000Y8500D02*
X31500Y8500D01*
X30500Y8000D02*
X30500Y5000D01*
X31000Y4500D02*
X31000Y3000D01*
X31000Y4500D02*
X30500Y5000D01*
X30500Y8000D02*
X31000Y8500D01*
D29*
X26500Y15500D02*
X24750Y15500D01*
X24250Y15000D01*
X23000Y15000D01*
X25250Y14500D02*
X26500Y14500D01*
X25250Y14500D02*
X24750Y14000D01*
X23000Y14000D01*
D28*
X12000Y32000D02*
X10500Y32000D01*
X9500Y31000D02*
X9500Y29300D01*
X8950Y28750D01*
X8500Y26000D02*
X8500Y17000D01*
X9500Y15000D02*
X9500Y14000D01*
X9500Y16000D02*
X8500Y17000D01*
X9500Y16000D02*
X9500Y15000D01*
X9500Y31000D02*
X10500Y32000D01*
X9500Y14000D02*
X9000Y13500D01*
X8950Y26450D02*
X8950Y28750D01*
X8950Y26450D02*
X8500Y26000D01*
X9000Y13500D02*
X7265Y13500D01*
X6274Y13658D01*
X13147Y15138D02*
X14147Y15138D01*
X14574Y13819D01*
X12000Y24000D02*
X11500Y24000D01*
X11000Y23500D01*
X11000Y18500D01*
X11500Y18000D01*
X12500Y18000D01*
X14800Y20300D01*
X14800Y21100D01*
X4000Y31000D02*
X3500Y31000D01*
X-1000Y26500D01*
X19500Y9000D02*
X21500Y11000D01*
X23000Y11000D01*
X3050Y9000D02*
X-1000Y13050D01*
X3050Y9000D02*
X19500Y9000D01*
X-1000Y13050D02*
X-1000Y26500D01*
X28500Y9650D02*
X30350Y11500D01*
X31500Y11500D01*
X28500Y9650D02*
X28500Y5000D01*
X26000Y2500D02*
X25000Y2500D01*
X26000Y2500D02*
X28500Y5000D01*
X3300Y27000D02*
X1000Y24700D01*
X1000Y14000D01*
X4000Y11000D01*
X14500Y11000D01*
X4000Y27000D02*
X3300Y27000D01*
X16000Y12500D02*
X14500Y11000D01*
X16000Y16500D02*
X17500Y18000D01*
X19500Y18000D01*
X22000Y20500D01*
X23000Y20500D01*
X16000Y16500D02*
X16000Y12500D01*
X4000Y28000D02*
X3500Y28000D01*
X500Y25000D01*
X500Y13800D01*
X3800Y10500D01*
X14700Y10500D01*
X16500Y12300D01*
X16500Y16000D01*
X17500Y17000D02*
X18000Y17000D01*
X17500Y17000D02*
X16500Y16000D01*
X13300Y17000D02*
X11000Y17000D01*
X13300Y17000D02*
X16500Y20200D01*
X11000Y17000D02*
X10000Y18000D01*
X17000Y26500D02*
X18000Y26500D01*
X16500Y26000D02*
X16500Y20200D01*
X10000Y18000D02*
X10000Y24500D01*
X10500Y27800D02*
X11150Y28450D01*
X10500Y27800D02*
X10500Y25000D01*
X10000Y24500D01*
X11150Y29000D02*
X12000Y29000D01*
X11150Y29000D02*
X11150Y28450D01*
X16500Y26000D02*
X17000Y26500D01*
D29*
X32500Y11500D02*
X32500Y10500D01*
X24000Y26500D02*
X23000Y26500D01*
X29000Y20500D02*
X29000Y20200D01*
X27300Y18500D01*
X24500Y18500D02*
X23000Y17000D01*
X18000Y3000D02*
X18000Y2500D01*
X18000Y3000D02*
X20350Y5350D01*
X24000Y26500D02*
X26500Y29000D01*
X27300Y18500D02*
X24500Y18500D01*
X27450Y5350D02*
X20350Y5350D01*
D28*
X30350Y10500D02*
X31500Y10500D01*
X30350Y10500D02*
X29150Y9300D01*
X29150Y4150D01*
X29000Y4000D01*
X29000Y3000D01*
X30350Y12500D02*
X31500Y12500D01*
X30350Y12500D02*
X27450Y9600D01*
X27450Y9350D01*
X-500Y32000D02*
X-500Y32500D01*
X-500Y32000D02*
X0Y32000D01*
X500Y31500D01*
X0Y31000D01*
X-500Y32500D02*
X0Y33000D01*
X-500Y31500D02*
X0Y31000D01*
X-500Y31500D02*
X-500Y32000D01*
X0Y33000D02*
X500Y32500D01*
X10500Y18250D02*
X11250Y17500D01*
X13000Y17500D01*
X16500Y27500D02*
X23500Y27500D01*
X16000Y20500D02*
X13000Y17500D01*
X16000Y20500D02*
X16000Y27000D01*
X23500Y27500D02*
X24500Y28500D01*
X29500Y30500D02*
X31000Y29000D01*
X31000Y16900D01*
X31500Y13500D02*
X30500Y13500D01*
X11650Y28000D02*
X11000Y27350D01*
X10500Y24000D02*
X10500Y18250D01*
X10500Y24000D02*
X11000Y24500D01*
X11000Y27350D01*
X11650Y28000D02*
X12000Y28000D01*
X30100Y13900D02*
X30500Y13500D01*
X30100Y13900D02*
X30100Y16000D01*
X31000Y16900D01*
X16500Y27500D02*
X16000Y27000D01*
X24500Y28500D02*
X24500Y29500D01*
X25500Y30500D02*
X29500Y30500D01*
X25500Y30500D02*
X24500Y29500D01*
X19500Y33000D02*
X14000Y33000D01*
X13000Y34000D01*
X19500Y33000D02*
X20000Y33500D01*
X20000Y34500D01*
X11165Y34000D02*
X10550Y34615D01*
X11165Y34000D02*
X12000Y34000D01*
X13000Y34000D01*
X13426Y12181D02*
X13096Y11850D01*
X11865Y11850D01*
D29*
X22000Y16000D02*
X23000Y16000D01*
D28*
X19000Y18500D02*
X17200Y18500D01*
X15500Y16800D01*
X15500Y12800D01*
D29*
X21500Y16500D02*
X21500Y18000D01*
X28500Y26000D02*
X28500Y26500D01*
D28*
X24500Y35500D02*
X24000Y36000D01*
X21000Y36000D01*
X16000Y36000D01*
X8500Y36000D01*
X8000Y35500D01*
X8000Y33000D01*
X9000Y32000D01*
X8000Y26500D02*
X8000Y21900D01*
X8350Y28950D02*
X9000Y29600D01*
D29*
X23000Y19500D02*
X24000Y19500D01*
D28*
X21500Y21000D02*
X19000Y18500D01*
X21500Y21000D02*
X21500Y25000D01*
D29*
X23000Y16000D02*
X23700Y16000D01*
X24500Y20000D02*
X27000Y20000D01*
X25000Y25500D02*
X23000Y25500D01*
X24700Y17000D02*
X23700Y16000D01*
X24000Y19500D02*
X24500Y20000D01*
X23000Y19500D02*
X21500Y18000D01*
D28*
X9000Y29600D02*
X9000Y32000D01*
X7600Y13000D02*
X10800Y13000D01*
X11853Y11947D01*
X22000Y25500D02*
X23000Y25500D01*
D29*
X28500Y26500D02*
X29000Y26500D01*
X28000Y21000D02*
X27000Y20000D01*
X28000Y17000D02*
X28000Y11600D01*
X29000Y18000D02*
X29000Y18500D01*
X29000Y18000D02*
X28000Y17000D01*
X24700Y17000D01*
X25000Y25500D02*
X26000Y26500D01*
X28500Y26500D01*
X28500Y29000D01*
X25000Y10000D02*
X23000Y10000D01*
X32500Y9500D02*
X32500Y8500D01*
D28*
X8350Y26850D02*
X8350Y28950D01*
X8350Y26850D02*
X8000Y26500D01*
X15500Y12800D02*
X14881Y12181D01*
X21500Y25000D02*
X22000Y25500D01*
D29*
X21500Y16500D02*
X22000Y16000D01*
D11*
X11865Y11850D02*
X11853Y11862D01*
D28*
X11853Y11947D01*
X13426Y12181D02*
X14881Y12181D01*
X16000Y1000D02*
X31000Y1000D01*
D29*
X25000Y7500D02*
X23000Y7500D01*
X23000Y10000D01*
D28*
X12500Y22000D02*
X12000Y22000D01*
X13000Y22800D02*
X13000Y27356D01*
X21000Y33500D02*
X21000Y34500D01*
X20000Y32500D02*
X14000Y32500D01*
X13000Y31500D01*
X13000Y27356D02*
X13677Y27356D01*
X13000Y27356D02*
X13000Y31500D01*
X16000Y34500D02*
X16000Y36000D01*
X21000Y36000D02*
X21000Y34500D01*
X21000Y33500D02*
X20000Y32500D01*
X24500Y35000D02*
X24500Y35500D01*
D29*
X15000Y7500D02*
X3000Y7500D01*
X15000Y7500D02*
X18000Y7500D01*
X23000Y7500D01*
X27450Y11050D02*
X28000Y11600D01*
D28*
X34000Y8000D02*
X34000Y6000D01*
X33500Y8500D02*
X32500Y8500D01*
X32000Y3000D02*
X32000Y2000D01*
X31000Y1000D01*
D29*
X28000Y21000D02*
X28000Y25500D01*
X28500Y26000D01*
D28*
X34000Y6000D02*
X32000Y4000D01*
X32000Y3000D01*
X5150Y13561D02*
X5150Y15350D01*
X7600Y13000D02*
X7100Y12500D01*
X5150Y15350D02*
X4400Y16100D01*
X4400Y18300D01*
X8000Y21900D01*
D11*
X500Y5000D02*
X50Y5000D01*
D29*
X500Y5000D02*
X3000Y7500D01*
D28*
X15000Y2000D02*
X16000Y1000D01*
X33500Y8500D02*
X34000Y8000D01*
X25000Y10000D02*
X25000Y10050D01*
D29*
X26000Y10500D02*
X27450Y11050D01*
X26000Y10500D02*
X25000Y10050D01*
D28*
X15000Y7500D02*
X15000Y2000D01*
X4729Y12771D02*
X4360Y12771D01*
X4729Y12771D02*
X5000Y12500D01*
X7100Y12500D01*
X5150Y13561D02*
X4360Y12771D01*
X12500Y22000D02*
X13000Y22800D01*
D11*
X50Y4000D02*
X50Y3950D01*
D29*
X2000Y2000D01*
X3000Y2000D01*
D28*
X5926Y17574D02*
X5926Y17642D01*
X5926Y17574D02*
X8500Y15000D01*
X1500Y33000D02*
X1000Y33000D01*
X1500Y33000D02*
X2000Y32500D01*
X1500Y32000D01*
X2000Y31500D01*
X1500Y31000D01*
X1000Y31000D01*
X1000Y33000D01*
M02*
