0
SECTION
2
HEADER
9
$ANGDIR
70
1
9
$AUNITS
70
0
9
$PROJECTNAME
1
twip-mb2
9
$TDCREATE
40
2458526.49112609
9
$INSUNITS
70
1
0
ENDSEC
0
SECTION
2
ENTITIES
0
POLYLINE
66
1
8
outline
10
0.0
20
0.0
30
0.0
70
1
0
VERTEX
8
0
10
0
20
0
30
0
0
VERTEX
8
0
10
3.237007874015748
20
0
30
0
0
VERTEX
8
0
10
3.237007874015748
20
3.2496062992125982
30
0
0
VERTEX
8
0
10
0
20
3.2496062992125982
30
0
0
VERTEX
8
0
10
0
20
0
30
0
0
SEQEND
0
POLYLINE
66
1
8
1_copper
10
0.0
20
0.0
30
0.0
70
1
0
VERTEX
8
0
10
1.8045727116141732
20
2.8802663631889764
30
0
42
0.3639703696370299
0
VERTEX
8
0
10
1.835
20
2.9134718257874015
30
0
0
VERTEX
8
0
10
1.835
20
2.9865281742125984
30
0
42
0.9572906161637668
0
VERTEX
8
0
10
1.765
20
2.9865281742125984
30
0
0
VERTEX
8
0
10
1.765
20
2.9134718257874015
30
0
0
VERTEX
8
0
10
1.7652663631889765
20
2.9104272883858266
30
0
0
VERTEX
8
0
10
1.7657971210629921
20
2.907417445866142
30
0
0
VERTEX
8
0
10
1.766588090551181
20
2.9044653051181104
30
0
0
VERTEX
8
0
10
1.7676333661417323
20
2.9015933809055117
30
0
0
VERTEX
8
0
10
1.7689250738188977
20
2.8988234498031495
30
0
0
VERTEX
8
0
10
1.770453125
20
2.8961765501968504
30
0
0
VERTEX
8
0
10
1.7722062007874015
20
2.8936731053149605
30
0
0
VERTEX
8
0
10
1.7741707677165355
20
2.891331815944882
30
0
0
VERTEX
8
0
10
1.776331815944882
20
2.8891707677165352
30
0
0
VERTEX
8
0
10
1.7786731053149607
20
2.8872062007874018
30
0
0
VERTEX
8
0
10
1.7811765501968504
20
2.885453125
30
0
0
VERTEX
8
0
10
1.7838234498031496
20
2.8839250738188977
30
0
0
VERTEX
8
0
10
1.786593380905512
20
2.8826333661417323
30
0
0
VERTEX
8
0
10
1.7894653051181102
20
2.881588090551181
30
0
0
VERTEX
8
0
10
1.7924174458661417
20
2.880797121062992
30
0
0
VERTEX
8
0
10
1.7954272883858269
20
2.8802663631889764
30
0
0
VERTEX
8
0
10
1.7984718257874015
20
2.88
30
0
0
VERTEX
8
0
10
1.8015281742125984
20
2.88
30
0
0
SEQEND
0
POLYLINE
66
1
8
1_copper
10
0.0
20
0.0
30
0.0
70
1
0
VERTEX
8
0
10
1.7045727116141731
20
2.8802663631889764
30
0
42
0.3639703696370299
0
VERTEX
8
0
10
1.735
20
2.9134718257874015
30
0
0
VERTEX
8
0
10
1.735
20
2.9865281742125984
30
0
42
0.9572906161637668
0
VERTEX
8
0
10
1.665
20
2.9865281742125984
30
0
0
VERTEX
8
0
10
1.665
20
2.9134718257874015
30
0
0
VERTEX
8
0
10
1.6652663631889764
20
2.9104272883858266
30
0
0
VERTEX
8
0
10
1.665797121062992
20
2.907417445866142
30
0
0
VERTEX
8
0
10
1.6665880905511812
20
2.9044653051181104
30
0
0
VERTEX
8
0
10
1.6676333661417322
20
2.9015933809055117
30
0
0
VERTEX
8
0
10
1.6689250738188977
20
2.8988234498031495
30
0
0
VERTEX
8
0
10
1.670453125
20
2.8961765501968504
30
0
0
VERTEX
8
0
10
1.6722062007874017
20
2.8936731053149605
30
0
0
VERTEX
8
0
10
1.6741707677165354
20
2.891331815944882
30
0
0
VERTEX
8
0
10
1.676331815944882
20
2.8891707677165352
30
0
0
VERTEX
8
0
10
1.6786731053149606
20
2.8872062007874018
30
0
0
VERTEX
8
0
10
1.6811765501968503
20
2.885453125
30
0
0
VERTEX
8
0
10
1.6838234498031497
20
2.8839250738188977
30
0
0
VERTEX
8
0
10
1.6865933809055118
20
2.8826333661417323
30
0
0
VERTEX
8
0
10
1.6894653051181103
20
2.881588090551181
30
0
0
VERTEX
8
0
10
1.6924174458661416
20
2.880797121062992
30
0
0
VERTEX
8
0
10
1.6954272883858268
20
2.8802663631889764
30
0
0
VERTEX
8
0
10
1.6984718257874016
20
2.88
30
0
0
VERTEX
8
0
10
1.7015281742125985
20
2.88
30
0
0
SEQEND
0
POLYLINE
66
1
8
1_copper
10
0.0
20
0.0
30
0.0
70
1
0
VERTEX
8
0
10
1.5045727116141732
20
2.8802663631889764
30
0
42
0.3639703696370299
0
VERTEX
8
0
10
1.535
20
2.9134718257874015
30
0
0
VERTEX
8
0
10
1.535
20
2.9865281742125984
30
0
42
0.9572906161637668
0
VERTEX
8
0
10
1.465
20
2.9865281742125984
30
0
0
VERTEX
8
0
10
1.465
20
2.9134718257874015
30
0
0
VERTEX
8
0
10
1.4652663631889764
20
2.9104272883858266
30
0
0
VERTEX
8
0
10
1.465797121062992
20
2.907417445866142
30
0
0
VERTEX
8
0
10
1.466588090551181
20
2.9044653051181104
30
0
0
VERTEX
8
0
10
1.4676333661417322
20
2.9015933809055117
30
0
0
VERTEX
8
0
10
1.4689250738188977
20
2.8988234498031495
30
0
0
VERTEX
8
0
10
1.470453125
20
2.8961765501968504
30
0
0
VERTEX
8
0
10
1.4722062007874015
20
2.8936731053149605
30
0
0
VERTEX
8
0
10
1.4741707677165354
20
2.891331815944882
30
0
0
VERTEX
8
0
10
1.476331815944882
20
2.8891707677165352
30
0
0
VERTEX
8
0
10
1.4786731053149607
20
2.8872062007874018
30
0
0
VERTEX
8
0
10
1.4811765501968504
20
2.885453125
30
0
0
VERTEX
8
0
10
1.4838234498031495
20
2.8839250738188977
30
0
0
VERTEX
8
0
10
1.4865933809055119
20
2.8826333661417323
30
0
0
VERTEX
8
0
10
1.4894653051181101
20
2.881588090551181
30
0
0
VERTEX
8
0
10
1.4924174458661417
20
2.880797121062992
30
0
0
VERTEX
8
0
10
1.4954272883858268
20
2.8802663631889764
30
0
0
VERTEX
8
0
10
1.4984718257874017
20
2.88
30
0
0
VERTEX
8
0
10
1.5015281742125983
20
2.88
30
0
0
SEQEND
0
POLYLINE
66
1
8
1_copper
10
0.0
20
0.0
30
0.0
70
1
0
VERTEX
8
0
10
1.774
20
1.2965736958661418
30
0
0
VERTEX
8
0
10
1.774
20
1.3214263041338583
30
0
0
VERTEX
8
0
10
1.7564263041338584
20
1.339
30
0
0
VERTEX
8
0
10
1.7315736958661416
20
1.339
30
0
0
VERTEX
8
0
10
1.714
20
1.3214263041338583
30
0
0
VERTEX
8
0
10
1.714
20
1.2965736958661418
30
0
0
VERTEX
8
0
10
1.7315736958661416
20
1.279
30
0
0
VERTEX
8
0
10
1.7564263041338584
20
1.279
30
0
0
SEQEND
0
POLYLINE
66
1
8
1_copper
10
0.0
20
0.0
30
0.0
70
1
0
VERTEX
8
0
10
1.886
20
0.9155736958661417
30
0
0
VERTEX
8
0
10
1.886
20
0.9404263041338583
30
0
0
VERTEX
8
0
10
1.8684263041338582
20
0.958
30
0
0
VERTEX
8
0
10
1.8435736958661417
20
0.958
30
0
0
VERTEX
8
0
10
1.826
20
0.9404263041338583
30
0
0
VERTEX
8
0
10
1.826
20
0.9155736958661417
30
0
0
VERTEX
8
0
10
1.8435736958661417
20
0.898
30
0
0
VERTEX
8
0
10
1.8684263041338582
20
0.898
30
0
0
SEQEND
0
POLYLINE
66
1
8
1_copper
10
0.0
20
0.0
30
0.0
70
1
0
VERTEX
8
0
10
1.886
20
0.8075736958661417
30
0
0
VERTEX
8
0
10
1.886
20
0.8324263041338583
30
0
0
VERTEX
8
0
10
1.8684263041338582
20
0.85
30
0
0
VERTEX
8
0
10
1.8435736958661417
20
0.85
30
0
0
VERTEX
8
0
10
1.826
20
0.8324263041338583
30
0
0
VERTEX
8
0
10
1.826
20
0.8075736958661417
30
0
0
VERTEX
8
0
10
1.8435736958661417
20
0.79
30
0
0
VERTEX
8
0
10
1.8684263041338582
20
0.79
30
0
0
SEQEND
0
POLYLINE
66
1
8
1_copper
10
0.0
20
0.0
30
0.0
70
1
0
VERTEX
8
0
10
0.9295306348425196
20
0.774499876968504
30
0
42
0.9063474445600833
0
VERTEX
8
0
10
0.9270129183070867
20
0.825748031496063
30
0
0
VERTEX
8
0
10
0.8729870816929134
20
0.825748031496063
30
0
42
0.9520803604479573
0
VERTEX
8
0
10
0.8729870816929134
20
0.774251968503937
30
0
0
VERTEX
8
0
10
0.9270129183070867
20
0.774251968503937
30
0
0
SEQEND
0
POLYLINE
66
1
8
1_copper
10
0.0
20
0.0
30
0.0
70
1
0
VERTEX
8
0
10
1.886
20
0.6985736958661417
30
0
0
VERTEX
8
0
10
1.886
20
0.7234263041338582
30
0
0
VERTEX
8
0
10
1.8684263041338582
20
0.741
30
0
0
VERTEX
8
0
10
1.8435736958661417
20
0.741
30
0
0
VERTEX
8
0
10
1.826
20
0.7234263041338582
30
0
0
VERTEX
8
0
10
1.826
20
0.6985736958661417
30
0
0
VERTEX
8
0
10
1.8435736958661417
20
0.681
30
0
0
VERTEX
8
0
10
1.8684263041338582
20
0.681
30
0
0
SEQEND
0
POLYLINE
66
1
8
1_copper
10
0.0
20
0.0
30
0.0
70
1
0
VERTEX
8
0
10
0.9295306348425196
20
0.6744998769685039
30
0
42
0.9063474445600833
0
VERTEX
8
0
10
0.9270129183070867
20
0.725748031496063
30
0
0
VERTEX
8
0
10
0.8729870816929134
20
0.725748031496063
30
0
42
0.9520803604479573
0
VERTEX
8
0
10
0.8729870816929134
20
0.674251968503937
30
0
0
VERTEX
8
0
10
0.9270129183070867
20
0.674251968503937
30
0
0
SEQEND
0
POLYLINE
66
1
8
1_copper
10
0.0
20
0.0
30
0.0
70
1
0
VERTEX
8
0
10
2.87953063484252
20
0.624499876968504
30
0
42
0.9063474445600833
0
VERTEX
8
0
10
2.8770129183070865
20
0.675748031496063
30
0
0
VERTEX
8
0
10
2.8229870816929132
20
0.675748031496063
30
0
42
0.9520803604479573
0
VERTEX
8
0
10
2.8229870816929132
20
0.624251968503937
30
0
0
VERTEX
8
0
10
2.8770129183070865
20
0.624251968503937
30
0
0
SEQEND
0
POLYLINE
66
1
8
1_copper
10
0.0
20
0.0
30
0.0
70
1
0
VERTEX
8
0
10
0.9295306348425196
20
0.5744998769685039
30
0
42
0.9063474445600833
0
VERTEX
8
0
10
0.9270129183070867
20
0.625748031496063
30
0
0
VERTEX
8
0
10
0.8729870816929134
20
0.625748031496063
30
0
42
0.9520803604479573
0
VERTEX
8
0
10
0.8729870816929134
20
0.574251968503937
30
0
0
VERTEX
8
0
10
0.9270129183070867
20
0.574251968503937
30
0
0
SEQEND
0
POLYLINE
66
1
8
1_copper
10
0.0
20
0.0
30
0.0
70
1
0
VERTEX
8
0
10
2.87953063484252
20
0.524499876968504
30
0
42
0.9063474445600833
0
VERTEX
8
0
10
2.8770129183070865
20
0.575748031496063
30
0
0
VERTEX
8
0
10
2.8229870816929132
20
0.575748031496063
30
0
42
0.9520803604479573
0
VERTEX
8
0
10
2.8229870816929132
20
0.524251968503937
30
0
0
VERTEX
8
0
10
2.8770129183070865
20
0.524251968503937
30
0
0
SEQEND
0
POLYLINE
66
1
8
1_copper
10
0.0
20
0.0
30
0.0
70
1
0
VERTEX
8
0
10
2.87953063484252
20
0.42449987696850394
30
0
42
0.9063474445600833
0
VERTEX
8
0
10
2.8770129183070865
20
0.475748031496063
30
0
0
VERTEX
8
0
10
2.8229870816929132
20
0.475748031496063
30
0
42
0.9520803604479573
0
VERTEX
8
0
10
2.8229870816929132
20
0.424251968503937
30
0
0
VERTEX
8
0
10
2.8770129183070865
20
0.424251968503937
30
0
0
SEQEND
0
POLYLINE
66
1
8
16_copper
10
0.0
20
0.0
30
0.0
70
1
0
VERTEX
8
0
10
1.8045727116141732
20
2.8802663631889764
30
0
42
0.3639703696370299
0
VERTEX
8
0
10
1.835
20
2.9134718257874015
30
0
0
VERTEX
8
0
10
1.835
20
2.9865281742125984
30
0
42
0.9572906161637668
0
VERTEX
8
0
10
1.765
20
2.9865281742125984
30
0
0
VERTEX
8
0
10
1.765
20
2.9134718257874015
30
0
0
VERTEX
8
0
10
1.7652663631889765
20
2.9104272883858266
30
0
0
VERTEX
8
0
10
1.7657971210629921
20
2.907417445866142
30
0
0
VERTEX
8
0
10
1.766588090551181
20
2.9044653051181104
30
0
0
VERTEX
8
0
10
1.7676333661417323
20
2.9015933809055117
30
0
0
VERTEX
8
0
10
1.7689250738188977
20
2.8988234498031495
30
0
0
VERTEX
8
0
10
1.770453125
20
2.8961765501968504
30
0
0
VERTEX
8
0
10
1.7722062007874015
20
2.8936731053149605
30
0
0
VERTEX
8
0
10
1.7741707677165355
20
2.891331815944882
30
0
0
VERTEX
8
0
10
1.776331815944882
20
2.8891707677165352
30
0
0
VERTEX
8
0
10
1.7786731053149607
20
2.8872062007874018
30
0
0
VERTEX
8
0
10
1.7811765501968504
20
2.885453125
30
0
0
VERTEX
8
0
10
1.7838234498031496
20
2.8839250738188977
30
0
0
VERTEX
8
0
10
1.786593380905512
20
2.8826333661417323
30
0
0
VERTEX
8
0
10
1.7894653051181102
20
2.881588090551181
30
0
0
VERTEX
8
0
10
1.7924174458661417
20
2.880797121062992
30
0
0
VERTEX
8
0
10
1.7954272883858269
20
2.8802663631889764
30
0
0
VERTEX
8
0
10
1.7984718257874015
20
2.88
30
0
0
VERTEX
8
0
10
1.8015281742125984
20
2.88
30
0
0
SEQEND
0
POLYLINE
66
1
8
16_copper
10
0.0
20
0.0
30
0.0
70
1
0
VERTEX
8
0
10
1.7045727116141731
20
2.8802663631889764
30
0
42
0.3639703696370299
0
VERTEX
8
0
10
1.735
20
2.9134718257874015
30
0
0
VERTEX
8
0
10
1.735
20
2.9865281742125984
30
0
42
0.9572906161637668
0
VERTEX
8
0
10
1.665
20
2.9865281742125984
30
0
0
VERTEX
8
0
10
1.665
20
2.9134718257874015
30
0
0
VERTEX
8
0
10
1.6652663631889764
20
2.9104272883858266
30
0
0
VERTEX
8
0
10
1.665797121062992
20
2.907417445866142
30
0
0
VERTEX
8
0
10
1.6665880905511812
20
2.9044653051181104
30
0
0
VERTEX
8
0
10
1.6676333661417322
20
2.9015933809055117
30
0
0
VERTEX
8
0
10
1.6689250738188977
20
2.8988234498031495
30
0
0
VERTEX
8
0
10
1.670453125
20
2.8961765501968504
30
0
0
VERTEX
8
0
10
1.6722062007874017
20
2.8936731053149605
30
0
0
VERTEX
8
0
10
1.6741707677165354
20
2.891331815944882
30
0
0
VERTEX
8
0
10
1.676331815944882
20
2.8891707677165352
30
0
0
VERTEX
8
0
10
1.6786731053149606
20
2.8872062007874018
30
0
0
VERTEX
8
0
10
1.6811765501968503
20
2.885453125
30
0
0
VERTEX
8
0
10
1.6838234498031497
20
2.8839250738188977
30
0
0
VERTEX
8
0
10
1.6865933809055118
20
2.8826333661417323
30
0
0
VERTEX
8
0
10
1.6894653051181103
20
2.881588090551181
30
0
0
VERTEX
8
0
10
1.6924174458661416
20
2.880797121062992
30
0
0
VERTEX
8
0
10
1.6954272883858268
20
2.8802663631889764
30
0
0
VERTEX
8
0
10
1.6984718257874016
20
2.88
30
0
0
VERTEX
8
0
10
1.7015281742125985
20
2.88
30
0
0
SEQEND
0
POLYLINE
66
1
8
16_copper
10
0.0
20
0.0
30
0.0
70
1
0
VERTEX
8
0
10
1.5045727116141732
20
2.8802663631889764
30
0
42
0.3639703696370299
0
VERTEX
8
0
10
1.535
20
2.9134718257874015
30
0
0
VERTEX
8
0
10
1.535
20
2.9865281742125984
30
0
42
0.9572906161637668
0
VERTEX
8
0
10
1.465
20
2.9865281742125984
30
0
0
VERTEX
8
0
10
1.465
20
2.9134718257874015
30
0
0
VERTEX
8
0
10
1.4652663631889764
20
2.9104272883858266
30
0
0
VERTEX
8
0
10
1.465797121062992
20
2.907417445866142
30
0
0
VERTEX
8
0
10
1.466588090551181
20
2.9044653051181104
30
0
0
VERTEX
8
0
10
1.4676333661417322
20
2.9015933809055117
30
0
0
VERTEX
8
0
10
1.4689250738188977
20
2.8988234498031495
30
0
0
VERTEX
8
0
10
1.470453125
20
2.8961765501968504
30
0
0
VERTEX
8
0
10
1.4722062007874015
20
2.8936731053149605
30
0
0
VERTEX
8
0
10
1.4741707677165354
20
2.891331815944882
30
0
0
VERTEX
8
0
10
1.476331815944882
20
2.8891707677165352
30
0
0
VERTEX
8
0
10
1.4786731053149607
20
2.8872062007874018
30
0
0
VERTEX
8
0
10
1.4811765501968504
20
2.885453125
30
0
0
VERTEX
8
0
10
1.4838234498031495
20
2.8839250738188977
30
0
0
VERTEX
8
0
10
1.4865933809055119
20
2.8826333661417323
30
0
0
VERTEX
8
0
10
1.4894653051181101
20
2.881588090551181
30
0
0
VERTEX
8
0
10
1.4924174458661417
20
2.880797121062992
30
0
0
VERTEX
8
0
10
1.4954272883858268
20
2.8802663631889764
30
0
0
VERTEX
8
0
10
1.4984718257874017
20
2.88
30
0
0
VERTEX
8
0
10
1.5015281742125983
20
2.88
30
0
0
SEQEND
0
POLYLINE
66
1
8
16_copper
10
0.0
20
0.0
30
0.0
70
1
0
VERTEX
8
0
10
1.774
20
1.2965736958661418
30
0
0
VERTEX
8
0
10
1.774
20
1.3214263041338583
30
0
0
VERTEX
8
0
10
1.7564263041338584
20
1.339
30
0
0
VERTEX
8
0
10
1.7315736958661416
20
1.339
30
0
0
VERTEX
8
0
10
1.714
20
1.3214263041338583
30
0
0
VERTEX
8
0
10
1.714
20
1.2965736958661418
30
0
0
VERTEX
8
0
10
1.7315736958661416
20
1.279
30
0
0
VERTEX
8
0
10
1.7564263041338584
20
1.279
30
0
0
SEQEND
0
POLYLINE
66
1
8
16_copper
10
0.0
20
0.0
30
0.0
70
1
0
VERTEX
8
0
10
1.886
20
0.9155736958661417
30
0
0
VERTEX
8
0
10
1.886
20
0.9404263041338583
30
0
0
VERTEX
8
0
10
1.8684263041338582
20
0.958
30
0
0
VERTEX
8
0
10
1.8435736958661417
20
0.958
30
0
0
VERTEX
8
0
10
1.826
20
0.9404263041338583
30
0
0
VERTEX
8
0
10
1.826
20
0.9155736958661417
30
0
0
VERTEX
8
0
10
1.8435736958661417
20
0.898
30
0
0
VERTEX
8
0
10
1.8684263041338582
20
0.898
30
0
0
SEQEND
0
POLYLINE
66
1
8
16_copper
10
0.0
20
0.0
30
0.0
70
1
0
VERTEX
8
0
10
1.886
20
0.8075736958661417
30
0
0
VERTEX
8
0
10
1.886
20
0.8324263041338583
30
0
0
VERTEX
8
0
10
1.8684263041338582
20
0.85
30
0
0
VERTEX
8
0
10
1.8435736958661417
20
0.85
30
0
0
VERTEX
8
0
10
1.826
20
0.8324263041338583
30
0
0
VERTEX
8
0
10
1.826
20
0.8075736958661417
30
0
0
VERTEX
8
0
10
1.8435736958661417
20
0.79
30
0
0
VERTEX
8
0
10
1.8684263041338582
20
0.79
30
0
0
SEQEND
0
POLYLINE
66
1
8
16_copper
10
0.0
20
0.0
30
0.0
70
1
0
VERTEX
8
0
10
0.9295306348425196
20
0.774499876968504
30
0
42
0.9063474445600833
0
VERTEX
8
0
10
0.9270129183070867
20
0.825748031496063
30
0
0
VERTEX
8
0
10
0.8729870816929134
20
0.825748031496063
30
0
42
0.9520803604479573
0
VERTEX
8
0
10
0.8729870816929134
20
0.774251968503937
30
0
0
VERTEX
8
0
10
0.9270129183070867
20
0.774251968503937
30
0
0
SEQEND
0
POLYLINE
66
1
8
16_copper
10
0.0
20
0.0
30
0.0
70
1
0
VERTEX
8
0
10
1.886
20
0.6985736958661417
30
0
0
VERTEX
8
0
10
1.886
20
0.7234263041338582
30
0
0
VERTEX
8
0
10
1.8684263041338582
20
0.741
30
0
0
VERTEX
8
0
10
1.8435736958661417
20
0.741
30
0
0
VERTEX
8
0
10
1.826
20
0.7234263041338582
30
0
0
VERTEX
8
0
10
1.826
20
0.6985736958661417
30
0
0
VERTEX
8
0
10
1.8435736958661417
20
0.681
30
0
0
VERTEX
8
0
10
1.8684263041338582
20
0.681
30
0
0
SEQEND
0
POLYLINE
66
1
8
16_copper
10
0.0
20
0.0
30
0.0
70
1
0
VERTEX
8
0
10
0.9295306348425196
20
0.6744998769685039
30
0
42
0.9063474445600833
0
VERTEX
8
0
10
0.9270129183070867
20
0.725748031496063
30
0
0
VERTEX
8
0
10
0.8729870816929134
20
0.725748031496063
30
0
42
0.9520803604479573
0
VERTEX
8
0
10
0.8729870816929134
20
0.674251968503937
30
0
0
VERTEX
8
0
10
0.9270129183070867
20
0.674251968503937
30
0
0
SEQEND
0
POLYLINE
66
1
8
16_copper
10
0.0
20
0.0
30
0.0
70
1
0
VERTEX
8
0
10
2.87953063484252
20
0.624499876968504
30
0
42
0.9063474445600833
0
VERTEX
8
0
10
2.8770129183070865
20
0.675748031496063
30
0
0
VERTEX
8
0
10
2.8229870816929132
20
0.675748031496063
30
0
42
0.9520803604479573
0
VERTEX
8
0
10
2.8229870816929132
20
0.624251968503937
30
0
0
VERTEX
8
0
10
2.8770129183070865
20
0.624251968503937
30
0
0
SEQEND
0
POLYLINE
66
1
8
16_copper
10
0.0
20
0.0
30
0.0
70
1
0
VERTEX
8
0
10
0.9295306348425196
20
0.5744998769685039
30
0
42
0.9063474445600833
0
VERTEX
8
0
10
0.9270129183070867
20
0.625748031496063
30
0
0
VERTEX
8
0
10
0.8729870816929134
20
0.625748031496063
30
0
42
0.9520803604479573
0
VERTEX
8
0
10
0.8729870816929134
20
0.574251968503937
30
0
0
VERTEX
8
0
10
0.9270129183070867
20
0.574251968503937
30
0
0
SEQEND
0
POLYLINE
66
1
8
16_copper
10
0.0
20
0.0
30
0.0
70
1
0
VERTEX
8
0
10
2.87953063484252
20
0.524499876968504
30
0
42
0.9063474445600833
0
VERTEX
8
0
10
2.8770129183070865
20
0.575748031496063
30
0
0
VERTEX
8
0
10
2.8229870816929132
20
0.575748031496063
30
0
42
0.9520803604479573
0
VERTEX
8
0
10
2.8229870816929132
20
0.524251968503937
30
0
0
VERTEX
8
0
10
2.8770129183070865
20
0.524251968503937
30
0
0
SEQEND
0
POLYLINE
66
1
8
16_copper
10
0.0
20
0.0
30
0.0
70
1
0
VERTEX
8
0
10
2.87953063484252
20
0.42449987696850394
30
0
42
0.9063474445600833
0
VERTEX
8
0
10
2.8770129183070865
20
0.475748031496063
30
0
0
VERTEX
8
0
10
2.8229870816929132
20
0.475748031496063
30
0
42
0.9520803604479573
0
VERTEX
8
0
10
2.8229870816929132
20
0.424251968503937
30
0
0
VERTEX
8
0
10
2.8770129183070865
20
0.424251968503937
30
0
0
SEQEND
0
POLYLINE
66
1
8
1_copper
10
0.0
20
0.0
30
0.0
70
1
0
VERTEX
8
0
10
2.37953063484252
20
0.42449987696850394
30
0
42
0.2619219535850413
0
VERTEX
8
0
10
2.3994753937007873
20
0.44
30
0
0
VERTEX
8
0
10
2.5
20
0.44
30
0
42
0.4142135623730951
0
VERTEX
8
0
10
2.51
20
0.45
30
0
0
VERTEX
8
0
10
2.51
20
1.05
30
0
42
0.4142135623730951
0
VERTEX
8
0
10
2.5
20
1.06
30
0
0
VERTEX
8
0
10
2.3994753937007873
20
1.06
30
0
42
0.2883249766238833
0
VERTEX
8
0
10
2.3770129183070865
20
1.075748031496063
30
0
0
VERTEX
8
0
10
2.3229870816929132
20
1.075748031496063
30
0
42
0.9520803604479573
0
VERTEX
8
0
10
2.3229870816929132
20
1.024251968503937
30
0
0
VERTEX
8
0
10
2.3770129183070865
20
1.024251968503937
30
0
42
0.2883249766238833
0
VERTEX
8
0
10
2.3994753937007873
20
1.04
30
0
0
VERTEX
8
0
10
2.49
20
1.04
30
0
0
VERTEX
8
0
10
2.49
20
0.46
30
0
0
VERTEX
8
0
10
2.3994753937007873
20
0.46
30
0
42
0.2883249766238833
0
VERTEX
8
0
10
2.3770129183070865
20
0.475748031496063
30
0
0
VERTEX
8
0
10
2.3229870816929132
20
0.475748031496063
30
0
42
0.2600401287028072
0
VERTEX
8
0
10
2.3017046013779527
20
0.46243762303149605
30
0
0
VERTEX
8
0
10
2.2570711122047245
20
0.5070711122047245
30
0
42
0.19891236737965798
0
VERTEX
8
0
10
2.25
20
0.51
30
0
0
VERTEX
8
0
10
2.176
20
0.51
30
0
0
VERTEX
8
0
10
2.176
20
0.5107694389763779
30
0
0
VERTEX
8
0
10
2.160769438976378
20
0.526
30
0
0
VERTEX
8
0
10
2.139230561023622
20
0.526
30
0
0
VERTEX
8
0
10
2.124
20
0.5107694389763779
30
0
0
VERTEX
8
0
10
2.124
20
0.51
30
0
0
VERTEX
8
0
10
2.071142224409449
20
0.51
30
0
0
VERTEX
8
0
10
1.9740711122047243
20
0.6070711122047244
30
0
42
0.19891236737965798
0
VERTEX
8
0
10
1.967
20
0.61
30
0
0
VERTEX
8
0
10
1.886
20
0.61
30
0
0
VERTEX
8
0
10
1.886
20
0.6144263041338582
30
0
0
VERTEX
8
0
10
1.8684263041338582
20
0.632
30
0
0
VERTEX
8
0
10
1.8435736958661417
20
0.632
30
0
0
VERTEX
8
0
10
1.826
20
0.6144263041338582
30
0
0
VERTEX
8
0
10
1.826
20
0.5895736958661417
30
0
0
VERTEX
8
0
10
1.8435736958661417
20
0.572
30
0
0
VERTEX
8
0
10
1.8684263041338582
20
0.572
30
0
0
VERTEX
8
0
10
1.886
20
0.5895736958661417
30
0
0
VERTEX
8
0
10
1.886
20
0.59
30
0
0
VERTEX
8
0
10
1.9628577755905512
20
0.59
30
0
0
VERTEX
8
0
10
2.0599288877952757
20
0.4929288877952756
30
0
42
0.19891236737965798
0
VERTEX
8
0
10
2.067
20
0.49
30
0
0
VERTEX
8
0
10
2.124
20
0.49
30
0
0
VERTEX
8
0
10
2.124
20
0.48923056102362206
30
0
0
VERTEX
8
0
10
2.139230561023622
20
0.474
30
0
0
VERTEX
8
0
10
2.160769438976378
20
0.474
30
0
0
VERTEX
8
0
10
2.176
20
0.48923056102362206
30
0
0
VERTEX
8
0
10
2.176
20
0.49
30
0
0
VERTEX
8
0
10
2.2458577755905513
20
0.49
30
0
0
VERTEX
8
0
10
2.2929288877952754
20
0.4429288877952756
30
0
42
0.21257033345666324
0
VERTEX
8
0
10
2.3005246062992124
20
0.44
30
0
0
VERTEX
8
0
10
2.3009479576771654
20
0.43897797736220473
30
0
42
0.2767371751090419
0
VERTEX
8
0
10
2.3229870816929132
20
0.424251968503937
30
0
0
VERTEX
8
0
10
2.3770129183070865
20
0.424251968503937
30
0
0
SEQEND
0
POLYLINE
66
1
8
16_copper
10
0.0
20
0.0
30
0.0
70
1
0
VERTEX
8
0
10
2.37953063484252
20
1.0244998769685039
30
0
42
0.9063474445600833
0
VERTEX
8
0
10
2.3770129183070865
20
1.075748031496063
30
0
0
VERTEX
8
0
10
2.3229870816929132
20
1.075748031496063
30
0
42
0.9520803604479573
0
VERTEX
8
0
10
2.3229870816929132
20
1.024251968503937
30
0
0
VERTEX
8
0
10
2.3770129183070865
20
1.024251968503937
30
0
0
SEQEND
0
POLYLINE
66
1
8
16_copper
10
0.0
20
0.0
30
0.0
70
1
0
VERTEX
8
0
10
1.886
20
0.5895736958661417
30
0
0
VERTEX
8
0
10
1.886
20
0.6144263041338582
30
0
0
VERTEX
8
0
10
1.8684263041338582
20
0.632
30
0
0
VERTEX
8
0
10
1.8435736958661417
20
0.632
30
0
0
VERTEX
8
0
10
1.826
20
0.6144263041338582
30
0
0
VERTEX
8
0
10
1.826
20
0.5895736958661417
30
0
0
VERTEX
8
0
10
1.8435736958661417
20
0.572
30
0
0
VERTEX
8
0
10
1.8684263041338582
20
0.572
30
0
0
SEQEND
0
POLYLINE
66
1
8
16_copper
10
0.0
20
0.0
30
0.0
70
1
0
VERTEX
8
0
10
2.176
20
0.48923056102362206
30
0
0
VERTEX
8
0
10
2.176
20
0.5107694389763779
30
0
0
VERTEX
8
0
10
2.160769438976378
20
0.526
30
0
0
VERTEX
8
0
10
2.139230561023622
20
0.526
30
0
0
VERTEX
8
0
10
2.124
20
0.5107694389763779
30
0
0
VERTEX
8
0
10
2.124
20
0.48923056102362206
30
0
0
VERTEX
8
0
10
2.139230561023622
20
0.474
30
0
0
VERTEX
8
0
10
2.160769438976378
20
0.474
30
0
0
SEQEND
0
POLYLINE
66
1
8
16_copper
10
0.0
20
0.0
30
0.0
70
1
0
VERTEX
8
0
10
2.37953063484252
20
0.42449987696850394
30
0
42
0.9063474445600833
0
VERTEX
8
0
10
2.3770129183070865
20
0.475748031496063
30
0
0
VERTEX
8
0
10
2.3229870816929132
20
0.475748031496063
30
0
42
0.9520803604479573
0
VERTEX
8
0
10
2.3229870816929132
20
0.424251968503937
30
0
0
VERTEX
8
0
10
2.3770129183070865
20
0.424251968503937
30
0
0
SEQEND
0
POLYLINE
66
1
8
1_copper
10
0.0
20
0.0
30
0.0
70
1
0
VERTEX
8
0
10
2.176
20
0.28923056102362205
30
0
0
VERTEX
8
0
10
2.176
20
0.29
30
0
0
VERTEX
8
0
10
2.3
20
0.29
30
0
42
0.19891236737965798
0
VERTEX
8
0
10
2.3070711122047243
20
0.2929288877952756
30
0
0
VERTEX
8
0
10
2.338394192913386
20
0.324251968503937
30
0
0
VERTEX
8
0
10
2.3770129183070865
20
0.324251968503937
30
0
42
0.9520803604479573
0
VERTEX
8
0
10
2.3770129183070865
20
0.375748031496063
30
0
0
VERTEX
8
0
10
2.3229870816929132
20
0.375748031496063
30
0
42
0.7726428857784846
0
VERTEX
8
0
10
2.312789247047244
20
0.32693147145669293
30
0
0
VERTEX
8
0
10
2.295857775590551
20
0.31
30
0
0
VERTEX
8
0
10
2.176
20
0.31
30
0
0
VERTEX
8
0
10
2.176
20
0.31076943897637793
30
0
0
VERTEX
8
0
10
2.160769438976378
20
0.326
30
0
0
VERTEX
8
0
10
2.139230561023622
20
0.326
30
0
0
VERTEX
8
0
10
2.1386863927165356
20
0.32545583169291337
30
0
0
VERTEX
8
0
10
1.9570711122047244
20
0.5070711122047245
30
0
42
0.19891236737965798
0
VERTEX
8
0
10
1.95
20
0.51
30
0
0
VERTEX
8
0
10
1.796142224409449
20
0.51
30
0
0
VERTEX
8
0
10
1.7722843257874015
20
0.5338580216535433
30
0
0
VERTEX
8
0
10
1.774
20
0.5355736958661418
30
0
0
VERTEX
8
0
10
1.774
20
0.5604263041338583
30
0
0
VERTEX
8
0
10
1.7564263041338584
20
0.578
30
0
0
VERTEX
8
0
10
1.7315736958661416
20
0.578
30
0
0
VERTEX
8
0
10
1.714
20
0.5604263041338583
30
0
0
VERTEX
8
0
10
1.714
20
0.5355736958661418
30
0
0
VERTEX
8
0
10
1.7315736958661416
20
0.518
30
0
0
VERTEX
8
0
10
1.7564263041338584
20
0.518
30
0
0
VERTEX
8
0
10
1.7581421013779528
20
0.5197157972440944
30
0
0
VERTEX
8
0
10
1.7849288877952756
20
0.4929288877952756
30
0
42
0.19891236737965798
0
VERTEX
8
0
10
1.792
20
0.49
30
0
0
VERTEX
8
0
10
1.9458577755905513
20
0.49
30
0
0
VERTEX
8
0
10
2.1245441683070867
20
0.3113136072834646
30
0
0
VERTEX
8
0
10
2.124
20
0.31076943897637793
30
0
0
VERTEX
8
0
10
2.124
20
0.28923056102362205
30
0
0
VERTEX
8
0
10
2.139230561023622
20
0.274
30
0
0
VERTEX
8
0
10
2.160769438976378
20
0.274
30
0
0
SEQEND
0
POLYLINE
66
1
8
16_copper
10
0.0
20
0.0
30
0.0
70
1
0
VERTEX
8
0
10
1.774
20
0.5355736958661418
30
0
0
VERTEX
8
0
10
1.774
20
0.5604263041338583
30
0
0
VERTEX
8
0
10
1.7564263041338584
20
0.578
30
0
0
VERTEX
8
0
10
1.7315736958661416
20
0.578
30
0
0
VERTEX
8
0
10
1.714
20
0.5604263041338583
30
0
0
VERTEX
8
0
10
1.714
20
0.5355736958661418
30
0
0
VERTEX
8
0
10
1.7315736958661416
20
0.518
30
0
0
VERTEX
8
0
10
1.7564263041338584
20
0.518
30
0
0
SEQEND
0
POLYLINE
66
1
8
16_copper
10
0.0
20
0.0
30
0.0
70
1
0
VERTEX
8
0
10
2.37953063484252
20
0.32449987696850396
30
0
42
0.9063474445600833
0
VERTEX
8
0
10
2.3770129183070865
20
0.375748031496063
30
0
0
VERTEX
8
0
10
2.3229870816929132
20
0.375748031496063
30
0
42
0.9520803604479573
0
VERTEX
8
0
10
2.3229870816929132
20
0.324251968503937
30
0
0
VERTEX
8
0
10
2.3770129183070865
20
0.324251968503937
30
0
0
SEQEND
0
POLYLINE
66
1
8
16_copper
10
0.0
20
0.0
30
0.0
70
1
0
VERTEX
8
0
10
2.176
20
0.28923056102362205
30
0
0
VERTEX
8
0
10
2.176
20
0.31076943897637793
30
0
0
VERTEX
8
0
10
2.160769438976378
20
0.326
30
0
0
VERTEX
8
0
10
2.139230561023622
20
0.326
30
0
0
VERTEX
8
0
10
2.124
20
0.31076943897637793
30
0
0
VERTEX
8
0
10
2.124
20
0.28923056102362205
30
0
0
VERTEX
8
0
10
2.139230561023622
20
0.274
30
0
0
VERTEX
8
0
10
2.160769438976378
20
0.274
30
0
0
SEQEND
0
POLYLINE
66
1
8
1_copper
10
0.0
20
0.0
30
0.0
70
1
0
VERTEX
8
0
10
2.87953063484252
20
0.7244998769685039
30
0
42
0.9063474445600833
0
VERTEX
8
0
10
2.8770129183070865
20
0.775748031496063
30
0
0
VERTEX
8
0
10
2.86
20
0.775748031496063
30
0
0
VERTEX
8
0
10
2.86
20
0.824251968503937
30
0
0
VERTEX
8
0
10
2.8770129183070865
20
0.824251968503937
30
0
42
0.9520803604479573
0
VERTEX
8
0
10
2.8770129183070865
20
0.875748031496063
30
0
0
VERTEX
8
0
10
2.8229870816929132
20
0.875748031496063
30
0
42
0.9520803604479573
0
VERTEX
8
0
10
2.8229870816929132
20
0.824251968503937
30
0
0
VERTEX
8
0
10
2.84
20
0.824251968503937
30
0
0
VERTEX
8
0
10
2.84
20
0.775748031496063
30
0
0
VERTEX
8
0
10
2.8229870816929132
20
0.775748031496063
30
0
42
0.9520803604479573
0
VERTEX
8
0
10
2.8229870816929132
20
0.724251968503937
30
0
0
VERTEX
8
0
10
2.8770129183070865
20
0.724251968503937
30
0
0
SEQEND
0
POLYLINE
66
1
8
16_copper
10
0.0
20
0.0
30
0.0
70
1
0
VERTEX
8
0
10
2.87953063484252
20
0.8244998769685039
30
0
42
0.9063474445600833
0
VERTEX
8
0
10
2.8770129183070865
20
0.875748031496063
30
0
0
VERTEX
8
0
10
2.8229870816929132
20
0.875748031496063
30
0
42
0.9520803604479573
0
VERTEX
8
0
10
2.8229870816929132
20
0.824251968503937
30
0
0
VERTEX
8
0
10
2.8770129183070865
20
0.824251968503937
30
0
0
SEQEND
0
POLYLINE
66
1
8
16_copper
10
0.0
20
0.0
30
0.0
70
1
0
VERTEX
8
0
10
2.87953063484252
20
0.7244998769685039
30
0
42
0.9063474445600833
0
VERTEX
8
0
10
2.8770129183070865
20
0.775748031496063
30
0
0
VERTEX
8
0
10
2.8229870816929132
20
0.775748031496063
30
0
42
0.9520803604479573
0
VERTEX
8
0
10
2.8229870816929132
20
0.724251968503937
30
0
0
VERTEX
8
0
10
2.8770129183070865
20
0.724251968503937
30
0
0
SEQEND
0
POLYLINE
66
1
8
1_copper
10
0.0
20
0.0
30
0.0
70
1
0
VERTEX
8
0
10
0.9295306348425196
20
0.37449987696850395
30
0
42
0.9063474445600833
0
VERTEX
8
0
10
0.9270129183070867
20
0.425748031496063
30
0
0
VERTEX
8
0
10
0.91
20
0.425748031496063
30
0
0
VERTEX
8
0
10
0.91
20
0.474251968503937
30
0
0
VERTEX
8
0
10
0.9270129183070867
20
0.474251968503937
30
0
42
0.9520803604479573
0
VERTEX
8
0
10
0.9270129183070867
20
0.525748031496063
30
0
0
VERTEX
8
0
10
0.8729870816929134
20
0.525748031496063
30
0
42
0.9520803604479573
0
VERTEX
8
0
10
0.8729870816929134
20
0.474251968503937
30
0
0
VERTEX
8
0
10
0.89
20
0.474251968503937
30
0
0
VERTEX
8
0
10
0.89
20
0.425748031496063
30
0
0
VERTEX
8
0
10
0.8729870816929134
20
0.425748031496063
30
0
42
0.9520803604479573
0
VERTEX
8
0
10
0.8729870816929134
20
0.374251968503937
30
0
0
VERTEX
8
0
10
0.9270129183070867
20
0.374251968503937
30
0
0
SEQEND
0
POLYLINE
66
1
8
16_copper
10
0.0
20
0.0
30
0.0
70
1
0
VERTEX
8
0
10
0.9295306348425196
20
0.47449987696850393
30
0
42
0.9063474445600833
0
VERTEX
8
0
10
0.9270129183070867
20
0.525748031496063
30
0
0
VERTEX
8
0
10
0.8729870816929134
20
0.525748031496063
30
0
42
0.9520803604479573
0
VERTEX
8
0
10
0.8729870816929134
20
0.474251968503937
30
0
0
VERTEX
8
0
10
0.9270129183070867
20
0.474251968503937
30
0
0
SEQEND
0
POLYLINE
66
1
8
16_copper
10
0.0
20
0.0
30
0.0
70
1
0
VERTEX
8
0
10
0.9295306348425196
20
0.37449987696850395
30
0
42
0.9063474445600833
0
VERTEX
8
0
10
0.9270129183070867
20
0.425748031496063
30
0
0
VERTEX
8
0
10
0.8729870816929134
20
0.425748031496063
30
0
42
0.9520803604479573
0
VERTEX
8
0
10
0.8729870816929134
20
0.374251968503937
30
0
0
VERTEX
8
0
10
0.9270129183070867
20
0.374251968503937
30
0
0
SEQEND
0
POLYLINE
66
1
8
1_copper
10
0.0
20
0.0
30
0.0
70
1
0
VERTEX
8
0
10
0.40156262303149604
20
2.590122785433071
30
0
42
0.9244717320471936
0
VERTEX
8
0
10
0.4
20
2.61
30
0
0
VERTEX
8
0
10
0.2
20
2.61
30
0
42
0.4142135623730951
0
VERTEX
8
0
10
0.19
20
2.6
30
0
0
VERTEX
8
0
10
0.19
20
0.6
30
0
42
0.19891236737965798
0
VERTEX
8
0
10
0.1929288877952756
20
0.5929288877952756
30
0
0
VERTEX
8
0
10
0.5929288877952756
20
0.1929288877952756
30
0
42
0.19891236737965798
0
VERTEX
8
0
10
0.6
20
0.19
30
0
0
VERTEX
8
0
10
0.8505246062992126
20
0.19
30
0
42
0.2883249766238833
0
VERTEX
8
0
10
0.8729870816929134
20
0.174251968503937
30
0
0
VERTEX
8
0
10
0.9270129183070867
20
0.174251968503937
30
0
42
0.9520803604479573
0
VERTEX
8
0
10
0.9270129183070867
20
0.22574803149606298
30
0
0
VERTEX
8
0
10
0.8729870816929134
20
0.22574803149606298
30
0
42
0.2883249766238833
0
VERTEX
8
0
10
0.8505246062992126
20
0.21
30
0
0
VERTEX
8
0
10
0.6041422244094489
20
0.21
30
0
0
VERTEX
8
0
10
0.21
20
0.6041422244094489
30
0
0
VERTEX
8
0
10
0.21
20
2.59
30
0
0
VERTEX
8
0
10
0.4
20
2.59
30
0
0
SEQEND
0
POLYLINE
66
1
8
16_copper
10
0.0
20
0.0
30
0.0
70
1
0
VERTEX
8
0
10
0.9295306348425196
20
0.17449987696850394
30
0
42
0.9063474445600833
0
VERTEX
8
0
10
0.9270129183070867
20
0.22574803149606298
30
0
0
VERTEX
8
0
10
0.8729870816929134
20
0.22574803149606298
30
0
42
0.9520803604479573
0
VERTEX
8
0
10
0.8729870816929134
20
0.174251968503937
30
0
0
VERTEX
8
0
10
0.9270129183070867
20
0.174251968503937
30
0
0
SEQEND
0
POLYLINE
66
1
8
1_copper
10
0.0
20
0.0
30
0.0
70
1
0
VERTEX
8
0
10
0.24922502460629922
20
2.509939099409449
30
0
42
0.3916014460306381
0
VERTEX
8
0
10
0.24
20
2.5
30
0
0
VERTEX
8
0
10
0.24
20
0.65
30
0
42
0.19891236737965798
0
VERTEX
8
0
10
0.24292888779527558
20
0.6429288877952756
30
0
0
VERTEX
8
0
10
0.5929288877952756
20
0.2929288877952756
30
0
42
0.19891236737965798
0
VERTEX
8
0
10
0.6
20
0.29
30
0
0
VERTEX
8
0
10
0.8505246062992126
20
0.29
30
0
42
0.2883249766238833
0
VERTEX
8
0
10
0.8729870816929134
20
0.274251968503937
30
0
0
VERTEX
8
0
10
0.9270129183070867
20
0.274251968503937
30
0
42
0.9520803604479573
0
VERTEX
8
0
10
0.9270129183070867
20
0.325748031496063
30
0
0
VERTEX
8
0
10
0.8729870816929134
20
0.325748031496063
30
0
42
0.2883249766238833
0
VERTEX
8
0
10
0.8505246062992126
20
0.31
30
0
0
VERTEX
8
0
10
0.6041422244094489
20
0.31
30
0
0
VERTEX
8
0
10
0.26
20
0.6541422244094488
30
0
0
VERTEX
8
0
10
0.26
20
2.49
30
0
0
VERTEX
8
0
10
0.4
20
2.49
30
0
42
0.9999999999999999
0
VERTEX
8
0
10
0.4
20
2.51
30
0
0
VERTEX
8
0
10
0.25
20
2.51
30
0
0
SEQEND
0
POLYLINE
66
1
8
16_copper
10
0.0
20
0.0
30
0.0
70
1
0
VERTEX
8
0
10
0.9295306348425196
20
0.2744998769685039
30
0
42
0.9063474445600833
0
VERTEX
8
0
10
0.9270129183070867
20
0.325748031496063
30
0
0
VERTEX
8
0
10
0.8729870816929134
20
0.325748031496063
30
0
42
0.9520803604479573
0
VERTEX
8
0
10
0.8729870816929134
20
0.274251968503937
30
0
0
VERTEX
8
0
10
0.9270129183070867
20
0.274251968503937
30
0
0
SEQEND
0
POLYLINE
66
1
8
1_copper
10
0.0
20
0.0
30
0.0
70
1
0
VERTEX
8
0
10
1.5992250246062991
20
3.109939099409449
30
0
42
0.3916014460306381
0
VERTEX
8
0
10
1.59
20
3.1
30
0
0
VERTEX
8
0
10
1.59
20
3.0185551181102364
30
0
42
0.319645473117655
0
VERTEX
8
0
10
1.565
20
2.9865281742125984
30
0
0
VERTEX
8
0
10
1.565
20
2.9134718257874015
30
0
42
0.9572906161637668
0
VERTEX
8
0
10
1.635
20
2.9134718257874015
30
0
0
VERTEX
8
0
10
1.635
20
2.9865281742125984
30
0
42
0.319645473117655
0
VERTEX
8
0
10
1.61
20
3.0185551181102364
30
0
0
VERTEX
8
0
10
1.61
20
3.09
30
0
0
VERTEX
8
0
10
2.09
20
3.09
30
0
0
VERTEX
8
0
10
2.09
20
3.0185551181102364
30
0
42
0.319645473117655
0
VERTEX
8
0
10
2.065
20
2.9865281742125984
30
0
0
VERTEX
8
0
10
2.065
20
2.9134718257874015
30
0
42
0.319645473117655
0
VERTEX
8
0
10
2.09
20
2.881444881889764
30
0
0
VERTEX
8
0
10
2.09
20
2.824859621062992
30
0
0
VERTEX
8
0
10
2.045109128937008
20
2.767142839566929
30
0
0
VERTEX
8
0
10
1.4196265994094488
20
2.767142839566929
30
0
0
VERTEX
8
0
10
1.4107694389763779
20
2.776
30
0
0
VERTEX
8
0
10
1.389230561023622
20
2.776
30
0
0
VERTEX
8
0
10
1.3803734005905512
20
2.767142839566929
30
0
0
VERTEX
8
0
10
1.3
20
2.767142839566929
30
0
42
0.4142135623730951
0
VERTEX
8
0
10
1.29
20
2.7571428395669293
30
0
0
VERTEX
8
0
10
1.29
20
1.8041422244094487
30
0
0
VERTEX
8
0
10
1.1929288877952755
20
1.7070711122047244
30
0
42
0.9999999999999999
0
VERTEX
8
0
10
1.2070711122047244
20
1.6929288877952755
30
0
0
VERTEX
8
0
10
1.3070711122047245
20
1.7929288877952756
30
0
42
0.19891236737965798
0
VERTEX
8
0
10
1.31
20
1.8
30
0
0
VERTEX
8
0
10
1.31
20
2.747142839566929
30
0
0
VERTEX
8
0
10
1.374
20
2.747142839566929
30
0
0
VERTEX
8
0
10
1.374
20
2.739230561023622
30
0
0
VERTEX
8
0
10
1.389230561023622
20
2.724
30
0
0
VERTEX
8
0
10
1.4107694389763779
20
2.724
30
0
0
VERTEX
8
0
10
1.426
20
2.739230561023622
30
0
0
VERTEX
8
0
10
1.426
20
2.747142839566929
30
0
0
VERTEX
8
0
10
2.05
20
2.747142839566929
30
0
42
0.23144396163931494
0
VERTEX
8
0
10
2.0578935777559053
20
2.75100344488189
30
0
0
VERTEX
8
0
10
2.1078935777559056
20
2.815289124015748
30
0
42
0.16678078884972786
0
VERTEX
8
0
10
2.11
20
2.8214285187007873
30
0
0
VERTEX
8
0
10
2.11
20
2.881444881889764
30
0
42
0.319645473117655
0
VERTEX
8
0
10
2.135
20
2.9134718257874015
30
0
0
VERTEX
8
0
10
2.135
20
2.9865281742125984
30
0
42
0.319645473117655
0
VERTEX
8
0
10
2.11
20
3.0185551181102364
30
0
0
VERTEX
8
0
10
2.11
20
3.09
30
0
0
VERTEX
8
0
10
2.2458577755905513
20
3.09
30
0
0
VERTEX
8
0
10
2.4245441683070865
20
2.9113136072834647
30
0
0
VERTEX
8
0
10
2.424
20
2.910769438976378
30
0
0
VERTEX
8
0
10
2.424
20
2.889230561023622
30
0
0
VERTEX
8
0
10
2.439230561023622
20
2.874
30
0
0
VERTEX
8
0
10
2.460769438976378
20
2.874
30
0
0
VERTEX
8
0
10
2.476
20
2.889230561023622
30
0
0
VERTEX
8
0
10
2.476
20
2.910769438976378
30
0
0
VERTEX
8
0
10
2.460769438976378
20
2.926
30
0
0
VERTEX
8
0
10
2.439230561023622
20
2.926
30
0
0
VERTEX
8
0
10
2.4386863927165354
20
2.9254558316929136
30
0
0
VERTEX
8
0
10
2.2570711122047245
20
3.1070711122047245
30
0
42
0.19891236737965798
0
VERTEX
8
0
10
2.25
20
3.11
30
0
0
VERTEX
8
0
10
1.6
20
3.11
30
0
0
SEQEND
0
POLYLINE
66
1
8
16_copper
10
0.0
20
0.0
30
0.0
70
1
0
VERTEX
8
0
10
2.104572711614173
20
2.8802663631889764
30
0
42
0.3639703696370299
0
VERTEX
8
0
10
2.135
20
2.9134718257874015
30
0
0
VERTEX
8
0
10
2.135
20
2.9865281742125984
30
0
42
0.9572906161637668
0
VERTEX
8
0
10
2.065
20
2.9865281742125984
30
0
0
VERTEX
8
0
10
2.065
20
2.9134718257874015
30
0
0
VERTEX
8
0
10
2.0652663631889765
20
2.9104272883858266
30
0
0
VERTEX
8
0
10
2.065797121062992
20
2.907417445866142
30
0
0
VERTEX
8
0
10
2.066588090551181
20
2.9044653051181104
30
0
0
VERTEX
8
0
10
2.0676333661417323
20
2.9015933809055117
30
0
0
VERTEX
8
0
10
2.068925073818898
20
2.8988234498031495
30
0
0
VERTEX
8
0
10
2.070453125
20
2.8961765501968504
30
0
0
VERTEX
8
0
10
2.0722062007874014
20
2.8936731053149605
30
0
0
VERTEX
8
0
10
2.0741707677165353
20
2.891331815944882
30
0
0
VERTEX
8
0
10
2.076331815944882
20
2.8891707677165352
30
0
0
VERTEX
8
0
10
2.0786731053149605
20
2.8872062007874018
30
0
0
VERTEX
8
0
10
2.0811765501968504
20
2.885453125
30
0
0
VERTEX
8
0
10
2.0838234498031496
20
2.8839250738188977
30
0
0
VERTEX
8
0
10
2.0865933809055117
20
2.8826333661417323
30
0
0
VERTEX
8
0
10
2.08946530511811
20
2.881588090551181
30
0
0
VERTEX
8
0
10
2.0924174458661415
20
2.880797121062992
30
0
0
VERTEX
8
0
10
2.0954272883858267
20
2.8802663631889764
30
0
0
VERTEX
8
0
10
2.0984718257874015
20
2.88
30
0
0
VERTEX
8
0
10
2.1015281742125986
20
2.88
30
0
0
SEQEND
0
POLYLINE
66
1
8
16_copper
10
0.0
20
0.0
30
0.0
70
1
0
VERTEX
8
0
10
1.6045727116141733
20
2.8802663631889764
30
0
42
0.3639703696370299
0
VERTEX
8
0
10
1.635
20
2.9134718257874015
30
0
0
VERTEX
8
0
10
1.635
20
2.9865281742125984
30
0
42
0.9572906161637668
0
VERTEX
8
0
10
1.565
20
2.9865281742125984
30
0
0
VERTEX
8
0
10
1.565
20
2.9134718257874015
30
0
0
VERTEX
8
0
10
1.5652663631889763
20
2.9104272883858266
30
0
0
VERTEX
8
0
10
1.5657971210629922
20
2.907417445866142
30
0
0
VERTEX
8
0
10
1.566588090551181
20
2.9044653051181104
30
0
0
VERTEX
8
0
10
1.5676333661417323
20
2.9015933809055117
30
0
0
VERTEX
8
0
10
1.5689250738188976
20
2.8988234498031495
30
0
0
VERTEX
8
0
10
1.570453125
20
2.8961765501968504
30
0
0
VERTEX
8
0
10
1.5722062007874016
20
2.8936731053149605
30
0
0
VERTEX
8
0
10
1.5741707677165355
20
2.891331815944882
30
0
0
VERTEX
8
0
10
1.5763318159448818
20
2.8891707677165352
30
0
0
VERTEX
8
0
10
1.5786731053149605
20
2.8872062007874018
30
0
0
VERTEX
8
0
10
1.5811765501968504
20
2.885453125
30
0
0
VERTEX
8
0
10
1.5838234498031496
20
2.8839250738188977
30
0
0
VERTEX
8
0
10
1.5865933809055117
20
2.8826333661417323
30
0
0
VERTEX
8
0
10
1.5894653051181102
20
2.881588090551181
30
0
0
VERTEX
8
0
10
1.5924174458661418
20
2.880797121062992
30
0
0
VERTEX
8
0
10
1.5954272883858267
20
2.8802663631889764
30
0
0
VERTEX
8
0
10
1.5984718257874015
20
2.88
30
0
0
VERTEX
8
0
10
1.6015281742125984
20
2.88
30
0
0
SEQEND
0
POLYLINE
66
1
8
16_copper
10
0.0
20
0.0
30
0.0
70
1
0
VERTEX
8
0
10
2.476
20
2.889230561023622
30
0
0
VERTEX
8
0
10
2.476
20
2.910769438976378
30
0
0
VERTEX
8
0
10
2.460769438976378
20
2.926
30
0
0
VERTEX
8
0
10
2.439230561023622
20
2.926
30
0
0
VERTEX
8
0
10
2.424
20
2.910769438976378
30
0
0
VERTEX
8
0
10
2.424
20
2.889230561023622
30
0
0
VERTEX
8
0
10
2.439230561023622
20
2.874
30
0
0
VERTEX
8
0
10
2.460769438976378
20
2.874
30
0
0
SEQEND
0
POLYLINE
66
1
8
16_copper
10
0.0
20
0.0
30
0.0
70
1
0
VERTEX
8
0
10
1.426
20
2.739230561023622
30
0
0
VERTEX
8
0
10
1.426
20
2.760769438976378
30
0
0
VERTEX
8
0
10
1.4107694389763779
20
2.776
30
0
0
VERTEX
8
0
10
1.389230561023622
20
2.776
30
0
0
VERTEX
8
0
10
1.374
20
2.760769438976378
30
0
0
VERTEX
8
0
10
1.374
20
2.739230561023622
30
0
0
VERTEX
8
0
10
1.389230561023622
20
2.724
30
0
0
VERTEX
8
0
10
1.4107694389763779
20
2.724
30
0
0
SEQEND
0
POLYLINE
66
1
8
1_copper
10
0.0
20
0.0
30
0.0
70
1
0
VERTEX
8
0
10
2.37953063484252
20
0.524499876968504
30
0
42
0.9063474445600833
0
VERTEX
8
0
10
2.3770129183070865
20
0.575748031496063
30
0
0
VERTEX
8
0
10
2.3229870816929132
20
0.575748031496063
30
0
42
0.2600401287028072
0
VERTEX
8
0
10
2.3017046013779527
20
0.562437623031496
30
0
0
VERTEX
8
0
10
2.2440711122047245
20
0.6200711122047244
30
0
42
0.19620545946836632
0
VERTEX
8
0
10
2.2371042076771652
20
0.6229995078740157
30
0
0
VERTEX
8
0
10
2.055
20
0.6248964074803149
30
0
0
VERTEX
8
0
10
2.055
20
1.035
30
0
42
0.4111178542964411
0
VERTEX
8
0
10
2.0451058070866144
20
1.0449993848425196
30
0
0
VERTEX
8
0
10
1.886
20
1.0466830708661417
30
0
0
VERTEX
8
0
10
1.886
20
1.0494263041338583
30
0
0
VERTEX
8
0
10
1.8684263041338582
20
1.067
30
0
0
VERTEX
8
0
10
1.8435736958661417
20
1.067
30
0
0
VERTEX
8
0
10
1.826
20
1.0494263041338583
30
0
0
VERTEX
8
0
10
1.826
20
1.0245736958661418
30
0
0
VERTEX
8
0
10
1.8435736958661417
20
1.007
30
0
0
VERTEX
8
0
10
1.8684263041338582
20
1.007
30
0
0
VERTEX
8
0
10
1.886
20
1.0245736958661418
30
0
0
VERTEX
8
0
10
1.886
20
1.0266820866141733
30
0
0
VERTEX
8
0
10
2.035
20
1.02510531496063
30
0
0
VERTEX
8
0
10
2.035
20
0.615
30
0
42
0.4111646337129986
0
VERTEX
8
0
10
2.044895792322835
20
0.6050004921259843
30
0
0
VERTEX
8
0
10
2.232814714566929
20
0.603043061023622
30
0
0
VERTEX
8
0
10
2.2929288877952754
20
0.5429288877952756
30
0
42
0.21257033345666324
0
VERTEX
8
0
10
2.3005246062992124
20
0.54
30
0
0
VERTEX
8
0
10
2.3009479576771654
20
0.5389779773622048
30
0
42
0.2767371751090419
0
VERTEX
8
0
10
2.3229870816929132
20
0.524251968503937
30
0
0
VERTEX
8
0
10
2.3770129183070865
20
0.524251968503937
30
0
0
SEQEND
0
POLYLINE
66
1
8
16_copper
10
0.0
20
0.0
30
0.0
70
1
0
VERTEX
8
0
10
1.886
20
1.0245736958661418
30
0
0
VERTEX
8
0
10
1.886
20
1.0494263041338583
30
0
0
VERTEX
8
0
10
1.8684263041338582
20
1.067
30
0
0
VERTEX
8
0
10
1.8435736958661417
20
1.067
30
0
0
VERTEX
8
0
10
1.826
20
1.0494263041338583
30
0
0
VERTEX
8
0
10
1.826
20
1.0245736958661418
30
0
0
VERTEX
8
0
10
1.8435736958661417
20
1.007
30
0
0
VERTEX
8
0
10
1.8684263041338582
20
1.007
30
0
0
SEQEND
0
POLYLINE
66
1
8
16_copper
10
0.0
20
0.0
30
0.0
70
1
0
VERTEX
8
0
10
2.37953063484252
20
0.524499876968504
30
0
42
0.9063474445600833
0
VERTEX
8
0
10
2.3770129183070865
20
0.575748031496063
30
0
0
VERTEX
8
0
10
2.3229870816929132
20
0.575748031496063
30
0
42
0.9520803604479573
0
VERTEX
8
0
10
2.3229870816929132
20
0.524251968503937
30
0
0
VERTEX
8
0
10
2.3770129183070865
20
0.524251968503937
30
0
0
SEQEND
0
POLYLINE
66
1
8
1_copper
10
0.0
20
0.0
30
0.0
70
1
0
VERTEX
8
0
10
2.37953063484252
20
0.624499876968504
30
0
42
0.9063474445600833
0
VERTEX
8
0
10
2.3770129183070865
20
0.675748031496063
30
0
0
VERTEX
8
0
10
2.3229870816929132
20
0.675748031496063
30
0
42
0.2600401287028072
0
VERTEX
8
0
10
2.3017046013779527
20
0.6624376230314961
30
0
0
VERTEX
8
0
10
2.2650711122047245
20
0.6990711122047244
30
0
42
0.19891236737965798
0
VERTEX
8
0
10
2.258
20
0.702
30
0
0
VERTEX
8
0
10
2.11
20
0.702
30
0
0
VERTEX
8
0
10
2.11
20
1.1
30
0
42
0.19891236737965798
0
VERTEX
8
0
10
2.1070711122047245
20
1.1070711122047243
30
0
0
VERTEX
8
0
10
2.0570711122047243
20
1.1570711122047244
30
0
42
0.20427726156798315
0
VERTEX
8
0
10
2.0497937992125985
20
1.1599979084645669
30
0
0
VERTEX
8
0
10
1.886
20
1.1566206938976378
30
0
0
VERTEX
8
0
10
1.886
20
1.1584263041338583
30
0
0
VERTEX
8
0
10
1.8684263041338582
20
1.176
30
0
0
VERTEX
8
0
10
1.8435736958661417
20
1.176
30
0
0
VERTEX
8
0
10
1.826
20
1.1584263041338583
30
0
0
VERTEX
8
0
10
1.826
20
1.1335736958661418
30
0
0
VERTEX
8
0
10
1.8435736958661417
20
1.116
30
0
0
VERTEX
8
0
10
1.8684263041338582
20
1.116
30
0
0
VERTEX
8
0
10
1.886
20
1.1335736958661418
30
0
0
VERTEX
8
0
10
1.886
20
1.1366163877952755
30
0
0
VERTEX
8
0
10
2.045943528543307
20
1.139914247047244
30
0
0
VERTEX
8
0
10
2.09
20
1.0958577755905512
30
0
0
VERTEX
8
0
10
2.09
20
0.692
30
0
42
0.4142135623730951
0
VERTEX
8
0
10
2.1
20
0.682
30
0
0
VERTEX
8
0
10
2.2538577755905513
20
0.682
30
0
0
VERTEX
8
0
10
2.2929288877952754
20
0.6429288877952756
30
0
42
0.21257033345666324
0
VERTEX
8
0
10
2.3005246062992124
20
0.64
30
0
0
VERTEX
8
0
10
2.3009479576771654
20
0.6389779773622047
30
0
42
0.2767371751090419
0
VERTEX
8
0
10
2.3229870816929132
20
0.624251968503937
30
0
0
VERTEX
8
0
10
2.3770129183070865
20
0.624251968503937
30
0
0
SEQEND
0
POLYLINE
66
1
8
16_copper
10
0.0
20
0.0
30
0.0
70
1
0
VERTEX
8
0
10
1.886
20
1.1335736958661418
30
0
0
VERTEX
8
0
10
1.886
20
1.1584263041338583
30
0
0
VERTEX
8
0
10
1.8684263041338582
20
1.176
30
0
0
VERTEX
8
0
10
1.8435736958661417
20
1.176
30
0
0
VERTEX
8
0
10
1.826
20
1.1584263041338583
30
0
0
VERTEX
8
0
10
1.826
20
1.1335736958661418
30
0
0
VERTEX
8
0
10
1.8435736958661417
20
1.116
30
0
0
VERTEX
8
0
10
1.8684263041338582
20
1.116
30
0
0
SEQEND
0
POLYLINE
66
1
8
16_copper
10
0.0
20
0.0
30
0.0
70
1
0
VERTEX
8
0
10
2.37953063484252
20
0.624499876968504
30
0
42
0.9063474445600833
0
VERTEX
8
0
10
2.3770129183070865
20
0.675748031496063
30
0
0
VERTEX
8
0
10
2.3229870816929132
20
0.675748031496063
30
0
42
0.9520803604479573
0
VERTEX
8
0
10
2.3229870816929132
20
0.624251968503937
30
0
0
VERTEX
8
0
10
2.3770129183070865
20
0.624251968503937
30
0
0
SEQEND
0
POLYLINE
66
1
8
1_copper
10
0.0
20
0.0
30
0.0
70
1
0
VERTEX
8
0
10
2.37953063484252
20
0.7244998769685039
30
0
42
0.9063474445600833
0
VERTEX
8
0
10
2.3770129183070865
20
0.775748031496063
30
0
0
VERTEX
8
0
10
2.3229870816929132
20
0.775748031496063
30
0
42
0.2883249766238833
0
VERTEX
8
0
10
2.3005246062992124
20
0.76
30
0
0
VERTEX
8
0
10
2.163
20
0.76
30
0
0
VERTEX
8
0
10
2.163
20
1.157
30
0
42
0.19891236737965798
0
VERTEX
8
0
10
2.1600711122047245
20
1.1640711122047245
30
0
0
VERTEX
8
0
10
2.0670711122047245
20
1.2570711122047245
30
0
42
0.19891236737965798
0
VERTEX
8
0
10
2.06
20
1.26
30
0
0
VERTEX
8
0
10
1.886
20
1.26
30
0
0
VERTEX
8
0
10
1.886
20
1.2664263041338584
30
0
0
VERTEX
8
0
10
1.8684263041338582
20
1.284
30
0
0
VERTEX
8
0
10
1.8435736958661417
20
1.284
30
0
0
VERTEX
8
0
10
1.826
20
1.2664263041338584
30
0
0
VERTEX
8
0
10
1.826
20
1.2415736958661416
30
0
0
VERTEX
8
0
10
1.8435736958661417
20
1.224
30
0
0
VERTEX
8
0
10
1.8684263041338582
20
1.224
30
0
0
VERTEX
8
0
10
1.8844263041338583
20
1.24
30
0
0
VERTEX
8
0
10
2.0558577755905514
20
1.24
30
0
0
VERTEX
8
0
10
2.143
20
1.1528577755905511
30
0
0
VERTEX
8
0
10
2.143
20
0.75
30
0
42
0.4142135623730951
0
VERTEX
8
0
10
2.153
20
0.74
30
0
0
VERTEX
8
0
10
2.3005246062992124
20
0.74
30
0
42
0.2883249766238833
0
VERTEX
8
0
10
2.3229870816929132
20
0.724251968503937
30
0
0
VERTEX
8
0
10
2.3770129183070865
20
0.724251968503937
30
0
0
SEQEND
0
POLYLINE
66
1
8
16_copper
10
0.0
20
0.0
30
0.0
70
1
0
VERTEX
8
0
10
1.886
20
1.2415736958661416
30
0
0
VERTEX
8
0
10
1.886
20
1.2664263041338584
30
0
0
VERTEX
8
0
10
1.8684263041338582
20
1.284
30
0
0
VERTEX
8
0
10
1.8435736958661417
20
1.284
30
0
0
VERTEX
8
0
10
1.826
20
1.2664263041338584
30
0
0
VERTEX
8
0
10
1.826
20
1.2415736958661416
30
0
0
VERTEX
8
0
10
1.8435736958661417
20
1.224
30
0
0
VERTEX
8
0
10
1.8684263041338582
20
1.224
30
0
0
SEQEND
0
POLYLINE
66
1
8
16_copper
10
0.0
20
0.0
30
0.0
70
1
0
VERTEX
8
0
10
2.37953063484252
20
0.7244998769685039
30
0
42
0.9063474445600833
0
VERTEX
8
0
10
2.3770129183070865
20
0.775748031496063
30
0
0
VERTEX
8
0
10
2.3229870816929132
20
0.775748031496063
30
0
42
0.9520803604479573
0
VERTEX
8
0
10
2.3229870816929132
20
0.724251968503937
30
0
0
VERTEX
8
0
10
2.3770129183070865
20
0.724251968503937
30
0
0
SEQEND
0
POLYLINE
66
1
8
1_copper
10
0.0
20
0.0
30
0.0
70
1
0
VERTEX
8
0
10
2.37953063484252
20
0.8244998769685039
30
0
42
0.9063474445600833
0
VERTEX
8
0
10
2.3770129183070865
20
0.875748031496063
30
0
0
VERTEX
8
0
10
2.3229870816929132
20
0.875748031496063
30
0
42
0.2883249766238833
0
VERTEX
8
0
10
2.3005246062992124
20
0.86
30
0
0
VERTEX
8
0
10
2.21
20
0.86
30
0
0
VERTEX
8
0
10
2.21
20
1.2
30
0
42
0.19891236737965798
0
VERTEX
8
0
10
2.2070711122047246
20
1.2070711122047244
30
0
0
VERTEX
8
0
10
2.0470711122047245
20
1.3670711122047243
30
0
42
0.19891236737965798
0
VERTEX
8
0
10
2.04
20
1.37
30
0
0
VERTEX
8
0
10
1.886
20
1.37
30
0
0
VERTEX
8
0
10
1.886
20
1.3754263041338584
30
0
0
VERTEX
8
0
10
1.8684263041338582
20
1.393
30
0
0
VERTEX
8
0
10
1.8435736958661417
20
1.393
30
0
0
VERTEX
8
0
10
1.826
20
1.3754263041338584
30
0
0
VERTEX
8
0
10
1.826
20
1.3505736958661416
30
0
0
VERTEX
8
0
10
1.8435736958661417
20
1.333
30
0
0
VERTEX
8
0
10
1.8684263041338582
20
1.333
30
0
0
VERTEX
8
0
10
1.8854263041338584
20
1.35
30
0
0
VERTEX
8
0
10
2.0358577755905514
20
1.35
30
0
0
VERTEX
8
0
10
2.19
20
1.1958577755905513
30
0
0
VERTEX
8
0
10
2.19
20
0.85
30
0
42
0.4142135623730951
0
VERTEX
8
0
10
2.2
20
0.84
30
0
0
VERTEX
8
0
10
2.3005246062992124
20
0.84
30
0
42
0.2883249766238833
0
VERTEX
8
0
10
2.3229870816929132
20
0.824251968503937
30
0
0
VERTEX
8
0
10
2.3770129183070865
20
0.824251968503937
30
0
0
SEQEND
0
POLYLINE
66
1
8
16_copper
10
0.0
20
0.0
30
0.0
70
1
0
VERTEX
8
0
10
1.886
20
1.3505736958661416
30
0
0
VERTEX
8
0
10
1.886
20
1.3754263041338584
30
0
0
VERTEX
8
0
10
1.8684263041338582
20
1.393
30
0
0
VERTEX
8
0
10
1.8435736958661417
20
1.393
30
0
0
VERTEX
8
0
10
1.826
20
1.3754263041338584
30
0
0
VERTEX
8
0
10
1.826
20
1.3505736958661416
30
0
0
VERTEX
8
0
10
1.8435736958661417
20
1.333
30
0
0
VERTEX
8
0
10
1.8684263041338582
20
1.333
30
0
0
SEQEND
0
POLYLINE
66
1
8
16_copper
10
0.0
20
0.0
30
0.0
70
1
0
VERTEX
8
0
10
2.37953063484252
20
0.8244998769685039
30
0
42
0.9063474445600833
0
VERTEX
8
0
10
2.3770129183070865
20
0.875748031496063
30
0
0
VERTEX
8
0
10
2.3229870816929132
20
0.875748031496063
30
0
42
0.9520803604479573
0
VERTEX
8
0
10
2.3229870816929132
20
0.824251968503937
30
0
0
VERTEX
8
0
10
2.3770129183070865
20
0.824251968503937
30
0
0
SEQEND
0
POLYLINE
66
1
8
1_copper
10
0.0
20
0.0
30
0.0
70
1
0
VERTEX
8
0
10
1.4295306348425196
20
0.37449987696850395
30
0
42
0.2619219535850413
0
VERTEX
8
0
10
1.4494753937007874
20
0.39
30
0
0
VERTEX
8
0
10
1.487
20
0.39
30
0
42
0.19891236737965798
0
VERTEX
8
0
10
1.4940711122047243
20
0.39292888779527557
30
0
0
VERTEX
8
0
10
1.7298580216535433
20
0.6287157972440945
30
0
0
VERTEX
8
0
10
1.7315736958661416
20
0.627
30
0
0
VERTEX
8
0
10
1.7564263041338584
20
0.627
30
0
0
VERTEX
8
0
10
1.774
20
0.6445736958661418
30
0
0
VERTEX
8
0
10
1.774
20
0.6694263041338583
30
0
0
VERTEX
8
0
10
1.7564263041338584
20
0.687
30
0
0
VERTEX
8
0
10
1.7315736958661416
20
0.687
30
0
0
VERTEX
8
0
10
1.714
20
0.6694263041338583
30
0
0
VERTEX
8
0
10
1.714
20
0.6445736958661418
30
0
0
VERTEX
8
0
10
1.7157157972440944
20
0.6428580216535433
30
0
0
VERTEX
8
0
10
1.4828577755905512
20
0.41
30
0
0
VERTEX
8
0
10
1.4494753937007874
20
0.41
30
0
42
0.2883249766238833
0
VERTEX
8
0
10
1.4270129183070865
20
0.425748031496063
30
0
0
VERTEX
8
0
10
1.3729870816929133
20
0.425748031496063
30
0
42
0.9520803604479573
0
VERTEX
8
0
10
1.3729870816929133
20
0.374251968503937
30
0
0
VERTEX
8
0
10
1.4270129183070865
20
0.374251968503937
30
0
0
SEQEND
0
POLYLINE
66
1
8
16_copper
10
0.0
20
0.0
30
0.0
70
1
0
VERTEX
8
0
10
1.774
20
0.6445736958661418
30
0
0
VERTEX
8
0
10
1.774
20
0.6694263041338583
30
0
0
VERTEX
8
0
10
1.7564263041338584
20
0.687
30
0
0
VERTEX
8
0
10
1.7315736958661416
20
0.687
30
0
0
VERTEX
8
0
10
1.714
20
0.6694263041338583
30
0
0
VERTEX
8
0
10
1.714
20
0.6445736958661418
30
0
0
VERTEX
8
0
10
1.7315736958661416
20
0.627
30
0
0
VERTEX
8
0
10
1.7564263041338584
20
0.627
30
0
0
SEQEND
0
POLYLINE
66
1
8
16_copper
10
0.0
20
0.0
30
0.0
70
1
0
VERTEX
8
0
10
1.4295306348425196
20
0.37449987696850395
30
0
42
0.9063474445600833
0
VERTEX
8
0
10
1.4270129183070865
20
0.425748031496063
30
0
0
VERTEX
8
0
10
1.3729870816929133
20
0.425748031496063
30
0
42
0.9520803604479573
0
VERTEX
8
0
10
1.3729870816929133
20
0.374251968503937
30
0
0
VERTEX
8
0
10
1.4270129183070865
20
0.374251968503937
30
0
0
SEQEND
0
POLYLINE
66
1
8
1_copper
10
0.0
20
0.0
30
0.0
70
1
0
VERTEX
8
0
10
1.4295306348425196
20
0.47449987696850393
30
0
42
0.2619219535850413
0
VERTEX
8
0
10
1.4494753937007874
20
0.49
30
0
0
VERTEX
8
0
10
1.479
20
0.49
30
0
42
0.19891236737965798
0
VERTEX
8
0
10
1.4860711122047243
20
0.4929288877952756
30
0
0
VERTEX
8
0
10
1.7298580216535433
20
0.7367157972440945
30
0
0
VERTEX
8
0
10
1.7315736958661416
20
0.735
30
0
0
VERTEX
8
0
10
1.7564263041338584
20
0.735
30
0
0
VERTEX
8
0
10
1.774
20
0.7525736958661418
30
0
0
VERTEX
8
0
10
1.774
20
0.7774263041338583
30
0
0
VERTEX
8
0
10
1.7564263041338584
20
0.795
30
0
0
VERTEX
8
0
10
1.7315736958661416
20
0.795
30
0
0
VERTEX
8
0
10
1.714
20
0.7774263041338583
30
0
0
VERTEX
8
0
10
1.714
20
0.7525736958661418
30
0
0
VERTEX
8
0
10
1.7157157972440944
20
0.7508580216535433
30
0
0
VERTEX
8
0
10
1.4748577755905512
20
0.51
30
0
0
VERTEX
8
0
10
1.4494753937007874
20
0.51
30
0
42
0.2883249766238833
0
VERTEX
8
0
10
1.4270129183070865
20
0.525748031496063
30
0
0
VERTEX
8
0
10
1.3729870816929133
20
0.525748031496063
30
0
42
0.9520803604479573
0
VERTEX
8
0
10
1.3729870816929133
20
0.474251968503937
30
0
0
VERTEX
8
0
10
1.4270129183070865
20
0.474251968503937
30
0
0
SEQEND
0
POLYLINE
66
1
8
16_copper
10
0.0
20
0.0
30
0.0
70
1
0
VERTEX
8
0
10
1.774
20
0.7525736958661418
30
0
0
VERTEX
8
0
10
1.774
20
0.7774263041338583
30
0
0
VERTEX
8
0
10
1.7564263041338584
20
0.795
30
0
0
VERTEX
8
0
10
1.7315736958661416
20
0.795
30
0
0
VERTEX
8
0
10
1.714
20
0.7774263041338583
30
0
0
VERTEX
8
0
10
1.714
20
0.7525736958661418
30
0
0
VERTEX
8
0
10
1.7315736958661416
20
0.735
30
0
0
VERTEX
8
0
10
1.7564263041338584
20
0.735
30
0
0
SEQEND
0
POLYLINE
66
1
8
16_copper
10
0.0
20
0.0
30
0.0
70
1
0
VERTEX
8
0
10
1.4295306348425196
20
0.47449987696850393
30
0
42
0.9063474445600833
0
VERTEX
8
0
10
1.4270129183070865
20
0.525748031496063
30
0
0
VERTEX
8
0
10
1.3729870816929133
20
0.525748031496063
30
0
42
0.9520803604479573
0
VERTEX
8
0
10
1.3729870816929133
20
0.474251968503937
30
0
0
VERTEX
8
0
10
1.4270129183070865
20
0.474251968503937
30
0
0
SEQEND
0
POLYLINE
66
1
8
1_copper
10
0.0
20
0.0
30
0.0
70
1
0
VERTEX
8
0
10
1.4295306348425196
20
0.5744998769685039
30
0
42
0.2619219535850413
0
VERTEX
8
0
10
1.4494753937007874
20
0.59
30
0
0
VERTEX
8
0
10
1.47
20
0.59
30
0
42
0.19891236737965798
0
VERTEX
8
0
10
1.4770711122047244
20
0.5929288877952756
30
0
0
VERTEX
8
0
10
1.7298580216535433
20
0.8457157972440945
30
0
0
VERTEX
8
0
10
1.7315736958661416
20
0.844
30
0
0
VERTEX
8
0
10
1.7564263041338584
20
0.844
30
0
0
VERTEX
8
0
10
1.774
20
0.8615736958661417
30
0
0
VERTEX
8
0
10
1.774
20
0.8864263041338583
30
0
0
VERTEX
8
0
10
1.7564263041338584
20
0.904
30
0
0
VERTEX
8
0
10
1.7315736958661416
20
0.904
30
0
0
VERTEX
8
0
10
1.714
20
0.8864263041338583
30
0
0
VERTEX
8
0
10
1.714
20
0.8615736958661417
30
0
0
VERTEX
8
0
10
1.7157157972440944
20
0.8598580216535433
30
0
0
VERTEX
8
0
10
1.465857775590551
20
0.61
30
0
0
VERTEX
8
0
10
1.4494753937007874
20
0.61
30
0
42
0.2883249766238833
0
VERTEX
8
0
10
1.4270129183070865
20
0.625748031496063
30
0
0
VERTEX
8
0
10
1.3729870816929133
20
0.625748031496063
30
0
42
0.9520803604479573
0
VERTEX
8
0
10
1.3729870816929133
20
0.574251968503937
30
0
0
VERTEX
8
0
10
1.4270129183070865
20
0.574251968503937
30
0
0
SEQEND
0
POLYLINE
66
1
8
16_copper
10
0.0
20
0.0
30
0.0
70
1
0
VERTEX
8
0
10
1.774
20
0.8615736958661417
30
0
0
VERTEX
8
0
10
1.774
20
0.8864263041338583
30
0
0
VERTEX
8
0
10
1.7564263041338584
20
0.904
30
0
0
VERTEX
8
0
10
1.7315736958661416
20
0.904
30
0
0
VERTEX
8
0
10
1.714
20
0.8864263041338583
30
0
0
VERTEX
8
0
10
1.714
20
0.8615736958661417
30
0
0
VERTEX
8
0
10
1.7315736958661416
20
0.844
30
0
0
VERTEX
8
0
10
1.7564263041338584
20
0.844
30
0
0
SEQEND
0
POLYLINE
66
1
8
16_copper
10
0.0
20
0.0
30
0.0
70
1
0
VERTEX
8
0
10
1.4295306348425196
20
0.5744998769685039
30
0
42
0.9063474445600833
0
VERTEX
8
0
10
1.4270129183070865
20
0.625748031496063
30
0
0
VERTEX
8
0
10
1.3729870816929133
20
0.625748031496063
30
0
42
0.9520803604479573
0
VERTEX
8
0
10
1.3729870816929133
20
0.574251968503937
30
0
0
VERTEX
8
0
10
1.4270129183070865
20
0.574251968503937
30
0
0
SEQEND
0
POLYLINE
66
1
8
1_copper
10
0.0
20
0.0
30
0.0
70
1
0
VERTEX
8
0
10
1.4617643946850394
20
0.6900600393700788
30
0
42
0.1790390709365824
0
VERTEX
8
0
10
1.4680711122047243
20
0.6929288877952756
30
0
0
VERTEX
8
0
10
1.7298580216535433
20
0.9547157972440945
30
0
0
VERTEX
8
0
10
1.7315736958661416
20
0.953
30
0
0
VERTEX
8
0
10
1.7564263041338584
20
0.953
30
0
0
VERTEX
8
0
10
1.774
20
0.9705736958661417
30
0
0
VERTEX
8
0
10
1.774
20
0.9954263041338582
30
0
0
VERTEX
8
0
10
1.7564263041338584
20
1.013
30
0
0
VERTEX
8
0
10
1.7315736958661416
20
1.013
30
0
0
VERTEX
8
0
10
1.714
20
0.9954263041338582
30
0
0
VERTEX
8
0
10
1.714
20
0.9705736958661417
30
0
0
VERTEX
8
0
10
1.7157157972440944
20
0.9688580216535433
30
0
0
VERTEX
8
0
10
1.4568577755905512
20
0.71
30
0
0
VERTEX
8
0
10
1.4494753937007874
20
0.71
30
0
0
VERTEX
8
0
10
1.4490520423228346
20
0.7110220226377952
30
0
42
0.2767371751090419
0
VERTEX
8
0
10
1.4270129183070865
20
0.725748031496063
30
0
0
VERTEX
8
0
10
1.3729870816929133
20
0.725748031496063
30
0
42
0.9520803604479573
0
VERTEX
8
0
10
1.3729870816929133
20
0.674251968503937
30
0
0
VERTEX
8
0
10
1.4270129183070865
20
0.674251968503937
30
0
42
0.2767371751090419
0
VERTEX
8
0
10
1.4490520423228346
20
0.6889779773622047
30
0
0
VERTEX
8
0
10
1.4494753937007874
20
0.69
30
0
0
VERTEX
8
0
10
1.461
20
0.69
30
0
0
SEQEND
0
POLYLINE
66
1
8
16_copper
10
0.0
20
0.0
30
0.0
70
1
0
VERTEX
8
0
10
1.774
20
0.9705736958661417
30
0
0
VERTEX
8
0
10
1.774
20
0.9954263041338582
30
0
0
VERTEX
8
0
10
1.7564263041338584
20
1.013
30
0
0
VERTEX
8
0
10
1.7315736958661416
20
1.013
30
0
0
VERTEX
8
0
10
1.714
20
0.9954263041338582
30
0
0
VERTEX
8
0
10
1.714
20
0.9705736958661417
30
0
0
VERTEX
8
0
10
1.7315736958661416
20
0.953
30
0
0
VERTEX
8
0
10
1.7564263041338584
20
0.953
30
0
0
SEQEND
0
POLYLINE
66
1
8
16_copper
10
0.0
20
0.0
30
0.0
70
1
0
VERTEX
8
0
10
1.4295306348425196
20
0.6744998769685039
30
0
42
0.9063474445600833
0
VERTEX
8
0
10
1.4270129183070865
20
0.725748031496063
30
0
0
VERTEX
8
0
10
1.3729870816929133
20
0.725748031496063
30
0
42
0.9520803604479573
0
VERTEX
8
0
10
1.3729870816929133
20
0.674251968503937
30
0
0
VERTEX
8
0
10
1.4270129183070865
20
0.674251968503937
30
0
0
SEQEND
0
POLYLINE
66
1
8
1_copper
10
0.0
20
0.0
30
0.0
70
1
0
VERTEX
8
0
10
0.6992356053149607
20
3.1599399606299214
30
0
42
0.1790390709365824
0
VERTEX
8
0
10
0.6929288877952756
20
3.1570711122047244
30
0
0
VERTEX
8
0
10
0.5929288877952756
20
3.0570711122047243
30
0
42
0.19891236737965798
0
VERTEX
8
0
10
0.59
20
3.05
30
0
0
VERTEX
8
0
10
0.59
20
2.85
30
0
42
0.19891236737965798
0
VERTEX
8
0
10
0.5929288877952756
20
2.8429288877952756
30
0
0
VERTEX
8
0
10
0.69
20
2.7458577755905513
30
0
0
VERTEX
8
0
10
0.69
20
2.526
30
0
0
VERTEX
8
0
10
0.689230561023622
20
2.526
30
0
0
VERTEX
8
0
10
0.674
20
2.510769438976378
30
0
0
VERTEX
8
0
10
0.674
20
2.489230561023622
30
0
0
VERTEX
8
0
10
0.689230561023622
20
2.474
30
0
0
VERTEX
8
0
10
0.7107694389763779
20
2.474
30
0
0
VERTEX
8
0
10
0.726
20
2.489230561023622
30
0
0
VERTEX
8
0
10
0.726
20
2.49
30
0
0
VERTEX
8
0
10
0.84
20
2.49
30
0
0
VERTEX
8
0
10
0.84
20
2.471
30
0
0
VERTEX
8
0
10
0.839230561023622
20
2.471
30
0
0
VERTEX
8
0
10
0.824
20
2.455769438976378
30
0
0
VERTEX
8
0
10
0.824
20
2.434230561023622
30
0
0
VERTEX
8
0
10
0.839230561023622
20
2.419
30
0
0
VERTEX
8
0
10
0.8607694389763779
20
2.419
30
0
0
VERTEX
8
0
10
0.876
20
2.434230561023622
30
0
0
VERTEX
8
0
10
0.876
20
2.455769438976378
30
0
0
VERTEX
8
0
10
0.8607694389763779
20
2.471
30
0
0
VERTEX
8
0
10
0.86
20
2.471
30
0
0
VERTEX
8
0
10
0.86
20
2.5
30
0
42
0.4142135623730951
0
VERTEX
8
0
10
0.85
20
2.51
30
0
0
VERTEX
8
0
10
0.726
20
2.51
30
0
0
VERTEX
8
0
10
0.726
20
2.510769438976378
30
0
0
VERTEX
8
0
10
0.7107694389763779
20
2.526
30
0
0
VERTEX
8
0
10
0.71
20
2.526
30
0
0
VERTEX
8
0
10
0.71
20
2.75
30
0
42
0.19891236737965798
0
VERTEX
8
0
10
0.7070711122047244
20
2.7570711122047245
30
0
0
VERTEX
8
0
10
0.61
20
2.8541422244094488
30
0
0
VERTEX
8
0
10
0.61
20
3.045857775590551
30
0
0
VERTEX
8
0
10
0.7041422244094488
20
3.14
30
0
0
VERTEX
8
0
10
2.3958577755905512
20
3.14
30
0
0
VERTEX
8
0
10
2.54
20
2.9958577755905513
30
0
0
VERTEX
8
0
10
2.54
20
2.804142224409449
30
0
0
VERTEX
8
0
10
2.4613136072834645
20
2.7254558316929134
30
0
0
VERTEX
8
0
10
2.460769438976378
20
2.726
30
0
0
VERTEX
8
0
10
2.439230561023622
20
2.726
30
0
0
VERTEX
8
0
10
2.424
20
2.710769438976378
30
0
0
VERTEX
8
0
10
2.424
20
2.71
30
0
0
VERTEX
8
0
10
2.21
20
2.71
30
0
0
VERTEX
8
0
10
2.21
20
2.881444881889764
30
0
42
0.319645473117655
0
VERTEX
8
0
10
2.235
20
2.9134718257874015
30
0
0
VERTEX
8
0
10
2.235
20
2.9865281742125984
30
0
42
0.9572906161637668
0
VERTEX
8
0
10
2.165
20
2.9865281742125984
30
0
0
VERTEX
8
0
10
2.165
20
2.9134718257874015
30
0
42
0.319645473117655
0
VERTEX
8
0
10
2.19
20
2.881444881889764
30
0
0
VERTEX
8
0
10
2.19
20
2.71
30
0
0
VERTEX
8
0
10
1.46
20
2.71
30
0
42
0.19891236737965798
0
VERTEX
8
0
10
1.4529288877952755
20
2.7070711122047246
30
0
0
VERTEX
8
0
10
1.3929288877952757
20
2.6470711122047246
30
0
42
0.19891236737965798
0
VERTEX
8
0
10
1.39
20
2.64
30
0
0
VERTEX
8
0
10
1.39
20
2.576
30
0
0
VERTEX
8
0
10
1.389230561023622
20
2.576
30
0
0
VERTEX
8
0
10
1.374
20
2.560769438976378
30
0
0
VERTEX
8
0
10
1.374
20
2.539230561023622
30
0
0
VERTEX
8
0
10
1.3745441683070867
20
2.5386863927165355
30
0
0
VERTEX
8
0
10
1.3429288877952756
20
2.5070711122047245
30
0
42
0.19891236737965798
0
VERTEX
8
0
10
1.34
20
2.5
30
0
0
VERTEX
8
0
10
1.34
20
1.6541422244094488
30
0
0
VERTEX
8
0
10
1.1929288877952755
20
1.5070711122047245
30
0
42
0.9999999999999999
0
VERTEX
8
0
10
1.2070711122047244
20
1.4929288877952755
30
0
0
VERTEX
8
0
10
1.3570711122047243
20
1.6429288877952757
30
0
42
0.19891236737965798
0
VERTEX
8
0
10
1.36
20
1.65
30
0
0
VERTEX
8
0
10
1.36
20
2.4958577755905513
30
0
0
VERTEX
8
0
10
1.3886863927165354
20
2.5245441683070866
30
0
0
VERTEX
8
0
10
1.389230561023622
20
2.524
30
0
0
VERTEX
8
0
10
1.4107694389763779
20
2.524
30
0
0
VERTEX
8
0
10
1.426
20
2.539230561023622
30
0
0
VERTEX
8
0
10
1.426
20
2.560769438976378
30
0
0
VERTEX
8
0
10
1.4107694389763779
20
2.576
30
0
0
VERTEX
8
0
10
1.41
20
2.576
30
0
0
VERTEX
8
0
10
1.41
20
2.635857775590551
30
0
0
VERTEX
8
0
10
1.4641422244094489
20
2.69
30
0
0
VERTEX
8
0
10
2.424
20
2.69
30
0
0
VERTEX
8
0
10
2.424
20
2.689230561023622
30
0
0
VERTEX
8
0
10
2.439230561023622
20
2.674
30
0
0
VERTEX
8
0
10
2.44
20
2.674
30
0
0
VERTEX
8
0
10
2.44
20
2.5
30
0
42
0.4142135623730951
0
VERTEX
8
0
10
2.45
20
2.49
30
0
0
VERTEX
8
0
10
2.695857775590551
20
2.49
30
0
0
VERTEX
8
0
10
3.09
20
2.095857775590551
30
0
0
VERTEX
8
0
10
3.09
20
0.305
30
0
0
VERTEX
8
0
10
2.963333415354331
20
0.21
30
0
0
VERTEX
8
0
10
2.61
20
0.21
30
0
0
VERTEX
8
0
10
2.61
20
1.15
30
0
42
0.4142135623730951
0
VERTEX
8
0
10
2.6
20
1.16
30
0
0
VERTEX
8
0
10
2.3
20
1.16
30
0
42
0.19891236737965798
0
VERTEX
8
0
10
2.2929288877952754
20
1.1570711122047244
30
0
0
VERTEX
8
0
10
2.2429288877952755
20
1.1070711122047243
30
0
42
0.19891236737965798
0
VERTEX
8
0
10
2.24
20
1.1
30
0
0
VERTEX
8
0
10
2.24
20
0.95
30
0
42
0.4142135623730951
0
VERTEX
8
0
10
2.25
20
0.94
30
0
0
VERTEX
8
0
10
2.3005246062992124
20
0.94
30
0
42
0.2883249766238833
0
VERTEX
8
0
10
2.3229870816929132
20
0.924251968503937
30
0
0
VERTEX
8
0
10
2.3770129183070865
20
0.924251968503937
30
0
42
0.9520803604479573
0
VERTEX
8
0
10
2.3770129183070865
20
0.975748031496063
30
0
0
VERTEX
8
0
10
2.3229870816929132
20
0.975748031496063
30
0
42
0.2883249766238833
0
VERTEX
8
0
10
2.3005246062992124
20
0.96
30
0
0
VERTEX
8
0
10
2.26
20
0.96
30
0
0
VERTEX
8
0
10
2.26
20
1.0958577755905512
30
0
0
VERTEX
8
0
10
2.304142224409449
20
1.14
30
0
0
VERTEX
8
0
10
2.59
20
1.14
30
0
0
VERTEX
8
0
10
2.59
20
0.21
30
0
0
VERTEX
8
0
10
2.1041422244094488
20
0.21
30
0
0
VERTEX
8
0
10
1.8570711122047243
20
0.4570711122047244
30
0
42
0.19891236737965798
0
VERTEX
8
0
10
1.85
20
0.46
30
0
0
VERTEX
8
0
10
1.75
20
0.46
30
0
42
0.19891236737965798
0
VERTEX
8
0
10
1.7429288877952755
20
0.4570711122047244
30
0
0
VERTEX
8
0
10
1.5958577755905512
20
0.31
30
0
0
VERTEX
8
0
10
1.4494753937007874
20
0.31
30
0
42
0.2883249766238833
0
VERTEX
8
0
10
1.4270129183070865
20
0.325748031496063
30
0
0
VERTEX
8
0
10
1.3729870816929133
20
0.325748031496063
30
0
42
0.9520803604479573
0
VERTEX
8
0
10
1.3729870816929133
20
0.274251968503937
30
0
0
VERTEX
8
0
10
1.4270129183070865
20
0.274251968503937
30
0
42
0.2883249766238833
0
VERTEX
8
0
10
1.4494753937007874
20
0.29
30
0
0
VERTEX
8
0
10
1.6
20
0.29
30
0
42
0.19891236737965798
0
VERTEX
8
0
10
1.6070711122047243
20
0.2929288877952756
30
0
0
VERTEX
8
0
10
1.754142224409449
20
0.44
30
0
0
VERTEX
8
0
10
1.8458577755905512
20
0.44
30
0
0
VERTEX
8
0
10
2.0929288877952756
20
0.1929288877952756
30
0
42
0.19891236737965798
0
VERTEX
8
0
10
2.1
20
0.19
30
0
0
VERTEX
8
0
10
2.9666667076771653
20
0.19
30
0
42
0.16227766016837936
0
VERTEX
8
0
10
2.9726667076771656
20
0.192
30
0
0
VERTEX
8
0
10
3.106
20
0.292
30
0
42
0.2360679774997897
0
VERTEX
8
0
10
3.11
20
0.3
30
0
0
VERTEX
8
0
10
3.11
20
2.1
30
0
42
0.19891236737965798
0
VERTEX
8
0
10
3.1070711122047245
20
2.1070711122047245
30
0
0
VERTEX
8
0
10
2.7070711122047246
20
2.5070711122047245
30
0
42
0.19891236737965798
0
VERTEX
8
0
10
2.7
20
2.51
30
0
0
VERTEX
8
0
10
2.46
20
2.51
30
0
0
VERTEX
8
0
10
2.46
20
2.674
30
0
0
VERTEX
8
0
10
2.460769438976378
20
2.674
30
0
0
VERTEX
8
0
10
2.476
20
2.689230561023622
30
0
0
VERTEX
8
0
10
2.476
20
2.710769438976378
30
0
0
VERTEX
8
0
10
2.4754558316929134
20
2.7113136072834645
30
0
0
VERTEX
8
0
10
2.5570711122047243
20
2.7929288877952754
30
0
42
0.19891236737965798
0
VERTEX
8
0
10
2.56
20
2.8
30
0
0
VERTEX
8
0
10
2.56
20
3
30
0
42
0.19891236737965798
0
VERTEX
8
0
10
2.5570711122047243
20
3.0070711122047245
30
0
0
VERTEX
8
0
10
2.4070711122047244
20
3.1570711122047244
30
0
42
0.19891236737965798
0
VERTEX
8
0
10
2.4
20
3.16
30
0
0
VERTEX
8
0
10
0.7
20
3.16
30
0
0
SEQEND
0
POLYLINE
66
1
8
16_copper
10
0.0
20
0.0
30
0.0
70
1
0
VERTEX
8
0
10
2.204572711614173
20
2.8802663631889764
30
0
42
0.3639703696370299
0
VERTEX
8
0
10
2.235
20
2.9134718257874015
30
0
0
VERTEX
8
0
10
2.235
20
2.9865281742125984
30
0
42
0.9572906161637668
0
VERTEX
8
0
10
2.165
20
2.9865281742125984
30
0
0
VERTEX
8
0
10
2.165
20
2.9134718257874015
30
0
0
VERTEX
8
0
10
2.1652663631889766
20
2.9104272883858266
30
0
0
VERTEX
8
0
10
2.165797121062992
20
2.907417445866142
30
0
0
VERTEX
8
0
10
2.166588090551181
20
2.9044653051181104
30
0
0
VERTEX
8
0
10
2.1676333661417324
20
2.9015933809055117
30
0
0
VERTEX
8
0
10
2.1689250738188974
20
2.8988234498031495
30
0
0
VERTEX
8
0
10
2.170453125
20
2.8961765501968504
30
0
0
VERTEX
8
0
10
2.1722062007874015
20
2.8936731053149605
30
0
0
VERTEX
8
0
10
2.1741707677165354
20
2.891331815944882
30
0
0
VERTEX
8
0
10
2.1763318159448817
20
2.8891707677165352
30
0
0
VERTEX
8
0
10
2.1786731053149606
20
2.8872062007874018
30
0
0
VERTEX
8
0
10
2.1811765501968505
20
2.885453125
30
0
0
VERTEX
8
0
10
2.1838234498031497
20
2.8839250738188977
30
0
0
VERTEX
8
0
10
2.186593380905512
20
2.8826333661417323
30
0
0
VERTEX
8
0
10
2.18946530511811
20
2.881588090551181
30
0
0
VERTEX
8
0
10
2.1924174458661416
20
2.880797121062992
30
0
0
VERTEX
8
0
10
2.195427288385827
20
2.8802663631889764
30
0
0
VERTEX
8
0
10
2.1984718257874016
20
2.88
30
0
0
VERTEX
8
0
10
2.2015281742125983
20
2.88
30
0
0
SEQEND
0
POLYLINE
66
1
8
16_copper
10
0.0
20
0.0
30
0.0
70
1
0
VERTEX
8
0
10
2.476
20
2.689230561023622
30
0
0
VERTEX
8
0
10
2.476
20
2.710769438976378
30
0
0
VERTEX
8
0
10
2.460769438976378
20
2.726
30
0
0
VERTEX
8
0
10
2.439230561023622
20
2.726
30
0
0
VERTEX
8
0
10
2.424
20
2.710769438976378
30
0
0
VERTEX
8
0
10
2.424
20
2.689230561023622
30
0
0
VERTEX
8
0
10
2.439230561023622
20
2.674
30
0
0
VERTEX
8
0
10
2.460769438976378
20
2.674
30
0
0
SEQEND
0
POLYLINE
66
1
8
16_copper
10
0.0
20
0.0
30
0.0
70
1
0
VERTEX
8
0
10
1.426
20
2.539230561023622
30
0
0
VERTEX
8
0
10
1.426
20
2.560769438976378
30
0
0
VERTEX
8
0
10
1.4107694389763779
20
2.576
30
0
0
VERTEX
8
0
10
1.389230561023622
20
2.576
30
0
0
VERTEX
8
0
10
1.374
20
2.560769438976378
30
0
0
VERTEX
8
0
10
1.374
20
2.539230561023622
30
0
0
VERTEX
8
0
10
1.389230561023622
20
2.524
30
0
0
VERTEX
8
0
10
1.4107694389763779
20
2.524
30
0
0
SEQEND
0
POLYLINE
66
1
8
16_copper
10
0.0
20
0.0
30
0.0
70
1
0
VERTEX
8
0
10
0.726
20
2.489230561023622
30
0
0
VERTEX
8
0
10
0.726
20
2.510769438976378
30
0
0
VERTEX
8
0
10
0.7107694389763779
20
2.526
30
0
0
VERTEX
8
0
10
0.689230561023622
20
2.526
30
0
0
VERTEX
8
0
10
0.674
20
2.510769438976378
30
0
0
VERTEX
8
0
10
0.674
20
2.489230561023622
30
0
0
VERTEX
8
0
10
0.689230561023622
20
2.474
30
0
0
VERTEX
8
0
10
0.7107694389763779
20
2.474
30
0
0
SEQEND
0
POLYLINE
66
1
8
16_copper
10
0.0
20
0.0
30
0.0
70
1
0
VERTEX
8
0
10
0.876
20
2.434230561023622
30
0
0
VERTEX
8
0
10
0.876
20
2.455769438976378
30
0
0
VERTEX
8
0
10
0.8607694389763779
20
2.471
30
0
0
VERTEX
8
0
10
0.839230561023622
20
2.471
30
0
0
VERTEX
8
0
10
0.824
20
2.455769438976378
30
0
0
VERTEX
8
0
10
0.824
20
2.434230561023622
30
0
0
VERTEX
8
0
10
0.839230561023622
20
2.419
30
0
0
VERTEX
8
0
10
0.8607694389763779
20
2.419
30
0
0
SEQEND
0
POLYLINE
66
1
8
16_copper
10
0.0
20
0.0
30
0.0
70
1
0
VERTEX
8
0
10
2.37953063484252
20
0.9244998769685039
30
0
42
0.9063474445600833
0
VERTEX
8
0
10
2.3770129183070865
20
0.975748031496063
30
0
0
VERTEX
8
0
10
2.3229870816929132
20
0.975748031496063
30
0
42
0.9520803604479573
0
VERTEX
8
0
10
2.3229870816929132
20
0.924251968503937
30
0
0
VERTEX
8
0
10
2.3770129183070865
20
0.924251968503937
30
0
0
SEQEND
0
POLYLINE
66
1
8
16_copper
10
0.0
20
0.0
30
0.0
70
1
0
VERTEX
8
0
10
1.4295306348425196
20
0.2744998769685039
30
0
42
0.9063474445600833
0
VERTEX
8
0
10
1.4270129183070865
20
0.325748031496063
30
0
0
VERTEX
8
0
10
1.3729870816929133
20
0.325748031496063
30
0
42
0.9520803604479573
0
VERTEX
8
0
10
1.3729870816929133
20
0.274251968503937
30
0
0
VERTEX
8
0
10
1.4270129183070865
20
0.274251968503937
30
0
0
SEQEND
0
POLYLINE
66
1
8
1_copper
10
0.0
20
0.0
30
0.0
70
1
0
VERTEX
8
0
10
1.4992250246062993
20
2.3099390994094486
30
0
42
0.3916014460306381
0
VERTEX
8
0
10
1.49
20
2.3
30
0
0
VERTEX
8
0
10
1.49
20
1.5291422244094488
30
0
0
VERTEX
8
0
10
1.1708577755905512
20
1.21
30
0
0
VERTEX
8
0
10
0.9641422244094489
20
1.21
30
0
0
VERTEX
8
0
10
0.81
20
1.3641422244094488
30
0
0
VERTEX
8
0
10
0.81
20
1.5858577755905512
30
0
0
VERTEX
8
0
10
0.9570711122047244
20
1.7329288877952755
30
0
42
0.19891236737965798
0
VERTEX
8
0
10
0.96
20
1.74
30
0
0
VERTEX
8
0
10
0.96
20
2.235857775590551
30
0
0
VERTEX
8
0
10
1.1070711122047243
20
2.3829288877952757
30
0
42
0.19891236737965798
0
VERTEX
8
0
10
1.11
20
2.39
30
0
0
VERTEX
8
0
10
1.11
20
2.49
30
0
0
VERTEX
8
0
10
1.2
20
2.49
30
0
42
0.9999999999999999
0
VERTEX
8
0
10
1.2
20
2.51
30
0
0
VERTEX
8
0
10
1.1
20
2.51
30
0
42
0.4142135623730951
0
VERTEX
8
0
10
1.09
20
2.5
30
0
0
VERTEX
8
0
10
1.09
20
2.394142224409449
30
0
0
VERTEX
8
0
10
0.9429288877952756
20
2.247071112204724
30
0
42
0.19891236737965798
0
VERTEX
8
0
10
0.94
20
2.24
30
0
0
VERTEX
8
0
10
0.94
20
1.7441422244094489
30
0
0
VERTEX
8
0
10
0.7929288877952756
20
1.5970711122047243
30
0
42
0.19891236737965798
0
VERTEX
8
0
10
0.79
20
1.59
30
0
0
VERTEX
8
0
10
0.79
20
1.36
30
0
42
0.19891236737965798
0
VERTEX
8
0
10
0.7929288877952756
20
1.3529288877952756
30
0
0
VERTEX
8
0
10
0.9529288877952756
20
1.1929288877952755
30
0
42
0.19891236737965798
0
VERTEX
8
0
10
0.96
20
1.19
30
0
0
VERTEX
8
0
10
1.175
20
1.19
30
0
42
0.19891236737965798
0
VERTEX
8
0
10
1.1820711122047245
20
1.1929288877952755
30
0
0
VERTEX
8
0
10
1.5070711122047245
20
1.5179288877952757
30
0
42
0.19891236737965798
0
VERTEX
8
0
10
1.51
20
1.525
30
0
0
VERTEX
8
0
10
1.51
20
2.29
30
0
0
VERTEX
8
0
10
2.545857775590551
20
2.29
30
0
0
VERTEX
8
0
10
2.94
20
1.8958577755905512
30
0
0
VERTEX
8
0
10
2.94
20
0.96
30
0
0
VERTEX
8
0
10
2.8994753937007873
20
0.96
30
0
42
0.2883249766238833
0
VERTEX
8
0
10
2.8770129183070865
20
0.975748031496063
30
0
0
VERTEX
8
0
10
2.8229870816929132
20
0.975748031496063
30
0
42
0.9520803604479573
0
VERTEX
8
0
10
2.8229870816929132
20
0.924251968503937
30
0
0
VERTEX
8
0
10
2.8770129183070865
20
0.924251968503937
30
0
42
0.2883249766238833
0
VERTEX
8
0
10
2.8994753937007873
20
0.94
30
0
0
VERTEX
8
0
10
2.95
20
0.94
30
0
42
0.4142135623730951
0
VERTEX
8
0
10
2.96
20
0.95
30
0
0
VERTEX
8
0
10
2.96
20
1.9
30
0
42
0.19891236737965798
0
VERTEX
8
0
10
2.9570711122047246
20
1.9070711122047244
30
0
0
VERTEX
8
0
10
2.5570711122047243
20
2.3070711122047243
30
0
42
0.19891236737965798
0
VERTEX
8
0
10
2.55
20
2.31
30
0
0
VERTEX
8
0
10
1.5
20
2.31
30
0
0
SEQEND
0
POLYLINE
66
1
8
16_copper
10
0.0
20
0.0
30
0.0
70
1
0
VERTEX
8
0
10
2.87953063484252
20
0.9244998769685039
30
0
42
0.9063474445600833
0
VERTEX
8
0
10
2.8770129183070865
20
0.975748031496063
30
0
0
VERTEX
8
0
10
2.8229870816929132
20
0.975748031496063
30
0
42
0.9520803604479573
0
VERTEX
8
0
10
2.8229870816929132
20
0.924251968503937
30
0
0
VERTEX
8
0
10
2.8770129183070865
20
0.924251968503937
30
0
0
SEQEND
0
POLYLINE
66
1
8
1_copper
10
0.0
20
0.0
30
0.0
70
1
0
VERTEX
8
0
10
2.149235605314961
20
2.259939960629921
30
0
42
0.1790390709365824
0
VERTEX
8
0
10
2.1429288877952755
20
2.2570711122047245
30
0
0
VERTEX
8
0
10
1.8458577755905512
20
1.96
30
0
0
VERTEX
8
0
10
1.55
20
1.96
30
0
42
0.4142135623730951
0
VERTEX
8
0
10
1.54
20
1.95
30
0
0
VERTEX
8
0
10
1.54
20
1.524142224409449
30
0
0
VERTEX
8
0
10
1.1758577755905513
20
1.16
30
0
0
VERTEX
8
0
10
0.9441422244094488
20
1.16
30
0
0
VERTEX
8
0
10
0.76
20
1.3441422244094487
30
0
0
VERTEX
8
0
10
0.76
20
1.5958577755905512
30
0
0
VERTEX
8
0
10
0.9070711122047244
20
1.7429288877952755
30
0
42
0.19891236737965798
0
VERTEX
8
0
10
0.91
20
1.75
30
0
0
VERTEX
8
0
10
0.91
20
2.2658577755905513
30
0
0
VERTEX
8
0
10
1.0570711122047245
20
2.4129288877952755
30
0
42
0.19891236737965798
0
VERTEX
8
0
10
1.06
20
2.42
30
0
0
VERTEX
8
0
10
1.06
20
2.59
30
0
0
VERTEX
8
0
10
1.2
20
2.59
30
0
42
0.9999999999999999
0
VERTEX
8
0
10
1.2
20
2.61
30
0
0
VERTEX
8
0
10
1.05
20
2.61
30
0
42
0.4142135623730951
0
VERTEX
8
0
10
1.04
20
2.6
30
0
0
VERTEX
8
0
10
1.04
20
2.4241422244094486
30
0
0
VERTEX
8
0
10
0.8929288877952756
20
2.2770711122047245
30
0
42
0.19891236737965798
0
VERTEX
8
0
10
0.89
20
2.27
30
0
0
VERTEX
8
0
10
0.89
20
1.754142224409449
30
0
0
VERTEX
8
0
10
0.7429288877952755
20
1.6070711122047243
30
0
42
0.19891236737965798
0
VERTEX
8
0
10
0.74
20
1.6
30
0
0
VERTEX
8
0
10
0.74
20
1.34
30
0
42
0.19891236737965798
0
VERTEX
8
0
10
0.7429288877952755
20
1.3329288877952756
30
0
0
VERTEX
8
0
10
0.9329288877952756
20
1.1429288877952757
30
0
42
0.19891236737965798
0
VERTEX
8
0
10
0.94
20
1.14
30
0
0
VERTEX
8
0
10
1.18
20
1.14
30
0
42
0.19891236737965798
0
VERTEX
8
0
10
1.1870711122047244
20
1.1429288877952757
30
0
0
VERTEX
8
0
10
1.5570711122047245
20
1.5129288877952756
30
0
42
0.19891236737965798
0
VERTEX
8
0
10
1.56
20
1.52
30
0
0
VERTEX
8
0
10
1.56
20
1.94
30
0
0
VERTEX
8
0
10
1.85
20
1.94
30
0
42
0.19891236737965798
0
VERTEX
8
0
10
1.8570711122047243
20
1.9429288877952755
30
0
0
VERTEX
8
0
10
2.154142224409449
20
2.24
30
0
0
VERTEX
8
0
10
2.4958577755905513
20
2.24
30
0
0
VERTEX
8
0
10
2.84
20
1.8958577755905512
30
0
0
VERTEX
8
0
10
2.84
20
1.075748031496063
30
0
0
VERTEX
8
0
10
2.8229870816929132
20
1.075748031496063
30
0
42
0.9520803604479573
0
VERTEX
8
0
10
2.8229870816929132
20
1.024251968503937
30
0
0
VERTEX
8
0
10
2.8770129183070865
20
1.024251968503937
30
0
42
0.9520803604479573
0
VERTEX
8
0
10
2.8770129183070865
20
1.075748031496063
30
0
0
VERTEX
8
0
10
2.86
20
1.075748031496063
30
0
0
VERTEX
8
0
10
2.86
20
1.9
30
0
42
0.19891236737965798
0
VERTEX
8
0
10
2.8570711122047245
20
1.9070711122047244
30
0
0
VERTEX
8
0
10
2.5070711122047245
20
2.2570711122047245
30
0
42
0.19891236737965798
0
VERTEX
8
0
10
2.5
20
2.26
30
0
0
VERTEX
8
0
10
2.15
20
2.26
30
0
0
SEQEND
0
POLYLINE
66
1
8
16_copper
10
0.0
20
0.0
30
0.0
70
1
0
VERTEX
8
0
10
2.87953063484252
20
1.0244998769685039
30
0
42
0.9063474445600833
0
VERTEX
8
0
10
2.8770129183070865
20
1.075748031496063
30
0
0
VERTEX
8
0
10
2.8229870816929132
20
1.075748031496063
30
0
42
0.9520803604479573
0
VERTEX
8
0
10
2.8229870816929132
20
1.024251968503937
30
0
0
VERTEX
8
0
10
2.8770129183070865
20
1.024251968503937
30
0
0
SEQEND
0
POLYLINE
66
1
8
1_copper
10
0.0
20
0.0
30
0.0
70
1
0
VERTEX
8
0
10
1.4992356053149607
20
1.3599399606299212
30
0
42
0.1790390709365824
0
VERTEX
8
0
10
1.4929288877952755
20
1.3570711122047243
30
0
0
VERTEX
8
0
10
1.1958577755905513
20
1.06
30
0
0
VERTEX
8
0
10
0.9191422244094488
20
1.06
30
0
0
VERTEX
8
0
10
0.66
20
1.3191422244094488
30
0
0
VERTEX
8
0
10
0.66
20
1.620857775590551
30
0
0
VERTEX
8
0
10
0.8070711122047244
20
1.7679288877952757
30
0
42
0.19891236737965798
0
VERTEX
8
0
10
0.81
20
1.775
30
0
0
VERTEX
8
0
10
0.81
20
2.325
30
0
42
0.19891236737965798
0
VERTEX
8
0
10
0.8070711122047244
20
2.3320711122047246
30
0
0
VERTEX
8
0
10
0.7320711122047244
20
2.4070711122047244
30
0
42
0.19891236737965798
0
VERTEX
8
0
10
0.725
20
2.41
30
0
0
VERTEX
8
0
10
0.605
20
2.41
30
0
0
VERTEX
8
0
10
0.605
20
2.755
30
0
42
0.19891236737965798
0
VERTEX
8
0
10
0.6020711122047244
20
2.7620711122047243
30
0
0
VERTEX
8
0
10
0.4570711122047244
20
2.9070711122047244
30
0
42
0.19891236737965798
0
VERTEX
8
0
10
0.45
20
2.91
30
0
0
VERTEX
8
0
10
0.4
20
2.91
30
0
42
0.9228431308911045
0
VERTEX
8
0
10
0.39840268208661417
20
2.89012844488189
30
0
0
VERTEX
8
0
10
0.4
20
2.89
30
0
0
VERTEX
8
0
10
0.4458577755905512
20
2.89
30
0
0
VERTEX
8
0
10
0.585
20
2.7508577755905512
30
0
0
VERTEX
8
0
10
0.585
20
2.4
30
0
42
0.4142135623730951
0
VERTEX
8
0
10
0.595
20
2.39
30
0
0
VERTEX
8
0
10
0.7208577755905512
20
2.39
30
0
0
VERTEX
8
0
10
0.79
20
2.320857775590551
30
0
0
VERTEX
8
0
10
0.79
20
1.7791422244094488
30
0
0
VERTEX
8
0
10
0.6429288877952756
20
1.6320711122047245
30
0
42
0.19891236737965798
0
VERTEX
8
0
10
0.64
20
1.625
30
0
0
VERTEX
8
0
10
0.64
20
1.315
30
0
42
0.19891236737965798
0
VERTEX
8
0
10
0.6429288877952756
20
1.3079288877952755
30
0
0
VERTEX
8
0
10
0.9079288877952756
20
1.0429288877952756
30
0
42
0.19891236737965798
0
VERTEX
8
0
10
0.915
20
1.04
30
0
0
VERTEX
8
0
10
1.2
20
1.04
30
0
42
0.19891236737965798
0
VERTEX
8
0
10
1.2070711122047244
20
1.0429288877952756
30
0
0
VERTEX
8
0
10
1.504142224409449
20
1.34
30
0
0
VERTEX
8
0
10
1.66
20
1.34
30
0
42
0.4142135623730951
0
VERTEX
8
0
10
1.67
20
1.35
30
0
0
VERTEX
8
0
10
1.67
20
1.560316313976378
30
0
0
VERTEX
8
0
10
1.7279585383858267
20
1.608615157480315
30
0
0
VERTEX
8
0
10
1.7315736958661416
20
1.605
30
0
0
VERTEX
8
0
10
1.7564263041338584
20
1.605
30
0
0
VERTEX
8
0
10
1.774
20
1.6225736958661416
30
0
0
VERTEX
8
0
10
1.774
20
1.6474263041338584
30
0
0
VERTEX
8
0
10
1.7564263041338584
20
1.665
30
0
0
VERTEX
8
0
10
1.7315736958661416
20
1.665
30
0
0
VERTEX
8
0
10
1.714
20
1.6474263041338584
30
0
0
VERTEX
8
0
10
1.714
20
1.6230171013779529
30
0
0
VERTEX
8
0
10
1.6535981791338583
20
1.5726822096456692
30
0
42
0.2225852952139191
0
VERTEX
8
0
10
1.65
20
1.565
30
0
0
VERTEX
8
0
10
1.65
20
1.36
30
0
0
VERTEX
8
0
10
1.5
20
1.36
30
0
0
SEQEND
0
POLYLINE
66
1
8
16_copper
10
0.0
20
0.0
30
0.0
70
1
0
VERTEX
8
0
10
1.774
20
1.6225736958661416
30
0
0
VERTEX
8
0
10
1.774
20
1.6474263041338584
30
0
0
VERTEX
8
0
10
1.7564263041338584
20
1.665
30
0
0
VERTEX
8
0
10
1.7315736958661416
20
1.665
30
0
0
VERTEX
8
0
10
1.714
20
1.6474263041338584
30
0
0
VERTEX
8
0
10
1.714
20
1.6225736958661416
30
0
0
VERTEX
8
0
10
1.7315736958661416
20
1.605
30
0
0
VERTEX
8
0
10
1.7564263041338584
20
1.605
30
0
0
SEQEND
0
POLYLINE
66
1
8
1_copper
10
0.0
20
0.0
30
0.0
70
1
0
VERTEX
8
0
10
1.625
20
1.115
30
0
42
0.19891236737965798
0
VERTEX
8
0
10
1.6279288877952756
20
1.1079288877952755
30
0
0
VERTEX
8
0
10
1.6519288877952756
20
1.0839288877952755
30
0
42
0.19891236737965798
0
VERTEX
8
0
10
1.659
20
1.081
30
0
0
VERTEX
8
0
10
1.714
20
1.081
30
0
0
VERTEX
8
0
10
1.714
20
1.0785736958661418
30
0
0
VERTEX
8
0
10
1.7315736958661416
20
1.061
30
0
0
VERTEX
8
0
10
1.7564263041338584
20
1.061
30
0
0
VERTEX
8
0
10
1.774
20
1.0785736958661418
30
0
0
VERTEX
8
0
10
1.774
20
1.1034263041338583
30
0
0
VERTEX
8
0
10
1.7564263041338584
20
1.121
30
0
0
VERTEX
8
0
10
1.7315736958661416
20
1.121
30
0
0
VERTEX
8
0
10
1.714
20
1.1034263041338583
30
0
0
VERTEX
8
0
10
1.714
20
1.101
30
0
0
VERTEX
8
0
10
1.663142224409449
20
1.101
30
0
0
VERTEX
8
0
10
1.645
20
1.1191422244094489
30
0
0
VERTEX
8
0
10
1.645
20
1.2
30
0
42
0.4142135623730951
0
VERTEX
8
0
10
1.635
20
1.21
30
0
0
VERTEX
8
0
10
1.526
20
1.21
30
0
0
VERTEX
8
0
10
1.526
20
1.210769438976378
30
0
0
VERTEX
8
0
10
1.510769438976378
20
1.226
30
0
0
VERTEX
8
0
10
1.489230561023622
20
1.226
30
0
0
VERTEX
8
0
10
1.474
20
1.210769438976378
30
0
0
VERTEX
8
0
10
1.474
20
1.189230561023622
30
0
0
VERTEX
8
0
10
1.4745441683070866
20
1.1886863927165354
30
0
0
VERTEX
8
0
10
1.3929288877952757
20
1.1070711122047243
30
0
42
0.19891236737965798
0
VERTEX
8
0
10
1.39
20
1.1
30
0
0
VERTEX
8
0
10
1.39
20
0.925748031496063
30
0
0
VERTEX
8
0
10
1.3729870816929133
20
0.925748031496063
30
0
42
0.9520803604479573
0
VERTEX
8
0
10
1.3729870816929133
20
0.874251968503937
30
0
0
VERTEX
8
0
10
1.4270129183070865
20
0.874251968503937
30
0
42
0.9520803604479573
0
VERTEX
8
0
10
1.4270129183070865
20
0.925748031496063
30
0
0
VERTEX
8
0
10
1.41
20
0.925748031496063
30
0
0
VERTEX
8
0
10
1.41
20
1.0958577755905512
30
0
0
VERTEX
8
0
10
1.4886863927165355
20
1.1745441683070865
30
0
0
VERTEX
8
0
10
1.489230561023622
20
1.174
30
0
0
VERTEX
8
0
10
1.510769438976378
20
1.174
30
0
0
VERTEX
8
0
10
1.526
20
1.189230561023622
30
0
0
VERTEX
8
0
10
1.526
20
1.19
30
0
0
VERTEX
8
0
10
1.625
20
1.19
30
0
0
SEQEND
0
POLYLINE
66
1
8
16_copper
10
0.0
20
0.0
30
0.0
70
1
0
VERTEX
8
0
10
1.526
20
1.189230561023622
30
0
0
VERTEX
8
0
10
1.526
20
1.210769438976378
30
0
0
VERTEX
8
0
10
1.510769438976378
20
1.226
30
0
0
VERTEX
8
0
10
1.489230561023622
20
1.226
30
0
0
VERTEX
8
0
10
1.474
20
1.210769438976378
30
0
0
VERTEX
8
0
10
1.474
20
1.189230561023622
30
0
0
VERTEX
8
0
10
1.489230561023622
20
1.174
30
0
0
VERTEX
8
0
10
1.510769438976378
20
1.174
30
0
0
SEQEND
0
POLYLINE
66
1
8
16_copper
10
0.0
20
0.0
30
0.0
70
1
0
VERTEX
8
0
10
1.774
20
1.0785736958661418
30
0
0
VERTEX
8
0
10
1.774
20
1.1034263041338583
30
0
0
VERTEX
8
0
10
1.7564263041338584
20
1.121
30
0
0
VERTEX
8
0
10
1.7315736958661416
20
1.121
30
0
0
VERTEX
8
0
10
1.714
20
1.1034263041338583
30
0
0
VERTEX
8
0
10
1.714
20
1.0785736958661418
30
0
0
VERTEX
8
0
10
1.7315736958661416
20
1.061
30
0
0
VERTEX
8
0
10
1.7564263041338584
20
1.061
30
0
0
SEQEND
0
POLYLINE
66
1
8
16_copper
10
0.0
20
0.0
30
0.0
70
1
0
VERTEX
8
0
10
1.4295306348425196
20
0.874499876968504
30
0
42
0.9063474445600833
0
VERTEX
8
0
10
1.4270129183070865
20
0.925748031496063
30
0
0
VERTEX
8
0
10
1.3729870816929133
20
0.925748031496063
30
0
42
0.9520803604479573
0
VERTEX
8
0
10
1.3729870816929133
20
0.874251968503937
30
0
0
VERTEX
8
0
10
1.4270129183070865
20
0.874251968503937
30
0
0
SEQEND
0
POLYLINE
66
1
8
1_copper
10
0.0
20
0.0
30
0.0
70
1
0
VERTEX
8
0
10
1.0070711122047245
20
2.9570711122047246
30
0
42
0.19891236737965798
0
VERTEX
8
0
10
1
20
2.96
30
0
0
VERTEX
8
0
10
0.8717694389763779
20
2.96
30
0
0
VERTEX
8
0
10
0.8607694389763779
20
2.971
30
0
0
VERTEX
8
0
10
0.839230561023622
20
2.971
30
0
0
VERTEX
8
0
10
0.824
20
2.955769438976378
30
0
0
VERTEX
8
0
10
0.824
20
2.934230561023622
30
0
0
VERTEX
8
0
10
0.839230561023622
20
2.919
30
0
0
VERTEX
8
0
10
0.8607694389763779
20
2.919
30
0
0
VERTEX
8
0
10
0.876
20
2.934230561023622
30
0
0
VERTEX
8
0
10
0.876
20
2.94
30
0
0
VERTEX
8
0
10
0.9958577755905512
20
2.94
30
0
0
VERTEX
8
0
10
1.0429288877952756
20
2.8929288877952755
30
0
42
0.19891236737965798
0
VERTEX
8
0
10
1.05
20
2.89
30
0
0
VERTEX
8
0
10
1.3358577755905512
20
2.89
30
0
0
VERTEX
8
0
10
1.4329288877952755
20
2.7929288877952754
30
0
42
0.19891236737965798
0
VERTEX
8
0
10
1.44
20
2.79
30
0
0
VERTEX
8
0
10
2
20
2.79
30
0
42
0.4142135623730951
0
VERTEX
8
0
10
2.01
20
2.8
30
0
0
VERTEX
8
0
10
2.01
20
2.881444881889764
30
0
42
0.319645473117655
0
VERTEX
8
0
10
2.035
20
2.9134718257874015
30
0
0
VERTEX
8
0
10
2.035
20
2.9865281742125984
30
0
42
0.9572906161637668
0
VERTEX
8
0
10
1.965
20
2.9865281742125984
30
0
0
VERTEX
8
0
10
1.965
20
2.9134718257874015
30
0
42
0.319645473117655
0
VERTEX
8
0
10
1.99
20
2.881444881889764
30
0
0
VERTEX
8
0
10
1.99
20
2.81
30
0
0
VERTEX
8
0
10
1.4441422244094488
20
2.81
30
0
0
VERTEX
8
0
10
1.3470711122047243
20
2.9070711122047244
30
0
42
0.19891236737965798
0
VERTEX
8
0
10
1.34
20
2.91
30
0
0
VERTEX
8
0
10
1.0541422244094487
20
2.91
30
0
0
SEQEND
0
POLYLINE
66
1
8
16_copper
10
0.0
20
0.0
30
0.0
70
1
0
VERTEX
8
0
10
2.0045727116141734
20
2.8802663631889764
30
0
42
0.3639703696370299
0
VERTEX
8
0
10
2.035
20
2.9134718257874015
30
0
0
VERTEX
8
0
10
2.035
20
2.9865281742125984
30
0
42
0.9572906161637668
0
VERTEX
8
0
10
1.965
20
2.9865281742125984
30
0
0
VERTEX
8
0
10
1.965
20
2.9134718257874015
30
0
0
VERTEX
8
0
10
1.9652663631889764
20
2.9104272883858266
30
0
0
VERTEX
8
0
10
1.965797121062992
20
2.907417445866142
30
0
0
VERTEX
8
0
10
1.966588090551181
20
2.9044653051181104
30
0
0
VERTEX
8
0
10
1.9676333661417322
20
2.9015933809055117
30
0
0
VERTEX
8
0
10
1.9689250738188977
20
2.8988234498031495
30
0
0
VERTEX
8
0
10
1.970453125
20
2.8961765501968504
30
0
0
VERTEX
8
0
10
1.9722062007874015
20
2.8936731053149605
30
0
0
VERTEX
8
0
10
1.9741707677165354
20
2.891331815944882
30
0
0
VERTEX
8
0
10
1.976331815944882
20
2.8891707677165352
30
0
0
VERTEX
8
0
10
1.9786731053149607
20
2.8872062007874018
30
0
0
VERTEX
8
0
10
1.9811765501968504
20
2.885453125
30
0
0
VERTEX
8
0
10
1.9838234498031495
20
2.8839250738188977
30
0
0
VERTEX
8
0
10
1.9865933809055119
20
2.8826333661417323
30
0
0
VERTEX
8
0
10
1.9894653051181101
20
2.881588090551181
30
0
0
VERTEX
8
0
10
1.9924174458661417
20
2.880797121062992
30
0
0
VERTEX
8
0
10
1.9954272883858268
20
2.8802663631889764
30
0
0
VERTEX
8
0
10
1.9984718257874017
20
2.88
30
0
0
VERTEX
8
0
10
2.0015281742125985
20
2.88
30
0
0
SEQEND
0
POLYLINE
66
1
8
16_copper
10
0.0
20
0.0
30
0.0
70
1
0
VERTEX
8
0
10
0.876
20
2.934230561023622
30
0
0
VERTEX
8
0
10
0.876
20
2.955769438976378
30
0
0
VERTEX
8
0
10
0.8607694389763779
20
2.971
30
0
0
VERTEX
8
0
10
0.839230561023622
20
2.971
30
0
0
VERTEX
8
0
10
0.824
20
2.955769438976378
30
0
0
VERTEX
8
0
10
0.824
20
2.934230561023622
30
0
0
VERTEX
8
0
10
0.839230561023622
20
2.919
30
0
0
VERTEX
8
0
10
0.8607694389763779
20
2.919
30
0
0
SEQEND
0
POLYLINE
66
1
8
1_copper
10
0.0
20
0.0
30
0.0
70
1
0
VERTEX
8
0
10
0.7492356053149606
20
3.0599399606299214
30
0
42
0.1790390709365824
0
VERTEX
8
0
10
0.7429288877952755
20
3.0570711122047243
30
0
0
VERTEX
8
0
10
0.7113136072834646
20
3.025455831692913
30
0
0
VERTEX
8
0
10
0.7107694389763779
20
3.026
30
0
0
VERTEX
8
0
10
0.689230561023622
20
3.026
30
0
0
VERTEX
8
0
10
0.674
20
3.010769438976378
30
0
0
VERTEX
8
0
10
0.674
20
2.989230561023622
30
0
0
VERTEX
8
0
10
0.689230561023622
20
2.974
30
0
0
VERTEX
8
0
10
0.69
20
2.974
30
0
0
VERTEX
8
0
10
0.69
20
2.9
30
0
42
0.19891236737965798
0
VERTEX
8
0
10
0.6929288877952756
20
2.8929288877952755
30
0
0
VERTEX
8
0
10
0.7929288877952756
20
2.7929288877952754
30
0
42
0.19891236737965798
0
VERTEX
8
0
10
0.8
20
2.79
30
0
0
VERTEX
8
0
10
1.2
20
2.79
30
0
42
0.9999999999999999
0
VERTEX
8
0
10
1.2
20
2.81
30
0
0
VERTEX
8
0
10
0.8041422244094488
20
2.81
30
0
0
VERTEX
8
0
10
0.71
20
2.904142224409449
30
0
0
VERTEX
8
0
10
0.71
20
2.974
30
0
0
VERTEX
8
0
10
0.7107694389763779
20
2.974
30
0
0
VERTEX
8
0
10
0.726
20
2.989230561023622
30
0
0
VERTEX
8
0
10
0.726
20
3.010769438976378
30
0
0
VERTEX
8
0
10
0.7254558316929134
20
3.0113136072834648
30
0
0
VERTEX
8
0
10
0.7541422244094488
20
3.04
30
0
0
VERTEX
8
0
10
1.3458577755905512
20
3.04
30
0
0
VERTEX
8
0
10
1.39
20
2.9958577755905513
30
0
0
VERTEX
8
0
10
1.39
20
2.9
30
0
42
0.19891236737965798
0
VERTEX
8
0
10
1.3929288877952757
20
2.8929288877952755
30
0
0
VERTEX
8
0
10
1.4429288877952755
20
2.8429288877952756
30
0
42
0.19891236737965798
0
VERTEX
8
0
10
1.45
20
2.84
30
0
0
VERTEX
8
0
10
1.9
20
2.84
30
0
42
0.4142135623730951
0
VERTEX
8
0
10
1.91
20
2.85
30
0
0
VERTEX
8
0
10
1.91
20
2.881444881889764
30
0
42
0.319645473117655
0
VERTEX
8
0
10
1.935
20
2.9134718257874015
30
0
0
VERTEX
8
0
10
1.935
20
2.9865281742125984
30
0
42
0.9572906161637668
0
VERTEX
8
0
10
1.865
20
2.9865281742125984
30
0
0
VERTEX
8
0
10
1.865
20
2.9134718257874015
30
0
42
0.319645473117655
0
VERTEX
8
0
10
1.89
20
2.881444881889764
30
0
0
VERTEX
8
0
10
1.89
20
2.86
30
0
0
VERTEX
8
0
10
1.4541422244094488
20
2.86
30
0
0
VERTEX
8
0
10
1.41
20
2.904142224409449
30
0
0
VERTEX
8
0
10
1.41
20
3
30
0
42
0.19891236737965798
0
VERTEX
8
0
10
1.4070711122047244
20
3.0070711122047245
30
0
0
VERTEX
8
0
10
1.3570711122047243
20
3.0570711122047243
30
0
42
0.19891236737965798
0
VERTEX
8
0
10
1.35
20
3.06
30
0
0
VERTEX
8
0
10
0.75
20
3.06
30
0
0
SEQEND
0
POLYLINE
66
1
8
16_copper
10
0.0
20
0.0
30
0.0
70
1
0
VERTEX
8
0
10
0.726
20
2.989230561023622
30
0
0
VERTEX
8
0
10
0.726
20
3.010769438976378
30
0
0
VERTEX
8
0
10
0.7107694389763779
20
3.026
30
0
0
VERTEX
8
0
10
0.689230561023622
20
3.026
30
0
0
VERTEX
8
0
10
0.674
20
3.010769438976378
30
0
0
VERTEX
8
0
10
0.674
20
2.989230561023622
30
0
0
VERTEX
8
0
10
0.689230561023622
20
2.974
30
0
0
VERTEX
8
0
10
0.7107694389763779
20
2.974
30
0
0
SEQEND
0
POLYLINE
66
1
8
16_copper
10
0.0
20
0.0
30
0.0
70
1
0
VERTEX
8
0
10
1.9045727116141733
20
2.8802663631889764
30
0
42
0.3639703696370299
0
VERTEX
8
0
10
1.935
20
2.9134718257874015
30
0
0
VERTEX
8
0
10
1.935
20
2.9865281742125984
30
0
42
0.9572906161637668
0
VERTEX
8
0
10
1.865
20
2.9865281742125984
30
0
0
VERTEX
8
0
10
1.865
20
2.9134718257874015
30
0
0
VERTEX
8
0
10
1.8652663631889763
20
2.9104272883858266
30
0
0
VERTEX
8
0
10
1.8657971210629922
20
2.907417445866142
30
0
0
VERTEX
8
0
10
1.8665880905511811
20
2.9044653051181104
30
0
0
VERTEX
8
0
10
1.8676333661417324
20
2.9015933809055117
30
0
0
VERTEX
8
0
10
1.8689250738188976
20
2.8988234498031495
30
0
0
VERTEX
8
0
10
1.870453125
20
2.8961765501968504
30
0
0
VERTEX
8
0
10
1.8722062007874016
20
2.8936731053149605
30
0
0
VERTEX
8
0
10
1.8741707677165353
20
2.891331815944882
30
0
0
VERTEX
8
0
10
1.8763318159448819
20
2.8891707677165352
30
0
0
VERTEX
8
0
10
1.8786731053149606
20
2.8872062007874018
30
0
0
VERTEX
8
0
10
1.8811765501968505
20
2.885453125
30
0
0
VERTEX
8
0
10
1.8838234498031496
20
2.8839250738188977
30
0
0
VERTEX
8
0
10
1.8865933809055118
20
2.8826333661417323
30
0
0
VERTEX
8
0
10
1.8894653051181103
20
2.881588090551181
30
0
0
VERTEX
8
0
10
1.8924174458661418
20
2.880797121062992
30
0
0
VERTEX
8
0
10
1.8954272883858267
20
2.8802663631889764
30
0
0
VERTEX
8
0
10
1.8984718257874016
20
2.88
30
0
0
VERTEX
8
0
10
1.9015281742125985
20
2.88
30
0
0
SEQEND
0
POLYLINE
66
1
8
1_copper
10
0.0
20
0.0
30
0.0
70
1
0
VERTEX
8
0
10
0.34006090059055116
20
0.7492250246062993
30
0
42
0.3916014460306381
0
VERTEX
8
0
10
0.35
20
0.74
30
0
0
VERTEX
8
0
10
0.44168356299212597
20
0.74
30
0
42
0.30447514697161254
0
VERTEX
8
0
10
0.46852620570866144
20
0.72
30
0
0
VERTEX
8
0
10
0.5314737942913386
20
0.72
30
0
42
0.30447514697161254
0
VERTEX
8
0
10
0.558316437007874
20
0.74
30
0
0
VERTEX
8
0
10
0.7
20
0.74
30
0
42
0.4142135623730951
0
VERTEX
8
0
10
0.71
20
0.75
30
0
0
VERTEX
8
0
10
0.71
20
1.2
30
0
42
0.19891236737965798
0
VERTEX
8
0
10
0.7070711122047244
20
1.2070711122047244
30
0
0
VERTEX
8
0
10
0.61
20
1.3041422244094487
30
0
0
VERTEX
8
0
10
0.61
20
1.6708577755905512
30
0
0
VERTEX
8
0
10
0.7070711122047244
20
1.7679288877952757
30
0
42
0.0353134478293424
0
VERTEX
8
0
10
0.707988312007874
20
1.769
30
0
0
VERTEX
8
0
10
0.7107694389763779
20
1.769
30
0
0
VERTEX
8
0
10
0.726
20
1.784230561023622
30
0
0
VERTEX
8
0
10
0.726
20
1.8057694389763779
30
0
0
VERTEX
8
0
10
0.7107694389763779
20
1.821
30
0
0
VERTEX
8
0
10
0.689230561023622
20
1.821
30
0
0
VERTEX
8
0
10
0.674
20
1.8057694389763779
30
0
0
VERTEX
8
0
10
0.674
20
1.784230561023622
30
0
0
VERTEX
8
0
10
0.6845441683070866
20
1.7736863927165354
30
0
0
VERTEX
8
0
10
0.5929288877952756
20
1.6820711122047245
30
0
42
0.19891236737965798
0
VERTEX
8
0
10
0.59
20
1.675
30
0
0
VERTEX
8
0
10
0.59
20
1.3
30
0
42
0.19891236737965798
0
VERTEX
8
0
10
0.5929288877952756
20
1.2929288877952756
30
0
0
VERTEX
8
0
10
0.69
20
1.1958577755905513
30
0
0
VERTEX
8
0
10
0.69
20
0.76
30
0
0
VERTEX
8
0
10
0.558316437007874
20
0.76
30
0
42
0.30447514697161254
0
VERTEX
8
0
10
0.5314737942913386
20
0.78
30
0
0
VERTEX
8
0
10
0.46852620570866144
20
0.78
30
0
42
0.30447514697161254
0
VERTEX
8
0
10
0.44168356299212597
20
0.76
30
0
0
VERTEX
8
0
10
0.36
20
0.76
30
0
0
VERTEX
8
0
10
0.36
20
1.0919302411417322
30
0
0
VERTEX
8
0
10
0.42907221948818897
20
1.094158341535433
30
0
0
VERTEX
8
0
10
0.4442305610236221
20
1.079
30
0
0
VERTEX
8
0
10
0.46576943897637796
20
1.079
30
0
0
VERTEX
8
0
10
0.481
20
1.094230561023622
30
0
0
VERTEX
8
0
10
0.481
20
1.115769438976378
30
0
0
VERTEX
8
0
10
0.46576943897637796
20
1.131
30
0
0
VERTEX
8
0
10
0.4442305610236221
20
1.131
30
0
0
VERTEX
8
0
10
0.429
20
1.115769438976378
30
0
0
VERTEX
8
0
10
0.429
20
1.1141665846456692
30
0
0
VERTEX
8
0
10
0.36
20
1.1119406988188976
30
0
0
VERTEX
8
0
10
0.36
20
1.6458577755905512
30
0
0
VERTEX
8
0
10
0.5070711122047245
20
1.7929288877952756
30
0
42
0.19891236737965798
0
VERTEX
8
0
10
0.51
20
1.8
30
0
0
VERTEX
8
0
10
0.51
20
1.95
30
0
42
0.19891236737965798
0
VERTEX
8
0
10
0.5070711122047245
20
1.9570711122047244
30
0
0
VERTEX
8
0
10
0.4570711122047244
20
2.0070711122047245
30
0
42
0.19891236737965798
0
VERTEX
8
0
10
0.45
20
2.01
30
0
0
VERTEX
8
0
10
0.4
20
2.01
30
0
42
0.9228431308911045
0
VERTEX
8
0
10
0.39840268208661417
20
1.9901284448818897
30
0
0
VERTEX
8
0
10
0.4
20
1.99
30
0
0
VERTEX
8
0
10
0.4458577755905512
20
1.99
30
0
0
VERTEX
8
0
10
0.49
20
1.9458577755905513
30
0
0
VERTEX
8
0
10
0.49
20
1.8041422244094487
30
0
0
VERTEX
8
0
10
0.3429288877952756
20
1.6570711122047244
30
0
42
0.19891236737965798
0
VERTEX
8
0
10
0.34
20
1.65
30
0
0
VERTEX
8
0
10
0.34
20
0.75
30
0
0
SEQEND
0
POLYLINE
66
1
8
16_copper
10
0.0
20
0.0
30
0.0
70
1
0
VERTEX
8
0
10
0.726
20
1.784230561023622
30
0
0
VERTEX
8
0
10
0.726
20
1.8057694389763779
30
0
0
VERTEX
8
0
10
0.7107694389763779
20
1.821
30
0
0
VERTEX
8
0
10
0.689230561023622
20
1.821
30
0
0
VERTEX
8
0
10
0.674
20
1.8057694389763779
30
0
0
VERTEX
8
0
10
0.674
20
1.784230561023622
30
0
0
VERTEX
8
0
10
0.689230561023622
20
1.769
30
0
0
VERTEX
8
0
10
0.7107694389763779
20
1.769
30
0
0
SEQEND
0
POLYLINE
66
1
8
16_copper
10
0.0
20
0.0
30
0.0
70
1
0
VERTEX
8
0
10
0.481
20
1.094230561023622
30
0
0
VERTEX
8
0
10
0.481
20
1.115769438976378
30
0
0
VERTEX
8
0
10
0.46576943897637796
20
1.131
30
0
0
VERTEX
8
0
10
0.4442305610236221
20
1.131
30
0
0
VERTEX
8
0
10
0.429
20
1.115769438976378
30
0
0
VERTEX
8
0
10
0.429
20
1.094230561023622
30
0
0
VERTEX
8
0
10
0.4442305610236221
20
1.079
30
0
0
VERTEX
8
0
10
0.46576943897637796
20
1.079
30
0
0
SEQEND
0
POLYLINE
66
1
8
16_copper
10
0.0
20
0.0
30
0.0
70
1
0
VERTEX
8
0
10
0.5344072342519685
20
0.7202888779527559
30
0
42
0.9063472543261978
0
VERTEX
8
0
10
0.5314737942913386
20
0.78
30
0
0
VERTEX
8
0
10
0.46852620570866144
20
0.78
30
0
42
0.9520795017710559
0
VERTEX
8
0
10
0.46852620570866144
20
0.72
30
0
0
VERTEX
8
0
10
0.5314737942913386
20
0.72
30
0
0
SEQEND
0
POLYLINE
66
1
8
1_copper
10
0.0
20
0.0
30
0.0
70
1
0
VERTEX
8
0
10
0.5344072342519685
20
0.9202888779527559
30
0
42
0.7570472317931007
0
VERTEX
8
0
10
0.5417479084645669
20
0.9776056840551182
30
0
0
VERTEX
8
0
10
0.6070711122047244
20
1.0429288877952756
30
0
42
0.19891236737965798
0
VERTEX
8
0
10
0.61
20
1.05
30
0
0
VERTEX
8
0
10
0.61
20
1.15
30
0
42
0.19891236737965798
0
VERTEX
8
0
10
0.6070711122047244
20
1.1570711122047244
30
0
0
VERTEX
8
0
10
0.465
20
1.2991422244094488
30
0
0
VERTEX
8
0
10
0.465
20
1.579
30
0
0
VERTEX
8
0
10
0.46576943897637796
20
1.579
30
0
0
VERTEX
8
0
10
0.481
20
1.594230561023622
30
0
0
VERTEX
8
0
10
0.481
20
1.615769438976378
30
0
0
VERTEX
8
0
10
0.46576943897637796
20
1.631
30
0
0
VERTEX
8
0
10
0.465
20
1.631
30
0
0
VERTEX
8
0
10
0.465
20
1.6708577755905512
30
0
0
VERTEX
8
0
10
0.5570711122047244
20
1.7629288877952756
30
0
42
0.19891236737965798
0
VERTEX
8
0
10
0.56
20
1.77
30
0
0
VERTEX
8
0
10
0.56
20
2.05
30
0
42
0.19891236737965798
0
VERTEX
8
0
10
0.5570711122047244
20
2.0570711122047243
30
0
0
VERTEX
8
0
10
0.51
20
2.1041422244094488
30
0
0
VERTEX
8
0
10
0.51
20
2.65
30
0
42
0.19891236737965798
0
VERTEX
8
0
10
0.5070711122047245
20
2.6570711122047244
30
0
0
VERTEX
8
0
10
0.4570711122047244
20
2.7070711122047246
30
0
42
0.19891236737965798
0
VERTEX
8
0
10
0.45
20
2.71
30
0
0
VERTEX
8
0
10
0.4
20
2.71
30
0
42
0.9228431308911045
0
VERTEX
8
0
10
0.39840268208661417
20
2.6901284448818896
30
0
0
VERTEX
8
0
10
0.4
20
2.69
30
0
0
VERTEX
8
0
10
0.4458577755905512
20
2.69
30
0
0
VERTEX
8
0
10
0.49
20
2.6458577755905512
30
0
0
VERTEX
8
0
10
0.49
20
2.1
30
0
42
0.19891236737965798
0
VERTEX
8
0
10
0.4929288877952756
20
2.0929288877952756
30
0
0
VERTEX
8
0
10
0.54
20
2.045857775590551
30
0
0
VERTEX
8
0
10
0.54
20
1.774142224409449
30
0
0
VERTEX
8
0
10
0.44792888779527557
20
1.6820711122047245
30
0
42
0.19891236737965798
0
VERTEX
8
0
10
0.445
20
1.675
30
0
0
VERTEX
8
0
10
0.445
20
1.631
30
0
0
VERTEX
8
0
10
0.4442305610236221
20
1.631
30
0
0
VERTEX
8
0
10
0.429
20
1.615769438976378
30
0
0
VERTEX
8
0
10
0.429
20
1.594230561023622
30
0
0
VERTEX
8
0
10
0.4442305610236221
20
1.579
30
0
0
VERTEX
8
0
10
0.445
20
1.579
30
0
0
VERTEX
8
0
10
0.445
20
1.295
30
0
42
0.19891236737965798
0
VERTEX
8
0
10
0.44792888779527557
20
1.2879288877952757
30
0
0
VERTEX
8
0
10
0.59
20
1.1458577755905512
30
0
0
VERTEX
8
0
10
0.59
20
1.0541422244094487
30
0
0
VERTEX
8
0
10
0.5158577755905511
20
0.98
30
0
0
VERTEX
8
0
10
0.46852620570866144
20
0.98
30
0
42
0.9520795017710559
0
VERTEX
8
0
10
0.46852620570866144
20
0.92
30
0
0
VERTEX
8
0
10
0.5314737942913386
20
0.92
30
0
0
SEQEND
0
POLYLINE
66
1
8
16_copper
10
0.0
20
0.0
30
0.0
70
1
0
VERTEX
8
0
10
0.481
20
1.594230561023622
30
0
0
VERTEX
8
0
10
0.481
20
1.615769438976378
30
0
0
VERTEX
8
0
10
0.46576943897637796
20
1.631
30
0
0
VERTEX
8
0
10
0.4442305610236221
20
1.631
30
0
0
VERTEX
8
0
10
0.429
20
1.615769438976378
30
0
0
VERTEX
8
0
10
0.429
20
1.594230561023622
30
0
0
VERTEX
8
0
10
0.4442305610236221
20
1.579
30
0
0
VERTEX
8
0
10
0.46576943897637796
20
1.579
30
0
0
SEQEND
0
POLYLINE
66
1
8
16_copper
10
0.0
20
0.0
30
0.0
70
1
0
VERTEX
8
0
10
0.5344072342519685
20
0.9202888779527559
30
0
42
0.9063472543261978
0
VERTEX
8
0
10
0.5314737942913386
20
0.98
30
0
0
VERTEX
8
0
10
0.46852620570866144
20
0.98
30
0
42
0.9520795017710559
0
VERTEX
8
0
10
0.46852620570866144
20
0.92
30
0
0
VERTEX
8
0
10
0.5314737942913386
20
0.92
30
0
0
SEQEND
0
POLYLINE
66
1
8
1_copper
10
0.0
20
0.0
30
0.0
70
1
0
VERTEX
8
0
10
1.5092356053149607
20
1.3099399606299214
30
0
42
0.1790390709365824
0
VERTEX
8
0
10
1.5029288877952756
20
1.3070711122047245
30
0
0
VERTEX
8
0
10
1.205857775590551
20
1.01
30
0
0
VERTEX
8
0
10
0.75
20
1.01
30
0
42
0.4142135623730951
0
VERTEX
8
0
10
0.74
20
1
30
0
0
VERTEX
8
0
10
0.74
20
0.66
30
0
0
VERTEX
8
0
10
0.558316437007874
20
0.66
30
0
42
0.30447514697161254
0
VERTEX
8
0
10
0.5314737942913386
20
0.68
30
0
0
VERTEX
8
0
10
0.46852620570866144
20
0.68
30
0
42
0.9520795017710559
0
VERTEX
8
0
10
0.46852620570866144
20
0.62
30
0
0
VERTEX
8
0
10
0.5314737942913386
20
0.62
30
0
42
0.30447514697161254
0
VERTEX
8
0
10
0.558316437007874
20
0.64
30
0
0
VERTEX
8
0
10
0.75
20
0.64
30
0
42
0.4142135623730951
0
VERTEX
8
0
10
0.76
20
0.65
30
0
0
VERTEX
8
0
10
0.76
20
0.99
30
0
0
VERTEX
8
0
10
1.19
20
0.99
30
0
0
VERTEX
8
0
10
1.19
20
0.3
30
0
42
0.19891236737965798
0
VERTEX
8
0
10
1.1929288877952755
20
0.2929288877952756
30
0
0
VERTEX
8
0
10
1.2929288877952756
20
0.1929288877952756
30
0
42
0.19891236737965798
0
VERTEX
8
0
10
1.3
20
0.19
30
0
0
VERTEX
8
0
10
1.3505246062992127
20
0.19
30
0
42
0.2883249766238833
0
VERTEX
8
0
10
1.3729870816929133
20
0.174251968503937
30
0
0
VERTEX
8
0
10
1.4270129183070865
20
0.174251968503937
30
0
42
0.9520803604479573
0
VERTEX
8
0
10
1.4270129183070865
20
0.22574803149606298
30
0
0
VERTEX
8
0
10
1.3729870816929133
20
0.22574803149606298
30
0
42
0.2883249766238833
0
VERTEX
8
0
10
1.3505246062992127
20
0.21
30
0
0
VERTEX
8
0
10
1.3041422244094487
20
0.21
30
0
0
VERTEX
8
0
10
1.21
20
0.3041422244094488
30
0
0
VERTEX
8
0
10
1.21
20
0.79
30
0
0
VERTEX
8
0
10
1.3505246062992127
20
0.79
30
0
42
0.2883249766238833
0
VERTEX
8
0
10
1.3729870816929133
20
0.774251968503937
30
0
0
VERTEX
8
0
10
1.4270129183070865
20
0.774251968503937
30
0
42
0.2767371751090419
0
VERTEX
8
0
10
1.4490520423228346
20
0.7889779773622048
30
0
0
VERTEX
8
0
10
1.4494753937007874
20
0.79
30
0
42
0.21257033345666324
0
VERTEX
8
0
10
1.4570711122047244
20
0.7929288877952756
30
0
0
VERTEX
8
0
10
1.5070711122047245
20
0.8429288877952756
30
0
42
0.19891236737965798
0
VERTEX
8
0
10
1.51
20
0.85
30
0
0
VERTEX
8
0
10
1.51
20
0.974
30
0
0
VERTEX
8
0
10
1.510769438976378
20
0.974
30
0
0
VERTEX
8
0
10
1.526
20
0.9892305610236221
30
0
0
VERTEX
8
0
10
1.526
20
1.010769438976378
30
0
0
VERTEX
8
0
10
1.510769438976378
20
1.026
30
0
0
VERTEX
8
0
10
1.489230561023622
20
1.026
30
0
0
VERTEX
8
0
10
1.474
20
1.010769438976378
30
0
0
VERTEX
8
0
10
1.474
20
0.9892305610236221
30
0
0
VERTEX
8
0
10
1.489230561023622
20
0.974
30
0
0
VERTEX
8
0
10
1.49
20
0.974
30
0
0
VERTEX
8
0
10
1.49
20
0.8541422244094489
30
0
0
VERTEX
8
0
10
1.4482953986220473
20
0.812437623031496
30
0
42
0.2600401287028072
0
VERTEX
8
0
10
1.4270129183070865
20
0.825748031496063
30
0
0
VERTEX
8
0
10
1.3729870816929133
20
0.825748031496063
30
0
42
0.2883249766238833
0
VERTEX
8
0
10
1.3505246062992127
20
0.81
30
0
0
VERTEX
8
0
10
1.21
20
0.81
30
0
0
VERTEX
8
0
10
1.21
20
0.99
30
0
42
0.19891236737965798
0
VERTEX
8
0
10
1.2170711122047244
20
0.9929288877952755
30
0
0
VERTEX
8
0
10
1.514142224409449
20
1.29
30
0
0
VERTEX
8
0
10
1.6456755659448818
20
1.29
30
0
0
VERTEX
8
0
10
1.7163684793307086
20
1.214794783464567
30
0
0
VERTEX
8
0
10
1.714
20
1.2124263041338583
30
0
0
VERTEX
8
0
10
1.714
20
1.1875736958661418
30
0
0
VERTEX
8
0
10
1.7315736958661416
20
1.17
30
0
0
VERTEX
8
0
10
1.7564263041338584
20
1.17
30
0
0
VERTEX
8
0
10
1.774
20
1.1875736958661418
30
0
0
VERTEX
8
0
10
1.774
20
1.2124263041338583
30
0
0
VERTEX
8
0
10
1.7564263041338584
20
1.23
30
0
0
VERTEX
8
0
10
1.7315736958661416
20
1.23
30
0
0
VERTEX
8
0
10
1.730517347440945
20
1.2289436515748031
30
0
0
VERTEX
8
0
10
1.6572862942913387
20
1.3068490403543307
30
0
42
0.2069616712607109
0
VERTEX
8
0
10
1.65
20
1.31
30
0
0
VERTEX
8
0
10
1.51
20
1.31
30
0
0
SEQEND
0
POLYLINE
66
1
8
16_copper
10
0.0
20
0.0
30
0.0
70
1
0
VERTEX
8
0
10
1.774
20
1.1875736958661418
30
0
0
VERTEX
8
0
10
1.774
20
1.2124263041338583
30
0
0
VERTEX
8
0
10
1.7564263041338584
20
1.23
30
0
0
VERTEX
8
0
10
1.7315736958661416
20
1.23
30
0
0
VERTEX
8
0
10
1.714
20
1.2124263041338583
30
0
0
VERTEX
8
0
10
1.714
20
1.1875736958661418
30
0
0
VERTEX
8
0
10
1.7315736958661416
20
1.17
30
0
0
VERTEX
8
0
10
1.7564263041338584
20
1.17
30
0
0
SEQEND
0
POLYLINE
66
1
8
16_copper
10
0.0
20
0.0
30
0.0
70
1
0
VERTEX
8
0
10
1.526
20
0.9892305610236221
30
0
0
VERTEX
8
0
10
1.526
20
1.010769438976378
30
0
0
VERTEX
8
0
10
1.510769438976378
20
1.026
30
0
0
VERTEX
8
0
10
1.489230561023622
20
1.026
30
0
0
VERTEX
8
0
10
1.474
20
1.010769438976378
30
0
0
VERTEX
8
0
10
1.474
20
0.9892305610236221
30
0
0
VERTEX
8
0
10
1.489230561023622
20
0.974
30
0
0
VERTEX
8
0
10
1.510769438976378
20
0.974
30
0
0
SEQEND
0
POLYLINE
66
1
8
16_copper
10
0.0
20
0.0
30
0.0
70
1
0
VERTEX
8
0
10
1.4295306348425196
20
0.774499876968504
30
0
42
0.9063474445600833
0
VERTEX
8
0
10
1.4270129183070865
20
0.825748031496063
30
0
0
VERTEX
8
0
10
1.3729870816929133
20
0.825748031496063
30
0
42
0.9520803604479573
0
VERTEX
8
0
10
1.3729870816929133
20
0.774251968503937
30
0
0
VERTEX
8
0
10
1.4270129183070865
20
0.774251968503937
30
0
0
SEQEND
0
POLYLINE
66
1
8
16_copper
10
0.0
20
0.0
30
0.0
70
1
0
VERTEX
8
0
10
0.5344072342519685
20
0.6202888779527559
30
0
42
0.9063472543261978
0
VERTEX
8
0
10
0.5314737942913386
20
0.68
30
0
0
VERTEX
8
0
10
0.46852620570866144
20
0.68
30
0
42
0.9520795017710559
0
VERTEX
8
0
10
0.46852620570866144
20
0.62
30
0
0
VERTEX
8
0
10
0.5314737942913386
20
0.62
30
0
0
SEQEND
0
POLYLINE
66
1
8
16_copper
10
0.0
20
0.0
30
0.0
70
1
0
VERTEX
8
0
10
1.4295306348425196
20
0.17449987696850394
30
0
42
0.9063474445600833
0
VERTEX
8
0
10
1.4270129183070865
20
0.22574803149606298
30
0
0
VERTEX
8
0
10
1.3729870816929133
20
0.22574803149606298
30
0
42
0.9520803604479573
0
VERTEX
8
0
10
1.3729870816929133
20
0.174251968503937
30
0
0
VERTEX
8
0
10
1.4270129183070865
20
0.174251968503937
30
0
0
SEQEND
0
POLYLINE
66
1
8
1_copper
10
0.0
20
0.0
30
0.0
70
1
0
VERTEX
8
0
10
0.7992250246062992
20
0.9099390994094488
30
0
42
0.3916014460306381
0
VERTEX
8
0
10
0.79
20
0.9
30
0
0
VERTEX
8
0
10
0.79
20
0.51
30
0
0
VERTEX
8
0
10
0.5041422244094488
20
0.51
30
0
0
VERTEX
8
0
10
0.31
20
0.7041422244094488
30
0
0
VERTEX
8
0
10
0.31
20
2.39
30
0
0
VERTEX
8
0
10
0.4
20
2.39
30
0
42
0.9999999999999999
0
VERTEX
8
0
10
0.4
20
2.41
30
0
0
VERTEX
8
0
10
0.3
20
2.41
30
0
42
0.4142135623730951
0
VERTEX
8
0
10
0.29
20
2.4
30
0
0
VERTEX
8
0
10
0.29
20
0.7
30
0
42
0.19891236737965798
0
VERTEX
8
0
10
0.2929288877952756
20
0.6929288877952756
30
0
0
VERTEX
8
0
10
0.4929288877952756
20
0.4929288877952756
30
0
42
0.19891236737965798
0
VERTEX
8
0
10
0.5
20
0.49
30
0
0
VERTEX
8
0
10
0.8
20
0.49
30
0
42
0.4142135623730951
0
VERTEX
8
0
10
0.81
20
0.5
30
0
0
VERTEX
8
0
10
0.81
20
0.89
30
0
0
VERTEX
8
0
10
0.8505246062992126
20
0.89
30
0
42
0.2883249766238833
0
VERTEX
8
0
10
0.8729870816929134
20
0.874251968503937
30
0
0
VERTEX
8
0
10
0.9270129183070867
20
0.874251968503937
30
0
42
0.9520803604479573
0
VERTEX
8
0
10
0.9270129183070867
20
0.925748031496063
30
0
0
VERTEX
8
0
10
0.8729870816929134
20
0.925748031496063
30
0
42
0.2883249766238833
0
VERTEX
8
0
10
0.8505246062992126
20
0.91
30
0
0
VERTEX
8
0
10
0.8
20
0.91
30
0
0
SEQEND
0
POLYLINE
66
1
8
16_copper
10
0.0
20
0.0
30
0.0
70
1
0
VERTEX
8
0
10
0.9295306348425196
20
0.874499876968504
30
0
42
0.9063474445600833
0
VERTEX
8
0
10
0.9270129183070867
20
0.925748031496063
30
0
0
VERTEX
8
0
10
0.8729870816929134
20
0.925748031496063
30
0
42
0.9520803604479573
0
VERTEX
8
0
10
0.8729870816929134
20
0.874251968503937
30
0
0
VERTEX
8
0
10
0.9270129183070867
20
0.874251968503937
30
0
0
SEQEND
0
POLYLINE
66
1
8
1_copper
10
0.0
20
0.0
30
0.0
70
1
0
VERTEX
8
0
10
0.6599399606299212
20
1.2007643946850393
30
0
42
0.1790390709365824
0
VERTEX
8
0
10
0.6570711122047244
20
1.2070711122047244
30
0
0
VERTEX
8
0
10
0.56
20
1.3041422244094487
30
0
0
VERTEX
8
0
10
0.56
20
1.6958577755905513
30
0
0
VERTEX
8
0
10
0.6070711122047244
20
1.7429288877952755
30
0
42
0.19891236737965798
0
VERTEX
8
0
10
0.61
20
1.75
30
0
0
VERTEX
8
0
10
0.61
20
2.095857775590551
30
0
0
VERTEX
8
0
10
0.7070711122047244
20
2.1929288877952757
30
0
42
0.19891236737965798
0
VERTEX
8
0
10
0.71
20
2.2
30
0
0
VERTEX
8
0
10
0.71
20
2.269
30
0
0
VERTEX
8
0
10
0.7107694389763779
20
2.269
30
0
0
VERTEX
8
0
10
0.726
20
2.284230561023622
30
0
0
VERTEX
8
0
10
0.726
20
2.305769438976378
30
0
0
VERTEX
8
0
10
0.7107694389763779
20
2.321
30
0
0
VERTEX
8
0
10
0.689230561023622
20
2.321
30
0
0
VERTEX
8
0
10
0.674
20
2.305769438976378
30
0
0
VERTEX
8
0
10
0.674
20
2.305
30
0
0
VERTEX
8
0
10
0.56
20
2.305
30
0
0
VERTEX
8
0
10
0.56
20
2.7
30
0
42
0.19891236737965798
0
VERTEX
8
0
10
0.5570711122047244
20
2.7070711122047246
30
0
0
VERTEX
8
0
10
0.4570711122047244
20
2.8070711122047243
30
0
42
0.19891236737965798
0
VERTEX
8
0
10
0.45
20
2.81
30
0
0
VERTEX
8
0
10
0.4
20
2.81
30
0
42
0.9228431308911045
0
VERTEX
8
0
10
0.39840268208661417
20
2.7901284448818897
30
0
0
VERTEX
8
0
10
0.4
20
2.79
30
0
0
VERTEX
8
0
10
0.4458577755905512
20
2.79
30
0
0
VERTEX
8
0
10
0.54
20
2.695857775590551
30
0
0
VERTEX
8
0
10
0.54
20
2.295
30
0
42
0.4142135623730951
0
VERTEX
8
0
10
0.55
20
2.285
30
0
0
VERTEX
8
0
10
0.674
20
2.285
30
0
0
VERTEX
8
0
10
0.674
20
2.284230561023622
30
0
0
VERTEX
8
0
10
0.689230561023622
20
2.269
30
0
0
VERTEX
8
0
10
0.69
20
2.269
30
0
0
VERTEX
8
0
10
0.69
20
2.204142224409449
30
0
0
VERTEX
8
0
10
0.5929288877952756
20
2.1070711122047245
30
0
42
0.19891236737965798
0
VERTEX
8
0
10
0.59
20
2.1
30
0
0
VERTEX
8
0
10
0.59
20
1.754142224409449
30
0
0
VERTEX
8
0
10
0.5429288877952756
20
1.7070711122047244
30
0
42
0.19891236737965798
0
VERTEX
8
0
10
0.54
20
1.7
30
0
0
VERTEX
8
0
10
0.54
20
1.3
30
0
42
0.19891236737965798
0
VERTEX
8
0
10
0.5429288877952756
20
1.2929288877952756
30
0
0
VERTEX
8
0
10
0.64
20
1.1958577755905513
30
0
0
VERTEX
8
0
10
0.64
20
0.86
30
0
0
VERTEX
8
0
10
0.558316437007874
20
0.86
30
0
42
0.30447514697161254
0
VERTEX
8
0
10
0.5314737942913386
20
0.88
30
0
0
VERTEX
8
0
10
0.46852620570866144
20
0.88
30
0
42
0.9520795017710559
0
VERTEX
8
0
10
0.46852620570866144
20
0.82
30
0
0
VERTEX
8
0
10
0.5314737942913386
20
0.82
30
0
42
0.30447514697161254
0
VERTEX
8
0
10
0.558316437007874
20
0.84
30
0
0
VERTEX
8
0
10
0.65
20
0.84
30
0
42
0.4142135623730951
0
VERTEX
8
0
10
0.66
20
0.85
30
0
0
VERTEX
8
0
10
0.66
20
1.2
30
0
0
SEQEND
0
POLYLINE
66
1
8
16_copper
10
0.0
20
0.0
30
0.0
70
1
0
VERTEX
8
0
10
0.726
20
2.284230561023622
30
0
0
VERTEX
8
0
10
0.726
20
2.305769438976378
30
0
0
VERTEX
8
0
10
0.7107694389763779
20
2.321
30
0
0
VERTEX
8
0
10
0.689230561023622
20
2.321
30
0
0
VERTEX
8
0
10
0.674
20
2.305769438976378
30
0
0
VERTEX
8
0
10
0.674
20
2.284230561023622
30
0
0
VERTEX
8
0
10
0.689230561023622
20
2.269
30
0
0
VERTEX
8
0
10
0.7107694389763779
20
2.269
30
0
0
SEQEND
0
POLYLINE
66
1
8
16_copper
10
0.0
20
0.0
30
0.0
70
1
0
VERTEX
8
0
10
0.5344072342519685
20
0.820288877952756
30
0
42
0.9063472543261978
0
VERTEX
8
0
10
0.5314737942913386
20
0.88
30
0
0
VERTEX
8
0
10
0.46852620570866144
20
0.88
30
0
42
0.9520795017710559
0
VERTEX
8
0
10
0.46852620570866144
20
0.82
30
0
0
VERTEX
8
0
10
0.5314737942913386
20
0.82
30
0
0
SEQEND
0
POLYLINE
66
1
8
1_copper
10
0.0
20
0.0
30
0.0
70
1
0
VERTEX
8
0
10
0.9992250246062993
20
2.709939099409449
30
0
42
0.3916014460306381
0
VERTEX
8
0
10
0.99
20
2.7
30
0
0
VERTEX
8
0
10
0.99
20
2.454142224409449
30
0
0
VERTEX
8
0
10
0.8429288877952756
20
2.3070711122047243
30
0
42
0.19891236737965798
0
VERTEX
8
0
10
0.84
20
2.3
30
0
0
VERTEX
8
0
10
0.84
20
1.7691422244094488
30
0
0
VERTEX
8
0
10
0.6929288877952756
20
1.6220711122047244
30
0
42
0.19891236737965798
0
VERTEX
8
0
10
0.69
20
1.615
30
0
0
VERTEX
8
0
10
0.69
20
1.325
30
0
42
0.19891236737965798
0
VERTEX
8
0
10
0.6929288877952756
20
1.3179288877952755
30
0
0
VERTEX
8
0
10
0.9179288877952756
20
1.0929288877952756
30
0
42
0.19891236737965798
0
VERTEX
8
0
10
0.925
20
1.09
30
0
0
VERTEX
8
0
10
1.19
20
1.09
30
0
42
0.19891236737965798
0
VERTEX
8
0
10
1.1970711122047244
20
1.0929288877952756
30
0
0
VERTEX
8
0
10
1.6070711122047243
20
1.5029288877952756
30
0
42
0.19891236737965798
0
VERTEX
8
0
10
1.61
20
1.51
30
0
0
VERTEX
8
0
10
1.61
20
1.7348601131889765
30
0
0
VERTEX
8
0
10
1.714
20
1.7334157234251968
30
0
0
VERTEX
8
0
10
1.714
20
1.7305736958661417
30
0
0
VERTEX
8
0
10
1.7315736958661416
20
1.713
30
0
0
VERTEX
8
0
10
1.7564263041338584
20
1.713
30
0
0
VERTEX
8
0
10
1.774
20
1.7305736958661417
30
0
0
VERTEX
8
0
10
1.774
20
1.7554263041338583
30
0
0
VERTEX
8
0
10
1.7564263041338584
20
1.773
30
0
0
VERTEX
8
0
10
1.7315736958661416
20
1.773
30
0
0
VERTEX
8
0
10
1.714
20
1.7554263041338583
30
0
0
VERTEX
8
0
10
1.714
20
1.753417568897638
30
0
0
VERTEX
8
0
10
1.600138902559055
20
1.7549990157480315
30
0
42
0.4182879400024925
0
VERTEX
8
0
10
1.59
20
1.745
30
0
0
VERTEX
8
0
10
1.59
20
1.514142224409449
30
0
0
VERTEX
8
0
10
1.1858577755905513
20
1.11
30
0
0
VERTEX
8
0
10
0.9291422244094488
20
1.11
30
0
0
VERTEX
8
0
10
0.71
20
1.3291422244094488
30
0
0
VERTEX
8
0
10
0.71
20
1.610857775590551
30
0
0
VERTEX
8
0
10
0.8570711122047244
20
1.7579288877952757
30
0
42
0.19891236737965798
0
VERTEX
8
0
10
0.86
20
1.765
30
0
0
VERTEX
8
0
10
0.86
20
2.295857775590551
30
0
0
VERTEX
8
0
10
1.0070711122047245
20
2.4429288877952757
30
0
42
0.19891236737965798
0
VERTEX
8
0
10
1.01
20
2.45
30
0
0
VERTEX
8
0
10
1.01
20
2.69
30
0
0
VERTEX
8
0
10
1.2
20
2.69
30
0
42
0.9999999999999999
0
VERTEX
8
0
10
1.2
20
2.71
30
0
0
VERTEX
8
0
10
1
20
2.71
30
0
0
SEQEND
0
POLYLINE
66
1
8
16_copper
10
0.0
20
0.0
30
0.0
70
1
0
VERTEX
8
0
10
1.774
20
1.7305736958661417
30
0
0
VERTEX
8
0
10
1.774
20
1.7554263041338583
30
0
0
VERTEX
8
0
10
1.7564263041338584
20
1.773
30
0
0
VERTEX
8
0
10
1.7315736958661416
20
1.773
30
0
0
VERTEX
8
0
10
1.714
20
1.7554263041338583
30
0
0
VERTEX
8
0
10
1.714
20
1.7305736958661417
30
0
0
VERTEX
8
0
10
1.7315736958661416
20
1.713
30
0
0
VERTEX
8
0
10
1.7564263041338584
20
1.713
30
0
0
SEQEND
0
POLYLINE
66
1
8
1_copper
10
0.0
20
0.0
30
0.0
70
1
0
VERTEX
8
0
10
1.3992250246062992
20
2.4099390994094487
30
0
42
0.3916014460306381
0
VERTEX
8
0
10
1.39
20
2.4
30
0
0
VERTEX
8
0
10
1.39
20
1.6041422244094488
30
0
0
VERTEX
8
0
10
1.1929288877952755
20
1.4070711122047244
30
0
42
0.9999999999999999
0
VERTEX
8
0
10
1.2070711122047244
20
1.3929288877952757
30
0
0
VERTEX
8
0
10
1.4070711122047244
20
1.5929288877952756
30
0
42
0.19891236737965798
0
VERTEX
8
0
10
1.41
20
1.6
30
0
0
VERTEX
8
0
10
1.41
20
2.39
30
0
0
VERTEX
8
0
10
2.6458577755905512
20
2.39
30
0
0
VERTEX
8
0
10
3.04
20
1.995857775590551
30
0
0
VERTEX
8
0
10
3.04
20
0.3541422244094488
30
0
0
VERTEX
8
0
10
2.945857775590551
20
0.26
30
0
0
VERTEX
8
0
10
2.71
20
0.26
30
0
0
VERTEX
8
0
10
2.71
20
1.95
30
0
42
0.19891236737965798
0
VERTEX
8
0
10
2.7070711122047246
20
1.9570711122047244
30
0
0
VERTEX
8
0
10
2.4570711122047246
20
2.2070711122047246
30
0
42
0.19891236737965798
0
VERTEX
8
0
10
2.45
20
2.21
30
0
0
VERTEX
8
0
10
2.2
20
2.21
30
0
42
0.19891236737965798
0
VERTEX
8
0
10
2.1929288877952757
20
2.2070711122047246
30
0
0
VERTEX
8
0
10
1.9058577755905513
20
1.92
30
0
0
VERTEX
8
0
10
1.76
20
1.92
30
0
42
0.19891236737965798
0
VERTEX
8
0
10
1.7529288877952756
20
1.9170711122047244
30
0
0
VERTEX
8
0
10
1.7369288877952755
20
1.9010711122047244
30
0
42
0.19891236737965798
0
VERTEX
8
0
10
1.734
20
1.894
30
0
0
VERTEX
8
0
10
1.734
20
1.882
30
0
0
VERTEX
8
0
10
1.7315736958661416
20
1.882
30
0
0
VERTEX
8
0
10
1.714
20
1.8644263041338582
30
0
0
VERTEX
8
0
10
1.714
20
1.8395736958661417
30
0
0
VERTEX
8
0
10
1.7315736958661416
20
1.822
30
0
0
VERTEX
8
0
10
1.7564263041338584
20
1.822
30
0
0
VERTEX
8
0
10
1.774
20
1.8395736958661417
30
0
0
VERTEX
8
0
10
1.774
20
1.8644263041338582
30
0
0
VERTEX
8
0
10
1.7564263041338584
20
1.882
30
0
0
VERTEX
8
0
10
1.754
20
1.882
30
0
0
VERTEX
8
0
10
1.754
20
1.8898577755905512
30
0
0
VERTEX
8
0
10
1.764142224409449
20
1.9
30
0
0
VERTEX
8
0
10
1.91
20
1.9
30
0
42
0.19891236737965798
0
VERTEX
8
0
10
1.9170711122047244
20
1.9029288877952757
30
0
0
VERTEX
8
0
10
2.204142224409449
20
2.19
30
0
0
VERTEX
8
0
10
2.445857775590551
20
2.19
30
0
0
VERTEX
8
0
10
2.69
20
1.9458577755905513
30
0
0
VERTEX
8
0
10
2.69
20
0.25
30
0
42
0.4142135623730951
0
VERTEX
8
0
10
2.7
20
0.24
30
0
0
VERTEX
8
0
10
2.95
20
0.24
30
0
42
0.19891236737965798
0
VERTEX
8
0
10
2.9570711122047246
20
0.24292888779527558
30
0
0
VERTEX
8
0
10
3.0570711122047243
20
0.3429288877952756
30
0
42
0.19891236737965798
0
VERTEX
8
0
10
3.06
20
0.35
30
0
0
VERTEX
8
0
10
3.06
20
2
30
0
42
0.19891236737965798
0
VERTEX
8
0
10
3.0570711122047243
20
2.0070711122047245
30
0
0
VERTEX
8
0
10
2.6570711122047244
20
2.4070711122047244
30
0
42
0.19891236737965798
0
VERTEX
8
0
10
2.65
20
2.41
30
0
0
VERTEX
8
0
10
1.4
20
2.41
30
0
0
SEQEND
0
POLYLINE
66
1
8
16_copper
10
0.0
20
0.0
30
0.0
70
1
0
VERTEX
8
0
10
1.774
20
1.8395736958661417
30
0
0
VERTEX
8
0
10
1.774
20
1.8644263041338582
30
0
0
VERTEX
8
0
10
1.7564263041338584
20
1.882
30
0
0
VERTEX
8
0
10
1.7315736958661416
20
1.882
30
0
0
VERTEX
8
0
10
1.714
20
1.8644263041338582
30
0
0
VERTEX
8
0
10
1.714
20
1.8395736958661417
30
0
0
VERTEX
8
0
10
1.7315736958661416
20
1.822
30
0
0
VERTEX
8
0
10
1.7564263041338584
20
1.822
30
0
0
SEQEND
0
POLYLINE
66
1
8
1_copper
10
0.0
20
0.0
30
0.0
70
1
0
VERTEX
8
0
10
2.6507549212598427
20
2.5900593011811024
30
0
42
0.17928500409720616
0
VERTEX
8
0
10
2.6570711122047244
20
2.5929288877952756
30
0
0
VERTEX
8
0
10
2.7070711122047246
20
2.6429288877952755
30
0
42
0.19891236737965798
0
VERTEX
8
0
10
2.71
20
2.65
30
0
0
VERTEX
8
0
10
2.71
20
2.7
30
0
42
0.9999999999999999
0
VERTEX
8
0
10
2.69
20
2.7
30
0
0
VERTEX
8
0
10
2.69
20
2.654142224409449
30
0
0
VERTEX
8
0
10
2.65
20
2.614142224409449
30
0
0
VERTEX
8
0
10
2.61
20
2.654142224409449
30
0
0
VERTEX
8
0
10
2.61
20
2.7
30
0
42
0.9999999999999999
0
VERTEX
8
0
10
2.59
20
2.7
30
0
0
VERTEX
8
0
10
2.59
20
2.65
30
0
42
0.19891236737965798
0
VERTEX
8
0
10
2.5929288877952756
20
2.6429288877952755
30
0
0
VERTEX
8
0
10
2.6429288877952755
20
2.5929288877952756
30
0
0
VERTEX
8
0
10
2.6435382627952757
20
2.592408341535433
30
0
0
VERTEX
8
0
10
2.6441065452755907
20
2.5919211368110235
30
0
0
VERTEX
8
0
10
2.644113927165354
20
2.591916584645669
30
0
0
VERTEX
8
0
10
2.6441206938976376
20
2.5919108021653545
30
0
0
VERTEX
8
0
10
2.6447898622047243
20
2.5915006151574804
30
0
0
VERTEX
8
0
10
2.645441313976378
20
2.5910995324803148
30
0
0
VERTEX
8
0
10
2.6454494340551182
20
2.5910962106299213
30
0
0
VERTEX
8
0
10
2.645456938976378
20
2.591091535433071
30
0
0
VERTEX
8
0
10
2.6462060777559056
20
2.5907808809055117
30
0
0
VERTEX
8
0
10
2.6468881643700786
20
2.59049655511811
30
0
0
VERTEX
8
0
10
2.646896038385827
20
2.5904947096456694
30
0
0
VERTEX
8
0
10
2.6469047736220475
20
2.5904910187007872
30
0
0
VERTEX
8
0
10
2.64766781496063
20
2.5903073326771655
30
0
0
VERTEX
8
0
10
2.648411417322835
20
2.590126968503937
30
0
0
VERTEX
8
0
10
2.6484206446850393
20
2.5901262303149606
30
0
0
VERTEX
8
0
10
2.6484287647637794
20
2.590124261811024
30
0
0
VERTEX
8
0
10
2.649171875
20
2.5900652066929135
30
0
0
VERTEX
8
0
10
2.6499736712598425
20
2.59
30
0
0
VERTEX
8
0
10
2.6499826525590553
20
2.5900007381889765
30
0
0
VERTEX
8
0
10
2.6499912647637793
20
2.59
30
0
0
SEQEND
0
POLYLINE
66
1
8
1_copper
10
0.0
20
0.0
30
0.0
70
1
0
VERTEX
8
0
10
2.851562623031496
20
2.590122785433071
30
0
42
0.9244717320471936
0
VERTEX
8
0
10
2.85
20
2.61
30
0
0
VERTEX
8
0
10
2.76
20
2.61
30
0
0
VERTEX
8
0
10
2.76
20
2.7
30
0
42
0.9999999999999999
0
VERTEX
8
0
10
2.74
20
2.7
30
0
0
VERTEX
8
0
10
2.74
20
2.6
30
0
42
0.4142135623730951
0
VERTEX
8
0
10
2.75
20
2.59
30
0
0
VERTEX
8
0
10
2.85
20
2.59
30
0
0
SEQEND
0
POLYLINE
66
1
8
1_copper
10
0.0
20
0.0
30
0.0
70
1
0
VERTEX
8
0
10
1.1192250246062991
20
1.9099390994094487
30
0
42
0.3916014460306381
0
VERTEX
8
0
10
1.11
20
1.9
30
0
0
VERTEX
8
0
10
1.11
20
1.4241422244094488
30
0
0
VERTEX
8
0
10
1.0641421013779528
20
1.3782843257874016
30
0
0
VERTEX
8
0
10
1.0624263041338582
20
1.38
30
0
0
VERTEX
8
0
10
1.0375736958661417
20
1.38
30
0
0
VERTEX
8
0
10
1.02
20
1.3624263041338582
30
0
0
VERTEX
8
0
10
1.02
20
1.3375736958661417
30
0
0
VERTEX
8
0
10
1.0375736958661417
20
1.32
30
0
0
VERTEX
8
0
10
1.0624263041338582
20
1.32
30
0
0
VERTEX
8
0
10
1.08
20
1.3375736958661417
30
0
0
VERTEX
8
0
10
1.08
20
1.3624263041338582
30
0
0
VERTEX
8
0
10
1.0782843257874015
20
1.3641421013779527
30
0
0
VERTEX
8
0
10
1.1270711122047243
20
1.4129288877952757
30
0
42
0.19891236737965798
0
VERTEX
8
0
10
1.13
20
1.42
30
0
0
VERTEX
8
0
10
1.13
20
1.89
30
0
0
VERTEX
8
0
10
1.2
20
1.89
30
0
42
0.9999999999999999
0
VERTEX
8
0
10
1.2
20
1.91
30
0
0
VERTEX
8
0
10
1.12
20
1.91
30
0
0
SEQEND
0
POLYLINE
66
1
8
16_copper
10
0.0
20
0.0
30
0.0
70
1
0
VERTEX
8
0
10
1.08
20
1.3375736958661417
30
0
0
VERTEX
8
0
10
1.08
20
1.3624263041338582
30
0
0
VERTEX
8
0
10
1.0624263041338582
20
1.38
30
0
0
VERTEX
8
0
10
1.0375736958661417
20
1.38
30
0
0
VERTEX
8
0
10
1.02
20
1.3624263041338582
30
0
0
VERTEX
8
0
10
1.02
20
1.3375736958661417
30
0
0
VERTEX
8
0
10
1.0375736958661417
20
1.32
30
0
0
VERTEX
8
0
10
1.0624263041338582
20
1.32
30
0
0
SEQEND
0
POLYLINE
66
1
8
1_copper
10
0.0
20
0.0
30
0.0
70
1
0
VERTEX
8
0
10
1.4492250246062992
20
2.359939099409449
30
0
42
0.3916014460306381
0
VERTEX
8
0
10
1.44
20
2.35
30
0
0
VERTEX
8
0
10
1.44
20
1.5391422244094488
30
0
0
VERTEX
8
0
10
1.1508577755905511
20
1.25
30
0
0
VERTEX
8
0
10
0.9991422244094488
20
1.25
30
0
0
VERTEX
8
0
10
0.91
20
1.3391422244094489
30
0
0
VERTEX
8
0
10
0.91
20
1.44
30
0
0
VERTEX
8
0
10
1.05
20
1.44
30
0
42
0.19891236737965798
0
VERTEX
8
0
10
1.0570711122047245
20
1.4429288877952755
30
0
0
VERTEX
8
0
10
1.0870711122047243
20
1.4729288877952755
30
0
42
0.19891236737965798
0
VERTEX
8
0
10
1.09
20
1.48
30
0
0
VERTEX
8
0
10
1.09
20
1.725
30
0
42
0.19891236737965798
0
VERTEX
8
0
10
1.0870711122047243
20
1.7320711122047243
30
0
0
VERTEX
8
0
10
1.06
20
1.7591422244094488
30
0
0
VERTEX
8
0
10
1.06
20
2.170857775590551
30
0
0
VERTEX
8
0
10
1.1791422244094487
20
2.29
30
0
0
VERTEX
8
0
10
1.2
20
2.29
30
0
42
0.9999999999999999
0
VERTEX
8
0
10
1.2
20
2.31
30
0
0
VERTEX
8
0
10
1.175
20
2.31
30
0
42
0.19891236737965798
0
VERTEX
8
0
10
1.1679288877952756
20
2.3070711122047243
30
0
0
VERTEX
8
0
10
1.0429288877952756
20
2.1820711122047243
30
0
42
0.19891236737965798
0
VERTEX
8
0
10
1.04
20
2.175
30
0
0
VERTEX
8
0
10
1.04
20
1.755
30
0
42
0.19891236737965798
0
VERTEX
8
0
10
1.0429288877952756
20
1.7479288877952757
30
0
0
VERTEX
8
0
10
1.07
20
1.7208577755905512
30
0
0
VERTEX
8
0
10
1.07
20
1.4841422244094489
30
0
0
VERTEX
8
0
10
1.0458577755905512
20
1.46
30
0
0
VERTEX
8
0
10
0.9
20
1.46
30
0
42
0.4142135623730951
0
VERTEX
8
0
10
0.89
20
1.45
30
0
0
VERTEX
8
0
10
0.89
20
1.335
30
0
42
0.19891236737965798
0
VERTEX
8
0
10
0.8929288877952756
20
1.3279288877952755
30
0
0
VERTEX
8
0
10
0.9879288877952755
20
1.2329288877952755
30
0
42
0.19891236737965798
0
VERTEX
8
0
10
0.995
20
1.23
30
0
0
VERTEX
8
0
10
1.155
20
1.23
30
0
42
0.19891236737965798
0
VERTEX
8
0
10
1.1620711122047245
20
1.2329288877952755
30
0
0
VERTEX
8
0
10
1.4570711122047244
20
1.5279288877952757
30
0
42
0.19891236737965798
0
VERTEX
8
0
10
1.46
20
1.535
30
0
0
VERTEX
8
0
10
1.46
20
2.34
30
0
0
VERTEX
8
0
10
2.595857775590551
20
2.34
30
0
0
VERTEX
8
0
10
2.99
20
1.9458577755905513
30
0
0
VERTEX
8
0
10
2.99
20
0.4041422244094488
30
0
0
VERTEX
8
0
10
2.945857775590551
20
0.36
30
0
0
VERTEX
8
0
10
2.8994753937007873
20
0.36
30
0
42
0.2883249766238833
0
VERTEX
8
0
10
2.8770129183070865
20
0.375748031496063
30
0
0
VERTEX
8
0
10
2.8229870816929132
20
0.375748031496063
30
0
42
0.9520803604479573
0
VERTEX
8
0
10
2.8229870816929132
20
0.324251968503937
30
0
0
VERTEX
8
0
10
2.8770129183070865
20
0.324251968503937
30
0
42
0.2883249766238833
0
VERTEX
8
0
10
2.8994753937007873
20
0.34
30
0
0
VERTEX
8
0
10
2.95
20
0.34
30
0
42
0.19891236737965798
0
VERTEX
8
0
10
2.9570711122047246
20
0.3429288877952756
30
0
0
VERTEX
8
0
10
3.0070711122047245
20
0.39292888779527557
30
0
42
0.19891236737965798
0
VERTEX
8
0
10
3.01
20
0.4
30
0
0
VERTEX
8
0
10
3.01
20
1.95
30
0
42
0.19891236737965798
0
VERTEX
8
0
10
3.0070711122047245
20
1.9570711122047244
30
0
0
VERTEX
8
0
10
2.6070711122047245
20
2.3570711122047245
30
0
42
0.19891236737965798
0
VERTEX
8
0
10
2.6
20
2.36
30
0
0
VERTEX
8
0
10
1.45
20
2.36
30
0
0
SEQEND
0
POLYLINE
66
1
8
16_copper
10
0.0
20
0.0
30
0.0
70
1
0
VERTEX
8
0
10
2.87953063484252
20
0.32449987696850396
30
0
42
0.9063474445600833
0
VERTEX
8
0
10
2.8770129183070865
20
0.375748031496063
30
0
0
VERTEX
8
0
10
2.8229870816929132
20
0.375748031496063
30
0
42
0.9520803604479573
0
VERTEX
8
0
10
2.8229870816929132
20
0.324251968503937
30
0
0
VERTEX
8
0
10
2.8770129183070865
20
0.324251968503937
30
0
0
SEQEND
0
POLYLINE
66
1
8
1_copper
10
0.0
20
0.0
30
0.0
70
1
0
VERTEX
8
0
10
1.015
20
1.5375736958661417
30
0
0
VERTEX
8
0
10
1.015
20
1.5624263041338582
30
0
0
VERTEX
8
0
10
1.01
20
1.5674263041338583
30
0
0
VERTEX
8
0
10
1.01
20
2.195857775590551
30
0
0
VERTEX
8
0
10
1.2070711122047244
20
2.3929288877952755
30
0
42
0.9999999999999999
0
VERTEX
8
0
10
1.1929288877952755
20
2.4070711122047244
30
0
0
VERTEX
8
0
10
0.9929288877952755
20
2.2070711122047246
30
0
42
0.19891236737965798
0
VERTEX
8
0
10
0.99
20
2.2
30
0
0
VERTEX
8
0
10
0.99
20
1.58
30
0
0
VERTEX
8
0
10
0.9725736958661417
20
1.58
30
0
0
VERTEX
8
0
10
0.955
20
1.5624263041338582
30
0
0
VERTEX
8
0
10
0.955
20
1.5375736958661417
30
0
0
VERTEX
8
0
10
0.9725736958661417
20
1.52
30
0
0
VERTEX
8
0
10
0.9974263041338582
20
1.52
30
0
0
SEQEND
0
POLYLINE
66
1
8
16_copper
10
0.0
20
0.0
30
0.0
70
1
0
VERTEX
8
0
10
1.015
20
1.5375736958661417
30
0
0
VERTEX
8
0
10
1.015
20
1.5624263041338582
30
0
0
VERTEX
8
0
10
0.9974263041338582
20
1.58
30
0
0
VERTEX
8
0
10
0.9725736958661417
20
1.58
30
0
0
VERTEX
8
0
10
0.955
20
1.5624263041338582
30
0
0
VERTEX
8
0
10
0.955
20
1.5375736958661417
30
0
0
VERTEX
8
0
10
0.9725736958661417
20
1.52
30
0
0
VERTEX
8
0
10
0.9974263041338582
20
1.52
30
0
0
SEQEND
0
POLYLINE
66
1
8
1_copper
10
0.0
20
0.0
30
0.0
70
1
0
VERTEX
8
0
10
2.33
20
1.2875736958661417
30
0
0
VERTEX
8
0
10
2.33
20
1.3124263041338582
30
0
0
VERTEX
8
0
10
2.3124263041338584
20
1.33
30
0
0
VERTEX
8
0
10
2.2875736958661417
20
1.33
30
0
0
VERTEX
8
0
10
2.285858021653543
20
1.3282843257874015
30
0
0
VERTEX
8
0
10
2.1900711122047243
20
1.4240711122047245
30
0
42
0.19891236737965798
0
VERTEX
8
0
10
2.183
20
1.427
30
0
0
VERTEX
8
0
10
1.774
20
1.427
30
0
0
VERTEX
8
0
10
1.774
20
1.4294263041338582
30
0
0
VERTEX
8
0
10
1.7564263041338584
20
1.447
30
0
0
VERTEX
8
0
10
1.7315736958661416
20
1.447
30
0
0
VERTEX
8
0
10
1.714
20
1.4294263041338582
30
0
0
VERTEX
8
0
10
1.714
20
1.4045736958661417
30
0
0
VERTEX
8
0
10
1.7315736958661416
20
1.387
30
0
0
VERTEX
8
0
10
1.7564263041338584
20
1.387
30
0
0
VERTEX
8
0
10
1.774
20
1.4045736958661417
30
0
0
VERTEX
8
0
10
1.774
20
1.407
30
0
0
VERTEX
8
0
10
2.178857775590551
20
1.407
30
0
0
VERTEX
8
0
10
2.2717157972440947
20
1.3141421013779528
30
0
0
VERTEX
8
0
10
2.27
20
1.3124263041338582
30
0
0
VERTEX
8
0
10
2.27
20
1.2875736958661417
30
0
0
VERTEX
8
0
10
2.2875736958661417
20
1.27
30
0
0
VERTEX
8
0
10
2.3124263041338584
20
1.27
30
0
0
SEQEND
0
POLYLINE
66
1
8
16_copper
10
0.0
20
0.0
30
0.0
70
1
0
VERTEX
8
0
10
1.774
20
1.4045736958661417
30
0
0
VERTEX
8
0
10
1.774
20
1.4294263041338582
30
0
0
VERTEX
8
0
10
1.7564263041338584
20
1.447
30
0
0
VERTEX
8
0
10
1.7315736958661416
20
1.447
30
0
0
VERTEX
8
0
10
1.714
20
1.4294263041338582
30
0
0
VERTEX
8
0
10
1.714
20
1.4045736958661417
30
0
0
VERTEX
8
0
10
1.7315736958661416
20
1.387
30
0
0
VERTEX
8
0
10
1.7564263041338584
20
1.387
30
0
0
SEQEND
0
POLYLINE
66
1
8
16_copper
10
0.0
20
0.0
30
0.0
70
1
0
VERTEX
8
0
10
2.33
20
1.2875736958661417
30
0
0
VERTEX
8
0
10
2.33
20
1.3124263041338582
30
0
0
VERTEX
8
0
10
2.3124263041338584
20
1.33
30
0
0
VERTEX
8
0
10
2.2875736958661417
20
1.33
30
0
0
VERTEX
8
0
10
2.27
20
1.3124263041338582
30
0
0
VERTEX
8
0
10
2.27
20
1.2875736958661417
30
0
0
VERTEX
8
0
10
2.2875736958661417
20
1.27
30
0
0
VERTEX
8
0
10
2.3124263041338584
20
1.27
30
0
0
SEQEND
0
POLYLINE
66
1
8
1_copper
10
0.0
20
0.0
30
0.0
70
1
0
VERTEX
8
0
10
1.8142356053149606
20
1.8749399606299213
30
0
42
0.1790390709365824
0
VERTEX
8
0
10
1.8079288877952755
20
1.8720711122047244
30
0
0
VERTEX
8
0
10
1.7929288877952756
20
1.8570711122047243
30
0
42
0.19891236737965798
0
VERTEX
8
0
10
1.79
20
1.85
30
0
0
VERTEX
8
0
10
1.79
20
1.5861422244094487
30
0
0
VERTEX
8
0
10
1.7581421013779528
20
1.5542843257874015
30
0
0
VERTEX
8
0
10
1.7564263041338584
20
1.556
30
0
0
VERTEX
8
0
10
1.7315736958661416
20
1.556
30
0
0
VERTEX
8
0
10
1.714
20
1.5384263041338582
30
0
0
VERTEX
8
0
10
1.714
20
1.5135736958661417
30
0
0
VERTEX
8
0
10
1.7315736958661416
20
1.496
30
0
0
VERTEX
8
0
10
1.7564263041338584
20
1.496
30
0
0
VERTEX
8
0
10
1.774
20
1.5135736958661417
30
0
0
VERTEX
8
0
10
1.774
20
1.5384263041338582
30
0
0
VERTEX
8
0
10
1.7722843257874015
20
1.5401421013779528
30
0
0
VERTEX
8
0
10
1.8070711122047245
20
1.5749288877952756
30
0
42
0.19891236737965798
0
VERTEX
8
0
10
1.81
20
1.582
30
0
0
VERTEX
8
0
10
1.81
20
1.8458577755905512
30
0
0
VERTEX
8
0
10
1.8191422244094488
20
1.855
30
0
0
VERTEX
8
0
10
2.175
20
1.855
30
0
42
0.19891236737965798
0
VERTEX
8
0
10
2.1820711122047243
20
1.8579288877952755
30
0
0
VERTEX
8
0
10
2.2941422244094487
20
1.97
30
0
0
VERTEX
8
0
10
2.3124263041338584
20
1.97
30
0
0
VERTEX
8
0
10
2.33
20
1.9875736958661416
30
0
0
VERTEX
8
0
10
2.33
20
2.012426304133858
30
0
0
VERTEX
8
0
10
2.3124263041338584
20
2.03
30
0
0
VERTEX
8
0
10
2.2875736958661417
20
2.03
30
0
0
VERTEX
8
0
10
2.27
20
2.012426304133858
30
0
0
VERTEX
8
0
10
2.27
20
1.9875736958661416
30
0
0
VERTEX
8
0
10
2.2767157972440946
20
1.9808580216535434
30
0
0
VERTEX
8
0
10
2.170857775590551
20
1.875
30
0
0
VERTEX
8
0
10
1.815
20
1.875
30
0
0
SEQEND
0
POLYLINE
66
1
8
16_copper
10
0.0
20
0.0
30
0.0
70
1
0
VERTEX
8
0
10
2.33
20
1.9875736958661416
30
0
0
VERTEX
8
0
10
2.33
20
2.012426304133858
30
0
0
VERTEX
8
0
10
2.3124263041338584
20
2.03
30
0
0
VERTEX
8
0
10
2.2875736958661417
20
2.03
30
0
0
VERTEX
8
0
10
2.27
20
2.012426304133858
30
0
0
VERTEX
8
0
10
2.27
20
1.9875736958661416
30
0
0
VERTEX
8
0
10
2.2875736958661417
20
1.97
30
0
0
VERTEX
8
0
10
2.3124263041338584
20
1.97
30
0
0
SEQEND
0
POLYLINE
66
1
8
16_copper
10
0.0
20
0.0
30
0.0
70
1
0
VERTEX
8
0
10
1.774
20
1.5135736958661417
30
0
0
VERTEX
8
0
10
1.774
20
1.5384263041338582
30
0
0
VERTEX
8
0
10
1.7564263041338584
20
1.556
30
0
0
VERTEX
8
0
10
1.7315736958661416
20
1.556
30
0
0
VERTEX
8
0
10
1.714
20
1.5384263041338582
30
0
0
VERTEX
8
0
10
1.714
20
1.5135736958661417
30
0
0
VERTEX
8
0
10
1.7315736958661416
20
1.496
30
0
0
VERTEX
8
0
10
1.7564263041338584
20
1.496
30
0
0
SEQEND
0
POLYLINE
66
1
8
1_copper
10
0.0
20
0.0
30
0.0
70
1
0
VERTEX
8
0
10
2.5844072342519686
20
1.620288877952756
30
0
42
0.9063472543261978
0
VERTEX
8
0
10
2.5814737942913384
20
1.68
30
0
0
VERTEX
8
0
10
2.534142224409449
20
1.68
30
0
0
VERTEX
8
0
10
2.4070711122047244
20
1.8070711122047245
30
0
42
0.19891236737965798
0
VERTEX
8
0
10
2.4
20
1.81
30
0
0
VERTEX
8
0
10
1.886
20
1.81
30
0
0
VERTEX
8
0
10
1.886
20
1.8104263041338582
30
0
0
VERTEX
8
0
10
1.8684263041338582
20
1.828
30
0
0
VERTEX
8
0
10
1.8435736958661417
20
1.828
30
0
0
VERTEX
8
0
10
1.826
20
1.8104263041338582
30
0
0
VERTEX
8
0
10
1.826
20
1.7855736958661417
30
0
0
VERTEX
8
0
10
1.8435736958661417
20
1.768
30
0
0
VERTEX
8
0
10
1.8684263041338582
20
1.768
30
0
0
VERTEX
8
0
10
1.886
20
1.7855736958661417
30
0
0
VERTEX
8
0
10
1.886
20
1.79
30
0
0
VERTEX
8
0
10
2.3958577755905512
20
1.79
30
0
0
VERTEX
8
0
10
2.508252091535433
20
1.6776056840551181
30
0
42
0.7963966849433911
0
VERTEX
8
0
10
2.5185262057086613
20
1.62
30
0
0
VERTEX
8
0
10
2.5814737942913384
20
1.62
30
0
0
SEQEND
0
POLYLINE
66
1
8
16_copper
10
0.0
20
0.0
30
0.0
70
1
0
VERTEX
8
0
10
1.886
20
1.7855736958661417
30
0
0
VERTEX
8
0
10
1.886
20
1.8104263041338582
30
0
0
VERTEX
8
0
10
1.8684263041338582
20
1.828
30
0
0
VERTEX
8
0
10
1.8435736958661417
20
1.828
30
0
0
VERTEX
8
0
10
1.826
20
1.8104263041338582
30
0
0
VERTEX
8
0
10
1.826
20
1.7855736958661417
30
0
0
VERTEX
8
0
10
1.8435736958661417
20
1.768
30
0
0
VERTEX
8
0
10
1.8684263041338582
20
1.768
30
0
0
SEQEND
0
POLYLINE
66
1
8
16_copper
10
0.0
20
0.0
30
0.0
70
1
0
VERTEX
8
0
10
2.5844072342519686
20
1.620288877952756
30
0
42
0.9063472543261978
0
VERTEX
8
0
10
2.5814737942913384
20
1.68
30
0
0
VERTEX
8
0
10
2.5185262057086613
20
1.68
30
0
42
0.9520795017710559
0
VERTEX
8
0
10
2.5185262057086613
20
1.62
30
0
0
VERTEX
8
0
10
2.5814737942913384
20
1.62
30
0
0
SEQEND
0
POLYLINE
66
1
8
1_copper
10
0.0
20
0.0
30
0.0
70
1
0
VERTEX
8
0
10
2.5844072342519686
20
1.520288877952756
30
0
42
0.9063472543261978
0
VERTEX
8
0
10
2.5814737942913384
20
1.58
30
0
0
VERTEX
8
0
10
2.5185262057086613
20
1.58
30
0
42
0.22223129415437265
0
VERTEX
8
0
10
2.4960437992125986
20
1.5680984251968504
30
0
0
VERTEX
8
0
10
2.3620711122047244
20
1.7020711122047245
30
0
42
0.19891236737965798
0
VERTEX
8
0
10
2.355
20
1.705
30
0
0
VERTEX
8
0
10
1.8824263041338583
20
1.705
30
0
0
VERTEX
8
0
10
1.8684263041338582
20
1.719
30
0
0
VERTEX
8
0
10
1.8435736958661417
20
1.719
30
0
0
VERTEX
8
0
10
1.826
20
1.7014263041338582
30
0
0
VERTEX
8
0
10
1.826
20
1.6765736958661417
30
0
0
VERTEX
8
0
10
1.8435736958661417
20
1.659
30
0
0
VERTEX
8
0
10
1.8684263041338582
20
1.659
30
0
0
VERTEX
8
0
10
1.886
20
1.6765736958661417
30
0
0
VERTEX
8
0
10
1.886
20
1.685
30
0
0
VERTEX
8
0
10
2.3508577755905513
20
1.685
30
0
0
VERTEX
8
0
10
2.490294783464567
20
1.5455629921259844
30
0
0
VERTEX
8
0
10
2.4908639271653543
20
1.5427017716535434
30
0
42
0.3303552833504715
0
VERTEX
8
0
10
2.5185262057086613
20
1.52
30
0
0
VERTEX
8
0
10
2.5814737942913384
20
1.52
30
0
0
SEQEND
0
POLYLINE
66
1
8
16_copper
10
0.0
20
0.0
30
0.0
70
1
0
VERTEX
8
0
10
1.886
20
1.6765736958661417
30
0
0
VERTEX
8
0
10
1.886
20
1.7014263041338582
30
0
0
VERTEX
8
0
10
1.8684263041338582
20
1.719
30
0
0
VERTEX
8
0
10
1.8435736958661417
20
1.719
30
0
0
VERTEX
8
0
10
1.826
20
1.7014263041338582
30
0
0
VERTEX
8
0
10
1.826
20
1.6765736958661417
30
0
0
VERTEX
8
0
10
1.8435736958661417
20
1.659
30
0
0
VERTEX
8
0
10
1.8684263041338582
20
1.659
30
0
0
SEQEND
0
POLYLINE
66
1
8
16_copper
10
0.0
20
0.0
30
0.0
70
1
0
VERTEX
8
0
10
2.5844072342519686
20
1.520288877952756
30
0
42
0.9063472543261978
0
VERTEX
8
0
10
2.5814737942913384
20
1.58
30
0
0
VERTEX
8
0
10
2.5185262057086613
20
1.58
30
0
42
0.9520795017710559
0
VERTEX
8
0
10
2.5185262057086613
20
1.52
30
0
0
VERTEX
8
0
10
2.5814737942913384
20
1.52
30
0
0
SEQEND
0
POLYLINE
66
1
8
1_copper
10
0.0
20
0.0
30
0.0
70
1
0
VERTEX
8
0
10
2.5844072342519686
20
1.4202888779527558
30
0
42
0.9063472543261978
0
VERTEX
8
0
10
2.5814737942913384
20
1.48
30
0
0
VERTEX
8
0
10
2.5185262057086613
20
1.48
30
0
42
0.22223129415437265
0
VERTEX
8
0
10
2.4960437992125986
20
1.4680984251968503
30
0
0
VERTEX
8
0
10
2.3770711122047246
20
1.5870711122047243
30
0
42
0.19891236737965798
0
VERTEX
8
0
10
2.37
20
1.59
30
0
0
VERTEX
8
0
10
1.886
20
1.59
30
0
0
VERTEX
8
0
10
1.886
20
1.5924263041338582
30
0
0
VERTEX
8
0
10
1.8684263041338582
20
1.61
30
0
0
VERTEX
8
0
10
1.8435736958661417
20
1.61
30
0
0
VERTEX
8
0
10
1.826
20
1.5924263041338582
30
0
0
VERTEX
8
0
10
1.826
20
1.5675736958661417
30
0
0
VERTEX
8
0
10
1.8435736958661417
20
1.55
30
0
0
VERTEX
8
0
10
1.8684263041338582
20
1.55
30
0
0
VERTEX
8
0
10
1.886
20
1.5675736958661417
30
0
0
VERTEX
8
0
10
1.886
20
1.57
30
0
0
VERTEX
8
0
10
2.365857775590551
20
1.57
30
0
0
VERTEX
8
0
10
2.490294783464567
20
1.4455629921259843
30
0
0
VERTEX
8
0
10
2.4908639271653543
20
1.4427017716535433
30
0
42
0.3303552833504715
0
VERTEX
8
0
10
2.5185262057086613
20
1.42
30
0
0
VERTEX
8
0
10
2.5814737942913384
20
1.42
30
0
0
SEQEND
0
POLYLINE
66
1
8
16_copper
10
0.0
20
0.0
30
0.0
70
1
0
VERTEX
8
0
10
1.886
20
1.5675736958661417
30
0
0
VERTEX
8
0
10
1.886
20
1.5924263041338582
30
0
0
VERTEX
8
0
10
1.8684263041338582
20
1.61
30
0
0
VERTEX
8
0
10
1.8435736958661417
20
1.61
30
0
0
VERTEX
8
0
10
1.826
20
1.5924263041338582
30
0
0
VERTEX
8
0
10
1.826
20
1.5675736958661417
30
0
0
VERTEX
8
0
10
1.8435736958661417
20
1.55
30
0
0
VERTEX
8
0
10
1.8684263041338582
20
1.55
30
0
0
SEQEND
0
POLYLINE
66
1
8
16_copper
10
0.0
20
0.0
30
0.0
70
1
0
VERTEX
8
0
10
2.5844072342519686
20
1.4202888779527558
30
0
42
0.9063472543261978
0
VERTEX
8
0
10
2.5814737942913384
20
1.48
30
0
0
VERTEX
8
0
10
2.5185262057086613
20
1.48
30
0
42
0.9520795017710559
0
VERTEX
8
0
10
2.5185262057086613
20
1.42
30
0
0
VERTEX
8
0
10
2.5814737942913384
20
1.42
30
0
0
SEQEND
0
POLYLINE
66
1
8
1_copper
10
0.0
20
0.0
30
0.0
70
1
0
VERTEX
8
0
10
2.5844072342519686
20
1.320288877952756
30
0
42
0.9063472543261978
0
VERTEX
8
0
10
2.5814737942913384
20
1.38
30
0
0
VERTEX
8
0
10
2.5185262057086613
20
1.38
30
0
42
0.22223129415437265
0
VERTEX
8
0
10
2.4960437992125986
20
1.3680984251968504
30
0
0
VERTEX
8
0
10
2.3820711122047245
20
1.4820711122047243
30
0
42
0.19891236737965798
0
VERTEX
8
0
10
2.375
20
1.485
30
0
0
VERTEX
8
0
10
1.8854263041338584
20
1.485
30
0
0
VERTEX
8
0
10
1.8684263041338582
20
1.502
30
0
0
VERTEX
8
0
10
1.8435736958661417
20
1.502
30
0
0
VERTEX
8
0
10
1.826
20
1.4844263041338583
30
0
0
VERTEX
8
0
10
1.826
20
1.4595736958661418
30
0
0
VERTEX
8
0
10
1.8435736958661417
20
1.442
30
0
0
VERTEX
8
0
10
1.8684263041338582
20
1.442
30
0
0
VERTEX
8
0
10
1.886
20
1.4595736958661418
30
0
0
VERTEX
8
0
10
1.886
20
1.465
30
0
0
VERTEX
8
0
10
2.3708577755905513
20
1.465
30
0
0
VERTEX
8
0
10
2.490294783464567
20
1.3455629921259842
30
0
0
VERTEX
8
0
10
2.4908639271653543
20
1.3427017716535432
30
0
42
0.3303552833504715
0
VERTEX
8
0
10
2.5185262057086613
20
1.32
30
0
0
VERTEX
8
0
10
2.5814737942913384
20
1.32
30
0
0
SEQEND
0
POLYLINE
66
1
8
16_copper
10
0.0
20
0.0
30
0.0
70
1
0
VERTEX
8
0
10
1.886
20
1.4595736958661418
30
0
0
VERTEX
8
0
10
1.886
20
1.4844263041338583
30
0
0
VERTEX
8
0
10
1.8684263041338582
20
1.502
30
0
0
VERTEX
8
0
10
1.8435736958661417
20
1.502
30
0
0
VERTEX
8
0
10
1.826
20
1.4844263041338583
30
0
0
VERTEX
8
0
10
1.826
20
1.4595736958661418
30
0
0
VERTEX
8
0
10
1.8435736958661417
20
1.442
30
0
0
VERTEX
8
0
10
1.8684263041338582
20
1.442
30
0
0
SEQEND
0
POLYLINE
66
1
8
16_copper
10
0.0
20
0.0
30
0.0
70
1
0
VERTEX
8
0
10
2.5844072342519686
20
1.320288877952756
30
0
42
0.9063472543261978
0
VERTEX
8
0
10
2.5814737942913384
20
1.38
30
0
0
VERTEX
8
0
10
2.5185262057086613
20
1.38
30
0
42
0.9520795017710559
0
VERTEX
8
0
10
2.5185262057086613
20
1.32
30
0
0
VERTEX
8
0
10
2.5814737942913384
20
1.32
30
0
0
SEQEND
0
CIRCLE
8
drills_PTH
10
1.8
20
2.126
30
0
40
0.065
0
CIRCLE
8
drills_PTH
10
1.8
20
0.274
30
0
40
0.065
0
CIRCLE
8
drills_PTH
10
1.744
20
1.635
30
0
40
0.02
0
CIRCLE
8
drills_PTH
10
1.744
20
1.526
30
0
40
0.02
0
CIRCLE
8
drills_PTH
10
1.744
20
1.417
30
0
40
0.02
0
CIRCLE
8
drills_PTH
10
1.744
20
1.309
30
0
40
0.02
0
CIRCLE
8
drills_PTH
10
1.744
20
1.2
30
0
40
0.02
0
CIRCLE
8
drills_PTH
10
1.744
20
1.091
30
0
40
0.02
0
CIRCLE
8
drills_PTH
10
1.744
20
0.983
30
0
40
0.02
0
CIRCLE
8
drills_PTH
10
1.744
20
0.874
30
0
40
0.02
0
CIRCLE
8
drills_PTH
10
1.744
20
0.765
30
0
40
0.02
0
CIRCLE
8
drills_PTH
10
1.744
20
0.657
30
0
40
0.02
0
CIRCLE
8
drills_PTH
10
1.744
20
0.548
30
0
40
0.02
0
CIRCLE
8
drills_PTH
10
1.856
20
1.798
30
0
40
0.02
0
CIRCLE
8
drills_PTH
10
1.856
20
1.689
30
0
40
0.02
0
CIRCLE
8
drills_PTH
10
1.856
20
1.58
30
0
40
0.02
0
CIRCLE
8
drills_PTH
10
1.856
20
1.472
30
0
40
0.02
0
CIRCLE
8
drills_PTH
10
1.856
20
1.363
30
0
40
0.02
0
CIRCLE
8
drills_PTH
10
1.856
20
1.254
30
0
40
0.02
0
CIRCLE
8
drills_PTH
10
1.856
20
1.146
30
0
40
0.02
0
CIRCLE
8
drills_PTH
10
1.856
20
1.037
30
0
40
0.02
0
CIRCLE
8
drills_PTH
10
1.856
20
0.928
30
0
40
0.02
0
CIRCLE
8
drills_PTH
10
1.856
20
0.82
30
0
40
0.02
0
CIRCLE
8
drills_PTH
10
1.856
20
0.711
30
0
40
0.02
0
CIRCLE
8
drills_PTH
10
1.856
20
0.602
30
0
40
0.02
0
CIRCLE
8
drills_PTH
10
1.744
20
1.743
30
0
40
0.02
0
CIRCLE
8
drills_PTH
10
1.744
20
1.852
30
0
40
0.02
0
CIRCLE
8
drills_PTH
10
2.55
20
1.35
30
0
40
0.02
0
CIRCLE
8
drills_PTH
10
2.55
20
1.45
30
0
40
0.02
0
CIRCLE
8
drills_PTH
10
2.55
20
1.55
30
0
40
0.02
0
CIRCLE
8
drills_PTH
10
2.55
20
1.65
30
0
40
0.02
0
CIRCLE
8
drills_PTH
10
0.5
20
0.95
30
0
40
0.02
0
CIRCLE
8
drills_PTH
10
0.5
20
0.85
30
0
40
0.02
0
CIRCLE
8
drills_PTH
10
0.5
20
0.75
30
0
40
0.02
0
CIRCLE
8
drills_PTH
10
0.5
20
0.65
30
0
40
0.02
0
CIRCLE
8
drills_PTH
10
2.3
20
2
30
0
40
0.02
0
CIRCLE
8
drills_PTH
10
1.05
20
1.35
30
0
40
0.02
0
CIRCLE
8
drills_PTH
10
0.985
20
1.55
30
0
40
0.02
0
CIRCLE
8
drills_PTH
10
2.3
20
1.3
30
0
40
0.02
0
CIRCLE
8
drills_PTH
10
1.2
20
2.1
30
0
40
0.01968503937007874
0
CIRCLE
8
drills_PTH
10
1.2
20
2
30
0
40
0.01968503937007874
0
CIRCLE
8
drills_PTH
10
1.2
20
1.9
30
0
40
0.01968503937007874
0
CIRCLE
8
drills_PTH
10
1.2
20
1.8
30
0
40
0.01968503937007874
0
CIRCLE
8
drills_PTH
10
1.2
20
1.7
30
0
40
0.01968503937007874
0
CIRCLE
8
drills_PTH
10
1.2
20
1.6
30
0
40
0.01968503937007874
0
CIRCLE
8
drills_PTH
10
1.2
20
1.5
30
0
40
0.01968503937007874
0
CIRCLE
8
drills_PTH
10
1.2
20
1.4
30
0
40
0.01968503937007874
0
CIRCLE
8
drills_PTH
10
1.2
20
2.2
30
0
40
0.01968503937007874
0
CIRCLE
8
drills_PTH
10
1.2
20
2.3
30
0
40
0.01968503937007874
0
CIRCLE
8
drills_PTH
10
1.2
20
2.4
30
0
40
0.01968503937007874
0
CIRCLE
8
drills_PTH
10
1.2
20
2.5
30
0
40
0.01968503937007874
0
CIRCLE
8
drills_PTH
10
1.2
20
2.6
30
0
40
0.01968503937007874
0
CIRCLE
8
drills_PTH
10
1.2
20
2.7
30
0
40
0.01968503937007874
0
CIRCLE
8
drills_PTH
10
1.2
20
2.8
30
0
40
0.01968503937007874
0
CIRCLE
8
drills_PTH
10
0.4
20
1.8
30
0
40
0.01968503937007874
0
CIRCLE
8
drills_PTH
10
0.4
20
1.9
30
0
40
0.01968503937007874
0
CIRCLE
8
drills_PTH
10
0.4
20
2
30
0
40
0.01968503937007874
0
CIRCLE
8
drills_PTH
10
0.4
20
2.1
30
0
40
0.01968503937007874
0
CIRCLE
8
drills_PTH
10
0.4
20
2.2
30
0
40
0.01968503937007874
0
CIRCLE
8
drills_PTH
10
0.4
20
2.3
30
0
40
0.01968503937007874
0
CIRCLE
8
drills_PTH
10
0.4
20
2.4
30
0
40
0.01968503937007874
0
CIRCLE
8
drills_PTH
10
1.2
20
2.9
30
0
40
0.01968503937007874
0
CIRCLE
8
drills_PTH
10
0.4
20
2.5
30
0
40
0.01968503937007874
0
CIRCLE
8
drills_PTH
10
0.4
20
2.6
30
0
40
0.01968503937007874
0
CIRCLE
8
drills_PTH
10
0.4
20
2.7
30
0
40
0.01968503937007874
0
CIRCLE
8
drills_PTH
10
0.4
20
2.8
30
0
40
0.01968503937007874
0
CIRCLE
8
drills_PTH
10
0.4
20
2.9
30
0
40
0.01968503937007874
0
CIRCLE
8
drills_PTH
10
2.45
20
2.9
30
0
40
0.016
0
CIRCLE
8
drills_PTH
10
0.85
20
2.445
30
0
40
0.016
0
CIRCLE
8
drills_PTH
10
0.85
20
2.945
30
0
40
0.016
0
CIRCLE
8
drills_PTH
10
0.7
20
2.5
30
0
40
0.016
0
CIRCLE
8
drills_PTH
10
0.7
20
3
30
0
40
0.016
0
CIRCLE
8
drills_PTH
10
0.455
20
1.105
30
0
40
0.016
0
CIRCLE
8
drills_PTH
10
0.455
20
1.605
30
0
40
0.016
0
CIRCLE
8
drills_PTH
10
0.7
20
1.795
30
0
40
0.016
0
CIRCLE
8
drills_PTH
10
0.7
20
2.295
30
0
40
0.016
0
CIRCLE
8
drills_PTH
10
2.15
20
0.3
30
0
40
0.016
0
CIRCLE
8
drills_PTH
10
2.15
20
0.5
30
0
40
0.016
0
CIRCLE
8
drills_PTH
10
2.45
20
2.7
30
0
40
0.016
0
CIRCLE
8
drills_PTH
10
1.5
20
1
30
0
40
0.016
0
CIRCLE
8
drills_PTH
10
1.4
20
2.55
30
0
40
0.016
0
CIRCLE
8
drills_PTH
10
1.4
20
2.75
30
0
40
0.016
0
CIRCLE
8
drills_PTH
10
1.5
20
1.2
30
0
40
0.016
0
CIRCLE
8
drills_PTH
10
1.5
20
2.95
30
0
40
0.015748031496062992
0
CIRCLE
8
drills_PTH
10
1.6
20
2.95
30
0
40
0.015748031496062992
0
CIRCLE
8
drills_PTH
10
1.7
20
2.95
30
0
40
0.015748031496062992
0
CIRCLE
8
drills_PTH
10
2.2
20
2.95
30
0
40
0.015748031496062992
0
CIRCLE
8
drills_PTH
10
2.1
20
2.95
30
0
40
0.015748031496062992
0
CIRCLE
8
drills_PTH
10
2
20
2.95
30
0
40
0.015748031496062992
0
CIRCLE
8
drills_PTH
10
1.8
20
2.95
30
0
40
0.015748031496062992
0
CIRCLE
8
drills_PTH
10
1.9
20
2.95
30
0
40
0.015748031496062992
0
CIRCLE
8
drills_PTH
10
1.4
20
0.9
30
0
40
0.015748031496062992
0
CIRCLE
8
drills_PTH
10
1.4
20
0.8
30
0
40
0.015748031496062992
0
CIRCLE
8
drills_PTH
10
1.4
20
0.7
30
0
40
0.015748031496062992
0
CIRCLE
8
drills_PTH
10
1.4
20
0.6
30
0
40
0.015748031496062992
0
CIRCLE
8
drills_PTH
10
1.4
20
0.5
30
0
40
0.015748031496062992
0
CIRCLE
8
drills_PTH
10
1.4
20
0.3
30
0
40
0.015748031496062992
0
CIRCLE
8
drills_PTH
10
1.4
20
0.2
30
0
40
0.015748031496062992
0
CIRCLE
8
drills_PTH
10
0.9
20
0.2
30
0
40
0.015748031496062992
0
CIRCLE
8
drills_PTH
10
0.9
20
0.3
30
0
40
0.015748031496062992
0
CIRCLE
8
drills_PTH
10
0.9
20
0.4
30
0
40
0.015748031496062992
0
CIRCLE
8
drills_PTH
10
0.9
20
0.5
30
0
40
0.015748031496062992
0
CIRCLE
8
drills_PTH
10
0.9
20
0.6
30
0
40
0.015748031496062992
0
CIRCLE
8
drills_PTH
10
0.9
20
0.7
30
0
40
0.015748031496062992
0
CIRCLE
8
drills_PTH
10
0.9
20
0.8
30
0
40
0.015748031496062992
0
CIRCLE
8
drills_PTH
10
0.9
20
0.9
30
0
40
0.015748031496062992
0
CIRCLE
8
drills_PTH
10
2.35
20
0.35
30
0
40
0.015748031496062992
0
CIRCLE
8
drills_PTH
10
2.35
20
0.45
30
0
40
0.015748031496062992
0
CIRCLE
8
drills_PTH
10
2.35
20
0.55
30
0
40
0.015748031496062992
0
CIRCLE
8
drills_PTH
10
2.35
20
0.65
30
0
40
0.015748031496062992
0
CIRCLE
8
drills_PTH
10
2.35
20
0.75
30
0
40
0.015748031496062992
0
CIRCLE
8
drills_PTH
10
2.35
20
0.85
30
0
40
0.015748031496062992
0
CIRCLE
8
drills_PTH
10
2.35
20
0.95
30
0
40
0.015748031496062992
0
CIRCLE
8
drills_PTH
10
2.35
20
1.05
30
0
40
0.015748031496062992
0
CIRCLE
8
drills_PTH
10
2.85
20
1.05
30
0
40
0.015748031496062992
0
CIRCLE
8
drills_PTH
10
2.85
20
0.95
30
0
40
0.015748031496062992
0
CIRCLE
8
drills_PTH
10
2.85
20
0.85
30
0
40
0.015748031496062992
0
CIRCLE
8
drills_PTH
10
2.85
20
0.75
30
0
40
0.015748031496062992
0
CIRCLE
8
drills_PTH
10
2.85
20
0.65
30
0
40
0.015748031496062992
0
CIRCLE
8
drills_PTH
10
2.85
20
0.55
30
0
40
0.015748031496062992
0
CIRCLE
8
drills_PTH
10
2.85
20
0.45
30
0
40
0.015748031496062992
0
CIRCLE
8
drills_PTH
10
2.85
20
0.35
30
0
40
0.015748031496062992
0
CIRCLE
8
drills_PTH
10
1.4
20
0.4
30
0
40
0.015748031496062992
0
ENDSEC
0
EOF