G04 EAGLE Gerber RS-274X export*
G75*
%MOIN*%
%FSLAX34Y34*%
%LPD*%
%INBottom Copper*%
%IPPOS*%
%AMOC8*
5,1,8,0,0,1.08239X$1,22.5*%
G01*
%ADD10P,0.064943X8X112.500000*%
%ADD11C,0.200000*%
%ADD12C,0.060000*%
%ADD13P,0.064262X8X22.500000*%
%ADD14P,0.064262X8X112.500000*%
%ADD15C,0.051496*%
%ADD16C,0.070000*%
%ADD17C,0.070000*%
%ADD18P,0.056284X8X112.500000*%
%ADD19P,0.056284X8X292.500000*%
%ADD20C,0.020000*%


D10*
X15060Y17020D03*
X15060Y15930D03*
X15060Y14850D03*
X15060Y13760D03*
X15060Y12670D03*
X15060Y11590D03*
X15060Y10500D03*
X15060Y9410D03*
X15060Y8330D03*
X15060Y7240D03*
X15060Y6150D03*
X15060Y5070D03*
X15060Y3980D03*
X13940Y16480D03*
X13940Y15390D03*
X13940Y14300D03*
X13940Y13220D03*
X13940Y12130D03*
X13940Y11040D03*
X13940Y9960D03*
X13940Y8870D03*
X13940Y7780D03*
X13940Y6700D03*
X13940Y5610D03*
X13940Y4520D03*
D11*
X14500Y1240D03*
X14500Y19760D03*
D12*
X7300Y12000D02*
X6700Y12000D01*
X6700Y13000D02*
X7300Y13000D01*
X7300Y14000D02*
X6700Y14000D01*
X6700Y15000D02*
X7300Y15000D01*
X27200Y8000D02*
X27800Y8000D01*
X27800Y7000D02*
X27200Y7000D01*
X27200Y6000D02*
X27800Y6000D01*
X27800Y5000D02*
X27200Y5000D01*
D13*
X22000Y13000D03*
D14*
X10500Y16500D03*
D15*
X4257Y2000D02*
X3743Y2000D01*
X3743Y3000D02*
X4257Y3000D01*
X4257Y4000D02*
X3743Y4000D01*
X3743Y5000D02*
X4257Y5000D01*
X4257Y6000D02*
X3743Y6000D01*
X3743Y7000D02*
X4257Y7000D01*
X4257Y8000D02*
X3743Y8000D01*
X3743Y9000D02*
X4257Y9000D01*
X8743Y9000D02*
X9257Y9000D01*
X9257Y8000D02*
X8743Y8000D01*
X8743Y7000D02*
X9257Y7000D01*
X9257Y6000D02*
X8743Y6000D01*
X8743Y5000D02*
X9257Y5000D01*
X9257Y4000D02*
X8743Y4000D01*
X8743Y3000D02*
X9257Y3000D01*
X9257Y2000D02*
X8743Y2000D01*
X23243Y8500D02*
X23757Y8500D01*
X23757Y7500D02*
X23243Y7500D01*
X23243Y6500D02*
X23757Y6500D01*
X23757Y5500D02*
X23243Y5500D01*
X23243Y4500D02*
X23757Y4500D01*
X23757Y3500D02*
X23243Y3500D01*
X23243Y2500D02*
X23757Y2500D01*
X23757Y1500D02*
X23243Y1500D01*
X18757Y1500D02*
X18243Y1500D01*
X18243Y2500D02*
X18757Y2500D01*
X18757Y3500D02*
X18243Y3500D01*
X18243Y4500D02*
X18757Y4500D01*
X18757Y5500D02*
X18243Y5500D01*
X18243Y6500D02*
X18757Y6500D01*
X18757Y7500D02*
X18243Y7500D01*
X18243Y8500D02*
X18757Y8500D01*
D16*
X13500Y27650D02*
X13500Y28350D01*
X14500Y28350D02*
X14500Y27650D01*
X12500Y27650D02*
X12500Y28350D01*
X11500Y28350D02*
X11500Y27650D01*
X10500Y27650D02*
X10500Y28350D01*
X15500Y28350D02*
X15500Y27650D01*
X16500Y27650D02*
X16500Y28350D01*
X17500Y28350D02*
X17500Y27650D01*
D17*
X20500Y12500D03*
X20500Y13500D03*
X20500Y14500D03*
X20500Y15500D03*
X20500Y16500D03*
X20500Y17500D03*
X20500Y18500D03*
X20500Y19500D03*
X20500Y20500D03*
X20500Y21500D03*
X20500Y22500D03*
X20500Y23500D03*
X20500Y24500D03*
X20500Y25500D03*
X20500Y26500D03*
X20500Y27500D03*
X28500Y27500D03*
X28500Y26500D03*
X28500Y25500D03*
X28500Y24500D03*
X28500Y23500D03*
X28500Y22500D03*
X28500Y21500D03*
X28500Y20500D03*
X28500Y19500D03*
X28500Y18500D03*
X28500Y17500D03*
X28500Y16500D03*
D18*
X23000Y23500D03*
X23000Y28500D03*
X24500Y23500D03*
X24500Y28500D03*
X27500Y9500D03*
X27500Y14500D03*
X26000Y10500D03*
X26000Y15500D03*
X11000Y1500D03*
X11000Y3500D03*
D19*
X17500Y11500D03*
X17500Y9500D03*
D18*
X19000Y23500D03*
X19000Y25500D03*
X8000Y26000D03*
X8000Y28000D03*
D20*
X13940Y5610D02*
X11830Y3500D01*
X11000Y3500D01*
X10000Y3500D01*
X9500Y3000D01*
X9000Y3000D01*
X11000Y1580D02*
X13940Y4520D01*
X11000Y1580D02*
X11000Y1500D01*
X9500Y1500D01*
X9000Y2000D01*
X4000Y6000D02*
X4000Y7000D01*
X23500Y4500D02*
X23500Y3500D01*
X26500Y16500D02*
X26500Y27500D01*
X28500Y27500D01*
X26500Y9000D02*
X27500Y8000D01*
X26000Y10500D02*
X28500Y13000D01*
X28500Y14500D01*
X26500Y16500D01*
X26500Y10000D02*
X26500Y9000D01*
X26500Y10000D02*
X26000Y10500D01*
X28500Y25500D02*
X30000Y25500D01*
X30000Y4000D01*
X27500Y1500D01*
X23500Y1500D01*
X28500Y24500D02*
X29500Y24500D01*
X29500Y4500D01*
X27500Y2500D02*
X23500Y2500D01*
X27500Y2500D02*
X29500Y4500D01*
X22000Y13000D02*
X21000Y13000D01*
X20500Y12500D01*
X17500Y8000D02*
X18000Y7500D01*
X18500Y7500D02*
X19500Y7500D01*
X19500Y10500D01*
X17500Y12500D01*
X17060Y12500D02*
X15060Y10500D01*
X17060Y12500D02*
X17500Y12500D01*
X18000Y7500D02*
X18500Y7500D01*
X17500Y8000D02*
X17500Y9500D01*
X13940Y6700D02*
X11870Y4630D01*
X9500Y4000D02*
X9000Y4000D01*
X9500Y4000D02*
X10130Y4630D01*
X11870Y4630D01*
X11580Y5420D02*
X13940Y7780D01*
X11580Y5420D02*
X9920Y5420D01*
X9500Y5000D01*
X9000Y5000D01*
X11070Y6000D02*
X13940Y8870D01*
X11070Y6000D02*
X9000Y6000D01*
X10980Y7000D02*
X13940Y9960D01*
X10980Y7000D02*
X9000Y7000D01*
X15060Y3980D02*
X15080Y4000D01*
X15060Y3980D02*
X15540Y3500D01*
X18500Y3500D01*
X15130Y5000D02*
X15060Y5070D01*
X15630Y4500D01*
X18500Y4500D01*
X15210Y6000D02*
X15060Y6150D01*
X15350Y6150D01*
X16000Y5500D01*
X18500Y5500D01*
X15800Y6500D02*
X15060Y7240D01*
X15800Y6500D02*
X18500Y6500D01*
X13940Y14300D02*
X9254Y14300D01*
X8554Y15000D01*
X7000Y15000D01*
X8790Y13220D02*
X13940Y13220D01*
X8790Y13220D02*
X8010Y14000D01*
X7000Y14000D01*
X8191Y12130D02*
X13940Y12130D01*
X8191Y12130D02*
X7321Y13000D01*
X7000Y13000D01*
X7703Y11040D02*
X13940Y11040D01*
X7703Y11040D02*
X7000Y11743D01*
X7000Y12000D01*
X30500Y3500D02*
X30500Y27167D01*
X11500Y28000D02*
X11500Y29500D01*
X19500Y26071D02*
X19500Y16500D01*
X20500Y15500D01*
X19000Y26071D02*
X12000Y26071D01*
X19000Y26071D02*
X19500Y26071D01*
X5000Y9000D02*
X5000Y1000D01*
X20500Y15500D02*
X23000Y13000D01*
X23000Y11500D01*
X2500Y19000D02*
X2500Y1500D01*
X5500Y22000D02*
X18500Y22000D01*
X27000Y29500D02*
X30500Y27167D01*
X16500Y29500D02*
X11500Y29500D01*
X16500Y29500D02*
X27000Y29500D01*
X12000Y26071D02*
X11500Y26714D01*
X20500Y11500D02*
X23000Y11500D01*
X18500Y14500D02*
X18500Y22000D01*
X21000Y500D02*
X27500Y500D01*
X21000Y500D02*
X19500Y500D01*
X18500Y1500D01*
X27500Y500D02*
X30500Y3500D01*
X5000Y1000D02*
X3250Y1000D01*
X2500Y1500D01*
X25000Y5000D02*
X27500Y5000D01*
X25000Y5000D02*
X25000Y9000D01*
X21000Y9000D01*
X21000Y500D01*
X16500Y28000D02*
X16500Y29500D01*
X9500Y29500D02*
X8000Y28000D01*
X9500Y29500D02*
X11500Y29500D01*
X11500Y28000D02*
X11500Y26714D01*
X9000Y9000D02*
X5000Y9000D01*
X2500Y19000D02*
X5500Y22000D01*
X19000Y25500D02*
X19000Y26071D01*
X20000Y12000D02*
X20500Y11500D01*
X20000Y12000D02*
X19000Y13600D01*
X19000Y14000D01*
X18500Y14500D01*
X2000Y20000D02*
X2000Y1125D01*
X19000Y15000D02*
X20500Y13500D01*
X19000Y15000D02*
X19000Y22500D01*
X9000Y8000D02*
X6500Y8000D01*
X6500Y500D02*
X2833Y500D01*
X8000Y22500D02*
X19000Y22500D01*
X8000Y22500D02*
X4500Y22500D01*
X2000Y1125D02*
X2833Y500D01*
X6500Y500D02*
X6500Y8000D01*
X6500Y500D02*
X11500Y500D01*
X25500Y6000D02*
X27500Y6000D01*
X25500Y6000D02*
X25500Y9500D01*
X20500Y9500D01*
X20500Y2500D01*
X18500Y2500D01*
X9500Y27000D02*
X10500Y28000D01*
X19000Y23500D02*
X19000Y22500D01*
X18500Y2500D02*
X13500Y2500D01*
X11500Y500D01*
X25000Y10500D02*
X25000Y15500D01*
X25000Y23000D01*
X24500Y23500D01*
X23000Y23500D01*
X26500Y15500D02*
X27500Y14500D01*
X26500Y15500D02*
X26000Y15500D01*
X25000Y15500D01*
X25000Y10500D02*
X25500Y10000D01*
X4500Y22500D02*
X2000Y20000D01*
X8000Y26000D02*
X9500Y27000D01*
X8000Y26000D02*
X8000Y22500D01*
X25500Y10000D02*
X25500Y9500D01*
X15060Y17020D02*
X14480Y17020D01*
X14000Y17500D01*
X11500Y17500D02*
X10500Y16500D01*
X11500Y17500D02*
X14000Y17500D01*
X4000Y8000D02*
X3000Y8000D01*
X3000Y18000D01*
X6500Y21500D02*
X18000Y21500D01*
X18000Y14400D01*
X23500Y13500D02*
X23500Y11000D01*
X20500Y11000D01*
X19500Y12000D01*
X18000Y14400D01*
X20500Y16500D02*
X23500Y13500D01*
X6500Y21500D02*
X3000Y18000D01*
X24000Y14000D02*
X24000Y10500D01*
X4000Y9000D02*
X4000Y16864D01*
X17500Y18000D02*
X17500Y13800D01*
X20500Y10500D02*
X24000Y10500D01*
X20500Y10500D02*
X19000Y12000D01*
X17500Y13800D01*
X17500Y18000D02*
X5250Y18000D01*
X4864Y17649D01*
X4000Y16864D01*
X20500Y17500D02*
X24000Y14000D01*
X15590Y11590D02*
X15060Y11590D01*
X15590Y11590D02*
X17000Y13000D01*
X20500Y10000D02*
X24500Y10000D01*
X24500Y20500D01*
X20500Y20500D01*
X17500Y13000D02*
X20500Y10000D01*
X17500Y13000D02*
X17000Y13000D01*
X27000Y7000D02*
X27500Y7000D01*
X27500Y26500D02*
X28500Y26500D01*
X28500Y7000D02*
X27500Y7000D01*
X27500Y16500D02*
X27500Y26500D01*
X27500Y9500D02*
X28500Y8500D01*
X28500Y7000D01*
X27500Y10000D02*
X29000Y11500D01*
X29000Y15000D01*
X27500Y16500D01*
X27500Y10000D02*
X27500Y9500D01*
X18500Y10500D02*
X18500Y8500D01*
X17150Y11500D02*
X15060Y9410D01*
X17500Y11500D02*
X18500Y10500D01*
X17500Y11500D02*
X17150Y11500D01*
X12500Y27000D02*
X12500Y28000D01*
X12500Y27000D02*
X13000Y26500D01*
X19500Y26500D01*
X19500Y28500D01*
X20500Y22500D02*
X21500Y22500D01*
X21500Y25500D02*
X23000Y27000D01*
X21500Y25500D02*
X21500Y22500D01*
X23000Y27000D02*
X23000Y28500D01*
X19500Y28500D01*
X19000Y29000D02*
X24000Y29000D01*
X18500Y28500D02*
X18500Y27000D01*
X14000Y27000D01*
X13500Y27500D01*
X13500Y28000D01*
X18500Y28500D02*
X19000Y29000D01*
X20500Y21500D02*
X22000Y21500D01*
X24500Y28500D02*
X24000Y29000D01*
X24500Y28500D02*
X24500Y26500D01*
X22000Y24000D01*
X22000Y21500D01*
M02*
