0
SECTION
2
HEADER
9
$ANGDIR
70
1
9
$AUNITS
70
0
9
$PROJECTNAME
1
plu
9
$TDCREATE
40
2458651.45444024
9
$INSUNITS
70
4
0
ENDSEC
0
SECTION
2
ENTITIES
0
POLYLINE
66
1
8
outline
10
0.0
20
0.0
30
0.0
70
1
0
VERTEX
8
0
10
-5.08
20
5.715
30
0
0
VERTEX
8
0
10
-5.00049375
20
5.163978125
30
0
0
VERTEX
8
0
10
-4.8732625
20
4.62198125
30
0
0
VERTEX
8
0
10
-4.69928125
20
4.0931375
30
0
0
VERTEX
8
0
10
-4.479865625
20
3.58146875
30
0
0
VERTEX
8
0
10
-4.21669375
20
3.0908687500000003
30
0
0
VERTEX
8
0
10
-3.9117625
20
2.6250750000000003
30
0
0
VERTEX
8
0
10
-3.567396875
20
2.1876281250000003
30
0
0
VERTEX
8
0
10
-3.186215625
20
1.7818625000000001
30
0
0
VERTEX
8
0
10
-2.7711187500000003
20
1.410859375
30
0
0
VERTEX
8
0
10
-2.325265625
20
1.07745
30
0
0
VERTEX
8
0
10
-1.852053125
20
0.7841656250000001
30
0
0
VERTEX
8
0
10
-1.3550781250000001
20
0.533240625
30
0
0
VERTEX
8
0
10
-0.838125
20
0.32658437500000004
30
0
0
VERTEX
8
0
10
-0.30512812500000003
20
0.16576875000000002
30
0
0
VERTEX
8
0
10
0.23985625000000002
20
0.052021875
30
0
0
VERTEX
8
0
10
0.79268125
20
-0.013796875
30
0
0
VERTEX
8
0
10
1.3491375
20
-0.03118125
30
0
0
VERTEX
8
0
10
1.905
20
0
30
0
0
VERTEX
8
0
10
86.995
20
0
30
0
0
VERTEX
8
0
10
87.55085625000001
20
-0.03118125
30
0
0
VERTEX
8
0
10
88.1073125
20
-0.013796875
30
0
0
VERTEX
8
0
10
88.6601375
20
0.052021875
30
0
0
VERTEX
8
0
10
89.205121875
20
0.16576875000000002
30
0
0
VERTEX
8
0
10
89.73811875
20
0.32658125
30
0
0
VERTEX
8
0
10
90.255071875
20
0.5332375
30
0
0
VERTEX
8
0
10
90.752046875
20
0.7841625
30
0
0
VERTEX
8
0
10
91.2252625
20
1.0774468750000001
30
0
0
VERTEX
8
0
10
91.6711125
20
1.410859375
30
0
0
VERTEX
8
0
10
92.08620937500001
20
1.781859375
30
0
0
VERTEX
8
0
10
92.46739062500001
20
2.1876281250000003
30
0
0
VERTEX
8
0
10
92.81175937500001
20
2.625071875
30
0
0
VERTEX
8
0
10
93.1166875
20
3.090865625
30
0
0
VERTEX
8
0
10
93.3798625
20
3.5814656250000003
30
0
0
VERTEX
8
0
10
93.599275
20
4.093134375
30
0
0
VERTEX
8
0
10
93.77325937500001
20
4.621978125
30
0
0
VERTEX
8
0
10
93.900490625
20
5.163975000000001
30
0
0
VERTEX
8
0
10
93.98
20
5.715
30
0
0
VERTEX
8
0
10
93.98
20
90.29700000000001
30
0
0
VERTEX
8
0
10
93.95631875000001
20
90.83936875
30
0
0
VERTEX
8
0
10
93.88545937500001
20
91.3776125
30
0
0
VERTEX
8
0
10
93.76795625
20
91.90763125000001
30
0
0
VERTEX
8
0
10
93.60470625
20
92.425390625
30
0
0
VERTEX
8
0
10
93.39695312500001
20
92.92695312500001
30
0
0
VERTEX
8
0
10
93.146275
20
93.4085
30
0
0
VERTEX
8
0
10
92.854584375
20
93.866365625
30
0
0
VERTEX
8
0
10
92.52409375
20
94.29706875000001
30
0
0
VERTEX
8
0
10
92.157325
20
94.697325
30
0
0
VERTEX
8
0
10
91.75706875
20
95.06409375
30
0
0
VERTEX
8
0
10
91.32636562500001
20
95.39458437500001
30
0
0
VERTEX
8
0
10
90.8685
20
95.68627500000001
30
0
0
VERTEX
8
0
10
90.386953125
20
95.936953125
30
0
0
VERTEX
8
0
10
89.885390625
20
96.14470625
30
0
0
VERTEX
8
0
10
89.36763125
20
96.30795625
30
0
0
VERTEX
8
0
10
88.8376125
20
96.425459375
30
0
0
VERTEX
8
0
10
88.29936875
20
96.49631875
30
0
0
VERTEX
8
0
10
87.757
20
96.52000000000001
30
0
0
VERTEX
8
0
10
2.6670000000000003
20
96.52000000000001
30
0
0
VERTEX
8
0
10
2.05531875
20
96.55983437500001
30
0
0
VERTEX
8
0
10
1.442490625
20
96.546203125
30
0
0
VERTEX
8
0
10
0.8331843750000001
20
96.4792125
30
0
0
VERTEX
8
0
10
0.23203437500000001
20
96.35937187500001
30
0
0
VERTEX
8
0
10
-0.35638125000000004
20
96.18759687500001
30
0
0
VERTEX
8
0
10
-0.9275875
20
95.9651875
30
0
0
VERTEX
8
0
10
-1.4772375
20
95.69384375
30
0
0
VERTEX
8
0
10
-2.001146875
20
95.375628125
30
0
0
VERTEX
8
0
10
-2.4953250000000002
20
95.01295937500001
30
0
0
VERTEX
8
0
10
-2.95601875
20
94.60860000000001
30
0
0
VERTEX
8
0
10
-3.3797125
20
94.165628125
30
0
0
VERTEX
8
0
10
-3.7631875000000004
20
93.687415625
30
0
0
VERTEX
8
0
10
-4.103528125
20
93.177596875
30
0
0
VERTEX
8
0
10
-4.398134375000001
20
92.640059375
30
0
0
VERTEX
8
0
10
-4.644775
20
92.078890625
30
0
0
VERTEX
8
0
10
-4.841565625
20
91.498359375
30
0
0
VERTEX
8
0
10
-4.987009375
20
90.9028875
30
0
0
VERTEX
8
0
10
-5.08
20
90.29700000000001
30
0
0
VERTEX
8
0
10
-5.08
20
5.715
30
0
0
SEQEND
0
POLYLINE
66
1
8
holes
10
0.0
20
0.0
30
0.0
70
1
0
VERTEX
8
0
10
89.05250000000001
20
89.61119375
30
0
0
VERTEX
8
0
10
89.04525000000001
20
89.50984375
30
0
0
VERTEX
8
0
10
89.03079062500001
20
89.40926875000001
30
0
0
VERTEX
8
0
10
89.009190625
20
89.30998125
30
0
0
VERTEX
8
0
10
88.98056562500001
20
89.21248750000001
30
0
0
VERTEX
8
0
10
88.94505625000001
20
89.11728437500001
30
0
0
VERTEX
8
0
10
88.90284687500001
20
89.024859375
30
0
0
VERTEX
8
0
10
88.85415
20
88.93567812500001
30
0
0
VERTEX
8
0
10
88.799215625
20
88.8502
30
0
0
VERTEX
8
0
10
88.738325
20
88.76885625
30
0
0
VERTEX
8
0
10
88.671784375
20
88.692065625
30
0
0
VERTEX
8
0
10
88.599934375
20
88.620215625
30
0
0
VERTEX
8
0
10
88.52314375
20
88.553675
30
0
0
VERTEX
8
0
10
88.4418
20
88.492784375
30
0
0
VERTEX
8
0
10
88.356321875
20
88.43785
30
0
0
VERTEX
8
0
10
88.26714062500001
20
88.389153125
30
0
0
VERTEX
8
0
10
88.174715625
20
88.34694375000001
30
0
0
VERTEX
8
0
10
88.0795125
20
88.311434375
30
0
0
VERTEX
8
0
10
87.98201875000001
20
88.282809375
30
0
0
VERTEX
8
0
10
87.88273125
20
88.261209375
30
0
0
VERTEX
8
0
10
87.78215625
20
88.24675
30
0
0
VERTEX
8
0
10
87.68080625
20
88.2395
30
0
0
VERTEX
8
0
10
87.57919375
20
88.2395
30
0
0
VERTEX
8
0
10
87.47784375
20
88.24675
30
0
0
VERTEX
8
0
10
87.37726875
20
88.261209375
30
0
0
VERTEX
8
0
10
87.27798125000001
20
88.282809375
30
0
0
VERTEX
8
0
10
87.1804875
20
88.311434375
30
0
0
VERTEX
8
0
10
87.085284375
20
88.34694375000001
30
0
0
VERTEX
8
0
10
86.99285937500001
20
88.389153125
30
0
0
VERTEX
8
0
10
86.903678125
20
88.43785
30
0
0
VERTEX
8
0
10
86.8182
20
88.492784375
30
0
0
VERTEX
8
0
10
86.73685625
20
88.553675
30
0
0
VERTEX
8
0
10
86.660065625
20
88.620215625
30
0
0
VERTEX
8
0
10
86.588215625
20
88.692065625
30
0
0
VERTEX
8
0
10
86.521675
20
88.76885625
30
0
0
VERTEX
8
0
10
86.460784375
20
88.8502
30
0
0
VERTEX
8
0
10
86.40585
20
88.93567812500001
30
0
0
VERTEX
8
0
10
86.35715312500001
20
89.024859375
30
0
0
VERTEX
8
0
10
86.31494375
20
89.11728437500001
30
0
0
VERTEX
8
0
10
86.27943437500001
20
89.21248750000001
30
0
0
VERTEX
8
0
10
86.250809375
20
89.30998125
30
0
0
VERTEX
8
0
10
86.22920937500001
20
89.40926875000001
30
0
0
VERTEX
8
0
10
86.21475000000001
20
89.50984375
30
0
0
VERTEX
8
0
10
86.20750000000001
20
89.61119375
30
0
0
VERTEX
8
0
10
86.20750000000001
20
89.71280625
30
0
0
VERTEX
8
0
10
86.21475000000001
20
89.81415625000001
30
0
0
VERTEX
8
0
10
86.22920937500001
20
89.91473125
30
0
0
VERTEX
8
0
10
86.250809375
20
90.01401875
30
0
0
VERTEX
8
0
10
86.27943437500001
20
90.1115125
30
0
0
VERTEX
8
0
10
86.31494375
20
90.206715625
30
0
0
VERTEX
8
0
10
86.35715312500001
20
90.299140625
30
0
0
VERTEX
8
0
10
86.40585
20
90.388321875
30
0
0
VERTEX
8
0
10
86.460784375
20
90.47380000000001
30
0
0
VERTEX
8
0
10
86.521675
20
90.55514375
30
0
0
VERTEX
8
0
10
86.588215625
20
90.631934375
30
0
0
VERTEX
8
0
10
86.660065625
20
90.703784375
30
0
0
VERTEX
8
0
10
86.73685625
20
90.770325
30
0
0
VERTEX
8
0
10
86.8182
20
90.831215625
30
0
0
VERTEX
8
0
10
86.903678125
20
90.88615
30
0
0
VERTEX
8
0
10
86.99285937500001
20
90.934846875
30
0
0
VERTEX
8
0
10
87.085284375
20
90.97705625
30
0
0
VERTEX
8
0
10
87.1804875
20
91.01256562500001
30
0
0
VERTEX
8
0
10
87.27798125000001
20
91.041190625
30
0
0
VERTEX
8
0
10
87.37726875
20
91.062790625
30
0
0
VERTEX
8
0
10
87.47784375
20
91.07725
30
0
0
VERTEX
8
0
10
87.57919375
20
91.0845
30
0
0
VERTEX
8
0
10
87.68080625
20
91.0845
30
0
0
VERTEX
8
0
10
87.78215625
20
91.07725
30
0
0
VERTEX
8
0
10
87.88273125
20
91.062790625
30
0
0
VERTEX
8
0
10
87.98201875000001
20
91.041190625
30
0
0
VERTEX
8
0
10
88.0795125
20
91.01256562500001
30
0
0
VERTEX
8
0
10
88.174715625
20
90.97705625
30
0
0
VERTEX
8
0
10
88.26714062500001
20
90.934846875
30
0
0
VERTEX
8
0
10
88.356321875
20
90.88615
30
0
0
VERTEX
8
0
10
88.4418
20
90.831215625
30
0
0
VERTEX
8
0
10
88.52314375
20
90.770325
30
0
0
VERTEX
8
0
10
88.599934375
20
90.703784375
30
0
0
VERTEX
8
0
10
88.671784375
20
90.631934375
30
0
0
VERTEX
8
0
10
88.738325
20
90.55514375
30
0
0
VERTEX
8
0
10
88.799215625
20
90.47380000000001
30
0
0
VERTEX
8
0
10
88.85415
20
90.388321875
30
0
0
VERTEX
8
0
10
88.90284687500001
20
90.299140625
30
0
0
VERTEX
8
0
10
88.94505625000001
20
90.206715625
30
0
0
VERTEX
8
0
10
88.98056562500001
20
90.1115125
30
0
0
VERTEX
8
0
10
89.009190625
20
90.01401875
30
0
0
VERTEX
8
0
10
89.03079062500001
20
89.91473125
30
0
0
VERTEX
8
0
10
89.04525000000001
20
89.81415625000001
30
0
0
VERTEX
8
0
10
89.05250000000001
20
89.71280625
30
0
0
VERTEX
8
0
10
89.05250000000001
20
89.61119375
30
0
0
SEQEND
0
POLYLINE
66
1
8
holes
10
0.0
20
0.0
30
0.0
70
1
0
VERTEX
8
0
10
0.1525
20
22.809193750000002
30
0
0
VERTEX
8
0
10
0.14525000000000002
20
22.707843750000002
30
0
0
VERTEX
8
0
10
0.130790625
20
22.60726875
30
0
0
VERTEX
8
0
10
0.109190625
20
22.50798125
30
0
0
VERTEX
8
0
10
0.080565625
20
22.410487500000002
30
0
0
VERTEX
8
0
10
0.04505625
20
22.315284375
30
0
0
VERTEX
8
0
10
0.002846875
20
22.222859375000002
30
0
0
VERTEX
8
0
10
-0.04585
20
22.133678125
30
0
0
VERTEX
8
0
10
-0.10078437500000001
20
22.0482
30
0
0
VERTEX
8
0
10
-0.161675
20
21.96685625
30
0
0
VERTEX
8
0
10
-0.228215625
20
21.890065625000002
30
0
0
VERTEX
8
0
10
-0.300065625
20
21.818215625
30
0
0
VERTEX
8
0
10
-0.37685625
20
21.751675000000002
30
0
0
VERTEX
8
0
10
-0.4582
20
21.690784375
30
0
0
VERTEX
8
0
10
-0.543678125
20
21.63585
30
0
0
VERTEX
8
0
10
-0.632859375
20
21.587153125
30
0
0
VERTEX
8
0
10
-0.725284375
20
21.54494375
30
0
0
VERTEX
8
0
10
-0.8204875
20
21.509434375
30
0
0
VERTEX
8
0
10
-0.9179812500000001
20
21.480809375
30
0
0
VERTEX
8
0
10
-1.01726875
20
21.459209375
30
0
0
VERTEX
8
0
10
-1.11784375
20
21.444750000000003
30
0
0
VERTEX
8
0
10
-1.21919375
20
21.4375
30
0
0
VERTEX
8
0
10
-1.32080625
20
21.4375
30
0
0
VERTEX
8
0
10
-1.42215625
20
21.444750000000003
30
0
0
VERTEX
8
0
10
-1.52273125
20
21.459209375
30
0
0
VERTEX
8
0
10
-1.62201875
20
21.480809375
30
0
0
VERTEX
8
0
10
-1.7195125
20
21.509434375
30
0
0
VERTEX
8
0
10
-1.814715625
20
21.54494375
30
0
0
VERTEX
8
0
10
-1.907140625
20
21.587153125
30
0
0
VERTEX
8
0
10
-1.996321875
20
21.63585
30
0
0
VERTEX
8
0
10
-2.0818000000000003
20
21.690784375
30
0
0
VERTEX
8
0
10
-2.16314375
20
21.751675000000002
30
0
0
VERTEX
8
0
10
-2.2399343750000003
20
21.818215625
30
0
0
VERTEX
8
0
10
-2.3117843750000002
20
21.890065625000002
30
0
0
VERTEX
8
0
10
-2.3783250000000002
20
21.96685625
30
0
0
VERTEX
8
0
10
-2.439215625
20
22.0482
30
0
0
VERTEX
8
0
10
-2.4941500000000003
20
22.133678125
30
0
0
VERTEX
8
0
10
-2.542846875
20
22.222859375000002
30
0
0
VERTEX
8
0
10
-2.58505625
20
22.315284375
30
0
0
VERTEX
8
0
10
-2.6205656250000002
20
22.410487500000002
30
0
0
VERTEX
8
0
10
-2.649190625
20
22.50798125
30
0
0
VERTEX
8
0
10
-2.670790625
20
22.60726875
30
0
0
VERTEX
8
0
10
-2.68525
20
22.707843750000002
30
0
0
VERTEX
8
0
10
-2.6925000000000003
20
22.809193750000002
30
0
0
VERTEX
8
0
10
-2.6925000000000003
20
22.91080625
30
0
0
VERTEX
8
0
10
-2.68525
20
23.01215625
30
0
0
VERTEX
8
0
10
-2.670790625
20
23.11273125
30
0
0
VERTEX
8
0
10
-2.649190625
20
23.212018750000002
30
0
0
VERTEX
8
0
10
-2.6205656250000002
20
23.3095125
30
0
0
VERTEX
8
0
10
-2.58505625
20
23.404715625
30
0
0
VERTEX
8
0
10
-2.542846875
20
23.497140625
30
0
0
VERTEX
8
0
10
-2.4941500000000003
20
23.586321875
30
0
0
VERTEX
8
0
10
-2.439215625
20
23.6718
30
0
0
VERTEX
8
0
10
-2.3783250000000002
20
23.75314375
30
0
0
VERTEX
8
0
10
-2.3117843750000002
20
23.829934375
30
0
0
VERTEX
8
0
10
-2.2399343750000003
20
23.901784375000002
30
0
0
VERTEX
8
0
10
-2.16314375
20
23.968325
30
0
0
VERTEX
8
0
10
-2.0818000000000003
20
24.029215625000003
30
0
0
VERTEX
8
0
10
-1.996321875
20
24.08415
30
0
0
VERTEX
8
0
10
-1.907140625
20
24.132846875000002
30
0
0
VERTEX
8
0
10
-1.814715625
20
24.17505625
30
0
0
VERTEX
8
0
10
-1.7195125
20
24.210565625
30
0
0
VERTEX
8
0
10
-1.62201875
20
24.239190625000003
30
0
0
VERTEX
8
0
10
-1.52273125
20
24.260790625000002
30
0
0
VERTEX
8
0
10
-1.42215625
20
24.27525
30
0
0
VERTEX
8
0
10
-1.32080625
20
24.282500000000002
30
0
0
VERTEX
8
0
10
-1.21919375
20
24.282500000000002
30
0
0
VERTEX
8
0
10
-1.11784375
20
24.27525
30
0
0
VERTEX
8
0
10
-1.01726875
20
24.260790625000002
30
0
0
VERTEX
8
0
10
-0.9179812500000001
20
24.239190625000003
30
0
0
VERTEX
8
0
10
-0.8204875
20
24.210565625
30
0
0
VERTEX
8
0
10
-0.725284375
20
24.17505625
30
0
0
VERTEX
8
0
10
-0.632859375
20
24.132846875000002
30
0
0
VERTEX
8
0
10
-0.543678125
20
24.08415
30
0
0
VERTEX
8
0
10
-0.4582
20
24.029215625000003
30
0
0
VERTEX
8
0
10
-0.37685625
20
23.968325
30
0
0
VERTEX
8
0
10
-0.300065625
20
23.901784375000002
30
0
0
VERTEX
8
0
10
-0.228215625
20
23.829934375
30
0
0
VERTEX
8
0
10
-0.161675
20
23.75314375
30
0
0
VERTEX
8
0
10
-0.10078437500000001
20
23.6718
30
0
0
VERTEX
8
0
10
-0.04585
20
23.586321875
30
0
0
VERTEX
8
0
10
0.002846875
20
23.497140625
30
0
0
VERTEX
8
0
10
0.04505625
20
23.404715625
30
0
0
VERTEX
8
0
10
0.080565625
20
23.3095125
30
0
0
VERTEX
8
0
10
0.109190625
20
23.212018750000002
30
0
0
VERTEX
8
0
10
0.130790625
20
23.11273125
30
0
0
VERTEX
8
0
10
0.14525000000000002
20
23.01215625
30
0
0
VERTEX
8
0
10
0.1525
20
22.91080625
30
0
0
VERTEX
8
0
10
0.1525
20
22.809193750000002
30
0
0
SEQEND
0
POLYLINE
66
1
8
holes
10
0.0
20
0.0
30
0.0
70
1
0
VERTEX
8
0
10
3.9625000000000004
20
89.61119375
30
0
0
VERTEX
8
0
10
3.9552500000000004
20
89.50984375
30
0
0
VERTEX
8
0
10
3.940790625
20
89.40926875000001
30
0
0
VERTEX
8
0
10
3.919190625
20
89.30998125
30
0
0
VERTEX
8
0
10
3.8905656250000002
20
89.21248750000001
30
0
0
VERTEX
8
0
10
3.85505625
20
89.11728437500001
30
0
0
VERTEX
8
0
10
3.812846875
20
89.024859375
30
0
0
VERTEX
8
0
10
3.7641500000000003
20
88.93567812500001
30
0
0
VERTEX
8
0
10
3.709215625
20
88.8502
30
0
0
VERTEX
8
0
10
3.6483250000000003
20
88.76885625
30
0
0
VERTEX
8
0
10
3.5817843750000002
20
88.692065625
30
0
0
VERTEX
8
0
10
3.5099343750000003
20
88.620215625
30
0
0
VERTEX
8
0
10
3.43314375
20
88.553675
30
0
0
VERTEX
8
0
10
3.3518000000000003
20
88.492784375
30
0
0
VERTEX
8
0
10
3.266321875
20
88.43785
30
0
0
VERTEX
8
0
10
3.1771406250000003
20
88.389153125
30
0
0
VERTEX
8
0
10
3.0847156250000003
20
88.34694375000001
30
0
0
VERTEX
8
0
10
2.9895125
20
88.311434375
30
0
0
VERTEX
8
0
10
2.89201875
20
88.282809375
30
0
0
VERTEX
8
0
10
2.79273125
20
88.261209375
30
0
0
VERTEX
8
0
10
2.69215625
20
88.24675
30
0
0
VERTEX
8
0
10
2.59080625
20
88.2395
30
0
0
VERTEX
8
0
10
2.48919375
20
88.2395
30
0
0
VERTEX
8
0
10
2.38784375
20
88.24675
30
0
0
VERTEX
8
0
10
2.28726875
20
88.261209375
30
0
0
VERTEX
8
0
10
2.18798125
20
88.282809375
30
0
0
VERTEX
8
0
10
2.0904875
20
88.311434375
30
0
0
VERTEX
8
0
10
1.995284375
20
88.34694375000001
30
0
0
VERTEX
8
0
10
1.902859375
20
88.389153125
30
0
0
VERTEX
8
0
10
1.813678125
20
88.43785
30
0
0
VERTEX
8
0
10
1.7282000000000002
20
88.492784375
30
0
0
VERTEX
8
0
10
1.6468562500000001
20
88.553675
30
0
0
VERTEX
8
0
10
1.570065625
20
88.620215625
30
0
0
VERTEX
8
0
10
1.498215625
20
88.692065625
30
0
0
VERTEX
8
0
10
1.431675
20
88.76885625
30
0
0
VERTEX
8
0
10
1.3707843750000002
20
88.8502
30
0
0
VERTEX
8
0
10
1.31585
20
88.93567812500001
30
0
0
VERTEX
8
0
10
1.267153125
20
89.024859375
30
0
0
VERTEX
8
0
10
1.22494375
20
89.11728437500001
30
0
0
VERTEX
8
0
10
1.189434375
20
89.21248750000001
30
0
0
VERTEX
8
0
10
1.1608093750000001
20
89.30998125
30
0
0
VERTEX
8
0
10
1.139209375
20
89.40926875000001
30
0
0
VERTEX
8
0
10
1.1247500000000001
20
89.50984375
30
0
0
VERTEX
8
0
10
1.1175000000000002
20
89.61119375
30
0
0
VERTEX
8
0
10
1.1175000000000002
20
89.71280625
30
0
0
VERTEX
8
0
10
1.1247500000000001
20
89.81415625000001
30
0
0
VERTEX
8
0
10
1.139209375
20
89.91473125
30
0
0
VERTEX
8
0
10
1.1608093750000001
20
90.01401875
30
0
0
VERTEX
8
0
10
1.189434375
20
90.1115125
30
0
0
VERTEX
8
0
10
1.22494375
20
90.206715625
30
0
0
VERTEX
8
0
10
1.267153125
20
90.299140625
30
0
0
VERTEX
8
0
10
1.31585
20
90.388321875
30
0
0
VERTEX
8
0
10
1.3707843750000002
20
90.47380000000001
30
0
0
VERTEX
8
0
10
1.431675
20
90.55514375
30
0
0
VERTEX
8
0
10
1.498215625
20
90.631934375
30
0
0
VERTEX
8
0
10
1.570065625
20
90.703784375
30
0
0
VERTEX
8
0
10
1.6468562500000001
20
90.770325
30
0
0
VERTEX
8
0
10
1.7282000000000002
20
90.831215625
30
0
0
VERTEX
8
0
10
1.813678125
20
90.88615
30
0
0
VERTEX
8
0
10
1.902859375
20
90.934846875
30
0
0
VERTEX
8
0
10
1.995284375
20
90.97705625
30
0
0
VERTEX
8
0
10
2.0904875
20
91.01256562500001
30
0
0
VERTEX
8
0
10
2.18798125
20
91.041190625
30
0
0
VERTEX
8
0
10
2.28726875
20
91.062790625
30
0
0
VERTEX
8
0
10
2.38784375
20
91.07725
30
0
0
VERTEX
8
0
10
2.48919375
20
91.0845
30
0
0
VERTEX
8
0
10
2.59080625
20
91.0845
30
0
0
VERTEX
8
0
10
2.69215625
20
91.07725
30
0
0
VERTEX
8
0
10
2.79273125
20
91.062790625
30
0
0
VERTEX
8
0
10
2.89201875
20
91.041190625
30
0
0
VERTEX
8
0
10
2.9895125
20
91.01256562500001
30
0
0
VERTEX
8
0
10
3.0847156250000003
20
90.97705625
30
0
0
VERTEX
8
0
10
3.1771406250000003
20
90.934846875
30
0
0
VERTEX
8
0
10
3.266321875
20
90.88615
30
0
0
VERTEX
8
0
10
3.3518000000000003
20
90.831215625
30
0
0
VERTEX
8
0
10
3.43314375
20
90.770325
30
0
0
VERTEX
8
0
10
3.5099343750000003
20
90.703784375
30
0
0
VERTEX
8
0
10
3.5817843750000002
20
90.631934375
30
0
0
VERTEX
8
0
10
3.6483250000000003
20
90.55514375
30
0
0
VERTEX
8
0
10
3.709215625
20
90.47380000000001
30
0
0
VERTEX
8
0
10
3.7641500000000003
20
90.388321875
30
0
0
VERTEX
8
0
10
3.812846875
20
90.299140625
30
0
0
VERTEX
8
0
10
3.85505625
20
90.206715625
30
0
0
VERTEX
8
0
10
3.8905656250000002
20
90.1115125
30
0
0
VERTEX
8
0
10
3.919190625
20
90.01401875
30
0
0
VERTEX
8
0
10
3.940790625
20
89.91473125
30
0
0
VERTEX
8
0
10
3.9552500000000004
20
89.81415625000001
30
0
0
VERTEX
8
0
10
3.9625000000000004
20
89.71280625
30
0
0
VERTEX
8
0
10
3.9625000000000004
20
89.61119375
30
0
0
SEQEND
0
POLYLINE
66
1
8
holes
10
0.0
20
0.0
30
0.0
70
1
0
VERTEX
8
0
10
89.05250000000001
20
6.299193750000001
30
0
0
VERTEX
8
0
10
89.04525000000001
20
6.1978437500000005
30
0
0
VERTEX
8
0
10
89.03079062500001
20
6.0972687500000005
30
0
0
VERTEX
8
0
10
89.009190625
20
5.9979812500000005
30
0
0
VERTEX
8
0
10
88.98056562500001
20
5.9004875000000006
30
0
0
VERTEX
8
0
10
88.94505625000001
20
5.805284375
30
0
0
VERTEX
8
0
10
88.90284687500001
20
5.712859375
30
0
0
VERTEX
8
0
10
88.85415
20
5.6236781250000005
30
0
0
VERTEX
8
0
10
88.799215625
20
5.538200000000001
30
0
0
VERTEX
8
0
10
88.738325
20
5.45685625
30
0
0
VERTEX
8
0
10
88.671784375
20
5.380065625
30
0
0
VERTEX
8
0
10
88.599934375
20
5.308215625
30
0
0
VERTEX
8
0
10
88.52314375
20
5.241675
30
0
0
VERTEX
8
0
10
88.4418
20
5.180784375
30
0
0
VERTEX
8
0
10
88.356321875
20
5.125850000000001
30
0
0
VERTEX
8
0
10
88.26714062500001
20
5.077153125000001
30
0
0
VERTEX
8
0
10
88.174715625
20
5.03494375
30
0
0
VERTEX
8
0
10
88.0795125
20
4.999434375
30
0
0
VERTEX
8
0
10
87.98201875000001
20
4.970809375
30
0
0
VERTEX
8
0
10
87.88273125
20
4.949209375000001
30
0
0
VERTEX
8
0
10
87.78215625
20
4.93475
30
0
0
VERTEX
8
0
10
87.68080625
20
4.9275
30
0
0
VERTEX
8
0
10
87.57919375
20
4.9275
30
0
0
VERTEX
8
0
10
87.47784375
20
4.93475
30
0
0
VERTEX
8
0
10
87.37726875
20
4.949209375000001
30
0
0
VERTEX
8
0
10
87.27798125000001
20
4.970809375
30
0
0
VERTEX
8
0
10
87.1804875
20
4.999434375
30
0
0
VERTEX
8
0
10
87.085284375
20
5.03494375
30
0
0
VERTEX
8
0
10
86.99285937500001
20
5.077153125000001
30
0
0
VERTEX
8
0
10
86.903678125
20
5.125850000000001
30
0
0
VERTEX
8
0
10
86.8182
20
5.180784375
30
0
0
VERTEX
8
0
10
86.73685625
20
5.241675
30
0
0
VERTEX
8
0
10
86.660065625
20
5.308215625
30
0
0
VERTEX
8
0
10
86.588215625
20
5.380065625
30
0
0
VERTEX
8
0
10
86.521675
20
5.45685625
30
0
0
VERTEX
8
0
10
86.460784375
20
5.538200000000001
30
0
0
VERTEX
8
0
10
86.40585
20
5.6236781250000005
30
0
0
VERTEX
8
0
10
86.35715312500001
20
5.712859375
30
0
0
VERTEX
8
0
10
86.31494375
20
5.805284375
30
0
0
VERTEX
8
0
10
86.27943437500001
20
5.9004875000000006
30
0
0
VERTEX
8
0
10
86.250809375
20
5.9979812500000005
30
0
0
VERTEX
8
0
10
86.22920937500001
20
6.0972687500000005
30
0
0
VERTEX
8
0
10
86.21475000000001
20
6.1978437500000005
30
0
0
VERTEX
8
0
10
86.20750000000001
20
6.299193750000001
30
0
0
VERTEX
8
0
10
86.20750000000001
20
6.4008062500000005
30
0
0
VERTEX
8
0
10
86.21475000000001
20
6.5021562500000005
30
0
0
VERTEX
8
0
10
86.22920937500001
20
6.602731250000001
30
0
0
VERTEX
8
0
10
86.250809375
20
6.702018750000001
30
0
0
VERTEX
8
0
10
86.27943437500001
20
6.7995125000000005
30
0
0
VERTEX
8
0
10
86.31494375
20
6.894715625
30
0
0
VERTEX
8
0
10
86.35715312500001
20
6.987140625
30
0
0
VERTEX
8
0
10
86.40585
20
7.0763218750000005
30
0
0
VERTEX
8
0
10
86.460784375
20
7.1618
30
0
0
VERTEX
8
0
10
86.521675
20
7.243143750000001
30
0
0
VERTEX
8
0
10
86.588215625
20
7.319934375000001
30
0
0
VERTEX
8
0
10
86.660065625
20
7.391784375
30
0
0
VERTEX
8
0
10
86.73685625
20
7.458325
30
0
0
VERTEX
8
0
10
86.8182
20
7.519215625
30
0
0
VERTEX
8
0
10
86.903678125
20
7.57415
30
0
0
VERTEX
8
0
10
86.99285937500001
20
7.6228468750000005
30
0
0
VERTEX
8
0
10
87.085284375
20
7.66505625
30
0
0
VERTEX
8
0
10
87.1804875
20
7.700565625
30
0
0
VERTEX
8
0
10
87.27798125000001
20
7.729190625
30
0
0
VERTEX
8
0
10
87.37726875
20
7.7507906250000005
30
0
0
VERTEX
8
0
10
87.47784375
20
7.76525
30
0
0
VERTEX
8
0
10
87.57919375
20
7.7725
30
0
0
VERTEX
8
0
10
87.68080625
20
7.7725
30
0
0
VERTEX
8
0
10
87.78215625
20
7.76525
30
0
0
VERTEX
8
0
10
87.88273125
20
7.7507906250000005
30
0
0
VERTEX
8
0
10
87.98201875000001
20
7.729190625
30
0
0
VERTEX
8
0
10
88.0795125
20
7.700565625
30
0
0
VERTEX
8
0
10
88.174715625
20
7.66505625
30
0
0
VERTEX
8
0
10
88.26714062500001
20
7.6228468750000005
30
0
0
VERTEX
8
0
10
88.356321875
20
7.57415
30
0
0
VERTEX
8
0
10
88.4418
20
7.519215625
30
0
0
VERTEX
8
0
10
88.52314375
20
7.458325
30
0
0
VERTEX
8
0
10
88.599934375
20
7.391784375
30
0
0
VERTEX
8
0
10
88.671784375
20
7.319934375000001
30
0
0
VERTEX
8
0
10
88.738325
20
7.243143750000001
30
0
0
VERTEX
8
0
10
88.799215625
20
7.1618
30
0
0
VERTEX
8
0
10
88.85415
20
7.0763218750000005
30
0
0
VERTEX
8
0
10
88.90284687500001
20
6.987140625
30
0
0
VERTEX
8
0
10
88.94505625000001
20
6.894715625
30
0
0
VERTEX
8
0
10
88.98056562500001
20
6.7995125000000005
30
0
0
VERTEX
8
0
10
89.009190625
20
6.702018750000001
30
0
0
VERTEX
8
0
10
89.03079062500001
20
6.602731250000001
30
0
0
VERTEX
8
0
10
89.04525000000001
20
6.5021562500000005
30
0
0
VERTEX
8
0
10
89.05250000000001
20
6.4008062500000005
30
0
0
VERTEX
8
0
10
89.05250000000001
20
6.299193750000001
30
0
0
SEQEND
0
POLYLINE
66
1
8
1_copper
10
0.0
20
0.0
30
0.0
70
1
0
VERTEX
8
0
10
50.43
20
84.71720937500001
30
0
0
VERTEX
8
0
10
50.43
20
85.46279062500001
30
0
0
VERTEX
8
0
10
49.902790625
20
85.99000000000001
30
0
0
VERTEX
8
0
10
49.157209375
20
85.99000000000001
30
0
0
VERTEX
8
0
10
48.63
20
85.46279062500001
30
0
0
VERTEX
8
0
10
48.63
20
84.71720937500001
30
0
0
VERTEX
8
0
10
49.157209375
20
84.19
30
0
0
VERTEX
8
0
10
49.902790625
20
84.19
30
0
0
SEQEND
0
POLYLINE
66
1
8
1_copper
10
0.0
20
0.0
30
0.0
70
1
0
VERTEX
8
0
10
50.43
20
61.857209375000004
30
0
0
VERTEX
8
0
10
50.43
20
62.602790625000004
30
0
0
VERTEX
8
0
10
49.902790625
20
63.13
30
0
0
VERTEX
8
0
10
49.157209375
20
63.13
30
0
0
VERTEX
8
0
10
48.63
20
62.602790625000004
30
0
0
VERTEX
8
0
10
48.63
20
61.857209375000004
30
0
0
VERTEX
8
0
10
49.157209375
20
61.330000000000005
30
0
0
VERTEX
8
0
10
49.902790625
20
61.330000000000005
30
0
0
SEQEND
0
POLYLINE
66
1
8
1_copper
10
0.0
20
0.0
30
0.0
70
1
0
VERTEX
8
0
10
73.29
20
61.857209375000004
30
0
0
VERTEX
8
0
10
73.29
20
62.602790625000004
30
0
0
VERTEX
8
0
10
72.76279062500001
20
63.13
30
0
0
VERTEX
8
0
10
72.01720937500001
20
63.13
30
0
0
VERTEX
8
0
10
71.49000000000001
20
62.602790625000004
30
0
0
VERTEX
8
0
10
71.49000000000001
20
61.857209375000004
30
0
0
VERTEX
8
0
10
72.01720937500001
20
61.330000000000005
30
0
0
VERTEX
8
0
10
72.76279062500001
20
61.330000000000005
30
0
0
SEQEND
0
POLYLINE
66
1
8
1_copper
10
0.0
20
0.0
30
0.0
70
1
0
VERTEX
8
0
10
40.108000000000004
20
30.898234375
30
0
0
VERTEX
8
0
10
40.108000000000004
20
32.271765625
30
0
0
VERTEX
8
0
10
39.136765625
20
33.243
30
0
0
VERTEX
8
0
10
37.763234375
20
33.243
30
0
0
VERTEX
8
0
10
36.792
20
32.271765625
30
0
0
VERTEX
8
0
10
36.792
20
30.898234375
30
0
0
VERTEX
8
0
10
37.763234375
20
29.927000000000003
30
0
0
VERTEX
8
0
10
39.136765625
20
29.927000000000003
30
0
0
SEQEND
0
POLYLINE
66
1
8
1_copper
10
0.0
20
0.0
30
0.0
70
1
0
VERTEX
8
0
10
52.148
20
30.898234375
30
0
0
VERTEX
8
0
10
52.148
20
32.271765625
30
0
0
VERTEX
8
0
10
51.176765625
20
33.243
30
0
0
VERTEX
8
0
10
49.803234375
20
33.243
30
0
0
VERTEX
8
0
10
48.832
20
32.271765625
30
0
0
VERTEX
8
0
10
48.832
20
30.898234375
30
0
0
VERTEX
8
0
10
49.803234375
20
29.927000000000003
30
0
0
VERTEX
8
0
10
51.176765625
20
29.927000000000003
30
0
0
SEQEND
0
POLYLINE
66
1
8
1_copper
10
0.0
20
0.0
30
0.0
70
1
0
VERTEX
8
0
10
31.191200000000002
20
12.4054125
30
0
0
VERTEX
8
0
10
31.191200000000002
20
12.9945875
30
0
0
VERTEX
8
0
10
30.774587500000003
20
13.411200000000001
30
0
0
VERTEX
8
0
10
30.1854125
20
13.411200000000001
30
0
0
VERTEX
8
0
10
29.768800000000002
20
12.9945875
30
0
0
VERTEX
8
0
10
29.768800000000002
20
12.4054125
30
0
0
VERTEX
8
0
10
30.1854125
20
11.988800000000001
30
0
0
VERTEX
8
0
10
30.774587500000003
20
11.988800000000001
30
0
0
SEQEND
0
POLYLINE
66
1
8
1_copper
10
0.0
20
0.0
30
0.0
70
1
0
VERTEX
8
0
10
18.4912
20
9.8654125
30
0
0
VERTEX
8
0
10
18.4912
20
10.4545875
30
0
0
VERTEX
8
0
10
18.0745875
20
10.8712
30
0
0
VERTEX
8
0
10
17.485412500000002
20
10.8712
30
0
0
VERTEX
8
0
10
17.0688
20
10.4545875
30
0
0
VERTEX
8
0
10
17.0688
20
9.8654125
30
0
0
VERTEX
8
0
10
17.485412500000002
20
9.4488
30
0
0
VERTEX
8
0
10
18.0745875
20
9.4488
30
0
0
SEQEND
0
POLYLINE
66
1
8
1_copper
10
0.0
20
0.0
30
0.0
70
1
0
VERTEX
8
0
10
31.191200000000002
20
9.8654125
30
0
0
VERTEX
8
0
10
31.191200000000002
20
10.4545875
30
0
0
VERTEX
8
0
10
30.774587500000003
20
10.8712
30
0
0
VERTEX
8
0
10
30.1854125
20
10.8712
30
0
0
VERTEX
8
0
10
29.768800000000002
20
10.4545875
30
0
0
VERTEX
8
0
10
29.768800000000002
20
9.8654125
30
0
0
VERTEX
8
0
10
30.1854125
20
9.4488
30
0
0
VERTEX
8
0
10
30.774587500000003
20
9.4488
30
0
0
SEQEND
0
POLYLINE
66
1
8
16_copper
10
0.0
20
0.0
30
0.0
70
1
0
VERTEX
8
0
10
50.43
20
84.71720937500001
30
0
0
VERTEX
8
0
10
50.43
20
85.46279062500001
30
0
0
VERTEX
8
0
10
49.902790625
20
85.99000000000001
30
0
0
VERTEX
8
0
10
49.157209375
20
85.99000000000001
30
0
0
VERTEX
8
0
10
48.63
20
85.46279062500001
30
0
0
VERTEX
8
0
10
48.63
20
84.71720937500001
30
0
0
VERTEX
8
0
10
49.157209375
20
84.19
30
0
0
VERTEX
8
0
10
49.902790625
20
84.19
30
0
0
SEQEND
0
POLYLINE
66
1
8
16_copper
10
0.0
20
0.0
30
0.0
70
1
0
VERTEX
8
0
10
50.43
20
61.857209375000004
30
0
0
VERTEX
8
0
10
50.43
20
62.602790625000004
30
0
0
VERTEX
8
0
10
49.902790625
20
63.13
30
0
0
VERTEX
8
0
10
49.157209375
20
63.13
30
0
0
VERTEX
8
0
10
48.63
20
62.602790625000004
30
0
0
VERTEX
8
0
10
48.63
20
61.857209375000004
30
0
0
VERTEX
8
0
10
49.157209375
20
61.330000000000005
30
0
0
VERTEX
8
0
10
49.902790625
20
61.330000000000005
30
0
0
SEQEND
0
POLYLINE
66
1
8
16_copper
10
0.0
20
0.0
30
0.0
70
1
0
VERTEX
8
0
10
73.29
20
61.857209375000004
30
0
0
VERTEX
8
0
10
73.29
20
62.602790625000004
30
0
0
VERTEX
8
0
10
72.76279062500001
20
63.13
30
0
0
VERTEX
8
0
10
72.01720937500001
20
63.13
30
0
0
VERTEX
8
0
10
71.49000000000001
20
62.602790625000004
30
0
0
VERTEX
8
0
10
71.49000000000001
20
61.857209375000004
30
0
0
VERTEX
8
0
10
72.01720937500001
20
61.330000000000005
30
0
0
VERTEX
8
0
10
72.76279062500001
20
61.330000000000005
30
0
0
SEQEND
0
POLYLINE
66
1
8
16_copper
10
0.0
20
0.0
30
0.0
70
1
0
VERTEX
8
0
10
40.108000000000004
20
30.898234375
30
0
0
VERTEX
8
0
10
40.108000000000004
20
32.271765625
30
0
0
VERTEX
8
0
10
39.136765625
20
33.243
30
0
0
VERTEX
8
0
10
37.763234375
20
33.243
30
0
0
VERTEX
8
0
10
36.792
20
32.271765625
30
0
0
VERTEX
8
0
10
36.792
20
30.898234375
30
0
0
VERTEX
8
0
10
37.763234375
20
29.927000000000003
30
0
0
VERTEX
8
0
10
39.136765625
20
29.927000000000003
30
0
0
SEQEND
0
POLYLINE
66
1
8
16_copper
10
0.0
20
0.0
30
0.0
70
1
0
VERTEX
8
0
10
52.148
20
30.898234375
30
0
0
VERTEX
8
0
10
52.148
20
32.271765625
30
0
0
VERTEX
8
0
10
51.176765625
20
33.243
30
0
0
VERTEX
8
0
10
49.803234375
20
33.243
30
0
0
VERTEX
8
0
10
48.832
20
32.271765625
30
0
0
VERTEX
8
0
10
48.832
20
30.898234375
30
0
0
VERTEX
8
0
10
49.803234375
20
29.927000000000003
30
0
0
VERTEX
8
0
10
51.176765625
20
29.927000000000003
30
0
0
SEQEND
0
POLYLINE
66
1
8
16_copper
10
0.0
20
0.0
30
0.0
70
1
0
VERTEX
8
0
10
31.191200000000002
20
12.4054125
30
0
0
VERTEX
8
0
10
31.191200000000002
20
12.9945875
30
0
0
VERTEX
8
0
10
30.774587500000003
20
13.411200000000001
30
0
0
VERTEX
8
0
10
30.1854125
20
13.411200000000001
30
0
0
VERTEX
8
0
10
29.768800000000002
20
12.9945875
30
0
0
VERTEX
8
0
10
29.768800000000002
20
12.4054125
30
0
0
VERTEX
8
0
10
30.1854125
20
11.988800000000001
30
0
0
VERTEX
8
0
10
30.774587500000003
20
11.988800000000001
30
0
0
SEQEND
0
POLYLINE
66
1
8
16_copper
10
0.0
20
0.0
30
0.0
70
1
0
VERTEX
8
0
10
18.4912
20
9.8654125
30
0
0
VERTEX
8
0
10
18.4912
20
10.4545875
30
0
0
VERTEX
8
0
10
18.0745875
20
10.8712
30
0
0
VERTEX
8
0
10
17.485412500000002
20
10.8712
30
0
0
VERTEX
8
0
10
17.0688
20
10.4545875
30
0
0
VERTEX
8
0
10
17.0688
20
9.8654125
30
0
0
VERTEX
8
0
10
17.485412500000002
20
9.4488
30
0
0
VERTEX
8
0
10
18.0745875
20
9.4488
30
0
0
SEQEND
0
POLYLINE
66
1
8
16_copper
10
0.0
20
0.0
30
0.0
70
1
0
VERTEX
8
0
10
31.191200000000002
20
9.8654125
30
0
0
VERTEX
8
0
10
31.191200000000002
20
10.4545875
30
0
0
VERTEX
8
0
10
30.774587500000003
20
10.8712
30
0
0
VERTEX
8
0
10
30.1854125
20
10.8712
30
0
0
VERTEX
8
0
10
29.768800000000002
20
10.4545875
30
0
0
VERTEX
8
0
10
29.768800000000002
20
9.8654125
30
0
0
VERTEX
8
0
10
30.1854125
20
9.4488
30
0
0
VERTEX
8
0
10
30.774587500000003
20
9.4488
30
0
0
SEQEND
0
POLYLINE
66
1
8
1_copper
10
0.0
20
0.0
30
0.0
70
1
0
VERTEX
8
0
10
2.575465625
20
79.80991875000001
30
0
42
0.9159168875285966
0
VERTEX
8
0
10
2.54
20
80.2132
30
0
0
VERTEX
8
0
10
-0.77943125
20
80.2132
30
0
0
VERTEX
8
0
10
2.6836843750000003
20
83.676315625
30
0
42
0.41421356237309503
0
VERTEX
8
0
10
2.6836843750000003
20
83.963684375
30
0
0
VERTEX
8
0
10
1.413684375
20
85.23368437500001
30
0
42
0.198912367379658
0
VERTEX
8
0
10
1.27
20
85.2932
30
0
0
VERTEX
8
0
10
0.127
20
85.2932
30
0
42
0.198912367379658
0
VERTEX
8
0
10
-0.016684375
20
85.23368437500001
30
0
0
VERTEX
8
0
10
-0.9056843750000001
20
84.344684375
30
0
42
0.9999999999999999
0
VERTEX
8
0
10
-0.618315625
20
84.057315625
30
0
0
VERTEX
8
0
10
0.21116875000000002
20
84.88680000000001
30
0
0
VERTEX
8
0
10
1.1858312500000001
20
84.88680000000001
30
0
0
VERTEX
8
0
10
2.2526312500000003
20
83.82000000000001
30
0
0
VERTEX
8
0
10
-1.413684375
20
80.153684375
30
0
42
0.6681786379192989
0
VERTEX
8
0
10
-1.27
20
79.80680000000001
30
0
0
VERTEX
8
0
10
2.54
20
79.80680000000001
30
0
0
SEQEND
0
POLYLINE
66
1
8
1_copper
10
0.0
20
0.0
30
0.0
70
1
0
VERTEX
8
0
10
75.16894375
20
6.1033375
30
0
42
0.3578057741447831
0
VERTEX
8
0
10
75.819
20
6.820565625
30
0
0
VERTEX
8
0
10
75.819
20
8.419434375
30
0
42
0.13496225290796576
0
VERTEX
8
0
10
75.69200000000001
20
8.803218750000001
30
0
0
VERTEX
8
0
10
75.69200000000001
20
10.023975
30
0
0
VERTEX
8
0
10
89.3490125
20
23.6809875
30
0
42
0.198912367379658
0
VERTEX
8
0
10
89.53500000000001
20
24.130000000000003
30
0
0
VERTEX
8
0
10
89.53500000000001
20
76.2
30
0
42
0.198912367379658
0
VERTEX
8
0
10
89.3490125
20
76.6490125
30
0
0
VERTEX
8
0
10
81.72901250000001
20
84.2690125
30
0
42
0.198912367379658
0
VERTEX
8
0
10
81.28
20
84.455
30
0
0
VERTEX
8
0
10
79.52187500000001
20
84.455
30
0
42
0.23715177325943038
0
VERTEX
8
0
10
78.638109375
20
84.94395
30
0
0
VERTEX
8
0
10
76.301890625
20
84.94395
30
0
42
0.9614820847987363
0
VERTEX
8
0
10
76.301890625
20
82.69605
30
0
0
VERTEX
8
0
10
78.638109375
20
82.69605
30
0
42
0.23715177325943038
0
VERTEX
8
0
10
79.52187500000001
20
83.185
30
0
0
VERTEX
8
0
10
81.016975
20
83.185
30
0
0
VERTEX
8
0
10
88.265
20
75.936975
30
0
0
VERTEX
8
0
10
88.265
20
24.393025
30
0
0
VERTEX
8
0
10
74.60798750000001
20
10.736012500000001
30
0
42
0.198912367379658
0
VERTEX
8
0
10
74.422
20
10.287
30
0
0
VERTEX
8
0
10
74.422
20
8.803218750000001
30
0
42
0.13496225290796576
0
VERTEX
8
0
10
74.295
20
8.419434375
30
0
0
VERTEX
8
0
10
74.295
20
6.820565625
30
0
0
VERTEX
8
0
10
74.30233750000001
20
6.7460562500000005
30
0
0
VERTEX
8
0
10
74.31694375000001
20
6.672625
30
0
0
VERTEX
8
0
10
74.338678125
20
6.60098125
30
0
0
VERTEX
8
0
10
74.367328125
20
6.531809375
30
0
0
VERTEX
8
0
10
74.40262187500001
20
6.46578125
30
0
0
VERTEX
8
0
10
74.44421875
20
6.40353125
30
0
0
VERTEX
8
0
10
74.491715625
20
6.34565625
30
0
0
VERTEX
8
0
10
74.54465625
20
6.2927156250000005
30
0
0
VERTEX
8
0
10
74.60253125
20
6.24521875
30
0
0
VERTEX
8
0
10
74.66478125
20
6.2036218750000005
30
0
0
VERTEX
8
0
10
74.730809375
20
6.168328125
30
0
0
VERTEX
8
0
10
74.79998125
20
6.1396781250000005
30
0
0
VERTEX
8
0
10
74.87162500000001
20
6.11794375
30
0
0
VERTEX
8
0
10
74.94505625000001
20
6.1033375
30
0
0
VERTEX
8
0
10
75.019565625
20
6.096
30
0
0
VERTEX
8
0
10
75.094434375
20
6.096
30
0
0
SEQEND
0
POLYLINE
66
1
8
16_copper
10
0.0
20
0.0
30
0.0
70
1
0
VERTEX
8
0
10
78.72615937500001
20
82.702978125
30
0
42
0.9243903367892725
0
VERTEX
8
0
10
78.638109375
20
84.94395
30
0
0
VERTEX
8
0
10
76.301890625
20
84.94395
30
0
42
0.9614820847987363
0
VERTEX
8
0
10
76.301890625
20
82.69605
30
0
0
VERTEX
8
0
10
78.638109375
20
82.69605
30
0
0
SEQEND
0
POLYLINE
66
1
8
16_copper
10
0.0
20
0.0
30
0.0
70
1
0
VERTEX
8
0
10
75.16894375
20
6.1033375
30
0
42
0.3578057741447831
0
VERTEX
8
0
10
75.819
20
6.820565625
30
0
0
VERTEX
8
0
10
75.819
20
8.419434375
30
0
42
0.9520795017710562
0
VERTEX
8
0
10
74.295
20
8.419434375
30
0
0
VERTEX
8
0
10
74.295
20
6.820565625
30
0
0
VERTEX
8
0
10
74.30233750000001
20
6.7460562500000005
30
0
0
VERTEX
8
0
10
74.31694375000001
20
6.672625
30
0
0
VERTEX
8
0
10
74.338678125
20
6.60098125
30
0
0
VERTEX
8
0
10
74.367328125
20
6.531809375
30
0
0
VERTEX
8
0
10
74.40262187500001
20
6.46578125
30
0
0
VERTEX
8
0
10
74.44421875
20
6.40353125
30
0
0
VERTEX
8
0
10
74.491715625
20
6.34565625
30
0
0
VERTEX
8
0
10
74.54465625
20
6.2927156250000005
30
0
0
VERTEX
8
0
10
74.60253125
20
6.24521875
30
0
0
VERTEX
8
0
10
74.66478125
20
6.2036218750000005
30
0
0
VERTEX
8
0
10
74.730809375
20
6.168328125
30
0
0
VERTEX
8
0
10
74.79998125
20
6.1396781250000005
30
0
0
VERTEX
8
0
10
74.87162500000001
20
6.11794375
30
0
0
VERTEX
8
0
10
74.94505625000001
20
6.1033375
30
0
0
VERTEX
8
0
10
75.019565625
20
6.096
30
0
0
VERTEX
8
0
10
75.094434375
20
6.096
30
0
0
SEQEND
0
POLYLINE
66
1
8
1_copper
10
0.0
20
0.0
30
0.0
70
1
0
VERTEX
8
0
10
55.88529375
20
3.1752625
30
0
42
0.4117729756578034
0
VERTEX
8
0
10
56.515
20
3.81
30
0
0
VERTEX
8
0
10
56.515
20
6.43678125
30
0
42
0.13496225290796576
0
VERTEX
8
0
10
56.642
20
6.820565625
30
0
0
VERTEX
8
0
10
56.642
20
8.419434375
30
0
42
0.9520795017710562
0
VERTEX
8
0
10
55.118
20
8.419434375
30
0
0
VERTEX
8
0
10
55.118
20
6.820565625
30
0
42
0.13496225290796576
0
VERTEX
8
0
10
55.245000000000005
20
6.43678125
30
0
0
VERTEX
8
0
10
55.245000000000005
20
4.445
30
0
0
VERTEX
8
0
10
49.784
20
4.445
30
0
0
VERTEX
8
0
10
49.784
20
8.245975
30
0
0
VERTEX
8
0
10
54.873025000000005
20
13.335
30
0
0
VERTEX
8
0
10
60.96
20
13.335
30
0
42
0.198912367379658
0
VERTEX
8
0
10
61.4090125
20
13.5209875
30
0
0
VERTEX
8
0
10
81.72901250000001
20
33.840987500000004
30
0
42
0.198912367379658
0
VERTEX
8
0
10
81.915
20
34.29
30
0
0
VERTEX
8
0
10
81.915
20
63.373000000000005
30
0
42
0.198912367379658
0
VERTEX
8
0
10
81.72901250000001
20
63.8220125
30
0
0
VERTEX
8
0
10
77.91901250000001
20
67.6320125
30
0
42
0.198912367379658
0
VERTEX
8
0
10
77.47
20
67.818
30
0
0
VERTEX
8
0
10
61.350025
20
67.818
30
0
0
VERTEX
8
0
10
53.789012500000005
20
75.3790125
30
0
42
0.198912367379658
0
VERTEX
8
0
10
53.34
20
75.565
30
0
0
VERTEX
8
0
10
50.43
20
75.565
30
0
0
VERTEX
8
0
10
50.43
20
75.83
30
0
0
VERTEX
8
0
10
48.63
20
75.83
30
0
0
VERTEX
8
0
10
48.63
20
74.03
30
0
0
VERTEX
8
0
10
50.43
20
74.03
30
0
0
VERTEX
8
0
10
50.43
20
74.295
30
0
0
VERTEX
8
0
10
53.076975000000004
20
74.295
30
0
0
VERTEX
8
0
10
60.6379875
20
66.7339875
30
0
42
0.198912367379658
0
VERTEX
8
0
10
61.087
20
66.548
30
0
0
VERTEX
8
0
10
77.206975
20
66.548
30
0
0
VERTEX
8
0
10
80.64500000000001
20
63.109975000000006
30
0
0
VERTEX
8
0
10
80.64500000000001
20
34.553025000000005
30
0
0
VERTEX
8
0
10
60.696975
20
14.605
30
0
0
VERTEX
8
0
10
54.61
20
14.605
30
0
42
0.198912367379658
0
VERTEX
8
0
10
54.160987500000005
20
14.419012500000001
30
0
0
VERTEX
8
0
10
48.6999875
20
8.9580125
30
0
42
0.198912367379658
0
VERTEX
8
0
10
48.514
20
8.509
30
0
0
VERTEX
8
0
10
48.514
20
3.81
30
0
42
0.41421356237309503
0
VERTEX
8
0
10
49.149
20
3.1750000000000003
30
0
0
VERTEX
8
0
10
55.88
20
3.1750000000000003
30
0
0
SEQEND
0
POLYLINE
66
1
8
16_copper
10
0.0
20
0.0
30
0.0
70
1
0
VERTEX
8
0
10
50.43
20
75.83
30
0
0
VERTEX
8
0
10
48.63
20
75.83
30
0
0
VERTEX
8
0
10
48.63
20
74.03
30
0
0
VERTEX
8
0
10
50.43
20
74.03
30
0
0
SEQEND
0
POLYLINE
66
1
8
16_copper
10
0.0
20
0.0
30
0.0
70
1
0
VERTEX
8
0
10
55.991943750000004
20
6.1033375
30
0
42
0.3578057741447831
0
VERTEX
8
0
10
56.642
20
6.820565625
30
0
0
VERTEX
8
0
10
56.642
20
8.419434375
30
0
42
0.9520795017710562
0
VERTEX
8
0
10
55.118
20
8.419434375
30
0
0
VERTEX
8
0
10
55.118
20
6.820565625
30
0
0
VERTEX
8
0
10
55.1253375
20
6.7460562500000005
30
0
0
VERTEX
8
0
10
55.13994375
20
6.672625
30
0
0
VERTEX
8
0
10
55.161678125
20
6.60098125
30
0
0
VERTEX
8
0
10
55.190328125
20
6.531809375
30
0
0
VERTEX
8
0
10
55.225621875
20
6.46578125
30
0
0
VERTEX
8
0
10
55.267218750000005
20
6.40353125
30
0
0
VERTEX
8
0
10
55.314715625000005
20
6.34565625
30
0
0
VERTEX
8
0
10
55.36765625
20
6.2927156250000005
30
0
0
VERTEX
8
0
10
55.425531250000006
20
6.24521875
30
0
0
VERTEX
8
0
10
55.487781250000005
20
6.2036218750000005
30
0
0
VERTEX
8
0
10
55.553809375
20
6.168328125
30
0
0
VERTEX
8
0
10
55.62298125
20
6.1396781250000005
30
0
0
VERTEX
8
0
10
55.694625
20
6.11794375
30
0
0
VERTEX
8
0
10
55.76805625
20
6.1033375
30
0
0
VERTEX
8
0
10
55.842565625000006
20
6.096
30
0
0
VERTEX
8
0
10
55.917434375
20
6.096
30
0
0
SEQEND
0
POLYLINE
66
1
8
1_copper
10
0.0
20
0.0
30
0.0
70
1
0
VERTEX
8
0
10
5.8340000000000005
20
21.277684375
30
0
0
VERTEX
8
0
10
5.8340000000000005
20
21.902315625
30
0
0
VERTEX
8
0
10
5.392315625
20
22.344
30
0
0
VERTEX
8
0
10
5.2832
20
22.344
30
0
0
VERTEX
8
0
10
5.2832
20
65.95583125
30
0
0
VERTEX
8
0
10
28.02416875
20
88.69680000000001
30
0
0
VERTEX
8
0
10
44.36583125
20
88.69680000000001
30
0
0
VERTEX
8
0
10
46.7868
20
86.27583125000001
30
0
0
VERTEX
8
0
10
46.7868
20
69.342
30
0
42
0.26344643397892775
0
VERTEX
8
0
10
46.885453125000005
20
69.16775625
30
0
0
VERTEX
8
0
10
53.1368
20
65.41694687500001
30
0
0
VERTEX
8
0
10
53.1368
20
61.044168750000004
30
0
0
VERTEX
8
0
10
50.022712500000004
20
57.93008125
30
0
0
VERTEX
8
0
10
49.902790625
20
58.050000000000004
30
0
0
VERTEX
8
0
10
49.157209375
20
58.050000000000004
30
0
0
VERTEX
8
0
10
48.63
20
57.522790625000006
30
0
0
VERTEX
8
0
10
48.63
20
56.777209375000005
30
0
0
VERTEX
8
0
10
49.157209375
20
56.25
30
0
0
VERTEX
8
0
10
49.902790625
20
56.25
30
0
0
VERTEX
8
0
10
50.43
20
56.777209375000005
30
0
0
VERTEX
8
0
10
50.43
20
57.522790625000006
30
0
0
VERTEX
8
0
10
50.31008125
20
57.6427125
30
0
0
VERTEX
8
0
10
53.483684375
20
60.816315625
30
0
42
0.198912367379658
0
VERTEX
8
0
10
53.543200000000006
20
60.96
30
0
0
VERTEX
8
0
10
53.543200000000006
20
65.532
30
0
42
0.26344643397892775
0
VERTEX
8
0
10
53.444546875
20
65.70624375
30
0
0
VERTEX
8
0
10
47.193200000000004
20
69.457053125
30
0
0
VERTEX
8
0
10
47.193200000000004
20
86.36
30
0
42
0.198912367379658
0
VERTEX
8
0
10
47.133684375
20
86.503684375
30
0
0
VERTEX
8
0
10
44.593684375
20
89.043684375
30
0
42
0.198912367379658
0
VERTEX
8
0
10
44.45
20
89.1032
30
0
0
VERTEX
8
0
10
27.94
20
89.1032
30
0
42
0.198912367379658
0
VERTEX
8
0
10
27.796315625000002
20
89.043684375
30
0
0
VERTEX
8
0
10
4.936315625000001
20
66.183684375
30
0
42
0.198912367379658
0
VERTEX
8
0
10
4.8768
20
66.04
30
0
0
VERTEX
8
0
10
4.8768
20
22.344
30
0
0
VERTEX
8
0
10
4.767684375
20
22.344
30
0
0
VERTEX
8
0
10
4.3260000000000005
20
21.902315625
30
0
0
VERTEX
8
0
10
4.3260000000000005
20
21.277684375
30
0
0
VERTEX
8
0
10
4.767684375
20
20.836000000000002
30
0
0
VERTEX
8
0
10
5.392315625
20
20.836000000000002
30
0
0
SEQEND
0
POLYLINE
66
1
8
1_copper
10
0.0
20
0.0
30
0.0
70
1
0
VERTEX
8
0
10
13.411200000000001
20
12.4054125
30
0
0
VERTEX
8
0
10
13.411200000000001
20
12.9945875
30
0
0
VERTEX
8
0
10
12.9945875
20
13.411200000000001
30
0
0
VERTEX
8
0
10
12.4054125
20
13.411200000000001
30
0
0
VERTEX
8
0
10
11.988800000000001
20
12.9945875
30
0
0
VERTEX
8
0
10
11.988800000000001
20
12.4054125
30
0
0
VERTEX
8
0
10
12.4054125
20
11.988800000000001
30
0
0
VERTEX
8
0
10
12.9945875
20
11.988800000000001
30
0
0
SEQEND
0
POLYLINE
66
1
8
16_copper
10
0.0
20
0.0
30
0.0
70
1
0
VERTEX
8
0
10
50.43
20
56.777209375000005
30
0
0
VERTEX
8
0
10
50.43
20
57.522790625000006
30
0
0
VERTEX
8
0
10
49.902790625
20
58.050000000000004
30
0
0
VERTEX
8
0
10
49.157209375
20
58.050000000000004
30
0
0
VERTEX
8
0
10
48.63
20
57.522790625000006
30
0
0
VERTEX
8
0
10
48.63
20
56.777209375000005
30
0
0
VERTEX
8
0
10
49.157209375
20
56.25
30
0
0
VERTEX
8
0
10
49.902790625
20
56.25
30
0
0
SEQEND
0
POLYLINE
66
1
8
16_copper
10
0.0
20
0.0
30
0.0
70
1
0
VERTEX
8
0
10
13.411200000000001
20
12.4054125
30
0
0
VERTEX
8
0
10
13.411200000000001
20
12.9945875
30
0
0
VERTEX
8
0
10
12.9945875
20
13.411200000000001
30
0
0
VERTEX
8
0
10
12.4054125
20
13.411200000000001
30
0
0
VERTEX
8
0
10
11.988800000000001
20
12.9945875
30
0
0
VERTEX
8
0
10
11.988800000000001
20
12.9032
30
0
0
VERTEX
8
0
10
6.43416875
20
12.9032
30
0
0
VERTEX
8
0
10
5.2832
20
14.05416875
30
0
0
VERTEX
8
0
10
5.2832
20
20.836000000000002
30
0
0
VERTEX
8
0
10
5.392315625
20
20.836000000000002
30
0
0
VERTEX
8
0
10
5.8340000000000005
20
21.277684375
30
0
0
VERTEX
8
0
10
5.8340000000000005
20
21.902315625
30
0
0
VERTEX
8
0
10
5.392315625
20
22.344
30
0
0
VERTEX
8
0
10
4.767684375
20
22.344
30
0
0
VERTEX
8
0
10
4.3260000000000005
20
21.902315625
30
0
0
VERTEX
8
0
10
4.3260000000000005
20
21.277684375
30
0
0
VERTEX
8
0
10
4.767684375
20
20.836000000000002
30
0
0
VERTEX
8
0
10
4.8768
20
20.836000000000002
30
0
0
VERTEX
8
0
10
4.8768
20
13.97
30
0
42
0.198912367379658
0
VERTEX
8
0
10
4.936315625000001
20
13.826315625000001
30
0
0
VERTEX
8
0
10
6.206315625
20
12.556315625
30
0
42
0.198912367379658
0
VERTEX
8
0
10
6.3500000000000005
20
12.4968
30
0
0
VERTEX
8
0
10
11.988800000000001
20
12.4968
30
0
0
VERTEX
8
0
10
11.988800000000001
20
12.4054125
30
0
0
VERTEX
8
0
10
12.4054125
20
11.988800000000001
30
0
0
VERTEX
8
0
10
12.9945875
20
11.988800000000001
30
0
0
SEQEND
0
POLYLINE
66
1
8
1_copper
10
0.0
20
0.0
30
0.0
70
1
0
VERTEX
8
0
10
13.454
20
21.277684375
30
0
0
VERTEX
8
0
10
13.454
20
21.902315625
30
0
0
VERTEX
8
0
10
13.012315625000001
20
22.344
30
0
0
VERTEX
8
0
10
12.9032
20
22.344
30
0
0
VERTEX
8
0
10
12.9032
20
65.95583125
30
0
0
VERTEX
8
0
10
29.29416875
20
82.3468
30
0
0
VERTEX
8
0
10
43.550000000000004
20
82.3468
30
0
0
VERTEX
8
0
10
43.550000000000004
20
82.177209375
30
0
0
VERTEX
8
0
10
44.077209375
20
81.65
30
0
0
VERTEX
8
0
10
44.822790625
20
81.65
30
0
0
VERTEX
8
0
10
45.35
20
82.177209375
30
0
0
VERTEX
8
0
10
45.35
20
82.922790625
30
0
0
VERTEX
8
0
10
44.822790625
20
83.45
30
0
0
VERTEX
8
0
10
44.077209375
20
83.45
30
0
0
VERTEX
8
0
10
43.550000000000004
20
82.922790625
30
0
0
VERTEX
8
0
10
43.550000000000004
20
82.7532
30
0
0
VERTEX
8
0
10
29.21
20
82.7532
30
0
42
0.198912367379658
0
VERTEX
8
0
10
29.066315625
20
82.693684375
30
0
0
VERTEX
8
0
10
12.556315625
20
66.183684375
30
0
42
0.198912367379658
0
VERTEX
8
0
10
12.4968
20
66.04
30
0
0
VERTEX
8
0
10
12.4968
20
22.344
30
0
0
VERTEX
8
0
10
12.387684375000001
20
22.344
30
0
0
VERTEX
8
0
10
11.946
20
21.902315625
30
0
0
VERTEX
8
0
10
11.946
20
21.277684375
30
0
0
VERTEX
8
0
10
12.387684375000001
20
20.836000000000002
30
0
0
VERTEX
8
0
10
13.012315625000001
20
20.836000000000002
30
0
0
SEQEND
0
POLYLINE
66
1
8
1_copper
10
0.0
20
0.0
30
0.0
70
1
0
VERTEX
8
0
10
18.4912
20
12.4054125
30
0
0
VERTEX
8
0
10
18.4912
20
12.9945875
30
0
0
VERTEX
8
0
10
18.0745875
20
13.411200000000001
30
0
0
VERTEX
8
0
10
17.485412500000002
20
13.411200000000001
30
0
0
VERTEX
8
0
10
17.0688
20
12.9945875
30
0
0
VERTEX
8
0
10
17.0688
20
12.4054125
30
0
0
VERTEX
8
0
10
17.485412500000002
20
11.988800000000001
30
0
0
VERTEX
8
0
10
18.0745875
20
11.988800000000001
30
0
0
SEQEND
0
POLYLINE
66
1
8
16_copper
10
0.0
20
0.0
30
0.0
70
1
0
VERTEX
8
0
10
45.35
20
82.177209375
30
0
0
VERTEX
8
0
10
45.35
20
82.922790625
30
0
0
VERTEX
8
0
10
44.822790625
20
83.45
30
0
0
VERTEX
8
0
10
44.077209375
20
83.45
30
0
0
VERTEX
8
0
10
43.550000000000004
20
82.922790625
30
0
0
VERTEX
8
0
10
43.550000000000004
20
82.177209375
30
0
0
VERTEX
8
0
10
44.077209375
20
81.65
30
0
0
VERTEX
8
0
10
44.822790625
20
81.65
30
0
0
SEQEND
0
POLYLINE
66
1
8
16_copper
10
0.0
20
0.0
30
0.0
70
1
0
VERTEX
8
0
10
18.4912
20
12.4054125
30
0
0
VERTEX
8
0
10
18.4912
20
12.9945875
30
0
0
VERTEX
8
0
10
18.0745875
20
13.411200000000001
30
0
0
VERTEX
8
0
10
17.9832
20
13.411200000000001
30
0
0
VERTEX
8
0
10
17.9832
20
15.24
30
0
42
0.198912367379658
0
VERTEX
8
0
10
17.923684375
20
15.383684375000001
30
0
0
VERTEX
8
0
10
12.9032
20
20.40416875
30
0
0
VERTEX
8
0
10
12.9032
20
20.836000000000002
30
0
0
VERTEX
8
0
10
13.012315625000001
20
20.836000000000002
30
0
0
VERTEX
8
0
10
13.454
20
21.277684375
30
0
0
VERTEX
8
0
10
13.454
20
21.902315625
30
0
0
VERTEX
8
0
10
13.012315625000001
20
22.344
30
0
0
VERTEX
8
0
10
12.387684375000001
20
22.344
30
0
0
VERTEX
8
0
10
11.946
20
21.902315625
30
0
0
VERTEX
8
0
10
11.946
20
21.277684375
30
0
0
VERTEX
8
0
10
12.387684375000001
20
20.836000000000002
30
0
0
VERTEX
8
0
10
12.4968
20
20.836000000000002
30
0
0
VERTEX
8
0
10
12.4968
20
20.32
30
0
42
0.198912367379658
0
VERTEX
8
0
10
12.556315625
20
20.176315625
30
0
0
VERTEX
8
0
10
17.576800000000002
20
15.15583125
30
0
0
VERTEX
8
0
10
17.576800000000002
20
13.411200000000001
30
0
0
VERTEX
8
0
10
17.485412500000002
20
13.411200000000001
30
0
0
VERTEX
8
0
10
17.0688
20
12.9945875
30
0
0
VERTEX
8
0
10
17.0688
20
12.4054125
30
0
0
VERTEX
8
0
10
17.485412500000002
20
11.988800000000001
30
0
0
VERTEX
8
0
10
18.0745875
20
11.988800000000001
30
0
0
SEQEND
0
POLYLINE
66
1
8
1_copper
10
0.0
20
0.0
30
0.0
70
1
0
VERTEX
8
0
10
17.264
20
21.277684375
30
0
0
VERTEX
8
0
10
17.264
20
21.902315625
30
0
0
VERTEX
8
0
10
16.822315625
20
22.344
30
0
0
VERTEX
8
0
10
16.7132
20
22.344
30
0
0
VERTEX
8
0
10
16.7132
20
46.905831250000006
30
0
0
VERTEX
8
0
10
21.097290625
20
51.289921875000005
30
0
0
VERTEX
8
0
10
21.217209375
20
51.17
30
0
0
VERTEX
8
0
10
21.962790625
20
51.17
30
0
0
VERTEX
8
0
10
22.490000000000002
20
51.697209375
30
0
0
VERTEX
8
0
10
22.490000000000002
20
52.442790625
30
0
0
VERTEX
8
0
10
22.16571875
20
52.767071875
30
0
0
VERTEX
8
0
10
23.907184375
20
56.25
30
0
0
VERTEX
8
0
10
24.502790625000003
20
56.25
30
0
0
VERTEX
8
0
10
25.03
20
56.777209375000005
30
0
0
VERTEX
8
0
10
25.03
20
57.522790625000006
30
0
0
VERTEX
8
0
10
24.502790625000003
20
58.050000000000004
30
0
0
VERTEX
8
0
10
23.757209375000002
20
58.050000000000004
30
0
0
VERTEX
8
0
10
23.23
20
57.522790625000006
30
0
0
VERTEX
8
0
10
23.23
20
56.777209375000005
30
0
0
VERTEX
8
0
10
23.554281250000003
20
56.452928125
30
0
0
VERTEX
8
0
10
21.812815625000002
20
52.970000000000006
30
0
0
VERTEX
8
0
10
21.217209375
20
52.970000000000006
30
0
0
VERTEX
8
0
10
20.69
20
52.442790625
30
0
0
VERTEX
8
0
10
20.69
20
51.697209375
30
0
0
VERTEX
8
0
10
20.809921875
20
51.577290625
30
0
0
VERTEX
8
0
10
16.366315625000002
20
47.133684375
30
0
42
0.198912367379658
0
VERTEX
8
0
10
16.3068
20
46.99
30
0
0
VERTEX
8
0
10
16.3068
20
22.344
30
0
0
VERTEX
8
0
10
16.197684375
20
22.344
30
0
0
VERTEX
8
0
10
15.756
20
21.902315625
30
0
0
VERTEX
8
0
10
15.756
20
21.277684375
30
0
0
VERTEX
8
0
10
16.197684375
20
20.836000000000002
30
0
0
VERTEX
8
0
10
16.822315625
20
20.836000000000002
30
0
0
SEQEND
0
POLYLINE
66
1
8
1_copper
10
0.0
20
0.0
30
0.0
70
1
0
VERTEX
8
0
10
21.031200000000002
20
12.4054125
30
0
0
VERTEX
8
0
10
21.031200000000002
20
12.9945875
30
0
0
VERTEX
8
0
10
20.614587500000003
20
13.411200000000001
30
0
0
VERTEX
8
0
10
20.0254125
20
13.411200000000001
30
0
0
VERTEX
8
0
10
19.608800000000002
20
12.9945875
30
0
0
VERTEX
8
0
10
19.608800000000002
20
12.4054125
30
0
0
VERTEX
8
0
10
20.0254125
20
11.988800000000001
30
0
0
VERTEX
8
0
10
20.614587500000003
20
11.988800000000001
30
0
0
SEQEND
0
POLYLINE
66
1
8
16_copper
10
0.0
20
0.0
30
0.0
70
1
0
VERTEX
8
0
10
25.03
20
56.777209375000005
30
0
0
VERTEX
8
0
10
25.03
20
57.522790625000006
30
0
0
VERTEX
8
0
10
24.502790625000003
20
58.050000000000004
30
0
0
VERTEX
8
0
10
23.757209375000002
20
58.050000000000004
30
0
0
VERTEX
8
0
10
23.23
20
57.522790625000006
30
0
0
VERTEX
8
0
10
23.23
20
56.777209375000005
30
0
0
VERTEX
8
0
10
23.757209375000002
20
56.25
30
0
0
VERTEX
8
0
10
24.502790625000003
20
56.25
30
0
0
SEQEND
0
POLYLINE
66
1
8
16_copper
10
0.0
20
0.0
30
0.0
70
1
0
VERTEX
8
0
10
22.490000000000002
20
51.697209375
30
0
0
VERTEX
8
0
10
22.490000000000002
20
52.442790625
30
0
0
VERTEX
8
0
10
21.962790625
20
52.970000000000006
30
0
0
VERTEX
8
0
10
21.217209375
20
52.970000000000006
30
0
0
VERTEX
8
0
10
20.69
20
52.442790625
30
0
0
VERTEX
8
0
10
20.69
20
51.697209375
30
0
0
VERTEX
8
0
10
21.217209375
20
51.17
30
0
0
VERTEX
8
0
10
21.962790625
20
51.17
30
0
0
SEQEND
0
POLYLINE
66
1
8
16_copper
10
0.0
20
0.0
30
0.0
70
1
0
VERTEX
8
0
10
21.031200000000002
20
12.4054125
30
0
0
VERTEX
8
0
10
21.031200000000002
20
12.9945875
30
0
0
VERTEX
8
0
10
20.614587500000003
20
13.411200000000001
30
0
0
VERTEX
8
0
10
20.5232
20
13.411200000000001
30
0
0
VERTEX
8
0
10
20.5232
20
15.24
30
0
42
0.198912367379658
0
VERTEX
8
0
10
20.463684375
20
15.383684375000001
30
0
0
VERTEX
8
0
10
16.7132
20
19.13416875
30
0
0
VERTEX
8
0
10
16.7132
20
20.836000000000002
30
0
0
VERTEX
8
0
10
16.822315625
20
20.836000000000002
30
0
0
VERTEX
8
0
10
17.264
20
21.277684375
30
0
0
VERTEX
8
0
10
17.264
20
21.902315625
30
0
0
VERTEX
8
0
10
16.822315625
20
22.344
30
0
0
VERTEX
8
0
10
16.197684375
20
22.344
30
0
0
VERTEX
8
0
10
15.756
20
21.902315625
30
0
0
VERTEX
8
0
10
15.756
20
21.277684375
30
0
0
VERTEX
8
0
10
16.197684375
20
20.836000000000002
30
0
0
VERTEX
8
0
10
16.3068
20
20.836000000000002
30
0
0
VERTEX
8
0
10
16.3068
20
19.05
30
0
42
0.198912367379658
0
VERTEX
8
0
10
16.366315625000002
20
18.906315625
30
0
0
VERTEX
8
0
10
20.1168
20
15.15583125
30
0
0
VERTEX
8
0
10
20.1168
20
13.411200000000001
30
0
0
VERTEX
8
0
10
20.0254125
20
13.411200000000001
30
0
0
VERTEX
8
0
10
19.608800000000002
20
12.9945875
30
0
0
VERTEX
8
0
10
19.608800000000002
20
12.4054125
30
0
0
VERTEX
8
0
10
20.0254125
20
11.988800000000001
30
0
0
VERTEX
8
0
10
20.614587500000003
20
11.988800000000001
30
0
0
SEQEND
0
POLYLINE
66
1
8
1_copper
10
0.0
20
0.0
30
0.0
70
1
0
VERTEX
8
0
10
22.849896875000002
20
59.8923125
30
0
42
0.18597604843350257
0
VERTEX
8
0
10
22.716315625
20
59.833684375000004
30
0
0
VERTEX
8
0
10
21.446315625
20
58.563684375
30
0
42
0.198912367379658
0
VERTEX
8
0
10
21.3868
20
58.42
30
0
0
VERTEX
8
0
10
21.3868
20
55.964168750000006
30
0
0
VERTEX
8
0
10
20.23583125
20
54.8132
30
0
0
VERTEX
8
0
10
19.05
20
54.8132
30
0
42
0.198912367379658
0
VERTEX
8
0
10
18.906315625
20
54.753684375000006
30
0
0
VERTEX
8
0
10
17.12263125
20
52.970000000000006
30
0
0
VERTEX
8
0
10
15.610000000000001
20
52.970000000000006
30
0
0
VERTEX
8
0
10
15.610000000000001
20
51.17
30
0
0
VERTEX
8
0
10
17.41
20
51.17
30
0
0
VERTEX
8
0
10
17.41
20
52.68263125
30
0
0
VERTEX
8
0
10
19.13416875
20
54.406800000000004
30
0
0
VERTEX
8
0
10
20.32
20
54.406800000000004
30
0
42
0.198912367379658
0
VERTEX
8
0
10
20.463684375
20
54.466315625
30
0
0
VERTEX
8
0
10
21.733684375
20
55.736315625
30
0
42
0.198912367379658
0
VERTEX
8
0
10
21.793200000000002
20
55.88
30
0
0
VERTEX
8
0
10
21.793200000000002
20
58.335831250000005
30
0
0
VERTEX
8
0
10
22.94416875
20
59.4868
30
0
0
VERTEX
8
0
10
26.466800000000003
20
59.4868
30
0
0
VERTEX
8
0
10
26.466800000000003
20
55.967234375000004
30
0
0
VERTEX
8
0
10
23.990046875
20
53.61431875
30
0
42
0.20558309801157884
0
VERTEX
8
0
10
23.9268
20
53.467000000000006
30
0
0
VERTEX
8
0
10
23.9268
20
49.614168750000005
30
0
0
VERTEX
8
0
10
20.176315625
20
45.863684375000005
30
0
42
0.198912367379658
0
VERTEX
8
0
10
20.1168
20
45.72
30
0
0
VERTEX
8
0
10
20.1168
20
22.344
30
0
0
VERTEX
8
0
10
20.007684375
20
22.344
30
0
0
VERTEX
8
0
10
19.566000000000003
20
21.902315625
30
0
0
VERTEX
8
0
10
19.566000000000003
20
21.277684375
30
0
0
VERTEX
8
0
10
20.007684375
20
20.836000000000002
30
0
0
VERTEX
8
0
10
20.632315625
20
20.836000000000002
30
0
0
VERTEX
8
0
10
21.074
20
21.277684375
30
0
0
VERTEX
8
0
10
21.074
20
21.902315625
30
0
0
VERTEX
8
0
10
20.632315625
20
22.344
30
0
0
VERTEX
8
0
10
20.5232
20
22.344
30
0
0
VERTEX
8
0
10
20.5232
20
45.63583125
30
0
0
VERTEX
8
0
10
24.273684375000002
20
49.386315625
30
0
42
0.198912367379658
0
VERTEX
8
0
10
24.3332
20
49.53
30
0
0
VERTEX
8
0
10
24.3332
20
53.379765625000005
30
0
0
VERTEX
8
0
10
26.809953125
20
55.732681250000006
30
0
42
0.20558309801157884
0
VERTEX
8
0
10
26.8732
20
55.88
30
0
0
VERTEX
8
0
10
26.8732
20
59.4868
30
0
0
VERTEX
8
0
10
43.550000000000004
20
59.4868
30
0
0
VERTEX
8
0
10
43.550000000000004
20
59.317209375000004
30
0
0
VERTEX
8
0
10
44.077209375
20
58.790000000000006
30
0
0
VERTEX
8
0
10
44.822790625
20
58.790000000000006
30
0
0
VERTEX
8
0
10
45.35
20
59.317209375000004
30
0
0
VERTEX
8
0
10
45.35
20
60.062790625000005
30
0
0
VERTEX
8
0
10
44.822790625
20
60.59
30
0
0
VERTEX
8
0
10
44.077209375
20
60.59
30
0
0
VERTEX
8
0
10
43.550000000000004
20
60.062790625000005
30
0
0
VERTEX
8
0
10
43.550000000000004
20
59.8932
30
0
0
VERTEX
8
0
10
22.86
20
59.8932
30
0
0
SEQEND
0
POLYLINE
66
1
8
1_copper
10
0.0
20
0.0
30
0.0
70
1
0
VERTEX
8
0
10
23.5712
20
12.4054125
30
0
0
VERTEX
8
0
10
23.5712
20
12.9945875
30
0
0
VERTEX
8
0
10
23.1545875
20
13.411200000000001
30
0
0
VERTEX
8
0
10
22.5654125
20
13.411200000000001
30
0
0
VERTEX
8
0
10
22.1488
20
12.9945875
30
0
0
VERTEX
8
0
10
22.1488
20
12.4054125
30
0
0
VERTEX
8
0
10
22.5654125
20
11.988800000000001
30
0
0
VERTEX
8
0
10
23.1545875
20
11.988800000000001
30
0
0
SEQEND
0
POLYLINE
66
1
8
16_copper
10
0.0
20
0.0
30
0.0
70
1
0
VERTEX
8
0
10
45.35
20
59.317209375000004
30
0
0
VERTEX
8
0
10
45.35
20
60.062790625000005
30
0
0
VERTEX
8
0
10
44.822790625
20
60.59
30
0
0
VERTEX
8
0
10
44.077209375
20
60.59
30
0
0
VERTEX
8
0
10
43.550000000000004
20
60.062790625000005
30
0
0
VERTEX
8
0
10
43.550000000000004
20
59.317209375000004
30
0
0
VERTEX
8
0
10
44.077209375
20
58.790000000000006
30
0
0
VERTEX
8
0
10
44.822790625
20
58.790000000000006
30
0
0
SEQEND
0
POLYLINE
66
1
8
16_copper
10
0.0
20
0.0
30
0.0
70
1
0
VERTEX
8
0
10
17.41
20
52.970000000000006
30
0
0
VERTEX
8
0
10
15.610000000000001
20
52.970000000000006
30
0
0
VERTEX
8
0
10
15.610000000000001
20
51.17
30
0
0
VERTEX
8
0
10
17.41
20
51.17
30
0
0
SEQEND
0
POLYLINE
66
1
8
16_copper
10
0.0
20
0.0
30
0.0
70
1
0
VERTEX
8
0
10
23.5712
20
12.4054125
30
0
0
VERTEX
8
0
10
23.5712
20
12.9945875
30
0
0
VERTEX
8
0
10
23.1545875
20
13.411200000000001
30
0
0
VERTEX
8
0
10
23.063200000000002
20
13.411200000000001
30
0
0
VERTEX
8
0
10
23.063200000000002
20
16.51
30
0
42
0.198912367379658
0
VERTEX
8
0
10
23.003684375000002
20
16.653684375
30
0
0
VERTEX
8
0
10
20.5232
20
19.13416875
30
0
0
VERTEX
8
0
10
20.5232
20
20.836000000000002
30
0
0
VERTEX
8
0
10
20.632315625
20
20.836000000000002
30
0
0
VERTEX
8
0
10
21.074
20
21.277684375
30
0
0
VERTEX
8
0
10
21.074
20
21.902315625
30
0
0
VERTEX
8
0
10
20.632315625
20
22.344
30
0
0
VERTEX
8
0
10
20.007684375
20
22.344
30
0
0
VERTEX
8
0
10
19.566000000000003
20
21.902315625
30
0
0
VERTEX
8
0
10
19.566000000000003
20
21.277684375
30
0
0
VERTEX
8
0
10
20.007684375
20
20.836000000000002
30
0
0
VERTEX
8
0
10
20.1168
20
20.836000000000002
30
0
0
VERTEX
8
0
10
20.1168
20
19.05
30
0
42
0.198912367379658
0
VERTEX
8
0
10
20.176315625
20
18.906315625
30
0
0
VERTEX
8
0
10
22.6568
20
16.42583125
30
0
0
VERTEX
8
0
10
22.6568
20
13.411200000000001
30
0
0
VERTEX
8
0
10
22.5654125
20
13.411200000000001
30
0
0
VERTEX
8
0
10
22.1488
20
12.9945875
30
0
0
VERTEX
8
0
10
22.1488
20
12.4054125
30
0
0
VERTEX
8
0
10
22.5654125
20
11.988800000000001
30
0
0
VERTEX
8
0
10
23.1545875
20
11.988800000000001
30
0
0
SEQEND
0
POLYLINE
66
1
8
1_copper
10
0.0
20
0.0
30
0.0
70
1
0
VERTEX
8
0
10
80.64582187500001
20
3.225871875
30
0
42
0.41302899196029463
0
VERTEX
8
0
10
80.8482
20
3.4290000000000003
30
0
0
VERTEX
8
0
10
80.8482
20
4.699
30
0
42
0.198912367379658
0
VERTEX
8
0
10
80.788684375
20
4.842684375
30
0
0
VERTEX
8
0
10
79.66236875
20
5.969
30
0
0
VERTEX
8
0
10
80.788684375
20
7.0953156250000005
30
0
42
0.198912367379658
0
VERTEX
8
0
10
80.8482
20
7.239000000000001
30
0
0
VERTEX
8
0
10
80.8482
20
8.509
30
0
42
0.41421356237309503
0
VERTEX
8
0
10
80.64500000000001
20
8.712200000000001
30
0
0
VERTEX
8
0
10
78.105
20
8.712200000000001
30
0
42
0.41421356237309503
0
VERTEX
8
0
10
77.90180000000001
20
8.509
30
0
0
VERTEX
8
0
10
77.90180000000001
20
3.4290000000000003
30
0
42
0.41421356237309503
0
VERTEX
8
0
10
78.105
20
3.2258
30
0
0
VERTEX
8
0
10
80.64500000000001
20
3.2258
30
0
0
SEQEND
0
POLYLINE
66
1
8
1_copper
10
0.0
20
0.0
30
0.0
70
1
0
VERTEX
8
0
10
78.3082
20
3.6322
30
0
0
VERTEX
8
0
10
78.3082
20
8.3058
30
0
0
VERTEX
8
0
10
80.4418
20
8.3058
30
0
0
VERTEX
8
0
10
80.4418
20
7.323168750000001
30
0
0
VERTEX
8
0
10
79.23131562500001
20
6.112684375000001
30
0
42
0.41421356237309503
0
VERTEX
8
0
10
79.23131562500001
20
5.825315625
30
0
0
VERTEX
8
0
10
80.4418
20
4.61483125
30
0
0
VERTEX
8
0
10
80.4418
20
3.6322
30
0
0
SEQEND
0
POLYLINE
66
1
8
1_copper
10
0.0
20
0.0
30
0.0
70
1
0
VERTEX
8
0
10
59.981090625
20
3.2292125
30
0
42
0.36141643969788223
0
VERTEX
8
0
10
60.147200000000005
20
3.4290000000000003
30
0
0
VERTEX
8
0
10
60.147200000000005
20
5.7658000000000005
30
0
0
VERTEX
8
0
10
61.093853125
20
5.7658000000000005
30
0
0
VERTEX
8
0
10
62.432953125000004
20
3.3310750000000002
30
0
42
0.9999999999999999
0
VERTEX
8
0
10
62.789046875000004
20
3.5269250000000003
30
0
0
VERTEX
8
0
10
61.465587500000005
20
5.93321875
30
0
0
VERTEX
8
0
10
62.627684375
20
7.0953156250000005
30
0
42
0.198912367379658
0
VERTEX
8
0
10
62.687200000000004
20
7.239000000000001
30
0
0
VERTEX
8
0
10
62.687200000000004
20
8.509
30
0
42
0.41421356237309503
0
VERTEX
8
0
10
62.484
20
8.712200000000001
30
0
0
VERTEX
8
0
10
59.944
20
8.712200000000001
30
0
42
0.41421356237309503
0
VERTEX
8
0
10
59.7408
20
8.509
30
0
0
VERTEX
8
0
10
59.7408
20
3.4290000000000003
30
0
0
VERTEX
8
0
10
59.743918750000006
20
3.393534375
30
0
0
VERTEX
8
0
10
59.753181250000004
20
3.3591562500000003
30
0
0
VERTEX
8
0
10
59.7683
20
3.326925
30
0
0
VERTEX
8
0
10
59.788812500000006
20
3.297825
30
0
0
VERTEX
8
0
10
59.814090625000006
20
3.2727531250000004
30
0
0
VERTEX
8
0
10
59.843353125
20
3.252475
30
0
0
VERTEX
8
0
10
59.875709375
20
3.23761875
30
0
0
VERTEX
8
0
10
59.910159375000006
20
3.2286375
30
0
0
VERTEX
8
0
10
59.94565
20
3.22580625
30
0
0
SEQEND
0
POLYLINE
66
1
8
1_copper
10
0.0
20
0.0
30
0.0
70
1
0
VERTEX
8
0
10
60.147200000000005
20
6.1722
30
0
0
VERTEX
8
0
10
60.147200000000005
20
8.3058
30
0
0
VERTEX
8
0
10
62.280800000000006
20
8.3058
30
0
0
VERTEX
8
0
10
62.280800000000006
20
7.323168750000001
30
0
0
VERTEX
8
0
10
61.12983125
20
6.1722
30
0
0
SEQEND
0
POLYLINE
66
1
8
1_copper
10
0.0
20
0.0
30
0.0
70
1
0
VERTEX
8
0
10
64.680090625
20
4.1182125
30
0
42
0.36141643969788223
0
VERTEX
8
0
10
64.8462
20
4.3180000000000005
30
0
0
VERTEX
8
0
10
64.8462
20
5.3848
30
0
0
VERTEX
8
0
10
65.786
20
5.3848
30
0
42
0.9999999999999999
0
VERTEX
8
0
10
65.786
20
5.7912
30
0
0
VERTEX
8
0
10
64.8462
20
5.7912
30
0
0
VERTEX
8
0
10
64.8462
20
6.477
30
0
42
0.9999999999999999
0
VERTEX
8
0
10
64.4398
20
6.477
30
0
0
VERTEX
8
0
10
64.4398
20
5.7912
30
0
0
VERTEX
8
0
10
63.627
20
5.7912
30
0
42
0.9234163001787704
0
VERTEX
8
0
10
63.594790625
20
5.38736875
30
0
0
VERTEX
8
0
10
63.627
20
5.3848
30
0
0
VERTEX
8
0
10
64.4398
20
5.3848
30
0
0
VERTEX
8
0
10
64.4398
20
4.3180000000000005
30
0
0
VERTEX
8
0
10
64.44291875
20
4.282534375
30
0
0
VERTEX
8
0
10
64.45218125000001
20
4.24815625
30
0
0
VERTEX
8
0
10
64.46730000000001
20
4.215925
30
0
0
VERTEX
8
0
10
64.4878125
20
4.186825
30
0
0
VERTEX
8
0
10
64.513090625
20
4.161753125000001
30
0
0
VERTEX
8
0
10
64.542353125
20
4.141475
30
0
0
VERTEX
8
0
10
64.574709375
20
4.1266187500000004
30
0
0
VERTEX
8
0
10
64.609159375
20
4.1176375
30
0
0
VERTEX
8
0
10
64.64465
20
4.11480625
30
0
0
SEQEND
0
POLYLINE
66
1
8
1_copper
10
0.0
20
0.0
30
0.0
70
1
0
VERTEX
8
0
10
50.167790625
20
79.375
30
0
0
VERTEX
8
0
10
53.34
20
79.375
30
0
42
0.198912367379658
0
VERTEX
8
0
10
53.789012500000005
20
79.56098750000001
30
0
0
VERTEX
8
0
10
57.413025000000005
20
83.185
30
0
0
VERTEX
8
0
10
60.178125
20
83.185
30
0
42
0.23715177325943038
0
VERTEX
8
0
10
61.061890625000004
20
82.69605
30
0
0
VERTEX
8
0
10
63.398109375000004
20
82.69605
30
0
42
0.9614820847987363
0
VERTEX
8
0
10
63.398109375000004
20
84.94395
30
0
0
VERTEX
8
0
10
61.061890625000004
20
84.94395
30
0
42
0.23715177325943038
0
VERTEX
8
0
10
60.178125
20
84.455
30
0
0
VERTEX
8
0
10
57.150000000000006
20
84.455
30
0
42
0.198912367379658
0
VERTEX
8
0
10
56.700987500000004
20
84.2690125
30
0
0
VERTEX
8
0
10
53.076975000000004
20
80.64500000000001
30
0
0
VERTEX
8
0
10
50.167790625
20
80.64500000000001
30
0
0
VERTEX
8
0
10
49.902790625
20
80.91000000000001
30
0
0
VERTEX
8
0
10
49.157209375
20
80.91000000000001
30
0
0
VERTEX
8
0
10
48.63
20
80.382790625
30
0
0
VERTEX
8
0
10
48.63
20
79.637209375
30
0
0
VERTEX
8
0
10
49.157209375
20
79.11
30
0
0
VERTEX
8
0
10
49.902790625
20
79.11
30
0
0
SEQEND
0
POLYLINE
66
1
8
16_copper
10
0.0
20
0.0
30
0.0
70
1
0
VERTEX
8
0
10
63.486159375
20
82.702978125
30
0
42
0.9243903367892725
0
VERTEX
8
0
10
63.398109375000004
20
84.94395
30
0
0
VERTEX
8
0
10
61.061890625000004
20
84.94395
30
0
42
0.9614820847987363
0
VERTEX
8
0
10
61.061890625000004
20
82.69605
30
0
0
VERTEX
8
0
10
63.398109375000004
20
82.69605
30
0
0
SEQEND
0
POLYLINE
66
1
8
16_copper
10
0.0
20
0.0
30
0.0
70
1
0
VERTEX
8
0
10
50.43
20
79.637209375
30
0
0
VERTEX
8
0
10
50.43
20
80.382790625
30
0
0
VERTEX
8
0
10
49.902790625
20
80.91000000000001
30
0
0
VERTEX
8
0
10
49.157209375
20
80.91000000000001
30
0
0
VERTEX
8
0
10
48.63
20
80.382790625
30
0
0
VERTEX
8
0
10
48.63
20
79.637209375
30
0
0
VERTEX
8
0
10
49.157209375
20
79.11
30
0
0
VERTEX
8
0
10
49.902790625
20
79.11
30
0
0
SEQEND
0
POLYLINE
66
1
8
1_copper
10
0.0
20
0.0
30
0.0
70
1
0
VERTEX
8
0
10
53.451943750000005
20
6.1033375
30
0
42
0.3578057741447831
0
VERTEX
8
0
10
54.102000000000004
20
6.820565625
30
0
0
VERTEX
8
0
10
54.102000000000004
20
8.419434375
30
0
42
0.12312550566479114
0
VERTEX
8
0
10
53.994678125
20
8.773653125000001
30
0
0
VERTEX
8
0
10
56.079525000000004
20
10.858500000000001
30
0
0
VERTEX
8
0
10
62.2935
20
10.858500000000001
30
0
42
0.198912367379658
0
VERTEX
8
0
10
62.742512500000004
20
11.0444875
30
0
0
VERTEX
8
0
10
84.2690125
20
32.5709875
30
0
42
0.198912367379658
0
VERTEX
8
0
10
84.455
20
33.02
30
0
0
VERTEX
8
0
10
84.455
20
64.643
30
0
42
0.1933842361627381
0
VERTEX
8
0
10
84.295215625
20
65.098396875
30
0
0
VERTEX
8
0
10
84.27230312500001
20
65.15706250000001
30
0
42
0.09111091858339672
0
VERTEX
8
0
10
84.1420125
20
65.3460125
30
0
0
VERTEX
8
0
10
77.91901250000001
20
71.5690125
30
0
42
0.198912367379658
0
VERTEX
8
0
10
77.47
20
71.75500000000001
30
0
0
VERTEX
8
0
10
65.03302500000001
20
71.75500000000001
30
0
0
VERTEX
8
0
10
62.865
20
73.92302500000001
30
0
0
VERTEX
8
0
10
62.865
20
75.07605000000001
30
0
0
VERTEX
8
0
10
63.398109375000004
20
75.07605000000001
30
0
42
0.9614820847987363
0
VERTEX
8
0
10
63.398109375000004
20
77.32395000000001
30
0
0
VERTEX
8
0
10
61.061890625000004
20
77.32395000000001
30
0
42
0.9614820847987363
0
VERTEX
8
0
10
61.061890625000004
20
75.07605000000001
30
0
0
VERTEX
8
0
10
61.595000000000006
20
75.07605000000001
30
0
0
VERTEX
8
0
10
61.595000000000006
20
73.66
30
0
42
0.198912367379658
0
VERTEX
8
0
10
61.7809875
20
73.2109875
30
0
0
VERTEX
8
0
10
64.3209875
20
70.67098750000001
30
0
42
0.198912367379658
0
VERTEX
8
0
10
64.77
20
70.485
30
0
0
VERTEX
8
0
10
77.206975
20
70.485
30
0
0
VERTEX
8
0
10
83.078103125
20
64.613871875
30
0
42
0.09874698020545673
0
VERTEX
8
0
10
83.185
20
64.3899
30
0
0
VERTEX
8
0
10
83.185
20
33.283025
30
0
0
VERTEX
8
0
10
62.030475
20
12.1285
30
0
0
VERTEX
8
0
10
55.816500000000005
20
12.1285
30
0
42
0.198912367379658
0
VERTEX
8
0
10
55.3674875
20
11.942512500000001
30
0
0
VERTEX
8
0
10
52.8909875
20
9.4660125
30
0
42
0.198912367379658
0
VERTEX
8
0
10
52.705000000000005
20
9.017000000000001
30
0
0
VERTEX
8
0
10
52.705000000000005
20
8.803218750000001
30
0
42
0.13496225290796576
0
VERTEX
8
0
10
52.578
20
8.419434375
30
0
0
VERTEX
8
0
10
52.578
20
6.820565625
30
0
0
VERTEX
8
0
10
52.5853375
20
6.7460562500000005
30
0
0
VERTEX
8
0
10
52.59994375
20
6.672625
30
0
0
VERTEX
8
0
10
52.621678125
20
6.60098125
30
0
0
VERTEX
8
0
10
52.650328125
20
6.531809375
30
0
0
VERTEX
8
0
10
52.685621875
20
6.46578125
30
0
0
VERTEX
8
0
10
52.727218750000006
20
6.40353125
30
0
0
VERTEX
8
0
10
52.774715625000006
20
6.34565625
30
0
0
VERTEX
8
0
10
52.827656250000004
20
6.2927156250000005
30
0
0
VERTEX
8
0
10
52.88553125
20
6.24521875
30
0
0
VERTEX
8
0
10
52.947781250000006
20
6.2036218750000005
30
0
0
VERTEX
8
0
10
53.013809375
20
6.168328125
30
0
0
VERTEX
8
0
10
53.08298125
20
6.1396781250000005
30
0
0
VERTEX
8
0
10
53.154625
20
6.11794375
30
0
0
VERTEX
8
0
10
53.22805625
20
6.1033375
30
0
0
VERTEX
8
0
10
53.302565625
20
6.096
30
0
0
VERTEX
8
0
10
53.377434375
20
6.096
30
0
0
SEQEND
0
POLYLINE
66
1
8
16_copper
10
0.0
20
0.0
30
0.0
70
1
0
VERTEX
8
0
10
63.486159375
20
75.082978125
30
0
42
0.9243903367892725
0
VERTEX
8
0
10
63.398109375000004
20
77.32395000000001
30
0
0
VERTEX
8
0
10
61.061890625000004
20
77.32395000000001
30
0
42
0.9614820847987363
0
VERTEX
8
0
10
61.061890625000004
20
75.07605000000001
30
0
0
VERTEX
8
0
10
63.398109375000004
20
75.07605000000001
30
0
0
SEQEND
0
POLYLINE
66
1
8
16_copper
10
0.0
20
0.0
30
0.0
70
1
0
VERTEX
8
0
10
53.451943750000005
20
6.1033375
30
0
42
0.3578057741447831
0
VERTEX
8
0
10
54.102000000000004
20
6.820565625
30
0
0
VERTEX
8
0
10
54.102000000000004
20
8.419434375
30
0
42
0.9520795017710562
0
VERTEX
8
0
10
52.578
20
8.419434375
30
0
0
VERTEX
8
0
10
52.578
20
6.820565625
30
0
0
VERTEX
8
0
10
52.5853375
20
6.7460562500000005
30
0
0
VERTEX
8
0
10
52.59994375
20
6.672625
30
0
0
VERTEX
8
0
10
52.621678125
20
6.60098125
30
0
0
VERTEX
8
0
10
52.650328125
20
6.531809375
30
0
0
VERTEX
8
0
10
52.685621875
20
6.46578125
30
0
0
VERTEX
8
0
10
52.727218750000006
20
6.40353125
30
0
0
VERTEX
8
0
10
52.774715625000006
20
6.34565625
30
0
0
VERTEX
8
0
10
52.827656250000004
20
6.2927156250000005
30
0
0
VERTEX
8
0
10
52.88553125
20
6.24521875
30
0
0
VERTEX
8
0
10
52.947781250000006
20
6.2036218750000005
30
0
0
VERTEX
8
0
10
53.013809375
20
6.168328125
30
0
0
VERTEX
8
0
10
53.08298125
20
6.1396781250000005
30
0
0
VERTEX
8
0
10
53.154625
20
6.11794375
30
0
0
VERTEX
8
0
10
53.22805625
20
6.1033375
30
0
0
VERTEX
8
0
10
53.302565625
20
6.096
30
0
0
VERTEX
8
0
10
53.377434375
20
6.096
30
0
0
SEQEND
0
POLYLINE
66
1
8
1_copper
10
0.0
20
0.0
30
0.0
70
1
0
VERTEX
8
0
10
72.62894375
20
6.1033375
30
0
42
0.3578057741447831
0
VERTEX
8
0
10
73.27900000000001
20
6.820565625
30
0
0
VERTEX
8
0
10
73.27900000000001
20
8.419434375
30
0
42
0.13496225290796576
0
VERTEX
8
0
10
73.152
20
8.803218750000001
30
0
0
VERTEX
8
0
10
73.152
20
13.833975
30
0
0
VERTEX
8
0
10
86.80901250000001
20
27.490987500000003
30
0
42
0.198912367379658
0
VERTEX
8
0
10
86.995
20
27.94
30
0
0
VERTEX
8
0
10
86.995
20
71.12
30
0
42
0.198912367379658
0
VERTEX
8
0
10
86.80901250000001
20
71.5690125
30
0
0
VERTEX
8
0
10
81.72901250000001
20
76.6490125
30
0
42
0.198912367379658
0
VERTEX
8
0
10
81.28
20
76.83500000000001
30
0
0
VERTEX
8
0
10
79.52187500000001
20
76.83500000000001
30
0
42
0.23715177325943038
0
VERTEX
8
0
10
78.638109375
20
77.32395000000001
30
0
0
VERTEX
8
0
10
76.301890625
20
77.32395000000001
30
0
42
0.9614820847987363
0
VERTEX
8
0
10
76.301890625
20
75.07605000000001
30
0
0
VERTEX
8
0
10
78.638109375
20
75.07605000000001
30
0
42
0.23715177325943038
0
VERTEX
8
0
10
79.52187500000001
20
75.565
30
0
0
VERTEX
8
0
10
81.016975
20
75.565
30
0
0
VERTEX
8
0
10
85.72500000000001
20
70.856975
30
0
0
VERTEX
8
0
10
85.72500000000001
20
28.203025
30
0
0
VERTEX
8
0
10
72.0679875
20
14.546012500000002
30
0
42
0.198912367379658
0
VERTEX
8
0
10
71.882
20
14.097000000000001
30
0
0
VERTEX
8
0
10
71.882
20
8.803218750000001
30
0
42
0.13496225290796576
0
VERTEX
8
0
10
71.75500000000001
20
8.419434375
30
0
0
VERTEX
8
0
10
71.75500000000001
20
6.820565625
30
0
0
VERTEX
8
0
10
71.7623375
20
6.7460562500000005
30
0
0
VERTEX
8
0
10
71.77694375
20
6.672625
30
0
0
VERTEX
8
0
10
71.79867812500001
20
6.60098125
30
0
0
VERTEX
8
0
10
71.82732812500001
20
6.531809375
30
0
0
VERTEX
8
0
10
71.862621875
20
6.46578125
30
0
0
VERTEX
8
0
10
71.90421875
20
6.40353125
30
0
0
VERTEX
8
0
10
71.951715625
20
6.34565625
30
0
0
VERTEX
8
0
10
72.00465625
20
6.2927156250000005
30
0
0
VERTEX
8
0
10
72.06253125
20
6.24521875
30
0
0
VERTEX
8
0
10
72.12478125
20
6.2036218750000005
30
0
0
VERTEX
8
0
10
72.190809375
20
6.168328125
30
0
0
VERTEX
8
0
10
72.25998125000001
20
6.1396781250000005
30
0
0
VERTEX
8
0
10
72.331625
20
6.11794375
30
0
0
VERTEX
8
0
10
72.40505625
20
6.1033375
30
0
0
VERTEX
8
0
10
72.479565625
20
6.096
30
0
0
VERTEX
8
0
10
72.554434375
20
6.096
30
0
0
SEQEND
0
POLYLINE
66
1
8
16_copper
10
0.0
20
0.0
30
0.0
70
1
0
VERTEX
8
0
10
78.72615937500001
20
75.082978125
30
0
42
0.9243903367892725
0
VERTEX
8
0
10
78.638109375
20
77.32395000000001
30
0
0
VERTEX
8
0
10
76.301890625
20
77.32395000000001
30
0
42
0.9614820847987363
0
VERTEX
8
0
10
76.301890625
20
75.07605000000001
30
0
0
VERTEX
8
0
10
78.638109375
20
75.07605000000001
30
0
0
SEQEND
0
POLYLINE
66
1
8
16_copper
10
0.0
20
0.0
30
0.0
70
1
0
VERTEX
8
0
10
72.62894375
20
6.1033375
30
0
42
0.3578057741447831
0
VERTEX
8
0
10
73.27900000000001
20
6.820565625
30
0
0
VERTEX
8
0
10
73.27900000000001
20
8.419434375
30
0
42
0.9520795017710562
0
VERTEX
8
0
10
71.75500000000001
20
8.419434375
30
0
0
VERTEX
8
0
10
71.75500000000001
20
6.820565625
30
0
0
VERTEX
8
0
10
71.7623375
20
6.7460562500000005
30
0
0
VERTEX
8
0
10
71.77694375
20
6.672625
30
0
0
VERTEX
8
0
10
71.79867812500001
20
6.60098125
30
0
0
VERTEX
8
0
10
71.82732812500001
20
6.531809375
30
0
0
VERTEX
8
0
10
71.862621875
20
6.46578125
30
0
0
VERTEX
8
0
10
71.90421875
20
6.40353125
30
0
0
VERTEX
8
0
10
71.951715625
20
6.34565625
30
0
0
VERTEX
8
0
10
72.00465625
20
6.2927156250000005
30
0
0
VERTEX
8
0
10
72.06253125
20
6.24521875
30
0
0
VERTEX
8
0
10
72.12478125
20
6.2036218750000005
30
0
0
VERTEX
8
0
10
72.190809375
20
6.168328125
30
0
0
VERTEX
8
0
10
72.25998125000001
20
6.1396781250000005
30
0
0
VERTEX
8
0
10
72.331625
20
6.11794375
30
0
0
VERTEX
8
0
10
72.40505625
20
6.1033375
30
0
0
VERTEX
8
0
10
72.479565625
20
6.096
30
0
0
VERTEX
8
0
10
72.554434375
20
6.096
30
0
0
SEQEND
0
POLYLINE
66
1
8
1_copper
10
0.0
20
0.0
30
0.0
70
1
0
VERTEX
8
0
10
82.587090625
20
4.1182125
30
0
42
0.36141643969788223
0
VERTEX
8
0
10
82.7532
20
4.3180000000000005
30
0
0
VERTEX
8
0
10
82.7532
20
5.3848
30
0
0
VERTEX
8
0
10
83.693
20
5.3848
30
0
42
0.9999999999999999
0
VERTEX
8
0
10
83.693
20
5.7912
30
0
0
VERTEX
8
0
10
82.7532
20
5.7912
30
0
0
VERTEX
8
0
10
82.7532
20
6.604
30
0
42
0.9999999999999999
0
VERTEX
8
0
10
82.3468
20
6.604
30
0
0
VERTEX
8
0
10
82.3468
20
5.7912
30
0
0
VERTEX
8
0
10
81.534
20
5.7912
30
0
42
0.9234163001787704
0
VERTEX
8
0
10
81.501790625
20
5.38736875
30
0
0
VERTEX
8
0
10
81.534
20
5.3848
30
0
0
VERTEX
8
0
10
82.3468
20
5.3848
30
0
0
VERTEX
8
0
10
82.3468
20
4.3180000000000005
30
0
0
VERTEX
8
0
10
82.34991875
20
4.282534375
30
0
0
VERTEX
8
0
10
82.35918125
20
4.24815625
30
0
0
VERTEX
8
0
10
82.3743
20
4.215925
30
0
0
VERTEX
8
0
10
82.3948125
20
4.186825
30
0
0
VERTEX
8
0
10
82.420090625
20
4.161753125000001
30
0
0
VERTEX
8
0
10
82.449353125
20
4.141475
30
0
0
VERTEX
8
0
10
82.48170937500001
20
4.1266187500000004
30
0
0
VERTEX
8
0
10
82.516159375
20
4.1176375
30
0
0
VERTEX
8
0
10
82.55165000000001
20
4.11480625
30
0
0
SEQEND
0
POLYLINE
66
1
8
1_copper
10
0.0
20
0.0
30
0.0
70
1
0
VERTEX
8
0
10
7.630103125000001
20
79.8076875
30
0
42
0.18597604843350257
0
VERTEX
8
0
10
7.763684375
20
79.866315625
30
0
0
VERTEX
8
0
10
9.033684375
20
81.13631562500001
30
0
42
0.198912367379658
0
VERTEX
8
0
10
9.093200000000001
20
81.28
30
0
0
VERTEX
8
0
10
9.093200000000001
20
83.82000000000001
30
0
42
0.198912367379658
0
VERTEX
8
0
10
9.033684375
20
83.963684375
30
0
0
VERTEX
8
0
10
7.763684375
20
85.23368437500001
30
0
42
0.198912367379658
0
VERTEX
8
0
10
7.62
20
85.2932
30
0
0
VERTEX
8
0
10
5.08
20
85.2932
30
0
42
0.41421356237309503
0
VERTEX
8
0
10
4.8768
20
85.09
30
0
0
VERTEX
8
0
10
4.8768
20
80.01
30
0
42
0.41421356237309503
0
VERTEX
8
0
10
5.08
20
79.80680000000001
30
0
0
VERTEX
8
0
10
7.62
20
79.80680000000001
30
0
0
SEQEND
0
POLYLINE
66
1
8
1_copper
10
0.0
20
0.0
30
0.0
70
1
0
VERTEX
8
0
10
5.2832
20
80.2132
30
0
0
VERTEX
8
0
10
5.2832
20
84.88680000000001
30
0
0
VERTEX
8
0
10
7.53583125
20
84.88680000000001
30
0
0
VERTEX
8
0
10
8.6868
20
83.73583125
30
0
0
VERTEX
8
0
10
8.6868
20
81.36416875
30
0
0
VERTEX
8
0
10
7.53583125
20
80.2132
30
0
0
SEQEND
0
POLYLINE
66
1
8
1_copper
10
0.0
20
0.0
30
0.0
70
1
0
VERTEX
8
0
10
64.254
20
45.407684375
30
0
0
VERTEX
8
0
10
64.254
20
45.5168
30
0
0
VERTEX
8
0
10
67.31
20
45.5168
30
0
42
0.22783779158266837
0
VERTEX
8
0
10
67.468671875
20
45.5930625
30
0
0
VERTEX
8
0
10
71.930221875
20
51.17
30
0
0
VERTEX
8
0
10
73.29
20
51.17
30
0
0
VERTEX
8
0
10
73.29
20
52.970000000000006
30
0
0
VERTEX
8
0
10
71.49000000000001
20
52.970000000000006
30
0
0
VERTEX
8
0
10
71.49000000000001
20
51.270278125000004
30
0
0
VERTEX
8
0
10
67.2123375
20
45.9232
30
0
0
VERTEX
8
0
10
64.254
20
45.9232
30
0
0
VERTEX
8
0
10
64.254
20
46.032315625
30
0
0
VERTEX
8
0
10
63.812315625000004
20
46.474000000000004
30
0
0
VERTEX
8
0
10
63.187684375
20
46.474000000000004
30
0
0
VERTEX
8
0
10
62.746
20
46.032315625
30
0
0
VERTEX
8
0
10
62.746
20
45.407684375
30
0
0
VERTEX
8
0
10
63.187684375
20
44.966
30
0
0
VERTEX
8
0
10
63.812315625000004
20
44.966
30
0
0
SEQEND
0
POLYLINE
66
1
8
1_copper
10
0.0
20
0.0
30
0.0
70
1
0
VERTEX
8
0
10
15.9512
20
12.4054125
30
0
0
VERTEX
8
0
10
15.9512
20
12.9945875
30
0
0
VERTEX
8
0
10
15.5345875
20
13.411200000000001
30
0
0
VERTEX
8
0
10
14.945412500000002
20
13.411200000000001
30
0
0
VERTEX
8
0
10
14.5288
20
12.9945875
30
0
0
VERTEX
8
0
10
14.5288
20
12.4054125
30
0
0
VERTEX
8
0
10
14.945412500000002
20
11.988800000000001
30
0
0
VERTEX
8
0
10
15.5345875
20
11.988800000000001
30
0
0
SEQEND
0
POLYLINE
66
1
8
16_copper
10
0.0
20
0.0
30
0.0
70
1
0
VERTEX
8
0
10
73.29
20
52.970000000000006
30
0
0
VERTEX
8
0
10
71.49000000000001
20
52.970000000000006
30
0
0
VERTEX
8
0
10
71.49000000000001
20
51.17
30
0
0
VERTEX
8
0
10
73.29
20
51.17
30
0
0
SEQEND
0
POLYLINE
66
1
8
16_copper
10
0.0
20
0.0
30
0.0
70
1
0
VERTEX
8
0
10
15.9512
20
12.4054125
30
0
0
VERTEX
8
0
10
15.9512
20
12.9945875
30
0
0
VERTEX
8
0
10
15.5345875
20
13.411200000000001
30
0
0
VERTEX
8
0
10
15.443200000000001
20
13.411200000000001
30
0
0
VERTEX
8
0
10
15.443200000000001
20
15.24
30
0
42
0.198912367379658
0
VERTEX
8
0
10
15.383684375000001
20
15.383684375000001
30
0
0
VERTEX
8
0
10
14.113684375
20
16.653684375
30
0
42
0.198912367379658
0
VERTEX
8
0
10
13.97
20
16.7132
30
0
0
VERTEX
8
0
10
12.784168750000001
20
16.7132
30
0
0
VERTEX
8
0
10
9.093200000000001
20
20.40416875
30
0
0
VERTEX
8
0
10
9.093200000000001
20
29.965412500000003
30
0
0
VERTEX
8
0
10
26.588509375
20
45.5168
30
0
0
VERTEX
8
0
10
62.746
20
45.5168
30
0
0
VERTEX
8
0
10
62.746
20
45.407684375
30
0
0
VERTEX
8
0
10
63.187684375
20
44.966
30
0
0
VERTEX
8
0
10
63.812315625000004
20
44.966
30
0
0
VERTEX
8
0
10
64.254
20
45.407684375
30
0
0
VERTEX
8
0
10
64.254
20
46.032315625
30
0
0
VERTEX
8
0
10
63.812315625000004
20
46.474000000000004
30
0
0
VERTEX
8
0
10
63.187684375
20
46.474000000000004
30
0
0
VERTEX
8
0
10
62.746
20
46.032315625
30
0
0
VERTEX
8
0
10
62.746
20
45.9232
30
0
0
VERTEX
8
0
10
26.51125
20
45.9232
30
0
42
0.1836856211561756
0
VERTEX
8
0
10
26.376250000000002
20
45.871875
30
0
0
VERTEX
8
0
10
8.755
20
30.208540625
30
0
42
0.21422836025367417
0
VERTEX
8
0
10
8.6868
20
30.056665625
30
0
0
VERTEX
8
0
10
8.6868
20
20.32
30
0
42
0.198912367379658
0
VERTEX
8
0
10
8.746315625000001
20
20.176315625
30
0
0
VERTEX
8
0
10
12.556315625
20
16.366315625000002
30
0
42
0.198912367379658
0
VERTEX
8
0
10
12.700000000000001
20
16.3068
30
0
0
VERTEX
8
0
10
13.88583125
20
16.3068
30
0
0
VERTEX
8
0
10
15.036800000000001
20
15.15583125
30
0
0
VERTEX
8
0
10
15.036800000000001
20
13.411200000000001
30
0
0
VERTEX
8
0
10
14.945412500000002
20
13.411200000000001
30
0
0
VERTEX
8
0
10
14.5288
20
12.9945875
30
0
0
VERTEX
8
0
10
14.5288
20
12.4054125
30
0
0
VERTEX
8
0
10
14.945412500000002
20
11.988800000000001
30
0
0
VERTEX
8
0
10
15.5345875
20
11.988800000000001
30
0
0
SEQEND
0
POLYLINE
66
1
8
1_copper
10
0.0
20
0.0
30
0.0
70
1
0
VERTEX
8
0
10
24.884
20
21.277684375
30
0
0
VERTEX
8
0
10
24.884
20
21.902315625
30
0
0
VERTEX
8
0
10
24.442315625000003
20
22.344
30
0
0
VERTEX
8
0
10
24.3332
20
22.344
30
0
0
VERTEX
8
0
10
24.3332
20
35.47583125
30
0
0
VERTEX
8
0
10
25.484168750000002
20
36.6268
30
0
0
VERTEX
8
0
10
40.59583125
20
36.6268
30
0
0
VERTEX
8
0
10
42.57144375
20
34.651190625
30
0
0
VERTEX
8
0
10
42.506
20
34.585746875
30
0
0
VERTEX
8
0
10
42.506
20
33.994253125
30
0
0
VERTEX
8
0
10
42.924253125
20
33.576
30
0
0
VERTEX
8
0
10
43.515746875000005
20
33.576
30
0
0
VERTEX
8
0
10
43.934000000000005
20
33.994253125
30
0
0
VERTEX
8
0
10
43.934000000000005
20
34.585746875
30
0
0
VERTEX
8
0
10
43.515746875000005
20
35.004000000000005
30
0
0
VERTEX
8
0
10
42.924253125
20
35.004000000000005
30
0
0
VERTEX
8
0
10
42.8588125
20
34.938559375000004
30
0
0
VERTEX
8
0
10
40.823684375
20
36.973684375000005
30
0
42
0.198912367379658
0
VERTEX
8
0
10
40.68
20
37.0332
30
0
0
VERTEX
8
0
10
25.400000000000002
20
37.0332
30
0
42
0.198912367379658
0
VERTEX
8
0
10
25.256315625000003
20
36.973684375000005
30
0
0
VERTEX
8
0
10
23.986315625
20
35.703684375
30
0
42
0.198912367379658
0
VERTEX
8
0
10
23.9268
20
35.56
30
0
0
VERTEX
8
0
10
23.9268
20
22.344
30
0
0
VERTEX
8
0
10
23.817684375000002
20
22.344
30
0
0
VERTEX
8
0
10
23.376
20
21.902315625
30
0
0
VERTEX
8
0
10
23.376
20
21.277684375
30
0
0
VERTEX
8
0
10
23.817684375000002
20
20.836000000000002
30
0
0
VERTEX
8
0
10
24.442315625000003
20
20.836000000000002
30
0
0
SEQEND
0
POLYLINE
66
1
8
1_copper
10
0.0
20
0.0
30
0.0
70
1
0
VERTEX
8
0
10
26.1112
20
12.4054125
30
0
0
VERTEX
8
0
10
26.1112
20
12.9945875
30
0
0
VERTEX
8
0
10
25.6945875
20
13.411200000000001
30
0
0
VERTEX
8
0
10
25.1054125
20
13.411200000000001
30
0
0
VERTEX
8
0
10
24.6888
20
12.9945875
30
0
0
VERTEX
8
0
10
24.6888
20
12.4054125
30
0
0
VERTEX
8
0
10
25.1054125
20
11.988800000000001
30
0
0
VERTEX
8
0
10
25.6945875
20
11.988800000000001
30
0
0
SEQEND
0
POLYLINE
66
1
8
16_copper
10
0.0
20
0.0
30
0.0
70
1
0
VERTEX
8
0
10
43.934000000000005
20
33.994253125
30
0
0
VERTEX
8
0
10
43.934000000000005
20
34.585746875
30
0
0
VERTEX
8
0
10
43.515746875000005
20
35.004000000000005
30
0
0
VERTEX
8
0
10
42.924253125
20
35.004000000000005
30
0
0
VERTEX
8
0
10
42.506
20
34.585746875
30
0
0
VERTEX
8
0
10
42.506
20
33.994253125
30
0
0
VERTEX
8
0
10
42.924253125
20
33.576
30
0
0
VERTEX
8
0
10
43.515746875000005
20
33.576
30
0
0
SEQEND
0
POLYLINE
66
1
8
16_copper
10
0.0
20
0.0
30
0.0
70
1
0
VERTEX
8
0
10
26.1112
20
12.4054125
30
0
0
VERTEX
8
0
10
26.1112
20
12.9945875
30
0
0
VERTEX
8
0
10
25.6945875
20
13.411200000000001
30
0
0
VERTEX
8
0
10
25.6032
20
13.411200000000001
30
0
0
VERTEX
8
0
10
25.6032
20
17.78
30
0
42
0.198912367379658
0
VERTEX
8
0
10
25.543684375
20
17.923684375
30
0
0
VERTEX
8
0
10
24.3332
20
19.13416875
30
0
0
VERTEX
8
0
10
24.3332
20
20.836000000000002
30
0
0
VERTEX
8
0
10
24.442315625000003
20
20.836000000000002
30
0
0
VERTEX
8
0
10
24.884
20
21.277684375
30
0
0
VERTEX
8
0
10
24.884
20
21.902315625
30
0
0
VERTEX
8
0
10
24.442315625000003
20
22.344
30
0
0
VERTEX
8
0
10
23.817684375000002
20
22.344
30
0
0
VERTEX
8
0
10
23.376
20
21.902315625
30
0
0
VERTEX
8
0
10
23.376
20
21.277684375
30
0
0
VERTEX
8
0
10
23.817684375000002
20
20.836000000000002
30
0
0
VERTEX
8
0
10
23.9268
20
20.836000000000002
30
0
0
VERTEX
8
0
10
23.9268
20
19.05
30
0
42
0.198912367379658
0
VERTEX
8
0
10
23.986315625
20
18.906315625
30
0
0
VERTEX
8
0
10
25.1968
20
17.69583125
30
0
0
VERTEX
8
0
10
25.1968
20
13.411200000000001
30
0
0
VERTEX
8
0
10
25.1054125
20
13.411200000000001
30
0
0
VERTEX
8
0
10
24.6888
20
12.9945875
30
0
0
VERTEX
8
0
10
24.6888
20
12.4054125
30
0
0
VERTEX
8
0
10
25.1054125
20
11.988800000000001
30
0
0
VERTEX
8
0
10
25.6945875
20
11.988800000000001
30
0
0
SEQEND
0
POLYLINE
66
1
8
1_copper
10
0.0
20
0.0
30
0.0
70
1
0
VERTEX
8
0
10
28.694000000000003
20
21.277684375
30
0
0
VERTEX
8
0
10
28.694000000000003
20
21.902315625
30
0
0
VERTEX
8
0
10
28.252315625
20
22.344
30
0
0
VERTEX
8
0
10
28.1432
20
22.344
30
0
0
VERTEX
8
0
10
28.1432
20
24.045831250000003
30
0
0
VERTEX
8
0
10
30.56416875
20
26.466800000000003
30
0
0
VERTEX
8
0
10
40.64
20
26.466800000000003
30
0
42
0.198912367379658
0
VERTEX
8
0
10
40.783684375
20
26.526315625000002
30
0
0
VERTEX
8
0
10
43.363684375000005
20
29.106315625
30
0
42
0.198912367379658
0
VERTEX
8
0
10
43.4232
20
29.25
30
0
0
VERTEX
8
0
10
43.4232
20
30.366000000000003
30
0
0
VERTEX
8
0
10
43.515746875000005
20
30.366000000000003
30
0
0
VERTEX
8
0
10
43.934000000000005
20
30.784253125000003
30
0
0
VERTEX
8
0
10
43.934000000000005
20
31.375746875
30
0
0
VERTEX
8
0
10
43.515746875000005
20
31.794
30
0
0
VERTEX
8
0
10
42.924253125
20
31.794
30
0
0
VERTEX
8
0
10
42.506
20
31.375746875
30
0
0
VERTEX
8
0
10
42.506
20
30.784253125000003
30
0
0
VERTEX
8
0
10
42.924253125
20
30.366000000000003
30
0
0
VERTEX
8
0
10
43.0168
20
30.366000000000003
30
0
0
VERTEX
8
0
10
43.0168
20
29.33416875
30
0
0
VERTEX
8
0
10
40.555831250000004
20
26.8732
30
0
0
VERTEX
8
0
10
30.48
20
26.8732
30
0
42
0.198912367379658
0
VERTEX
8
0
10
30.336315625
20
26.813684375
30
0
0
VERTEX
8
0
10
27.796315625000002
20
24.273684375000002
30
0
42
0.198912367379658
0
VERTEX
8
0
10
27.736800000000002
20
24.130000000000003
30
0
0
VERTEX
8
0
10
27.736800000000002
20
22.344
30
0
0
VERTEX
8
0
10
27.627684375
20
22.344
30
0
0
VERTEX
8
0
10
27.186
20
21.902315625
30
0
0
VERTEX
8
0
10
27.186
20
21.277684375
30
0
0
VERTEX
8
0
10
27.627684375
20
20.836000000000002
30
0
0
VERTEX
8
0
10
28.252315625
20
20.836000000000002
30
0
0
SEQEND
0
POLYLINE
66
1
8
1_copper
10
0.0
20
0.0
30
0.0
70
1
0
VERTEX
8
0
10
28.651200000000003
20
12.4054125
30
0
0
VERTEX
8
0
10
28.651200000000003
20
12.9945875
30
0
0
VERTEX
8
0
10
28.2345875
20
13.411200000000001
30
0
0
VERTEX
8
0
10
27.645412500000003
20
13.411200000000001
30
0
0
VERTEX
8
0
10
27.2288
20
12.9945875
30
0
0
VERTEX
8
0
10
27.2288
20
12.4054125
30
0
0
VERTEX
8
0
10
27.645412500000003
20
11.988800000000001
30
0
0
VERTEX
8
0
10
28.2345875
20
11.988800000000001
30
0
0
SEQEND
0
POLYLINE
66
1
8
16_copper
10
0.0
20
0.0
30
0.0
70
1
0
VERTEX
8
0
10
43.934000000000005
20
30.784253125000003
30
0
0
VERTEX
8
0
10
43.934000000000005
20
31.375746875
30
0
0
VERTEX
8
0
10
43.515746875000005
20
31.794
30
0
0
VERTEX
8
0
10
42.924253125
20
31.794
30
0
0
VERTEX
8
0
10
42.506
20
31.375746875
30
0
0
VERTEX
8
0
10
42.506
20
30.784253125000003
30
0
0
VERTEX
8
0
10
42.924253125
20
30.366000000000003
30
0
0
VERTEX
8
0
10
43.515746875000005
20
30.366000000000003
30
0
0
SEQEND
0
POLYLINE
66
1
8
16_copper
10
0.0
20
0.0
30
0.0
70
1
0
VERTEX
8
0
10
28.651200000000003
20
12.4054125
30
0
0
VERTEX
8
0
10
28.651200000000003
20
12.9945875
30
0
0
VERTEX
8
0
10
28.2345875
20
13.411200000000001
30
0
0
VERTEX
8
0
10
28.1432
20
13.411200000000001
30
0
0
VERTEX
8
0
10
28.1432
20
20.836000000000002
30
0
0
VERTEX
8
0
10
28.252315625
20
20.836000000000002
30
0
0
VERTEX
8
0
10
28.694000000000003
20
21.277684375
30
0
0
VERTEX
8
0
10
28.694000000000003
20
21.902315625
30
0
0
VERTEX
8
0
10
28.252315625
20
22.344
30
0
0
VERTEX
8
0
10
27.627684375
20
22.344
30
0
0
VERTEX
8
0
10
27.186
20
21.902315625
30
0
0
VERTEX
8
0
10
27.186
20
21.277684375
30
0
0
VERTEX
8
0
10
27.627684375
20
20.836000000000002
30
0
0
VERTEX
8
0
10
27.736800000000002
20
20.836000000000002
30
0
0
VERTEX
8
0
10
27.736800000000002
20
13.411200000000001
30
0
0
VERTEX
8
0
10
27.645412500000003
20
13.411200000000001
30
0
0
VERTEX
8
0
10
27.2288
20
12.9945875
30
0
0
VERTEX
8
0
10
27.2288
20
12.4054125
30
0
0
VERTEX
8
0
10
27.645412500000003
20
11.988800000000001
30
0
0
VERTEX
8
0
10
28.2345875
20
11.988800000000001
30
0
0
SEQEND
0
POLYLINE
66
1
8
1_copper
10
0.0
20
0.0
30
0.0
70
1
0
VERTEX
8
0
10
65.524
20
23.817684375000002
30
0
0
VERTEX
8
0
10
65.524
20
24.442315625000003
30
0
0
VERTEX
8
0
10
65.082315625
20
24.884
30
0
0
VERTEX
8
0
10
64.9732
20
24.884
30
0
0
VERTEX
8
0
10
64.9732
20
38.008746875
30
0
0
VERTEX
8
0
10
76.33500000000001
20
48.108125
30
0
42
0.21422836025367417
0
VERTEX
8
0
10
76.4032
20
48.260000000000005
30
0
0
VERTEX
8
0
10
76.4032
20
54.61
30
0
42
0.198912367379658
0
VERTEX
8
0
10
76.34368437500001
20
54.753684375000006
30
0
0
VERTEX
8
0
10
73.803684375
20
57.293684375000005
30
0
42
0.198912367379658
0
VERTEX
8
0
10
73.66
20
57.3532
30
0
0
VERTEX
8
0
10
73.29
20
57.3532
30
0
0
VERTEX
8
0
10
73.29
20
57.522790625000006
30
0
0
VERTEX
8
0
10
72.76279062500001
20
58.050000000000004
30
0
0
VERTEX
8
0
10
72.01720937500001
20
58.050000000000004
30
0
0
VERTEX
8
0
10
71.49000000000001
20
57.522790625000006
30
0
0
VERTEX
8
0
10
71.49000000000001
20
56.777209375000005
30
0
0
VERTEX
8
0
10
72.01720937500001
20
56.25
30
0
0
VERTEX
8
0
10
72.76279062500001
20
56.25
30
0
0
VERTEX
8
0
10
73.29
20
56.777209375000005
30
0
0
VERTEX
8
0
10
73.29
20
56.9468
30
0
0
VERTEX
8
0
10
73.57583125000001
20
56.9468
30
0
0
VERTEX
8
0
10
75.99680000000001
20
54.52583125
30
0
0
VERTEX
8
0
10
75.99680000000001
20
48.351253125
30
0
0
VERTEX
8
0
10
64.635
20
38.251875
30
0
42
0.21422836025367417
0
VERTEX
8
0
10
64.5668
20
38.1
30
0
0
VERTEX
8
0
10
64.5668
20
24.884
30
0
0
VERTEX
8
0
10
64.457684375
20
24.884
30
0
0
VERTEX
8
0
10
64.016
20
24.442315625000003
30
0
0
VERTEX
8
0
10
64.016
20
23.817684375000002
30
0
0
VERTEX
8
0
10
64.457684375
20
23.376
30
0
0
VERTEX
8
0
10
65.082315625
20
23.376
30
0
0
SEQEND
0
POLYLINE
66
1
8
1_copper
10
0.0
20
0.0
30
0.0
70
1
0
VERTEX
8
0
10
13.411200000000001
20
9.8654125
30
0
0
VERTEX
8
0
10
13.411200000000001
20
10.4545875
30
0
0
VERTEX
8
0
10
12.9945875
20
10.8712
30
0
0
VERTEX
8
0
10
12.4054125
20
10.8712
30
0
0
VERTEX
8
0
10
11.988800000000001
20
10.4545875
30
0
0
VERTEX
8
0
10
11.988800000000001
20
9.8654125
30
0
0
VERTEX
8
0
10
12.4054125
20
9.4488
30
0
0
VERTEX
8
0
10
12.9945875
20
9.4488
30
0
0
SEQEND
0
POLYLINE
66
1
8
16_copper
10
0.0
20
0.0
30
0.0
70
1
0
VERTEX
8
0
10
73.29
20
56.777209375000005
30
0
0
VERTEX
8
0
10
73.29
20
57.522790625000006
30
0
0
VERTEX
8
0
10
72.76279062500001
20
58.050000000000004
30
0
0
VERTEX
8
0
10
72.01720937500001
20
58.050000000000004
30
0
0
VERTEX
8
0
10
71.49000000000001
20
57.522790625000006
30
0
0
VERTEX
8
0
10
71.49000000000001
20
56.777209375000005
30
0
0
VERTEX
8
0
10
72.01720937500001
20
56.25
30
0
0
VERTEX
8
0
10
72.76279062500001
20
56.25
30
0
0
SEQEND
0
POLYLINE
66
1
8
16_copper
10
0.0
20
0.0
30
0.0
70
1
0
VERTEX
8
0
10
44.460103125
20
2.2868875
30
0
42
0.18597604843350257
0
VERTEX
8
0
10
44.593684375
20
2.345515625
30
0
0
VERTEX
8
0
10
46.625684375
20
4.377515625
30
0
42
0.198912367379658
0
VERTEX
8
0
10
46.6852
20
4.5212
30
0
0
VERTEX
8
0
10
46.6852
20
9.567831250000001
30
0
0
VERTEX
8
0
10
53.42416875
20
16.3068
30
0
0
VERTEX
8
0
10
57.150000000000006
20
16.3068
30
0
42
0.198912367379658
0
VERTEX
8
0
10
57.293684375000005
20
16.366315625000002
30
0
0
VERTEX
8
0
10
64.380528125
20
23.453159375000002
30
0
0
VERTEX
8
0
10
64.457684375
20
23.376
30
0
0
VERTEX
8
0
10
65.082315625
20
23.376
30
0
0
VERTEX
8
0
10
65.524
20
23.817684375000002
30
0
0
VERTEX
8
0
10
65.524
20
24.442315625000003
30
0
0
VERTEX
8
0
10
65.082315625
20
24.884
30
0
0
VERTEX
8
0
10
64.457684375
20
24.884
30
0
0
VERTEX
8
0
10
64.016
20
24.442315625000003
30
0
0
VERTEX
8
0
10
64.016
20
23.817684375000002
30
0
0
VERTEX
8
0
10
64.093159375
20
23.740528125
30
0
0
VERTEX
8
0
10
57.06583125
20
16.7132
30
0
0
VERTEX
8
0
10
53.34
20
16.7132
30
0
42
0.198912367379658
0
VERTEX
8
0
10
53.196315625000004
20
16.653684375
30
0
0
VERTEX
8
0
10
46.338315625
20
9.795684375
30
0
42
0.198912367379658
0
VERTEX
8
0
10
46.278800000000004
20
9.652000000000001
30
0
0
VERTEX
8
0
10
46.278800000000004
20
4.60536875
30
0
0
VERTEX
8
0
10
44.36583125
20
2.6924
30
0
0
VERTEX
8
0
10
15.37496875
20
2.6924
30
0
0
VERTEX
8
0
10
12.9032
20
5.16416875
30
0
0
VERTEX
8
0
10
12.9032
20
9.4488
30
0
0
VERTEX
8
0
10
12.9945875
20
9.4488
30
0
0
VERTEX
8
0
10
13.411200000000001
20
9.8654125
30
0
0
VERTEX
8
0
10
13.411200000000001
20
10.4545875
30
0
0
VERTEX
8
0
10
12.9945875
20
10.8712
30
0
0
VERTEX
8
0
10
12.4054125
20
10.8712
30
0
0
VERTEX
8
0
10
11.988800000000001
20
10.4545875
30
0
0
VERTEX
8
0
10
11.988800000000001
20
9.8654125
30
0
0
VERTEX
8
0
10
12.4054125
20
9.4488
30
0
0
VERTEX
8
0
10
12.4968
20
9.4488
30
0
0
VERTEX
8
0
10
12.4968
20
5.08
30
0
42
0.198912367379658
0
VERTEX
8
0
10
12.556315625
20
4.936315625000001
30
0
0
VERTEX
8
0
10
15.040178125
20
2.452453125
30
0
42
0.36189543611854424
0
VERTEX
8
0
10
15.24
20
2.286
30
0
0
VERTEX
8
0
10
44.45
20
2.286
30
0
0
SEQEND
0
POLYLINE
66
1
8
1_copper
10
0.0
20
0.0
30
0.0
70
1
0
VERTEX
8
0
10
70.604
20
35.247684375
30
0
0
VERTEX
8
0
10
70.604
20
35.872315625
30
0
0
VERTEX
8
0
10
70.52684375
20
35.949475
30
0
0
VERTEX
8
0
10
78.883684375
20
44.306315625
30
0
42
0.198912367379658
0
VERTEX
8
0
10
78.9432
20
44.45
30
0
0
VERTEX
8
0
10
78.9432
20
55.88
30
0
42
0.198912367379658
0
VERTEX
8
0
10
78.883684375
20
56.023684375
30
0
0
VERTEX
8
0
10
75.073684375
20
59.833684375000004
30
0
42
0.198912367379658
0
VERTEX
8
0
10
74.93
20
59.8932
30
0
0
VERTEX
8
0
10
68.21000000000001
20
59.8932
30
0
0
VERTEX
8
0
10
68.21000000000001
20
60.062790625000005
30
0
0
VERTEX
8
0
10
67.68279062500001
20
60.59
30
0
0
VERTEX
8
0
10
66.93720937500001
20
60.59
30
0
0
VERTEX
8
0
10
66.41
20
60.062790625000005
30
0
0
VERTEX
8
0
10
66.41
20
59.317209375000004
30
0
0
VERTEX
8
0
10
66.93720937500001
20
58.790000000000006
30
0
0
VERTEX
8
0
10
67.68279062500001
20
58.790000000000006
30
0
0
VERTEX
8
0
10
68.21000000000001
20
59.317209375000004
30
0
0
VERTEX
8
0
10
68.21000000000001
20
59.4868
30
0
0
VERTEX
8
0
10
74.84583125
20
59.4868
30
0
0
VERTEX
8
0
10
78.5368
20
55.795831250000006
30
0
0
VERTEX
8
0
10
78.5368
20
44.53416875
30
0
0
VERTEX
8
0
10
70.239475
20
36.23684375
30
0
0
VERTEX
8
0
10
70.162315625
20
36.314
30
0
0
VERTEX
8
0
10
69.537684375
20
36.314
30
0
0
VERTEX
8
0
10
69.096
20
35.872315625
30
0
0
VERTEX
8
0
10
69.096
20
35.247684375
30
0
0
VERTEX
8
0
10
69.537684375
20
34.806000000000004
30
0
0
VERTEX
8
0
10
70.162315625
20
34.806000000000004
30
0
0
SEQEND
0
POLYLINE
66
1
8
1_copper
10
0.0
20
0.0
30
0.0
70
1
0
VERTEX
8
0
10
15.9512
20
9.8654125
30
0
0
VERTEX
8
0
10
15.9512
20
10.4545875
30
0
0
VERTEX
8
0
10
15.5345875
20
10.8712
30
0
0
VERTEX
8
0
10
14.945412500000002
20
10.8712
30
0
0
VERTEX
8
0
10
14.5288
20
10.4545875
30
0
0
VERTEX
8
0
10
14.5288
20
9.8654125
30
0
0
VERTEX
8
0
10
14.945412500000002
20
9.4488
30
0
0
VERTEX
8
0
10
15.5345875
20
9.4488
30
0
0
SEQEND
0
POLYLINE
66
1
8
16_copper
10
0.0
20
0.0
30
0.0
70
1
0
VERTEX
8
0
10
68.21000000000001
20
59.317209375000004
30
0
0
VERTEX
8
0
10
68.21000000000001
20
60.062790625000005
30
0
0
VERTEX
8
0
10
67.68279062500001
20
60.59
30
0
0
VERTEX
8
0
10
66.93720937500001
20
60.59
30
0
0
VERTEX
8
0
10
66.41
20
60.062790625000005
30
0
0
VERTEX
8
0
10
66.41
20
59.317209375000004
30
0
0
VERTEX
8
0
10
66.93720937500001
20
58.790000000000006
30
0
0
VERTEX
8
0
10
67.68279062500001
20
58.790000000000006
30
0
0
SEQEND
0
POLYLINE
66
1
8
16_copper
10
0.0
20
0.0
30
0.0
70
1
0
VERTEX
8
0
10
41.920103125000004
20
3.6076875000000004
30
0
42
0.18597604843350257
0
VERTEX
8
0
10
42.053684375
20
3.666315625
30
0
0
VERTEX
8
0
10
44.593684375
20
6.206315625
30
0
42
0.198912367379658
0
VERTEX
8
0
10
44.653200000000005
20
6.3500000000000005
30
0
0
VERTEX
8
0
10
44.653200000000005
20
10.07583125
30
0
0
VERTEX
8
0
10
69.46052812500001
20
34.883159375
30
0
0
VERTEX
8
0
10
69.537684375
20
34.806000000000004
30
0
0
VERTEX
8
0
10
70.162315625
20
34.806000000000004
30
0
0
VERTEX
8
0
10
70.604
20
35.247684375
30
0
0
VERTEX
8
0
10
70.604
20
35.872315625
30
0
0
VERTEX
8
0
10
70.162315625
20
36.314
30
0
0
VERTEX
8
0
10
69.537684375
20
36.314
30
0
0
VERTEX
8
0
10
69.096
20
35.872315625
30
0
0
VERTEX
8
0
10
69.096
20
35.247684375
30
0
0
VERTEX
8
0
10
69.173159375
20
35.170528125000004
30
0
0
VERTEX
8
0
10
44.306315625
20
10.303684375000001
30
0
42
0.198912367379658
0
VERTEX
8
0
10
44.2468
20
10.16
30
0
0
VERTEX
8
0
10
44.2468
20
6.43416875
30
0
0
VERTEX
8
0
10
41.82583125
20
4.0132
30
0
0
VERTEX
8
0
10
16.59416875
20
4.0132
30
0
0
VERTEX
8
0
10
15.443200000000001
20
5.16416875
30
0
0
VERTEX
8
0
10
15.443200000000001
20
9.4488
30
0
0
VERTEX
8
0
10
15.5345875
20
9.4488
30
0
0
VERTEX
8
0
10
15.9512
20
9.8654125
30
0
0
VERTEX
8
0
10
15.9512
20
10.4545875
30
0
0
VERTEX
8
0
10
15.5345875
20
10.8712
30
0
0
VERTEX
8
0
10
14.945412500000002
20
10.8712
30
0
0
VERTEX
8
0
10
14.5288
20
10.4545875
30
0
0
VERTEX
8
0
10
14.5288
20
9.8654125
30
0
0
VERTEX
8
0
10
14.945412500000002
20
9.4488
30
0
0
VERTEX
8
0
10
15.036800000000001
20
9.4488
30
0
0
VERTEX
8
0
10
15.036800000000001
20
5.08
30
0
42
0.198912367379658
0
VERTEX
8
0
10
15.096315625
20
4.936315625000001
30
0
0
VERTEX
8
0
10
16.366315625000002
20
3.666315625
30
0
42
0.198912367379658
0
VERTEX
8
0
10
16.51
20
3.6068000000000002
30
0
0
VERTEX
8
0
10
41.910000000000004
20
3.6068000000000002
30
0
0
SEQEND
0
POLYLINE
66
1
8
1_copper
10
0.0
20
0.0
30
0.0
70
1
0
VERTEX
8
0
10
36.449821875000005
20
5.511871875000001
30
0
42
0.41302899196029463
0
VERTEX
8
0
10
36.6522
20
5.715
30
0
0
VERTEX
8
0
10
36.6522
20
19.85483125
30
0
0
VERTEX
8
0
10
39.45416875
20
22.6568
30
0
0
VERTEX
8
0
10
48.260000000000005
20
22.6568
30
0
42
0.198912367379658
0
VERTEX
8
0
10
48.403684375000005
20
22.716315625
30
0
0
VERTEX
8
0
10
54.753684375000006
20
29.066315625
30
0
42
0.198912367379658
0
VERTEX
8
0
10
54.8132
20
29.21
30
0
0
VERTEX
8
0
10
54.8132
20
34.29
30
0
42
0.198912367379658
0
VERTEX
8
0
10
54.753684375000006
20
34.433684375
30
0
0
VERTEX
8
0
10
52.213684375
20
36.973684375000005
30
0
42
0.198912367379658
0
VERTEX
8
0
10
52.07
20
37.0332
30
0
0
VERTEX
8
0
10
46.99
20
37.0332
30
0
42
0.198912367379658
0
VERTEX
8
0
10
46.846315625
20
36.973684375000005
30
0
0
VERTEX
8
0
10
45.576315625
20
35.703684375
30
0
42
0.198912367379658
0
VERTEX
8
0
10
45.5168
20
35.56
30
0
0
VERTEX
8
0
10
45.5168
20
35.004000000000005
30
0
0
VERTEX
8
0
10
45.006
20
35.004000000000005
30
0
0
VERTEX
8
0
10
45.006
20
33.576
30
0
0
VERTEX
8
0
10
46.434000000000005
20
33.576
30
0
0
VERTEX
8
0
10
46.434000000000005
20
35.004000000000005
30
0
0
VERTEX
8
0
10
45.9232
20
35.004000000000005
30
0
0
VERTEX
8
0
10
45.9232
20
35.47583125
30
0
0
VERTEX
8
0
10
47.074168750000005
20
36.6268
30
0
0
VERTEX
8
0
10
51.985831250000004
20
36.6268
30
0
0
VERTEX
8
0
10
54.406800000000004
20
34.20583125
30
0
0
VERTEX
8
0
10
54.406800000000004
20
29.29416875
30
0
0
VERTEX
8
0
10
48.17583125
20
23.063200000000002
30
0
0
VERTEX
8
0
10
39.370000000000005
20
23.063200000000002
30
0
42
0.198912367379658
0
VERTEX
8
0
10
39.226315625000005
20
23.003684375000002
30
0
0
VERTEX
8
0
10
36.305315625
20
20.082684375
30
0
42
0.198912367379658
0
VERTEX
8
0
10
36.2458
20
19.939
30
0
0
VERTEX
8
0
10
36.2458
20
5.918200000000001
30
0
0
VERTEX
8
0
10
20.36796875
20
5.918200000000001
30
0
0
VERTEX
8
0
10
19.804000000000002
20
6.200184375
30
0
0
VERTEX
8
0
10
19.804000000000002
20
6.662315625000001
30
0
0
VERTEX
8
0
10
19.362315625
20
7.104
30
0
0
VERTEX
8
0
10
18.737684375
20
7.104
30
0
0
VERTEX
8
0
10
18.296
20
6.662315625000001
30
0
0
VERTEX
8
0
10
18.296
20
6.037684375
30
0
0
VERTEX
8
0
10
18.737684375
20
5.596
30
0
0
VERTEX
8
0
10
19.362315625
20
5.596
30
0
0
VERTEX
8
0
10
19.609421875000002
20
5.84310625
30
0
0
VERTEX
8
0
10
20.229125
20
5.533253125
30
0
42
0.11643556419449759
0
VERTEX
8
0
10
20.32
20
5.5118
30
0
0
VERTEX
8
0
10
36.449000000000005
20
5.5118
30
0
0
SEQEND
0
POLYLINE
66
1
8
1_copper
10
0.0
20
0.0
30
0.0
70
1
0
VERTEX
8
0
10
21.031200000000002
20
9.8654125
30
0
0
VERTEX
8
0
10
21.031200000000002
20
10.4545875
30
0
0
VERTEX
8
0
10
20.614587500000003
20
10.8712
30
0
0
VERTEX
8
0
10
20.0254125
20
10.8712
30
0
0
VERTEX
8
0
10
19.608800000000002
20
10.4545875
30
0
0
VERTEX
8
0
10
19.608800000000002
20
9.8654125
30
0
0
VERTEX
8
0
10
20.0254125
20
9.4488
30
0
0
VERTEX
8
0
10
20.614587500000003
20
9.4488
30
0
0
SEQEND
0
POLYLINE
66
1
8
16_copper
10
0.0
20
0.0
30
0.0
70
1
0
VERTEX
8
0
10
46.434000000000005
20
35.004000000000005
30
0
0
VERTEX
8
0
10
45.006
20
35.004000000000005
30
0
0
VERTEX
8
0
10
45.006
20
33.576
30
0
0
VERTEX
8
0
10
46.434000000000005
20
33.576
30
0
0
SEQEND
0
POLYLINE
66
1
8
16_copper
10
0.0
20
0.0
30
0.0
70
1
0
VERTEX
8
0
10
19.804000000000002
20
6.037684375
30
0
0
VERTEX
8
0
10
19.804000000000002
20
6.662315625000001
30
0
0
VERTEX
8
0
10
19.362315625
20
7.104
30
0
0
VERTEX
8
0
10
19.2532
20
7.104
30
0
0
VERTEX
8
0
10
19.2532
20
7.53583125
30
0
0
VERTEX
8
0
10
20.463684375
20
8.746315625000001
30
0
42
0.198912367379658
0
VERTEX
8
0
10
20.5232
20
8.89
30
0
0
VERTEX
8
0
10
20.5232
20
9.4488
30
0
0
VERTEX
8
0
10
20.614587500000003
20
9.4488
30
0
0
VERTEX
8
0
10
21.031200000000002
20
9.8654125
30
0
0
VERTEX
8
0
10
21.031200000000002
20
10.4545875
30
0
0
VERTEX
8
0
10
20.614587500000003
20
10.8712
30
0
0
VERTEX
8
0
10
20.0254125
20
10.8712
30
0
0
VERTEX
8
0
10
19.608800000000002
20
10.4545875
30
0
0
VERTEX
8
0
10
19.608800000000002
20
9.8654125
30
0
0
VERTEX
8
0
10
20.0254125
20
9.4488
30
0
0
VERTEX
8
0
10
20.1168
20
9.4488
30
0
0
VERTEX
8
0
10
20.1168
20
8.97416875
30
0
0
VERTEX
8
0
10
18.906315625
20
7.763684375
30
0
42
0.198912367379658
0
VERTEX
8
0
10
18.8468
20
7.62
30
0
0
VERTEX
8
0
10
18.8468
20
7.104
30
0
0
VERTEX
8
0
10
18.737684375
20
7.104
30
0
0
VERTEX
8
0
10
18.296
20
6.662315625000001
30
0
0
VERTEX
8
0
10
18.296
20
6.037684375
30
0
0
VERTEX
8
0
10
18.737684375
20
5.596
30
0
0
VERTEX
8
0
10
19.362315625
20
5.596
30
0
0
SEQEND
0
POLYLINE
66
1
8
1_copper
10
0.0
20
0.0
30
0.0
70
1
0
VERTEX
8
0
10
31.234
20
40.327684375000004
30
0
0
VERTEX
8
0
10
31.234
20
40.952315625000004
30
0
0
VERTEX
8
0
10
30.792315625
20
41.394000000000005
30
0
0
VERTEX
8
0
10
30.683200000000003
20
41.394000000000005
30
0
0
VERTEX
8
0
10
30.683200000000003
20
44.45
30
0
42
0.198912367379658
0
VERTEX
8
0
10
30.623684375
20
44.593684375
30
0
0
VERTEX
8
0
10
26.8732
20
48.34416875
30
0
0
VERTEX
8
0
10
26.8732
20
51.17
30
0
0
VERTEX
8
0
10
27.042790625000002
20
51.17
30
0
0
VERTEX
8
0
10
27.57
20
51.697209375
30
0
0
VERTEX
8
0
10
27.57
20
52.442790625
30
0
0
VERTEX
8
0
10
27.042790625000002
20
52.970000000000006
30
0
0
VERTEX
8
0
10
26.297209375
20
52.970000000000006
30
0
0
VERTEX
8
0
10
25.77
20
52.442790625
30
0
0
VERTEX
8
0
10
25.77
20
51.697209375
30
0
0
VERTEX
8
0
10
26.297209375
20
51.17
30
0
0
VERTEX
8
0
10
26.466800000000003
20
51.17
30
0
0
VERTEX
8
0
10
26.466800000000003
20
48.260000000000005
30
0
42
0.198912367379658
0
VERTEX
8
0
10
26.526315625000002
20
48.116315625000006
30
0
0
VERTEX
8
0
10
30.2768
20
44.36583125
30
0
0
VERTEX
8
0
10
30.2768
20
41.394000000000005
30
0
0
VERTEX
8
0
10
30.167684375
20
41.394000000000005
30
0
0
VERTEX
8
0
10
29.726000000000003
20
40.952315625000004
30
0
0
VERTEX
8
0
10
29.726000000000003
20
40.327684375000004
30
0
0
VERTEX
8
0
10
30.167684375
20
39.886
30
0
0
VERTEX
8
0
10
30.792315625
20
39.886
30
0
0
SEQEND
0
POLYLINE
66
1
8
1_copper
10
0.0
20
0.0
30
0.0
70
1
0
VERTEX
8
0
10
23.5712
20
9.8654125
30
0
0
VERTEX
8
0
10
23.5712
20
10.4545875
30
0
0
VERTEX
8
0
10
23.1545875
20
10.8712
30
0
0
VERTEX
8
0
10
22.5654125
20
10.8712
30
0
0
VERTEX
8
0
10
22.1488
20
10.4545875
30
0
0
VERTEX
8
0
10
22.1488
20
9.8654125
30
0
0
VERTEX
8
0
10
22.5654125
20
9.4488
30
0
0
VERTEX
8
0
10
23.1545875
20
9.4488
30
0
0
SEQEND
0
POLYLINE
66
1
8
16_copper
10
0.0
20
0.0
30
0.0
70
1
0
VERTEX
8
0
10
27.57
20
51.697209375
30
0
0
VERTEX
8
0
10
27.57
20
52.442790625
30
0
0
VERTEX
8
0
10
27.042790625000002
20
52.970000000000006
30
0
0
VERTEX
8
0
10
26.297209375
20
52.970000000000006
30
0
0
VERTEX
8
0
10
25.77
20
52.442790625
30
0
0
VERTEX
8
0
10
25.77
20
51.697209375
30
0
0
VERTEX
8
0
10
26.297209375
20
51.17
30
0
0
VERTEX
8
0
10
27.042790625000002
20
51.17
30
0
0
SEQEND
0
POLYLINE
66
1
8
16_copper
10
0.0
20
0.0
30
0.0
70
1
0
VERTEX
8
0
10
39.380103125000005
20
4.8776875
30
0
42
0.18597604843350257
0
VERTEX
8
0
10
39.513684375000004
20
4.936315625000001
30
0
0
VERTEX
8
0
10
42.053684375
20
7.476315625000001
30
0
42
0.198912367379658
0
VERTEX
8
0
10
42.1132
20
7.62
30
0
0
VERTEX
8
0
10
42.1132
20
11.34583125
30
0
0
VERTEX
8
0
10
47.133684375
20
16.366315625000002
30
0
42
0.198912367379658
0
VERTEX
8
0
10
47.193200000000004
20
16.51
30
0
0
VERTEX
8
0
10
47.193200000000004
20
20.32
30
0
42
0.2759118356506769
0
VERTEX
8
0
10
47.0863375
20
20.4989125
30
0
0
VERTEX
8
0
10
30.683200000000003
20
29.331371875000002
30
0
0
VERTEX
8
0
10
30.683200000000003
20
39.886
30
0
0
VERTEX
8
0
10
30.792315625
20
39.886
30
0
0
VERTEX
8
0
10
31.234
20
40.327684375000004
30
0
0
VERTEX
8
0
10
31.234
20
40.952315625000004
30
0
0
VERTEX
8
0
10
30.792315625
20
41.394000000000005
30
0
0
VERTEX
8
0
10
30.167684375
20
41.394000000000005
30
0
0
VERTEX
8
0
10
29.726000000000003
20
40.952315625000004
30
0
0
VERTEX
8
0
10
29.726000000000003
20
40.327684375000004
30
0
0
VERTEX
8
0
10
30.167684375
20
39.886
30
0
0
VERTEX
8
0
10
30.2768
20
39.886
30
0
0
VERTEX
8
0
10
30.2768
20
29.21
30
0
42
0.2759118356506769
0
VERTEX
8
0
10
30.3836625
20
29.0310875
30
0
0
VERTEX
8
0
10
46.7868
20
20.198628125000003
30
0
0
VERTEX
8
0
10
46.7868
20
16.59416875
30
0
0
VERTEX
8
0
10
41.766315625000004
20
11.573684375000001
30
0
42
0.198912367379658
0
VERTEX
8
0
10
41.7068
20
11.43
30
0
0
VERTEX
8
0
10
41.7068
20
7.70416875
30
0
0
VERTEX
8
0
10
39.28583125
20
5.2832
30
0
0
VERTEX
8
0
10
26.75416875
20
5.2832
30
0
0
VERTEX
8
0
10
23.063200000000002
20
8.97416875
30
0
0
VERTEX
8
0
10
23.063200000000002
20
9.4488
30
0
0
VERTEX
8
0
10
23.1545875
20
9.4488
30
0
0
VERTEX
8
0
10
23.5712
20
9.8654125
30
0
0
VERTEX
8
0
10
23.5712
20
10.4545875
30
0
0
VERTEX
8
0
10
23.1545875
20
10.8712
30
0
0
VERTEX
8
0
10
22.5654125
20
10.8712
30
0
0
VERTEX
8
0
10
22.1488
20
10.4545875
30
0
0
VERTEX
8
0
10
22.1488
20
9.8654125
30
0
0
VERTEX
8
0
10
22.5654125
20
9.4488
30
0
0
VERTEX
8
0
10
22.6568
20
9.4488
30
0
0
VERTEX
8
0
10
22.6568
20
8.89
30
0
42
0.198912367379658
0
VERTEX
8
0
10
22.716315625
20
8.746315625000001
30
0
0
VERTEX
8
0
10
26.526315625000002
20
4.936315625000001
30
0
42
0.198912367379658
0
VERTEX
8
0
10
26.67
20
4.8768
30
0
0
VERTEX
8
0
10
39.370000000000005
20
4.8768
30
0
0
SEQEND
0
POLYLINE
66
1
8
1_copper
10
0.0
20
0.0
30
0.0
70
1
0
VERTEX
8
0
10
42.664
20
17.467684375
30
0
0
VERTEX
8
0
10
42.664
20
17.576800000000002
30
0
0
VERTEX
8
0
10
49.53
20
17.576800000000002
30
0
42
0.198912367379658
0
VERTEX
8
0
10
49.673684375
20
17.636315625
30
0
0
VERTEX
8
0
10
58.563684375
20
26.526315625000002
30
0
42
0.198912367379658
0
VERTEX
8
0
10
58.623200000000004
20
26.67
30
0
0
VERTEX
8
0
10
58.623200000000004
20
41.910000000000004
30
0
42
0.198912367379658
0
VERTEX
8
0
10
58.563684375
20
42.053684375
30
0
0
VERTEX
8
0
10
49.733200000000004
20
50.88416875
30
0
0
VERTEX
8
0
10
49.733200000000004
20
51.17
30
0
0
VERTEX
8
0
10
50.43
20
51.17
30
0
0
VERTEX
8
0
10
50.43
20
51.866800000000005
30
0
0
VERTEX
8
0
10
67.31
20
51.866800000000005
30
0
42
0.41421356237309503
0
VERTEX
8
0
10
67.5132
20
52.07
30
0
0
VERTEX
8
0
10
67.5132
20
53.71
30
0
0
VERTEX
8
0
10
67.68279062500001
20
53.71
30
0
0
VERTEX
8
0
10
68.21000000000001
20
54.237209375
30
0
0
VERTEX
8
0
10
68.21000000000001
20
54.982790625
30
0
0
VERTEX
8
0
10
67.68279062500001
20
55.510000000000005
30
0
0
VERTEX
8
0
10
66.93720937500001
20
55.510000000000005
30
0
0
VERTEX
8
0
10
66.41
20
54.982790625
30
0
0
VERTEX
8
0
10
66.41
20
54.237209375
30
0
0
VERTEX
8
0
10
66.93720937500001
20
53.71
30
0
0
VERTEX
8
0
10
67.1068
20
53.71
30
0
0
VERTEX
8
0
10
67.1068
20
52.2732
30
0
0
VERTEX
8
0
10
50.43
20
52.2732
30
0
0
VERTEX
8
0
10
50.43
20
52.970000000000006
30
0
0
VERTEX
8
0
10
48.63
20
52.970000000000006
30
0
0
VERTEX
8
0
10
48.63
20
52.2732
30
0
0
VERTEX
8
0
10
45.80416875
20
52.2732
30
0
0
VERTEX
8
0
10
44.653200000000005
20
53.42416875
30
0
0
VERTEX
8
0
10
44.653200000000005
20
53.71
30
0
0
VERTEX
8
0
10
44.822790625
20
53.71
30
0
0
VERTEX
8
0
10
45.35
20
54.237209375
30
0
0
VERTEX
8
0
10
45.35
20
54.982790625
30
0
0
VERTEX
8
0
10
45.230081250000005
20
55.1027125
30
0
0
VERTEX
8
0
10
47.133684375
20
57.006315625000006
30
0
42
0.198912367379658
0
VERTEX
8
0
10
47.193200000000004
20
57.150000000000006
30
0
0
VERTEX
8
0
10
47.193200000000004
20
60.96
30
0
42
0.1480698288300764
0
VERTEX
8
0
10
47.159071875
20
61.072715625
30
0
0
VERTEX
8
0
10
44.653200000000005
20
64.831525
30
0
0
VERTEX
8
0
10
44.653200000000005
20
76.57000000000001
30
0
0
VERTEX
8
0
10
44.822790625
20
76.57000000000001
30
0
0
VERTEX
8
0
10
45.35
20
77.097209375
30
0
0
VERTEX
8
0
10
45.35
20
77.842790625
30
0
0
VERTEX
8
0
10
44.822790625
20
78.37
30
0
0
VERTEX
8
0
10
44.077209375
20
78.37
30
0
0
VERTEX
8
0
10
43.550000000000004
20
77.842790625
30
0
0
VERTEX
8
0
10
43.550000000000004
20
77.67320000000001
30
0
0
VERTEX
8
0
10
34.29
20
77.67320000000001
30
0
42
0.198912367379658
0
VERTEX
8
0
10
34.146315625
20
77.613684375
30
0
0
VERTEX
8
0
10
18.906315625
20
62.373684375
30
0
42
0.198912367379658
0
VERTEX
8
0
10
18.8468
20
62.230000000000004
30
0
0
VERTEX
8
0
10
18.8468
20
58.050000000000004
30
0
0
VERTEX
8
0
10
18.677209375
20
58.050000000000004
30
0
0
VERTEX
8
0
10
18.150000000000002
20
57.522790625000006
30
0
0
VERTEX
8
0
10
18.150000000000002
20
56.777209375000005
30
0
0
VERTEX
8
0
10
18.677209375
20
56.25
30
0
0
VERTEX
8
0
10
19.422790625
20
56.25
30
0
0
VERTEX
8
0
10
19.95
20
56.777209375000005
30
0
0
VERTEX
8
0
10
19.95
20
57.522790625000006
30
0
0
VERTEX
8
0
10
19.422790625
20
58.050000000000004
30
0
0
VERTEX
8
0
10
19.2532
20
58.050000000000004
30
0
0
VERTEX
8
0
10
19.2532
20
62.14583125
30
0
0
VERTEX
8
0
10
34.37416875
20
77.2668
30
0
0
VERTEX
8
0
10
43.550000000000004
20
77.2668
30
0
0
VERTEX
8
0
10
43.550000000000004
20
77.097209375
30
0
0
VERTEX
8
0
10
44.077209375
20
76.57000000000001
30
0
0
VERTEX
8
0
10
44.2468
20
76.57000000000001
30
0
0
VERTEX
8
0
10
44.2468
20
64.77
30
0
42
0.1480698288300764
0
VERTEX
8
0
10
44.280928125
20
64.657284375
30
0
0
VERTEX
8
0
10
46.7868
20
60.898478125000004
30
0
0
VERTEX
8
0
10
46.7868
20
57.23416875
30
0
0
VERTEX
8
0
10
44.9427125
20
55.39008125
30
0
0
VERTEX
8
0
10
44.822790625
20
55.510000000000005
30
0
0
VERTEX
8
0
10
44.077209375
20
55.510000000000005
30
0
0
VERTEX
8
0
10
43.550000000000004
20
54.982790625
30
0
0
VERTEX
8
0
10
43.550000000000004
20
54.237209375
30
0
0
VERTEX
8
0
10
44.077209375
20
53.71
30
0
0
VERTEX
8
0
10
44.2468
20
53.71
30
0
0
VERTEX
8
0
10
44.2468
20
53.34
30
0
42
0.198912367379658
0
VERTEX
8
0
10
44.306315625
20
53.196315625000004
30
0
0
VERTEX
8
0
10
45.576315625
20
51.926315625
30
0
42
0.198912367379658
0
VERTEX
8
0
10
45.72
20
51.866800000000005
30
0
0
VERTEX
8
0
10
48.63
20
51.866800000000005
30
0
0
VERTEX
8
0
10
48.63
20
51.17
30
0
0
VERTEX
8
0
10
49.326800000000006
20
51.17
30
0
0
VERTEX
8
0
10
49.326800000000006
20
50.800000000000004
30
0
42
0.198912367379658
0
VERTEX
8
0
10
49.386315625
20
50.656315625000005
30
0
0
VERTEX
8
0
10
58.216800000000006
20
41.82583125
30
0
0
VERTEX
8
0
10
58.216800000000006
20
26.75416875
30
0
0
VERTEX
8
0
10
49.445831250000005
20
17.9832
30
0
0
VERTEX
8
0
10
42.664
20
17.9832
30
0
0
VERTEX
8
0
10
42.664
20
18.092315625
30
0
0
VERTEX
8
0
10
42.222315625
20
18.534000000000002
30
0
0
VERTEX
8
0
10
41.597684375
20
18.534000000000002
30
0
0
VERTEX
8
0
10
41.156
20
18.092315625
30
0
0
VERTEX
8
0
10
41.156
20
17.467684375
30
0
0
VERTEX
8
0
10
41.597684375
20
17.026
30
0
0
VERTEX
8
0
10
42.222315625
20
17.026
30
0
0
SEQEND
0
POLYLINE
66
1
8
1_copper
10
0.0
20
0.0
30
0.0
70
1
0
VERTEX
8
0
10
26.1112
20
9.8654125
30
0
0
VERTEX
8
0
10
26.1112
20
10.4545875
30
0
0
VERTEX
8
0
10
25.6945875
20
10.8712
30
0
0
VERTEX
8
0
10
25.1054125
20
10.8712
30
0
0
VERTEX
8
0
10
24.6888
20
10.4545875
30
0
0
VERTEX
8
0
10
24.6888
20
9.8654125
30
0
0
VERTEX
8
0
10
25.1054125
20
9.4488
30
0
0
VERTEX
8
0
10
25.6945875
20
9.4488
30
0
0
SEQEND
0
POLYLINE
66
1
8
16_copper
10
0.0
20
0.0
30
0.0
70
1
0
VERTEX
8
0
10
45.35
20
77.097209375
30
0
0
VERTEX
8
0
10
45.35
20
77.842790625
30
0
0
VERTEX
8
0
10
44.822790625
20
78.37
30
0
0
VERTEX
8
0
10
44.077209375
20
78.37
30
0
0
VERTEX
8
0
10
43.550000000000004
20
77.842790625
30
0
0
VERTEX
8
0
10
43.550000000000004
20
77.097209375
30
0
0
VERTEX
8
0
10
44.077209375
20
76.57000000000001
30
0
0
VERTEX
8
0
10
44.822790625
20
76.57000000000001
30
0
0
SEQEND
0
POLYLINE
66
1
8
16_copper
10
0.0
20
0.0
30
0.0
70
1
0
VERTEX
8
0
10
19.95
20
56.777209375000005
30
0
0
VERTEX
8
0
10
19.95
20
57.522790625000006
30
0
0
VERTEX
8
0
10
19.422790625
20
58.050000000000004
30
0
0
VERTEX
8
0
10
18.677209375
20
58.050000000000004
30
0
0
VERTEX
8
0
10
18.150000000000002
20
57.522790625000006
30
0
0
VERTEX
8
0
10
18.150000000000002
20
56.777209375000005
30
0
0
VERTEX
8
0
10
18.677209375
20
56.25
30
0
0
VERTEX
8
0
10
19.422790625
20
56.25
30
0
0
SEQEND
0
POLYLINE
66
1
8
16_copper
10
0.0
20
0.0
30
0.0
70
1
0
VERTEX
8
0
10
45.35
20
54.237209375
30
0
0
VERTEX
8
0
10
45.35
20
54.982790625
30
0
0
VERTEX
8
0
10
44.822790625
20
55.510000000000005
30
0
0
VERTEX
8
0
10
44.077209375
20
55.510000000000005
30
0
0
VERTEX
8
0
10
43.550000000000004
20
54.982790625
30
0
0
VERTEX
8
0
10
43.550000000000004
20
54.237209375
30
0
0
VERTEX
8
0
10
44.077209375
20
53.71
30
0
0
VERTEX
8
0
10
44.822790625
20
53.71
30
0
0
SEQEND
0
POLYLINE
66
1
8
16_copper
10
0.0
20
0.0
30
0.0
70
1
0
VERTEX
8
0
10
68.21000000000001
20
54.237209375
30
0
0
VERTEX
8
0
10
68.21000000000001
20
54.982790625
30
0
0
VERTEX
8
0
10
67.68279062500001
20
55.510000000000005
30
0
0
VERTEX
8
0
10
66.93720937500001
20
55.510000000000005
30
0
0
VERTEX
8
0
10
66.41
20
54.982790625
30
0
0
VERTEX
8
0
10
66.41
20
54.237209375
30
0
0
VERTEX
8
0
10
66.93720937500001
20
53.71
30
0
0
VERTEX
8
0
10
67.68279062500001
20
53.71
30
0
0
SEQEND
0
POLYLINE
66
1
8
16_copper
10
0.0
20
0.0
30
0.0
70
1
0
VERTEX
8
0
10
50.43
20
52.970000000000006
30
0
0
VERTEX
8
0
10
48.63
20
52.970000000000006
30
0
0
VERTEX
8
0
10
48.63
20
51.17
30
0
0
VERTEX
8
0
10
50.43
20
51.17
30
0
0
SEQEND
0
POLYLINE
66
1
8
16_copper
10
0.0
20
0.0
30
0.0
70
1
0
VERTEX
8
0
10
36.840103125
20
6.1476875
30
0
42
0.18597604843350257
0
VERTEX
8
0
10
36.973684375000005
20
6.206315625
30
0
0
VERTEX
8
0
10
39.513684375000004
20
8.746315625000001
30
0
42
0.198912367379658
0
VERTEX
8
0
10
39.5732
20
8.89
30
0
0
VERTEX
8
0
10
39.5732
20
15.15583125
30
0
0
VERTEX
8
0
10
41.520528125
20
17.103159375
30
0
0
VERTEX
8
0
10
41.597684375
20
17.026
30
0
0
VERTEX
8
0
10
42.222315625
20
17.026
30
0
0
VERTEX
8
0
10
42.664
20
17.467684375
30
0
0
VERTEX
8
0
10
42.664
20
18.092315625
30
0
0
VERTEX
8
0
10
42.222315625
20
18.534000000000002
30
0
0
VERTEX
8
0
10
41.597684375
20
18.534000000000002
30
0
0
VERTEX
8
0
10
41.156
20
18.092315625
30
0
0
VERTEX
8
0
10
41.156
20
17.467684375
30
0
0
VERTEX
8
0
10
41.233159375
20
17.390528125
30
0
0
VERTEX
8
0
10
39.226315625000005
20
15.383684375000001
30
0
42
0.198912367379658
0
VERTEX
8
0
10
39.1668
20
15.24
30
0
0
VERTEX
8
0
10
39.1668
20
8.97416875
30
0
0
VERTEX
8
0
10
36.74583125
20
6.5532
30
0
0
VERTEX
8
0
10
28.02416875
20
6.5532
30
0
0
VERTEX
8
0
10
25.6032
20
8.97416875
30
0
0
VERTEX
8
0
10
25.6032
20
9.4488
30
0
0
VERTEX
8
0
10
25.6945875
20
9.4488
30
0
0
VERTEX
8
0
10
26.1112
20
9.8654125
30
0
0
VERTEX
8
0
10
26.1112
20
10.4545875
30
0
0
VERTEX
8
0
10
25.6945875
20
10.8712
30
0
0
VERTEX
8
0
10
25.1054125
20
10.8712
30
0
0
VERTEX
8
0
10
24.6888
20
10.4545875
30
0
0
VERTEX
8
0
10
24.6888
20
9.8654125
30
0
0
VERTEX
8
0
10
25.1054125
20
9.4488
30
0
0
VERTEX
8
0
10
25.1968
20
9.4488
30
0
0
VERTEX
8
0
10
25.1968
20
8.89
30
0
42
0.198912367379658
0
VERTEX
8
0
10
25.256315625000003
20
8.746315625000001
30
0
0
VERTEX
8
0
10
27.796315625000002
20
6.206315625
30
0
42
0.198912367379658
0
VERTEX
8
0
10
27.94
20
6.146800000000001
30
0
0
VERTEX
8
0
10
36.83
20
6.146800000000001
30
0
0
SEQEND
0
POLYLINE
66
1
8
1_copper
10
0.0
20
0.0
30
0.0
70
1
0
VERTEX
8
0
10
32.504000000000005
20
21.277684375
30
0
0
VERTEX
8
0
10
32.504000000000005
20
21.902315625
30
0
0
VERTEX
8
0
10
32.062315625000004
20
22.344
30
0
0
VERTEX
8
0
10
31.953200000000002
20
22.344
30
0
0
VERTEX
8
0
10
31.953200000000002
20
22.77583125
30
0
0
VERTEX
8
0
10
33.358168750000004
20
24.1808
30
0
0
VERTEX
8
0
10
41.564
20
24.1808
30
0
42
0.198912367379658
0
VERTEX
8
0
10
41.707684375
20
24.240315625
30
0
0
VERTEX
8
0
10
45.863684375000005
20
28.396315625
30
0
42
0.198912367379658
0
VERTEX
8
0
10
45.9232
20
28.540000000000003
30
0
0
VERTEX
8
0
10
45.9232
20
30.366000000000003
30
0
0
VERTEX
8
0
10
46.015746875000005
20
30.366000000000003
30
0
0
VERTEX
8
0
10
46.434000000000005
20
30.784253125000003
30
0
0
VERTEX
8
0
10
46.434000000000005
20
31.375746875
30
0
0
VERTEX
8
0
10
46.015746875000005
20
31.794
30
0
0
VERTEX
8
0
10
45.424253125
20
31.794
30
0
0
VERTEX
8
0
10
45.006
20
31.375746875
30
0
0
VERTEX
8
0
10
45.006
20
30.784253125000003
30
0
0
VERTEX
8
0
10
45.424253125
20
30.366000000000003
30
0
0
VERTEX
8
0
10
45.5168
20
30.366000000000003
30
0
0
VERTEX
8
0
10
45.5168
20
28.624168750000003
30
0
0
VERTEX
8
0
10
41.479831250000004
20
24.587200000000003
30
0
0
VERTEX
8
0
10
33.274
20
24.587200000000003
30
0
42
0.198912367379658
0
VERTEX
8
0
10
33.130315625
20
24.527684375
30
0
0
VERTEX
8
0
10
31.606315625
20
23.003684375000002
30
0
42
0.198912367379658
0
VERTEX
8
0
10
31.5468
20
22.86
30
0
0
VERTEX
8
0
10
31.5468
20
22.344
30
0
0
VERTEX
8
0
10
31.437684375
20
22.344
30
0
0
VERTEX
8
0
10
30.996000000000002
20
21.902315625
30
0
0
VERTEX
8
0
10
30.996000000000002
20
21.277684375
30
0
0
VERTEX
8
0
10
31.437684375
20
20.836000000000002
30
0
0
VERTEX
8
0
10
32.062315625000004
20
20.836000000000002
30
0
0
SEQEND
0
POLYLINE
66
1
8
1_copper
10
0.0
20
0.0
30
0.0
70
1
0
VERTEX
8
0
10
28.651200000000003
20
9.8654125
30
0
0
VERTEX
8
0
10
28.651200000000003
20
10.4545875
30
0
0
VERTEX
8
0
10
28.2345875
20
10.8712
30
0
0
VERTEX
8
0
10
27.645412500000003
20
10.8712
30
0
0
VERTEX
8
0
10
27.2288
20
10.4545875
30
0
0
VERTEX
8
0
10
27.2288
20
9.8654125
30
0
0
VERTEX
8
0
10
27.645412500000003
20
9.4488
30
0
0
VERTEX
8
0
10
28.2345875
20
9.4488
30
0
0
SEQEND
0
POLYLINE
66
1
8
16_copper
10
0.0
20
0.0
30
0.0
70
1
0
VERTEX
8
0
10
46.434000000000005
20
30.784253125000003
30
0
0
VERTEX
8
0
10
46.434000000000005
20
31.375746875
30
0
0
VERTEX
8
0
10
46.015746875000005
20
31.794
30
0
0
VERTEX
8
0
10
45.424253125
20
31.794
30
0
0
VERTEX
8
0
10
45.006
20
31.375746875
30
0
0
VERTEX
8
0
10
45.006
20
30.784253125000003
30
0
0
VERTEX
8
0
10
45.424253125
20
30.366000000000003
30
0
0
VERTEX
8
0
10
46.015746875000005
20
30.366000000000003
30
0
0
SEQEND
0
POLYLINE
66
1
8
16_copper
10
0.0
20
0.0
30
0.0
70
1
0
VERTEX
8
0
10
34.300103125
20
7.4176875
30
0
42
0.18597604843350257
0
VERTEX
8
0
10
34.433684375
20
7.476315625000001
30
0
0
VERTEX
8
0
10
35.703684375
20
8.746315625000001
30
0
42
0.198912367379658
0
VERTEX
8
0
10
35.763200000000005
20
8.89
30
0
0
VERTEX
8
0
10
35.763200000000005
20
15.24
30
0
42
0.198912367379658
0
VERTEX
8
0
10
35.703684375
20
15.383684375000001
30
0
0
VERTEX
8
0
10
31.953200000000002
20
19.13416875
30
0
0
VERTEX
8
0
10
31.953200000000002
20
20.836000000000002
30
0
0
VERTEX
8
0
10
32.062315625000004
20
20.836000000000002
30
0
0
VERTEX
8
0
10
32.504000000000005
20
21.277684375
30
0
0
VERTEX
8
0
10
32.504000000000005
20
21.902315625
30
0
0
VERTEX
8
0
10
32.062315625000004
20
22.344
30
0
0
VERTEX
8
0
10
31.437684375
20
22.344
30
0
0
VERTEX
8
0
10
30.996000000000002
20
21.902315625
30
0
0
VERTEX
8
0
10
30.996000000000002
20
21.277684375
30
0
0
VERTEX
8
0
10
31.437684375
20
20.836000000000002
30
0
0
VERTEX
8
0
10
31.5468
20
20.836000000000002
30
0
0
VERTEX
8
0
10
31.5468
20
19.05
30
0
42
0.198912367379658
0
VERTEX
8
0
10
31.606315625
20
18.906315625
30
0
0
VERTEX
8
0
10
35.3568
20
15.15583125
30
0
0
VERTEX
8
0
10
35.3568
20
8.97416875
30
0
0
VERTEX
8
0
10
34.20583125
20
7.8232
30
0
0
VERTEX
8
0
10
29.29416875
20
7.8232
30
0
0
VERTEX
8
0
10
28.1432
20
8.97416875
30
0
0
VERTEX
8
0
10
28.1432
20
9.4488
30
0
0
VERTEX
8
0
10
28.2345875
20
9.4488
30
0
0
VERTEX
8
0
10
28.651200000000003
20
9.8654125
30
0
0
VERTEX
8
0
10
28.651200000000003
20
10.4545875
30
0
0
VERTEX
8
0
10
28.2345875
20
10.8712
30
0
0
VERTEX
8
0
10
27.645412500000003
20
10.8712
30
0
0
VERTEX
8
0
10
27.2288
20
10.4545875
30
0
0
VERTEX
8
0
10
27.2288
20
9.8654125
30
0
0
VERTEX
8
0
10
27.645412500000003
20
9.4488
30
0
0
VERTEX
8
0
10
27.736800000000002
20
9.4488
30
0
0
VERTEX
8
0
10
27.736800000000002
20
8.89
30
0
42
0.198912367379658
0
VERTEX
8
0
10
27.796315625000002
20
8.746315625000001
30
0
0
VERTEX
8
0
10
29.066315625
20
7.476315625000001
30
0
42
0.198912367379658
0
VERTEX
8
0
10
29.21
20
7.4168
30
0
0
VERTEX
8
0
10
34.29
20
7.4168
30
0
0
SEQEND
0
CIRCLE
8
drills_NPTH
10
87.63000000000001
20
89.662
30
0
40
1.4225
0
CIRCLE
8
drills_NPTH
10
-1.27
20
22.86
30
0
40
1.4225
0
CIRCLE
8
drills_NPTH
10
2.54
20
89.662
30
0
40
1.4225
0
CIRCLE
8
drills_NPTH
10
87.63000000000001
20
6.3500000000000005
30
0
40
1.4225
0
CIRCLE
8
drills_PTH
10
38.45
20
31.585
30
0
40
1.1500000000000001
0
CIRCLE
8
drills_PTH
10
50.49
20
31.585
30
0
40
1.1500000000000001
0
CIRCLE
8
drills_PTH
10
62.230000000000004
20
83.82000000000001
30
0
40
0.7493000000000001
0
CIRCLE
8
drills_PTH
10
62.230000000000004
20
76.2
30
0
40
0.7493000000000001
0
CIRCLE
8
drills_PTH
10
77.47
20
76.2
30
0
40
0.7493000000000001
0
CIRCLE
8
drills_PTH
10
77.47
20
83.82000000000001
30
0
40
0.7493000000000001
0
CIRCLE
8
drills_PTH
10
49.53
20
57.150000000000006
30
0
40
0.6
0
CIRCLE
8
drills_PTH
10
67.31
20
59.690000000000005
30
0
40
0.6
0
CIRCLE
8
drills_PTH
10
67.31
20
54.61
30
0
40
0.6
0
CIRCLE
8
drills_PTH
10
72.39
20
62.230000000000004
30
0
40
0.6
0
CIRCLE
8
drills_PTH
10
72.39
20
57.150000000000006
30
0
40
0.6
0
CIRCLE
8
drills_PTH
10
72.39
20
52.07
30
0
40
0.6
0
CIRCLE
8
drills_PTH
10
44.45
20
54.61
30
0
40
0.6
0
CIRCLE
8
drills_PTH
10
49.53
20
62.230000000000004
30
0
40
0.6
0
CIRCLE
8
drills_PTH
10
49.53
20
74.93
30
0
40
0.6
0
CIRCLE
8
drills_PTH
10
49.53
20
80.01
30
0
40
0.6
0
CIRCLE
8
drills_PTH
10
49.53
20
85.09
30
0
40
0.6
0
CIRCLE
8
drills_PTH
10
44.45
20
77.47
30
0
40
0.6
0
CIRCLE
8
drills_PTH
10
44.45
20
82.55
30
0
40
0.6
0
CIRCLE
8
drills_PTH
10
16.51
20
52.07
30
0
40
0.6
0
CIRCLE
8
drills_PTH
10
21.59
20
52.07
30
0
40
0.6
0
CIRCLE
8
drills_PTH
10
26.67
20
52.07
30
0
40
0.6
0
CIRCLE
8
drills_PTH
10
19.05
20
57.150000000000006
30
0
40
0.6
0
CIRCLE
8
drills_PTH
10
24.130000000000003
20
57.150000000000006
30
0
40
0.6
0
CIRCLE
8
drills_PTH
10
49.53
20
52.07
30
0
40
0.6
0
CIRCLE
8
drills_PTH
10
44.45
20
59.690000000000005
30
0
40
0.6
0
CIRCLE
8
drills_PTH
10
55.88
20
7.62
30
0
40
0.508
0
CIRCLE
8
drills_PTH
10
53.34
20
7.62
30
0
40
0.508
0
CIRCLE
8
drills_PTH
10
72.51700000000001
20
7.62
30
0
40
0.508
0
CIRCLE
8
drills_PTH
10
75.057
20
7.62
30
0
40
0.508
0
CIRCLE
8
drills_PTH
10
12.700000000000001
20
21.59
30
0
40
0.5
0
CIRCLE
8
drills_PTH
10
5.08
20
21.59
30
0
40
0.5
0
CIRCLE
8
drills_PTH
10
64.77
20
24.130000000000003
30
0
40
0.5
0
CIRCLE
8
drills_PTH
10
63.5
20
45.72
30
0
40
0.5
0
CIRCLE
8
drills_PTH
10
69.85000000000001
20
35.56
30
0
40
0.5
0
CIRCLE
8
drills_PTH
10
16.51
20
21.59
30
0
40
0.5
0
CIRCLE
8
drills_PTH
10
19.05
20
6.3500000000000005
30
0
40
0.5
0
CIRCLE
8
drills_PTH
10
20.32
20
21.59
30
0
40
0.5
0
CIRCLE
8
drills_PTH
10
30.48
20
40.64
30
0
40
0.5
0
CIRCLE
8
drills_PTH
10
24.130000000000003
20
21.59
30
0
40
0.5
0
CIRCLE
8
drills_PTH
10
41.910000000000004
20
17.78
30
0
40
0.5
0
CIRCLE
8
drills_PTH
10
27.94
20
21.59
30
0
40
0.5
0
CIRCLE
8
drills_PTH
10
31.75
20
21.59
30
0
40
0.5
0
CIRCLE
8
drills_PTH
10
43.22
20
31.080000000000002
30
0
40
0.46
0
CIRCLE
8
drills_PTH
10
43.22
20
34.29
30
0
40
0.46
0
CIRCLE
8
drills_PTH
10
45.72
20
34.29
30
0
40
0.46
0
CIRCLE
8
drills_PTH
10
45.72
20
31.080000000000002
30
0
40
0.46
0
CIRCLE
8
drills_PTH
10
17.78
20
10.16
30
0
40
0.4572
0
CIRCLE
8
drills_PTH
10
15.24
20
10.16
30
0
40
0.4572
0
CIRCLE
8
drills_PTH
10
15.24
20
12.700000000000001
30
0
40
0.4572
0
CIRCLE
8
drills_PTH
10
12.700000000000001
20
10.16
30
0
40
0.4572
0
CIRCLE
8
drills_PTH
10
12.700000000000001
20
12.700000000000001
30
0
40
0.4572
0
CIRCLE
8
drills_PTH
10
30.48
20
10.16
30
0
40
0.4572
0
CIRCLE
8
drills_PTH
10
30.48
20
12.700000000000001
30
0
40
0.4572
0
CIRCLE
8
drills_PTH
10
27.94
20
10.16
30
0
40
0.4572
0
CIRCLE
8
drills_PTH
10
27.94
20
12.700000000000001
30
0
40
0.4572
0
CIRCLE
8
drills_PTH
10
25.400000000000002
20
10.16
30
0
40
0.4572
0
CIRCLE
8
drills_PTH
10
17.78
20
12.700000000000001
30
0
40
0.4572
0
CIRCLE
8
drills_PTH
10
25.400000000000002
20
12.700000000000001
30
0
40
0.4572
0
CIRCLE
8
drills_PTH
10
22.86
20
10.16
30
0
40
0.4572
0
CIRCLE
8
drills_PTH
10
22.86
20
12.700000000000001
30
0
40
0.4572
0
CIRCLE
8
drills_PTH
10
20.32
20
10.16
30
0
40
0.4572
0
CIRCLE
8
drills_PTH
10
20.32
20
12.700000000000001
30
0
40
0.4572
0
ENDSEC
0
EOF