0
SECTION
2
HEADER
9
$ANGDIR
70
1
9
$AUNITS
70
0
9
$PROJECTNAME
1
plu
9
$TDCREATE
40
2458652.66629882
9
$INSUNITS
70
1
0
ENDSEC
0
SECTION
2
ENTITIES
0
POLYLINE
66
1
8
outline
10
0.0
20
0.0
30
0.0
70
1
0
VERTEX
8
0
10
-0.2
20
0.225
30
0
0
VERTEX
8
0
10
-0.19686983267716535
20
0.2033062253937008
30
0
0
VERTEX
8
0
10
-0.1918607283464567
20
0.1819677657480315
30
0
0
VERTEX
8
0
10
-0.18501107283464566
20
0.16114714566929134
30
0
0
VERTEX
8
0
10
-0.17637266240157481
20
0.1410027066929134
30
0
0
VERTEX
8
0
10
-0.1660115649606299
20
0.12168774606299212
30
0
0
VERTEX
8
0
10
-0.15400639763779528
20
0.1033494094488189
30
0
0
VERTEX
8
0
10
-0.14044869586614173
20
0.08612709153543308
30
0
0
VERTEX
8
0
10
-0.12544156003937007
20
0.07015206692913385
30
0
0
VERTEX
8
0
10
-0.10909916338582677
20
0.05554564468503937
30
0
0
VERTEX
8
0
10
-0.0915458907480315
20
0.04241929133858268
30
0
0
VERTEX
8
0
10
-0.07291547736220473
20
0.030872662401574803
30
0
0
VERTEX
8
0
10
-0.05334953248031496
20
0.02099372539370079
30
0
0
VERTEX
8
0
10
-0.03299704724409449
20
0.012857652559055119
30
0
0
VERTEX
8
0
10
-0.012012918307086614
20
0.00652632874015748
30
0
0
VERTEX
8
0
10
0.009443159448818898
20
0.0020481053149606298
30
0
0
VERTEX
8
0
10
0.03120792322834646
20
-0.0005431840551181102
30
0
0
VERTEX
8
0
10
0.05311564960629921
20
-0.0012276082677165354
30
0
0
VERTEX
8
0
10
0.075
20
0
30
0
0
VERTEX
8
0
10
3.425
20
0
30
0
0
VERTEX
8
0
10
3.446884104330709
20
-0.0012276082677165354
30
0
0
VERTEX
8
0
10
3.4687918307086614
20
-0.0005431840551181102
30
0
0
VERTEX
8
0
10
3.490556594488189
20
0.0020481053149606298
30
0
0
VERTEX
8
0
10
3.5120126722440945
20
0.00652632874015748
30
0
0
VERTEX
8
0
10
3.532996801181102
20
0.012857529527559055
30
0
0
VERTEX
8
0
10
3.5533492864173226
20
0.020993602362204725
30
0
0
VERTEX
8
0
10
3.5729152312992127
20
0.03087253937007874
30
0
0
VERTEX
8
0
10
3.591545767716535
20
0.04241916830708661
30
0
0
VERTEX
8
0
10
3.6090989173228345
20
0.05554564468503937
30
0
0
VERTEX
8
0
10
3.625441313976378
20
0.07015194389763779
30
0
0
VERTEX
8
0
10
3.6404484498031495
20
0.08612709153543308
30
0
0
VERTEX
8
0
10
3.6540062746062993
20
0.10334928641732284
30
0
0
VERTEX
8
0
10
3.6660113188976378
20
0.12168762303149606
30
0
0
VERTEX
8
0
10
3.6763725393700786
20
0.14100258366141732
30
0
0
VERTEX
8
0
10
3.6850108267716535
20
0.16114702263779526
30
0
0
VERTEX
8
0
10
3.6918606053149605
20
0.18196764271653543
30
0
0
VERTEX
8
0
10
3.6968697096456693
20
0.20330610236220473
30
0
0
VERTEX
8
0
10
3.7
20
0.225
30
0
0
VERTEX
8
0
10
3.7
20
3.555
30
0
0
VERTEX
8
0
10
3.6990676673228347
20
3.5763531003937006
30
0
0
VERTEX
8
0
10
3.6962779281496063
20
3.5975437992125983
30
0
0
VERTEX
8
0
10
3.6916518208661415
20
3.6184106791338584
30
0
0
VERTEX
8
0
10
3.685224655511811
20
3.638794906496063
30
0
0
VERTEX
8
0
10
3.677045398622047
20
3.658541461614173
30
0
0
VERTEX
8
0
10
3.667176181102362
20
3.6775
30
0
0
VERTEX
8
0
10
3.6556922982283466
20
3.6955262057086613
30
0
0
VERTEX
8
0
10
3.642680856299213
20
3.712483021653543
30
0
0
VERTEX
8
0
10
3.6282411417322833
20
3.7282411417322834
30
0
0
VERTEX
8
0
10
3.6124830216535435
20
3.7426808562992124
30
0
0
VERTEX
8
0
10
3.595526205708661
20
3.7556922982283463
30
0
0
VERTEX
8
0
10
3.5775
20
3.767176181102362
30
0
0
VERTEX
8
0
10
3.558541461614173
20
3.777045398622047
30
0
0
VERTEX
8
0
10
3.538794906496063
20
3.785224655511811
30
0
0
VERTEX
8
0
10
3.5184106791338583
20
3.7916518208661416
30
0
0
VERTEX
8
0
10
3.4975437992125986
20
3.7962779281496064
30
0
0
VERTEX
8
0
10
3.476353100393701
20
3.7990676673228347
30
0
0
VERTEX
8
0
10
3.455
20
3.8
30
0
0
VERTEX
8
0
10
0.105
20
3.8
30
0
0
VERTEX
8
0
10
0.08091806102362205
20
3.8015682824803148
30
0
0
VERTEX
8
0
10
0.05679096948818898
20
3.801031619094488
30
0
0
VERTEX
8
0
10
0.0328025344488189
20
3.7983941929133858
30
0
0
VERTEX
8
0
10
0.009135211614173229
20
3.793676058070866
30
0
0
VERTEX
8
0
10
-0.014030757874015748
20
3.7869132627952755
30
0
0
VERTEX
8
0
10
-0.036519192913385824
20
3.7781569881889765
30
0
0
VERTEX
8
0
10
-0.058158956692913384
20
3.7674741633858266
30
0
0
VERTEX
8
0
10
-0.07878531003937007
20
3.7549459891732284
30
0
0
VERTEX
8
0
10
-0.09824114173228346
20
3.7406676919291337
30
0
0
VERTEX
8
0
10
-0.11637869094488189
20
3.724748031496063
30
0
0
VERTEX
8
0
10
-0.1330595472440945
20
3.7073081938976378
30
0
0
VERTEX
8
0
10
-0.14815698818897638
20
3.6884809301181103
30
0
0
VERTEX
8
0
10
-0.1615562253937008
20
3.6684093257874015
30
0
0
VERTEX
8
0
10
-0.1731548966535433
20
3.647246432086614
30
0
0
VERTEX
8
0
10
-0.18286515748031495
20
3.6251531742125986
30
0
0
VERTEX
8
0
10
-0.19061281988188977
20
3.6022976131889766
30
0
0
VERTEX
8
0
10
-0.19633895177165353
20
3.578853838582677
30
0
0
VERTEX
8
0
10
-0.2
20
3.555
30
0
0
VERTEX
8
0
10
-0.2
20
0.225
30
0
0
SEQEND
0
POLYLINE
66
1
8
holes
10
0.0
20
0.0
30
0.0
70
1
0
VERTEX
8
0
10
3.506003937007874
20
3.527999753937008
30
0
0
VERTEX
8
0
10
3.505718503937008
20
3.524009596456693
30
0
0
VERTEX
8
0
10
3.5051492372047246
20
3.5200499507874015
30
0
0
VERTEX
8
0
10
3.504298843503937
20
3.516140994094488
30
0
0
VERTEX
8
0
10
3.503171875
20
3.512302657480315
30
0
0
VERTEX
8
0
10
3.501773868110236
20
3.508554502952756
30
0
0
VERTEX
8
0
10
3.5001120816929134
20
3.5049157234251966
30
0
0
VERTEX
8
0
10
3.4981948818897637
20
3.501404650590551
30
0
0
VERTEX
8
0
10
3.4960321112204724
20
3.49803937007874
30
0
0
VERTEX
8
0
10
3.4936348425196853
20
3.4948368602362203
30
0
0
VERTEX
8
0
10
3.4910151328740158
20
3.4918136072834645
30
0
0
VERTEX
8
0
10
3.4881863927165355
20
3.488984867125984
30
0
0
VERTEX
8
0
10
3.4851631397637797
20
3.486365157480315
30
0
0
VERTEX
8
0
10
3.48196062992126
20
3.4839678887795276
30
0
0
VERTEX
8
0
10
3.478595349409449
20
3.4818051181102363
30
0
0
VERTEX
8
0
10
3.4750842765748033
20
3.4798879183070865
30
0
0
VERTEX
8
0
10
3.471445497047244
20
3.478226131889764
30
0
0
VERTEX
8
0
10
3.467697342519685
20
3.476828125
30
0
0
VERTEX
8
0
10
3.463859005905512
20
3.475701156496063
30
0
0
VERTEX
8
0
10
3.4599500492125985
20
3.4748507627952754
30
0
0
VERTEX
8
0
10
3.455990403543307
20
3.474281496062992
30
0
0
VERTEX
8
0
10
3.452000246062992
20
3.473996062992126
30
0
0
VERTEX
8
0
10
3.4479997539370077
20
3.473996062992126
30
0
0
VERTEX
8
0
10
3.444009596456693
20
3.474281496062992
30
0
0
VERTEX
8
0
10
3.4400499507874014
20
3.4748507627952754
30
0
0
VERTEX
8
0
10
3.436140994094488
20
3.475701156496063
30
0
0
VERTEX
8
0
10
3.432302657480315
20
3.476828125
30
0
0
VERTEX
8
0
10
3.428554502952756
20
3.478226131889764
30
0
0
VERTEX
8
0
10
3.424915723425197
20
3.4798879183070865
30
0
0
VERTEX
8
0
10
3.421404650590551
20
3.4818051181102363
30
0
0
VERTEX
8
0
10
3.4180393700787404
20
3.4839678887795276
30
0
0
VERTEX
8
0
10
3.4148368602362207
20
3.486365157480315
30
0
0
VERTEX
8
0
10
3.4118136072834644
20
3.488984867125984
30
0
0
VERTEX
8
0
10
3.408984867125984
20
3.4918136072834645
30
0
0
VERTEX
8
0
10
3.406365157480315
20
3.4948368602362203
30
0
0
VERTEX
8
0
10
3.4039678887795275
20
3.49803937007874
30
0
0
VERTEX
8
0
10
3.4018051181102362
20
3.501404650590551
30
0
0
VERTEX
8
0
10
3.3998879183070865
20
3.5049157234251966
30
0
0
VERTEX
8
0
10
3.3982261318897637
20
3.508554502952756
30
0
0
VERTEX
8
0
10
3.396828125
20
3.512302657480315
30
0
0
VERTEX
8
0
10
3.395701156496063
20
3.516140994094488
30
0
0
VERTEX
8
0
10
3.3948507627952758
20
3.5200499507874015
30
0
0
VERTEX
8
0
10
3.3942814960629923
20
3.524009596456693
30
0
0
VERTEX
8
0
10
3.393996062992126
20
3.527999753937008
30
0
0
VERTEX
8
0
10
3.393996062992126
20
3.5320002460629922
30
0
0
VERTEX
8
0
10
3.3942814960629923
20
3.535990403543307
30
0
0
VERTEX
8
0
10
3.3948507627952758
20
3.5399500492125986
30
0
0
VERTEX
8
0
10
3.395701156496063
20
3.543859005905512
30
0
0
VERTEX
8
0
10
3.396828125
20
3.547697342519685
30
0
0
VERTEX
8
0
10
3.3982261318897637
20
3.551445497047244
30
0
0
VERTEX
8
0
10
3.3998879183070865
20
3.555084276574803
30
0
0
VERTEX
8
0
10
3.4018051181102362
20
3.558595349409449
30
0
0
VERTEX
8
0
10
3.4039678887795275
20
3.56196062992126
30
0
0
VERTEX
8
0
10
3.406365157480315
20
3.5651631397637797
30
0
0
VERTEX
8
0
10
3.408984867125984
20
3.5681863927165356
30
0
0
VERTEX
8
0
10
3.4118136072834644
20
3.571015132874016
30
0
0
VERTEX
8
0
10
3.4148368602362207
20
3.573634842519685
30
0
0
VERTEX
8
0
10
3.4180393700787404
20
3.5760321112204725
30
0
0
VERTEX
8
0
10
3.421404650590551
20
3.5781948818897638
30
0
0
VERTEX
8
0
10
3.424915723425197
20
3.5801120816929135
30
0
0
VERTEX
8
0
10
3.428554502952756
20
3.5817738681102362
30
0
0
VERTEX
8
0
10
3.432302657480315
20
3.583171875
30
0
0
VERTEX
8
0
10
3.436140994094488
20
3.584298843503937
30
0
0
VERTEX
8
0
10
3.4400499507874014
20
3.5851492372047242
30
0
0
VERTEX
8
0
10
3.444009596456693
20
3.585718503937008
30
0
0
VERTEX
8
0
10
3.4479997539370077
20
3.5860039370078742
30
0
0
VERTEX
8
0
10
3.452000246062992
20
3.5860039370078742
30
0
0
VERTEX
8
0
10
3.455990403543307
20
3.585718503937008
30
0
0
VERTEX
8
0
10
3.4599500492125985
20
3.5851492372047242
30
0
0
VERTEX
8
0
10
3.463859005905512
20
3.584298843503937
30
0
0
VERTEX
8
0
10
3.467697342519685
20
3.583171875
30
0
0
VERTEX
8
0
10
3.471445497047244
20
3.5817738681102362
30
0
0
VERTEX
8
0
10
3.4750842765748033
20
3.5801120816929135
30
0
0
VERTEX
8
0
10
3.478595349409449
20
3.5781948818897638
30
0
0
VERTEX
8
0
10
3.48196062992126
20
3.5760321112204725
30
0
0
VERTEX
8
0
10
3.4851631397637797
20
3.573634842519685
30
0
0
VERTEX
8
0
10
3.4881863927165355
20
3.571015132874016
30
0
0
VERTEX
8
0
10
3.4910151328740158
20
3.5681863927165356
30
0
0
VERTEX
8
0
10
3.4936348425196853
20
3.5651631397637797
30
0
0
VERTEX
8
0
10
3.4960321112204724
20
3.56196062992126
30
0
0
VERTEX
8
0
10
3.4981948818897637
20
3.558595349409449
30
0
0
VERTEX
8
0
10
3.5001120816929134
20
3.555084276574803
30
0
0
VERTEX
8
0
10
3.501773868110236
20
3.551445497047244
30
0
0
VERTEX
8
0
10
3.503171875
20
3.547697342519685
30
0
0
VERTEX
8
0
10
3.504298843503937
20
3.543859005905512
30
0
0
VERTEX
8
0
10
3.5051492372047246
20
3.5399500492125986
30
0
0
VERTEX
8
0
10
3.505718503937008
20
3.535990403543307
30
0
0
VERTEX
8
0
10
3.506003937007874
20
3.5320002460629922
30
0
0
VERTEX
8
0
10
3.506003937007874
20
3.527999753937008
30
0
0
SEQEND
0
POLYLINE
66
1
8
holes
10
0.0
20
0.0
30
0.0
70
1
0
VERTEX
8
0
10
0.006003937007874016
20
0.8979997539370079
30
0
0
VERTEX
8
0
10
0.005718503937007874
20
0.8940095964566929
30
0
0
VERTEX
8
0
10
0.005149237204724409
20
0.8900499507874016
30
0
0
VERTEX
8
0
10
0.004298843503937008
20
0.8861409940944882
30
0
0
VERTEX
8
0
10
0.003171875
20
0.882302657480315
30
0
0
VERTEX
8
0
10
0.0017738681102362204
20
0.878554502952756
30
0
0
VERTEX
8
0
10
0.00011208169291338582
20
0.8749157234251969
30
0
0
VERTEX
8
0
10
-0.0018051181102362204
20
0.8714046505905512
30
0
0
VERTEX
8
0
10
-0.003967888779527559
20
0.8680393700787401
30
0
0
VERTEX
8
0
10
-0.00636515748031496
20
0.8648368602362204
30
0
0
VERTEX
8
0
10
-0.008984867125984251
20
0.8618136072834646
30
0
0
VERTEX
8
0
10
-0.011813607283464566
20
0.8589848671259842
30
0
0
VERTEX
8
0
10
-0.014836860236220472
20
0.8563651574803149
30
0
0
VERTEX
8
0
10
-0.018039370078740156
20
0.8539678887795276
30
0
0
VERTEX
8
0
10
-0.02140465059055118
20
0.8518051181102362
30
0
0
VERTEX
8
0
10
-0.02491572342519685
20
0.8498879183070867
30
0
0
VERTEX
8
0
10
-0.028554502952755904
20
0.8482261318897638
30
0
0
VERTEX
8
0
10
-0.03230265748031496
20
0.846828125
30
0
0
VERTEX
8
0
10
-0.03614099409448819
20
0.845701156496063
30
0
0
VERTEX
8
0
10
-0.040049950787401575
20
0.8448507627952756
30
0
0
VERTEX
8
0
10
-0.04400959645669291
20
0.8442814960629921
30
0
0
VERTEX
8
0
10
-0.04799975393700787
20
0.843996062992126
30
0
0
VERTEX
8
0
10
-0.052000246062992125
20
0.843996062992126
30
0
0
VERTEX
8
0
10
-0.05599040354330709
20
0.8442814960629921
30
0
0
VERTEX
8
0
10
-0.05995004921259842
20
0.8448507627952756
30
0
0
VERTEX
8
0
10
-0.06385900590551181
20
0.845701156496063
30
0
0
VERTEX
8
0
10
-0.06769734251968504
20
0.846828125
30
0
0
VERTEX
8
0
10
-0.0714454970472441
20
0.8482261318897638
30
0
0
VERTEX
8
0
10
-0.07508427657480315
20
0.8498879183070867
30
0
0
VERTEX
8
0
10
-0.07859534940944882
20
0.8518051181102362
30
0
0
VERTEX
8
0
10
-0.08196062992125984
20
0.8539678887795276
30
0
0
VERTEX
8
0
10
-0.08516313976377952
20
0.8563651574803149
30
0
0
VERTEX
8
0
10
-0.08818639271653543
20
0.8589848671259842
30
0
0
VERTEX
8
0
10
-0.09101513287401575
20
0.8618136072834646
30
0
0
VERTEX
8
0
10
-0.09363484251968504
20
0.8648368602362204
30
0
0
VERTEX
8
0
10
-0.09603211122047244
20
0.8680393700787401
30
0
0
VERTEX
8
0
10
-0.09819488188976377
20
0.8714046505905512
30
0
0
VERTEX
8
0
10
-0.10011208169291338
20
0.8749157234251969
30
0
0
VERTEX
8
0
10
-0.10177386811023623
20
0.878554502952756
30
0
0
VERTEX
8
0
10
-0.103171875
20
0.882302657480315
30
0
0
VERTEX
8
0
10
-0.104298843503937
20
0.8861409940944882
30
0
0
VERTEX
8
0
10
-0.10514923720472441
20
0.8900499507874016
30
0
0
VERTEX
8
0
10
-0.10571850393700788
20
0.8940095964566929
30
0
0
VERTEX
8
0
10
-0.10600393700787401
20
0.8979997539370079
30
0
0
VERTEX
8
0
10
-0.10600393700787401
20
0.9020002460629921
30
0
0
VERTEX
8
0
10
-0.10571850393700788
20
0.9059904035433071
30
0
0
VERTEX
8
0
10
-0.10514923720472441
20
0.9099500492125985
30
0
0
VERTEX
8
0
10
-0.104298843503937
20
0.9138590059055118
30
0
0
VERTEX
8
0
10
-0.103171875
20
0.917697342519685
30
0
0
VERTEX
8
0
10
-0.10177386811023623
20
0.9214454970472441
30
0
0
VERTEX
8
0
10
-0.10011208169291338
20
0.9250842765748032
30
0
0
VERTEX
8
0
10
-0.09819488188976377
20
0.9285953494094488
30
0
0
VERTEX
8
0
10
-0.09603211122047244
20
0.9319606299212598
30
0
0
VERTEX
8
0
10
-0.09363484251968504
20
0.9351631397637795
30
0
0
VERTEX
8
0
10
-0.09101513287401575
20
0.9381863927165355
30
0
0
VERTEX
8
0
10
-0.08818639271653543
20
0.9410151328740157
30
0
0
VERTEX
8
0
10
-0.08516313976377952
20
0.943634842519685
30
0
0
VERTEX
8
0
10
-0.08196062992125984
20
0.9460321112204725
30
0
0
VERTEX
8
0
10
-0.07859534940944882
20
0.9481948818897638
30
0
0
VERTEX
8
0
10
-0.07508427657480315
20
0.9501120816929134
30
0
0
VERTEX
8
0
10
-0.0714454970472441
20
0.9517738681102362
30
0
0
VERTEX
8
0
10
-0.06769734251968504
20
0.953171875
30
0
0
VERTEX
8
0
10
-0.06385900590551181
20
0.954298843503937
30
0
0
VERTEX
8
0
10
-0.05995004921259842
20
0.9551492372047244
30
0
0
VERTEX
8
0
10
-0.05599040354330709
20
0.9557185039370079
30
0
0
VERTEX
8
0
10
-0.052000246062992125
20
0.956003937007874
30
0
0
VERTEX
8
0
10
-0.04799975393700787
20
0.956003937007874
30
0
0
VERTEX
8
0
10
-0.04400959645669291
20
0.9557185039370079
30
0
0
VERTEX
8
0
10
-0.040049950787401575
20
0.9551492372047244
30
0
0
VERTEX
8
0
10
-0.03614099409448819
20
0.954298843503937
30
0
0
VERTEX
8
0
10
-0.03230265748031496
20
0.953171875
30
0
0
VERTEX
8
0
10
-0.028554502952755904
20
0.9517738681102362
30
0
0
VERTEX
8
0
10
-0.02491572342519685
20
0.9501120816929134
30
0
0
VERTEX
8
0
10
-0.02140465059055118
20
0.9481948818897638
30
0
0
VERTEX
8
0
10
-0.018039370078740156
20
0.9460321112204725
30
0
0
VERTEX
8
0
10
-0.014836860236220472
20
0.943634842519685
30
0
0
VERTEX
8
0
10
-0.011813607283464566
20
0.9410151328740157
30
0
0
VERTEX
8
0
10
-0.008984867125984251
20
0.9381863927165355
30
0
0
VERTEX
8
0
10
-0.00636515748031496
20
0.9351631397637795
30
0
0
VERTEX
8
0
10
-0.003967888779527559
20
0.9319606299212598
30
0
0
VERTEX
8
0
10
-0.0018051181102362204
20
0.9285953494094488
30
0
0
VERTEX
8
0
10
0.00011208169291338582
20
0.9250842765748032
30
0
0
VERTEX
8
0
10
0.0017738681102362204
20
0.9214454970472441
30
0
0
VERTEX
8
0
10
0.003171875
20
0.917697342519685
30
0
0
VERTEX
8
0
10
0.004298843503937008
20
0.9138590059055118
30
0
0
VERTEX
8
0
10
0.005149237204724409
20
0.9099500492125985
30
0
0
VERTEX
8
0
10
0.005718503937007874
20
0.9059904035433071
30
0
0
VERTEX
8
0
10
0.006003937007874016
20
0.9020002460629921
30
0
0
VERTEX
8
0
10
0.006003937007874016
20
0.8979997539370079
30
0
0
SEQEND
0
POLYLINE
66
1
8
holes
10
0.0
20
0.0
30
0.0
70
1
0
VERTEX
8
0
10
0.15600393700787402
20
3.527999753937008
30
0
0
VERTEX
8
0
10
0.15571850393700787
20
3.524009596456693
30
0
0
VERTEX
8
0
10
0.1551492372047244
20
3.5200499507874015
30
0
0
VERTEX
8
0
10
0.154298843503937
20
3.516140994094488
30
0
0
VERTEX
8
0
10
0.153171875
20
3.512302657480315
30
0
0
VERTEX
8
0
10
0.15177386811023622
20
3.508554502952756
30
0
0
VERTEX
8
0
10
0.15011208169291337
20
3.5049157234251966
30
0
0
VERTEX
8
0
10
0.1481948818897638
20
3.501404650590551
30
0
0
VERTEX
8
0
10
0.14603211122047244
20
3.49803937007874
30
0
0
VERTEX
8
0
10
0.14363484251968503
20
3.4948368602362203
30
0
0
VERTEX
8
0
10
0.14101513287401574
20
3.4918136072834645
30
0
0
VERTEX
8
0
10
0.13818639271653543
20
3.488984867125984
30
0
0
VERTEX
8
0
10
0.13516313976377953
20
3.486365157480315
30
0
0
VERTEX
8
0
10
0.13196062992125984
20
3.4839678887795276
30
0
0
VERTEX
8
0
10
0.1285953494094488
20
3.4818051181102363
30
0
0
VERTEX
8
0
10
0.12508427657480314
20
3.4798879183070865
30
0
0
VERTEX
8
0
10
0.1214454970472441
20
3.478226131889764
30
0
0
VERTEX
8
0
10
0.11769734251968504
20
3.476828125
30
0
0
VERTEX
8
0
10
0.11385900590551182
20
3.475701156496063
30
0
0
VERTEX
8
0
10
0.10995004921259842
20
3.4748507627952754
30
0
0
VERTEX
8
0
10
0.10599040354330709
20
3.474281496062992
30
0
0
VERTEX
8
0
10
0.10200024606299213
20
3.473996062992126
30
0
0
VERTEX
8
0
10
0.09799975393700787
20
3.473996062992126
30
0
0
VERTEX
8
0
10
0.0940095964566929
20
3.474281496062992
30
0
0
VERTEX
8
0
10
0.09004995078740158
20
3.4748507627952754
30
0
0
VERTEX
8
0
10
0.0861409940944882
20
3.475701156496063
30
0
0
VERTEX
8
0
10
0.08230265748031496
20
3.476828125
30
0
0
VERTEX
8
0
10
0.0785545029527559
20
3.478226131889764
30
0
0
VERTEX
8
0
10
0.07491572342519685
20
3.4798879183070865
30
0
0
VERTEX
8
0
10
0.07140465059055118
20
3.4818051181102363
30
0
0
VERTEX
8
0
10
0.06803937007874016
20
3.4839678887795276
30
0
0
VERTEX
8
0
10
0.06483686023622047
20
3.486365157480315
30
0
0
VERTEX
8
0
10
0.061813607283464564
20
3.488984867125984
30
0
0
VERTEX
8
0
10
0.058984867125984254
20
3.4918136072834645
30
0
0
VERTEX
8
0
10
0.05636515748031496
20
3.4948368602362203
30
0
0
VERTEX
8
0
10
0.05396788877952756
20
3.49803937007874
30
0
0
VERTEX
8
0
10
0.05180511811023622
20
3.501404650590551
30
0
0
VERTEX
8
0
10
0.049887918307086616
20
3.5049157234251966
30
0
0
VERTEX
8
0
10
0.04822613188976378
20
3.508554502952756
30
0
0
VERTEX
8
0
10
0.046828125
20
3.512302657480315
30
0
0
VERTEX
8
0
10
0.04570115649606299
20
3.516140994094488
30
0
0
VERTEX
8
0
10
0.04485076279527559
20
3.5200499507874015
30
0
0
VERTEX
8
0
10
0.04428149606299213
20
3.524009596456693
30
0
0
VERTEX
8
0
10
0.04399606299212598
20
3.527999753937008
30
0
0
VERTEX
8
0
10
0.04399606299212598
20
3.5320002460629922
30
0
0
VERTEX
8
0
10
0.04428149606299213
20
3.535990403543307
30
0
0
VERTEX
8
0
10
0.04485076279527559
20
3.5399500492125986
30
0
0
VERTEX
8
0
10
0.04570115649606299
20
3.543859005905512
30
0
0
VERTEX
8
0
10
0.046828125
20
3.547697342519685
30
0
0
VERTEX
8
0
10
0.04822613188976378
20
3.551445497047244
30
0
0
VERTEX
8
0
10
0.049887918307086616
20
3.555084276574803
30
0
0
VERTEX
8
0
10
0.05180511811023622
20
3.558595349409449
30
0
0
VERTEX
8
0
10
0.05396788877952756
20
3.56196062992126
30
0
0
VERTEX
8
0
10
0.05636515748031496
20
3.5651631397637797
30
0
0
VERTEX
8
0
10
0.058984867125984254
20
3.5681863927165356
30
0
0
VERTEX
8
0
10
0.061813607283464564
20
3.571015132874016
30
0
0
VERTEX
8
0
10
0.06483686023622047
20
3.573634842519685
30
0
0
VERTEX
8
0
10
0.06803937007874016
20
3.5760321112204725
30
0
0
VERTEX
8
0
10
0.07140465059055118
20
3.5781948818897638
30
0
0
VERTEX
8
0
10
0.07491572342519685
20
3.5801120816929135
30
0
0
VERTEX
8
0
10
0.0785545029527559
20
3.5817738681102362
30
0
0
VERTEX
8
0
10
0.08230265748031496
20
3.583171875
30
0
0
VERTEX
8
0
10
0.0861409940944882
20
3.584298843503937
30
0
0
VERTEX
8
0
10
0.09004995078740158
20
3.5851492372047242
30
0
0
VERTEX
8
0
10
0.0940095964566929
20
3.585718503937008
30
0
0
VERTEX
8
0
10
0.09799975393700787
20
3.5860039370078742
30
0
0
VERTEX
8
0
10
0.10200024606299213
20
3.5860039370078742
30
0
0
VERTEX
8
0
10
0.10599040354330709
20
3.585718503937008
30
0
0
VERTEX
8
0
10
0.10995004921259842
20
3.5851492372047242
30
0
0
VERTEX
8
0
10
0.11385900590551182
20
3.584298843503937
30
0
0
VERTEX
8
0
10
0.11769734251968504
20
3.583171875
30
0
0
VERTEX
8
0
10
0.1214454970472441
20
3.5817738681102362
30
0
0
VERTEX
8
0
10
0.12508427657480314
20
3.5801120816929135
30
0
0
VERTEX
8
0
10
0.1285953494094488
20
3.5781948818897638
30
0
0
VERTEX
8
0
10
0.13196062992125984
20
3.5760321112204725
30
0
0
VERTEX
8
0
10
0.13516313976377953
20
3.573634842519685
30
0
0
VERTEX
8
0
10
0.13818639271653543
20
3.571015132874016
30
0
0
VERTEX
8
0
10
0.14101513287401574
20
3.5681863927165356
30
0
0
VERTEX
8
0
10
0.14363484251968503
20
3.5651631397637797
30
0
0
VERTEX
8
0
10
0.14603211122047244
20
3.56196062992126
30
0
0
VERTEX
8
0
10
0.1481948818897638
20
3.558595349409449
30
0
0
VERTEX
8
0
10
0.15011208169291337
20
3.555084276574803
30
0
0
VERTEX
8
0
10
0.15177386811023622
20
3.551445497047244
30
0
0
VERTEX
8
0
10
0.153171875
20
3.547697342519685
30
0
0
VERTEX
8
0
10
0.154298843503937
20
3.543859005905512
30
0
0
VERTEX
8
0
10
0.1551492372047244
20
3.5399500492125986
30
0
0
VERTEX
8
0
10
0.15571850393700787
20
3.535990403543307
30
0
0
VERTEX
8
0
10
0.15600393700787402
20
3.5320002460629922
30
0
0
VERTEX
8
0
10
0.15600393700787402
20
3.527999753937008
30
0
0
SEQEND
0
POLYLINE
66
1
8
holes
10
0.0
20
0.0
30
0.0
70
1
0
VERTEX
8
0
10
3.506003937007874
20
0.24799975393700788
30
0
0
VERTEX
8
0
10
3.505718503937008
20
0.2440095964566929
30
0
0
VERTEX
8
0
10
3.5051492372047246
20
0.24004995078740157
30
0
0
VERTEX
8
0
10
3.504298843503937
20
0.2361409940944882
30
0
0
VERTEX
8
0
10
3.503171875
20
0.23230265748031495
30
0
0
VERTEX
8
0
10
3.501773868110236
20
0.2285545029527559
30
0
0
VERTEX
8
0
10
3.5001120816929134
20
0.22491572342519686
30
0
0
VERTEX
8
0
10
3.4981948818897637
20
0.22140465059055117
30
0
0
VERTEX
8
0
10
3.4960321112204724
20
0.21803937007874016
30
0
0
VERTEX
8
0
10
3.4936348425196853
20
0.21483686023622048
30
0
0
VERTEX
8
0
10
3.4910151328740158
20
0.21181360728346457
30
0
0
VERTEX
8
0
10
3.4881863927165355
20
0.20898486712598424
30
0
0
VERTEX
8
0
10
3.4851631397637797
20
0.20636515748031495
30
0
0
VERTEX
8
0
10
3.48196062992126
20
0.20396788877952757
30
0
0
VERTEX
8
0
10
3.478595349409449
20
0.20180511811023621
30
0
0
VERTEX
8
0
10
3.4750842765748033
20
0.1998879183070866
30
0
0
VERTEX
8
0
10
3.471445497047244
20
0.1982261318897638
30
0
0
VERTEX
8
0
10
3.467697342519685
20
0.196828125
30
0
0
VERTEX
8
0
10
3.463859005905512
20
0.19570115649606298
30
0
0
VERTEX
8
0
10
3.4599500492125985
20
0.19485076279527558
30
0
0
VERTEX
8
0
10
3.455990403543307
20
0.19428149606299214
30
0
0
VERTEX
8
0
10
3.452000246062992
20
0.193996062992126
30
0
0
VERTEX
8
0
10
3.4479997539370077
20
0.193996062992126
30
0
0
VERTEX
8
0
10
3.444009596456693
20
0.19428149606299214
30
0
0
VERTEX
8
0
10
3.4400499507874014
20
0.19485076279527558
30
0
0
VERTEX
8
0
10
3.436140994094488
20
0.19570115649606298
30
0
0
VERTEX
8
0
10
3.432302657480315
20
0.196828125
30
0
0
VERTEX
8
0
10
3.428554502952756
20
0.1982261318897638
30
0
0
VERTEX
8
0
10
3.424915723425197
20
0.1998879183070866
30
0
0
VERTEX
8
0
10
3.421404650590551
20
0.20180511811023621
30
0
0
VERTEX
8
0
10
3.4180393700787404
20
0.20396788877952757
30
0
0
VERTEX
8
0
10
3.4148368602362207
20
0.20636515748031495
30
0
0
VERTEX
8
0
10
3.4118136072834644
20
0.20898486712598424
30
0
0
VERTEX
8
0
10
3.408984867125984
20
0.21181360728346457
30
0
0
VERTEX
8
0
10
3.406365157480315
20
0.21483686023622048
30
0
0
VERTEX
8
0
10
3.4039678887795275
20
0.21803937007874016
30
0
0
VERTEX
8
0
10
3.4018051181102362
20
0.22140465059055117
30
0
0
VERTEX
8
0
10
3.3998879183070865
20
0.22491572342519686
30
0
0
VERTEX
8
0
10
3.3982261318897637
20
0.2285545029527559
30
0
0
VERTEX
8
0
10
3.396828125
20
0.23230265748031495
30
0
0
VERTEX
8
0
10
3.395701156496063
20
0.2361409940944882
30
0
0
VERTEX
8
0
10
3.3948507627952758
20
0.24004995078740157
30
0
0
VERTEX
8
0
10
3.3942814960629923
20
0.2440095964566929
30
0
0
VERTEX
8
0
10
3.393996062992126
20
0.24799975393700788
30
0
0
VERTEX
8
0
10
3.393996062992126
20
0.25200024606299215
30
0
0
VERTEX
8
0
10
3.3942814960629923
20
0.2559904035433071
30
0
0
VERTEX
8
0
10
3.3948507627952758
20
0.2599500492125984
30
0
0
VERTEX
8
0
10
3.395701156496063
20
0.2638590059055118
30
0
0
VERTEX
8
0
10
3.396828125
20
0.267697342519685
30
0
0
VERTEX
8
0
10
3.3982261318897637
20
0.2714454970472441
30
0
0
VERTEX
8
0
10
3.3998879183070865
20
0.27508427657480317
30
0
0
VERTEX
8
0
10
3.4018051181102362
20
0.2785953494094488
30
0
0
VERTEX
8
0
10
3.4039678887795275
20
0.28196062992125986
30
0
0
VERTEX
8
0
10
3.406365157480315
20
0.28516313976377955
30
0
0
VERTEX
8
0
10
3.408984867125984
20
0.28818639271653546
30
0
0
VERTEX
8
0
10
3.4118136072834644
20
0.29101513287401576
30
0
0
VERTEX
8
0
10
3.4148368602362207
20
0.293634842519685
30
0
0
VERTEX
8
0
10
3.4180393700787404
20
0.29603211122047246
30
0
0
VERTEX
8
0
10
3.421404650590551
20
0.2981948818897638
30
0
0
VERTEX
8
0
10
3.424915723425197
20
0.30011208169291337
30
0
0
VERTEX
8
0
10
3.428554502952756
20
0.3017738681102362
30
0
0
VERTEX
8
0
10
3.432302657480315
20
0.303171875
30
0
0
VERTEX
8
0
10
3.436140994094488
20
0.304298843503937
30
0
0
VERTEX
8
0
10
3.4400499507874014
20
0.3051492372047244
30
0
0
VERTEX
8
0
10
3.444009596456693
20
0.3057185039370079
30
0
0
VERTEX
8
0
10
3.4479997539370077
20
0.30600393700787404
30
0
0
VERTEX
8
0
10
3.452000246062992
20
0.30600393700787404
30
0
0
VERTEX
8
0
10
3.455990403543307
20
0.3057185039370079
30
0
0
VERTEX
8
0
10
3.4599500492125985
20
0.3051492372047244
30
0
0
VERTEX
8
0
10
3.463859005905512
20
0.304298843503937
30
0
0
VERTEX
8
0
10
3.467697342519685
20
0.303171875
30
0
0
VERTEX
8
0
10
3.471445497047244
20
0.3017738681102362
30
0
0
VERTEX
8
0
10
3.4750842765748033
20
0.30011208169291337
30
0
0
VERTEX
8
0
10
3.478595349409449
20
0.2981948818897638
30
0
0
VERTEX
8
0
10
3.48196062992126
20
0.29603211122047246
30
0
0
VERTEX
8
0
10
3.4851631397637797
20
0.293634842519685
30
0
0
VERTEX
8
0
10
3.4881863927165355
20
0.29101513287401576
30
0
0
VERTEX
8
0
10
3.4910151328740158
20
0.28818639271653546
30
0
0
VERTEX
8
0
10
3.4936348425196853
20
0.28516313976377955
30
0
0
VERTEX
8
0
10
3.4960321112204724
20
0.28196062992125986
30
0
0
VERTEX
8
0
10
3.4981948818897637
20
0.2785953494094488
30
0
0
VERTEX
8
0
10
3.5001120816929134
20
0.27508427657480317
30
0
0
VERTEX
8
0
10
3.501773868110236
20
0.2714454970472441
30
0
0
VERTEX
8
0
10
3.503171875
20
0.267697342519685
30
0
0
VERTEX
8
0
10
3.504298843503937
20
0.2638590059055118
30
0
0
VERTEX
8
0
10
3.5051492372047246
20
0.2599500492125984
30
0
0
VERTEX
8
0
10
3.505718503937008
20
0.2559904035433071
30
0
0
VERTEX
8
0
10
3.506003937007874
20
0.25200024606299215
30
0
0
VERTEX
8
0
10
3.506003937007874
20
0.24799975393700788
30
0
0
SEQEND
0
POLYLINE
66
1
8
1_copper
10
0.0
20
0.0
30
0.0
70
1
0
VERTEX
8
0
10
1.9854330708661416
20
3.3353232037401574
30
0
0
VERTEX
8
0
10
1.9854330708661416
20
3.3646767962598427
30
0
0
VERTEX
8
0
10
1.9646767962598426
20
3.3854330708661418
30
0
0
VERTEX
8
0
10
1.9353232037401575
20
3.3854330708661418
30
0
0
VERTEX
8
0
10
1.9145669291338583
20
3.3646767962598427
30
0
0
VERTEX
8
0
10
1.9145669291338583
20
3.3353232037401574
30
0
0
VERTEX
8
0
10
1.9353232037401575
20
3.3145669291338584
30
0
0
VERTEX
8
0
10
1.9646767962598426
20
3.3145669291338584
30
0
0
SEQEND
0
POLYLINE
66
1
8
1_copper
10
0.0
20
0.0
30
0.0
70
1
0
VERTEX
8
0
10
1.9854330708661416
20
2.4353232037401575
30
0
0
VERTEX
8
0
10
1.9854330708661416
20
2.4646767962598424
30
0
0
VERTEX
8
0
10
1.9646767962598426
20
2.485433070866142
30
0
0
VERTEX
8
0
10
1.9353232037401575
20
2.485433070866142
30
0
0
VERTEX
8
0
10
1.9145669291338583
20
2.4646767962598424
30
0
0
VERTEX
8
0
10
1.9145669291338583
20
2.4353232037401575
30
0
0
VERTEX
8
0
10
1.9353232037401575
20
2.414566929133858
30
0
0
VERTEX
8
0
10
1.9646767962598426
20
2.414566929133858
30
0
0
SEQEND
0
POLYLINE
66
1
8
1_copper
10
0.0
20
0.0
30
0.0
70
1
0
VERTEX
8
0
10
2.8854330708661418
20
2.4353232037401575
30
0
0
VERTEX
8
0
10
2.8854330708661418
20
2.4646767962598424
30
0
0
VERTEX
8
0
10
2.8646767962598427
20
2.485433070866142
30
0
0
VERTEX
8
0
10
2.8353232037401574
20
2.485433070866142
30
0
0
VERTEX
8
0
10
2.8145669291338584
20
2.4646767962598424
30
0
0
VERTEX
8
0
10
2.8145669291338584
20
2.4353232037401575
30
0
0
VERTEX
8
0
10
2.8353232037401574
20
2.414566929133858
30
0
0
VERTEX
8
0
10
2.8646767962598427
20
2.414566929133858
30
0
0
SEQEND
0
POLYLINE
66
1
8
1_copper
10
0.0
20
0.0
30
0.0
70
1
0
VERTEX
8
0
10
1.5790551181102361
20
1.2164659202755905
30
0
0
VERTEX
8
0
10
1.5790551181102361
20
1.2705419537401574
30
0
0
VERTEX
8
0
10
1.5408175442913385
20
1.308779527559055
30
0
0
VERTEX
8
0
10
1.4867415108267716
20
1.308779527559055
30
0
0
VERTEX
8
0
10
1.448503937007874
20
1.2705419537401574
30
0
0
VERTEX
8
0
10
1.448503937007874
20
1.2164659202755905
30
0
0
VERTEX
8
0
10
1.4867415108267716
20
1.178228346456693
30
0
0
VERTEX
8
0
10
1.5408175442913385
20
1.178228346456693
30
0
0
SEQEND
0
POLYLINE
66
1
8
1_copper
10
0.0
20
0.0
30
0.0
70
1
0
VERTEX
8
0
10
2.053070866141732
20
1.2164659202755905
30
0
0
VERTEX
8
0
10
2.053070866141732
20
1.2705419537401574
30
0
0
VERTEX
8
0
10
2.0148332923228347
20
1.308779527559055
30
0
0
VERTEX
8
0
10
1.9607572588582678
20
1.308779527559055
30
0
0
VERTEX
8
0
10
1.92251968503937
20
1.2705419537401574
30
0
0
VERTEX
8
0
10
1.92251968503937
20
1.2164659202755905
30
0
0
VERTEX
8
0
10
1.9607572588582678
20
1.178228346456693
30
0
0
VERTEX
8
0
10
2.0148332923228347
20
1.178228346456693
30
0
0
SEQEND
0
POLYLINE
66
1
8
1_copper
10
0.0
20
0.0
30
0.0
70
1
0
VERTEX
8
0
10
1.228
20
0.48840206692913385
30
0
0
VERTEX
8
0
10
1.228
20
0.5115979330708661
30
0
0
VERTEX
8
0
10
1.2115979330708662
20
0.528
30
0
0
VERTEX
8
0
10
1.1884020669291337
20
0.528
30
0
0
VERTEX
8
0
10
1.172
20
0.5115979330708661
30
0
0
VERTEX
8
0
10
1.172
20
0.48840206692913385
30
0
0
VERTEX
8
0
10
1.1884020669291337
20
0.472
30
0
0
VERTEX
8
0
10
1.2115979330708662
20
0.472
30
0
0
SEQEND
0
POLYLINE
66
1
8
1_copper
10
0.0
20
0.0
30
0.0
70
1
0
VERTEX
8
0
10
0.728
20
0.38840206692913387
30
0
0
VERTEX
8
0
10
0.728
20
0.4115979330708661
30
0
0
VERTEX
8
0
10
0.7115979330708662
20
0.428
30
0
0
VERTEX
8
0
10
0.6884020669291339
20
0.428
30
0
0
VERTEX
8
0
10
0.672
20
0.4115979330708661
30
0
0
VERTEX
8
0
10
0.672
20
0.38840206692913387
30
0
0
VERTEX
8
0
10
0.6884020669291339
20
0.372
30
0
0
VERTEX
8
0
10
0.7115979330708662
20
0.372
30
0
0
SEQEND
0
POLYLINE
66
1
8
1_copper
10
0.0
20
0.0
30
0.0
70
1
0
VERTEX
8
0
10
1.228
20
0.38840206692913387
30
0
0
VERTEX
8
0
10
1.228
20
0.4115979330708661
30
0
0
VERTEX
8
0
10
1.2115979330708662
20
0.428
30
0
0
VERTEX
8
0
10
1.1884020669291337
20
0.428
30
0
0
VERTEX
8
0
10
1.172
20
0.4115979330708661
30
0
0
VERTEX
8
0
10
1.172
20
0.38840206692913387
30
0
0
VERTEX
8
0
10
1.1884020669291337
20
0.372
30
0
0
VERTEX
8
0
10
1.2115979330708662
20
0.372
30
0
0
SEQEND
0
POLYLINE
66
1
8
16_copper
10
0.0
20
0.0
30
0.0
70
1
0
VERTEX
8
0
10
1.9854330708661416
20
3.3353232037401574
30
0
0
VERTEX
8
0
10
1.9854330708661416
20
3.3646767962598427
30
0
0
VERTEX
8
0
10
1.9646767962598426
20
3.3854330708661418
30
0
0
VERTEX
8
0
10
1.9353232037401575
20
3.3854330708661418
30
0
0
VERTEX
8
0
10
1.9145669291338583
20
3.3646767962598427
30
0
0
VERTEX
8
0
10
1.9145669291338583
20
3.3353232037401574
30
0
0
VERTEX
8
0
10
1.9353232037401575
20
3.3145669291338584
30
0
0
VERTEX
8
0
10
1.9646767962598426
20
3.3145669291338584
30
0
0
SEQEND
0
POLYLINE
66
1
8
16_copper
10
0.0
20
0.0
30
0.0
70
1
0
VERTEX
8
0
10
1.9854330708661416
20
2.4353232037401575
30
0
0
VERTEX
8
0
10
1.9854330708661416
20
2.4646767962598424
30
0
0
VERTEX
8
0
10
1.9646767962598426
20
2.485433070866142
30
0
0
VERTEX
8
0
10
1.9353232037401575
20
2.485433070866142
30
0
0
VERTEX
8
0
10
1.9145669291338583
20
2.4646767962598424
30
0
0
VERTEX
8
0
10
1.9145669291338583
20
2.4353232037401575
30
0
0
VERTEX
8
0
10
1.9353232037401575
20
2.414566929133858
30
0
0
VERTEX
8
0
10
1.9646767962598426
20
2.414566929133858
30
0
0
SEQEND
0
POLYLINE
66
1
8
16_copper
10
0.0
20
0.0
30
0.0
70
1
0
VERTEX
8
0
10
2.8854330708661418
20
2.4353232037401575
30
0
0
VERTEX
8
0
10
2.8854330708661418
20
2.4646767962598424
30
0
0
VERTEX
8
0
10
2.8646767962598427
20
2.485433070866142
30
0
0
VERTEX
8
0
10
2.8353232037401574
20
2.485433070866142
30
0
0
VERTEX
8
0
10
2.8145669291338584
20
2.4646767962598424
30
0
0
VERTEX
8
0
10
2.8145669291338584
20
2.4353232037401575
30
0
0
VERTEX
8
0
10
2.8353232037401574
20
2.414566929133858
30
0
0
VERTEX
8
0
10
2.8646767962598427
20
2.414566929133858
30
0
0
SEQEND
0
POLYLINE
66
1
8
16_copper
10
0.0
20
0.0
30
0.0
70
1
0
VERTEX
8
0
10
1.5790551181102361
20
1.2164659202755905
30
0
0
VERTEX
8
0
10
1.5790551181102361
20
1.2705419537401574
30
0
0
VERTEX
8
0
10
1.5408175442913385
20
1.308779527559055
30
0
0
VERTEX
8
0
10
1.4867415108267716
20
1.308779527559055
30
0
0
VERTEX
8
0
10
1.448503937007874
20
1.2705419537401574
30
0
0
VERTEX
8
0
10
1.448503937007874
20
1.2164659202755905
30
0
0
VERTEX
8
0
10
1.4867415108267716
20
1.178228346456693
30
0
0
VERTEX
8
0
10
1.5408175442913385
20
1.178228346456693
30
0
0
SEQEND
0
POLYLINE
66
1
8
16_copper
10
0.0
20
0.0
30
0.0
70
1
0
VERTEX
8
0
10
2.053070866141732
20
1.2164659202755905
30
0
0
VERTEX
8
0
10
2.053070866141732
20
1.2705419537401574
30
0
0
VERTEX
8
0
10
2.0148332923228347
20
1.308779527559055
30
0
0
VERTEX
8
0
10
1.9607572588582678
20
1.308779527559055
30
0
0
VERTEX
8
0
10
1.92251968503937
20
1.2705419537401574
30
0
0
VERTEX
8
0
10
1.92251968503937
20
1.2164659202755905
30
0
0
VERTEX
8
0
10
1.9607572588582678
20
1.178228346456693
30
0
0
VERTEX
8
0
10
2.0148332923228347
20
1.178228346456693
30
0
0
SEQEND
0
POLYLINE
66
1
8
16_copper
10
0.0
20
0.0
30
0.0
70
1
0
VERTEX
8
0
10
1.228
20
0.48840206692913385
30
0
0
VERTEX
8
0
10
1.228
20
0.5115979330708661
30
0
0
VERTEX
8
0
10
1.2115979330708662
20
0.528
30
0
0
VERTEX
8
0
10
1.1884020669291337
20
0.528
30
0
0
VERTEX
8
0
10
1.172
20
0.5115979330708661
30
0
0
VERTEX
8
0
10
1.172
20
0.48840206692913385
30
0
0
VERTEX
8
0
10
1.1884020669291337
20
0.472
30
0
0
VERTEX
8
0
10
1.2115979330708662
20
0.472
30
0
0
SEQEND
0
POLYLINE
66
1
8
16_copper
10
0.0
20
0.0
30
0.0
70
1
0
VERTEX
8
0
10
0.728
20
0.38840206692913387
30
0
0
VERTEX
8
0
10
0.728
20
0.4115979330708661
30
0
0
VERTEX
8
0
10
0.7115979330708662
20
0.428
30
0
0
VERTEX
8
0
10
0.6884020669291339
20
0.428
30
0
0
VERTEX
8
0
10
0.672
20
0.4115979330708661
30
0
0
VERTEX
8
0
10
0.672
20
0.38840206692913387
30
0
0
VERTEX
8
0
10
0.6884020669291339
20
0.372
30
0
0
VERTEX
8
0
10
0.7115979330708662
20
0.372
30
0
0
SEQEND
0
POLYLINE
66
1
8
16_copper
10
0.0
20
0.0
30
0.0
70
1
0
VERTEX
8
0
10
1.228
20
0.38840206692913387
30
0
0
VERTEX
8
0
10
1.228
20
0.4115979330708661
30
0
0
VERTEX
8
0
10
1.2115979330708662
20
0.428
30
0
0
VERTEX
8
0
10
1.1884020669291337
20
0.428
30
0
0
VERTEX
8
0
10
1.172
20
0.4115979330708661
30
0
0
VERTEX
8
0
10
1.172
20
0.38840206692913387
30
0
0
VERTEX
8
0
10
1.1884020669291337
20
0.372
30
0
0
VERTEX
8
0
10
1.2115979330708662
20
0.372
30
0
0
SEQEND
0
POLYLINE
66
1
8
1_copper
10
0.0
20
0.0
30
0.0
70
1
0
VERTEX
8
0
10
0.1013962844488189
20
3.1421227854330707
30
0
42
0.9159168875285966
0
VERTEX
8
0
10
0.1
20
3.158
30
0
0
VERTEX
8
0
10
-0.03068626968503937
20
3.158
30
0
0
VERTEX
8
0
10
0.10565686515748031
20
3.29434313484252
30
0
42
0.41421356237309503
0
VERTEX
8
0
10
0.10565686515748031
20
3.3056568651574803
30
0
0
VERTEX
8
0
10
0.05565686515748031
20
3.3556568651574805
30
0
42
0.198912367379658
0
VERTEX
8
0
10
0.05
20
3.358
30
0
0
VERTEX
8
0
10
0.005
20
3.358
30
0
42
0.198912367379658
0
VERTEX
8
0
10
-0.000656865157480315
20
3.3556568651574805
30
0
0
VERTEX
8
0
10
-0.035656865157480316
20
3.3206568651574804
30
0
42
0.9999999999999999
0
VERTEX
8
0
10
-0.024343134842519685
20
3.3093431348425195
30
0
0
VERTEX
8
0
10
0.00831373031496063
20
3.342
30
0
0
VERTEX
8
0
10
0.04668626968503937
20
3.342
30
0
0
VERTEX
8
0
10
0.08868626968503937
20
3.3
30
0
0
VERTEX
8
0
10
-0.05565686515748031
20
3.1556568651574803
30
0
42
0.6681786379192989
0
VERTEX
8
0
10
-0.05
20
3.142
30
0
0
VERTEX
8
0
10
0.1
20
3.142
30
0
0
SEQEND
0
POLYLINE
66
1
8
1_copper
10
0.0
20
0.0
30
0.0
70
1
0
VERTEX
8
0
10
2.9594072342519686
20
0.2402888779527559
30
0
42
0.3578057741447831
0
VERTEX
8
0
10
2.985
20
0.2685262057086614
30
0
0
VERTEX
8
0
10
2.985
20
0.3314737942913386
30
0
42
0.13496225290796576
0
VERTEX
8
0
10
2.98
20
0.3465834153543307
30
0
0
VERTEX
8
0
10
2.98
20
0.39464468503937006
30
0
0
VERTEX
8
0
10
3.517677657480315
20
0.932322342519685
30
0
42
0.198912367379658
0
VERTEX
8
0
10
3.525
20
0.95
30
0
0
VERTEX
8
0
10
3.525
20
3
30
0
42
0.198912367379658
0
VERTEX
8
0
10
3.517677657480315
20
3.017677657480315
30
0
0
VERTEX
8
0
10
3.2176776574803148
20
3.317677657480315
30
0
42
0.198912367379658
0
VERTEX
8
0
10
3.2
20
3.325
30
0
0
VERTEX
8
0
10
3.1307824803149606
20
3.325
30
0
42
0.23715177325943038
0
VERTEX
8
0
10
3.095988558070866
20
3.34425
30
0
0
VERTEX
8
0
10
3.004011441929134
20
3.34425
30
0
42
0.9614820847987363
0
VERTEX
8
0
10
3.004011441929134
20
3.25575
30
0
0
VERTEX
8
0
10
3.095988558070866
20
3.25575
30
0
42
0.23715177325943038
0
VERTEX
8
0
10
3.1307824803149606
20
3.275
30
0
0
VERTEX
8
0
10
3.18964468503937
20
3.275
30
0
0
VERTEX
8
0
10
3.475
20
2.98964468503937
30
0
0
VERTEX
8
0
10
3.475
20
0.9603553149606299
30
0
0
VERTEX
8
0
10
2.937322342519685
20
0.42267765748031494
30
0
42
0.198912367379658
0
VERTEX
8
0
10
2.93
20
0.405
30
0
0
VERTEX
8
0
10
2.93
20
0.3465834153543307
30
0
42
0.13496225290796576
0
VERTEX
8
0
10
2.925
20
0.3314737942913386
30
0
0
VERTEX
8
0
10
2.925
20
0.2685262057086614
30
0
0
VERTEX
8
0
10
2.925288877952756
20
0.2655927657480315
30
0
0
VERTEX
8
0
10
2.9258639271653544
20
0.2627017716535433
30
0
0
VERTEX
8
0
10
2.9267196112204723
20
0.2598811515748031
30
0
0
VERTEX
8
0
10
2.927847563976378
20
0.2571578494094488
30
0
0
VERTEX
8
0
10
2.9292370816929134
20
0.25455831692913383
30
0
0
VERTEX
8
0
10
2.9308747539370077
20
0.25210752952755905
30
0
0
VERTEX
8
0
10
2.9327447096456694
20
0.24982898622047245
30
0
0
VERTEX
8
0
10
2.9348289862204724
20
0.2477447096456693
30
0
0
VERTEX
8
0
10
2.9371075295275593
20
0.24587475393700786
30
0
0
VERTEX
8
0
10
2.939558316929134
20
0.2442370816929134
30
0
0
VERTEX
8
0
10
2.942157849409449
20
0.24284756397637794
30
0
0
VERTEX
8
0
10
2.944881151574803
20
0.24171961122047245
30
0
0
VERTEX
8
0
10
2.947701771653543
20
0.24086392716535432
30
0
0
VERTEX
8
0
10
2.9505927657480315
20
0.2402888779527559
30
0
0
VERTEX
8
0
10
2.9535262057086613
20
0.24
30
0
0
VERTEX
8
0
10
2.9564737942913384
20
0.24
30
0
0
SEQEND
0
POLYLINE
66
1
8
16_copper
10
0.0
20
0.0
30
0.0
70
1
0
VERTEX
8
0
10
3.099455093503937
20
3.2560227608267716
30
0
42
0.9243903367892725
0
VERTEX
8
0
10
3.095988558070866
20
3.34425
30
0
0
VERTEX
8
0
10
3.004011441929134
20
3.34425
30
0
42
0.9614820847987363
0
VERTEX
8
0
10
3.004011441929134
20
3.25575
30
0
0
VERTEX
8
0
10
3.095988558070866
20
3.25575
30
0
0
SEQEND
0
POLYLINE
66
1
8
16_copper
10
0.0
20
0.0
30
0.0
70
1
0
VERTEX
8
0
10
2.9594072342519686
20
0.2402888779527559
30
0
42
0.3578057741447831
0
VERTEX
8
0
10
2.985
20
0.2685262057086614
30
0
0
VERTEX
8
0
10
2.985
20
0.3314737942913386
30
0
42
0.9520795017710562
0
VERTEX
8
0
10
2.925
20
0.3314737942913386
30
0
0
VERTEX
8
0
10
2.925
20
0.2685262057086614
30
0
0
VERTEX
8
0
10
2.925288877952756
20
0.2655927657480315
30
0
0
VERTEX
8
0
10
2.9258639271653544
20
0.2627017716535433
30
0
0
VERTEX
8
0
10
2.9267196112204723
20
0.2598811515748031
30
0
0
VERTEX
8
0
10
2.927847563976378
20
0.2571578494094488
30
0
0
VERTEX
8
0
10
2.9292370816929134
20
0.25455831692913383
30
0
0
VERTEX
8
0
10
2.9308747539370077
20
0.25210752952755905
30
0
0
VERTEX
8
0
10
2.9327447096456694
20
0.24982898622047245
30
0
0
VERTEX
8
0
10
2.9348289862204724
20
0.2477447096456693
30
0
0
VERTEX
8
0
10
2.9371075295275593
20
0.24587475393700786
30
0
0
VERTEX
8
0
10
2.939558316929134
20
0.2442370816929134
30
0
0
VERTEX
8
0
10
2.942157849409449
20
0.24284756397637794
30
0
0
VERTEX
8
0
10
2.944881151574803
20
0.24171961122047245
30
0
0
VERTEX
8
0
10
2.947701771653543
20
0.24086392716535432
30
0
0
VERTEX
8
0
10
2.9505927657480315
20
0.2402888779527559
30
0
0
VERTEX
8
0
10
2.9535262057086613
20
0.24
30
0
0
VERTEX
8
0
10
2.9564737942913384
20
0.24
30
0
0
SEQEND
0
POLYLINE
66
1
8
1_copper
10
0.0
20
0.0
30
0.0
70
1
0
VERTEX
8
0
10
2.200208415354331
20
0.1250103346456693
30
0
42
0.4117729756578034
0
VERTEX
8
0
10
2.225
20
0.15
30
0
0
VERTEX
8
0
10
2.225
20
0.2534165846456693
30
0
42
0.13496225290796576
0
VERTEX
8
0
10
2.23
20
0.2685262057086614
30
0
0
VERTEX
8
0
10
2.23
20
0.3314737942913386
30
0
42
0.9520795017710562
0
VERTEX
8
0
10
2.17
20
0.3314737942913386
30
0
0
VERTEX
8
0
10
2.17
20
0.2685262057086614
30
0
42
0.13496225290796576
0
VERTEX
8
0
10
2.175
20
0.2534165846456693
30
0
0
VERTEX
8
0
10
2.175
20
0.175
30
0
0
VERTEX
8
0
10
1.96
20
0.175
30
0
0
VERTEX
8
0
10
1.96
20
0.32464468503937005
30
0
0
VERTEX
8
0
10
2.16035531496063
20
0.525
30
0
0
VERTEX
8
0
10
2.4
20
0.525
30
0
42
0.198912367379658
0
VERTEX
8
0
10
2.417677657480315
20
0.532322342519685
30
0
0
VERTEX
8
0
10
3.2176776574803148
20
1.332322342519685
30
0
42
0.198912367379658
0
VERTEX
8
0
10
3.225
20
1.35
30
0
0
VERTEX
8
0
10
3.225
20
2.495
30
0
42
0.198912367379658
0
VERTEX
8
0
10
3.2176776574803148
20
2.512677657480315
30
0
0
VERTEX
8
0
10
3.067677657480315
20
2.662677657480315
30
0
42
0.198912367379658
0
VERTEX
8
0
10
3.05
20
2.67
30
0
0
VERTEX
8
0
10
2.41535531496063
20
2.67
30
0
0
VERTEX
8
0
10
2.117677657480315
20
2.9676776574803148
30
0
42
0.198912367379658
0
VERTEX
8
0
10
2.1
20
2.975
30
0
0
VERTEX
8
0
10
1.9854330708661416
20
2.975
30
0
0
VERTEX
8
0
10
1.9854330708661416
20
2.985433070866142
30
0
0
VERTEX
8
0
10
1.9145669291338583
20
2.985433070866142
30
0
0
VERTEX
8
0
10
1.9145669291338583
20
2.914566929133858
30
0
0
VERTEX
8
0
10
1.9854330708661416
20
2.914566929133858
30
0
0
VERTEX
8
0
10
1.9854330708661416
20
2.925
30
0
0
VERTEX
8
0
10
2.08964468503937
20
2.925
30
0
0
VERTEX
8
0
10
2.3873223425196852
20
2.627322342519685
30
0
42
0.198912367379658
0
VERTEX
8
0
10
2.405
20
2.62
30
0
0
VERTEX
8
0
10
3.03964468503937
20
2.62
30
0
0
VERTEX
8
0
10
3.175
20
2.48464468503937
30
0
0
VERTEX
8
0
10
3.175
20
1.36035531496063
30
0
0
VERTEX
8
0
10
2.38964468503937
20
0.575
30
0
0
VERTEX
8
0
10
2.15
20
0.575
30
0
42
0.198912367379658
0
VERTEX
8
0
10
2.132322342519685
20
0.567677657480315
30
0
0
VERTEX
8
0
10
1.917322342519685
20
0.352677657480315
30
0
42
0.198912367379658
0
VERTEX
8
0
10
1.91
20
0.335
30
0
0
VERTEX
8
0
10
1.91
20
0.15
30
0
42
0.41421356237309503
0
VERTEX
8
0
10
1.935
20
0.125
30
0
0
VERTEX
8
0
10
2.2
20
0.125
30
0
0
SEQEND
0
POLYLINE
66
1
8
16_copper
10
0.0
20
0.0
30
0.0
70
1
0
VERTEX
8
0
10
1.9854330708661416
20
2.985433070866142
30
0
0
VERTEX
8
0
10
1.9145669291338583
20
2.985433070866142
30
0
0
VERTEX
8
0
10
1.9145669291338583
20
2.914566929133858
30
0
0
VERTEX
8
0
10
1.9854330708661416
20
2.914566929133858
30
0
0
SEQEND
0
POLYLINE
66
1
8
16_copper
10
0.0
20
0.0
30
0.0
70
1
0
VERTEX
8
0
10
2.2044072342519687
20
0.2402888779527559
30
0
42
0.3578057741447831
0
VERTEX
8
0
10
2.23
20
0.2685262057086614
30
0
0
VERTEX
8
0
10
2.23
20
0.3314737942913386
30
0
42
0.9520795017710562
0
VERTEX
8
0
10
2.17
20
0.3314737942913386
30
0
0
VERTEX
8
0
10
2.17
20
0.2685262057086614
30
0
0
VERTEX
8
0
10
2.170288877952756
20
0.2655927657480315
30
0
0
VERTEX
8
0
10
2.1708639271653545
20
0.2627017716535433
30
0
0
VERTEX
8
0
10
2.1717196112204724
20
0.2598811515748031
30
0
0
VERTEX
8
0
10
2.172847563976378
20
0.2571578494094488
30
0
0
VERTEX
8
0
10
2.1742370816929135
20
0.25455831692913383
30
0
0
VERTEX
8
0
10
2.175874753937008
20
0.25210752952755905
30
0
0
VERTEX
8
0
10
2.1777447096456695
20
0.24982898622047245
30
0
0
VERTEX
8
0
10
2.1798289862204725
20
0.2477447096456693
30
0
0
VERTEX
8
0
10
2.182107529527559
20
0.24587475393700786
30
0
0
VERTEX
8
0
10
2.184558316929134
20
0.2442370816929134
30
0
0
VERTEX
8
0
10
2.187157849409449
20
0.24284756397637794
30
0
0
VERTEX
8
0
10
2.189881151574803
20
0.24171961122047245
30
0
0
VERTEX
8
0
10
2.1927017716535433
20
0.24086392716535432
30
0
0
VERTEX
8
0
10
2.1955927657480316
20
0.2402888779527559
30
0
0
VERTEX
8
0
10
2.1985262057086614
20
0.24
30
0
0
VERTEX
8
0
10
2.2014737942913385
20
0.24
30
0
0
SEQEND
0
POLYLINE
66
1
8
1_copper
10
0.0
20
0.0
30
0.0
70
1
0
VERTEX
8
0
10
0.22968503937007875
20
0.8377041092519685
30
0
0
VERTEX
8
0
10
0.22968503937007875
20
0.8622958907480315
30
0
0
VERTEX
8
0
10
0.21229589074803148
20
0.8796850393700787
30
0
0
VERTEX
8
0
10
0.208
20
0.8796850393700787
30
0
0
VERTEX
8
0
10
0.208
20
2.5966862696850392
30
0
0
VERTEX
8
0
10
1.1033137303149607
20
3.492
30
0
0
VERTEX
8
0
10
1.7466862696850394
20
3.492
30
0
0
VERTEX
8
0
10
1.842
20
3.3966862696850395
30
0
0
VERTEX
8
0
10
1.842
20
2.73
30
0
42
0.26344643397892775
0
VERTEX
8
0
10
1.8458839812992125
20
2.7231400098425196
30
0
0
VERTEX
8
0
10
2.092
20
2.5754703494094486
30
0
0
VERTEX
8
0
10
2.092
20
2.4033137303149608
30
0
0
VERTEX
8
0
10
1.9693981299212597
20
2.2807118602362206
30
0
0
VERTEX
8
0
10
1.9646767962598426
20
2.2854330708661417
30
0
0
VERTEX
8
0
10
1.9353232037401575
20
2.2854330708661417
30
0
0
VERTEX
8
0
10
1.9145669291338583
20
2.2646767962598426
30
0
0
VERTEX
8
0
10
1.9145669291338583
20
2.2353232037401574
30
0
0
VERTEX
8
0
10
1.9353232037401575
20
2.2145669291338583
30
0
0
VERTEX
8
0
10
1.9646767962598426
20
2.2145669291338583
30
0
0
VERTEX
8
0
10
1.9854330708661416
20
2.2353232037401574
30
0
0
VERTEX
8
0
10
1.9854330708661416
20
2.2646767962598426
30
0
0
VERTEX
8
0
10
1.9807118602362204
20
2.2693981299212598
30
0
0
VERTEX
8
0
10
2.1056568651574805
20
2.3943431348425195
30
0
42
0.198912367379658
0
VERTEX
8
0
10
2.108
20
2.4
30
0
0
VERTEX
8
0
10
2.108
20
2.58
30
0
42
0.26344643397892775
0
VERTEX
8
0
10
2.1041160187007875
20
2.5868599901574805
30
0
0
VERTEX
8
0
10
1.858
20
2.734529650590551
30
0
0
VERTEX
8
0
10
1.858
20
3.4
30
0
42
0.198912367379658
0
VERTEX
8
0
10
1.8556568651574803
20
3.4056568651574803
30
0
0
VERTEX
8
0
10
1.7556568651574802
20
3.5056568651574804
30
0
42
0.198912367379658
0
VERTEX
8
0
10
1.75
20
3.508
30
0
0
VERTEX
8
0
10
1.1
20
3.508
30
0
42
0.198912367379658
0
VERTEX
8
0
10
1.0943431348425197
20
3.5056568651574804
30
0
0
VERTEX
8
0
10
0.1943431348425197
20
2.6056568651574805
30
0
42
0.198912367379658
0
VERTEX
8
0
10
0.192
20
2.6
30
0
0
VERTEX
8
0
10
0.192
20
0.8796850393700787
30
0
0
VERTEX
8
0
10
0.1877041092519685
20
0.8796850393700787
30
0
0
VERTEX
8
0
10
0.17031496062992127
20
0.8622958907480315
30
0
0
VERTEX
8
0
10
0.17031496062992127
20
0.8377041092519685
30
0
0
VERTEX
8
0
10
0.1877041092519685
20
0.8203149606299213
30
0
0
VERTEX
8
0
10
0.21229589074803148
20
0.8203149606299213
30
0
0
SEQEND
0
POLYLINE
66
1
8
1_copper
10
0.0
20
0.0
30
0.0
70
1
0
VERTEX
8
0
10
0.528
20
0.48840206692913385
30
0
0
VERTEX
8
0
10
0.528
20
0.5115979330708661
30
0
0
VERTEX
8
0
10
0.5115979330708661
20
0.528
30
0
0
VERTEX
8
0
10
0.48840206692913385
20
0.528
30
0
0
VERTEX
8
0
10
0.472
20
0.5115979330708661
30
0
0
VERTEX
8
0
10
0.472
20
0.48840206692913385
30
0
0
VERTEX
8
0
10
0.48840206692913385
20
0.472
30
0
0
VERTEX
8
0
10
0.5115979330708661
20
0.472
30
0
0
SEQEND
0
POLYLINE
66
1
8
16_copper
10
0.0
20
0.0
30
0.0
70
1
0
VERTEX
8
0
10
1.9854330708661416
20
2.2353232037401574
30
0
0
VERTEX
8
0
10
1.9854330708661416
20
2.2646767962598426
30
0
0
VERTEX
8
0
10
1.9646767962598426
20
2.2854330708661417
30
0
0
VERTEX
8
0
10
1.9353232037401575
20
2.2854330708661417
30
0
0
VERTEX
8
0
10
1.9145669291338583
20
2.2646767962598426
30
0
0
VERTEX
8
0
10
1.9145669291338583
20
2.2353232037401574
30
0
0
VERTEX
8
0
10
1.9353232037401575
20
2.2145669291338583
30
0
0
VERTEX
8
0
10
1.9646767962598426
20
2.2145669291338583
30
0
0
SEQEND
0
POLYLINE
66
1
8
16_copper
10
0.0
20
0.0
30
0.0
70
1
0
VERTEX
8
0
10
0.528
20
0.48840206692913385
30
0
0
VERTEX
8
0
10
0.528
20
0.5115979330708661
30
0
0
VERTEX
8
0
10
0.5115979330708661
20
0.528
30
0
0
VERTEX
8
0
10
0.48840206692913385
20
0.528
30
0
0
VERTEX
8
0
10
0.472
20
0.5115979330708661
30
0
0
VERTEX
8
0
10
0.472
20
0.508
30
0
0
VERTEX
8
0
10
0.25331373031496063
20
0.508
30
0
0
VERTEX
8
0
10
0.208
20
0.5533137303149607
30
0
0
VERTEX
8
0
10
0.208
20
0.8203149606299213
30
0
0
VERTEX
8
0
10
0.21229589074803148
20
0.8203149606299213
30
0
0
VERTEX
8
0
10
0.22968503937007875
20
0.8377041092519685
30
0
0
VERTEX
8
0
10
0.22968503937007875
20
0.8622958907480315
30
0
0
VERTEX
8
0
10
0.21229589074803148
20
0.8796850393700787
30
0
0
VERTEX
8
0
10
0.1877041092519685
20
0.8796850393700787
30
0
0
VERTEX
8
0
10
0.17031496062992127
20
0.8622958907480315
30
0
0
VERTEX
8
0
10
0.17031496062992127
20
0.8377041092519685
30
0
0
VERTEX
8
0
10
0.1877041092519685
20
0.8203149606299213
30
0
0
VERTEX
8
0
10
0.192
20
0.8203149606299213
30
0
0
VERTEX
8
0
10
0.192
20
0.55
30
0
42
0.198912367379658
0
VERTEX
8
0
10
0.1943431348425197
20
0.5443431348425197
30
0
0
VERTEX
8
0
10
0.24434313484251968
20
0.4943431348425197
30
0
42
0.198912367379658
0
VERTEX
8
0
10
0.25
20
0.492
30
0
0
VERTEX
8
0
10
0.472
20
0.492
30
0
0
VERTEX
8
0
10
0.472
20
0.48840206692913385
30
0
0
VERTEX
8
0
10
0.48840206692913385
20
0.472
30
0
0
VERTEX
8
0
10
0.5115979330708661
20
0.472
30
0
0
SEQEND
0
POLYLINE
66
1
8
1_copper
10
0.0
20
0.0
30
0.0
70
1
0
VERTEX
8
0
10
0.5296850393700787
20
0.8377041092519685
30
0
0
VERTEX
8
0
10
0.5296850393700787
20
0.8622958907480315
30
0
0
VERTEX
8
0
10
0.5122958907480315
20
0.8796850393700787
30
0
0
VERTEX
8
0
10
0.508
20
0.8796850393700787
30
0
0
VERTEX
8
0
10
0.508
20
2.5966862696850392
30
0
0
VERTEX
8
0
10
1.1533137303149605
20
3.242
30
0
0
VERTEX
8
0
10
1.7145669291338583
20
3.242
30
0
0
VERTEX
8
0
10
1.7145669291338583
20
3.2353232037401574
30
0
0
VERTEX
8
0
10
1.7353232037401576
20
3.2145669291338583
30
0
0
VERTEX
8
0
10
1.7646767962598424
20
3.2145669291338583
30
0
0
VERTEX
8
0
10
1.7854330708661417
20
3.2353232037401574
30
0
0
VERTEX
8
0
10
1.7854330708661417
20
3.2646767962598426
30
0
0
VERTEX
8
0
10
1.7646767962598424
20
3.2854330708661417
30
0
0
VERTEX
8
0
10
1.7353232037401576
20
3.2854330708661417
30
0
0
VERTEX
8
0
10
1.7145669291338583
20
3.2646767962598426
30
0
0
VERTEX
8
0
10
1.7145669291338583
20
3.258
30
0
0
VERTEX
8
0
10
1.15
20
3.258
30
0
42
0.198912367379658
0
VERTEX
8
0
10
1.1443431348425197
20
3.2556568651574804
30
0
0
VERTEX
8
0
10
0.4943431348425197
20
2.6056568651574805
30
0
42
0.198912367379658
0
VERTEX
8
0
10
0.492
20
2.6
30
0
0
VERTEX
8
0
10
0.492
20
0.8796850393700787
30
0
0
VERTEX
8
0
10
0.4877041092519685
20
0.8796850393700787
30
0
0
VERTEX
8
0
10
0.4703149606299213
20
0.8622958907480315
30
0
0
VERTEX
8
0
10
0.4703149606299213
20
0.8377041092519685
30
0
0
VERTEX
8
0
10
0.4877041092519685
20
0.8203149606299213
30
0
0
VERTEX
8
0
10
0.5122958907480315
20
0.8203149606299213
30
0
0
SEQEND
0
POLYLINE
66
1
8
1_copper
10
0.0
20
0.0
30
0.0
70
1
0
VERTEX
8
0
10
0.728
20
0.48840206692913385
30
0
0
VERTEX
8
0
10
0.728
20
0.5115979330708661
30
0
0
VERTEX
8
0
10
0.7115979330708662
20
0.528
30
0
0
VERTEX
8
0
10
0.6884020669291339
20
0.528
30
0
0
VERTEX
8
0
10
0.672
20
0.5115979330708661
30
0
0
VERTEX
8
0
10
0.672
20
0.48840206692913385
30
0
0
VERTEX
8
0
10
0.6884020669291339
20
0.472
30
0
0
VERTEX
8
0
10
0.7115979330708662
20
0.472
30
0
0
SEQEND
0
POLYLINE
66
1
8
16_copper
10
0.0
20
0.0
30
0.0
70
1
0
VERTEX
8
0
10
1.7854330708661417
20
3.2353232037401574
30
0
0
VERTEX
8
0
10
1.7854330708661417
20
3.2646767962598426
30
0
0
VERTEX
8
0
10
1.7646767962598424
20
3.2854330708661417
30
0
0
VERTEX
8
0
10
1.7353232037401576
20
3.2854330708661417
30
0
0
VERTEX
8
0
10
1.7145669291338583
20
3.2646767962598426
30
0
0
VERTEX
8
0
10
1.7145669291338583
20
3.2353232037401574
30
0
0
VERTEX
8
0
10
1.7353232037401576
20
3.2145669291338583
30
0
0
VERTEX
8
0
10
1.7646767962598424
20
3.2145669291338583
30
0
0
SEQEND
0
POLYLINE
66
1
8
16_copper
10
0.0
20
0.0
30
0.0
70
1
0
VERTEX
8
0
10
0.728
20
0.48840206692913385
30
0
0
VERTEX
8
0
10
0.728
20
0.5115979330708661
30
0
0
VERTEX
8
0
10
0.7115979330708662
20
0.528
30
0
0
VERTEX
8
0
10
0.708
20
0.528
30
0
0
VERTEX
8
0
10
0.708
20
0.6
30
0
42
0.198912367379658
0
VERTEX
8
0
10
0.7056568651574803
20
0.6056568651574803
30
0
0
VERTEX
8
0
10
0.508
20
0.8033137303149607
30
0
0
VERTEX
8
0
10
0.508
20
0.8203149606299213
30
0
0
VERTEX
8
0
10
0.5122958907480315
20
0.8203149606299213
30
0
0
VERTEX
8
0
10
0.5296850393700787
20
0.8377041092519685
30
0
0
VERTEX
8
0
10
0.5296850393700787
20
0.8622958907480315
30
0
0
VERTEX
8
0
10
0.5122958907480315
20
0.8796850393700787
30
0
0
VERTEX
8
0
10
0.4877041092519685
20
0.8796850393700787
30
0
0
VERTEX
8
0
10
0.4703149606299213
20
0.8622958907480315
30
0
0
VERTEX
8
0
10
0.4703149606299213
20
0.8377041092519685
30
0
0
VERTEX
8
0
10
0.4877041092519685
20
0.8203149606299213
30
0
0
VERTEX
8
0
10
0.492
20
0.8203149606299213
30
0
0
VERTEX
8
0
10
0.492
20
0.8
30
0
42
0.198912367379658
0
VERTEX
8
0
10
0.4943431348425197
20
0.7943431348425197
30
0
0
VERTEX
8
0
10
0.692
20
0.5966862696850393
30
0
0
VERTEX
8
0
10
0.692
20
0.528
30
0
0
VERTEX
8
0
10
0.6884020669291339
20
0.528
30
0
0
VERTEX
8
0
10
0.672
20
0.5115979330708661
30
0
0
VERTEX
8
0
10
0.672
20
0.48840206692913385
30
0
0
VERTEX
8
0
10
0.6884020669291339
20
0.472
30
0
0
VERTEX
8
0
10
0.7115979330708662
20
0.472
30
0
0
SEQEND
0
POLYLINE
66
1
8
1_copper
10
0.0
20
0.0
30
0.0
70
1
0
VERTEX
8
0
10
0.6796850393700787
20
0.8377041092519685
30
0
0
VERTEX
8
0
10
0.6796850393700787
20
0.8622958907480315
30
0
0
VERTEX
8
0
10
0.6622958907480315
20
0.8796850393700787
30
0
0
VERTEX
8
0
10
0.658
20
0.8796850393700787
30
0
0
VERTEX
8
0
10
0.658
20
1.8466862696850395
30
0
0
VERTEX
8
0
10
0.8306019931102362
20
2.0192882627952757
30
0
0
VERTEX
8
0
10
0.8353232037401574
20
2.014566929133858
30
0
0
VERTEX
8
0
10
0.8646767962598425
20
2.014566929133858
30
0
0
VERTEX
8
0
10
0.8854330708661418
20
2.0353232037401576
30
0
0
VERTEX
8
0
10
0.8854330708661418
20
2.0646767962598425
30
0
0
VERTEX
8
0
10
0.8726660925196851
20
2.0774437746062993
30
0
0
VERTEX
8
0
10
0.9412277312992126
20
2.2145669291338583
30
0
0
VERTEX
8
0
10
0.9646767962598425
20
2.2145669291338583
30
0
0
VERTEX
8
0
10
0.9854330708661417
20
2.2353232037401574
30
0
0
VERTEX
8
0
10
0.9854330708661417
20
2.2646767962598426
30
0
0
VERTEX
8
0
10
0.9646767962598425
20
2.2854330708661417
30
0
0
VERTEX
8
0
10
0.9353232037401574
20
2.2854330708661417
30
0
0
VERTEX
8
0
10
0.9145669291338583
20
2.2646767962598426
30
0
0
VERTEX
8
0
10
0.9145669291338583
20
2.2353232037401574
30
0
0
VERTEX
8
0
10
0.927333907480315
20
2.2225562253937006
30
0
0
VERTEX
8
0
10
0.8587722687007874
20
2.085433070866142
30
0
0
VERTEX
8
0
10
0.8353232037401574
20
2.085433070866142
30
0
0
VERTEX
8
0
10
0.8145669291338583
20
2.0646767962598425
30
0
0
VERTEX
8
0
10
0.8145669291338583
20
2.0353232037401576
30
0
0
VERTEX
8
0
10
0.8192882627952756
20
2.030601993110236
30
0
0
VERTEX
8
0
10
0.6443431348425197
20
1.8556568651574803
30
0
42
0.198912367379658
0
VERTEX
8
0
10
0.642
20
1.85
30
0
0
VERTEX
8
0
10
0.642
20
0.8796850393700787
30
0
0
VERTEX
8
0
10
0.6377041092519685
20
0.8796850393700787
30
0
0
VERTEX
8
0
10
0.6203149606299213
20
0.8622958907480315
30
0
0
VERTEX
8
0
10
0.6203149606299213
20
0.8377041092519685
30
0
0
VERTEX
8
0
10
0.6377041092519685
20
0.8203149606299213
30
0
0
VERTEX
8
0
10
0.6622958907480315
20
0.8203149606299213
30
0
0
SEQEND
0
POLYLINE
66
1
8
1_copper
10
0.0
20
0.0
30
0.0
70
1
0
VERTEX
8
0
10
0.828
20
0.48840206692913385
30
0
0
VERTEX
8
0
10
0.828
20
0.5115979330708661
30
0
0
VERTEX
8
0
10
0.8115979330708661
20
0.528
30
0
0
VERTEX
8
0
10
0.7884020669291338
20
0.528
30
0
0
VERTEX
8
0
10
0.772
20
0.5115979330708661
30
0
0
VERTEX
8
0
10
0.772
20
0.48840206692913385
30
0
0
VERTEX
8
0
10
0.7884020669291338
20
0.472
30
0
0
VERTEX
8
0
10
0.8115979330708661
20
0.472
30
0
0
SEQEND
0
POLYLINE
66
1
8
16_copper
10
0.0
20
0.0
30
0.0
70
1
0
VERTEX
8
0
10
0.9854330708661417
20
2.2353232037401574
30
0
0
VERTEX
8
0
10
0.9854330708661417
20
2.2646767962598426
30
0
0
VERTEX
8
0
10
0.9646767962598425
20
2.2854330708661417
30
0
0
VERTEX
8
0
10
0.9353232037401574
20
2.2854330708661417
30
0
0
VERTEX
8
0
10
0.9145669291338583
20
2.2646767962598426
30
0
0
VERTEX
8
0
10
0.9145669291338583
20
2.2353232037401574
30
0
0
VERTEX
8
0
10
0.9353232037401574
20
2.2145669291338583
30
0
0
VERTEX
8
0
10
0.9646767962598425
20
2.2145669291338583
30
0
0
SEQEND
0
POLYLINE
66
1
8
16_copper
10
0.0
20
0.0
30
0.0
70
1
0
VERTEX
8
0
10
0.8854330708661418
20
2.0353232037401576
30
0
0
VERTEX
8
0
10
0.8854330708661418
20
2.0646767962598425
30
0
0
VERTEX
8
0
10
0.8646767962598425
20
2.085433070866142
30
0
0
VERTEX
8
0
10
0.8353232037401574
20
2.085433070866142
30
0
0
VERTEX
8
0
10
0.8145669291338583
20
2.0646767962598425
30
0
0
VERTEX
8
0
10
0.8145669291338583
20
2.0353232037401576
30
0
0
VERTEX
8
0
10
0.8353232037401574
20
2.014566929133858
30
0
0
VERTEX
8
0
10
0.8646767962598425
20
2.014566929133858
30
0
0
SEQEND
0
POLYLINE
66
1
8
16_copper
10
0.0
20
0.0
30
0.0
70
1
0
VERTEX
8
0
10
0.828
20
0.48840206692913385
30
0
0
VERTEX
8
0
10
0.828
20
0.5115979330708661
30
0
0
VERTEX
8
0
10
0.8115979330708661
20
0.528
30
0
0
VERTEX
8
0
10
0.808
20
0.528
30
0
0
VERTEX
8
0
10
0.808
20
0.6
30
0
42
0.198912367379658
0
VERTEX
8
0
10
0.8056568651574804
20
0.6056568651574803
30
0
0
VERTEX
8
0
10
0.658
20
0.7533137303149606
30
0
0
VERTEX
8
0
10
0.658
20
0.8203149606299213
30
0
0
VERTEX
8
0
10
0.6622958907480315
20
0.8203149606299213
30
0
0
VERTEX
8
0
10
0.6796850393700787
20
0.8377041092519685
30
0
0
VERTEX
8
0
10
0.6796850393700787
20
0.8622958907480315
30
0
0
VERTEX
8
0
10
0.6622958907480315
20
0.8796850393700787
30
0
0
VERTEX
8
0
10
0.6377041092519685
20
0.8796850393700787
30
0
0
VERTEX
8
0
10
0.6203149606299213
20
0.8622958907480315
30
0
0
VERTEX
8
0
10
0.6203149606299213
20
0.8377041092519685
30
0
0
VERTEX
8
0
10
0.6377041092519685
20
0.8203149606299213
30
0
0
VERTEX
8
0
10
0.642
20
0.8203149606299213
30
0
0
VERTEX
8
0
10
0.642
20
0.75
30
0
42
0.198912367379658
0
VERTEX
8
0
10
0.6443431348425197
20
0.7443431348425197
30
0
0
VERTEX
8
0
10
0.792
20
0.5966862696850393
30
0
0
VERTEX
8
0
10
0.792
20
0.528
30
0
0
VERTEX
8
0
10
0.7884020669291338
20
0.528
30
0
0
VERTEX
8
0
10
0.772
20
0.5115979330708661
30
0
0
VERTEX
8
0
10
0.772
20
0.48840206692913385
30
0
0
VERTEX
8
0
10
0.7884020669291338
20
0.472
30
0
0
VERTEX
8
0
10
0.8115979330708661
20
0.472
30
0
0
SEQEND
0
POLYLINE
66
1
8
1_copper
10
0.0
20
0.0
30
0.0
70
1
0
VERTEX
8
0
10
0.8996022391732283
20
2.357965059055118
30
0
42
0.18597604843350257
0
VERTEX
8
0
10
0.8943431348425197
20
2.3556568651574805
30
0
0
VERTEX
8
0
10
0.8443431348425197
20
2.3056568651574803
30
0
42
0.198912367379658
0
VERTEX
8
0
10
0.842
20
2.3
30
0
0
VERTEX
8
0
10
0.842
20
2.2033137303149606
30
0
0
VERTEX
8
0
10
0.7966862696850394
20
2.158
30
0
0
VERTEX
8
0
10
0.75
20
2.158
30
0
42
0.198912367379658
0
VERTEX
8
0
10
0.7443431348425197
20
2.1556568651574803
30
0
0
VERTEX
8
0
10
0.6741193405511811
20
2.085433070866142
30
0
0
VERTEX
8
0
10
0.6145669291338582
20
2.085433070866142
30
0
0
VERTEX
8
0
10
0.6145669291338582
20
2.014566929133858
30
0
0
VERTEX
8
0
10
0.6854330708661417
20
2.014566929133858
30
0
0
VERTEX
8
0
10
0.6854330708661417
20
2.074119340551181
30
0
0
VERTEX
8
0
10
0.7533137303149606
20
2.142
30
0
0
VERTEX
8
0
10
0.8
20
2.142
30
0
42
0.198912367379658
0
VERTEX
8
0
10
0.8056568651574804
20
2.1443431348425195
30
0
0
VERTEX
8
0
10
0.8556568651574803
20
2.1943431348425197
30
0
42
0.198912367379658
0
VERTEX
8
0
10
0.858
20
2.2
30
0
0
VERTEX
8
0
10
0.858
20
2.2966862696850394
30
0
0
VERTEX
8
0
10
0.9033137303149607
20
2.342
30
0
0
VERTEX
8
0
10
1.042
20
2.342
30
0
0
VERTEX
8
0
10
1.042
20
2.2034344242125985
30
0
0
VERTEX
8
0
10
0.9444900344488188
20
2.110799950787402
30
0
42
0.20558309801157884
0
VERTEX
8
0
10
0.942
20
2.105
30
0
0
VERTEX
8
0
10
0.942
20
1.9533137303149606
30
0
0
VERTEX
8
0
10
0.7943431348425197
20
1.8056568651574803
30
0
42
0.198912367379658
0
VERTEX
8
0
10
0.792
20
1.8
30
0
0
VERTEX
8
0
10
0.792
20
0.8796850393700787
30
0
0
VERTEX
8
0
10
0.7877041092519685
20
0.8796850393700787
30
0
0
VERTEX
8
0
10
0.7703149606299212
20
0.8622958907480315
30
0
0
VERTEX
8
0
10
0.7703149606299212
20
0.8377041092519685
30
0
0
VERTEX
8
0
10
0.7877041092519685
20
0.8203149606299213
30
0
0
VERTEX
8
0
10
0.8122958907480315
20
0.8203149606299213
30
0
0
VERTEX
8
0
10
0.8296850393700788
20
0.8377041092519685
30
0
0
VERTEX
8
0
10
0.8296850393700788
20
0.8622958907480315
30
0
0
VERTEX
8
0
10
0.8122958907480315
20
0.8796850393700787
30
0
0
VERTEX
8
0
10
0.808
20
0.8796850393700787
30
0
0
VERTEX
8
0
10
0.808
20
1.7966862696850394
30
0
0
VERTEX
8
0
10
0.9556568651574803
20
1.9443431348425197
30
0
42
0.198912367379658
0
VERTEX
8
0
10
0.958
20
1.95
30
0
0
VERTEX
8
0
10
0.958
20
2.1015655757874017
30
0
0
VERTEX
8
0
10
1.055509965551181
20
2.1942000492125984
30
0
42
0.20558309801157884
0
VERTEX
8
0
10
1.058
20
2.2
30
0
0
VERTEX
8
0
10
1.058
20
2.342
30
0
0
VERTEX
8
0
10
1.7145669291338583
20
2.342
30
0
0
VERTEX
8
0
10
1.7145669291338583
20
2.3353232037401574
30
0
0
VERTEX
8
0
10
1.7353232037401576
20
2.3145669291338584
30
0
0
VERTEX
8
0
10
1.7646767962598424
20
2.3145669291338584
30
0
0
VERTEX
8
0
10
1.7854330708661417
20
2.3353232037401574
30
0
0
VERTEX
8
0
10
1.7854330708661417
20
2.3646767962598427
30
0
0
VERTEX
8
0
10
1.7646767962598424
20
2.3854330708661418
30
0
0
VERTEX
8
0
10
1.7353232037401576
20
2.3854330708661418
30
0
0
VERTEX
8
0
10
1.7145669291338583
20
2.3646767962598427
30
0
0
VERTEX
8
0
10
1.7145669291338583
20
2.358
30
0
0
VERTEX
8
0
10
0.9
20
2.358
30
0
0
SEQEND
0
POLYLINE
66
1
8
1_copper
10
0.0
20
0.0
30
0.0
70
1
0
VERTEX
8
0
10
0.928
20
0.48840206692913385
30
0
0
VERTEX
8
0
10
0.928
20
0.5115979330708661
30
0
0
VERTEX
8
0
10
0.9115979330708661
20
0.528
30
0
0
VERTEX
8
0
10
0.8884020669291338
20
0.528
30
0
0
VERTEX
8
0
10
0.872
20
0.5115979330708661
30
0
0
VERTEX
8
0
10
0.872
20
0.48840206692913385
30
0
0
VERTEX
8
0
10
0.8884020669291338
20
0.472
30
0
0
VERTEX
8
0
10
0.9115979330708661
20
0.472
30
0
0
SEQEND
0
POLYLINE
66
1
8
16_copper
10
0.0
20
0.0
30
0.0
70
1
0
VERTEX
8
0
10
1.7854330708661417
20
2.3353232037401574
30
0
0
VERTEX
8
0
10
1.7854330708661417
20
2.3646767962598427
30
0
0
VERTEX
8
0
10
1.7646767962598424
20
2.3854330708661418
30
0
0
VERTEX
8
0
10
1.7353232037401576
20
2.3854330708661418
30
0
0
VERTEX
8
0
10
1.7145669291338583
20
2.3646767962598427
30
0
0
VERTEX
8
0
10
1.7145669291338583
20
2.3353232037401574
30
0
0
VERTEX
8
0
10
1.7353232037401576
20
2.3145669291338584
30
0
0
VERTEX
8
0
10
1.7646767962598424
20
2.3145669291338584
30
0
0
SEQEND
0
POLYLINE
66
1
8
16_copper
10
0.0
20
0.0
30
0.0
70
1
0
VERTEX
8
0
10
0.6854330708661417
20
2.085433070866142
30
0
0
VERTEX
8
0
10
0.6145669291338582
20
2.085433070866142
30
0
0
VERTEX
8
0
10
0.6145669291338582
20
2.014566929133858
30
0
0
VERTEX
8
0
10
0.6854330708661417
20
2.014566929133858
30
0
0
SEQEND
0
POLYLINE
66
1
8
16_copper
10
0.0
20
0.0
30
0.0
70
1
0
VERTEX
8
0
10
0.928
20
0.48840206692913385
30
0
0
VERTEX
8
0
10
0.928
20
0.5115979330708661
30
0
0
VERTEX
8
0
10
0.9115979330708661
20
0.528
30
0
0
VERTEX
8
0
10
0.908
20
0.528
30
0
0
VERTEX
8
0
10
0.908
20
0.65
30
0
42
0.198912367379658
0
VERTEX
8
0
10
0.9056568651574803
20
0.6556568651574803
30
0
0
VERTEX
8
0
10
0.808
20
0.7533137303149606
30
0
0
VERTEX
8
0
10
0.808
20
0.8203149606299213
30
0
0
VERTEX
8
0
10
0.8122958907480315
20
0.8203149606299213
30
0
0
VERTEX
8
0
10
0.8296850393700788
20
0.8377041092519685
30
0
0
VERTEX
8
0
10
0.8296850393700788
20
0.8622958907480315
30
0
0
VERTEX
8
0
10
0.8122958907480315
20
0.8796850393700787
30
0
0
VERTEX
8
0
10
0.7877041092519685
20
0.8796850393700787
30
0
0
VERTEX
8
0
10
0.7703149606299212
20
0.8622958907480315
30
0
0
VERTEX
8
0
10
0.7703149606299212
20
0.8377041092519685
30
0
0
VERTEX
8
0
10
0.7877041092519685
20
0.8203149606299213
30
0
0
VERTEX
8
0
10
0.792
20
0.8203149606299213
30
0
0
VERTEX
8
0
10
0.792
20
0.75
30
0
42
0.198912367379658
0
VERTEX
8
0
10
0.7943431348425197
20
0.7443431348425197
30
0
0
VERTEX
8
0
10
0.892
20
0.6466862696850394
30
0
0
VERTEX
8
0
10
0.892
20
0.528
30
0
0
VERTEX
8
0
10
0.8884020669291338
20
0.528
30
0
0
VERTEX
8
0
10
0.872
20
0.5115979330708661
30
0
0
VERTEX
8
0
10
0.872
20
0.48840206692913385
30
0
0
VERTEX
8
0
10
0.8884020669291338
20
0.472
30
0
0
VERTEX
8
0
10
0.9115979330708661
20
0.472
30
0
0
SEQEND
0
POLYLINE
66
1
8
1_copper
10
0.0
20
0.0
30
0.0
70
1
0
VERTEX
8
0
10
3.1750323572834644
20
0.12700282972440946
30
0
42
0.41302899196029463
0
VERTEX
8
0
10
3.183
20
0.135
30
0
0
VERTEX
8
0
10
3.183
20
0.185
30
0
42
0.198912367379658
0
VERTEX
8
0
10
3.1806568651574803
20
0.19065686515748032
30
0
0
VERTEX
8
0
10
3.1363137303149604
20
0.235
30
0
0
VERTEX
8
0
10
3.1806568651574803
20
0.27934313484251966
30
0
42
0.198912367379658
0
VERTEX
8
0
10
3.183
20
0.285
30
0
0
VERTEX
8
0
10
3.183
20
0.335
30
0
42
0.41421356237309503
0
VERTEX
8
0
10
3.175
20
0.343
30
0
0
VERTEX
8
0
10
3.075
20
0.343
30
0
42
0.41421356237309503
0
VERTEX
8
0
10
3.067
20
0.335
30
0
0
VERTEX
8
0
10
3.067
20
0.135
30
0
42
0.41421356237309503
0
VERTEX
8
0
10
3.075
20
0.127
30
0
0
VERTEX
8
0
10
3.175
20
0.127
30
0
0
SEQEND
0
POLYLINE
66
1
8
1_copper
10
0.0
20
0.0
30
0.0
70
1
0
VERTEX
8
0
10
3.083
20
0.143
30
0
0
VERTEX
8
0
10
3.083
20
0.327
30
0
0
VERTEX
8
0
10
3.167
20
0.327
30
0
0
VERTEX
8
0
10
3.167
20
0.2883137303149606
30
0
0
VERTEX
8
0
10
3.1193431348425196
20
0.2406568651574803
30
0
42
0.41421356237309503
0
VERTEX
8
0
10
3.1193431348425196
20
0.2293431348425197
30
0
0
VERTEX
8
0
10
3.167
20
0.18168626968503937
30
0
0
VERTEX
8
0
10
3.167
20
0.143
30
0
0
SEQEND
0
POLYLINE
66
1
8
1_copper
10
0.0
20
0.0
30
0.0
70
1
0
VERTEX
8
0
10
2.361460260826772
20
0.1271343503937008
30
0
42
0.36141643969788223
0
VERTEX
8
0
10
2.368
20
0.135
30
0
0
VERTEX
8
0
10
2.368
20
0.227
30
0
0
VERTEX
8
0
10
2.4052698080708663
20
0.227
30
0
0
VERTEX
8
0
10
2.4579902805118112
20
0.13114468503937007
30
0
42
0.9999999999999999
0
VERTEX
8
0
10
2.472009719488189
20
0.13885531496062992
30
0
0
VERTEX
8
0
10
2.4199050196850393
20
0.23359128937007875
30
0
0
VERTEX
8
0
10
2.4656568651574804
20
0.27934313484251966
30
0
42
0.198912367379658
0
VERTEX
8
0
10
2.468
20
0.285
30
0
0
VERTEX
8
0
10
2.468
20
0.335
30
0
42
0.41421356237309503
0
VERTEX
8
0
10
2.46
20
0.343
30
0
0
VERTEX
8
0
10
2.36
20
0.343
30
0
42
0.41421356237309503
0
VERTEX
8
0
10
2.352
20
0.335
30
0
0
VERTEX
8
0
10
2.352
20
0.135
30
0
0
VERTEX
8
0
10
2.352122785433071
20
0.1336037155511811
30
0
0
VERTEX
8
0
10
2.3524874507874016
20
0.13225024606299213
30
0
0
VERTEX
8
0
10
2.353082677165354
20
0.13098129921259843
30
0
0
VERTEX
8
0
10
2.3538902559055117
20
0.12983562992125985
30
0
0
VERTEX
8
0
10
2.3548854576771654
20
0.12884854822834646
30
0
0
VERTEX
8
0
10
2.356037524606299
20
0.1280501968503937
30
0
0
VERTEX
8
0
10
2.3573113927165354
20
0.12746530511811024
30
0
0
VERTEX
8
0
10
2.358667691929134
20
0.12711171259842519
30
0
0
VERTEX
8
0
10
2.3600649606299213
20
0.12700024606299212
30
0
0
SEQEND
0
POLYLINE
66
1
8
1_copper
10
0.0
20
0.0
30
0.0
70
1
0
VERTEX
8
0
10
2.368
20
0.243
30
0
0
VERTEX
8
0
10
2.368
20
0.327
30
0
0
VERTEX
8
0
10
2.452
20
0.327
30
0
0
VERTEX
8
0
10
2.452
20
0.2883137303149606
30
0
0
VERTEX
8
0
10
2.4066862696850393
20
0.243
30
0
0
SEQEND
0
POLYLINE
66
1
8
1_copper
10
0.0
20
0.0
30
0.0
70
1
0
VERTEX
8
0
10
2.5464602608267715
20
0.16213435039370078
30
0
42
0.36141643969788223
0
VERTEX
8
0
10
2.553
20
0.17
30
0
0
VERTEX
8
0
10
2.553
20
0.212
30
0
0
VERTEX
8
0
10
2.59
20
0.212
30
0
42
0.9999999999999999
0
VERTEX
8
0
10
2.59
20
0.228
30
0
0
VERTEX
8
0
10
2.553
20
0.228
30
0
0
VERTEX
8
0
10
2.553
20
0.255
30
0
42
0.9999999999999999
0
VERTEX
8
0
10
2.537
20
0.255
30
0
0
VERTEX
8
0
10
2.537
20
0.228
30
0
0
VERTEX
8
0
10
2.505
20
0.228
30
0
42
0.9234163001787704
0
VERTEX
8
0
10
2.503731914370079
20
0.2121011318897638
30
0
0
VERTEX
8
0
10
2.505
20
0.212
30
0
0
VERTEX
8
0
10
2.537
20
0.212
30
0
0
VERTEX
8
0
10
2.537
20
0.17
30
0
0
VERTEX
8
0
10
2.5371227854330707
20
0.16860371555118112
30
0
0
VERTEX
8
0
10
2.5374874507874017
20
0.16725024606299213
30
0
0
VERTEX
8
0
10
2.538082677165354
20
0.16598129921259844
30
0
0
VERTEX
8
0
10
2.5388902559055118
20
0.16483562992125983
30
0
0
VERTEX
8
0
10
2.5398854576771654
20
0.16384854822834646
30
0
0
VERTEX
8
0
10
2.541037524606299
20
0.1630501968503937
30
0
0
VERTEX
8
0
10
2.5423113927165355
20
0.16246530511811025
30
0
0
VERTEX
8
0
10
2.5436676919291337
20
0.1621117125984252
30
0
0
VERTEX
8
0
10
2.5450649606299214
20
0.16200024606299213
30
0
0
SEQEND
0
POLYLINE
66
1
8
1_copper
10
0.0
20
0.0
30
0.0
70
1
0
VERTEX
8
0
10
1.9751098671259844
20
3.125
30
0
0
VERTEX
8
0
10
2.1
20
3.125
30
0
42
0.198912367379658
0
VERTEX
8
0
10
2.117677657480315
20
3.132322342519685
30
0
0
VERTEX
8
0
10
2.26035531496063
20
3.275
30
0
0
VERTEX
8
0
10
2.3692175196850394
20
3.275
30
0
42
0.23715177325943038
0
VERTEX
8
0
10
2.404011441929134
20
3.25575
30
0
0
VERTEX
8
0
10
2.495988558070866
20
3.25575
30
0
42
0.9614820847987363
0
VERTEX
8
0
10
2.495988558070866
20
3.34425
30
0
0
VERTEX
8
0
10
2.404011441929134
20
3.34425
30
0
42
0.23715177325943038
0
VERTEX
8
0
10
2.3692175196850394
20
3.325
30
0
0
VERTEX
8
0
10
2.25
20
3.325
30
0
42
0.198912367379658
0
VERTEX
8
0
10
2.232322342519685
20
3.317677657480315
30
0
0
VERTEX
8
0
10
2.08964468503937
20
3.175
30
0
0
VERTEX
8
0
10
1.9751098671259844
20
3.175
30
0
0
VERTEX
8
0
10
1.9646767962598426
20
3.1854330708661416
30
0
0
VERTEX
8
0
10
1.9353232037401575
20
3.1854330708661416
30
0
0
VERTEX
8
0
10
1.9145669291338583
20
3.1646767962598426
30
0
0
VERTEX
8
0
10
1.9145669291338583
20
3.1353232037401573
30
0
0
VERTEX
8
0
10
1.9353232037401575
20
3.1145669291338582
30
0
0
VERTEX
8
0
10
1.9646767962598426
20
3.1145669291338582
30
0
0
SEQEND
0
POLYLINE
66
1
8
16_copper
10
0.0
20
0.0
30
0.0
70
1
0
VERTEX
8
0
10
2.499455093503937
20
3.2560227608267716
30
0
42
0.9243903367892725
0
VERTEX
8
0
10
2.495988558070866
20
3.34425
30
0
0
VERTEX
8
0
10
2.404011441929134
20
3.34425
30
0
42
0.9614820847987363
0
VERTEX
8
0
10
2.404011441929134
20
3.25575
30
0
0
VERTEX
8
0
10
2.495988558070866
20
3.25575
30
0
0
SEQEND
0
POLYLINE
66
1
8
16_copper
10
0.0
20
0.0
30
0.0
70
1
0
VERTEX
8
0
10
1.9854330708661416
20
3.1353232037401573
30
0
0
VERTEX
8
0
10
1.9854330708661416
20
3.1646767962598426
30
0
0
VERTEX
8
0
10
1.9646767962598426
20
3.1854330708661416
30
0
0
VERTEX
8
0
10
1.9353232037401575
20
3.1854330708661416
30
0
0
VERTEX
8
0
10
1.9145669291338583
20
3.1646767962598426
30
0
0
VERTEX
8
0
10
1.9145669291338583
20
3.1353232037401573
30
0
0
VERTEX
8
0
10
1.9353232037401575
20
3.1145669291338582
30
0
0
VERTEX
8
0
10
1.9646767962598426
20
3.1145669291338582
30
0
0
SEQEND
0
POLYLINE
66
1
8
1_copper
10
0.0
20
0.0
30
0.0
70
1
0
VERTEX
8
0
10
2.1044072342519686
20
0.2402888779527559
30
0
42
0.3578057741447831
0
VERTEX
8
0
10
2.13
20
0.2685262057086614
30
0
0
VERTEX
8
0
10
2.13
20
0.3314737942913386
30
0
42
0.12312550566479114
0
VERTEX
8
0
10
2.1257747293307085
20
0.3454194143700787
30
0
0
VERTEX
8
0
10
2.20785531496063
20
0.4275
30
0
0
VERTEX
8
0
10
2.4525
20
0.4275
30
0
42
0.198912367379658
0
VERTEX
8
0
10
2.470177657480315
20
0.43482234251968505
30
0
0
VERTEX
8
0
10
3.317677657480315
20
1.282322342519685
30
0
42
0.198912367379658
0
VERTEX
8
0
10
3.325
20
1.3
30
0
0
VERTEX
8
0
10
3.325
20
2.545
30
0
42
0.1933842361627381
0
VERTEX
8
0
10
3.318709276574803
20
2.5629290108267715
30
0
0
VERTEX
8
0
10
3.3178072096456694
20
2.5652386811023624
30
0
42
0.09111091858339672
0
VERTEX
8
0
10
3.312677657480315
20
2.5726776574803147
30
0
0
VERTEX
8
0
10
3.067677657480315
20
2.817677657480315
30
0
42
0.198912367379658
0
VERTEX
8
0
10
3.05
20
2.825
30
0
0
VERTEX
8
0
10
2.56035531496063
20
2.825
30
0
0
VERTEX
8
0
10
2.475
20
2.91035531496063
30
0
0
VERTEX
8
0
10
2.475
20
2.95575
30
0
0
VERTEX
8
0
10
2.495988558070866
20
2.95575
30
0
42
0.9614820847987363
0
VERTEX
8
0
10
2.495988558070866
20
3.04425
30
0
0
VERTEX
8
0
10
2.404011441929134
20
3.04425
30
0
42
0.9614820847987363
0
VERTEX
8
0
10
2.404011441929134
20
2.95575
30
0
0
VERTEX
8
0
10
2.425
20
2.95575
30
0
0
VERTEX
8
0
10
2.425
20
2.9
30
0
42
0.198912367379658
0
VERTEX
8
0
10
2.432322342519685
20
2.882322342519685
30
0
0
VERTEX
8
0
10
2.5323223425196852
20
2.7823223425196852
30
0
42
0.198912367379658
0
VERTEX
8
0
10
2.55
20
2.775
30
0
0
VERTEX
8
0
10
3.03964468503937
20
2.775
30
0
0
VERTEX
8
0
10
3.270791461614173
20
2.543853223425197
30
0
42
0.09874698020545673
0
VERTEX
8
0
10
3.275
20
2.535035433070866
30
0
0
VERTEX
8
0
10
3.275
20
1.31035531496063
30
0
0
VERTEX
8
0
10
2.44214468503937
20
0.4775
30
0
0
VERTEX
8
0
10
2.1975
20
0.4775
30
0
42
0.198912367379658
0
VERTEX
8
0
10
2.179822342519685
20
0.470177657480315
30
0
0
VERTEX
8
0
10
2.082322342519685
20
0.37267765748031495
30
0
42
0.198912367379658
0
VERTEX
8
0
10
2.075
20
0.355
30
0
0
VERTEX
8
0
10
2.075
20
0.3465834153543307
30
0
42
0.13496225290796576
0
VERTEX
8
0
10
2.07
20
0.3314737942913386
30
0
0
VERTEX
8
0
10
2.07
20
0.2685262057086614
30
0
0
VERTEX
8
0
10
2.070288877952756
20
0.2655927657480315
30
0
0
VERTEX
8
0
10
2.0708639271653544
20
0.2627017716535433
30
0
0
VERTEX
8
0
10
2.0717196112204723
20
0.2598811515748031
30
0
0
VERTEX
8
0
10
2.072847563976378
20
0.2571578494094488
30
0
0
VERTEX
8
0
10
2.0742370816929134
20
0.25455831692913383
30
0
0
VERTEX
8
0
10
2.0758747539370077
20
0.25210752952755905
30
0
0
VERTEX
8
0
10
2.0777447096456694
20
0.24982898622047245
30
0
0
VERTEX
8
0
10
2.0798289862204724
20
0.2477447096456693
30
0
0
VERTEX
8
0
10
2.082107529527559
20
0.24587475393700786
30
0
0
VERTEX
8
0
10
2.084558316929134
20
0.2442370816929134
30
0
0
VERTEX
8
0
10
2.087157849409449
20
0.24284756397637794
30
0
0
VERTEX
8
0
10
2.089881151574803
20
0.24171961122047245
30
0
0
VERTEX
8
0
10
2.092701771653543
20
0.24086392716535432
30
0
0
VERTEX
8
0
10
2.0955927657480315
20
0.2402888779527559
30
0
0
VERTEX
8
0
10
2.0985262057086613
20
0.24
30
0
0
VERTEX
8
0
10
2.1014737942913384
20
0.24
30
0
0
SEQEND
0
POLYLINE
66
1
8
16_copper
10
0.0
20
0.0
30
0.0
70
1
0
VERTEX
8
0
10
2.499455093503937
20
2.9560227608267717
30
0
42
0.9243903367892725
0
VERTEX
8
0
10
2.495988558070866
20
3.04425
30
0
0
VERTEX
8
0
10
2.404011441929134
20
3.04425
30
0
42
0.9614820847987363
0
VERTEX
8
0
10
2.404011441929134
20
2.95575
30
0
0
VERTEX
8
0
10
2.495988558070866
20
2.95575
30
0
0
SEQEND
0
POLYLINE
66
1
8
16_copper
10
0.0
20
0.0
30
0.0
70
1
0
VERTEX
8
0
10
2.1044072342519686
20
0.2402888779527559
30
0
42
0.3578057741447831
0
VERTEX
8
0
10
2.13
20
0.2685262057086614
30
0
0
VERTEX
8
0
10
2.13
20
0.3314737942913386
30
0
42
0.9520795017710562
0
VERTEX
8
0
10
2.07
20
0.3314737942913386
30
0
0
VERTEX
8
0
10
2.07
20
0.2685262057086614
30
0
0
VERTEX
8
0
10
2.070288877952756
20
0.2655927657480315
30
0
0
VERTEX
8
0
10
2.0708639271653544
20
0.2627017716535433
30
0
0
VERTEX
8
0
10
2.0717196112204723
20
0.2598811515748031
30
0
0
VERTEX
8
0
10
2.072847563976378
20
0.2571578494094488
30
0
0
VERTEX
8
0
10
2.0742370816929134
20
0.25455831692913383
30
0
0
VERTEX
8
0
10
2.0758747539370077
20
0.25210752952755905
30
0
0
VERTEX
8
0
10
2.0777447096456694
20
0.24982898622047245
30
0
0
VERTEX
8
0
10
2.0798289862204724
20
0.2477447096456693
30
0
0
VERTEX
8
0
10
2.082107529527559
20
0.24587475393700786
30
0
0
VERTEX
8
0
10
2.084558316929134
20
0.2442370816929134
30
0
0
VERTEX
8
0
10
2.087157849409449
20
0.24284756397637794
30
0
0
VERTEX
8
0
10
2.089881151574803
20
0.24171961122047245
30
0
0
VERTEX
8
0
10
2.092701771653543
20
0.24086392716535432
30
0
0
VERTEX
8
0
10
2.0955927657480315
20
0.2402888779527559
30
0
0
VERTEX
8
0
10
2.0985262057086613
20
0.24
30
0
0
VERTEX
8
0
10
2.1014737942913384
20
0.24
30
0
0
SEQEND
0
POLYLINE
66
1
8
1_copper
10
0.0
20
0.0
30
0.0
70
1
0
VERTEX
8
0
10
2.8594072342519685
20
0.2402888779527559
30
0
42
0.3578057741447831
0
VERTEX
8
0
10
2.885
20
0.2685262057086614
30
0
0
VERTEX
8
0
10
2.885
20
0.3314737942913386
30
0
42
0.13496225290796576
0
VERTEX
8
0
10
2.88
20
0.3465834153543307
30
0
0
VERTEX
8
0
10
2.88
20
0.54464468503937
30
0
0
VERTEX
8
0
10
3.417677657480315
20
1.082322342519685
30
0
42
0.198912367379658
0
VERTEX
8
0
10
3.425
20
1.1
30
0
0
VERTEX
8
0
10
3.425
20
2.8
30
0
42
0.198912367379658
0
VERTEX
8
0
10
3.417677657480315
20
2.817677657480315
30
0
0
VERTEX
8
0
10
3.2176776574803148
20
3.017677657480315
30
0
42
0.198912367379658
0
VERTEX
8
0
10
3.2
20
3.025
30
0
0
VERTEX
8
0
10
3.1307824803149606
20
3.025
30
0
42
0.23715177325943038
0
VERTEX
8
0
10
3.095988558070866
20
3.04425
30
0
0
VERTEX
8
0
10
3.004011441929134
20
3.04425
30
0
42
0.9614820847987363
0
VERTEX
8
0
10
3.004011441929134
20
2.95575
30
0
0
VERTEX
8
0
10
3.095988558070866
20
2.95575
30
0
42
0.23715177325943038
0
VERTEX
8
0
10
3.1307824803149606
20
2.975
30
0
0
VERTEX
8
0
10
3.18964468503937
20
2.975
30
0
0
VERTEX
8
0
10
3.375
20
2.78964468503937
30
0
0
VERTEX
8
0
10
3.375
20
1.11035531496063
30
0
0
VERTEX
8
0
10
2.837322342519685
20
0.572677657480315
30
0
42
0.198912367379658
0
VERTEX
8
0
10
2.83
20
0.555
30
0
0
VERTEX
8
0
10
2.83
20
0.3465834153543307
30
0
42
0.13496225290796576
0
VERTEX
8
0
10
2.825
20
0.3314737942913386
30
0
0
VERTEX
8
0
10
2.825
20
0.2685262057086614
30
0
0
VERTEX
8
0
10
2.825288877952756
20
0.2655927657480315
30
0
0
VERTEX
8
0
10
2.8258639271653543
20
0.2627017716535433
30
0
0
VERTEX
8
0
10
2.8267196112204727
20
0.2598811515748031
30
0
0
VERTEX
8
0
10
2.827847563976378
20
0.2571578494094488
30
0
0
VERTEX
8
0
10
2.8292370816929133
20
0.25455831692913383
30
0
0
VERTEX
8
0
10
2.830874753937008
20
0.25210752952755905
30
0
0
VERTEX
8
0
10
2.8327447096456693
20
0.24982898622047245
30
0
0
VERTEX
8
0
10
2.8348289862204723
20
0.2477447096456693
30
0
0
VERTEX
8
0
10
2.837107529527559
20
0.24587475393700786
30
0
0
VERTEX
8
0
10
2.839558316929134
20
0.2442370816929134
30
0
0
VERTEX
8
0
10
2.842157849409449
20
0.24284756397637794
30
0
0
VERTEX
8
0
10
2.8448811515748034
20
0.24171961122047245
30
0
0
VERTEX
8
0
10
2.847701771653543
20
0.24086392716535432
30
0
0
VERTEX
8
0
10
2.8505927657480314
20
0.2402888779527559
30
0
0
VERTEX
8
0
10
2.8535262057086612
20
0.24
30
0
0
VERTEX
8
0
10
2.8564737942913387
20
0.24
30
0
0
SEQEND
0
POLYLINE
66
1
8
16_copper
10
0.0
20
0.0
30
0.0
70
1
0
VERTEX
8
0
10
3.099455093503937
20
2.9560227608267717
30
0
42
0.9243903367892725
0
VERTEX
8
0
10
3.095988558070866
20
3.04425
30
0
0
VERTEX
8
0
10
3.004011441929134
20
3.04425
30
0
42
0.9614820847987363
0
VERTEX
8
0
10
3.004011441929134
20
2.95575
30
0
0
VERTEX
8
0
10
3.095988558070866
20
2.95575
30
0
0
SEQEND
0
POLYLINE
66
1
8
16_copper
10
0.0
20
0.0
30
0.0
70
1
0
VERTEX
8
0
10
2.8594072342519685
20
0.2402888779527559
30
0
42
0.3578057741447831
0
VERTEX
8
0
10
2.885
20
0.2685262057086614
30
0
0
VERTEX
8
0
10
2.885
20
0.3314737942913386
30
0
42
0.9520795017710562
0
VERTEX
8
0
10
2.825
20
0.3314737942913386
30
0
0
VERTEX
8
0
10
2.825
20
0.2685262057086614
30
0
0
VERTEX
8
0
10
2.825288877952756
20
0.2655927657480315
30
0
0
VERTEX
8
0
10
2.8258639271653543
20
0.2627017716535433
30
0
0
VERTEX
8
0
10
2.8267196112204727
20
0.2598811515748031
30
0
0
VERTEX
8
0
10
2.827847563976378
20
0.2571578494094488
30
0
0
VERTEX
8
0
10
2.8292370816929133
20
0.25455831692913383
30
0
0
VERTEX
8
0
10
2.830874753937008
20
0.25210752952755905
30
0
0
VERTEX
8
0
10
2.8327447096456693
20
0.24982898622047245
30
0
0
VERTEX
8
0
10
2.8348289862204723
20
0.2477447096456693
30
0
0
VERTEX
8
0
10
2.837107529527559
20
0.24587475393700786
30
0
0
VERTEX
8
0
10
2.839558316929134
20
0.2442370816929134
30
0
0
VERTEX
8
0
10
2.842157849409449
20
0.24284756397637794
30
0
0
VERTEX
8
0
10
2.8448811515748034
20
0.24171961122047245
30
0
0
VERTEX
8
0
10
2.847701771653543
20
0.24086392716535432
30
0
0
VERTEX
8
0
10
2.8505927657480314
20
0.2402888779527559
30
0
0
VERTEX
8
0
10
2.8535262057086612
20
0.24
30
0
0
VERTEX
8
0
10
2.8564737942913387
20
0.24
30
0
0
SEQEND
0
POLYLINE
66
1
8
1_copper
10
0.0
20
0.0
30
0.0
70
1
0
VERTEX
8
0
10
3.2514602608267715
20
0.16213435039370078
30
0
42
0.36141643969788223
0
VERTEX
8
0
10
3.258
20
0.17
30
0
0
VERTEX
8
0
10
3.258
20
0.212
30
0
0
VERTEX
8
0
10
3.295
20
0.212
30
0
42
0.9999999999999999
0
VERTEX
8
0
10
3.295
20
0.228
30
0
0
VERTEX
8
0
10
3.258
20
0.228
30
0
0
VERTEX
8
0
10
3.258
20
0.26
30
0
42
0.9999999999999999
0
VERTEX
8
0
10
3.242
20
0.26
30
0
0
VERTEX
8
0
10
3.242
20
0.228
30
0
0
VERTEX
8
0
10
3.21
20
0.228
30
0
42
0.9234163001787704
0
VERTEX
8
0
10
3.2087319143700785
20
0.2121011318897638
30
0
0
VERTEX
8
0
10
3.21
20
0.212
30
0
0
VERTEX
8
0
10
3.242
20
0.212
30
0
0
VERTEX
8
0
10
3.242
20
0.17
30
0
0
VERTEX
8
0
10
3.2421227854330708
20
0.16860371555118112
30
0
0
VERTEX
8
0
10
3.2424874507874017
20
0.16725024606299213
30
0
0
VERTEX
8
0
10
3.2430826771653543
20
0.16598129921259844
30
0
0
VERTEX
8
0
10
3.243890255905512
20
0.16483562992125983
30
0
0
VERTEX
8
0
10
3.2448854576771655
20
0.16384854822834646
30
0
0
VERTEX
8
0
10
3.246037524606299
20
0.1630501968503937
30
0
0
VERTEX
8
0
10
3.2473113927165356
20
0.16246530511811025
30
0
0
VERTEX
8
0
10
3.2486676919291337
20
0.1621117125984252
30
0
0
VERTEX
8
0
10
3.2500649606299215
20
0.16200024606299213
30
0
0
SEQEND
0
POLYLINE
66
1
8
1_copper
10
0.0
20
0.0
30
0.0
70
1
0
VERTEX
8
0
10
0.30039776082677166
20
3.142034940944882
30
0
42
0.18597604843350257
0
VERTEX
8
0
10
0.3056568651574803
20
3.1443431348425195
30
0
0
VERTEX
8
0
10
0.3556568651574803
20
3.1943431348425197
30
0
42
0.198912367379658
0
VERTEX
8
0
10
0.358
20
3.2
30
0
0
VERTEX
8
0
10
0.358
20
3.3
30
0
42
0.198912367379658
0
VERTEX
8
0
10
0.3556568651574803
20
3.3056568651574803
30
0
0
VERTEX
8
0
10
0.3056568651574803
20
3.3556568651574805
30
0
42
0.198912367379658
0
VERTEX
8
0
10
0.3
20
3.358
30
0
0
VERTEX
8
0
10
0.2
20
3.358
30
0
42
0.41421356237309503
0
VERTEX
8
0
10
0.192
20
3.35
30
0
0
VERTEX
8
0
10
0.192
20
3.15
30
0
42
0.41421356237309503
0
VERTEX
8
0
10
0.2
20
3.142
30
0
0
VERTEX
8
0
10
0.3
20
3.142
30
0
0
SEQEND
0
POLYLINE
66
1
8
1_copper
10
0.0
20
0.0
30
0.0
70
1
0
VERTEX
8
0
10
0.208
20
3.158
30
0
0
VERTEX
8
0
10
0.208
20
3.342
30
0
0
VERTEX
8
0
10
0.29668626968503936
20
3.342
30
0
0
VERTEX
8
0
10
0.342
20
3.2966862696850394
30
0
0
VERTEX
8
0
10
0.342
20
3.2033137303149606
30
0
0
VERTEX
8
0
10
0.29668626968503936
20
3.158
30
0
0
SEQEND
0
POLYLINE
66
1
8
1_copper
10
0.0
20
0.0
30
0.0
70
1
0
VERTEX
8
0
10
2.529685039370079
20
1.7877041092519685
30
0
0
VERTEX
8
0
10
2.529685039370079
20
1.792
30
0
0
VERTEX
8
0
10
2.65
20
1.792
30
0
42
0.22783779158266837
0
VERTEX
8
0
10
2.6562469242125983
20
1.7950024606299213
30
0
0
VERTEX
8
0
10
2.831898499015748
20
2.014566929133858
30
0
0
VERTEX
8
0
10
2.8854330708661418
20
2.014566929133858
30
0
0
VERTEX
8
0
10
2.8854330708661418
20
2.085433070866142
30
0
0
VERTEX
8
0
10
2.8145669291338584
20
2.085433070866142
30
0
0
VERTEX
8
0
10
2.8145669291338584
20
2.0185148868110234
30
0
0
VERTEX
8
0
10
2.646155019685039
20
1.808
30
0
0
VERTEX
8
0
10
2.529685039370079
20
1.808
30
0
0
VERTEX
8
0
10
2.529685039370079
20
1.8122958907480315
30
0
0
VERTEX
8
0
10
2.5122958907480313
20
1.8296850393700788
30
0
0
VERTEX
8
0
10
2.4877041092519687
20
1.8296850393700788
30
0
0
VERTEX
8
0
10
2.470314960629921
20
1.8122958907480315
30
0
0
VERTEX
8
0
10
2.470314960629921
20
1.7877041092519685
30
0
0
VERTEX
8
0
10
2.4877041092519687
20
1.7703149606299213
30
0
0
VERTEX
8
0
10
2.5122958907480313
20
1.7703149606299213
30
0
0
SEQEND
0
POLYLINE
66
1
8
1_copper
10
0.0
20
0.0
30
0.0
70
1
0
VERTEX
8
0
10
0.628
20
0.48840206692913385
30
0
0
VERTEX
8
0
10
0.628
20
0.5115979330708661
30
0
0
VERTEX
8
0
10
0.6115979330708662
20
0.528
30
0
0
VERTEX
8
0
10
0.5884020669291339
20
0.528
30
0
0
VERTEX
8
0
10
0.572
20
0.5115979330708661
30
0
0
VERTEX
8
0
10
0.572
20
0.48840206692913385
30
0
0
VERTEX
8
0
10
0.5884020669291339
20
0.472
30
0
0
VERTEX
8
0
10
0.6115979330708662
20
0.472
30
0
0
SEQEND
0
POLYLINE
66
1
8
16_copper
10
0.0
20
0.0
30
0.0
70
1
0
VERTEX
8
0
10
2.8854330708661418
20
2.085433070866142
30
0
0
VERTEX
8
0
10
2.8145669291338584
20
2.085433070866142
30
0
0
VERTEX
8
0
10
2.8145669291338584
20
2.014566929133858
30
0
0
VERTEX
8
0
10
2.8854330708661418
20
2.014566929133858
30
0
0
SEQEND
0
POLYLINE
66
1
8
16_copper
10
0.0
20
0.0
30
0.0
70
1
0
VERTEX
8
0
10
0.628
20
0.48840206692913385
30
0
0
VERTEX
8
0
10
0.628
20
0.5115979330708661
30
0
0
VERTEX
8
0
10
0.6115979330708662
20
0.528
30
0
0
VERTEX
8
0
10
0.608
20
0.528
30
0
0
VERTEX
8
0
10
0.608
20
0.6
30
0
42
0.198912367379658
0
VERTEX
8
0
10
0.6056568651574803
20
0.6056568651574803
30
0
0
VERTEX
8
0
10
0.5556568651574804
20
0.6556568651574803
30
0
42
0.198912367379658
0
VERTEX
8
0
10
0.55
20
0.658
30
0
0
VERTEX
8
0
10
0.5033137303149606
20
0.658
30
0
0
VERTEX
8
0
10
0.358
20
0.8033137303149607
30
0
0
VERTEX
8
0
10
0.358
20
1.1797406496062992
30
0
0
VERTEX
8
0
10
1.0467917076771653
20
1.792
30
0
0
VERTEX
8
0
10
2.470314960629921
20
1.792
30
0
0
VERTEX
8
0
10
2.470314960629921
20
1.7877041092519685
30
0
0
VERTEX
8
0
10
2.4877041092519687
20
1.7703149606299213
30
0
0
VERTEX
8
0
10
2.5122958907480313
20
1.7703149606299213
30
0
0
VERTEX
8
0
10
2.529685039370079
20
1.7877041092519685
30
0
0
VERTEX
8
0
10
2.529685039370079
20
1.8122958907480315
30
0
0
VERTEX
8
0
10
2.5122958907480313
20
1.8296850393700788
30
0
0
VERTEX
8
0
10
2.4877041092519687
20
1.8296850393700788
30
0
0
VERTEX
8
0
10
2.470314960629921
20
1.8122958907480315
30
0
0
VERTEX
8
0
10
2.470314960629921
20
1.808
30
0
0
VERTEX
8
0
10
1.04375
20
1.808
30
0
42
0.1836856211561756
0
VERTEX
8
0
10
1.0384350393700787
20
1.8059793307086613
30
0
0
VERTEX
8
0
10
0.3446850393700787
20
1.189312623031496
30
0
42
0.21422836025367417
0
VERTEX
8
0
10
0.342
20
1.1833332923228346
30
0
0
VERTEX
8
0
10
0.342
20
0.8
30
0
42
0.198912367379658
0
VERTEX
8
0
10
0.34434313484251966
20
0.7943431348425197
30
0
0
VERTEX
8
0
10
0.4943431348425197
20
0.6443431348425197
30
0
42
0.198912367379658
0
VERTEX
8
0
10
0.5
20
0.642
30
0
0
VERTEX
8
0
10
0.5466862696850394
20
0.642
30
0
0
VERTEX
8
0
10
0.592
20
0.5966862696850393
30
0
0
VERTEX
8
0
10
0.592
20
0.528
30
0
0
VERTEX
8
0
10
0.5884020669291339
20
0.528
30
0
0
VERTEX
8
0
10
0.572
20
0.5115979330708661
30
0
0
VERTEX
8
0
10
0.572
20
0.48840206692913385
30
0
0
VERTEX
8
0
10
0.5884020669291339
20
0.472
30
0
0
VERTEX
8
0
10
0.6115979330708662
20
0.472
30
0
0
SEQEND
0
POLYLINE
66
1
8
1_copper
10
0.0
20
0.0
30
0.0
70
1
0
VERTEX
8
0
10
0.9796850393700788
20
0.8377041092519685
30
0
0
VERTEX
8
0
10
0.9796850393700788
20
0.8622958907480315
30
0
0
VERTEX
8
0
10
0.9622958907480315
20
0.8796850393700787
30
0
0
VERTEX
8
0
10
0.958
20
0.8796850393700787
30
0
0
VERTEX
8
0
10
0.958
20
1.3966862696850393
30
0
0
VERTEX
8
0
10
1.0033137303149606
20
1.442
30
0
0
VERTEX
8
0
10
1.5982610728346456
20
1.442
30
0
0
VERTEX
8
0
10
1.6760410925196851
20
1.3642201033464567
30
0
0
VERTEX
8
0
10
1.673464566929134
20
1.3616435777559055
30
0
0
VERTEX
8
0
10
1.673464566929134
20
1.3383564222440945
30
0
0
VERTEX
8
0
10
1.6899312253937009
20
1.3218897637795275
30
0
0
VERTEX
8
0
10
1.7132183809055117
20
1.3218897637795275
30
0
0
VERTEX
8
0
10
1.7296850393700787
20
1.3383564222440945
30
0
0
VERTEX
8
0
10
1.7296850393700787
20
1.3616435777559055
30
0
0
VERTEX
8
0
10
1.7132183809055117
20
1.3781102362204725
30
0
0
VERTEX
8
0
10
1.6899312253937009
20
1.3781102362204725
30
0
0
VERTEX
8
0
10
1.6873548228346458
20
1.3755338336614173
30
0
0
VERTEX
8
0
10
1.6072316683070866
20
1.4556568651574804
30
0
42
0.198912367379658
0
VERTEX
8
0
10
1.6015748031496062
20
1.458
30
0
0
VERTEX
8
0
10
1
20
1.458
30
0
42
0.198912367379658
0
VERTEX
8
0
10
0.9943431348425197
20
1.4556568651574804
30
0
0
VERTEX
8
0
10
0.9443431348425196
20
1.4056568651574803
30
0
42
0.198912367379658
0
VERTEX
8
0
10
0.942
20
1.4
30
0
0
VERTEX
8
0
10
0.942
20
0.8796850393700787
30
0
0
VERTEX
8
0
10
0.9377041092519685
20
0.8796850393700787
30
0
0
VERTEX
8
0
10
0.9203149606299212
20
0.8622958907480315
30
0
0
VERTEX
8
0
10
0.9203149606299212
20
0.8377041092519685
30
0
0
VERTEX
8
0
10
0.9377041092519685
20
0.8203149606299213
30
0
0
VERTEX
8
0
10
0.9622958907480315
20
0.8203149606299213
30
0
0
SEQEND
0
POLYLINE
66
1
8
1_copper
10
0.0
20
0.0
30
0.0
70
1
0
VERTEX
8
0
10
1.028
20
0.48840206692913385
30
0
0
VERTEX
8
0
10
1.028
20
0.5115979330708661
30
0
0
VERTEX
8
0
10
1.0115979330708662
20
0.528
30
0
0
VERTEX
8
0
10
0.9884020669291339
20
0.528
30
0
0
VERTEX
8
0
10
0.972
20
0.5115979330708661
30
0
0
VERTEX
8
0
10
0.972
20
0.48840206692913385
30
0
0
VERTEX
8
0
10
0.9884020669291339
20
0.472
30
0
0
VERTEX
8
0
10
1.0115979330708662
20
0.472
30
0
0
SEQEND
0
POLYLINE
66
1
8
16_copper
10
0.0
20
0.0
30
0.0
70
1
0
VERTEX
8
0
10
1.7296850393700787
20
1.3383564222440945
30
0
0
VERTEX
8
0
10
1.7296850393700787
20
1.3616435777559055
30
0
0
VERTEX
8
0
10
1.7132183809055117
20
1.3781102362204725
30
0
0
VERTEX
8
0
10
1.6899312253937009
20
1.3781102362204725
30
0
0
VERTEX
8
0
10
1.673464566929134
20
1.3616435777559055
30
0
0
VERTEX
8
0
10
1.673464566929134
20
1.3383564222440945
30
0
0
VERTEX
8
0
10
1.6899312253937009
20
1.3218897637795275
30
0
0
VERTEX
8
0
10
1.7132183809055117
20
1.3218897637795275
30
0
0
SEQEND
0
POLYLINE
66
1
8
16_copper
10
0.0
20
0.0
30
0.0
70
1
0
VERTEX
8
0
10
1.028
20
0.48840206692913385
30
0
0
VERTEX
8
0
10
1.028
20
0.5115979330708661
30
0
0
VERTEX
8
0
10
1.0115979330708662
20
0.528
30
0
0
VERTEX
8
0
10
1.008
20
0.528
30
0
0
VERTEX
8
0
10
1.008
20
0.7
30
0
42
0.198912367379658
0
VERTEX
8
0
10
1.0056568651574802
20
0.7056568651574803
30
0
0
VERTEX
8
0
10
0.958
20
0.7533137303149606
30
0
0
VERTEX
8
0
10
0.958
20
0.8203149606299213
30
0
0
VERTEX
8
0
10
0.9622958907480315
20
0.8203149606299213
30
0
0
VERTEX
8
0
10
0.9796850393700788
20
0.8377041092519685
30
0
0
VERTEX
8
0
10
0.9796850393700788
20
0.8622958907480315
30
0
0
VERTEX
8
0
10
0.9622958907480315
20
0.8796850393700787
30
0
0
VERTEX
8
0
10
0.9377041092519685
20
0.8796850393700787
30
0
0
VERTEX
8
0
10
0.9203149606299212
20
0.8622958907480315
30
0
0
VERTEX
8
0
10
0.9203149606299212
20
0.8377041092519685
30
0
0
VERTEX
8
0
10
0.9377041092519685
20
0.8203149606299213
30
0
0
VERTEX
8
0
10
0.942
20
0.8203149606299213
30
0
0
VERTEX
8
0
10
0.942
20
0.75
30
0
42
0.198912367379658
0
VERTEX
8
0
10
0.9443431348425196
20
0.7443431348425197
30
0
0
VERTEX
8
0
10
0.992
20
0.6966862696850393
30
0
0
VERTEX
8
0
10
0.992
20
0.528
30
0
0
VERTEX
8
0
10
0.9884020669291339
20
0.528
30
0
0
VERTEX
8
0
10
0.972
20
0.5115979330708661
30
0
0
VERTEX
8
0
10
0.972
20
0.48840206692913385
30
0
0
VERTEX
8
0
10
0.9884020669291339
20
0.472
30
0
0
VERTEX
8
0
10
1.0115979330708662
20
0.472
30
0
0
SEQEND
0
POLYLINE
66
1
8
1_copper
10
0.0
20
0.0
30
0.0
70
1
0
VERTEX
8
0
10
1.1296850393700788
20
0.8377041092519685
30
0
0
VERTEX
8
0
10
1.1296850393700788
20
0.8622958907480315
30
0
0
VERTEX
8
0
10
1.1122958907480316
20
0.8796850393700787
30
0
0
VERTEX
8
0
10
1.108
20
0.8796850393700787
30
0
0
VERTEX
8
0
10
1.108
20
0.9466862696850393
30
0
0
VERTEX
8
0
10
1.2033137303149606
20
1.042
30
0
0
VERTEX
8
0
10
1.6
20
1.042
30
0
42
0.198912367379658
0
VERTEX
8
0
10
1.6056568651574803
20
1.0443431348425196
30
0
0
VERTEX
8
0
10
1.7072316683070867
20
1.145917937992126
30
0
42
0.198912367379658
0
VERTEX
8
0
10
1.7095748031496063
20
1.1515748031496063
30
0
0
VERTEX
8
0
10
1.7095748031496063
20
1.195511811023622
30
0
0
VERTEX
8
0
10
1.7132183809055117
20
1.195511811023622
30
0
0
VERTEX
8
0
10
1.7296850393700787
20
1.211978469488189
30
0
0
VERTEX
8
0
10
1.7296850393700787
20
1.235265625
30
0
0
VERTEX
8
0
10
1.7132183809055117
20
1.251732283464567
30
0
0
VERTEX
8
0
10
1.6899312253937009
20
1.251732283464567
30
0
0
VERTEX
8
0
10
1.673464566929134
20
1.235265625
30
0
0
VERTEX
8
0
10
1.673464566929134
20
1.211978469488189
30
0
0
VERTEX
8
0
10
1.6899312253937009
20
1.195511811023622
30
0
0
VERTEX
8
0
10
1.6935748031496063
20
1.195511811023622
30
0
0
VERTEX
8
0
10
1.6935748031496063
20
1.1548885334645669
30
0
0
VERTEX
8
0
10
1.5966862696850395
20
1.058
30
0
0
VERTEX
8
0
10
1.2
20
1.058
30
0
42
0.198912367379658
0
VERTEX
8
0
10
1.1943431348425197
20
1.0556568651574803
30
0
0
VERTEX
8
0
10
1.0943431348425197
20
0.9556568651574803
30
0
42
0.198912367379658
0
VERTEX
8
0
10
1.092
20
0.95
30
0
0
VERTEX
8
0
10
1.092
20
0.8796850393700787
30
0
0
VERTEX
8
0
10
1.0877041092519686
20
0.8796850393700787
30
0
0
VERTEX
8
0
10
1.0703149606299212
20
0.8622958907480315
30
0
0
VERTEX
8
0
10
1.0703149606299212
20
0.8377041092519685
30
0
0
VERTEX
8
0
10
1.0877041092519686
20
0.8203149606299213
30
0
0
VERTEX
8
0
10
1.1122958907480316
20
0.8203149606299213
30
0
0
SEQEND
0
POLYLINE
66
1
8
1_copper
10
0.0
20
0.0
30
0.0
70
1
0
VERTEX
8
0
10
1.128
20
0.48840206692913385
30
0
0
VERTEX
8
0
10
1.128
20
0.5115979330708661
30
0
0
VERTEX
8
0
10
1.111597933070866
20
0.528
30
0
0
VERTEX
8
0
10
1.0884020669291339
20
0.528
30
0
0
VERTEX
8
0
10
1.072
20
0.5115979330708661
30
0
0
VERTEX
8
0
10
1.072
20
0.48840206692913385
30
0
0
VERTEX
8
0
10
1.0884020669291339
20
0.472
30
0
0
VERTEX
8
0
10
1.111597933070866
20
0.472
30
0
0
SEQEND
0
POLYLINE
66
1
8
16_copper
10
0.0
20
0.0
30
0.0
70
1
0
VERTEX
8
0
10
1.7296850393700787
20
1.211978469488189
30
0
0
VERTEX
8
0
10
1.7296850393700787
20
1.235265625
30
0
0
VERTEX
8
0
10
1.7132183809055117
20
1.251732283464567
30
0
0
VERTEX
8
0
10
1.6899312253937009
20
1.251732283464567
30
0
0
VERTEX
8
0
10
1.673464566929134
20
1.235265625
30
0
0
VERTEX
8
0
10
1.673464566929134
20
1.211978469488189
30
0
0
VERTEX
8
0
10
1.6899312253937009
20
1.195511811023622
30
0
0
VERTEX
8
0
10
1.7132183809055117
20
1.195511811023622
30
0
0
SEQEND
0
POLYLINE
66
1
8
16_copper
10
0.0
20
0.0
30
0.0
70
1
0
VERTEX
8
0
10
1.128
20
0.48840206692913385
30
0
0
VERTEX
8
0
10
1.128
20
0.5115979330708661
30
0
0
VERTEX
8
0
10
1.111597933070866
20
0.528
30
0
0
VERTEX
8
0
10
1.108
20
0.528
30
0
0
VERTEX
8
0
10
1.108
20
0.8203149606299213
30
0
0
VERTEX
8
0
10
1.1122958907480316
20
0.8203149606299213
30
0
0
VERTEX
8
0
10
1.1296850393700788
20
0.8377041092519685
30
0
0
VERTEX
8
0
10
1.1296850393700788
20
0.8622958907480315
30
0
0
VERTEX
8
0
10
1.1122958907480316
20
0.8796850393700787
30
0
0
VERTEX
8
0
10
1.0877041092519686
20
0.8796850393700787
30
0
0
VERTEX
8
0
10
1.0703149606299212
20
0.8622958907480315
30
0
0
VERTEX
8
0
10
1.0703149606299212
20
0.8377041092519685
30
0
0
VERTEX
8
0
10
1.0877041092519686
20
0.8203149606299213
30
0
0
VERTEX
8
0
10
1.092
20
0.8203149606299213
30
0
0
VERTEX
8
0
10
1.092
20
0.528
30
0
0
VERTEX
8
0
10
1.0884020669291339
20
0.528
30
0
0
VERTEX
8
0
10
1.072
20
0.5115979330708661
30
0
0
VERTEX
8
0
10
1.072
20
0.48840206692913385
30
0
0
VERTEX
8
0
10
1.0884020669291339
20
0.472
30
0
0
VERTEX
8
0
10
1.111597933070866
20
0.472
30
0
0
SEQEND
0
POLYLINE
66
1
8
1_copper
10
0.0
20
0.0
30
0.0
70
1
0
VERTEX
8
0
10
2.5796850393700788
20
0.9377041092519685
30
0
0
VERTEX
8
0
10
2.5796850393700788
20
0.9622958907480315
30
0
0
VERTEX
8
0
10
2.5622958907480315
20
0.9796850393700788
30
0
0
VERTEX
8
0
10
2.558
20
0.9796850393700788
30
0
0
VERTEX
8
0
10
2.558
20
1.4964073572834646
30
0
0
VERTEX
8
0
10
3.005314960629921
20
1.8940206692913386
30
0
42
0.21422836025367417
0
VERTEX
8
0
10
3.008
20
1.9
30
0
0
VERTEX
8
0
10
3.008
20
2.15
30
0
42
0.198912367379658
0
VERTEX
8
0
10
3.0056568651574804
20
2.1556568651574803
30
0
0
VERTEX
8
0
10
2.9056568651574803
20
2.2556568651574804
30
0
42
0.198912367379658
0
VERTEX
8
0
10
2.9
20
2.258
30
0
0
VERTEX
8
0
10
2.8854330708661418
20
2.258
30
0
0
VERTEX
8
0
10
2.8854330708661418
20
2.2646767962598426
30
0
0
VERTEX
8
0
10
2.8646767962598427
20
2.2854330708661417
30
0
0
VERTEX
8
0
10
2.8353232037401574
20
2.2854330708661417
30
0
0
VERTEX
8
0
10
2.8145669291338584
20
2.2646767962598426
30
0
0
VERTEX
8
0
10
2.8145669291338584
20
2.2353232037401574
30
0
0
VERTEX
8
0
10
2.8353232037401574
20
2.2145669291338583
30
0
0
VERTEX
8
0
10
2.8646767962598427
20
2.2145669291338583
30
0
0
VERTEX
8
0
10
2.8854330708661418
20
2.2353232037401574
30
0
0
VERTEX
8
0
10
2.8854330708661418
20
2.242
30
0
0
VERTEX
8
0
10
2.8966862696850395
20
2.242
30
0
0
VERTEX
8
0
10
2.992
20
2.1466862696850395
30
0
0
VERTEX
8
0
10
2.992
20
1.9035926427165355
30
0
0
VERTEX
8
0
10
2.5446850393700786
20
1.5059793307086615
30
0
42
0.21422836025367417
0
VERTEX
8
0
10
2.542
20
1.5
30
0
0
VERTEX
8
0
10
2.542
20
0.9796850393700788
30
0
0
VERTEX
8
0
10
2.5377041092519685
20
0.9796850393700788
30
0
0
VERTEX
8
0
10
2.5203149606299213
20
0.9622958907480315
30
0
0
VERTEX
8
0
10
2.5203149606299213
20
0.9377041092519685
30
0
0
VERTEX
8
0
10
2.5377041092519685
20
0.9203149606299212
30
0
0
VERTEX
8
0
10
2.5622958907480315
20
0.9203149606299212
30
0
0
SEQEND
0
POLYLINE
66
1
8
1_copper
10
0.0
20
0.0
30
0.0
70
1
0
VERTEX
8
0
10
0.528
20
0.38840206692913387
30
0
0
VERTEX
8
0
10
0.528
20
0.4115979330708661
30
0
0
VERTEX
8
0
10
0.5115979330708661
20
0.428
30
0
0
VERTEX
8
0
10
0.48840206692913385
20
0.428
30
0
0
VERTEX
8
0
10
0.472
20
0.4115979330708661
30
0
0
VERTEX
8
0
10
0.472
20
0.38840206692913387
30
0
0
VERTEX
8
0
10
0.48840206692913385
20
0.372
30
0
0
VERTEX
8
0
10
0.5115979330708661
20
0.372
30
0
0
SEQEND
0
POLYLINE
66
1
8
16_copper
10
0.0
20
0.0
30
0.0
70
1
0
VERTEX
8
0
10
2.8854330708661418
20
2.2353232037401574
30
0
0
VERTEX
8
0
10
2.8854330708661418
20
2.2646767962598426
30
0
0
VERTEX
8
0
10
2.8646767962598427
20
2.2854330708661417
30
0
0
VERTEX
8
0
10
2.8353232037401574
20
2.2854330708661417
30
0
0
VERTEX
8
0
10
2.8145669291338584
20
2.2646767962598426
30
0
0
VERTEX
8
0
10
2.8145669291338584
20
2.2353232037401574
30
0
0
VERTEX
8
0
10
2.8353232037401574
20
2.2145669291338583
30
0
0
VERTEX
8
0
10
2.8646767962598427
20
2.2145669291338583
30
0
0
SEQEND
0
POLYLINE
66
1
8
16_copper
10
0.0
20
0.0
30
0.0
70
1
0
VERTEX
8
0
10
1.7503977608267716
20
0.09003494094488189
30
0
42
0.18597604843350257
0
VERTEX
8
0
10
1.7556568651574802
20
0.09234313484251969
30
0
0
VERTEX
8
0
10
1.8356568651574803
20
0.17234313484251967
30
0
42
0.198912367379658
0
VERTEX
8
0
10
1.838
20
0.178
30
0
0
VERTEX
8
0
10
1.838
20
0.3766862696850394
30
0
0
VERTEX
8
0
10
2.1033137303149605
20
0.642
30
0
0
VERTEX
8
0
10
2.25
20
0.642
30
0
42
0.198912367379658
0
VERTEX
8
0
10
2.2556568651574804
20
0.6443431348425197
30
0
0
VERTEX
8
0
10
2.534666461614173
20
0.9233527312992126
30
0
0
VERTEX
8
0
10
2.5377041092519685
20
0.9203149606299212
30
0
0
VERTEX
8
0
10
2.5622958907480315
20
0.9203149606299212
30
0
0
VERTEX
8
0
10
2.5796850393700788
20
0.9377041092519685
30
0
0
VERTEX
8
0
10
2.5796850393700788
20
0.9622958907480315
30
0
0
VERTEX
8
0
10
2.5622958907480315
20
0.9796850393700788
30
0
0
VERTEX
8
0
10
2.5377041092519685
20
0.9796850393700788
30
0
0
VERTEX
8
0
10
2.5203149606299213
20
0.9622958907480315
30
0
0
VERTEX
8
0
10
2.5203149606299213
20
0.9377041092519685
30
0
0
VERTEX
8
0
10
2.523352731299213
20
0.9346664616141732
30
0
0
VERTEX
8
0
10
2.246686269685039
20
0.658
30
0
0
VERTEX
8
0
10
2.1
20
0.658
30
0
42
0.198912367379658
0
VERTEX
8
0
10
2.0943431348425197
20
0.6556568651574803
30
0
0
VERTEX
8
0
10
1.8243431348425196
20
0.3856568651574803
30
0
42
0.198912367379658
0
VERTEX
8
0
10
1.822
20
0.38
30
0
0
VERTEX
8
0
10
1.822
20
0.18131373031496062
30
0
0
VERTEX
8
0
10
1.7466862696850394
20
0.106
30
0
0
VERTEX
8
0
10
0.6053137303149606
20
0.106
30
0
0
VERTEX
8
0
10
0.508
20
0.20331373031496064
30
0
0
VERTEX
8
0
10
0.508
20
0.372
30
0
0
VERTEX
8
0
10
0.5115979330708661
20
0.372
30
0
0
VERTEX
8
0
10
0.528
20
0.38840206692913387
30
0
0
VERTEX
8
0
10
0.528
20
0.4115979330708661
30
0
0
VERTEX
8
0
10
0.5115979330708661
20
0.428
30
0
0
VERTEX
8
0
10
0.48840206692913385
20
0.428
30
0
0
VERTEX
8
0
10
0.472
20
0.4115979330708661
30
0
0
VERTEX
8
0
10
0.472
20
0.38840206692913387
30
0
0
VERTEX
8
0
10
0.48840206692913385
20
0.372
30
0
0
VERTEX
8
0
10
0.492
20
0.372
30
0
0
VERTEX
8
0
10
0.492
20
0.2
30
0
42
0.198912367379658
0
VERTEX
8
0
10
0.4943431348425197
20
0.1943431348425197
30
0
0
VERTEX
8
0
10
0.5921329970472441
20
0.09655327263779527
30
0
42
0.36189543611854424
0
VERTEX
8
0
10
0.6
20
0.09
30
0
0
VERTEX
8
0
10
1.75
20
0.09
30
0
0
SEQEND
0
POLYLINE
66
1
8
1_copper
10
0.0
20
0.0
30
0.0
70
1
0
VERTEX
8
0
10
2.779685039370079
20
1.3877041092519684
30
0
0
VERTEX
8
0
10
2.779685039370079
20
1.4122958907480314
30
0
0
VERTEX
8
0
10
2.7766473917322836
20
1.4153336614173229
30
0
0
VERTEX
8
0
10
3.1056568651574805
20
1.7443431348425198
30
0
42
0.198912367379658
0
VERTEX
8
0
10
3.108
20
1.75
30
0
0
VERTEX
8
0
10
3.108
20
2.2
30
0
42
0.198912367379658
0
VERTEX
8
0
10
3.1056568651574805
20
2.20565686515748
30
0
0
VERTEX
8
0
10
2.95565686515748
20
2.3556568651574805
30
0
42
0.198912367379658
0
VERTEX
8
0
10
2.95
20
2.358
30
0
0
VERTEX
8
0
10
2.6854330708661416
20
2.358
30
0
0
VERTEX
8
0
10
2.6854330708661416
20
2.3646767962598427
30
0
0
VERTEX
8
0
10
2.6646767962598426
20
2.3854330708661418
30
0
0
VERTEX
8
0
10
2.6353232037401573
20
2.3854330708661418
30
0
0
VERTEX
8
0
10
2.6145669291338582
20
2.3646767962598427
30
0
0
VERTEX
8
0
10
2.6145669291338582
20
2.3353232037401574
30
0
0
VERTEX
8
0
10
2.6353232037401573
20
2.3145669291338584
30
0
0
VERTEX
8
0
10
2.6646767962598426
20
2.3145669291338584
30
0
0
VERTEX
8
0
10
2.6854330708661416
20
2.3353232037401574
30
0
0
VERTEX
8
0
10
2.6854330708661416
20
2.342
30
0
0
VERTEX
8
0
10
2.9466862696850393
20
2.342
30
0
0
VERTEX
8
0
10
3.092
20
2.1966862696850393
30
0
0
VERTEX
8
0
10
3.092
20
1.7533137303149606
30
0
0
VERTEX
8
0
10
2.7653336614173227
20
1.4266473917322835
30
0
0
VERTEX
8
0
10
2.7622958907480313
20
1.4296850393700788
30
0
0
VERTEX
8
0
10
2.7377041092519687
20
1.4296850393700788
30
0
0
VERTEX
8
0
10
2.720314960629921
20
1.4122958907480314
30
0
0
VERTEX
8
0
10
2.720314960629921
20
1.3877041092519684
30
0
0
VERTEX
8
0
10
2.7377041092519687
20
1.3703149606299212
30
0
0
VERTEX
8
0
10
2.7622958907480313
20
1.3703149606299212
30
0
0
SEQEND
0
POLYLINE
66
1
8
1_copper
10
0.0
20
0.0
30
0.0
70
1
0
VERTEX
8
0
10
0.628
20
0.38840206692913387
30
0
0
VERTEX
8
0
10
0.628
20
0.4115979330708661
30
0
0
VERTEX
8
0
10
0.6115979330708662
20
0.428
30
0
0
VERTEX
8
0
10
0.5884020669291339
20
0.428
30
0
0
VERTEX
8
0
10
0.572
20
0.4115979330708661
30
0
0
VERTEX
8
0
10
0.572
20
0.38840206692913387
30
0
0
VERTEX
8
0
10
0.5884020669291339
20
0.372
30
0
0
VERTEX
8
0
10
0.6115979330708662
20
0.372
30
0
0
SEQEND
0
POLYLINE
66
1
8
16_copper
10
0.0
20
0.0
30
0.0
70
1
0
VERTEX
8
0
10
2.6854330708661416
20
2.3353232037401574
30
0
0
VERTEX
8
0
10
2.6854330708661416
20
2.3646767962598427
30
0
0
VERTEX
8
0
10
2.6646767962598426
20
2.3854330708661418
30
0
0
VERTEX
8
0
10
2.6353232037401573
20
2.3854330708661418
30
0
0
VERTEX
8
0
10
2.6145669291338582
20
2.3646767962598427
30
0
0
VERTEX
8
0
10
2.6145669291338582
20
2.3353232037401574
30
0
0
VERTEX
8
0
10
2.6353232037401573
20
2.3145669291338584
30
0
0
VERTEX
8
0
10
2.6646767962598426
20
2.3145669291338584
30
0
0
SEQEND
0
POLYLINE
66
1
8
16_copper
10
0.0
20
0.0
30
0.0
70
1
0
VERTEX
8
0
10
1.6503977608267717
20
0.1420349409448819
30
0
42
0.18597604843350257
0
VERTEX
8
0
10
1.6556568651574803
20
0.14434313484251968
30
0
0
VERTEX
8
0
10
1.7556568651574802
20
0.24434313484251968
30
0
42
0.198912367379658
0
VERTEX
8
0
10
1.758
20
0.25
30
0
0
VERTEX
8
0
10
1.758
20
0.3966862696850394
30
0
0
VERTEX
8
0
10
2.7346664616141734
20
1.3733527312992126
30
0
0
VERTEX
8
0
10
2.7377041092519687
20
1.3703149606299212
30
0
0
VERTEX
8
0
10
2.7622958907480313
20
1.3703149606299212
30
0
0
VERTEX
8
0
10
2.779685039370079
20
1.3877041092519684
30
0
0
VERTEX
8
0
10
2.779685039370079
20
1.4122958907480314
30
0
0
VERTEX
8
0
10
2.7622958907480313
20
1.4296850393700788
30
0
0
VERTEX
8
0
10
2.7377041092519687
20
1.4296850393700788
30
0
0
VERTEX
8
0
10
2.720314960629921
20
1.4122958907480314
30
0
0
VERTEX
8
0
10
2.720314960629921
20
1.3877041092519684
30
0
0
VERTEX
8
0
10
2.7233527312992125
20
1.3846664616141733
30
0
0
VERTEX
8
0
10
1.7443431348425198
20
0.40565686515748034
30
0
42
0.198912367379658
0
VERTEX
8
0
10
1.742
20
0.4
30
0
0
VERTEX
8
0
10
1.742
20
0.25331373031496063
30
0
0
VERTEX
8
0
10
1.6466862696850393
20
0.158
30
0
0
VERTEX
8
0
10
0.6533137303149607
20
0.158
30
0
0
VERTEX
8
0
10
0.608
20
0.20331373031496064
30
0
0
VERTEX
8
0
10
0.608
20
0.372
30
0
0
VERTEX
8
0
10
0.6115979330708662
20
0.372
30
0
0
VERTEX
8
0
10
0.628
20
0.38840206692913387
30
0
0
VERTEX
8
0
10
0.628
20
0.4115979330708661
30
0
0
VERTEX
8
0
10
0.6115979330708662
20
0.428
30
0
0
VERTEX
8
0
10
0.5884020669291339
20
0.428
30
0
0
VERTEX
8
0
10
0.572
20
0.4115979330708661
30
0
0
VERTEX
8
0
10
0.572
20
0.38840206692913387
30
0
0
VERTEX
8
0
10
0.5884020669291339
20
0.372
30
0
0
VERTEX
8
0
10
0.592
20
0.372
30
0
0
VERTEX
8
0
10
0.592
20
0.2
30
0
42
0.198912367379658
0
VERTEX
8
0
10
0.5943431348425197
20
0.1943431348425197
30
0
0
VERTEX
8
0
10
0.6443431348425197
20
0.14434313484251968
30
0
42
0.198912367379658
0
VERTEX
8
0
10
0.65
20
0.142
30
0
0
VERTEX
8
0
10
1.65
20
0.142
30
0
0
SEQEND
0
POLYLINE
66
1
8
1_copper
10
0.0
20
0.0
30
0.0
70
1
0
VERTEX
8
0
10
1.4350323572834647
20
0.21700282972440946
30
0
42
0.41302899196029463
0
VERTEX
8
0
10
1.443
20
0.225
30
0
0
VERTEX
8
0
10
1.443
20
0.7816862696850394
30
0
0
VERTEX
8
0
10
1.5533137303149607
20
0.892
30
0
0
VERTEX
8
0
10
1.9
20
0.892
30
0
42
0.198912367379658
0
VERTEX
8
0
10
1.9056568651574803
20
0.8943431348425197
30
0
0
VERTEX
8
0
10
2.1556568651574803
20
1.1443431348425197
30
0
42
0.198912367379658
0
VERTEX
8
0
10
2.158
20
1.15
30
0
0
VERTEX
8
0
10
2.158
20
1.35
30
0
42
0.198912367379658
0
VERTEX
8
0
10
2.1556568651574803
20
1.3556568651574803
30
0
0
VERTEX
8
0
10
2.0556568651574803
20
1.4556568651574804
30
0
42
0.198912367379658
0
VERTEX
8
0
10
2.05
20
1.458
30
0
0
VERTEX
8
0
10
1.85
20
1.458
30
0
42
0.198912367379658
0
VERTEX
8
0
10
1.8443431348425197
20
1.4556568651574804
30
0
0
VERTEX
8
0
10
1.7943431348425196
20
1.4056568651574803
30
0
42
0.198912367379658
0
VERTEX
8
0
10
1.792
20
1.4
30
0
0
VERTEX
8
0
10
1.792
20
1.3781102362204725
30
0
0
VERTEX
8
0
10
1.7718897637795274
20
1.3781102362204725
30
0
0
VERTEX
8
0
10
1.7718897637795274
20
1.3218897637795275
30
0
0
VERTEX
8
0
10
1.8281102362204724
20
1.3218897637795275
30
0
0
VERTEX
8
0
10
1.8281102362204724
20
1.3781102362204725
30
0
0
VERTEX
8
0
10
1.808
20
1.3781102362204725
30
0
0
VERTEX
8
0
10
1.808
20
1.3966862696850393
30
0
0
VERTEX
8
0
10
1.8533137303149607
20
1.442
30
0
0
VERTEX
8
0
10
2.0466862696850394
20
1.442
30
0
0
VERTEX
8
0
10
2.142
20
1.3466862696850395
30
0
0
VERTEX
8
0
10
2.142
20
1.1533137303149605
30
0
0
VERTEX
8
0
10
1.8966862696850393
20
0.908
30
0
0
VERTEX
8
0
10
1.55
20
0.908
30
0
42
0.198912367379658
0
VERTEX
8
0
10
1.5443431348425196
20
0.9056568651574803
30
0
0
VERTEX
8
0
10
1.4293431348425196
20
0.7906568651574803
30
0
42
0.198912367379658
0
VERTEX
8
0
10
1.427
20
0.785
30
0
0
VERTEX
8
0
10
1.427
20
0.233
30
0
0
VERTEX
8
0
10
0.8018885334645669
20
0.233
30
0
0
VERTEX
8
0
10
0.7796850393700787
20
0.2441017470472441
30
0
0
VERTEX
8
0
10
0.7796850393700787
20
0.2622958907480315
30
0
0
VERTEX
8
0
10
0.7622958907480315
20
0.2796850393700787
30
0
0
VERTEX
8
0
10
0.7377041092519685
20
0.2796850393700787
30
0
0
VERTEX
8
0
10
0.7203149606299213
20
0.2622958907480315
30
0
0
VERTEX
8
0
10
0.7203149606299213
20
0.2377041092519685
30
0
0
VERTEX
8
0
10
0.7377041092519685
20
0.22031496062992126
30
0
0
VERTEX
8
0
10
0.7622958907480315
20
0.22031496062992126
30
0
0
VERTEX
8
0
10
0.7720244832677166
20
0.2300435531496063
30
0
0
VERTEX
8
0
10
0.7964222440944881
20
0.21784461122047244
30
0
42
0.11643556419449759
0
VERTEX
8
0
10
0.8
20
0.217
30
0
0
VERTEX
8
0
10
1.435
20
0.217
30
0
0
SEQEND
0
POLYLINE
66
1
8
1_copper
10
0.0
20
0.0
30
0.0
70
1
0
VERTEX
8
0
10
0.828
20
0.38840206692913387
30
0
0
VERTEX
8
0
10
0.828
20
0.4115979330708661
30
0
0
VERTEX
8
0
10
0.8115979330708661
20
0.428
30
0
0
VERTEX
8
0
10
0.7884020669291338
20
0.428
30
0
0
VERTEX
8
0
10
0.772
20
0.4115979330708661
30
0
0
VERTEX
8
0
10
0.772
20
0.38840206692913387
30
0
0
VERTEX
8
0
10
0.7884020669291338
20
0.372
30
0
0
VERTEX
8
0
10
0.8115979330708661
20
0.372
30
0
0
SEQEND
0
POLYLINE
66
1
8
16_copper
10
0.0
20
0.0
30
0.0
70
1
0
VERTEX
8
0
10
1.8281102362204724
20
1.3781102362204725
30
0
0
VERTEX
8
0
10
1.7718897637795274
20
1.3781102362204725
30
0
0
VERTEX
8
0
10
1.7718897637795274
20
1.3218897637795275
30
0
0
VERTEX
8
0
10
1.8281102362204724
20
1.3218897637795275
30
0
0
SEQEND
0
POLYLINE
66
1
8
16_copper
10
0.0
20
0.0
30
0.0
70
1
0
VERTEX
8
0
10
0.7796850393700787
20
0.2377041092519685
30
0
0
VERTEX
8
0
10
0.7796850393700787
20
0.2622958907480315
30
0
0
VERTEX
8
0
10
0.7622958907480315
20
0.2796850393700787
30
0
0
VERTEX
8
0
10
0.758
20
0.2796850393700787
30
0
0
VERTEX
8
0
10
0.758
20
0.29668626968503936
30
0
0
VERTEX
8
0
10
0.8056568651574804
20
0.34434313484251966
30
0
42
0.198912367379658
0
VERTEX
8
0
10
0.808
20
0.35
30
0
0
VERTEX
8
0
10
0.808
20
0.372
30
0
0
VERTEX
8
0
10
0.8115979330708661
20
0.372
30
0
0
VERTEX
8
0
10
0.828
20
0.38840206692913387
30
0
0
VERTEX
8
0
10
0.828
20
0.4115979330708661
30
0
0
VERTEX
8
0
10
0.8115979330708661
20
0.428
30
0
0
VERTEX
8
0
10
0.7884020669291338
20
0.428
30
0
0
VERTEX
8
0
10
0.772
20
0.4115979330708661
30
0
0
VERTEX
8
0
10
0.772
20
0.38840206692913387
30
0
0
VERTEX
8
0
10
0.7884020669291338
20
0.372
30
0
0
VERTEX
8
0
10
0.792
20
0.372
30
0
0
VERTEX
8
0
10
0.792
20
0.3533137303149606
30
0
0
VERTEX
8
0
10
0.7443431348425197
20
0.3056568651574803
30
0
42
0.198912367379658
0
VERTEX
8
0
10
0.742
20
0.3
30
0
0
VERTEX
8
0
10
0.742
20
0.2796850393700787
30
0
0
VERTEX
8
0
10
0.7377041092519685
20
0.2796850393700787
30
0
0
VERTEX
8
0
10
0.7203149606299213
20
0.2622958907480315
30
0
0
VERTEX
8
0
10
0.7203149606299213
20
0.2377041092519685
30
0
0
VERTEX
8
0
10
0.7377041092519685
20
0.22031496062992126
30
0
0
VERTEX
8
0
10
0.7622958907480315
20
0.22031496062992126
30
0
0
SEQEND
0
POLYLINE
66
1
8
1_copper
10
0.0
20
0.0
30
0.0
70
1
0
VERTEX
8
0
10
1.2296850393700787
20
1.5877041092519686
30
0
0
VERTEX
8
0
10
1.2296850393700787
20
1.6122958907480316
30
0
0
VERTEX
8
0
10
1.2122958907480315
20
1.6296850393700788
30
0
0
VERTEX
8
0
10
1.208
20
1.6296850393700788
30
0
0
VERTEX
8
0
10
1.208
20
1.75
30
0
42
0.198912367379658
0
VERTEX
8
0
10
1.2056568651574804
20
1.7556568651574802
30
0
0
VERTEX
8
0
10
1.058
20
1.9033137303149605
30
0
0
VERTEX
8
0
10
1.058
20
2.014566929133858
30
0
0
VERTEX
8
0
10
1.0646767962598425
20
2.014566929133858
30
0
0
VERTEX
8
0
10
1.0854330708661417
20
2.0353232037401576
30
0
0
VERTEX
8
0
10
1.0854330708661417
20
2.0646767962598425
30
0
0
VERTEX
8
0
10
1.0646767962598425
20
2.085433070866142
30
0
0
VERTEX
8
0
10
1.0353232037401574
20
2.085433070866142
30
0
0
VERTEX
8
0
10
1.0145669291338584
20
2.0646767962598425
30
0
0
VERTEX
8
0
10
1.0145669291338584
20
2.0353232037401576
30
0
0
VERTEX
8
0
10
1.0353232037401574
20
2.014566929133858
30
0
0
VERTEX
8
0
10
1.042
20
2.014566929133858
30
0
0
VERTEX
8
0
10
1.042
20
1.9
30
0
42
0.198912367379658
0
VERTEX
8
0
10
1.0443431348425196
20
1.8943431348425197
30
0
0
VERTEX
8
0
10
1.192
20
1.7466862696850394
30
0
0
VERTEX
8
0
10
1.192
20
1.6296850393700788
30
0
0
VERTEX
8
0
10
1.1877041092519685
20
1.6296850393700788
30
0
0
VERTEX
8
0
10
1.1703149606299212
20
1.6122958907480316
30
0
0
VERTEX
8
0
10
1.1703149606299212
20
1.5877041092519686
30
0
0
VERTEX
8
0
10
1.1877041092519685
20
1.5703149606299212
30
0
0
VERTEX
8
0
10
1.2122958907480315
20
1.5703149606299212
30
0
0
SEQEND
0
POLYLINE
66
1
8
1_copper
10
0.0
20
0.0
30
0.0
70
1
0
VERTEX
8
0
10
0.928
20
0.38840206692913387
30
0
0
VERTEX
8
0
10
0.928
20
0.4115979330708661
30
0
0
VERTEX
8
0
10
0.9115979330708661
20
0.428
30
0
0
VERTEX
8
0
10
0.8884020669291338
20
0.428
30
0
0
VERTEX
8
0
10
0.872
20
0.4115979330708661
30
0
0
VERTEX
8
0
10
0.872
20
0.38840206692913387
30
0
0
VERTEX
8
0
10
0.8884020669291338
20
0.372
30
0
0
VERTEX
8
0
10
0.9115979330708661
20
0.372
30
0
0
SEQEND
0
POLYLINE
66
1
8
16_copper
10
0.0
20
0.0
30
0.0
70
1
0
VERTEX
8
0
10
1.0854330708661417
20
2.0353232037401576
30
0
0
VERTEX
8
0
10
1.0854330708661417
20
2.0646767962598425
30
0
0
VERTEX
8
0
10
1.0646767962598425
20
2.085433070866142
30
0
0
VERTEX
8
0
10
1.0353232037401574
20
2.085433070866142
30
0
0
VERTEX
8
0
10
1.0145669291338584
20
2.0646767962598425
30
0
0
VERTEX
8
0
10
1.0145669291338584
20
2.0353232037401576
30
0
0
VERTEX
8
0
10
1.0353232037401574
20
2.014566929133858
30
0
0
VERTEX
8
0
10
1.0646767962598425
20
2.014566929133858
30
0
0
SEQEND
0
POLYLINE
66
1
8
16_copper
10
0.0
20
0.0
30
0.0
70
1
0
VERTEX
8
0
10
1.5503977608267716
20
0.19203494094488188
30
0
42
0.18597604843350257
0
VERTEX
8
0
10
1.5556568651574803
20
0.1943431348425197
30
0
0
VERTEX
8
0
10
1.6556568651574803
20
0.29434313484251967
30
0
42
0.198912367379658
0
VERTEX
8
0
10
1.658
20
0.3
30
0
0
VERTEX
8
0
10
1.658
20
0.4466862696850394
30
0
0
VERTEX
8
0
10
1.8556568651574803
20
0.6443431348425197
30
0
42
0.198912367379658
0
VERTEX
8
0
10
1.858
20
0.65
30
0
0
VERTEX
8
0
10
1.858
20
0.8
30
0
42
0.2759118356506769
0
VERTEX
8
0
10
1.85379281496063
20
0.8070437992125984
30
0
0
VERTEX
8
0
10
1.208
20
1.1547784202755906
30
0
0
VERTEX
8
0
10
1.208
20
1.5703149606299212
30
0
0
VERTEX
8
0
10
1.2122958907480315
20
1.5703149606299212
30
0
0
VERTEX
8
0
10
1.2296850393700787
20
1.5877041092519686
30
0
0
VERTEX
8
0
10
1.2296850393700787
20
1.6122958907480316
30
0
0
VERTEX
8
0
10
1.2122958907480315
20
1.6296850393700788
30
0
0
VERTEX
8
0
10
1.1877041092519685
20
1.6296850393700788
30
0
0
VERTEX
8
0
10
1.1703149606299212
20
1.6122958907480316
30
0
0
VERTEX
8
0
10
1.1703149606299212
20
1.5877041092519686
30
0
0
VERTEX
8
0
10
1.1877041092519685
20
1.5703149606299212
30
0
0
VERTEX
8
0
10
1.192
20
1.5703149606299212
30
0
0
VERTEX
8
0
10
1.192
20
1.15
30
0
42
0.2759118356506769
0
VERTEX
8
0
10
1.19620718503937
20
1.1429562007874017
30
0
0
VERTEX
8
0
10
1.842
20
0.7952215797244094
30
0
0
VERTEX
8
0
10
1.842
20
0.6533137303149607
30
0
0
VERTEX
8
0
10
1.6443431348425197
20
0.45565686515748033
30
0
42
0.198912367379658
0
VERTEX
8
0
10
1.642
20
0.45
30
0
0
VERTEX
8
0
10
1.642
20
0.3033137303149606
30
0
0
VERTEX
8
0
10
1.5466862696850394
20
0.208
30
0
0
VERTEX
8
0
10
1.0533137303149607
20
0.208
30
0
0
VERTEX
8
0
10
0.908
20
0.3533137303149606
30
0
0
VERTEX
8
0
10
0.908
20
0.372
30
0
0
VERTEX
8
0
10
0.9115979330708661
20
0.372
30
0
0
VERTEX
8
0
10
0.928
20
0.38840206692913387
30
0
0
VERTEX
8
0
10
0.928
20
0.4115979330708661
30
0
0
VERTEX
8
0
10
0.9115979330708661
20
0.428
30
0
0
VERTEX
8
0
10
0.8884020669291338
20
0.428
30
0
0
VERTEX
8
0
10
0.872
20
0.4115979330708661
30
0
0
VERTEX
8
0
10
0.872
20
0.38840206692913387
30
0
0
VERTEX
8
0
10
0.8884020669291338
20
0.372
30
0
0
VERTEX
8
0
10
0.892
20
0.372
30
0
0
VERTEX
8
0
10
0.892
20
0.35
30
0
42
0.198912367379658
0
VERTEX
8
0
10
0.8943431348425197
20
0.34434313484251966
30
0
0
VERTEX
8
0
10
1.0443431348425196
20
0.1943431348425197
30
0
42
0.198912367379658
0
VERTEX
8
0
10
1.05
20
0.192
30
0
0
VERTEX
8
0
10
1.55
20
0.192
30
0
0
SEQEND
0
POLYLINE
66
1
8
1_copper
10
0.0
20
0.0
30
0.0
70
1
0
VERTEX
8
0
10
1.6796850393700788
20
0.6877041092519685
30
0
0
VERTEX
8
0
10
1.6796850393700788
20
0.692
30
0
0
VERTEX
8
0
10
1.95
20
0.692
30
0
42
0.198912367379658
0
VERTEX
8
0
10
1.9556568651574804
20
0.6943431348425196
30
0
0
VERTEX
8
0
10
2.3056568651574803
20
1.0443431348425196
30
0
42
0.198912367379658
0
VERTEX
8
0
10
2.308
20
1.05
30
0
0
VERTEX
8
0
10
2.308
20
1.65
30
0
42
0.198912367379658
0
VERTEX
8
0
10
2.3056568651574803
20
1.6556568651574803
30
0
0
VERTEX
8
0
10
1.958
20
2.003313730314961
30
0
0
VERTEX
8
0
10
1.958
20
2.014566929133858
30
0
0
VERTEX
8
0
10
1.9854330708661416
20
2.014566929133858
30
0
0
VERTEX
8
0
10
1.9854330708661416
20
2.042
30
0
0
VERTEX
8
0
10
2.65
20
2.042
30
0
42
0.41421356237309503
0
VERTEX
8
0
10
2.658
20
2.05
30
0
0
VERTEX
8
0
10
2.658
20
2.1145669291338582
30
0
0
VERTEX
8
0
10
2.6646767962598426
20
2.1145669291338582
30
0
0
VERTEX
8
0
10
2.6854330708661416
20
2.1353232037401573
30
0
0
VERTEX
8
0
10
2.6854330708661416
20
2.1646767962598426
30
0
0
VERTEX
8
0
10
2.6646767962598426
20
2.1854330708661416
30
0
0
VERTEX
8
0
10
2.6353232037401573
20
2.1854330708661416
30
0
0
VERTEX
8
0
10
2.6145669291338582
20
2.1646767962598426
30
0
0
VERTEX
8
0
10
2.6145669291338582
20
2.1353232037401573
30
0
0
VERTEX
8
0
10
2.6353232037401573
20
2.1145669291338582
30
0
0
VERTEX
8
0
10
2.642
20
2.1145669291338582
30
0
0
VERTEX
8
0
10
2.642
20
2.058
30
0
0
VERTEX
8
0
10
1.9854330708661416
20
2.058
30
0
0
VERTEX
8
0
10
1.9854330708661416
20
2.085433070866142
30
0
0
VERTEX
8
0
10
1.9145669291338583
20
2.085433070866142
30
0
0
VERTEX
8
0
10
1.9145669291338583
20
2.058
30
0
0
VERTEX
8
0
10
1.8033137303149607
20
2.058
30
0
0
VERTEX
8
0
10
1.758
20
2.1033137303149605
30
0
0
VERTEX
8
0
10
1.758
20
2.1145669291338582
30
0
0
VERTEX
8
0
10
1.7646767962598424
20
2.1145669291338582
30
0
0
VERTEX
8
0
10
1.7854330708661417
20
2.1353232037401573
30
0
0
VERTEX
8
0
10
1.7854330708661417
20
2.1646767962598426
30
0
0
VERTEX
8
0
10
1.7807118602362204
20
2.1693981299212597
30
0
0
VERTEX
8
0
10
1.8556568651574803
20
2.2443431348425196
30
0
42
0.198912367379658
0
VERTEX
8
0
10
1.858
20
2.25
30
0
0
VERTEX
8
0
10
1.858
20
2.4
30
0
42
0.1480698288300764
0
VERTEX
8
0
10
1.856656373031496
20
2.404437623031496
30
0
0
VERTEX
8
0
10
1.758
20
2.552422244094488
30
0
0
VERTEX
8
0
10
1.758
20
3.014566929133858
30
0
0
VERTEX
8
0
10
1.7646767962598424
20
3.014566929133858
30
0
0
VERTEX
8
0
10
1.7854330708661417
20
3.0353232037401576
30
0
0
VERTEX
8
0
10
1.7854330708661417
20
3.0646767962598425
30
0
0
VERTEX
8
0
10
1.7646767962598424
20
3.085433070866142
30
0
0
VERTEX
8
0
10
1.7353232037401576
20
3.085433070866142
30
0
0
VERTEX
8
0
10
1.7145669291338583
20
3.0646767962598425
30
0
0
VERTEX
8
0
10
1.7145669291338583
20
3.058
30
0
0
VERTEX
8
0
10
1.35
20
3.058
30
0
42
0.198912367379658
0
VERTEX
8
0
10
1.3443431348425197
20
3.0556568651574803
30
0
0
VERTEX
8
0
10
0.7443431348425197
20
2.45565686515748
30
0
42
0.198912367379658
0
VERTEX
8
0
10
0.742
20
2.45
30
0
0
VERTEX
8
0
10
0.742
20
2.2854330708661417
30
0
0
VERTEX
8
0
10
0.7353232037401575
20
2.2854330708661417
30
0
0
VERTEX
8
0
10
0.7145669291338582
20
2.2646767962598426
30
0
0
VERTEX
8
0
10
0.7145669291338582
20
2.2353232037401574
30
0
0
VERTEX
8
0
10
0.7353232037401575
20
2.2145669291338583
30
0
0
VERTEX
8
0
10
0.7646767962598425
20
2.2145669291338583
30
0
0
VERTEX
8
0
10
0.7854330708661418
20
2.2353232037401574
30
0
0
VERTEX
8
0
10
0.7854330708661418
20
2.2646767962598426
30
0
0
VERTEX
8
0
10
0.7646767962598425
20
2.2854330708661417
30
0
0
VERTEX
8
0
10
0.758
20
2.2854330708661417
30
0
0
VERTEX
8
0
10
0.758
20
2.4466862696850393
30
0
0
VERTEX
8
0
10
1.3533137303149607
20
3.042
30
0
0
VERTEX
8
0
10
1.7145669291338583
20
3.042
30
0
0
VERTEX
8
0
10
1.7145669291338583
20
3.0353232037401576
30
0
0
VERTEX
8
0
10
1.7353232037401576
20
3.014566929133858
30
0
0
VERTEX
8
0
10
1.742
20
3.014566929133858
30
0
0
VERTEX
8
0
10
1.742
20
2.55
30
0
42
0.1480698288300764
0
VERTEX
8
0
10
1.7433436269685039
20
2.545562376968504
30
0
0
VERTEX
8
0
10
1.842
20
2.3975778789370077
30
0
0
VERTEX
8
0
10
1.842
20
2.253313730314961
30
0
0
VERTEX
8
0
10
1.7693981299212598
20
2.1807118602362205
30
0
0
VERTEX
8
0
10
1.7646767962598424
20
2.1854330708661416
30
0
0
VERTEX
8
0
10
1.7353232037401576
20
2.1854330708661416
30
0
0
VERTEX
8
0
10
1.7145669291338583
20
2.1646767962598426
30
0
0
VERTEX
8
0
10
1.7145669291338583
20
2.1353232037401573
30
0
0
VERTEX
8
0
10
1.7353232037401576
20
2.1145669291338582
30
0
0
VERTEX
8
0
10
1.742
20
2.1145669291338582
30
0
0
VERTEX
8
0
10
1.742
20
2.1
30
0
42
0.198912367379658
0
VERTEX
8
0
10
1.7443431348425198
20
2.0943431348425197
30
0
0
VERTEX
8
0
10
1.7943431348425196
20
2.04434313484252
30
0
42
0.198912367379658
0
VERTEX
8
0
10
1.8
20
2.042
30
0
0
VERTEX
8
0
10
1.9145669291338583
20
2.042
30
0
0
VERTEX
8
0
10
1.9145669291338583
20
2.014566929133858
30
0
0
VERTEX
8
0
10
1.942
20
2.014566929133858
30
0
0
VERTEX
8
0
10
1.942
20
2
30
0
42
0.198912367379658
0
VERTEX
8
0
10
1.9443431348425197
20
1.9943431348425198
30
0
0
VERTEX
8
0
10
2.292
20
1.6466862696850393
30
0
0
VERTEX
8
0
10
2.292
20
1.0533137303149607
30
0
0
VERTEX
8
0
10
1.9466862696850393
20
0.708
30
0
0
VERTEX
8
0
10
1.6796850393700788
20
0.708
30
0
0
VERTEX
8
0
10
1.6796850393700788
20
0.7122958907480315
30
0
0
VERTEX
8
0
10
1.6622958907480314
20
0.7296850393700788
30
0
0
VERTEX
8
0
10
1.6377041092519684
20
0.7296850393700788
30
0
0
VERTEX
8
0
10
1.6203149606299212
20
0.7122958907480315
30
0
0
VERTEX
8
0
10
1.6203149606299212
20
0.6877041092519685
30
0
0
VERTEX
8
0
10
1.6377041092519684
20
0.6703149606299212
30
0
0
VERTEX
8
0
10
1.6622958907480314
20
0.6703149606299212
30
0
0
SEQEND
0
POLYLINE
66
1
8
1_copper
10
0.0
20
0.0
30
0.0
70
1
0
VERTEX
8
0
10
1.028
20
0.38840206692913387
30
0
0
VERTEX
8
0
10
1.028
20
0.4115979330708661
30
0
0
VERTEX
8
0
10
1.0115979330708662
20
0.428
30
0
0
VERTEX
8
0
10
0.9884020669291339
20
0.428
30
0
0
VERTEX
8
0
10
0.972
20
0.4115979330708661
30
0
0
VERTEX
8
0
10
0.972
20
0.38840206692913387
30
0
0
VERTEX
8
0
10
0.9884020669291339
20
0.372
30
0
0
VERTEX
8
0
10
1.0115979330708662
20
0.372
30
0
0
SEQEND
0
POLYLINE
66
1
8
16_copper
10
0.0
20
0.0
30
0.0
70
1
0
VERTEX
8
0
10
1.7854330708661417
20
3.0353232037401576
30
0
0
VERTEX
8
0
10
1.7854330708661417
20
3.0646767962598425
30
0
0
VERTEX
8
0
10
1.7646767962598424
20
3.085433070866142
30
0
0
VERTEX
8
0
10
1.7353232037401576
20
3.085433070866142
30
0
0
VERTEX
8
0
10
1.7145669291338583
20
3.0646767962598425
30
0
0
VERTEX
8
0
10
1.7145669291338583
20
3.0353232037401576
30
0
0
VERTEX
8
0
10
1.7353232037401576
20
3.014566929133858
30
0
0
VERTEX
8
0
10
1.7646767962598424
20
3.014566929133858
30
0
0
SEQEND
0
POLYLINE
66
1
8
16_copper
10
0.0
20
0.0
30
0.0
70
1
0
VERTEX
8
0
10
0.7854330708661418
20
2.2353232037401574
30
0
0
VERTEX
8
0
10
0.7854330708661418
20
2.2646767962598426
30
0
0
VERTEX
8
0
10
0.7646767962598425
20
2.2854330708661417
30
0
0
VERTEX
8
0
10
0.7353232037401575
20
2.2854330708661417
30
0
0
VERTEX
8
0
10
0.7145669291338582
20
2.2646767962598426
30
0
0
VERTEX
8
0
10
0.7145669291338582
20
2.2353232037401574
30
0
0
VERTEX
8
0
10
0.7353232037401575
20
2.2145669291338583
30
0
0
VERTEX
8
0
10
0.7646767962598425
20
2.2145669291338583
30
0
0
SEQEND
0
POLYLINE
66
1
8
16_copper
10
0.0
20
0.0
30
0.0
70
1
0
VERTEX
8
0
10
1.7854330708661417
20
2.1353232037401573
30
0
0
VERTEX
8
0
10
1.7854330708661417
20
2.1646767962598426
30
0
0
VERTEX
8
0
10
1.7646767962598424
20
2.1854330708661416
30
0
0
VERTEX
8
0
10
1.7353232037401576
20
2.1854330708661416
30
0
0
VERTEX
8
0
10
1.7145669291338583
20
2.1646767962598426
30
0
0
VERTEX
8
0
10
1.7145669291338583
20
2.1353232037401573
30
0
0
VERTEX
8
0
10
1.7353232037401576
20
2.1145669291338582
30
0
0
VERTEX
8
0
10
1.7646767962598424
20
2.1145669291338582
30
0
0
SEQEND
0
POLYLINE
66
1
8
16_copper
10
0.0
20
0.0
30
0.0
70
1
0
VERTEX
8
0
10
2.6854330708661416
20
2.1353232037401573
30
0
0
VERTEX
8
0
10
2.6854330708661416
20
2.1646767962598426
30
0
0
VERTEX
8
0
10
2.6646767962598426
20
2.1854330708661416
30
0
0
VERTEX
8
0
10
2.6353232037401573
20
2.1854330708661416
30
0
0
VERTEX
8
0
10
2.6145669291338582
20
2.1646767962598426
30
0
0
VERTEX
8
0
10
2.6145669291338582
20
2.1353232037401573
30
0
0
VERTEX
8
0
10
2.6353232037401573
20
2.1145669291338582
30
0
0
VERTEX
8
0
10
2.6646767962598426
20
2.1145669291338582
30
0
0
SEQEND
0
POLYLINE
66
1
8
16_copper
10
0.0
20
0.0
30
0.0
70
1
0
VERTEX
8
0
10
1.9854330708661416
20
2.085433070866142
30
0
0
VERTEX
8
0
10
1.9145669291338583
20
2.085433070866142
30
0
0
VERTEX
8
0
10
1.9145669291338583
20
2.014566929133858
30
0
0
VERTEX
8
0
10
1.9854330708661416
20
2.014566929133858
30
0
0
SEQEND
0
POLYLINE
66
1
8
16_copper
10
0.0
20
0.0
30
0.0
70
1
0
VERTEX
8
0
10
1.4503977608267717
20
0.2420349409448819
30
0
42
0.18597604843350257
0
VERTEX
8
0
10
1.4556568651574804
20
0.24434313484251968
30
0
0
VERTEX
8
0
10
1.5556568651574803
20
0.34434313484251966
30
0
42
0.198912367379658
0
VERTEX
8
0
10
1.558
20
0.35
30
0
0
VERTEX
8
0
10
1.558
20
0.5966862696850393
30
0
0
VERTEX
8
0
10
1.6346664616141733
20
0.6733527312992126
30
0
0
VERTEX
8
0
10
1.6377041092519684
20
0.6703149606299212
30
0
0
VERTEX
8
0
10
1.6622958907480314
20
0.6703149606299212
30
0
0
VERTEX
8
0
10
1.6796850393700788
20
0.6877041092519685
30
0
0
VERTEX
8
0
10
1.6796850393700788
20
0.7122958907480315
30
0
0
VERTEX
8
0
10
1.6622958907480314
20
0.7296850393700788
30
0
0
VERTEX
8
0
10
1.6377041092519684
20
0.7296850393700788
30
0
0
VERTEX
8
0
10
1.6203149606299212
20
0.7122958907480315
30
0
0
VERTEX
8
0
10
1.6203149606299212
20
0.6877041092519685
30
0
0
VERTEX
8
0
10
1.6233527312992126
20
0.6846664616141732
30
0
0
VERTEX
8
0
10
1.5443431348425196
20
0.6056568651574803
30
0
42
0.198912367379658
0
VERTEX
8
0
10
1.542
20
0.6
30
0
0
VERTEX
8
0
10
1.542
20
0.3533137303149606
30
0
0
VERTEX
8
0
10
1.4466862696850393
20
0.258
30
0
0
VERTEX
8
0
10
1.1033137303149607
20
0.258
30
0
0
VERTEX
8
0
10
1.008
20
0.3533137303149606
30
0
0
VERTEX
8
0
10
1.008
20
0.372
30
0
0
VERTEX
8
0
10
1.0115979330708662
20
0.372
30
0
0
VERTEX
8
0
10
1.028
20
0.38840206692913387
30
0
0
VERTEX
8
0
10
1.028
20
0.4115979330708661
30
0
0
VERTEX
8
0
10
1.0115979330708662
20
0.428
30
0
0
VERTEX
8
0
10
0.9884020669291339
20
0.428
30
0
0
VERTEX
8
0
10
0.972
20
0.4115979330708661
30
0
0
VERTEX
8
0
10
0.972
20
0.38840206692913387
30
0
0
VERTEX
8
0
10
0.9884020669291339
20
0.372
30
0
0
VERTEX
8
0
10
0.992
20
0.372
30
0
0
VERTEX
8
0
10
0.992
20
0.35
30
0
42
0.198912367379658
0
VERTEX
8
0
10
0.9943431348425197
20
0.34434313484251966
30
0
0
VERTEX
8
0
10
1.0943431348425197
20
0.24434313484251968
30
0
42
0.198912367379658
0
VERTEX
8
0
10
1.1
20
0.242
30
0
0
VERTEX
8
0
10
1.45
20
0.242
30
0
0
SEQEND
0
POLYLINE
66
1
8
1_copper
10
0.0
20
0.0
30
0.0
70
1
0
VERTEX
8
0
10
1.2796850393700787
20
0.8377041092519685
30
0
0
VERTEX
8
0
10
1.2796850393700787
20
0.8622958907480315
30
0
0
VERTEX
8
0
10
1.2622958907480315
20
0.8796850393700787
30
0
0
VERTEX
8
0
10
1.258
20
0.8796850393700787
30
0
0
VERTEX
8
0
10
1.258
20
0.8966862696850394
30
0
0
VERTEX
8
0
10
1.3133137303149607
20
0.952
30
0
0
VERTEX
8
0
10
1.6363779527559055
20
0.952
30
0
42
0.198912367379658
0
VERTEX
8
0
10
1.642034817913386
20
0.9543431348425196
30
0
0
VERTEX
8
0
10
1.8056568651574803
20
1.117965182086614
30
0
42
0.198912367379658
0
VERTEX
8
0
10
1.808
20
1.1236220472440945
30
0
0
VERTEX
8
0
10
1.808
20
1.195511811023622
30
0
0
VERTEX
8
0
10
1.8116435777559055
20
1.195511811023622
30
0
0
VERTEX
8
0
10
1.8281102362204724
20
1.211978469488189
30
0
0
VERTEX
8
0
10
1.8281102362204724
20
1.235265625
30
0
0
VERTEX
8
0
10
1.8116435777559055
20
1.251732283464567
30
0
0
VERTEX
8
0
10
1.7883564222440944
20
1.251732283464567
30
0
0
VERTEX
8
0
10
1.7718897637795274
20
1.235265625
30
0
0
VERTEX
8
0
10
1.7718897637795274
20
1.211978469488189
30
0
0
VERTEX
8
0
10
1.7883564222440944
20
1.195511811023622
30
0
0
VERTEX
8
0
10
1.792
20
1.195511811023622
30
0
0
VERTEX
8
0
10
1.792
20
1.1269357775590552
30
0
0
VERTEX
8
0
10
1.6330642224409448
20
0.968
30
0
0
VERTEX
8
0
10
1.31
20
0.968
30
0
42
0.198912367379658
0
VERTEX
8
0
10
1.3043431348425196
20
0.9656568651574803
30
0
0
VERTEX
8
0
10
1.2443431348425198
20
0.9056568651574803
30
0
42
0.198912367379658
0
VERTEX
8
0
10
1.242
20
0.9
30
0
0
VERTEX
8
0
10
1.242
20
0.8796850393700787
30
0
0
VERTEX
8
0
10
1.2377041092519685
20
0.8796850393700787
30
0
0
VERTEX
8
0
10
1.2203149606299213
20
0.8622958907480315
30
0
0
VERTEX
8
0
10
1.2203149606299213
20
0.8377041092519685
30
0
0
VERTEX
8
0
10
1.2377041092519685
20
0.8203149606299213
30
0
0
VERTEX
8
0
10
1.2622958907480315
20
0.8203149606299213
30
0
0
SEQEND
0
POLYLINE
66
1
8
1_copper
10
0.0
20
0.0
30
0.0
70
1
0
VERTEX
8
0
10
1.128
20
0.38840206692913387
30
0
0
VERTEX
8
0
10
1.128
20
0.4115979330708661
30
0
0
VERTEX
8
0
10
1.111597933070866
20
0.428
30
0
0
VERTEX
8
0
10
1.0884020669291339
20
0.428
30
0
0
VERTEX
8
0
10
1.072
20
0.4115979330708661
30
0
0
VERTEX
8
0
10
1.072
20
0.38840206692913387
30
0
0
VERTEX
8
0
10
1.0884020669291339
20
0.372
30
0
0
VERTEX
8
0
10
1.111597933070866
20
0.372
30
0
0
SEQEND
0
POLYLINE
66
1
8
16_copper
10
0.0
20
0.0
30
0.0
70
1
0
VERTEX
8
0
10
1.8281102362204724
20
1.211978469488189
30
0
0
VERTEX
8
0
10
1.8281102362204724
20
1.235265625
30
0
0
VERTEX
8
0
10
1.8116435777559055
20
1.251732283464567
30
0
0
VERTEX
8
0
10
1.7883564222440944
20
1.251732283464567
30
0
0
VERTEX
8
0
10
1.7718897637795274
20
1.235265625
30
0
0
VERTEX
8
0
10
1.7718897637795274
20
1.211978469488189
30
0
0
VERTEX
8
0
10
1.7883564222440944
20
1.195511811023622
30
0
0
VERTEX
8
0
10
1.8116435777559055
20
1.195511811023622
30
0
0
SEQEND
0
POLYLINE
66
1
8
16_copper
10
0.0
20
0.0
30
0.0
70
1
0
VERTEX
8
0
10
1.3503977608267717
20
0.2920349409448819
30
0
42
0.18597604843350257
0
VERTEX
8
0
10
1.3556568651574803
20
0.29434313484251967
30
0
0
VERTEX
8
0
10
1.4056568651574803
20
0.34434313484251966
30
0
42
0.198912367379658
0
VERTEX
8
0
10
1.408
20
0.35
30
0
0
VERTEX
8
0
10
1.408
20
0.6
30
0
42
0.198912367379658
0
VERTEX
8
0
10
1.4056568651574803
20
0.6056568651574803
30
0
0
VERTEX
8
0
10
1.258
20
0.7533137303149606
30
0
0
VERTEX
8
0
10
1.258
20
0.8203149606299213
30
0
0
VERTEX
8
0
10
1.2622958907480315
20
0.8203149606299213
30
0
0
VERTEX
8
0
10
1.2796850393700787
20
0.8377041092519685
30
0
0
VERTEX
8
0
10
1.2796850393700787
20
0.8622958907480315
30
0
0
VERTEX
8
0
10
1.2622958907480315
20
0.8796850393700787
30
0
0
VERTEX
8
0
10
1.2377041092519685
20
0.8796850393700787
30
0
0
VERTEX
8
0
10
1.2203149606299213
20
0.8622958907480315
30
0
0
VERTEX
8
0
10
1.2203149606299213
20
0.8377041092519685
30
0
0
VERTEX
8
0
10
1.2377041092519685
20
0.8203149606299213
30
0
0
VERTEX
8
0
10
1.242
20
0.8203149606299213
30
0
0
VERTEX
8
0
10
1.242
20
0.75
30
0
42
0.198912367379658
0
VERTEX
8
0
10
1.2443431348425198
20
0.7443431348425197
30
0
0
VERTEX
8
0
10
1.392
20
0.5966862696850393
30
0
0
VERTEX
8
0
10
1.392
20
0.3533137303149606
30
0
0
VERTEX
8
0
10
1.3466862696850395
20
0.308
30
0
0
VERTEX
8
0
10
1.1533137303149605
20
0.308
30
0
0
VERTEX
8
0
10
1.108
20
0.3533137303149606
30
0
0
VERTEX
8
0
10
1.108
20
0.372
30
0
0
VERTEX
8
0
10
1.111597933070866
20
0.372
30
0
0
VERTEX
8
0
10
1.128
20
0.38840206692913387
30
0
0
VERTEX
8
0
10
1.128
20
0.4115979330708661
30
0
0
VERTEX
8
0
10
1.111597933070866
20
0.428
30
0
0
VERTEX
8
0
10
1.0884020669291339
20
0.428
30
0
0
VERTEX
8
0
10
1.072
20
0.4115979330708661
30
0
0
VERTEX
8
0
10
1.072
20
0.38840206692913387
30
0
0
VERTEX
8
0
10
1.0884020669291339
20
0.372
30
0
0
VERTEX
8
0
10
1.092
20
0.372
30
0
0
VERTEX
8
0
10
1.092
20
0.35
30
0
42
0.198912367379658
0
VERTEX
8
0
10
1.0943431348425197
20
0.34434313484251966
30
0
0
VERTEX
8
0
10
1.1443431348425197
20
0.29434313484251967
30
0
42
0.198912367379658
0
VERTEX
8
0
10
1.15
20
0.292
30
0
0
VERTEX
8
0
10
1.35
20
0.292
30
0
0
SEQEND
0
CIRCLE
8
drills_NPTH
10
3.45
20
3.53
30
0
40
0.05600393700787402
0
CIRCLE
8
drills_NPTH
10
-0.05
20
0.9
30
0
40
0.05600393700787402
0
CIRCLE
8
drills_NPTH
10
0.1
20
3.53
30
0
40
0.05600393700787402
0
CIRCLE
8
drills_NPTH
10
3.45
20
0.25
30
0
40
0.05600393700787402
0
CIRCLE
8
drills_PTH
10
1.513779527559055
20
1.243503937007874
30
0
40
0.045275590551181105
0
CIRCLE
8
drills_PTH
10
1.9877952755905512
20
1.243503937007874
30
0
40
0.045275590551181105
0
CIRCLE
8
drills_PTH
10
2.45
20
3.3
30
0
40
0.0295
0
CIRCLE
8
drills_PTH
10
2.45
20
3
30
0
40
0.0295
0
CIRCLE
8
drills_PTH
10
3.05
20
3
30
0
40
0.0295
0
CIRCLE
8
drills_PTH
10
3.05
20
3.3
30
0
40
0.0295
0
CIRCLE
8
drills_PTH
10
1.95
20
2.25
30
0
40
0.023622047244094488
0
CIRCLE
8
drills_PTH
10
2.65
20
2.35
30
0
40
0.023622047244094488
0
CIRCLE
8
drills_PTH
10
2.65
20
2.15
30
0
40
0.023622047244094488
0
CIRCLE
8
drills_PTH
10
2.85
20
2.45
30
0
40
0.023622047244094488
0
CIRCLE
8
drills_PTH
10
2.85
20
2.25
30
0
40
0.023622047244094488
0
CIRCLE
8
drills_PTH
10
2.85
20
2.05
30
0
40
0.023622047244094488
0
CIRCLE
8
drills_PTH
10
1.75
20
2.15
30
0
40
0.023622047244094488
0
CIRCLE
8
drills_PTH
10
1.95
20
2.45
30
0
40
0.023622047244094488
0
CIRCLE
8
drills_PTH
10
1.95
20
2.95
30
0
40
0.023622047244094488
0
CIRCLE
8
drills_PTH
10
1.95
20
3.15
30
0
40
0.023622047244094488
0
CIRCLE
8
drills_PTH
10
1.95
20
3.35
30
0
40
0.023622047244094488
0
CIRCLE
8
drills_PTH
10
1.75
20
3.05
30
0
40
0.023622047244094488
0
CIRCLE
8
drills_PTH
10
1.75
20
3.25
30
0
40
0.023622047244094488
0
CIRCLE
8
drills_PTH
10
0.65
20
2.05
30
0
40
0.023622047244094488
0
CIRCLE
8
drills_PTH
10
0.85
20
2.05
30
0
40
0.023622047244094488
0
CIRCLE
8
drills_PTH
10
1.05
20
2.05
30
0
40
0.023622047244094488
0
CIRCLE
8
drills_PTH
10
0.75
20
2.25
30
0
40
0.023622047244094488
0
CIRCLE
8
drills_PTH
10
0.95
20
2.25
30
0
40
0.023622047244094488
0
CIRCLE
8
drills_PTH
10
1.95
20
2.05
30
0
40
0.023622047244094488
0
CIRCLE
8
drills_PTH
10
1.75
20
2.35
30
0
40
0.023622047244094488
0
CIRCLE
8
drills_PTH
10
2.2
20
0.3
30
0
40
0.02
0
CIRCLE
8
drills_PTH
10
2.1
20
0.3
30
0
40
0.02
0
CIRCLE
8
drills_PTH
10
2.855
20
0.3
30
0
40
0.02
0
CIRCLE
8
drills_PTH
10
2.955
20
0.3
30
0
40
0.02
0
CIRCLE
8
drills_PTH
10
0.5
20
0.85
30
0
40
0.01968503937007874
0
CIRCLE
8
drills_PTH
10
0.2
20
0.85
30
0
40
0.01968503937007874
0
CIRCLE
8
drills_PTH
10
2.55
20
0.95
30
0
40
0.01968503937007874
0
CIRCLE
8
drills_PTH
10
2.5
20
1.8
30
0
40
0.01968503937007874
0
CIRCLE
8
drills_PTH
10
2.75
20
1.4
30
0
40
0.01968503937007874
0
CIRCLE
8
drills_PTH
10
0.65
20
0.85
30
0
40
0.01968503937007874
0
CIRCLE
8
drills_PTH
10
0.75
20
0.25
30
0
40
0.01968503937007874
0
CIRCLE
8
drills_PTH
10
0.8
20
0.85
30
0
40
0.01968503937007874
0
CIRCLE
8
drills_PTH
10
1.2
20
1.6
30
0
40
0.01968503937007874
0
CIRCLE
8
drills_PTH
10
0.95
20
0.85
30
0
40
0.01968503937007874
0
CIRCLE
8
drills_PTH
10
1.65
20
0.7
30
0
40
0.01968503937007874
0
CIRCLE
8
drills_PTH
10
1.1
20
0.85
30
0
40
0.01968503937007874
0
CIRCLE
8
drills_PTH
10
1.25
20
0.85
30
0
40
0.01968503937007874
0
CIRCLE
8
drills_PTH
10
1.7015748031496063
20
1.2236220472440944
30
0
40
0.01811023622047244
0
CIRCLE
8
drills_PTH
10
1.7015748031496063
20
1.35
30
0
40
0.01811023622047244
0
CIRCLE
8
drills_PTH
10
1.8
20
1.35
30
0
40
0.01811023622047244
0
CIRCLE
8
drills_PTH
10
1.8
20
1.2236220472440944
30
0
40
0.01811023622047244
0
CIRCLE
8
drills_PTH
10
0.7
20
0.4
30
0
40
0.018
0
CIRCLE
8
drills_PTH
10
0.6
20
0.4
30
0
40
0.018
0
CIRCLE
8
drills_PTH
10
0.6
20
0.5
30
0
40
0.018
0
CIRCLE
8
drills_PTH
10
0.5
20
0.4
30
0
40
0.018
0
CIRCLE
8
drills_PTH
10
0.5
20
0.5
30
0
40
0.018
0
CIRCLE
8
drills_PTH
10
1.2
20
0.4
30
0
40
0.018
0
CIRCLE
8
drills_PTH
10
1.2
20
0.5
30
0
40
0.018
0
CIRCLE
8
drills_PTH
10
1.1
20
0.4
30
0
40
0.018
0
CIRCLE
8
drills_PTH
10
1.1
20
0.5
30
0
40
0.018
0
CIRCLE
8
drills_PTH
10
1
20
0.4
30
0
40
0.018
0
CIRCLE
8
drills_PTH
10
0.7
20
0.5
30
0
40
0.018
0
CIRCLE
8
drills_PTH
10
1
20
0.5
30
0
40
0.018
0
CIRCLE
8
drills_PTH
10
0.9
20
0.4
30
0
40
0.018
0
CIRCLE
8
drills_PTH
10
0.9
20
0.5
30
0
40
0.018
0
CIRCLE
8
drills_PTH
10
0.8
20
0.4
30
0
40
0.018
0
CIRCLE
8
drills_PTH
10
0.8
20
0.5
30
0
40
0.018
0
ENDSEC
0
EOF