G04 EAGLE Gerber RS-274X export*
G75*
%MOIN*%
%FSLAX34Y34*%
%LPD*%
%INTop Copper*%
%IPPOS*%
%AMOC8*
5,1,8,0,0,1.08239X$1,22.5*%
G01*
%ADD10C,0.005118*%
%ADD11C,0.006000*%
%ADD12C,0.060000*%
%ADD13C,0.051496*%
%ADD14C,0.070000*%
%ADD15P,0.056284X8X82.500000*%
%ADD16P,0.056284X8X97.500000*%
%ADD17P,0.056284X8X22.500000*%
%ADD18P,0.056284X8X292.500000*%
%ADD19P,0.056284X8X137.500000*%
%ADD20P,0.056284X8X112.500000*%
%ADD21P,0.064943X8X22.500000*%
%ADD22P,0.056284X8X257.500000*%
%ADD23P,0.056284X8X77.500000*%
%ADD24C,0.052000*%
%ADD25P,0.056284X8X307.500000*%
%ADD26C,0.088500*%
%ADD27C,0.056000*%
%ADD28P,0.060614X8X292.500000*%
%ADD29C,0.016000*%
%ADD30C,0.050000*%


D10*
X0Y46500D02*
X0Y48268D01*
X32500Y48268D02*
X32500Y46500D01*
X32474Y47500D02*
X26Y47500D01*
X1024Y47626D01*
X1024Y47374D01*
X26Y47500D01*
X1024Y47551D01*
X1024Y47449D02*
X26Y47500D01*
X1024Y47602D01*
X1024Y47398D02*
X26Y47500D01*
X31476Y47626D02*
X32474Y47500D01*
X31476Y47626D02*
X31476Y47374D01*
X32474Y47500D01*
X31476Y47551D01*
X31476Y47449D02*
X32474Y47500D01*
X31476Y47602D01*
X31476Y47398D02*
X32474Y47500D01*
D11*
X15481Y47756D02*
X15303Y47756D01*
X15481Y47756D02*
X15506Y47758D01*
X15531Y47763D01*
X15555Y47772D01*
X15577Y47784D01*
X15598Y47799D01*
X15616Y47817D01*
X15631Y47838D01*
X15643Y47860D01*
X15652Y47884D01*
X15657Y47909D01*
X15659Y47934D01*
X15657Y47959D01*
X15652Y47984D01*
X15643Y48008D01*
X15631Y48030D01*
X15616Y48051D01*
X15598Y48069D01*
X15577Y48084D01*
X15555Y48096D01*
X15531Y48105D01*
X15506Y48110D01*
X15481Y48112D01*
X15516Y48396D02*
X15303Y48396D01*
X15516Y48396D02*
X15538Y48394D01*
X15560Y48389D01*
X15580Y48381D01*
X15599Y48369D01*
X15616Y48354D01*
X15631Y48337D01*
X15643Y48318D01*
X15651Y48298D01*
X15656Y48276D01*
X15658Y48254D01*
X15656Y48232D01*
X15651Y48210D01*
X15643Y48190D01*
X15631Y48171D01*
X15616Y48154D01*
X15599Y48139D01*
X15580Y48127D01*
X15560Y48119D01*
X15538Y48114D01*
X15516Y48112D01*
X15374Y48112D01*
X15894Y47792D02*
X15894Y47756D01*
X15894Y47792D02*
X15929Y47792D01*
X15929Y47756D01*
X15894Y47756D01*
X16520Y48236D02*
X16518Y48259D01*
X16514Y48281D01*
X16506Y48302D01*
X16495Y48323D01*
X16481Y48341D01*
X16465Y48357D01*
X16447Y48371D01*
X16426Y48382D01*
X16405Y48390D01*
X16383Y48394D01*
X16360Y48396D01*
X16360Y48397D02*
X16334Y48395D01*
X16309Y48391D01*
X16284Y48383D01*
X16261Y48371D01*
X16239Y48358D01*
X16219Y48341D01*
X16201Y48322D01*
X16186Y48301D01*
X16174Y48279D01*
X16164Y48254D01*
X16467Y48111D02*
X16482Y48129D01*
X16496Y48148D01*
X16506Y48168D01*
X16514Y48190D01*
X16518Y48213D01*
X16520Y48236D01*
X16467Y48112D02*
X16165Y47756D01*
X16520Y47756D01*
X16780Y47756D02*
X16993Y47756D01*
X17015Y47758D01*
X17037Y47763D01*
X17057Y47771D01*
X17076Y47783D01*
X17093Y47798D01*
X17108Y47815D01*
X17120Y47834D01*
X17128Y47854D01*
X17133Y47876D01*
X17135Y47898D01*
X17136Y47898D02*
X17136Y47970D01*
X17135Y47970D02*
X17133Y47992D01*
X17128Y48014D01*
X17120Y48034D01*
X17108Y48053D01*
X17093Y48070D01*
X17076Y48085D01*
X17057Y48097D01*
X17037Y48105D01*
X17015Y48110D01*
X16993Y48112D01*
X16780Y48112D01*
X16780Y48396D01*
X17136Y48396D01*
D10*
X-3000Y0D02*
X-4268Y0D01*
X-4268Y38000D02*
X-3000Y38000D01*
X-3500Y37974D02*
X-3500Y26D01*
X-3626Y1024D01*
X-3374Y1024D01*
X-3500Y26D01*
X-3551Y1024D01*
X-3449Y1024D02*
X-3500Y26D01*
X-3602Y1024D01*
X-3398Y1024D02*
X-3500Y26D01*
X-3626Y36976D02*
X-3500Y37974D01*
X-3626Y36976D02*
X-3374Y36976D01*
X-3500Y37974D01*
X-3551Y36976D01*
X-3449Y36976D02*
X-3500Y37974D01*
X-3602Y36976D01*
X-3398Y36976D02*
X-3500Y37974D01*
D11*
X-3756Y18231D02*
X-3756Y18053D01*
X-3756Y18231D02*
X-3758Y18256D01*
X-3763Y18281D01*
X-3772Y18305D01*
X-3784Y18327D01*
X-3799Y18348D01*
X-3817Y18366D01*
X-3838Y18381D01*
X-3860Y18393D01*
X-3884Y18402D01*
X-3909Y18407D01*
X-3934Y18409D01*
X-3959Y18407D01*
X-3984Y18402D01*
X-4008Y18393D01*
X-4030Y18381D01*
X-4051Y18366D01*
X-4069Y18348D01*
X-4084Y18327D01*
X-4096Y18305D01*
X-4105Y18281D01*
X-4110Y18256D01*
X-4112Y18231D01*
X-4396Y18266D02*
X-4396Y18053D01*
X-4396Y18266D02*
X-4394Y18288D01*
X-4389Y18310D01*
X-4381Y18330D01*
X-4369Y18349D01*
X-4354Y18366D01*
X-4337Y18381D01*
X-4318Y18393D01*
X-4298Y18401D01*
X-4276Y18406D01*
X-4254Y18408D01*
X-4232Y18406D01*
X-4210Y18401D01*
X-4190Y18393D01*
X-4171Y18381D01*
X-4154Y18366D01*
X-4139Y18349D01*
X-4127Y18330D01*
X-4119Y18310D01*
X-4114Y18288D01*
X-4112Y18266D01*
X-4112Y18124D01*
X-3792Y18644D02*
X-3756Y18644D01*
X-3792Y18644D02*
X-3792Y18679D01*
X-3756Y18679D01*
X-3756Y18644D01*
X-3934Y18914D02*
X-3959Y18916D01*
X-3984Y18921D01*
X-4008Y18930D01*
X-4030Y18942D01*
X-4051Y18957D01*
X-4069Y18975D01*
X-4084Y18996D01*
X-4096Y19018D01*
X-4105Y19042D01*
X-4110Y19067D01*
X-4112Y19092D01*
X-4110Y19117D01*
X-4105Y19142D01*
X-4096Y19166D01*
X-4084Y19188D01*
X-4069Y19209D01*
X-4051Y19227D01*
X-4030Y19242D01*
X-4008Y19254D01*
X-3984Y19263D01*
X-3959Y19268D01*
X-3934Y19270D01*
X-3909Y19268D01*
X-3884Y19263D01*
X-3860Y19254D01*
X-3838Y19242D01*
X-3817Y19227D01*
X-3799Y19209D01*
X-3784Y19188D01*
X-3772Y19166D01*
X-3763Y19142D01*
X-3758Y19117D01*
X-3756Y19092D01*
X-3758Y19067D01*
X-3763Y19042D01*
X-3772Y19018D01*
X-3784Y18996D01*
X-3799Y18975D01*
X-3817Y18957D01*
X-3838Y18942D01*
X-3860Y18930D01*
X-3884Y18921D01*
X-3909Y18916D01*
X-3934Y18914D01*
X-4254Y18950D02*
X-4276Y18952D01*
X-4298Y18957D01*
X-4318Y18965D01*
X-4337Y18977D01*
X-4354Y18992D01*
X-4369Y19009D01*
X-4381Y19028D01*
X-4389Y19048D01*
X-4394Y19070D01*
X-4396Y19092D01*
X-4394Y19114D01*
X-4389Y19136D01*
X-4381Y19156D01*
X-4369Y19175D01*
X-4354Y19192D01*
X-4337Y19207D01*
X-4318Y19219D01*
X-4298Y19227D01*
X-4276Y19232D01*
X-4254Y19234D01*
X-4232Y19232D01*
X-4210Y19227D01*
X-4190Y19219D01*
X-4171Y19207D01*
X-4154Y19192D01*
X-4139Y19175D01*
X-4127Y19156D01*
X-4119Y19136D01*
X-4114Y19114D01*
X-4112Y19092D01*
X-4114Y19070D01*
X-4119Y19048D01*
X-4127Y19028D01*
X-4139Y19009D01*
X-4154Y18992D01*
X-4171Y18977D01*
X-4190Y18965D01*
X-4210Y18957D01*
X-4232Y18952D01*
X-4254Y18950D01*
X-4076Y19530D02*
X-4116Y19532D01*
X-4155Y19536D01*
X-4195Y19543D01*
X-4233Y19554D01*
X-4270Y19567D01*
X-4307Y19583D01*
X-4308Y19583D02*
X-4327Y19591D01*
X-4344Y19602D01*
X-4359Y19616D01*
X-4372Y19631D01*
X-4383Y19649D01*
X-4391Y19668D01*
X-4395Y19688D01*
X-4397Y19708D01*
X-4395Y19728D01*
X-4391Y19748D01*
X-4383Y19767D01*
X-4372Y19785D01*
X-4359Y19800D01*
X-4344Y19814D01*
X-4327Y19825D01*
X-4308Y19833D01*
X-4307Y19832D02*
X-4270Y19848D01*
X-4233Y19861D01*
X-4195Y19872D01*
X-4155Y19879D01*
X-4116Y19883D01*
X-4076Y19885D01*
X-4076Y19530D02*
X-4036Y19532D01*
X-3997Y19536D01*
X-3958Y19543D01*
X-3919Y19554D01*
X-3882Y19567D01*
X-3845Y19583D01*
X-3826Y19591D01*
X-3809Y19602D01*
X-3794Y19616D01*
X-3781Y19631D01*
X-3770Y19649D01*
X-3762Y19668D01*
X-3758Y19688D01*
X-3756Y19708D01*
X-3845Y19832D02*
X-3882Y19848D01*
X-3919Y19861D01*
X-3958Y19872D01*
X-3997Y19879D01*
X-4036Y19883D01*
X-4076Y19885D01*
X-3845Y19833D02*
X-3826Y19825D01*
X-3809Y19814D01*
X-3794Y19800D01*
X-3781Y19785D01*
X-3770Y19767D01*
X-3762Y19748D01*
X-3758Y19728D01*
X-3756Y19708D01*
X-3898Y19566D02*
X-4254Y19850D01*
D12*
X4200Y15000D02*
X4800Y15000D01*
X4800Y14000D02*
X4200Y14000D01*
X4200Y13000D02*
X4800Y13000D01*
X4800Y12000D02*
X4200Y12000D01*
D13*
X17743Y26500D02*
X18257Y26500D01*
X18257Y25500D02*
X17743Y25500D01*
X17743Y24500D02*
X18257Y24500D01*
X18257Y23500D02*
X17743Y23500D01*
X17743Y22500D02*
X18257Y22500D01*
X18257Y21500D02*
X17743Y21500D01*
X17743Y20500D02*
X18257Y20500D01*
X18257Y19500D02*
X17743Y19500D01*
X22743Y19500D02*
X23257Y19500D01*
X23257Y20500D02*
X22743Y20500D01*
X22743Y21500D02*
X23257Y21500D01*
X23257Y22500D02*
X22743Y22500D01*
X22743Y23500D02*
X23257Y23500D01*
X23257Y24500D02*
X22743Y24500D01*
X22743Y25500D02*
X23257Y25500D01*
X23257Y26500D02*
X22743Y26500D01*
X18257Y17000D02*
X17743Y17000D01*
X17743Y16000D02*
X18257Y16000D01*
X18257Y15000D02*
X17743Y15000D01*
X17743Y14000D02*
X18257Y14000D01*
X18257Y13000D02*
X17743Y13000D01*
X17743Y12000D02*
X18257Y12000D01*
X18257Y11000D02*
X17743Y11000D01*
X17743Y10000D02*
X18257Y10000D01*
X22743Y10000D02*
X23257Y10000D01*
X23257Y11000D02*
X22743Y11000D01*
X22743Y12000D02*
X23257Y12000D01*
X23257Y13000D02*
X22743Y13000D01*
X22743Y14000D02*
X23257Y14000D01*
X23257Y15000D02*
X22743Y15000D01*
X22743Y16000D02*
X23257Y16000D01*
X23257Y17000D02*
X22743Y17000D01*
D14*
X12000Y19000D03*
X12000Y20000D03*
X12000Y21000D03*
X12000Y22000D03*
X12000Y23000D03*
X12000Y24000D03*
X12000Y25000D03*
X12000Y26000D03*
X12000Y27000D03*
X12000Y28000D03*
X12000Y29000D03*
X12000Y30000D03*
X12000Y31000D03*
X12000Y32000D03*
X12000Y33000D03*
X12000Y34000D03*
X4000Y34000D03*
X4000Y33000D03*
X4000Y32000D03*
X4000Y31000D03*
X4000Y30000D03*
X4000Y29000D03*
X4000Y28000D03*
X4000Y27000D03*
X4000Y26000D03*
X4000Y25000D03*
X4000Y24000D03*
X4000Y23000D03*
D15*
X8050Y30285D03*
X10550Y34615D03*
X6950Y30785D03*
X9450Y35115D03*
D16*
X5303Y24285D03*
X6597Y29115D03*
X6103Y23185D03*
X7397Y28015D03*
D17*
X26500Y29000D03*
X28500Y29000D03*
D18*
X29000Y20000D03*
X29000Y18000D03*
D19*
X14523Y25544D03*
X13677Y27356D03*
D20*
X24500Y33000D03*
X24500Y35000D03*
D12*
X26200Y12500D02*
X26800Y12500D01*
X26800Y13500D02*
X26200Y13500D01*
X26200Y14500D02*
X26800Y14500D01*
X26800Y15500D02*
X26200Y15500D01*
D21*
X3000Y7000D03*
X3000Y2000D03*
X18000Y7000D03*
X18000Y2000D03*
X25000Y7000D03*
X25000Y2000D03*
D22*
X13147Y15138D03*
X10853Y11862D03*
D23*
X11853Y11862D03*
X14147Y15138D03*
X13426Y12181D03*
X14574Y13819D03*
D24*
X8500Y12260D02*
X8500Y11740D01*
X9500Y11740D02*
X9500Y12260D01*
X9500Y14740D02*
X9500Y15260D01*
X8500Y15260D02*
X8500Y14740D01*
D25*
X6482Y19432D03*
X7518Y15568D03*
D12*
X26700Y7000D02*
X27300Y7000D01*
X27300Y6000D02*
X26700Y6000D01*
X26700Y5000D02*
X27300Y5000D01*
X27300Y4000D02*
X26700Y4000D01*
X26800Y21500D02*
X26200Y21500D01*
X26200Y22500D02*
X26800Y22500D01*
X26800Y23500D02*
X26200Y23500D01*
X26200Y24500D02*
X26800Y24500D01*
D21*
X15250Y22850D03*
X11000Y14500D03*
X13200Y4000D03*
X7500Y19500D03*
X20000Y22000D03*
X20000Y12000D03*
X24000Y31500D03*
X27000Y33500D03*
D20*
X23500Y4500D03*
X23500Y8500D03*
D21*
X14500Y5500D03*
X30500Y5000D03*
X5000Y1500D03*
X29000Y5000D03*
X21500Y4500D03*
X19500Y4500D03*
X25000Y18500D03*
X25000Y27500D03*
X29000Y26500D03*
D26*
X11943Y5500D02*
X11058Y5500D01*
X5943Y5500D02*
X5058Y5500D01*
X5443Y3500D02*
X4558Y3500D01*
X10558Y3500D02*
X11443Y3500D01*
D27*
X29500Y14500D03*
D28*
X30500Y14500D03*
X29500Y13500D03*
X30500Y13500D03*
X29500Y12500D03*
X30500Y12500D03*
X29500Y11500D03*
X30500Y11500D03*
X29500Y10500D03*
X30500Y10500D03*
X29500Y9500D03*
X30500Y9500D03*
X29500Y8500D03*
X30500Y8500D03*
X29500Y7500D03*
X30500Y7500D03*
D14*
X19000Y34500D03*
X18000Y34500D03*
X20000Y34500D03*
X21000Y34500D03*
X22000Y34500D03*
X17000Y34500D03*
X16000Y34500D03*
X15000Y34500D03*
D12*
X1350Y5000D02*
X750Y5000D01*
X750Y4000D02*
X1350Y4000D01*
D29*
X3500Y30000D02*
X4000Y30000D01*
X3500Y30000D02*
X1500Y28000D01*
X16500Y10000D02*
X18000Y10000D01*
X16500Y10000D02*
X16000Y9500D01*
X1500Y11300D02*
X1500Y28000D01*
X3300Y9500D02*
X16000Y9500D01*
X3300Y9500D02*
X1500Y11300D01*
X25500Y33000D02*
X25500Y35500D01*
X24500Y36500D02*
X8000Y36500D01*
X24500Y36500D02*
X25500Y35500D01*
X24500Y32500D02*
X24000Y32000D01*
X24000Y31500D01*
X27000Y32000D02*
X27000Y33500D01*
X27000Y32000D02*
X26500Y32000D01*
X27000Y32000D02*
X30000Y32000D01*
X26500Y32000D02*
X25500Y33000D01*
X30000Y32000D02*
X31000Y31000D01*
X12500Y20000D02*
X12000Y20000D01*
X12500Y20000D02*
X13500Y22000D01*
X30500Y14500D02*
X31000Y15000D01*
X31000Y31000D01*
X8000Y36500D02*
X7000Y35500D01*
X14523Y25544D02*
X13500Y24596D01*
X13500Y22000D01*
X14523Y25544D02*
X14800Y25821D01*
X14800Y28200D02*
X13500Y29500D01*
X13500Y31000D01*
X14800Y28200D02*
X14800Y25821D01*
X22000Y33000D02*
X22000Y34500D01*
X22000Y33000D02*
X22000Y32500D01*
X21500Y32000D01*
X14500Y32000D01*
X13500Y31000D01*
X22000Y33000D02*
X24500Y33000D01*
X24500Y32500D01*
X8050Y30285D02*
X6950Y30785D01*
X24500Y33000D02*
X25500Y33000D01*
X7000Y35500D02*
X6950Y30785D01*
X10800Y16500D02*
X13500Y16500D01*
X9500Y17800D02*
X9500Y25000D01*
X9500Y17800D02*
X10800Y16500D01*
X17500Y20500D02*
X18000Y20500D01*
X17500Y20500D02*
X13500Y16500D01*
X12000Y30000D02*
X10525Y30000D01*
X10525Y28725D01*
X10000Y28200D01*
X10000Y25500D02*
X9500Y25000D01*
X10000Y25500D02*
X10000Y28200D01*
X4500Y34000D02*
X7500Y37000D01*
X4500Y34000D02*
X4000Y34000D01*
X7500Y37000D02*
X26000Y37000D01*
X31500Y31500D01*
X31500Y14000D02*
X31000Y13500D01*
X31500Y14000D02*
X31500Y31500D01*
X31000Y13500D02*
X30500Y13500D01*
X9500Y33000D02*
X9000Y33500D01*
X9500Y33000D02*
X12000Y33000D01*
X9000Y33500D02*
X9000Y34500D01*
X19000Y34500D02*
X19000Y33500D01*
X14500Y33500D01*
X12500Y35500D01*
X9835Y35500D02*
X9450Y35115D01*
X9835Y35500D02*
X12500Y35500D01*
X9450Y34950D02*
X9000Y34500D01*
X9450Y34950D02*
X9450Y35115D01*
X4500Y13000D02*
X4000Y13000D01*
X3500Y13500D02*
X3500Y21500D01*
X4000Y22000D02*
X5000Y22000D01*
X4000Y22000D02*
X3500Y21500D01*
X3500Y13500D02*
X4000Y13000D01*
X5303Y24285D02*
X4588Y25000D01*
X4000Y25000D01*
X5303Y24285D02*
X5303Y23985D01*
X6103Y23185D01*
X6103Y23103D02*
X5000Y22000D01*
X6103Y23103D02*
X6103Y23185D01*
X4500Y32000D02*
X4000Y32000D01*
X5000Y30496D02*
X6597Y29115D01*
X5000Y31500D02*
X4500Y32000D01*
X5000Y31500D02*
X5000Y30496D01*
X7000Y22500D02*
X6000Y21500D01*
X7000Y22500D02*
X7000Y25000D01*
X6000Y21500D02*
X4500Y21500D01*
X4000Y21000D02*
X4000Y17000D01*
X4500Y16500D01*
X4500Y15000D01*
X4000Y21000D02*
X4500Y21500D01*
X5500Y26500D02*
X5500Y28000D01*
X6597Y29097D01*
X6597Y29115D01*
X5500Y26500D02*
X7000Y25000D01*
X4000Y29000D02*
X3500Y29000D01*
X2000Y27500D01*
X16500Y11000D02*
X18000Y11000D01*
X16500Y11000D02*
X15500Y10000D01*
X3550Y10000D01*
X2000Y11550D02*
X2000Y27500D01*
X2000Y11550D02*
X3550Y10000D01*
X4000Y33000D02*
X5000Y33000D01*
X6000Y32000D01*
X7500Y22300D02*
X6200Y21000D01*
X6000Y30500D02*
X6000Y32000D01*
X6200Y21000D02*
X5000Y21000D01*
X4500Y20500D02*
X4500Y17450D01*
X4500Y14000D02*
X5500Y14000D01*
X6000Y14500D02*
X6000Y16000D01*
X5950Y16000D01*
X4500Y17450D01*
X4500Y20500D02*
X5000Y21000D01*
X6000Y14500D02*
X5500Y14000D01*
X7500Y28000D02*
X7485Y28015D01*
X7397Y28015D01*
X7500Y28000D02*
X7500Y22300D01*
X6500Y30000D02*
X6000Y30500D01*
X6500Y30000D02*
X7000Y30000D01*
X7500Y29500D01*
X7500Y28000D01*
X8500Y12000D02*
X9500Y12000D01*
X10853Y11862D02*
X10885Y12000D01*
X9500Y12000D01*
X15500Y28500D02*
X23000Y28500D01*
X26000Y31500D01*
X29500Y31500D01*
X30500Y30500D01*
X12500Y19000D02*
X12000Y19000D01*
X12500Y19000D02*
X13000Y19500D01*
X14000Y21500D01*
X14000Y23500D01*
X15500Y25000D02*
X15500Y28500D01*
X15500Y25000D02*
X14000Y23500D01*
X29500Y15000D02*
X30500Y16000D01*
X30500Y30500D01*
X29500Y15000D02*
X29500Y14500D01*
X9000Y17500D02*
X9000Y25500D01*
X9500Y28500D02*
X10000Y29000D01*
X9000Y17500D02*
X10500Y16000D01*
X17400Y19500D02*
X18000Y19500D01*
X17400Y19500D02*
X14450Y16550D01*
X14000Y16000D01*
X10500Y16000D01*
X10000Y29000D02*
X10000Y30500D01*
X10500Y31000D02*
X12000Y31000D01*
X9500Y26000D02*
X9000Y25500D01*
X9500Y26000D02*
X9500Y28500D01*
X10000Y30500D02*
X10500Y31000D01*
X18000Y22500D02*
X18000Y21500D01*
X19500Y21500D02*
X20000Y22000D01*
X19500Y21500D02*
X18000Y21500D01*
X18000Y13000D02*
X18000Y12000D01*
X20000Y12000D01*
D30*
X25750Y13500D02*
X26500Y13500D01*
X25750Y13500D02*
X25250Y13000D01*
X23000Y13000D01*
X26000Y12000D02*
X26500Y12500D01*
X26000Y12000D02*
X23000Y12000D01*
X23000Y24500D02*
X26500Y24500D01*
X26500Y23500D02*
X23000Y23500D01*
X23000Y22500D02*
X26500Y22500D01*
X26500Y21500D02*
X23000Y21500D01*
D29*
X29000Y9500D02*
X29500Y9500D01*
X29000Y9500D02*
X28000Y8500D01*
X28000Y6500D01*
X27500Y6000D01*
X27000Y6000D01*
X29000Y8500D02*
X29500Y8500D01*
X29000Y8500D02*
X28500Y8000D01*
X28500Y6500D01*
X28500Y6000D01*
X28000Y5500D01*
X27500Y5000D01*
X27000Y5000D01*
D30*
X26500Y15500D02*
X24750Y15500D01*
X24250Y15000D01*
X23000Y15000D01*
X25250Y14500D02*
X26500Y14500D01*
X25250Y14500D02*
X24750Y14000D01*
X23000Y14000D01*
D29*
X12000Y32000D02*
X10500Y32000D01*
X9500Y31000D02*
X9500Y29300D01*
X8950Y28750D01*
X8500Y26000D02*
X8500Y17000D01*
X9500Y15000D02*
X9500Y14000D01*
X9500Y16000D02*
X8500Y17000D01*
X9500Y16000D02*
X9500Y15000D01*
X9500Y31000D02*
X10500Y32000D01*
X7518Y15568D02*
X7504Y14000D01*
X8000Y13500D02*
X9000Y13500D01*
X7504Y13996D02*
X7504Y14000D01*
X7504Y13996D02*
X8000Y13500D01*
X9000Y13500D02*
X9500Y14000D01*
X8950Y26450D02*
X8950Y28750D01*
X8950Y26450D02*
X8500Y26000D01*
X13147Y15138D02*
X14147Y15138D01*
X14574Y13819D01*
X11500Y15000D02*
X11000Y14500D01*
X11500Y15000D02*
X13147Y15138D01*
X8000Y16500D02*
X7500Y17500D01*
X7500Y19500D01*
X6482Y19432D01*
X8500Y16000D02*
X8500Y15000D01*
X8500Y16000D02*
X8000Y16500D01*
X4000Y31000D02*
X3500Y31000D01*
X1000Y28500D01*
X20500Y11000D02*
X18500Y9000D01*
X20500Y11000D02*
X23000Y11000D01*
X3050Y9000D02*
X1000Y11050D01*
X3050Y9000D02*
X18500Y9000D01*
X1000Y11050D02*
X1000Y28500D01*
X26000Y8300D02*
X29200Y11500D01*
X29500Y11500D01*
X26000Y8300D02*
X26000Y6000D01*
X25000Y5000D01*
X25000Y2000D01*
X4000Y27000D02*
X3500Y27000D01*
X3000Y26500D01*
X3000Y12050D02*
X4050Y11000D01*
X16500Y17000D02*
X17500Y18000D01*
X19500Y18000D01*
X22000Y20500D01*
X14500Y11000D02*
X4050Y11000D01*
X16500Y13000D02*
X16500Y17000D01*
X16500Y13000D02*
X14500Y11000D01*
X3000Y12050D02*
X3000Y26500D01*
X22000Y20500D02*
X23000Y20500D01*
X4000Y28000D02*
X3500Y28000D01*
X2500Y27000D01*
X2500Y11800D01*
X3800Y10500D01*
X14700Y10500D01*
X17000Y12800D01*
X17000Y16500D01*
X17500Y17000D02*
X18000Y17000D01*
X17500Y17000D02*
X17000Y16500D01*
X13300Y17000D02*
X11000Y17000D01*
X13300Y17000D02*
X17000Y20700D01*
X11000Y17000D02*
X10000Y18000D01*
X17000Y26500D02*
X18000Y26500D01*
X17000Y26500D02*
X17000Y20700D01*
X10000Y18000D02*
X10000Y24500D01*
X10500Y27800D02*
X11000Y28300D01*
X10500Y27800D02*
X10500Y25000D01*
X10000Y24500D01*
X11000Y29000D02*
X12000Y29000D01*
X11000Y29000D02*
X11000Y28300D01*
D30*
X5000Y1500D02*
X3500Y1500D01*
X3000Y2000D01*
X30500Y5000D02*
X30500Y7500D01*
X29500Y6000D02*
X29000Y5500D01*
X29000Y5000D01*
X29500Y6000D02*
X29500Y7500D01*
D29*
X30500Y10500D02*
X30500Y11500D01*
D30*
X19500Y3500D02*
X18000Y2000D01*
X19500Y3500D02*
X19500Y4500D01*
X21500Y4500D01*
X23500Y4500D01*
X27154Y18500D02*
X29000Y20000D01*
X27154Y18500D02*
X25000Y18500D01*
X24500Y18500D02*
X23000Y17000D01*
X24500Y18500D02*
X25000Y18500D01*
X24000Y26500D02*
X23000Y26500D01*
X24000Y26500D02*
X25000Y27500D01*
X26500Y29000D01*
X2050Y5500D02*
X1050Y5000D01*
X2050Y5500D02*
X5500Y5500D01*
X2050Y3500D02*
X1050Y4000D01*
X2050Y3500D02*
X5000Y3500D01*
X11500Y5500D02*
X13000Y5500D01*
X14500Y5500D01*
X13200Y5300D02*
X13200Y4000D01*
X13200Y5300D02*
X13000Y5500D01*
D29*
X29000Y10500D02*
X29500Y10500D01*
X27000Y8500D02*
X27000Y7000D01*
X27000Y8500D02*
X29000Y10500D01*
X29350Y12500D02*
X29500Y12500D01*
X24000Y9000D02*
X23500Y8500D01*
X24000Y9000D02*
X25850Y9000D01*
X29350Y12500D01*
D11*
X2000Y32000D02*
X2000Y33000D01*
X2000Y34000D01*
X2500Y34000D01*
X2500Y33000D02*
X2000Y33000D01*
X2500Y34000D02*
X3000Y33500D01*
X2500Y33000D01*
X3000Y32500D01*
X2500Y32000D01*
X2000Y32000D01*
X500Y33000D02*
X500Y34000D01*
X500Y33000D02*
X1000Y33000D01*
X1500Y33000D01*
X1000Y33000D02*
X1000Y33500D01*
X1000Y33000D02*
X1000Y32000D01*
D29*
X10500Y18250D02*
X11250Y17500D01*
X13000Y17500D01*
X16500Y28000D02*
X23500Y28000D01*
X16500Y21000D02*
X13000Y17500D01*
X28750Y13750D02*
X29000Y13500D01*
X28750Y13750D02*
X28750Y15250D01*
X16500Y21000D02*
X16500Y28000D01*
X28750Y15250D02*
X30000Y16500D01*
X23500Y28000D02*
X26500Y31000D01*
X29000Y31000D01*
X30000Y30000D01*
X30000Y16500D01*
X29500Y13500D02*
X29000Y13500D01*
X11650Y28000D02*
X11000Y27350D01*
X10500Y24000D02*
X10500Y18250D01*
X10500Y24000D02*
X11000Y24500D01*
X11000Y27350D01*
X11650Y28000D02*
X12000Y28000D01*
X14000Y33000D02*
X19500Y33000D01*
X14000Y33000D02*
X13000Y34000D01*
X19500Y33000D02*
X20000Y33500D01*
X20000Y34500D01*
X11165Y34000D02*
X10550Y34615D01*
X11165Y34000D02*
X12000Y34000D01*
X13000Y34000D01*
X15250Y22850D02*
X15250Y21500D01*
D11*
X15250Y21400D01*
D29*
X15250Y20750D01*
X12500Y18000D02*
X11500Y18000D01*
X11000Y18500D01*
X11000Y23500D01*
X11500Y24000D01*
X12000Y24000D01*
X15250Y20750D02*
X12500Y18000D01*
X13426Y12181D02*
X13096Y11850D01*
X11865Y11850D01*
D30*
X22000Y16000D02*
X23000Y16000D01*
D29*
X19000Y18500D02*
X17200Y18500D01*
X16000Y17300D01*
X16000Y13300D01*
D30*
X21500Y16500D02*
X21500Y18000D01*
X28500Y21500D02*
X28500Y26500D01*
D29*
X24500Y35500D02*
X24000Y36000D01*
X21000Y36000D01*
X16000Y36000D01*
X8500Y36000D01*
X8000Y35500D01*
X8000Y33000D01*
X9000Y32000D01*
X8000Y26500D02*
X8000Y22050D01*
X8350Y28950D02*
X9000Y29600D01*
X8000Y22050D02*
X6450Y20500D01*
D30*
X23000Y19500D02*
X24000Y19500D01*
D29*
X21500Y21000D02*
X19000Y18500D01*
X21500Y21000D02*
X21500Y24500D01*
D30*
X23000Y16000D02*
X23700Y16000D01*
X24500Y20000D02*
X27000Y20000D01*
X25000Y25500D02*
X23000Y25500D01*
X24700Y17000D02*
X23700Y16000D01*
X24000Y19500D02*
X24500Y20000D01*
X23000Y19500D02*
X21500Y18000D01*
D29*
X31000Y8500D02*
X31500Y8000D01*
X9000Y29600D02*
X9000Y32000D01*
X5500Y12000D02*
X4500Y12000D01*
X5500Y20500D02*
X6450Y20500D01*
X5000Y20000D02*
X5000Y18000D01*
X6500Y16500D02*
X6500Y13000D01*
D30*
X8000Y7000D02*
X8000Y3500D01*
D29*
X6500Y13000D02*
X10800Y13000D01*
X6500Y13000D02*
X5500Y12000D01*
X6500Y16500D02*
X5000Y18000D01*
X5000Y20000D02*
X5500Y20500D01*
X10800Y13000D02*
X11853Y11947D01*
X22500Y25500D02*
X23000Y25500D01*
D30*
X28500Y26500D02*
X29000Y26500D01*
X28500Y21500D02*
X27000Y20000D01*
X28000Y17000D02*
X28000Y12150D01*
X28000Y17000D02*
X29000Y18000D01*
X28000Y17000D02*
X24700Y17000D01*
X25000Y25500D02*
X26000Y26500D01*
X28500Y26500D01*
X28500Y29000D01*
X24000Y10000D02*
X23000Y10000D01*
X26925Y11075D02*
X28000Y12150D01*
D29*
X30500Y8500D02*
X31000Y8500D01*
X30500Y8500D02*
X30500Y9500D01*
X8350Y26850D02*
X8350Y28950D01*
X8350Y26850D02*
X8000Y26500D01*
X16000Y13300D02*
X14881Y12181D01*
X21500Y24500D02*
X22500Y25500D01*
D30*
X21500Y16500D02*
X22000Y16000D01*
X9500Y3500D02*
X8000Y3500D01*
D11*
X11865Y11850D02*
X11853Y11862D01*
D29*
X11853Y11947D01*
X13426Y12181D02*
X14881Y12181D01*
D30*
X24000Y11075D02*
X26925Y11075D01*
X24000Y11075D02*
X24000Y10000D01*
D29*
X9500Y3500D02*
X9500Y1000D01*
X26000Y1000D01*
X27000Y4000D02*
X31500Y4000D01*
X31500Y8000D01*
X27000Y4000D02*
X27000Y2000D01*
X26000Y1000D01*
D30*
X25000Y7000D02*
X21000Y7000D01*
X21000Y8000D01*
X23000Y10000D01*
D29*
X12500Y22000D02*
X12000Y22000D01*
X12500Y22000D02*
X13000Y22500D01*
X13000Y27356D01*
X21000Y33500D02*
X21000Y34500D01*
X20000Y32500D02*
X14000Y32500D01*
X13000Y31500D01*
X13000Y27356D02*
X13677Y27356D01*
X13000Y27356D02*
X13000Y31500D01*
X16000Y34500D02*
X16000Y36000D01*
X21000Y36000D02*
X21000Y34500D01*
X21000Y33500D02*
X20000Y32500D01*
X24500Y35000D02*
X24500Y35500D01*
D30*
X8000Y7000D02*
X3000Y7000D01*
X8000Y7000D02*
X18000Y7000D01*
X21000Y7000D01*
X11000Y3500D02*
X9500Y3500D01*
M02*
