M48
;GenerationSoftware,Autodesk,EAGLE,9.2.2*%
;CreationDate,2018-10-29T20:42:33Z*%
FMAT,2
ICI,OFF
INCH,TZ,000.000
T6C0.032
T5C0.036
T4C0.040
T3C0.044
T2C0.091
T1C0.130
%
G90
M72
T1
X1024Y1750
X2876Y1750
T2
X1712Y415
X2186Y415
T3
X3950Y250
X3750Y250
X1150Y250
X950Y250
X2900Y250
X2700Y250
T4
X3900Y1650
X1500Y2100
X1461Y1806
X1570Y1806
X3000Y950
X3000Y1050
X3000Y850
X3300Y1250
X3300Y1150
X3000Y1150
X3000Y1250
X3300Y1050
X3300Y950
X3300Y850
X3900Y1250
X3900Y1150
X3900Y1050
X2400Y850
X2400Y950
X3900Y950
X3900Y850
X2400Y1050
X2400Y1150
X2400Y1250
X3900Y1750
X1678Y1806
X3900Y1550
X1800Y2100
X1700Y2100
X1600Y2100
X1352Y1806
X1300Y1300
X1400Y1300
X1500Y1300
X1600Y1300
X2602Y1694
X2493Y1694
X2385Y1694
X2276Y1694
X2167Y1694
X2059Y1694
X1950Y1694
X1841Y1694
X1733Y1694
X1624Y1694
X1515Y1694
X1407Y1694
X1298Y1694
X2548Y1806
X2439Y1806
X2330Y1806
X2222Y1806
X2113Y1806
X2004Y1806
X1896Y1806
X1787Y1806
T5
X1998Y600
X1900Y521
X1998Y521
X1900Y600
T6
X3450Y50
X3950Y450
X3850Y450
X3750Y450
X1150Y450
X1050Y450
X950Y450
X2900Y550
X2800Y550
X2700Y550
X2900Y450
X2800Y450
X2700Y450
X650Y150
X650Y50
X1450Y150
X1450Y50
X2400Y150
X2400Y50
X3200Y150
X3200Y50
X3450Y150
X3450Y300
X3450Y500
X3200Y300
X3200Y500
X2400Y300
X2400Y500
X1450Y300
X1450Y500
X650Y300
X650Y500
X1200Y1000
X1300Y1000
X1300Y700
X1200Y700
X1400Y1000
X1500Y1000
X1400Y700
X1500Y700
M30