G04 EAGLE Gerber RS-274X export*
G75*
%MOIN*%
%FSLAX34Y34*%
%LPD*%
%INBottom Copper*%
%IPPOS*%
%AMOC8*
5,1,8,0,0,1.08239X$1,22.5*%
G01*
%ADD10P,0.060614X8X22.500000*%
%ADD11C,0.060000*%
%ADD12R,0.070866X0.070866*%
%ADD13P,0.076705X8X22.500000*%
%ADD14P,0.076705X8X292.500000*%
%ADD15P,0.060852X8X22.500000*%
%ADD16R,0.056220X0.056220*%
%ADD17P,0.141307X8X22.500000*%
%ADD18C,0.088500*%
%ADD19P,0.064262X8X202.500000*%
%ADD20C,0.016000*%


D10*
X5000Y5000D03*
X5000Y4000D03*
X6000Y5000D03*
X6000Y4000D03*
X7000Y5000D03*
X7000Y4000D03*
X8000Y5000D03*
X8000Y4000D03*
X9000Y5000D03*
X9000Y4000D03*
X10000Y5000D03*
X10000Y4000D03*
X11000Y5000D03*
X11000Y4000D03*
X12000Y5000D03*
X12000Y4000D03*
D11*
X28550Y3300D02*
X28550Y2700D01*
X29550Y2700D02*
X29550Y3300D01*
D12*
X19500Y29500D03*
D13*
X19500Y31500D03*
X19500Y33500D03*
X17500Y30500D03*
X17500Y32500D03*
D12*
X6500Y20500D03*
D14*
X8500Y20500D03*
X10500Y20500D03*
X7500Y22500D03*
X9500Y22500D03*
D12*
X19500Y20500D03*
D13*
X19500Y22500D03*
X19500Y24500D03*
X17500Y21500D03*
X17500Y23500D03*
D12*
X28500Y20500D03*
D13*
X28500Y22500D03*
X28500Y24500D03*
X26500Y21500D03*
X26500Y23500D03*
D11*
X21000Y3300D02*
X21000Y2700D01*
X22000Y2700D02*
X22000Y3300D01*
D15*
X17016Y13500D03*
D16*
X18000Y13500D03*
D15*
X18000Y12236D03*
X17016Y12236D03*
D17*
X15138Y12435D03*
X19878Y12435D03*
D18*
X30058Y30000D02*
X30943Y30000D01*
X24943Y30000D02*
X24058Y30000D01*
X24058Y33000D02*
X24943Y33000D01*
X30058Y33000D02*
X30943Y33000D01*
D19*
X2000Y8500D03*
X25500Y9500D03*
X25000Y18000D03*
X27500Y14000D03*
X5000Y8500D03*
X6500Y8500D03*
X7500Y2500D03*
X8000Y8500D03*
X12000Y16000D03*
X9500Y8500D03*
X16500Y7000D03*
X11000Y8500D03*
X12500Y8500D03*
D20*
X2500Y5000D02*
X2000Y5500D01*
X2500Y5000D02*
X5000Y5000D01*
X2000Y5500D02*
X2000Y8500D01*
X5000Y8000D02*
X7000Y6000D01*
X5000Y8000D02*
X5000Y8500D01*
X7000Y6000D02*
X7000Y5000D01*
X8000Y6000D02*
X6500Y7500D01*
X6500Y8500D01*
X8000Y6000D02*
X8000Y5000D01*
X9000Y6500D02*
X8000Y7500D01*
X8000Y8500D01*
X9000Y6500D02*
X9000Y5000D01*
X6000Y6000D02*
X5500Y6500D01*
X5000Y6500D01*
X6000Y6000D02*
X6000Y5000D01*
X3500Y8000D02*
X3500Y11833D01*
X10438Y18000D02*
X25000Y18000D01*
X5000Y6500D02*
X3500Y8000D01*
X3500Y11833D02*
X10438Y18000D01*
X10000Y7000D02*
X10000Y5000D01*
X10000Y7000D02*
X9500Y7500D01*
X9500Y8500D01*
X11000Y8500D02*
X11000Y5000D01*
X6000Y980D02*
X17500Y980D01*
X18300Y3800D02*
X21000Y6500D01*
X22500Y6500D02*
X25500Y9500D01*
X22500Y6500D02*
X21000Y6500D01*
X6000Y1000D02*
X5000Y2000D01*
X6000Y1000D02*
X6000Y980D01*
X17500Y980D02*
X18300Y1780D01*
X18300Y3800D01*
X5000Y4000D02*
X5000Y2000D01*
X6500Y1500D02*
X16500Y1500D01*
X17500Y2500D02*
X17500Y4000D01*
X27500Y14000D01*
X6500Y1500D02*
X6000Y2000D01*
X16500Y1500D02*
X17500Y2500D01*
X6000Y2000D02*
X6000Y4000D01*
X7500Y3000D02*
X8000Y3500D01*
X7500Y3000D02*
X7500Y2500D01*
X8000Y3500D02*
X8000Y4000D01*
X10500Y2000D02*
X15500Y2000D01*
X16500Y3000D02*
X16500Y4500D01*
X16500Y3000D02*
X15500Y2000D01*
X10500Y2000D02*
X9000Y3500D01*
X9000Y4000D01*
X16500Y4500D02*
X18500Y6500D01*
X18500Y8000D01*
X12000Y11500D01*
X12000Y16000D01*
X11000Y2500D02*
X14500Y2500D01*
X15500Y6000D02*
X16500Y7000D01*
X15500Y6000D02*
X15500Y3500D01*
X14500Y2500D01*
X11000Y2500D02*
X10000Y3500D01*
X10000Y4000D01*
X11500Y3000D02*
X13500Y3000D01*
X14000Y3500D02*
X14000Y6000D01*
X12500Y7500D01*
X14000Y3500D02*
X13500Y3000D01*
X11500Y3000D02*
X11000Y3500D01*
X11000Y4000D01*
X12500Y7500D02*
X12500Y8500D01*
M02*
