G04 EAGLE Gerber RS-274X export*
G75*
%MOIN*%
%FSLAX34Y34*%
%LPD*%
%INTop Copper*%
%IPPOS*%
%AMOC8*
5,1,8,0,0,1.08239X$1,22.5*%
G01*
%ADD10P,0.064943X8X112.500000*%
%ADD11C,0.200000*%
%ADD12C,0.060000*%
%ADD13C,0.051496*%
%ADD14C,0.070000*%
%ADD15C,0.070000*%
%ADD16P,0.056284X8X112.500000*%
%ADD17P,0.056284X8X292.500000*%
%ADD18P,0.064943X8X22.500000*%
%ADD19C,0.020000*%
%ADD20C,0.020000*%
%ADD21C,0.006000*%


D10*
X17440Y18520D03*
X17440Y17430D03*
X17440Y16350D03*
X17440Y15260D03*
X17440Y14170D03*
X17440Y13090D03*
X17440Y12000D03*
X17440Y10910D03*
X17440Y9830D03*
X17440Y8740D03*
X17440Y7650D03*
X17440Y6570D03*
X17440Y5480D03*
X18560Y17980D03*
X18560Y16890D03*
X18560Y15800D03*
X18560Y14720D03*
X18560Y13630D03*
X18560Y12540D03*
X18560Y11460D03*
X18560Y10370D03*
X18560Y9280D03*
X18560Y8200D03*
X18560Y7110D03*
X18560Y6020D03*
D11*
X18000Y2740D03*
X18000Y21260D03*
D12*
X25200Y13500D02*
X25800Y13500D01*
X25800Y14500D02*
X25200Y14500D01*
X25200Y15500D02*
X25800Y15500D01*
X25800Y16500D02*
X25200Y16500D01*
X5300Y9500D02*
X4700Y9500D01*
X4700Y8500D02*
X5300Y8500D01*
X5300Y7500D02*
X4700Y7500D01*
X4700Y6500D02*
X5300Y6500D01*
D13*
X28243Y3500D02*
X28757Y3500D01*
X28757Y4500D02*
X28243Y4500D01*
X28243Y5500D02*
X28757Y5500D01*
X28757Y6500D02*
X28243Y6500D01*
X28243Y7500D02*
X28757Y7500D01*
X28757Y8500D02*
X28243Y8500D01*
X28243Y9500D02*
X28757Y9500D01*
X28757Y10500D02*
X28243Y10500D01*
X23757Y10500D02*
X23243Y10500D01*
X23243Y9500D02*
X23757Y9500D01*
X23757Y8500D02*
X23243Y8500D01*
X23243Y7500D02*
X23757Y7500D01*
X23757Y6500D02*
X23243Y6500D01*
X23243Y5500D02*
X23757Y5500D01*
X23757Y4500D02*
X23243Y4500D01*
X23243Y3500D02*
X23757Y3500D01*
X9257Y9000D02*
X8743Y9000D01*
X8743Y8000D02*
X9257Y8000D01*
X9257Y7000D02*
X8743Y7000D01*
X8743Y6000D02*
X9257Y6000D01*
X9257Y5000D02*
X8743Y5000D01*
X8743Y4000D02*
X9257Y4000D01*
X9257Y3000D02*
X8743Y3000D01*
X8743Y2000D02*
X9257Y2000D01*
X13743Y2000D02*
X14257Y2000D01*
X14257Y3000D02*
X13743Y3000D01*
X13743Y4000D02*
X14257Y4000D01*
X14257Y5000D02*
X13743Y5000D01*
X13743Y6000D02*
X14257Y6000D01*
X14257Y7000D02*
X13743Y7000D01*
X13743Y8000D02*
X14257Y8000D01*
X14257Y9000D02*
X13743Y9000D01*
D14*
X19000Y29150D02*
X19000Y29850D01*
X18000Y29850D02*
X18000Y29150D01*
X20000Y29150D02*
X20000Y29850D01*
X21000Y29850D02*
X21000Y29150D01*
X22000Y29150D02*
X22000Y29850D01*
X17000Y29850D02*
X17000Y29150D01*
X16000Y29150D02*
X16000Y29850D01*
X15000Y29850D02*
X15000Y29150D01*
D15*
X12000Y14000D03*
X12000Y15000D03*
X12000Y16000D03*
X12000Y17000D03*
X12000Y18000D03*
X12000Y19000D03*
X12000Y20000D03*
X12000Y21000D03*
X12000Y22000D03*
X12000Y23000D03*
X12000Y24000D03*
X12000Y25000D03*
X12000Y26000D03*
X12000Y27000D03*
X12000Y28000D03*
X12000Y29000D03*
X4000Y29000D03*
X4000Y28000D03*
X4000Y27000D03*
X4000Y26000D03*
X4000Y25000D03*
X4000Y24000D03*
X4000Y23000D03*
X4000Y22000D03*
X4000Y21000D03*
X4000Y20000D03*
X4000Y19000D03*
X4000Y18000D03*
D16*
X8500Y24450D03*
X8500Y29450D03*
X7000Y25000D03*
X7000Y30000D03*
X4550Y11050D03*
X4550Y16050D03*
X7000Y17950D03*
X7000Y22950D03*
X21500Y3000D03*
X21500Y5000D03*
D17*
X15000Y12000D03*
X15000Y10000D03*
D16*
X14000Y25500D03*
X14000Y27500D03*
X24500Y27000D03*
X24500Y29000D03*
D18*
X9850Y15500D03*
X10500Y13500D03*
X23000Y20000D03*
X23000Y13000D03*
D19*
X21500Y5000D02*
X20670Y5000D01*
X21500Y5000D02*
X22500Y5000D01*
X23000Y4500D01*
X23500Y4500D01*
X23500Y10500D02*
X25000Y10500D01*
X25000Y4500D01*
X23500Y4500D01*
X18580Y6000D02*
X18560Y6020D01*
X19670Y6000D02*
X20670Y5000D01*
X19670Y6000D02*
X18580Y6000D01*
X21500Y3000D02*
X23000Y3000D01*
X23500Y3500D01*
X17920Y5000D02*
X17440Y5480D01*
X19500Y5000D02*
X21500Y3000D01*
X19500Y5000D02*
X17920Y5000D01*
X28500Y7500D02*
X28500Y8500D01*
X9000Y5000D02*
X9000Y4000D01*
X2000Y6000D02*
X2000Y26000D01*
X2000Y6000D02*
X6000Y2000D01*
X9000Y2000D01*
X4000Y26000D02*
X3000Y26000D01*
X2000Y26000D01*
X2500Y25000D02*
X2500Y6500D01*
X6000Y3000D02*
X9000Y3000D01*
X6000Y3000D02*
X2500Y6500D01*
X2500Y25000D02*
X4000Y25000D01*
X21000Y29500D02*
X21000Y31000D01*
X13000Y27571D02*
X13000Y18000D01*
X12000Y17000D01*
X14000Y27571D02*
X20500Y27571D01*
X14000Y27571D02*
X13000Y27571D01*
X16000Y31000D02*
X21000Y31000D01*
X21000Y28214D02*
X20500Y27571D01*
X16000Y29500D02*
X16000Y31000D01*
X22500Y31000D02*
X24500Y29000D01*
X22500Y31000D02*
X21000Y31000D01*
X21000Y29500D02*
X21000Y28214D01*
X14000Y27571D02*
X14000Y27500D01*
X23000Y5500D02*
X23500Y5500D01*
X22370Y6130D02*
X20450Y6150D01*
X20450Y10350D01*
X18560Y10370D01*
X22370Y6130D02*
X23000Y5500D01*
X22580Y6920D02*
X21000Y6920D01*
X22580Y6920D02*
X23000Y6500D01*
X23500Y6500D01*
X21000Y6920D02*
X21000Y11000D01*
X20500Y11500D01*
X18560Y11460D01*
X21530Y7500D02*
X23500Y7500D01*
X21530Y7500D02*
X21530Y11570D01*
X20600Y12500D01*
X18600Y12500D01*
X18560Y12540D01*
X22000Y8500D02*
X23500Y8500D01*
X22000Y8500D02*
X22000Y12000D01*
X20400Y13600D01*
X18590Y13600D02*
X18560Y13630D01*
X18590Y13600D02*
X20400Y13600D01*
X17440Y6570D02*
X14870Y4000D01*
X14000Y4000D01*
X14790Y5000D02*
X17440Y7650D01*
X14790Y5000D02*
X14000Y5000D01*
X14700Y6000D02*
X17440Y8740D01*
X14700Y6000D02*
X14000Y6000D01*
X14000Y7000D02*
X14500Y7000D01*
X14610Y7000D02*
X17440Y9830D01*
X14610Y7000D02*
X14500Y7000D01*
X31000Y3000D02*
X31000Y21000D01*
X29667Y2000D02*
X26000Y2000D01*
X27000Y25000D02*
X24500Y25000D01*
X31000Y3000D02*
X29667Y2000D01*
X26000Y2000D02*
X26000Y11500D01*
X26000Y2000D02*
X21000Y2000D01*
X16000Y3000D02*
X14000Y3000D01*
X31000Y21000D02*
X27000Y25000D01*
X24500Y25000D02*
X24500Y27000D01*
X23000Y11500D02*
X26000Y11500D01*
X22500Y11000D02*
X22500Y9500D01*
X23500Y9500D01*
X24500Y27000D02*
X22000Y27000D01*
X22000Y29500D01*
X14000Y25500D02*
X13500Y25000D01*
X14000Y25500D02*
X14000Y26400D01*
X14600Y27000D01*
X22000Y27000D01*
X13500Y16500D02*
X12000Y15000D01*
X13500Y16500D02*
X13500Y25000D01*
X17500Y4500D02*
X16000Y3000D01*
X17500Y4500D02*
X18500Y4500D01*
X21000Y2000D01*
X24000Y31500D02*
X7000Y31500D01*
X25500Y30000D02*
X25500Y28000D01*
X24500Y27000D01*
X7000Y27500D02*
X7000Y25000D01*
X24000Y31500D02*
X25500Y30000D01*
X7000Y27500D02*
X6000Y28500D01*
X6000Y30500D01*
X7000Y25000D02*
X8500Y25000D01*
X6000Y30500D02*
X7000Y31500D01*
X23000Y11500D02*
X22500Y11000D01*
X8500Y24450D02*
X8500Y25000D01*
X28500Y9500D02*
X29500Y9500D01*
X29500Y19000D01*
X25500Y23000D02*
X15000Y23000D01*
X15000Y15250D01*
X9600Y12000D02*
X8000Y13600D01*
X25500Y23000D02*
X29500Y19000D01*
X8000Y15900D02*
X8000Y13600D01*
X8000Y15900D02*
X9500Y17400D01*
X9600Y12000D02*
X11750Y12000D01*
X15000Y15250D01*
X9500Y17400D02*
X9500Y22400D01*
X11000Y25000D02*
X12000Y25000D01*
X11000Y23900D02*
X9500Y22400D01*
X11000Y23900D02*
X11000Y25000D01*
X7500Y16000D02*
X7500Y13400D01*
X15500Y15200D02*
X15500Y19500D01*
X18500Y19500D01*
X9400Y11500D02*
X7500Y13400D01*
X10500Y26000D02*
X12000Y26000D01*
X10500Y26000D02*
X10500Y24200D01*
X9400Y11500D02*
X11800Y11500D01*
X15500Y15200D01*
X9000Y17500D02*
X7500Y16000D01*
X9000Y17500D02*
X9000Y22700D01*
X10500Y24200D01*
X25000Y22500D02*
X28500Y19000D01*
X25000Y22500D02*
X21500Y22500D01*
X28500Y19000D02*
X28500Y10500D01*
X18500Y19500D02*
X21500Y22500D01*
X15000Y13500D02*
X12000Y10500D01*
X9150Y10500D02*
X6500Y13150D01*
X9150Y10500D02*
X12000Y10500D01*
X6500Y16250D02*
X8000Y17750D01*
X6500Y16250D02*
X6500Y13150D01*
X8000Y17750D02*
X8000Y23250D01*
X15000Y13500D02*
X16600Y13500D01*
X8000Y23250D02*
X7250Y24000D01*
X5950Y24000D02*
X5950Y27550D01*
X4500Y29000D02*
X4000Y29000D01*
X4500Y29000D02*
X5950Y27550D01*
X5950Y24000D02*
X7250Y24000D01*
X16600Y15650D02*
X17440Y16350D01*
X16600Y15650D02*
X16600Y13500D01*
X14000Y11000D02*
X14000Y9000D01*
X14000Y11000D02*
X15000Y12000D01*
X16000Y12000D01*
X16350Y12000D01*
X16350Y11150D01*
X16590Y10910D02*
X17440Y10910D01*
X16590Y10910D02*
X16350Y11150D01*
D20*
X16000Y12000D03*
D19*
X20000Y28000D02*
X20000Y29500D01*
X20000Y28000D02*
X14400Y28000D01*
D21*
X8500Y29450D02*
X8500Y29500D01*
D19*
X10000Y29500D01*
X10500Y29000D01*
X12000Y29000D01*
X13400Y29000D02*
X14400Y28000D01*
X13400Y29000D02*
X12000Y29000D01*
X13500Y30500D02*
X7500Y30500D01*
X14000Y30000D02*
X14000Y29000D01*
X14500Y28500D02*
X19000Y28500D01*
X14000Y30000D02*
X13500Y30500D01*
X7500Y30500D02*
X7000Y30000D01*
X7000Y29000D01*
X8000Y28000D02*
X12000Y28000D01*
X19000Y28500D02*
X19000Y29500D01*
X14500Y28500D02*
X14000Y29000D01*
X8000Y28000D02*
X7000Y29000D01*
X5000Y7500D02*
X3500Y7500D01*
X3500Y11016D01*
X3500Y16500D01*
X5000Y18000D01*
X5000Y19500D01*
X4500Y20000D02*
X4000Y20000D01*
X4500Y20000D02*
X5000Y19500D01*
X7000Y12000D02*
X7000Y7500D01*
X5000Y7500D01*
X4550Y11050D02*
X3500Y11016D01*
X7000Y17750D02*
X7000Y17950D01*
X7000Y17750D02*
X6000Y16750D01*
X6000Y13000D01*
X7000Y12000D01*
X5500Y17700D02*
X5500Y20500D01*
X5500Y17700D02*
X4550Y16750D01*
X4550Y16050D01*
X4550Y12950D01*
X4500Y27000D02*
X4000Y27000D01*
X4500Y27000D02*
X5000Y26500D01*
X5000Y21000D02*
X5500Y20500D01*
X5000Y21000D02*
X5000Y26500D01*
X4550Y12950D02*
X6000Y11500D01*
X6000Y10500D01*
X5000Y9500D01*
X5000Y6500D02*
X7500Y6500D01*
X7500Y10000D01*
X12000Y10000D01*
X12000Y8000D01*
X12000Y3000D01*
X13000Y2000D02*
X14000Y2000D01*
X15000Y8500D02*
X15000Y10000D01*
X12100Y10000D02*
X15100Y13000D01*
X14500Y8000D02*
X14000Y8000D01*
X14500Y8000D02*
X15000Y8500D01*
X12100Y10000D02*
X12000Y10000D01*
X12000Y8000D02*
X14000Y8000D01*
X12000Y3000D02*
X13000Y2000D01*
X15100Y13000D02*
X16500Y13000D01*
X17440Y12000D01*
X9000Y9000D02*
X8000Y9000D01*
X8000Y5000D01*
X5000Y5000D01*
X3000Y7000D01*
X3000Y24000D02*
X4000Y24000D01*
X3000Y24000D02*
X3000Y7000D01*
X6500Y9500D02*
X6500Y12000D01*
X6000Y21000D02*
X7000Y22000D01*
X6000Y21000D02*
X6000Y17500D01*
X5500Y17000D01*
X5500Y13000D01*
X6500Y12000D01*
X5500Y27000D02*
X4500Y28000D01*
X4000Y28000D01*
X5500Y27000D02*
X5500Y22950D01*
X7000Y22950D01*
X7000Y22000D01*
X6500Y9500D02*
X6500Y8500D01*
X5000Y8500D01*
X11900Y11000D02*
X16000Y15100D01*
X11900Y11000D02*
X9250Y11000D01*
X7000Y13250D01*
X7000Y16150D01*
X8500Y17650D01*
X10000Y24500D02*
X10000Y27000D01*
X12000Y27000D01*
X8500Y23000D02*
X8500Y17650D01*
X8500Y23000D02*
X10000Y24500D01*
X16000Y17450D02*
X16000Y15100D01*
X16000Y17450D02*
X17440Y17430D01*
X30500Y3500D02*
X29500Y2500D01*
X30500Y3500D02*
X30500Y20000D01*
X14000Y24000D02*
X14000Y16000D01*
X12000Y14000D01*
X27000Y19500D02*
X27000Y2500D01*
X29500Y2500D01*
X30500Y20000D02*
X26500Y24000D01*
X14000Y24000D01*
X17600Y19100D02*
X17440Y18940D01*
X17440Y18520D01*
X17600Y19100D02*
X19100Y19100D01*
X22000Y22000D01*
X24500Y22000D01*
X27000Y19500D01*
X26500Y26000D02*
X26000Y26500D01*
X26500Y26000D02*
X27000Y26500D01*
X27000Y27000D01*
X26000Y27000D02*
X26000Y26500D01*
X27500Y26000D02*
X27500Y27000D01*
X27500Y26000D02*
X28500Y26000D01*
X12000Y19000D02*
X11200Y19000D01*
X11200Y14200D01*
X10500Y13500D01*
X10500Y17550D02*
X10500Y21750D01*
X11750Y23000D01*
X12000Y23000D01*
X28500Y3500D02*
X29500Y3500D01*
X30000Y4000D01*
X30000Y19500D01*
X26000Y23500D01*
X14500Y23500D02*
X14500Y15350D01*
X11550Y12400D01*
X14500Y23500D02*
X26000Y23500D01*
X9950Y12400D02*
X9000Y13350D01*
X9000Y14500D01*
X9950Y12400D02*
X11550Y12400D01*
X10800Y17250D02*
X10500Y17550D01*
X10800Y17250D02*
X10800Y14800D01*
X10500Y14500D01*
X9000Y14500D01*
X10000Y22000D02*
X12000Y24000D01*
X10000Y15650D02*
X9850Y15500D01*
X10000Y15650D02*
X10000Y22000D01*
X17440Y14170D02*
X21830Y14170D01*
X23000Y13000D01*
X18000Y15820D02*
X17440Y15260D01*
X18000Y18500D02*
X18150Y18650D01*
X23000Y19900D02*
X23000Y20000D01*
X18000Y18500D02*
X18000Y15820D01*
X18150Y18650D02*
X21750Y18650D01*
X23000Y19900D01*
X24000Y18000D02*
X25500Y16500D01*
X24000Y18000D02*
X18580Y18000D01*
D21*
X18560Y17980D01*
D19*
X25000Y15500D02*
X25500Y15500D01*
X25000Y15500D02*
X23550Y16950D01*
X18620Y16950D01*
D21*
X18560Y16890D01*
D19*
X25000Y14500D02*
X25500Y14500D01*
X25000Y14500D02*
X23700Y15800D01*
X18560Y15800D01*
X25000Y13500D02*
X25500Y13500D01*
X25000Y13500D02*
X23750Y14750D01*
X18590Y14750D01*
D21*
X18560Y14720D01*
M02*
