G04 EAGLE Gerber RS-274X export*
G75*
%MOIN*%
%FSLAX34Y34*%
%LPD*%
%INSilkscreen Top*%
%IPPOS*%
%AMOC8*
5,1,8,0,0,1.08239X$1,22.5*%
G01*
%ADD10C,0.006000*%
%ADD11C,0.005000*%
%ADD12C,0.007000*%
%ADD13C,0.016000*%
%ADD14C,0.004000*%
%ADD15C,0.000000*%
%ADD16R,0.024000X0.034000*%
%ADD17C,0.012000*%


D10*
X19160Y4690D02*
X17080Y4380D01*
X19550Y18800D02*
X19548Y18844D01*
X19543Y18888D01*
X19533Y18931D01*
X19521Y18974D01*
X19504Y19015D01*
X19485Y19054D01*
X19462Y19092D01*
X19436Y19128D01*
X19407Y19162D01*
X19376Y19193D01*
X19342Y19221D01*
X19306Y19246D01*
X19268Y19269D01*
X19228Y19288D01*
X19186Y19303D01*
X19144Y19315D01*
X17093Y19618D02*
X17049Y19626D01*
X17004Y19629D01*
X16959Y19630D01*
X16914Y19626D01*
X16869Y19618D01*
X16826Y19607D01*
X16783Y19592D01*
X16742Y19574D01*
X16703Y19552D01*
X16665Y19527D01*
X16630Y19498D01*
X16598Y19467D01*
X16568Y19433D01*
X16541Y19397D01*
X16517Y19359D01*
X16497Y19319D01*
X16480Y19277D01*
X16467Y19234D01*
X16458Y19190D01*
X16452Y19145D01*
X16450Y19100D01*
X17090Y19620D02*
X19150Y19310D01*
X16450Y19100D02*
X16450Y4900D01*
X16452Y4855D01*
X16457Y4811D01*
X16467Y4768D01*
X16480Y4725D01*
X16496Y4683D01*
X16516Y4643D01*
X16539Y4605D01*
X16566Y4569D01*
X16595Y4536D01*
X16627Y4505D01*
X16662Y4476D01*
X16698Y4451D01*
X16737Y4429D01*
X16778Y4410D01*
X16819Y4395D01*
X16862Y4383D01*
X16906Y4375D01*
X16951Y4371D01*
X16995Y4370D01*
X17040Y4373D01*
X17084Y4380D01*
X19153Y4687D02*
X19195Y4700D01*
X19236Y4716D01*
X19275Y4735D01*
X19312Y4758D01*
X19347Y4783D01*
X19380Y4811D01*
X19411Y4842D01*
X19439Y4876D01*
X19464Y4911D01*
X19487Y4949D01*
X19506Y4988D01*
X19522Y5029D01*
X19534Y5071D01*
X19543Y5113D01*
X19548Y5156D01*
X19550Y5200D01*
X19550Y18800D01*
X20400Y2650D02*
X20450Y2650D01*
X20450Y3650D01*
X20400Y3650D02*
X20400Y2650D01*
X20400Y3650D02*
X20450Y3650D01*
X20450Y20350D01*
X20450Y2650D02*
X20450Y1800D01*
X20448Y1770D01*
X20443Y1740D01*
X20434Y1711D01*
X20421Y1684D01*
X20406Y1658D01*
X20387Y1634D01*
X20366Y1613D01*
X20342Y1594D01*
X20316Y1579D01*
X20289Y1566D01*
X20260Y1557D01*
X20230Y1552D01*
X20200Y1550D01*
X20450Y22200D02*
X20448Y22230D01*
X20443Y22260D01*
X20434Y22289D01*
X20421Y22316D01*
X20406Y22342D01*
X20387Y22366D01*
X20366Y22387D01*
X20342Y22406D01*
X20316Y22421D01*
X20289Y22434D01*
X20260Y22443D01*
X20230Y22448D01*
X20200Y22450D01*
X15550Y22200D02*
X15550Y21350D01*
X15800Y22450D02*
X20200Y22450D01*
X15800Y22450D02*
X15770Y22448D01*
X15740Y22443D01*
X15711Y22434D01*
X15684Y22421D01*
X15658Y22406D01*
X15634Y22387D01*
X15613Y22366D01*
X15594Y22342D01*
X15579Y22316D01*
X15566Y22289D01*
X15557Y22260D01*
X15552Y22230D01*
X15550Y22200D01*
X15800Y1550D02*
X20200Y1550D01*
X15800Y1550D02*
X15770Y1552D01*
X15740Y1557D01*
X15711Y1566D01*
X15684Y1579D01*
X15658Y1594D01*
X15634Y1613D01*
X15613Y1634D01*
X15594Y1658D01*
X15579Y1684D01*
X15566Y1711D01*
X15557Y1740D01*
X15552Y1770D01*
X15550Y1800D01*
X20400Y20350D02*
X20450Y20350D01*
X20450Y21350D01*
X20400Y21350D02*
X20400Y20350D01*
X20400Y21350D02*
X20450Y21350D01*
X20450Y22200D01*
X15600Y20350D02*
X15550Y20350D01*
X15550Y3650D01*
X15600Y20350D02*
X15600Y21350D01*
X15550Y21350D01*
X15550Y20350D01*
X15550Y2650D02*
X15600Y2650D01*
X15550Y2650D02*
X15550Y1800D01*
X15600Y2650D02*
X15600Y3650D01*
X15550Y3650D01*
X15550Y2650D01*
X16300Y4900D02*
X16300Y19100D01*
X17090Y19770D02*
X19130Y19470D01*
X17113Y19767D02*
X17064Y19775D01*
X17014Y19779D01*
X16964Y19780D01*
X16914Y19777D01*
X16864Y19770D01*
X16815Y19760D01*
X16767Y19746D01*
X16720Y19728D01*
X16675Y19708D01*
X16631Y19683D01*
X16589Y19656D01*
X16549Y19626D01*
X16511Y19593D01*
X16476Y19557D01*
X16444Y19519D01*
X16415Y19478D01*
X16388Y19435D01*
X16365Y19391D01*
X16346Y19345D01*
X16329Y19297D01*
X16317Y19249D01*
X16307Y19200D01*
X16302Y19150D01*
X16300Y19100D01*
X19160Y4540D02*
X17080Y4230D01*
X17113Y4233D02*
X17064Y4225D01*
X17014Y4221D01*
X16964Y4220D01*
X16914Y4223D01*
X16864Y4230D01*
X16815Y4240D01*
X16767Y4254D01*
X16720Y4272D01*
X16675Y4292D01*
X16631Y4317D01*
X16589Y4344D01*
X16549Y4374D01*
X16511Y4407D01*
X16476Y4443D01*
X16444Y4481D01*
X16415Y4522D01*
X16388Y4565D01*
X16365Y4609D01*
X16346Y4655D01*
X16329Y4702D01*
X16317Y4751D01*
X16307Y4800D01*
X16302Y4850D01*
X16300Y4900D01*
X19700Y5200D02*
X19700Y18800D01*
X19700Y5200D02*
X19698Y5149D01*
X19692Y5097D01*
X19683Y5047D01*
X19669Y4997D01*
X19652Y4949D01*
X19631Y4902D01*
X19607Y4856D01*
X19579Y4813D01*
X19548Y4772D01*
X19514Y4733D01*
X19478Y4697D01*
X19438Y4664D01*
X19396Y4634D01*
X19353Y4607D01*
X19307Y4583D01*
X19259Y4564D01*
X19211Y4547D01*
X19161Y4535D01*
X19110Y4526D01*
X19700Y18800D02*
X19698Y18852D01*
X19692Y18903D01*
X19682Y18953D01*
X19669Y19003D01*
X19652Y19052D01*
X19631Y19099D01*
X19606Y19144D01*
X19579Y19188D01*
X19548Y19229D01*
X19514Y19268D01*
X19477Y19304D01*
X19437Y19337D01*
X19396Y19367D01*
X19352Y19394D01*
X19306Y19417D01*
X19258Y19437D01*
X19209Y19453D01*
X19159Y19466D01*
X19108Y19474D01*
X19057Y19479D01*
X17360Y2740D02*
X17362Y2790D01*
X17368Y2840D01*
X17378Y2890D01*
X17391Y2938D01*
X17408Y2986D01*
X17429Y3032D01*
X17453Y3076D01*
X17481Y3118D01*
X17512Y3158D01*
X17546Y3195D01*
X17583Y3230D01*
X17622Y3261D01*
X17663Y3290D01*
X17707Y3315D01*
X17753Y3337D01*
X17800Y3355D01*
X17848Y3369D01*
X17897Y3380D01*
X17947Y3387D01*
X17997Y3390D01*
X18048Y3389D01*
X18098Y3384D01*
X18148Y3375D01*
X18196Y3363D01*
X18244Y3346D01*
X18290Y3326D01*
X18335Y3303D01*
X18378Y3276D01*
X18418Y3246D01*
X18456Y3213D01*
X18491Y3177D01*
X18524Y3138D01*
X18553Y3097D01*
X18579Y3054D01*
X18602Y3009D01*
X18621Y2962D01*
X18636Y2914D01*
X18648Y2865D01*
X18656Y2815D01*
X18660Y2765D01*
X18660Y2715D01*
X18656Y2665D01*
X18648Y2615D01*
X18636Y2566D01*
X18621Y2518D01*
X18602Y2471D01*
X18579Y2426D01*
X18553Y2383D01*
X18524Y2342D01*
X18491Y2303D01*
X18456Y2267D01*
X18418Y2234D01*
X18378Y2204D01*
X18335Y2177D01*
X18290Y2154D01*
X18244Y2134D01*
X18196Y2117D01*
X18148Y2105D01*
X18098Y2096D01*
X18048Y2091D01*
X17997Y2090D01*
X17947Y2093D01*
X17897Y2100D01*
X17848Y2111D01*
X17800Y2125D01*
X17753Y2143D01*
X17707Y2165D01*
X17663Y2190D01*
X17622Y2219D01*
X17583Y2250D01*
X17546Y2285D01*
X17512Y2322D01*
X17481Y2362D01*
X17453Y2404D01*
X17429Y2448D01*
X17408Y2494D01*
X17391Y2542D01*
X17378Y2590D01*
X17368Y2640D01*
X17362Y2690D01*
X17360Y2740D01*
X17350Y21260D02*
X17352Y21310D01*
X17358Y21360D01*
X17368Y21410D01*
X17381Y21458D01*
X17398Y21506D01*
X17419Y21552D01*
X17443Y21596D01*
X17471Y21638D01*
X17502Y21678D01*
X17536Y21715D01*
X17573Y21750D01*
X17612Y21781D01*
X17653Y21810D01*
X17697Y21835D01*
X17743Y21857D01*
X17790Y21875D01*
X17838Y21889D01*
X17887Y21900D01*
X17937Y21907D01*
X17987Y21910D01*
X18038Y21909D01*
X18088Y21904D01*
X18138Y21895D01*
X18186Y21883D01*
X18234Y21866D01*
X18280Y21846D01*
X18325Y21823D01*
X18368Y21796D01*
X18408Y21766D01*
X18446Y21733D01*
X18481Y21697D01*
X18514Y21658D01*
X18543Y21617D01*
X18569Y21574D01*
X18592Y21529D01*
X18611Y21482D01*
X18626Y21434D01*
X18638Y21385D01*
X18646Y21335D01*
X18650Y21285D01*
X18650Y21235D01*
X18646Y21185D01*
X18638Y21135D01*
X18626Y21086D01*
X18611Y21038D01*
X18592Y20991D01*
X18569Y20946D01*
X18543Y20903D01*
X18514Y20862D01*
X18481Y20823D01*
X18446Y20787D01*
X18408Y20754D01*
X18368Y20724D01*
X18325Y20697D01*
X18280Y20674D01*
X18234Y20654D01*
X18186Y20637D01*
X18138Y20625D01*
X18088Y20616D01*
X18038Y20611D01*
X17987Y20610D01*
X17937Y20613D01*
X17887Y20620D01*
X17838Y20631D01*
X17790Y20645D01*
X17743Y20663D01*
X17697Y20685D01*
X17653Y20710D01*
X17612Y20739D01*
X17573Y20770D01*
X17536Y20805D01*
X17502Y20842D01*
X17471Y20882D01*
X17443Y20924D01*
X17419Y20968D01*
X17398Y21014D01*
X17381Y21062D01*
X17368Y21110D01*
X17358Y21160D01*
X17352Y21210D01*
X17350Y21260D01*
D11*
X16685Y5519D02*
X16761Y5425D01*
X16685Y5519D02*
X17025Y5519D01*
X17025Y5425D02*
X17025Y5614D01*
X16685Y6579D02*
X16687Y6596D01*
X16691Y6612D01*
X16699Y6626D01*
X16710Y6639D01*
X16723Y6650D01*
X16737Y6658D01*
X16753Y6662D01*
X16770Y6664D01*
X16685Y6579D02*
X16687Y6560D01*
X16692Y6541D01*
X16700Y6523D01*
X16712Y6507D01*
X16726Y6494D01*
X16742Y6483D01*
X16760Y6475D01*
X16836Y6636D02*
X16822Y6648D01*
X16806Y6657D01*
X16788Y6662D01*
X16770Y6664D01*
X16836Y6636D02*
X17025Y6475D01*
X17025Y6664D01*
X17025Y7525D02*
X17025Y7619D01*
X17023Y7637D01*
X17018Y7655D01*
X17009Y7671D01*
X16997Y7685D01*
X16983Y7697D01*
X16967Y7706D01*
X16949Y7711D01*
X16931Y7713D01*
X16913Y7711D01*
X16895Y7706D01*
X16879Y7697D01*
X16865Y7685D01*
X16853Y7671D01*
X16844Y7655D01*
X16839Y7637D01*
X16837Y7619D01*
X16685Y7638D02*
X16685Y7525D01*
X16685Y7638D02*
X16687Y7654D01*
X16692Y7669D01*
X16700Y7683D01*
X16710Y7694D01*
X16723Y7704D01*
X16738Y7710D01*
X16753Y7714D01*
X16769Y7714D01*
X16784Y7710D01*
X16799Y7704D01*
X16812Y7694D01*
X16822Y7683D01*
X16830Y7669D01*
X16835Y7654D01*
X16837Y7638D01*
X16836Y7638D02*
X16836Y7563D01*
X16949Y8575D02*
X16685Y8651D01*
X16949Y8575D02*
X16949Y8764D01*
X16874Y8707D02*
X17025Y8707D01*
X17025Y9675D02*
X17025Y9788D01*
X17024Y9803D01*
X17019Y9817D01*
X17012Y9830D01*
X17003Y9842D01*
X16991Y9851D01*
X16978Y9858D01*
X16964Y9863D01*
X16949Y9864D01*
X16912Y9864D01*
X16895Y9862D01*
X16879Y9856D01*
X16865Y9847D01*
X16853Y9835D01*
X16844Y9821D01*
X16838Y9805D01*
X16836Y9788D01*
X16836Y9675D01*
X16685Y9675D01*
X16685Y9864D01*
X16836Y10775D02*
X16836Y10888D01*
X16837Y10903D01*
X16842Y10917D01*
X16849Y10930D01*
X16858Y10942D01*
X16870Y10951D01*
X16883Y10958D01*
X16897Y10963D01*
X16912Y10964D01*
X16931Y10964D01*
X16931Y10963D02*
X16949Y10961D01*
X16967Y10956D01*
X16983Y10947D01*
X16997Y10935D01*
X17009Y10921D01*
X17018Y10905D01*
X17023Y10887D01*
X17025Y10869D01*
X17023Y10851D01*
X17018Y10833D01*
X17009Y10817D01*
X16997Y10803D01*
X16983Y10791D01*
X16967Y10782D01*
X16949Y10777D01*
X16931Y10775D01*
X16836Y10775D01*
X16812Y10777D01*
X16789Y10782D01*
X16767Y10791D01*
X16747Y10804D01*
X16729Y10819D01*
X16714Y10837D01*
X16701Y10857D01*
X16692Y10879D01*
X16687Y10902D01*
X16685Y10926D01*
X16723Y11875D02*
X16685Y11875D01*
X16685Y12064D01*
X17025Y11969D01*
X16931Y12975D02*
X16913Y12977D01*
X16895Y12982D01*
X16879Y12991D01*
X16865Y13003D01*
X16853Y13017D01*
X16844Y13033D01*
X16839Y13051D01*
X16837Y13069D01*
X16839Y13087D01*
X16844Y13105D01*
X16853Y13121D01*
X16865Y13135D01*
X16879Y13147D01*
X16895Y13156D01*
X16913Y13161D01*
X16931Y13163D01*
X16949Y13161D01*
X16967Y13156D01*
X16983Y13147D01*
X16997Y13135D01*
X17009Y13121D01*
X17018Y13105D01*
X17023Y13087D01*
X17025Y13069D01*
X17023Y13051D01*
X17018Y13033D01*
X17009Y13017D01*
X16997Y13003D01*
X16983Y12991D01*
X16967Y12982D01*
X16949Y12977D01*
X16931Y12975D01*
X16761Y12993D02*
X16745Y12995D01*
X16730Y13000D01*
X16716Y13008D01*
X16705Y13018D01*
X16695Y13031D01*
X16689Y13046D01*
X16685Y13061D01*
X16685Y13077D01*
X16689Y13092D01*
X16695Y13107D01*
X16705Y13120D01*
X16716Y13130D01*
X16730Y13138D01*
X16745Y13143D01*
X16761Y13145D01*
X16777Y13143D01*
X16792Y13138D01*
X16806Y13130D01*
X16817Y13120D01*
X16827Y13107D01*
X16833Y13092D01*
X16837Y13077D01*
X16837Y13061D01*
X16833Y13046D01*
X16827Y13031D01*
X16817Y13018D01*
X16806Y13008D01*
X16792Y13000D01*
X16777Y12995D01*
X16761Y12993D01*
X16874Y14101D02*
X16874Y14214D01*
X16874Y14101D02*
X16872Y14084D01*
X16866Y14068D01*
X16857Y14054D01*
X16845Y14042D01*
X16831Y14033D01*
X16815Y14027D01*
X16798Y14025D01*
X16779Y14025D01*
X16761Y14027D01*
X16743Y14032D01*
X16727Y14041D01*
X16713Y14053D01*
X16701Y14067D01*
X16692Y14083D01*
X16687Y14101D01*
X16685Y14119D01*
X16687Y14137D01*
X16692Y14155D01*
X16701Y14171D01*
X16713Y14185D01*
X16727Y14197D01*
X16743Y14206D01*
X16761Y14211D01*
X16779Y14213D01*
X16779Y14214D02*
X16874Y14214D01*
X16898Y14212D01*
X16921Y14207D01*
X16943Y14198D01*
X16963Y14185D01*
X16981Y14170D01*
X16996Y14152D01*
X17009Y14132D01*
X17018Y14110D01*
X17023Y14087D01*
X17025Y14063D01*
X16761Y15025D02*
X16685Y15119D01*
X17025Y15119D01*
X17025Y15025D02*
X17025Y15214D01*
X16855Y15376D02*
X16823Y15378D01*
X16792Y15383D01*
X16762Y15392D01*
X16732Y15404D01*
X16719Y15410D01*
X16708Y15418D01*
X16698Y15429D01*
X16691Y15442D01*
X16686Y15456D01*
X16685Y15470D01*
X16686Y15484D01*
X16691Y15498D01*
X16698Y15511D01*
X16708Y15522D01*
X16719Y15530D01*
X16732Y15536D01*
X16732Y15537D02*
X16762Y15549D01*
X16792Y15558D01*
X16823Y15563D01*
X16855Y15565D01*
X16855Y15376D02*
X16887Y15378D01*
X16918Y15383D01*
X16948Y15392D01*
X16978Y15404D01*
X16991Y15410D01*
X17002Y15418D01*
X17012Y15429D01*
X17019Y15442D01*
X17024Y15456D01*
X17025Y15470D01*
X16978Y15537D02*
X16948Y15549D01*
X16918Y15558D01*
X16887Y15563D01*
X16855Y15565D01*
X16978Y15536D02*
X16991Y15530D01*
X17002Y15522D01*
X17012Y15511D01*
X17019Y15498D01*
X17024Y15484D01*
X17025Y15470D01*
X16949Y15395D02*
X16761Y15546D01*
X16761Y16075D02*
X16685Y16169D01*
X17025Y16169D01*
X17025Y16075D02*
X17025Y16264D01*
X16761Y16426D02*
X16685Y16520D01*
X17025Y16520D01*
X17025Y16426D02*
X17025Y16615D01*
X16761Y17125D02*
X16685Y17219D01*
X17025Y17219D01*
X17025Y17125D02*
X17025Y17314D01*
X16685Y17580D02*
X16687Y17597D01*
X16691Y17613D01*
X16699Y17627D01*
X16710Y17640D01*
X16723Y17651D01*
X16737Y17659D01*
X16753Y17663D01*
X16770Y17665D01*
X16685Y17580D02*
X16687Y17561D01*
X16692Y17542D01*
X16700Y17524D01*
X16712Y17508D01*
X16726Y17495D01*
X16742Y17484D01*
X16760Y17476D01*
X16836Y17637D02*
X16822Y17649D01*
X16806Y17658D01*
X16788Y17663D01*
X16770Y17665D01*
X16836Y17637D02*
X17025Y17476D01*
X17025Y17665D01*
X16761Y18275D02*
X16685Y18369D01*
X17025Y18369D01*
X17025Y18275D02*
X17025Y18464D01*
X17025Y18626D02*
X17025Y18720D01*
X17023Y18738D01*
X17018Y18756D01*
X17009Y18772D01*
X16997Y18786D01*
X16983Y18798D01*
X16967Y18807D01*
X16949Y18812D01*
X16931Y18814D01*
X16913Y18812D01*
X16895Y18807D01*
X16879Y18798D01*
X16865Y18786D01*
X16853Y18772D01*
X16844Y18756D01*
X16839Y18738D01*
X16837Y18720D01*
X16685Y18739D02*
X16685Y18626D01*
X16685Y18739D02*
X16687Y18755D01*
X16692Y18770D01*
X16700Y18784D01*
X16710Y18795D01*
X16723Y18805D01*
X16738Y18811D01*
X16753Y18815D01*
X16769Y18815D01*
X16784Y18811D01*
X16799Y18805D01*
X16812Y18795D01*
X16822Y18784D01*
X16830Y18770D01*
X16835Y18755D01*
X16837Y18739D01*
X16836Y18739D02*
X16836Y18664D01*
X18985Y5819D02*
X19061Y5725D01*
X18985Y5819D02*
X19325Y5819D01*
X19325Y5725D02*
X19325Y5914D01*
X19249Y6076D02*
X18985Y6152D01*
X19249Y6076D02*
X19249Y6265D01*
X19174Y6208D02*
X19325Y6208D01*
X19061Y6825D02*
X18985Y6919D01*
X19325Y6919D01*
X19325Y6825D02*
X19325Y7014D01*
X19325Y7176D02*
X19325Y7289D01*
X19324Y7304D01*
X19319Y7318D01*
X19312Y7331D01*
X19303Y7343D01*
X19291Y7352D01*
X19278Y7359D01*
X19264Y7364D01*
X19249Y7365D01*
X19212Y7365D01*
X19195Y7363D01*
X19179Y7357D01*
X19165Y7348D01*
X19153Y7336D01*
X19144Y7322D01*
X19138Y7306D01*
X19136Y7289D01*
X19136Y7176D01*
X18985Y7176D01*
X18985Y7365D01*
X19061Y7925D02*
X18985Y8019D01*
X19325Y8019D01*
X19325Y7925D02*
X19325Y8114D01*
X19136Y8276D02*
X19136Y8389D01*
X19137Y8404D01*
X19142Y8418D01*
X19149Y8431D01*
X19158Y8443D01*
X19170Y8452D01*
X19183Y8459D01*
X19197Y8464D01*
X19212Y8465D01*
X19231Y8465D01*
X19231Y8464D02*
X19249Y8462D01*
X19267Y8457D01*
X19283Y8448D01*
X19297Y8436D01*
X19309Y8422D01*
X19318Y8406D01*
X19323Y8388D01*
X19325Y8370D01*
X19323Y8352D01*
X19318Y8334D01*
X19309Y8318D01*
X19297Y8304D01*
X19283Y8292D01*
X19267Y8283D01*
X19249Y8278D01*
X19231Y8276D01*
X19136Y8276D01*
X19112Y8278D01*
X19089Y8283D01*
X19067Y8292D01*
X19047Y8305D01*
X19029Y8320D01*
X19014Y8338D01*
X19001Y8358D01*
X18992Y8380D01*
X18987Y8403D01*
X18985Y8427D01*
X19061Y8975D02*
X18985Y9069D01*
X19325Y9069D01*
X19325Y8975D02*
X19325Y9164D01*
X19023Y9326D02*
X18985Y9326D01*
X18985Y9515D01*
X19325Y9420D01*
X19061Y10025D02*
X18985Y10119D01*
X19325Y10119D01*
X19325Y10025D02*
X19325Y10214D01*
X19231Y10376D02*
X19213Y10378D01*
X19195Y10383D01*
X19179Y10392D01*
X19165Y10404D01*
X19153Y10418D01*
X19144Y10434D01*
X19139Y10452D01*
X19137Y10470D01*
X19139Y10488D01*
X19144Y10506D01*
X19153Y10522D01*
X19165Y10536D01*
X19179Y10548D01*
X19195Y10557D01*
X19213Y10562D01*
X19231Y10564D01*
X19249Y10562D01*
X19267Y10557D01*
X19283Y10548D01*
X19297Y10536D01*
X19309Y10522D01*
X19318Y10506D01*
X19323Y10488D01*
X19325Y10470D01*
X19323Y10452D01*
X19318Y10434D01*
X19309Y10418D01*
X19297Y10404D01*
X19283Y10392D01*
X19267Y10383D01*
X19249Y10378D01*
X19231Y10376D01*
X19061Y10394D02*
X19045Y10396D01*
X19030Y10401D01*
X19016Y10409D01*
X19005Y10419D01*
X18995Y10432D01*
X18989Y10447D01*
X18985Y10462D01*
X18985Y10478D01*
X18989Y10493D01*
X18995Y10508D01*
X19005Y10521D01*
X19016Y10531D01*
X19030Y10539D01*
X19045Y10544D01*
X19061Y10546D01*
X19077Y10544D01*
X19092Y10539D01*
X19106Y10531D01*
X19117Y10521D01*
X19127Y10508D01*
X19133Y10493D01*
X19137Y10478D01*
X19137Y10462D01*
X19133Y10447D01*
X19127Y10432D01*
X19117Y10419D01*
X19106Y10409D01*
X19092Y10401D01*
X19077Y10396D01*
X19061Y10394D01*
X19061Y11175D02*
X18985Y11269D01*
X19325Y11269D01*
X19325Y11175D02*
X19325Y11364D01*
X19174Y11602D02*
X19174Y11715D01*
X19174Y11602D02*
X19172Y11585D01*
X19166Y11569D01*
X19157Y11555D01*
X19145Y11543D01*
X19131Y11534D01*
X19115Y11528D01*
X19098Y11526D01*
X19079Y11526D01*
X19061Y11528D01*
X19043Y11533D01*
X19027Y11542D01*
X19013Y11554D01*
X19001Y11568D01*
X18992Y11584D01*
X18987Y11602D01*
X18985Y11620D01*
X18987Y11638D01*
X18992Y11656D01*
X19001Y11672D01*
X19013Y11686D01*
X19027Y11698D01*
X19043Y11707D01*
X19061Y11712D01*
X19079Y11714D01*
X19079Y11715D02*
X19174Y11715D01*
X19198Y11713D01*
X19221Y11708D01*
X19243Y11699D01*
X19263Y11686D01*
X19281Y11671D01*
X19296Y11653D01*
X19309Y11633D01*
X19318Y11611D01*
X19323Y11588D01*
X19325Y11564D01*
X18985Y12329D02*
X18987Y12346D01*
X18991Y12362D01*
X18999Y12376D01*
X19010Y12389D01*
X19023Y12400D01*
X19037Y12408D01*
X19053Y12412D01*
X19070Y12414D01*
X18985Y12329D02*
X18987Y12310D01*
X18992Y12291D01*
X19000Y12273D01*
X19012Y12257D01*
X19026Y12244D01*
X19042Y12233D01*
X19060Y12225D01*
X19136Y12386D02*
X19122Y12398D01*
X19106Y12407D01*
X19088Y12412D01*
X19070Y12414D01*
X19136Y12386D02*
X19325Y12225D01*
X19325Y12414D01*
X19155Y12576D02*
X19123Y12578D01*
X19092Y12583D01*
X19062Y12592D01*
X19032Y12604D01*
X19019Y12610D01*
X19008Y12618D01*
X18998Y12629D01*
X18991Y12642D01*
X18986Y12656D01*
X18985Y12670D01*
X18986Y12684D01*
X18991Y12698D01*
X18998Y12711D01*
X19008Y12722D01*
X19019Y12730D01*
X19032Y12736D01*
X19032Y12737D02*
X19062Y12749D01*
X19092Y12758D01*
X19123Y12763D01*
X19155Y12765D01*
X19155Y12576D02*
X19187Y12578D01*
X19218Y12583D01*
X19248Y12592D01*
X19278Y12604D01*
X19291Y12610D01*
X19302Y12618D01*
X19312Y12629D01*
X19319Y12642D01*
X19324Y12656D01*
X19325Y12670D01*
X19278Y12737D02*
X19248Y12749D01*
X19218Y12758D01*
X19187Y12763D01*
X19155Y12765D01*
X19278Y12736D02*
X19291Y12730D01*
X19302Y12722D01*
X19312Y12711D01*
X19319Y12698D01*
X19324Y12684D01*
X19325Y12670D01*
X19249Y12595D02*
X19061Y12746D01*
X18985Y13429D02*
X18987Y13446D01*
X18991Y13462D01*
X18999Y13476D01*
X19010Y13489D01*
X19023Y13500D01*
X19037Y13508D01*
X19053Y13512D01*
X19070Y13514D01*
X18985Y13429D02*
X18987Y13410D01*
X18992Y13391D01*
X19000Y13373D01*
X19012Y13357D01*
X19026Y13344D01*
X19042Y13333D01*
X19060Y13325D01*
X19136Y13486D02*
X19122Y13498D01*
X19106Y13507D01*
X19088Y13512D01*
X19070Y13514D01*
X19136Y13486D02*
X19325Y13325D01*
X19325Y13514D01*
X19061Y13676D02*
X18985Y13770D01*
X19325Y13770D01*
X19325Y13676D02*
X19325Y13865D01*
X18985Y14529D02*
X18987Y14546D01*
X18991Y14562D01*
X18999Y14576D01*
X19010Y14589D01*
X19023Y14600D01*
X19037Y14608D01*
X19053Y14612D01*
X19070Y14614D01*
X18985Y14529D02*
X18987Y14510D01*
X18992Y14491D01*
X19000Y14473D01*
X19012Y14457D01*
X19026Y14444D01*
X19042Y14433D01*
X19060Y14425D01*
X19136Y14586D02*
X19122Y14598D01*
X19106Y14607D01*
X19088Y14612D01*
X19070Y14614D01*
X19136Y14586D02*
X19325Y14425D01*
X19325Y14614D01*
X18985Y14880D02*
X18987Y14897D01*
X18991Y14913D01*
X18999Y14927D01*
X19010Y14940D01*
X19023Y14951D01*
X19037Y14959D01*
X19053Y14963D01*
X19070Y14965D01*
X18985Y14880D02*
X18987Y14861D01*
X18992Y14842D01*
X19000Y14824D01*
X19012Y14808D01*
X19026Y14795D01*
X19042Y14784D01*
X19060Y14776D01*
X19136Y14937D02*
X19122Y14949D01*
X19106Y14958D01*
X19088Y14963D01*
X19070Y14965D01*
X19136Y14937D02*
X19325Y14776D01*
X19325Y14965D01*
X18985Y15629D02*
X18987Y15646D01*
X18991Y15662D01*
X18999Y15676D01*
X19010Y15689D01*
X19023Y15700D01*
X19037Y15708D01*
X19053Y15712D01*
X19070Y15714D01*
X18985Y15629D02*
X18987Y15610D01*
X18992Y15591D01*
X19000Y15573D01*
X19012Y15557D01*
X19026Y15544D01*
X19042Y15533D01*
X19060Y15525D01*
X19136Y15686D02*
X19122Y15698D01*
X19106Y15707D01*
X19088Y15712D01*
X19070Y15714D01*
X19136Y15686D02*
X19325Y15525D01*
X19325Y15714D01*
X19325Y15876D02*
X19325Y15970D01*
X19323Y15988D01*
X19318Y16006D01*
X19309Y16022D01*
X19297Y16036D01*
X19283Y16048D01*
X19267Y16057D01*
X19249Y16062D01*
X19231Y16064D01*
X19213Y16062D01*
X19195Y16057D01*
X19179Y16048D01*
X19165Y16036D01*
X19153Y16022D01*
X19144Y16006D01*
X19139Y15988D01*
X19137Y15970D01*
X18985Y15989D02*
X18985Y15876D01*
X18985Y15989D02*
X18987Y16005D01*
X18992Y16020D01*
X19000Y16034D01*
X19010Y16045D01*
X19023Y16055D01*
X19038Y16061D01*
X19053Y16065D01*
X19069Y16065D01*
X19084Y16061D01*
X19099Y16055D01*
X19112Y16045D01*
X19122Y16034D01*
X19130Y16020D01*
X19135Y16005D01*
X19137Y15989D01*
X19136Y15989D02*
X19136Y15914D01*
X18985Y16679D02*
X18987Y16696D01*
X18991Y16712D01*
X18999Y16726D01*
X19010Y16739D01*
X19023Y16750D01*
X19037Y16758D01*
X19053Y16762D01*
X19070Y16764D01*
X18985Y16679D02*
X18987Y16660D01*
X18992Y16641D01*
X19000Y16623D01*
X19012Y16607D01*
X19026Y16594D01*
X19042Y16583D01*
X19060Y16575D01*
X19136Y16736D02*
X19122Y16748D01*
X19106Y16757D01*
X19088Y16762D01*
X19070Y16764D01*
X19136Y16736D02*
X19325Y16575D01*
X19325Y16764D01*
X19249Y16926D02*
X18985Y17002D01*
X19249Y16926D02*
X19249Y17115D01*
X19174Y17058D02*
X19325Y17058D01*
X18985Y17779D02*
X18987Y17796D01*
X18991Y17812D01*
X18999Y17826D01*
X19010Y17839D01*
X19023Y17850D01*
X19037Y17858D01*
X19053Y17862D01*
X19070Y17864D01*
X18985Y17779D02*
X18987Y17760D01*
X18992Y17741D01*
X19000Y17723D01*
X19012Y17707D01*
X19026Y17694D01*
X19042Y17683D01*
X19060Y17675D01*
X19136Y17836D02*
X19122Y17848D01*
X19106Y17857D01*
X19088Y17862D01*
X19070Y17864D01*
X19136Y17836D02*
X19325Y17675D01*
X19325Y17864D01*
X19325Y18026D02*
X19325Y18139D01*
X19324Y18154D01*
X19319Y18168D01*
X19312Y18181D01*
X19303Y18193D01*
X19291Y18202D01*
X19278Y18209D01*
X19264Y18214D01*
X19249Y18215D01*
X19212Y18215D01*
X19195Y18213D01*
X19179Y18207D01*
X19165Y18198D01*
X19153Y18186D01*
X19144Y18172D01*
X19138Y18156D01*
X19136Y18139D01*
X19136Y18026D01*
X18985Y18026D01*
X18985Y18215D01*
D12*
X15215Y1755D02*
X14585Y1755D01*
X15215Y1685D02*
X15215Y1825D01*
X14585Y1825D02*
X14585Y1685D01*
X14865Y2102D02*
X14865Y2277D01*
X14867Y2302D01*
X14872Y2326D01*
X14881Y2350D01*
X14893Y2372D01*
X14908Y2392D01*
X14925Y2409D01*
X14945Y2424D01*
X14967Y2436D01*
X14991Y2445D01*
X15015Y2450D01*
X15040Y2452D01*
X15065Y2450D01*
X15089Y2445D01*
X15113Y2436D01*
X15135Y2424D01*
X15155Y2409D01*
X15172Y2392D01*
X15187Y2372D01*
X15199Y2350D01*
X15208Y2326D01*
X15213Y2302D01*
X15215Y2277D01*
X15215Y2102D01*
X14585Y2102D01*
X14585Y2277D01*
X14587Y2299D01*
X14592Y2320D01*
X14600Y2341D01*
X14612Y2359D01*
X14626Y2376D01*
X14643Y2390D01*
X14661Y2402D01*
X14682Y2410D01*
X14703Y2415D01*
X14725Y2417D01*
X14747Y2415D01*
X14768Y2410D01*
X14789Y2402D01*
X14807Y2390D01*
X14824Y2376D01*
X14838Y2359D01*
X14850Y2341D01*
X14858Y2320D01*
X14863Y2299D01*
X14865Y2277D01*
X15215Y2826D02*
X15215Y2966D01*
X15215Y2826D02*
X15213Y2804D01*
X15208Y2783D01*
X15200Y2762D01*
X15188Y2744D01*
X15174Y2727D01*
X15157Y2713D01*
X15139Y2701D01*
X15118Y2693D01*
X15097Y2688D01*
X15075Y2686D01*
X14725Y2686D01*
X14703Y2688D01*
X14682Y2693D01*
X14661Y2701D01*
X14643Y2713D01*
X14626Y2727D01*
X14612Y2744D01*
X14600Y2762D01*
X14592Y2783D01*
X14587Y2804D01*
X14585Y2826D01*
X14585Y2966D01*
D10*
X25000Y13250D02*
X25000Y13750D01*
X25250Y14000D01*
X25750Y14000D02*
X26000Y13750D01*
X25250Y14000D02*
X25000Y14250D01*
X25000Y14750D01*
X25250Y15000D01*
X25750Y15000D02*
X26000Y14750D01*
X26000Y14250D01*
X25750Y14000D01*
X25750Y13000D02*
X25250Y13000D01*
X25000Y13250D01*
X25750Y13000D02*
X26000Y13250D01*
X26000Y13750D01*
X25250Y15000D02*
X25000Y15250D01*
X25000Y15750D01*
X25250Y16000D01*
X25750Y16000D02*
X26000Y15750D01*
X26000Y15250D01*
X25750Y15000D01*
X25000Y16250D02*
X25000Y16750D01*
X25250Y17000D01*
X25750Y17000D01*
X26000Y16750D01*
X25250Y16000D02*
X25000Y16250D01*
X25750Y16000D02*
X26000Y16250D01*
X26000Y16750D01*
D11*
X25275Y12700D02*
X25375Y12575D01*
X25275Y12700D02*
X25725Y12700D01*
X25725Y12575D02*
X25725Y12825D01*
X25625Y17125D02*
X25275Y17225D01*
X25625Y17125D02*
X25625Y17375D01*
X25525Y17300D02*
X25725Y17300D01*
X24825Y13225D02*
X24825Y13125D01*
X24823Y13108D01*
X24819Y13091D01*
X24812Y13075D01*
X24802Y13061D01*
X24789Y13048D01*
X24775Y13038D01*
X24759Y13031D01*
X24742Y13027D01*
X24725Y13025D01*
X24475Y13025D01*
X24458Y13027D01*
X24441Y13031D01*
X24425Y13038D01*
X24411Y13048D01*
X24398Y13061D01*
X24388Y13075D01*
X24381Y13091D01*
X24377Y13108D01*
X24375Y13125D01*
X24375Y13225D01*
X24375Y13424D02*
X24825Y13424D01*
X24375Y13424D02*
X24375Y13549D01*
X24377Y13570D01*
X24382Y13590D01*
X24390Y13608D01*
X24401Y13626D01*
X24415Y13641D01*
X24432Y13654D01*
X24450Y13663D01*
X24469Y13670D01*
X24490Y13674D01*
X24510Y13674D01*
X24531Y13670D01*
X24550Y13663D01*
X24568Y13654D01*
X24585Y13641D01*
X24599Y13626D01*
X24610Y13608D01*
X24618Y13590D01*
X24623Y13570D01*
X24625Y13549D01*
X24625Y13424D01*
X24700Y13866D02*
X24375Y13866D01*
X24700Y13866D02*
X24721Y13868D01*
X24741Y13873D01*
X24759Y13881D01*
X24777Y13892D01*
X24792Y13906D01*
X24805Y13923D01*
X24814Y13941D01*
X24821Y13960D01*
X24825Y13981D01*
X24825Y14001D01*
X24821Y14022D01*
X24814Y14041D01*
X24805Y14059D01*
X24792Y14076D01*
X24777Y14090D01*
X24759Y14101D01*
X24741Y14109D01*
X24721Y14114D01*
X24700Y14116D01*
X24375Y14116D01*
X24650Y14336D02*
X24650Y14636D01*
X24700Y14856D02*
X24375Y14856D01*
X24700Y14856D02*
X24721Y14858D01*
X24741Y14863D01*
X24759Y14871D01*
X24777Y14882D01*
X24792Y14896D01*
X24805Y14913D01*
X24814Y14931D01*
X24821Y14950D01*
X24825Y14971D01*
X24825Y14991D01*
X24821Y15012D01*
X24814Y15031D01*
X24805Y15049D01*
X24792Y15066D01*
X24777Y15080D01*
X24759Y15091D01*
X24741Y15099D01*
X24721Y15104D01*
X24700Y15106D01*
X24375Y15106D01*
X24825Y15456D02*
X24823Y15473D01*
X24819Y15490D01*
X24812Y15506D01*
X24802Y15520D01*
X24789Y15533D01*
X24775Y15543D01*
X24759Y15550D01*
X24742Y15554D01*
X24725Y15556D01*
X24825Y15456D02*
X24823Y15428D01*
X24818Y15401D01*
X24809Y15375D01*
X24796Y15350D01*
X24781Y15327D01*
X24763Y15306D01*
X24475Y15319D02*
X24458Y15321D01*
X24441Y15325D01*
X24425Y15332D01*
X24411Y15342D01*
X24398Y15355D01*
X24388Y15369D01*
X24381Y15385D01*
X24377Y15402D01*
X24375Y15419D01*
X24377Y15443D01*
X24381Y15467D01*
X24389Y15490D01*
X24399Y15512D01*
X24413Y15532D01*
X24475Y15319D02*
X24493Y15321D01*
X24510Y15325D01*
X24526Y15332D01*
X24540Y15342D01*
X24553Y15355D01*
X24563Y15369D01*
X24637Y15507D02*
X24647Y15521D01*
X24660Y15534D01*
X24674Y15544D01*
X24690Y15551D01*
X24707Y15555D01*
X24725Y15557D01*
X24638Y15506D02*
X24563Y15369D01*
X24575Y15764D02*
X24575Y15889D01*
X24577Y15910D01*
X24582Y15930D01*
X24590Y15948D01*
X24601Y15966D01*
X24615Y15981D01*
X24632Y15994D01*
X24650Y16003D01*
X24669Y16010D01*
X24690Y16014D01*
X24710Y16014D01*
X24731Y16010D01*
X24750Y16003D01*
X24768Y15994D01*
X24785Y15981D01*
X24799Y15966D01*
X24810Y15948D01*
X24818Y15930D01*
X24823Y15910D01*
X24825Y15889D01*
X24825Y15764D01*
X24375Y15764D01*
X24375Y15889D01*
X24377Y15907D01*
X24382Y15925D01*
X24390Y15942D01*
X24401Y15956D01*
X24415Y15969D01*
X24430Y15979D01*
X24448Y15985D01*
X24466Y15989D01*
X24484Y15989D01*
X24502Y15985D01*
X24520Y15979D01*
X24535Y15969D01*
X24549Y15956D01*
X24560Y15942D01*
X24568Y15925D01*
X24573Y15907D01*
X24575Y15889D01*
X24650Y16196D02*
X24650Y16496D01*
X24825Y16716D02*
X24375Y16716D01*
X24575Y16716D02*
X24575Y16966D01*
X24375Y16966D02*
X24825Y16966D01*
X24825Y17197D02*
X24825Y17397D01*
X24825Y17197D02*
X24375Y17197D01*
X24375Y17397D01*
X24575Y17347D02*
X24575Y17197D01*
X24825Y17546D02*
X24375Y17696D01*
X24825Y17846D01*
X24713Y17809D02*
X24713Y17584D01*
X24825Y18036D02*
X24375Y18036D01*
X24375Y18161D01*
X24377Y18181D01*
X24381Y18200D01*
X24389Y18218D01*
X24399Y18234D01*
X24412Y18249D01*
X24427Y18262D01*
X24443Y18272D01*
X24461Y18280D01*
X24480Y18284D01*
X24500Y18286D01*
X24700Y18286D01*
X24720Y18284D01*
X24739Y18280D01*
X24757Y18272D01*
X24773Y18262D01*
X24788Y18249D01*
X24801Y18234D01*
X24811Y18218D01*
X24819Y18200D01*
X24823Y18181D01*
X24825Y18161D01*
X24825Y18036D01*
X24825Y18517D02*
X24825Y18717D01*
X24825Y18517D02*
X24375Y18517D01*
X24375Y18717D01*
X24575Y18667D02*
X24575Y18517D01*
X24375Y18910D02*
X24825Y18910D01*
X24375Y18910D02*
X24375Y19035D01*
X24377Y19056D01*
X24382Y19076D01*
X24390Y19094D01*
X24401Y19112D01*
X24415Y19127D01*
X24432Y19140D01*
X24450Y19149D01*
X24469Y19156D01*
X24490Y19160D01*
X24510Y19160D01*
X24531Y19156D01*
X24550Y19149D01*
X24568Y19140D01*
X24585Y19127D01*
X24599Y19112D01*
X24610Y19094D01*
X24618Y19076D01*
X24623Y19056D01*
X24625Y19035D01*
X24625Y18910D01*
X24625Y19060D02*
X24825Y19160D01*
D10*
X5500Y9750D02*
X5500Y9250D01*
X5250Y9000D01*
X4750Y9000D02*
X4500Y9250D01*
X5250Y9000D02*
X5500Y8750D01*
X5500Y8250D01*
X5250Y8000D01*
X4750Y8000D02*
X4500Y8250D01*
X4500Y8750D01*
X4750Y9000D01*
X4750Y10000D02*
X5250Y10000D01*
X5500Y9750D01*
X4750Y10000D02*
X4500Y9750D01*
X4500Y9250D01*
X5250Y8000D02*
X5500Y7750D01*
X5500Y7250D01*
X5250Y7000D01*
X4750Y7000D02*
X4500Y7250D01*
X4500Y7750D01*
X4750Y8000D01*
X5500Y6750D02*
X5500Y6250D01*
X5250Y6000D01*
X4750Y6000D01*
X4500Y6250D01*
X5250Y7000D02*
X5500Y6750D01*
X4750Y7000D02*
X4500Y6750D01*
X4500Y6250D01*
D11*
X4875Y10175D02*
X4775Y10300D01*
X5225Y10300D01*
X5225Y10175D02*
X5225Y10425D01*
X4775Y5725D02*
X5125Y5625D01*
X5125Y5875D01*
X5025Y5800D02*
X5225Y5800D01*
X5675Y5778D02*
X6125Y5778D01*
X6125Y5978D01*
X6125Y6250D02*
X6125Y6350D01*
X6125Y6250D02*
X6123Y6233D01*
X6119Y6216D01*
X6112Y6200D01*
X6102Y6186D01*
X6089Y6173D01*
X6075Y6163D01*
X6059Y6156D01*
X6042Y6152D01*
X6025Y6150D01*
X5775Y6150D01*
X5758Y6152D01*
X5741Y6156D01*
X5725Y6163D01*
X5711Y6173D01*
X5698Y6186D01*
X5688Y6200D01*
X5681Y6216D01*
X5677Y6233D01*
X5675Y6250D01*
X5675Y6350D01*
X5675Y6542D02*
X6125Y6542D01*
X5675Y6542D02*
X5675Y6667D01*
X5677Y6687D01*
X5681Y6706D01*
X5689Y6724D01*
X5699Y6740D01*
X5712Y6755D01*
X5727Y6768D01*
X5743Y6778D01*
X5761Y6786D01*
X5780Y6790D01*
X5800Y6792D01*
X6000Y6792D01*
X6020Y6790D01*
X6039Y6786D01*
X6057Y6778D01*
X6073Y6768D01*
X6088Y6755D01*
X6101Y6740D01*
X6111Y6724D01*
X6119Y6706D01*
X6123Y6687D01*
X6125Y6667D01*
X6125Y6542D01*
X5950Y7012D02*
X5950Y7312D01*
X6125Y7532D02*
X5675Y7532D01*
X5875Y7532D02*
X5875Y7782D01*
X5675Y7782D02*
X6125Y7782D01*
X6125Y8013D02*
X6125Y8213D01*
X6125Y8013D02*
X5675Y8013D01*
X5675Y8213D01*
X5875Y8163D02*
X5875Y8013D01*
X6125Y8362D02*
X5675Y8512D01*
X6125Y8662D01*
X6013Y8624D02*
X6013Y8399D01*
X6125Y8852D02*
X5675Y8852D01*
X5675Y8977D01*
X5677Y8997D01*
X5681Y9016D01*
X5689Y9034D01*
X5699Y9050D01*
X5712Y9065D01*
X5727Y9078D01*
X5743Y9088D01*
X5761Y9096D01*
X5780Y9100D01*
X5800Y9102D01*
X6000Y9102D01*
X6020Y9100D01*
X6039Y9096D01*
X6057Y9088D01*
X6073Y9078D01*
X6088Y9065D01*
X6101Y9050D01*
X6111Y9034D01*
X6119Y9016D01*
X6123Y8997D01*
X6125Y8977D01*
X6125Y8852D01*
X6125Y9333D02*
X6125Y9533D01*
X6125Y9333D02*
X5675Y9333D01*
X5675Y9533D01*
X5875Y9483D02*
X5875Y9333D01*
X5675Y9725D02*
X6125Y9725D01*
X5675Y9725D02*
X5675Y9850D01*
X5677Y9871D01*
X5682Y9891D01*
X5690Y9909D01*
X5701Y9927D01*
X5715Y9942D01*
X5732Y9955D01*
X5750Y9964D01*
X5769Y9971D01*
X5790Y9975D01*
X5810Y9975D01*
X5831Y9971D01*
X5850Y9964D01*
X5868Y9955D01*
X5885Y9942D01*
X5899Y9927D01*
X5910Y9909D01*
X5918Y9891D01*
X5923Y9871D01*
X5925Y9850D01*
X5925Y9725D01*
X5925Y9875D02*
X6125Y9975D01*
D13*
X22750Y3000D02*
X29250Y3000D01*
X22750Y3000D02*
X22750Y11000D01*
X29250Y11000D01*
X29250Y3000D01*
D11*
X26779Y4375D02*
X26779Y4725D01*
X26896Y4531D01*
X27012Y4725D01*
X27012Y4375D01*
X27299Y4375D02*
X27314Y4376D01*
X27329Y4381D01*
X27342Y4388D01*
X27354Y4398D01*
X27364Y4410D01*
X27371Y4423D01*
X27376Y4438D01*
X27377Y4453D01*
X27299Y4375D02*
X27277Y4376D01*
X27256Y4381D01*
X27236Y4388D01*
X27217Y4397D01*
X27199Y4409D01*
X27183Y4424D01*
X27192Y4647D02*
X27193Y4662D01*
X27198Y4677D01*
X27205Y4690D01*
X27215Y4702D01*
X27227Y4712D01*
X27240Y4719D01*
X27255Y4724D01*
X27270Y4725D01*
X27293Y4723D01*
X27316Y4718D01*
X27338Y4708D01*
X27358Y4696D01*
X27231Y4579D02*
X27218Y4589D01*
X27207Y4601D01*
X27199Y4615D01*
X27194Y4631D01*
X27192Y4647D01*
X27338Y4521D02*
X27351Y4511D01*
X27362Y4499D01*
X27370Y4485D01*
X27375Y4469D01*
X27377Y4453D01*
X27338Y4521D02*
X27231Y4579D01*
X27531Y4647D02*
X27628Y4725D01*
X27628Y4375D01*
X27531Y4375D02*
X27725Y4375D01*
X26779Y5375D02*
X26779Y5725D01*
X26896Y5531D01*
X27012Y5725D01*
X27012Y5375D01*
X27299Y5375D02*
X27314Y5376D01*
X27329Y5381D01*
X27342Y5388D01*
X27354Y5398D01*
X27364Y5410D01*
X27371Y5423D01*
X27376Y5438D01*
X27377Y5453D01*
X27299Y5375D02*
X27277Y5376D01*
X27256Y5381D01*
X27236Y5388D01*
X27217Y5397D01*
X27199Y5409D01*
X27183Y5424D01*
X27192Y5647D02*
X27193Y5662D01*
X27198Y5677D01*
X27205Y5690D01*
X27215Y5702D01*
X27227Y5712D01*
X27240Y5719D01*
X27255Y5724D01*
X27270Y5725D01*
X27293Y5723D01*
X27316Y5718D01*
X27338Y5708D01*
X27358Y5696D01*
X27231Y5579D02*
X27218Y5589D01*
X27207Y5601D01*
X27199Y5615D01*
X27194Y5631D01*
X27192Y5647D01*
X27338Y5521D02*
X27351Y5511D01*
X27362Y5499D01*
X27370Y5485D01*
X27375Y5469D01*
X27377Y5453D01*
X27338Y5521D02*
X27231Y5579D01*
X27638Y5726D02*
X27655Y5724D01*
X27672Y5719D01*
X27687Y5711D01*
X27700Y5700D01*
X27711Y5687D01*
X27719Y5672D01*
X27724Y5655D01*
X27726Y5638D01*
X27638Y5725D02*
X27618Y5723D01*
X27599Y5718D01*
X27581Y5709D01*
X27564Y5697D01*
X27550Y5683D01*
X27539Y5666D01*
X27531Y5648D01*
X27696Y5570D02*
X27708Y5584D01*
X27717Y5601D01*
X27723Y5619D01*
X27725Y5638D01*
X27696Y5569D02*
X27531Y5375D01*
X27725Y5375D01*
X26779Y6375D02*
X26779Y6725D01*
X26896Y6531D01*
X27012Y6725D01*
X27012Y6375D01*
X27299Y6375D02*
X27314Y6376D01*
X27329Y6381D01*
X27342Y6388D01*
X27354Y6398D01*
X27364Y6410D01*
X27371Y6423D01*
X27376Y6438D01*
X27377Y6453D01*
X27299Y6375D02*
X27277Y6376D01*
X27256Y6381D01*
X27236Y6388D01*
X27217Y6397D01*
X27199Y6409D01*
X27183Y6424D01*
X27192Y6647D02*
X27193Y6662D01*
X27198Y6677D01*
X27205Y6690D01*
X27215Y6702D01*
X27227Y6712D01*
X27240Y6719D01*
X27255Y6724D01*
X27270Y6725D01*
X27293Y6723D01*
X27316Y6718D01*
X27338Y6708D01*
X27358Y6696D01*
X27231Y6579D02*
X27218Y6589D01*
X27207Y6601D01*
X27199Y6615D01*
X27194Y6631D01*
X27192Y6647D01*
X27338Y6521D02*
X27351Y6511D01*
X27362Y6499D01*
X27370Y6485D01*
X27375Y6469D01*
X27377Y6453D01*
X27338Y6521D02*
X27231Y6579D01*
X27531Y6375D02*
X27628Y6375D01*
X27646Y6377D01*
X27663Y6382D01*
X27679Y6390D01*
X27693Y6400D01*
X27705Y6414D01*
X27715Y6429D01*
X27721Y6445D01*
X27725Y6463D01*
X27725Y6481D01*
X27721Y6499D01*
X27715Y6515D01*
X27705Y6530D01*
X27693Y6544D01*
X27679Y6554D01*
X27663Y6562D01*
X27646Y6567D01*
X27628Y6569D01*
X27647Y6725D02*
X27531Y6725D01*
X27647Y6725D02*
X27663Y6723D01*
X27679Y6718D01*
X27693Y6710D01*
X27705Y6699D01*
X27715Y6686D01*
X27721Y6671D01*
X27725Y6655D01*
X27725Y6639D01*
X27721Y6623D01*
X27715Y6608D01*
X27705Y6595D01*
X27693Y6584D01*
X27679Y6576D01*
X27663Y6571D01*
X27647Y6569D01*
X27569Y6569D01*
X27750Y7825D02*
X26213Y7825D01*
X26238Y7725D02*
X26238Y7375D01*
X26238Y7725D02*
X26335Y7725D01*
X26353Y7723D01*
X26370Y7718D01*
X26386Y7710D01*
X26400Y7700D01*
X26412Y7686D01*
X26422Y7671D01*
X26428Y7655D01*
X26432Y7637D01*
X26432Y7619D01*
X26428Y7601D01*
X26422Y7585D01*
X26412Y7570D01*
X26400Y7556D01*
X26386Y7546D01*
X26370Y7538D01*
X26353Y7533D01*
X26335Y7531D01*
X26238Y7531D01*
X26354Y7531D02*
X26432Y7375D01*
X26607Y7375D02*
X26763Y7375D01*
X26607Y7375D02*
X26607Y7725D01*
X26763Y7725D01*
X26724Y7569D02*
X26607Y7569D01*
X27011Y7375D02*
X27026Y7376D01*
X27041Y7381D01*
X27054Y7388D01*
X27066Y7398D01*
X27076Y7410D01*
X27083Y7423D01*
X27088Y7438D01*
X27089Y7453D01*
X27011Y7375D02*
X26989Y7376D01*
X26968Y7381D01*
X26948Y7388D01*
X26929Y7397D01*
X26911Y7409D01*
X26895Y7424D01*
X26904Y7647D02*
X26905Y7662D01*
X26910Y7677D01*
X26917Y7690D01*
X26927Y7702D01*
X26939Y7712D01*
X26952Y7719D01*
X26967Y7724D01*
X26982Y7725D01*
X27005Y7723D01*
X27028Y7718D01*
X27050Y7708D01*
X27070Y7696D01*
X26943Y7579D02*
X26930Y7589D01*
X26919Y7601D01*
X26911Y7615D01*
X26906Y7631D01*
X26904Y7647D01*
X27050Y7521D02*
X27063Y7511D01*
X27074Y7499D01*
X27082Y7485D01*
X27087Y7469D01*
X27089Y7453D01*
X27050Y7521D02*
X26943Y7579D01*
X27255Y7375D02*
X27411Y7375D01*
X27255Y7375D02*
X27255Y7725D01*
X27411Y7725D01*
X27372Y7569D02*
X27255Y7569D01*
X27628Y7725D02*
X27628Y7375D01*
X27531Y7725D02*
X27725Y7725D01*
X27750Y8825D02*
X26203Y8825D01*
X26422Y8453D02*
X26421Y8438D01*
X26416Y8423D01*
X26409Y8410D01*
X26399Y8398D01*
X26387Y8388D01*
X26374Y8381D01*
X26359Y8376D01*
X26344Y8375D01*
X26322Y8376D01*
X26301Y8381D01*
X26281Y8388D01*
X26262Y8397D01*
X26244Y8409D01*
X26228Y8424D01*
X26237Y8647D02*
X26238Y8662D01*
X26243Y8677D01*
X26250Y8690D01*
X26260Y8702D01*
X26272Y8712D01*
X26285Y8719D01*
X26300Y8724D01*
X26315Y8725D01*
X26338Y8723D01*
X26361Y8718D01*
X26383Y8708D01*
X26403Y8696D01*
X26276Y8579D02*
X26263Y8589D01*
X26252Y8601D01*
X26244Y8615D01*
X26239Y8631D01*
X26237Y8647D01*
X26383Y8521D02*
X26396Y8511D01*
X26407Y8499D01*
X26415Y8485D01*
X26420Y8469D01*
X26422Y8453D01*
X26383Y8521D02*
X26276Y8579D01*
X26589Y8725D02*
X26589Y8375D01*
X26744Y8375D01*
X26901Y8375D02*
X27056Y8375D01*
X26901Y8375D02*
X26901Y8725D01*
X27056Y8725D01*
X27017Y8569D02*
X26901Y8569D01*
X27213Y8375D02*
X27368Y8375D01*
X27213Y8375D02*
X27213Y8725D01*
X27368Y8725D01*
X27329Y8569D02*
X27213Y8569D01*
X27531Y8725D02*
X27531Y8375D01*
X27531Y8725D02*
X27628Y8725D01*
X27646Y8723D01*
X27663Y8718D01*
X27679Y8710D01*
X27693Y8700D01*
X27705Y8686D01*
X27715Y8671D01*
X27721Y8655D01*
X27725Y8637D01*
X27725Y8619D01*
X27721Y8601D01*
X27715Y8585D01*
X27705Y8570D01*
X27693Y8556D01*
X27679Y8546D01*
X27663Y8538D01*
X27646Y8533D01*
X27628Y8531D01*
X27531Y8531D01*
X26656Y9375D02*
X26671Y9376D01*
X26686Y9381D01*
X26699Y9388D01*
X26711Y9398D01*
X26721Y9410D01*
X26728Y9423D01*
X26733Y9438D01*
X26734Y9453D01*
X26656Y9375D02*
X26634Y9376D01*
X26613Y9381D01*
X26593Y9388D01*
X26574Y9397D01*
X26556Y9409D01*
X26540Y9424D01*
X26549Y9647D02*
X26550Y9662D01*
X26555Y9677D01*
X26562Y9690D01*
X26572Y9702D01*
X26584Y9712D01*
X26597Y9719D01*
X26612Y9724D01*
X26627Y9725D01*
X26650Y9723D01*
X26673Y9718D01*
X26695Y9708D01*
X26715Y9696D01*
X26588Y9579D02*
X26575Y9589D01*
X26564Y9601D01*
X26556Y9615D01*
X26551Y9631D01*
X26549Y9647D01*
X26695Y9521D02*
X26708Y9511D01*
X26719Y9499D01*
X26727Y9485D01*
X26732Y9469D01*
X26734Y9453D01*
X26695Y9521D02*
X26588Y9579D01*
X26961Y9725D02*
X26961Y9375D01*
X26864Y9725D02*
X27058Y9725D01*
X27213Y9375D02*
X27368Y9375D01*
X27213Y9375D02*
X27213Y9725D01*
X27368Y9725D01*
X27329Y9569D02*
X27213Y9569D01*
X27531Y9725D02*
X27531Y9375D01*
X27531Y9725D02*
X27628Y9725D01*
X27646Y9723D01*
X27663Y9718D01*
X27679Y9710D01*
X27693Y9700D01*
X27705Y9686D01*
X27715Y9671D01*
X27721Y9655D01*
X27725Y9637D01*
X27725Y9619D01*
X27721Y9601D01*
X27715Y9585D01*
X27705Y9570D01*
X27693Y9556D01*
X27679Y9546D01*
X27663Y9538D01*
X27646Y9533D01*
X27628Y9531D01*
X27531Y9531D01*
X26928Y10375D02*
X26928Y10725D01*
X27025Y10725D01*
X27042Y10724D01*
X27058Y10719D01*
X27074Y10712D01*
X27087Y10702D01*
X27099Y10690D01*
X27109Y10677D01*
X27116Y10661D01*
X27121Y10645D01*
X27122Y10628D01*
X27122Y10472D01*
X27121Y10455D01*
X27116Y10439D01*
X27109Y10424D01*
X27099Y10410D01*
X27087Y10398D01*
X27074Y10388D01*
X27058Y10381D01*
X27042Y10376D01*
X27025Y10375D01*
X26928Y10375D01*
X27325Y10375D02*
X27325Y10725D01*
X27286Y10375D02*
X27364Y10375D01*
X27364Y10725D02*
X27286Y10725D01*
X27531Y10725D02*
X27531Y10375D01*
X27531Y10725D02*
X27628Y10725D01*
X27646Y10723D01*
X27663Y10718D01*
X27679Y10710D01*
X27693Y10700D01*
X27705Y10686D01*
X27715Y10671D01*
X27721Y10655D01*
X27725Y10637D01*
X27725Y10619D01*
X27721Y10601D01*
X27715Y10585D01*
X27705Y10570D01*
X27693Y10556D01*
X27679Y10546D01*
X27663Y10538D01*
X27646Y10533D01*
X27628Y10531D01*
X27531Y10531D01*
X27647Y10531D02*
X27725Y10375D01*
X27750Y3825D02*
X26803Y3825D01*
X26828Y3375D02*
X26984Y3375D01*
X26828Y3375D02*
X26828Y3725D01*
X26984Y3725D01*
X26945Y3569D02*
X26828Y3569D01*
X27139Y3725D02*
X27139Y3375D01*
X27334Y3375D02*
X27139Y3725D01*
X27334Y3725D02*
X27334Y3375D01*
X27492Y3375D02*
X27608Y3725D01*
X27725Y3375D01*
X27696Y3463D02*
X27521Y3463D01*
X24500Y3375D02*
X24383Y3725D01*
X24616Y3725D02*
X24500Y3375D01*
X24779Y3375D02*
X24779Y3725D01*
X24896Y3531D01*
X25012Y3725D01*
X25012Y3375D01*
X25195Y3472D02*
X25195Y3628D01*
X25197Y3646D01*
X25202Y3663D01*
X25210Y3679D01*
X25220Y3693D01*
X25234Y3705D01*
X25249Y3715D01*
X25265Y3721D01*
X25283Y3725D01*
X25301Y3725D01*
X25319Y3721D01*
X25335Y3715D01*
X25350Y3705D01*
X25364Y3693D01*
X25374Y3679D01*
X25382Y3663D01*
X25387Y3646D01*
X25389Y3628D01*
X25389Y3472D01*
X25387Y3454D01*
X25382Y3437D01*
X25374Y3421D01*
X25364Y3407D01*
X25350Y3395D01*
X25335Y3385D01*
X25319Y3379D01*
X25301Y3375D01*
X25283Y3375D01*
X25265Y3379D01*
X25249Y3385D01*
X25234Y3395D01*
X25220Y3407D01*
X25210Y3421D01*
X25202Y3437D01*
X25197Y3454D01*
X25195Y3472D01*
X25628Y3375D02*
X25628Y3725D01*
X25531Y3725D02*
X25725Y3725D01*
X24085Y4375D02*
X24085Y4725D01*
X24202Y4531D01*
X24318Y4725D01*
X24318Y4375D01*
X24649Y4569D02*
X24707Y4569D01*
X24707Y4375D01*
X24590Y4375D01*
X24575Y4376D01*
X24560Y4381D01*
X24547Y4388D01*
X24535Y4398D01*
X24525Y4410D01*
X24518Y4423D01*
X24513Y4438D01*
X24512Y4453D01*
X24513Y4453D02*
X24513Y4647D01*
X24512Y4647D02*
X24514Y4664D01*
X24520Y4681D01*
X24529Y4696D01*
X24541Y4708D01*
X24556Y4717D01*
X24573Y4723D01*
X24590Y4725D01*
X24707Y4725D01*
X24897Y4725D02*
X24897Y4375D01*
X25091Y4375D02*
X24897Y4725D01*
X25091Y4725D02*
X25091Y4375D01*
X25281Y4375D02*
X25281Y4725D01*
X25378Y4725D01*
X25395Y4724D01*
X25411Y4719D01*
X25427Y4712D01*
X25440Y4702D01*
X25452Y4690D01*
X25462Y4677D01*
X25469Y4661D01*
X25474Y4645D01*
X25475Y4628D01*
X25475Y4472D01*
X25474Y4455D01*
X25469Y4439D01*
X25462Y4424D01*
X25452Y4410D01*
X25440Y4398D01*
X25427Y4388D01*
X25411Y4381D01*
X25395Y4376D01*
X25378Y4375D01*
X25281Y4375D01*
X24707Y10569D02*
X24649Y10569D01*
X24707Y10569D02*
X24707Y10375D01*
X24590Y10375D01*
X24575Y10376D01*
X24560Y10381D01*
X24547Y10388D01*
X24535Y10398D01*
X24525Y10410D01*
X24518Y10423D01*
X24513Y10438D01*
X24512Y10453D01*
X24513Y10453D02*
X24513Y10647D01*
X24512Y10647D02*
X24514Y10664D01*
X24520Y10681D01*
X24529Y10696D01*
X24541Y10708D01*
X24556Y10717D01*
X24573Y10723D01*
X24590Y10725D01*
X24707Y10725D01*
X24897Y10725D02*
X24897Y10375D01*
X25091Y10375D02*
X24897Y10725D01*
X25091Y10725D02*
X25091Y10375D01*
X25281Y10375D02*
X25281Y10725D01*
X25378Y10725D01*
X25395Y10724D01*
X25411Y10719D01*
X25427Y10712D01*
X25440Y10702D01*
X25452Y10690D01*
X25462Y10677D01*
X25469Y10661D01*
X25474Y10645D01*
X25475Y10628D01*
X25475Y10472D01*
X25474Y10455D01*
X25469Y10439D01*
X25462Y10424D01*
X25452Y10410D01*
X25440Y10398D01*
X25427Y10388D01*
X25411Y10381D01*
X25395Y10376D01*
X25378Y10375D01*
X25281Y10375D01*
X24505Y9725D02*
X24622Y9375D01*
X24738Y9725D01*
X24897Y9725D02*
X24897Y9375D01*
X24897Y9725D02*
X24994Y9725D01*
X25011Y9724D01*
X25027Y9719D01*
X25043Y9712D01*
X25056Y9702D01*
X25068Y9690D01*
X25078Y9677D01*
X25085Y9661D01*
X25090Y9645D01*
X25091Y9628D01*
X25091Y9472D01*
X25090Y9455D01*
X25085Y9439D01*
X25078Y9424D01*
X25068Y9410D01*
X25056Y9398D01*
X25043Y9388D01*
X25027Y9381D01*
X25011Y9376D01*
X24994Y9375D01*
X24897Y9375D01*
X25281Y9375D02*
X25281Y9725D01*
X25378Y9725D01*
X25395Y9724D01*
X25411Y9719D01*
X25427Y9712D01*
X25440Y9702D01*
X25452Y9690D01*
X25462Y9677D01*
X25469Y9661D01*
X25474Y9645D01*
X25475Y9628D01*
X25475Y9472D01*
X25474Y9455D01*
X25469Y9439D01*
X25462Y9424D01*
X25452Y9410D01*
X25440Y9398D01*
X25427Y9388D01*
X25411Y9381D01*
X25395Y9376D01*
X25378Y9375D01*
X25281Y9375D01*
X24508Y6726D02*
X24525Y6724D01*
X24542Y6719D01*
X24557Y6711D01*
X24570Y6700D01*
X24581Y6687D01*
X24589Y6672D01*
X24594Y6655D01*
X24596Y6638D01*
X24508Y6725D02*
X24488Y6723D01*
X24469Y6718D01*
X24451Y6709D01*
X24434Y6697D01*
X24420Y6683D01*
X24409Y6666D01*
X24401Y6648D01*
X24567Y6570D02*
X24579Y6584D01*
X24588Y6601D01*
X24594Y6619D01*
X24596Y6638D01*
X24566Y6569D02*
X24401Y6375D01*
X24596Y6375D01*
X24742Y6375D02*
X24858Y6725D01*
X24975Y6375D01*
X24946Y6463D02*
X24771Y6463D01*
X24401Y7647D02*
X24498Y7725D01*
X24498Y7375D01*
X24401Y7375D02*
X24596Y7375D01*
X24742Y7375D02*
X24858Y7725D01*
X24975Y7375D01*
X24946Y7463D02*
X24771Y7463D01*
X24402Y8647D02*
X24499Y8725D01*
X24499Y8375D01*
X24402Y8375D02*
X24596Y8375D01*
X24781Y8569D02*
X24878Y8569D01*
X24896Y8567D01*
X24913Y8562D01*
X24929Y8554D01*
X24943Y8544D01*
X24955Y8530D01*
X24965Y8515D01*
X24971Y8499D01*
X24975Y8481D01*
X24975Y8463D01*
X24971Y8445D01*
X24965Y8429D01*
X24955Y8414D01*
X24943Y8400D01*
X24929Y8390D01*
X24913Y8382D01*
X24896Y8377D01*
X24878Y8375D01*
X24781Y8375D01*
X24781Y8725D01*
X24878Y8725D01*
X24894Y8723D01*
X24910Y8718D01*
X24924Y8710D01*
X24936Y8699D01*
X24946Y8686D01*
X24952Y8671D01*
X24956Y8655D01*
X24956Y8639D01*
X24952Y8623D01*
X24946Y8608D01*
X24936Y8595D01*
X24924Y8584D01*
X24910Y8576D01*
X24894Y8571D01*
X24878Y8569D01*
X24509Y5726D02*
X24526Y5724D01*
X24543Y5719D01*
X24558Y5711D01*
X24571Y5700D01*
X24582Y5687D01*
X24590Y5672D01*
X24595Y5655D01*
X24597Y5638D01*
X24509Y5725D02*
X24489Y5723D01*
X24470Y5718D01*
X24452Y5709D01*
X24435Y5697D01*
X24421Y5683D01*
X24410Y5666D01*
X24402Y5648D01*
X24567Y5570D02*
X24579Y5584D01*
X24588Y5601D01*
X24594Y5619D01*
X24596Y5638D01*
X24567Y5569D02*
X24402Y5375D01*
X24596Y5375D01*
X24781Y5569D02*
X24878Y5569D01*
X24896Y5567D01*
X24913Y5562D01*
X24929Y5554D01*
X24943Y5544D01*
X24955Y5530D01*
X24965Y5515D01*
X24971Y5499D01*
X24975Y5481D01*
X24975Y5463D01*
X24971Y5445D01*
X24965Y5429D01*
X24955Y5414D01*
X24943Y5400D01*
X24929Y5390D01*
X24913Y5382D01*
X24896Y5377D01*
X24878Y5375D01*
X24781Y5375D01*
X24781Y5725D01*
X24878Y5725D01*
X24894Y5723D01*
X24910Y5718D01*
X24924Y5710D01*
X24936Y5699D01*
X24946Y5686D01*
X24952Y5671D01*
X24956Y5655D01*
X24956Y5639D01*
X24952Y5623D01*
X24946Y5608D01*
X24936Y5595D01*
X24924Y5584D01*
X24910Y5576D01*
X24894Y5571D01*
X24878Y5569D01*
X25915Y2425D02*
X25913Y2408D01*
X25909Y2391D01*
X25902Y2375D01*
X25892Y2361D01*
X25879Y2348D01*
X25865Y2338D01*
X25849Y2331D01*
X25832Y2327D01*
X25815Y2325D01*
X25787Y2327D01*
X25760Y2332D01*
X25734Y2341D01*
X25709Y2354D01*
X25686Y2369D01*
X25665Y2387D01*
X25678Y2675D02*
X25680Y2692D01*
X25684Y2709D01*
X25691Y2725D01*
X25701Y2739D01*
X25714Y2752D01*
X25728Y2762D01*
X25744Y2769D01*
X25761Y2773D01*
X25778Y2775D01*
X25778Y2776D02*
X25802Y2774D01*
X25826Y2770D01*
X25849Y2762D01*
X25871Y2752D01*
X25891Y2738D01*
X25727Y2587D02*
X25713Y2597D01*
X25700Y2610D01*
X25690Y2624D01*
X25683Y2640D01*
X25679Y2657D01*
X25677Y2675D01*
X25865Y2513D02*
X25879Y2503D01*
X25892Y2490D01*
X25902Y2476D01*
X25909Y2460D01*
X25913Y2443D01*
X25915Y2425D01*
X25865Y2513D02*
X25728Y2588D01*
X26195Y2775D02*
X26195Y2325D01*
X26070Y2775D02*
X26320Y2775D01*
X26506Y2325D02*
X26706Y2325D01*
X26506Y2325D02*
X26506Y2775D01*
X26706Y2775D01*
X26656Y2575D02*
X26506Y2575D01*
X26903Y2775D02*
X26903Y2325D01*
X26903Y2775D02*
X27028Y2775D01*
X27049Y2773D01*
X27069Y2768D01*
X27087Y2760D01*
X27105Y2749D01*
X27120Y2735D01*
X27133Y2718D01*
X27142Y2700D01*
X27149Y2681D01*
X27153Y2660D01*
X27153Y2640D01*
X27149Y2619D01*
X27142Y2600D01*
X27133Y2582D01*
X27120Y2565D01*
X27105Y2551D01*
X27087Y2540D01*
X27069Y2532D01*
X27049Y2527D01*
X27028Y2525D01*
X26903Y2525D01*
X27345Y2325D02*
X27345Y2775D01*
X27470Y2775D01*
X27490Y2773D01*
X27509Y2769D01*
X27527Y2761D01*
X27543Y2751D01*
X27558Y2738D01*
X27571Y2723D01*
X27581Y2707D01*
X27589Y2689D01*
X27593Y2670D01*
X27595Y2650D01*
X27595Y2450D01*
X27593Y2430D01*
X27589Y2411D01*
X27581Y2393D01*
X27571Y2377D01*
X27558Y2362D01*
X27543Y2349D01*
X27527Y2339D01*
X27509Y2331D01*
X27490Y2327D01*
X27470Y2325D01*
X27345Y2325D01*
X27828Y2325D02*
X27828Y2775D01*
X27953Y2775D01*
X27974Y2773D01*
X27994Y2768D01*
X28012Y2760D01*
X28030Y2749D01*
X28045Y2735D01*
X28058Y2718D01*
X28067Y2700D01*
X28074Y2681D01*
X28078Y2660D01*
X28078Y2640D01*
X28074Y2619D01*
X28067Y2600D01*
X28058Y2582D01*
X28045Y2565D01*
X28030Y2551D01*
X28012Y2540D01*
X27994Y2532D01*
X27974Y2527D01*
X27953Y2525D01*
X27828Y2525D01*
X27978Y2525D02*
X28078Y2325D01*
X28400Y2325D02*
X28250Y2775D01*
X28550Y2775D02*
X28400Y2325D01*
X28725Y2675D02*
X28850Y2775D01*
X28850Y2325D01*
X28725Y2325D02*
X28975Y2325D01*
D13*
X14750Y9500D02*
X8250Y9500D01*
X14750Y9500D02*
X14750Y1500D01*
X8250Y1500D01*
X8250Y9500D01*
D11*
X9775Y8125D02*
X9775Y7775D01*
X9892Y7931D02*
X9775Y8125D01*
X9892Y7931D02*
X10008Y8125D01*
X10008Y7775D01*
X10295Y7775D02*
X10310Y7776D01*
X10325Y7781D01*
X10338Y7788D01*
X10350Y7798D01*
X10360Y7810D01*
X10367Y7823D01*
X10372Y7838D01*
X10373Y7853D01*
X10295Y7775D02*
X10273Y7776D01*
X10252Y7781D01*
X10232Y7788D01*
X10213Y7797D01*
X10195Y7809D01*
X10179Y7824D01*
X10188Y8047D02*
X10189Y8062D01*
X10194Y8077D01*
X10201Y8090D01*
X10211Y8102D01*
X10223Y8112D01*
X10236Y8119D01*
X10251Y8124D01*
X10266Y8125D01*
X10289Y8123D01*
X10312Y8118D01*
X10334Y8108D01*
X10354Y8096D01*
X10227Y7979D02*
X10214Y7989D01*
X10203Y8001D01*
X10195Y8015D01*
X10190Y8031D01*
X10188Y8047D01*
X10334Y7921D02*
X10347Y7911D01*
X10358Y7899D01*
X10366Y7885D01*
X10371Y7869D01*
X10373Y7853D01*
X10334Y7921D02*
X10227Y7979D01*
X10526Y8047D02*
X10624Y8125D01*
X10624Y7775D01*
X10721Y7775D02*
X10526Y7775D01*
X9775Y7125D02*
X9775Y6775D01*
X9892Y6931D02*
X9775Y7125D01*
X9892Y6931D02*
X10008Y7125D01*
X10008Y6775D01*
X10295Y6775D02*
X10310Y6776D01*
X10325Y6781D01*
X10338Y6788D01*
X10350Y6798D01*
X10360Y6810D01*
X10367Y6823D01*
X10372Y6838D01*
X10373Y6853D01*
X10295Y6775D02*
X10273Y6776D01*
X10252Y6781D01*
X10232Y6788D01*
X10213Y6797D01*
X10195Y6809D01*
X10179Y6824D01*
X10188Y7047D02*
X10189Y7062D01*
X10194Y7077D01*
X10201Y7090D01*
X10211Y7102D01*
X10223Y7112D01*
X10236Y7119D01*
X10251Y7124D01*
X10266Y7125D01*
X10289Y7123D01*
X10312Y7118D01*
X10334Y7108D01*
X10354Y7096D01*
X10227Y6979D02*
X10214Y6989D01*
X10203Y7001D01*
X10195Y7015D01*
X10190Y7031D01*
X10188Y7047D01*
X10334Y6921D02*
X10347Y6911D01*
X10358Y6899D01*
X10366Y6885D01*
X10371Y6869D01*
X10373Y6853D01*
X10334Y6921D02*
X10227Y6979D01*
X10633Y7126D02*
X10650Y7124D01*
X10667Y7119D01*
X10682Y7111D01*
X10695Y7100D01*
X10706Y7087D01*
X10714Y7072D01*
X10719Y7055D01*
X10721Y7038D01*
X10633Y7125D02*
X10613Y7123D01*
X10594Y7118D01*
X10576Y7109D01*
X10559Y7097D01*
X10545Y7083D01*
X10534Y7066D01*
X10526Y7048D01*
X10692Y6970D02*
X10704Y6984D01*
X10713Y7001D01*
X10719Y7019D01*
X10721Y7038D01*
X10692Y6969D02*
X10526Y6775D01*
X10721Y6775D01*
X9775Y6125D02*
X9775Y5775D01*
X9892Y5931D02*
X9775Y6125D01*
X9892Y5931D02*
X10008Y6125D01*
X10008Y5775D01*
X10295Y5775D02*
X10310Y5776D01*
X10325Y5781D01*
X10338Y5788D01*
X10350Y5798D01*
X10360Y5810D01*
X10367Y5823D01*
X10372Y5838D01*
X10373Y5853D01*
X10295Y5775D02*
X10273Y5776D01*
X10252Y5781D01*
X10232Y5788D01*
X10213Y5797D01*
X10195Y5809D01*
X10179Y5824D01*
X10188Y6047D02*
X10189Y6062D01*
X10194Y6077D01*
X10201Y6090D01*
X10211Y6102D01*
X10223Y6112D01*
X10236Y6119D01*
X10251Y6124D01*
X10266Y6125D01*
X10289Y6123D01*
X10312Y6118D01*
X10334Y6108D01*
X10354Y6096D01*
X10227Y5979D02*
X10214Y5989D01*
X10203Y6001D01*
X10195Y6015D01*
X10190Y6031D01*
X10188Y6047D01*
X10334Y5921D02*
X10347Y5911D01*
X10358Y5899D01*
X10366Y5885D01*
X10371Y5869D01*
X10373Y5853D01*
X10334Y5921D02*
X10227Y5979D01*
X10526Y5775D02*
X10624Y5775D01*
X10642Y5777D01*
X10659Y5782D01*
X10675Y5790D01*
X10689Y5800D01*
X10701Y5814D01*
X10711Y5829D01*
X10717Y5845D01*
X10721Y5863D01*
X10721Y5881D01*
X10717Y5899D01*
X10711Y5915D01*
X10701Y5930D01*
X10689Y5944D01*
X10675Y5954D01*
X10659Y5962D01*
X10642Y5967D01*
X10624Y5969D01*
X10643Y6125D02*
X10526Y6125D01*
X10643Y6125D02*
X10659Y6123D01*
X10675Y6118D01*
X10689Y6110D01*
X10701Y6099D01*
X10711Y6086D01*
X10717Y6071D01*
X10721Y6055D01*
X10721Y6039D01*
X10717Y6023D01*
X10711Y6008D01*
X10701Y5995D01*
X10689Y5984D01*
X10675Y5976D01*
X10659Y5971D01*
X10643Y5969D01*
X10565Y5969D01*
X11287Y5225D02*
X9750Y5225D01*
X9775Y5125D02*
X9775Y4775D01*
X9775Y5125D02*
X9872Y5125D01*
X9890Y5123D01*
X9907Y5118D01*
X9923Y5110D01*
X9937Y5100D01*
X9949Y5086D01*
X9959Y5071D01*
X9965Y5055D01*
X9969Y5037D01*
X9969Y5019D01*
X9965Y5001D01*
X9959Y4985D01*
X9949Y4970D01*
X9937Y4956D01*
X9923Y4946D01*
X9907Y4938D01*
X9890Y4933D01*
X9872Y4931D01*
X9775Y4931D01*
X9892Y4931D02*
X9969Y4775D01*
X10145Y4775D02*
X10300Y4775D01*
X10145Y4775D02*
X10145Y5125D01*
X10300Y5125D01*
X10262Y4969D02*
X10145Y4969D01*
X10549Y4775D02*
X10564Y4776D01*
X10579Y4781D01*
X10592Y4788D01*
X10604Y4798D01*
X10614Y4810D01*
X10621Y4823D01*
X10626Y4838D01*
X10627Y4853D01*
X10549Y4775D02*
X10527Y4776D01*
X10506Y4781D01*
X10486Y4788D01*
X10467Y4797D01*
X10449Y4809D01*
X10433Y4824D01*
X10442Y5047D02*
X10443Y5062D01*
X10448Y5077D01*
X10455Y5090D01*
X10465Y5102D01*
X10477Y5112D01*
X10490Y5119D01*
X10505Y5124D01*
X10520Y5125D01*
X10543Y5123D01*
X10566Y5118D01*
X10588Y5108D01*
X10608Y5096D01*
X10481Y4979D02*
X10468Y4989D01*
X10457Y5001D01*
X10449Y5015D01*
X10444Y5031D01*
X10442Y5047D01*
X10587Y4921D02*
X10600Y4911D01*
X10611Y4899D01*
X10619Y4885D01*
X10624Y4869D01*
X10626Y4853D01*
X10588Y4921D02*
X10481Y4979D01*
X10793Y4775D02*
X10948Y4775D01*
X10793Y4775D02*
X10793Y5125D01*
X10948Y5125D01*
X10910Y4969D02*
X10793Y4969D01*
X11165Y5125D02*
X11165Y4775D01*
X11068Y5125D02*
X11262Y5125D01*
X11297Y4225D02*
X9750Y4225D01*
X9970Y3853D02*
X9969Y3838D01*
X9964Y3823D01*
X9957Y3810D01*
X9947Y3798D01*
X9935Y3788D01*
X9922Y3781D01*
X9907Y3776D01*
X9892Y3775D01*
X9870Y3776D01*
X9849Y3781D01*
X9829Y3788D01*
X9810Y3797D01*
X9792Y3809D01*
X9776Y3824D01*
X9785Y4047D02*
X9786Y4062D01*
X9791Y4077D01*
X9798Y4090D01*
X9808Y4102D01*
X9820Y4112D01*
X9833Y4119D01*
X9848Y4124D01*
X9863Y4125D01*
X9886Y4123D01*
X9909Y4118D01*
X9931Y4108D01*
X9951Y4096D01*
X9824Y3979D02*
X9811Y3989D01*
X9800Y4001D01*
X9792Y4015D01*
X9787Y4031D01*
X9785Y4047D01*
X9930Y3921D02*
X9943Y3911D01*
X9954Y3899D01*
X9962Y3885D01*
X9967Y3869D01*
X9969Y3853D01*
X9931Y3921D02*
X9824Y3979D01*
X10136Y4125D02*
X10136Y3775D01*
X10291Y3775D01*
X10448Y3775D02*
X10603Y3775D01*
X10448Y3775D02*
X10448Y4125D01*
X10603Y4125D01*
X10565Y3969D02*
X10448Y3969D01*
X10760Y3775D02*
X10915Y3775D01*
X10760Y3775D02*
X10760Y4125D01*
X10915Y4125D01*
X10877Y3969D02*
X10760Y3969D01*
X11078Y4125D02*
X11078Y3775D01*
X11078Y4125D02*
X11175Y4125D01*
X11193Y4123D01*
X11210Y4118D01*
X11226Y4110D01*
X11240Y4100D01*
X11252Y4086D01*
X11262Y4071D01*
X11268Y4055D01*
X11272Y4037D01*
X11272Y4019D01*
X11268Y4001D01*
X11262Y3985D01*
X11252Y3970D01*
X11240Y3956D01*
X11226Y3946D01*
X11210Y3938D01*
X11193Y3933D01*
X11175Y3931D01*
X11078Y3931D01*
X9970Y2853D02*
X9969Y2838D01*
X9964Y2823D01*
X9957Y2810D01*
X9947Y2798D01*
X9935Y2788D01*
X9922Y2781D01*
X9907Y2776D01*
X9892Y2775D01*
X9870Y2776D01*
X9849Y2781D01*
X9829Y2788D01*
X9810Y2797D01*
X9792Y2809D01*
X9776Y2824D01*
X9785Y3047D02*
X9786Y3062D01*
X9791Y3077D01*
X9798Y3090D01*
X9808Y3102D01*
X9820Y3112D01*
X9833Y3119D01*
X9848Y3124D01*
X9863Y3125D01*
X9886Y3123D01*
X9909Y3118D01*
X9931Y3108D01*
X9951Y3096D01*
X9824Y2979D02*
X9811Y2989D01*
X9800Y3001D01*
X9792Y3015D01*
X9787Y3031D01*
X9785Y3047D01*
X9930Y2921D02*
X9943Y2911D01*
X9954Y2899D01*
X9962Y2885D01*
X9967Y2869D01*
X9969Y2853D01*
X9931Y2921D02*
X9824Y2979D01*
X10196Y3125D02*
X10196Y2775D01*
X10099Y3125D02*
X10293Y3125D01*
X10448Y2775D02*
X10603Y2775D01*
X10448Y2775D02*
X10448Y3125D01*
X10603Y3125D01*
X10565Y2969D02*
X10448Y2969D01*
X10766Y3125D02*
X10766Y2775D01*
X10766Y3125D02*
X10863Y3125D01*
X10881Y3123D01*
X10898Y3118D01*
X10914Y3110D01*
X10928Y3100D01*
X10940Y3086D01*
X10950Y3071D01*
X10956Y3055D01*
X10960Y3037D01*
X10960Y3019D01*
X10956Y3001D01*
X10950Y2985D01*
X10940Y2970D01*
X10928Y2956D01*
X10914Y2946D01*
X10898Y2938D01*
X10881Y2933D01*
X10863Y2931D01*
X10766Y2931D01*
X9775Y2125D02*
X9775Y1775D01*
X9775Y2125D02*
X9872Y2125D01*
X9889Y2124D01*
X9905Y2119D01*
X9921Y2112D01*
X9934Y2102D01*
X9946Y2090D01*
X9956Y2077D01*
X9963Y2061D01*
X9968Y2045D01*
X9969Y2028D01*
X9969Y1872D01*
X9968Y1855D01*
X9963Y1839D01*
X9956Y1823D01*
X9946Y1810D01*
X9934Y1798D01*
X9921Y1788D01*
X9905Y1781D01*
X9889Y1776D01*
X9872Y1775D01*
X9775Y1775D01*
X10172Y1775D02*
X10172Y2125D01*
X10133Y1775D02*
X10211Y1775D01*
X10211Y2125D02*
X10133Y2125D01*
X10378Y2125D02*
X10378Y1775D01*
X10378Y2125D02*
X10475Y2125D01*
X10493Y2123D01*
X10510Y2118D01*
X10526Y2110D01*
X10540Y2100D01*
X10552Y2086D01*
X10562Y2071D01*
X10568Y2055D01*
X10572Y2037D01*
X10572Y2019D01*
X10568Y2001D01*
X10562Y1985D01*
X10552Y1970D01*
X10540Y1956D01*
X10526Y1946D01*
X10510Y1938D01*
X10493Y1933D01*
X10475Y1931D01*
X10378Y1931D01*
X10495Y1931D02*
X10572Y1775D01*
X10697Y9225D02*
X9750Y9225D01*
X9775Y8775D02*
X9931Y8775D01*
X9775Y8775D02*
X9775Y9125D01*
X9931Y9125D01*
X9892Y8969D02*
X9775Y8969D01*
X10086Y9125D02*
X10086Y8775D01*
X10281Y8775D02*
X10086Y9125D01*
X10281Y9125D02*
X10281Y8775D01*
X10439Y8775D02*
X10555Y9125D01*
X10672Y8775D01*
X10643Y8863D02*
X10468Y8863D01*
X11775Y9125D02*
X11892Y8775D01*
X12008Y9125D01*
X12171Y9125D02*
X12171Y8775D01*
X12288Y8931D02*
X12171Y9125D01*
X12288Y8931D02*
X12404Y9125D01*
X12404Y8775D01*
X12586Y8872D02*
X12586Y9028D01*
X12587Y9028D02*
X12589Y9046D01*
X12594Y9063D01*
X12602Y9079D01*
X12612Y9093D01*
X12626Y9105D01*
X12641Y9115D01*
X12657Y9121D01*
X12675Y9125D01*
X12693Y9125D01*
X12711Y9121D01*
X12727Y9115D01*
X12742Y9105D01*
X12756Y9093D01*
X12766Y9079D01*
X12774Y9063D01*
X12779Y9046D01*
X12781Y9028D01*
X12781Y8872D01*
X12779Y8854D01*
X12774Y8837D01*
X12766Y8821D01*
X12756Y8807D01*
X12742Y8795D01*
X12727Y8785D01*
X12711Y8779D01*
X12693Y8775D01*
X12675Y8775D01*
X12657Y8779D01*
X12641Y8785D01*
X12626Y8795D01*
X12612Y8807D01*
X12602Y8821D01*
X12594Y8837D01*
X12589Y8854D01*
X12587Y8872D01*
X13020Y8775D02*
X13020Y9125D01*
X13117Y9125D02*
X12922Y9125D01*
X12025Y8125D02*
X12025Y7775D01*
X12142Y7931D02*
X12025Y8125D01*
X12142Y7931D02*
X12258Y8125D01*
X12258Y7775D01*
X12589Y7969D02*
X12647Y7969D01*
X12647Y7775D01*
X12530Y7775D01*
X12515Y7776D01*
X12500Y7781D01*
X12487Y7788D01*
X12475Y7798D01*
X12465Y7810D01*
X12458Y7823D01*
X12453Y7838D01*
X12452Y7853D01*
X12452Y8047D01*
X12454Y8064D01*
X12460Y8081D01*
X12469Y8096D01*
X12481Y8108D01*
X12496Y8117D01*
X12513Y8123D01*
X12530Y8125D01*
X12647Y8125D01*
X12836Y8125D02*
X12836Y7775D01*
X13031Y7775D02*
X12836Y8125D01*
X13031Y8125D02*
X13031Y7775D01*
X13220Y7775D02*
X13220Y8125D01*
X13318Y8125D01*
X13335Y8124D01*
X13351Y8119D01*
X13367Y8112D01*
X13380Y8102D01*
X13392Y8090D01*
X13402Y8077D01*
X13409Y8061D01*
X13414Y8045D01*
X13415Y8028D01*
X13415Y7872D01*
X13414Y7855D01*
X13409Y7839D01*
X13402Y7824D01*
X13392Y7810D01*
X13380Y7798D01*
X13367Y7788D01*
X13351Y7781D01*
X13335Y7776D01*
X13318Y7775D01*
X13220Y7775D01*
X12219Y1969D02*
X12161Y1969D01*
X12219Y1969D02*
X12219Y1775D01*
X12103Y1775D01*
X12088Y1776D01*
X12073Y1781D01*
X12060Y1788D01*
X12048Y1798D01*
X12038Y1810D01*
X12031Y1823D01*
X12026Y1838D01*
X12025Y1853D01*
X12025Y2047D01*
X12027Y2064D01*
X12033Y2081D01*
X12042Y2096D01*
X12054Y2108D01*
X12069Y2117D01*
X12086Y2123D01*
X12103Y2125D01*
X12219Y2125D01*
X12409Y2125D02*
X12409Y1775D01*
X12603Y1775D02*
X12409Y2125D01*
X12603Y2125D02*
X12603Y1775D01*
X12793Y1775D02*
X12793Y2125D01*
X12890Y2125D01*
X12907Y2124D01*
X12923Y2119D01*
X12939Y2112D01*
X12952Y2102D01*
X12964Y2090D01*
X12974Y2077D01*
X12981Y2061D01*
X12986Y2045D01*
X12987Y2028D01*
X12987Y1872D01*
X12986Y1855D01*
X12981Y1839D01*
X12974Y1823D01*
X12964Y1810D01*
X12952Y1798D01*
X12939Y1788D01*
X12923Y1781D01*
X12907Y1776D01*
X12890Y1775D01*
X12793Y1775D01*
X12142Y2775D02*
X12025Y3125D01*
X12258Y3125D02*
X12142Y2775D01*
X12416Y2775D02*
X12416Y3125D01*
X12514Y3125D01*
X12531Y3124D01*
X12547Y3119D01*
X12563Y3112D01*
X12576Y3102D01*
X12588Y3090D01*
X12598Y3077D01*
X12605Y3061D01*
X12610Y3045D01*
X12611Y3028D01*
X12611Y2872D01*
X12610Y2855D01*
X12605Y2839D01*
X12598Y2824D01*
X12588Y2810D01*
X12576Y2798D01*
X12563Y2788D01*
X12547Y2781D01*
X12531Y2776D01*
X12514Y2775D01*
X12416Y2775D01*
X12800Y2775D02*
X12800Y3125D01*
X12898Y3125D01*
X12915Y3124D01*
X12931Y3119D01*
X12947Y3112D01*
X12960Y3102D01*
X12972Y3090D01*
X12982Y3077D01*
X12989Y3061D01*
X12994Y3045D01*
X12995Y3028D01*
X12995Y2872D01*
X12994Y2855D01*
X12989Y2839D01*
X12982Y2824D01*
X12972Y2810D01*
X12960Y2798D01*
X12947Y2788D01*
X12931Y2781D01*
X12915Y2776D01*
X12898Y2775D01*
X12800Y2775D01*
X12720Y6038D02*
X12718Y6055D01*
X12713Y6072D01*
X12705Y6087D01*
X12694Y6100D01*
X12681Y6111D01*
X12666Y6119D01*
X12649Y6124D01*
X12632Y6126D01*
X12632Y6125D02*
X12612Y6123D01*
X12593Y6118D01*
X12575Y6109D01*
X12558Y6097D01*
X12544Y6083D01*
X12533Y6066D01*
X12525Y6048D01*
X12690Y5970D02*
X12702Y5984D01*
X12711Y6001D01*
X12717Y6019D01*
X12719Y6038D01*
X12690Y5969D02*
X12525Y5775D01*
X12719Y5775D01*
X12866Y5775D02*
X12982Y6125D01*
X13099Y5775D01*
X13070Y5863D02*
X12895Y5863D01*
X12622Y5125D02*
X12525Y5047D01*
X12622Y5125D02*
X12622Y4775D01*
X12525Y4775D02*
X12719Y4775D01*
X12866Y4775D02*
X12982Y5125D01*
X13099Y4775D01*
X13070Y4863D02*
X12895Y4863D01*
X12622Y4125D02*
X12525Y4047D01*
X12622Y4125D02*
X12622Y3775D01*
X12525Y3775D02*
X12719Y3775D01*
X12904Y3969D02*
X13001Y3969D01*
X13019Y3967D01*
X13036Y3962D01*
X13052Y3954D01*
X13066Y3944D01*
X13078Y3930D01*
X13088Y3915D01*
X13094Y3899D01*
X13098Y3881D01*
X13098Y3863D01*
X13094Y3845D01*
X13088Y3829D01*
X13078Y3814D01*
X13066Y3800D01*
X13052Y3790D01*
X13036Y3782D01*
X13019Y3777D01*
X13001Y3775D01*
X12904Y3775D01*
X12904Y4125D01*
X13001Y4125D01*
X13017Y4123D01*
X13033Y4118D01*
X13047Y4110D01*
X13059Y4099D01*
X13069Y4086D01*
X13075Y4071D01*
X13079Y4055D01*
X13079Y4039D01*
X13075Y4023D01*
X13069Y4008D01*
X13059Y3995D01*
X13047Y3984D01*
X13033Y3976D01*
X13017Y3971D01*
X13001Y3969D01*
X12720Y7038D02*
X12718Y7055D01*
X12713Y7072D01*
X12705Y7087D01*
X12694Y7100D01*
X12681Y7111D01*
X12666Y7119D01*
X12649Y7124D01*
X12632Y7126D01*
X12632Y7125D02*
X12612Y7123D01*
X12593Y7118D01*
X12575Y7109D01*
X12558Y7097D01*
X12544Y7083D01*
X12533Y7066D01*
X12525Y7048D01*
X12690Y6970D02*
X12702Y6984D01*
X12711Y7001D01*
X12717Y7019D01*
X12719Y7038D01*
X12690Y6969D02*
X12525Y6775D01*
X12719Y6775D01*
X12904Y6969D02*
X13001Y6969D01*
X13019Y6967D01*
X13036Y6962D01*
X13052Y6954D01*
X13066Y6944D01*
X13078Y6930D01*
X13088Y6915D01*
X13094Y6899D01*
X13098Y6881D01*
X13098Y6863D01*
X13094Y6845D01*
X13088Y6829D01*
X13078Y6814D01*
X13066Y6800D01*
X13052Y6790D01*
X13036Y6782D01*
X13019Y6777D01*
X13001Y6775D01*
X12904Y6775D01*
X12904Y7125D01*
X13001Y7125D01*
X13017Y7123D01*
X13033Y7118D01*
X13047Y7110D01*
X13059Y7099D01*
X13069Y7086D01*
X13075Y7071D01*
X13079Y7055D01*
X13079Y7039D01*
X13075Y7023D01*
X13069Y7008D01*
X13059Y6995D01*
X13047Y6984D01*
X13033Y6976D01*
X13017Y6971D01*
X13001Y6969D01*
X8775Y9825D02*
X8773Y9808D01*
X8769Y9791D01*
X8762Y9775D01*
X8752Y9761D01*
X8739Y9748D01*
X8725Y9738D01*
X8709Y9731D01*
X8692Y9727D01*
X8675Y9725D01*
X8647Y9727D01*
X8620Y9732D01*
X8594Y9741D01*
X8569Y9754D01*
X8546Y9769D01*
X8525Y9787D01*
X8538Y10075D02*
X8540Y10092D01*
X8544Y10109D01*
X8551Y10125D01*
X8561Y10139D01*
X8574Y10152D01*
X8588Y10162D01*
X8604Y10169D01*
X8621Y10173D01*
X8638Y10175D01*
X8638Y10176D02*
X8662Y10174D01*
X8686Y10170D01*
X8709Y10162D01*
X8731Y10152D01*
X8751Y10138D01*
X8587Y9987D02*
X8573Y9997D01*
X8560Y10010D01*
X8550Y10024D01*
X8543Y10040D01*
X8539Y10057D01*
X8537Y10075D01*
X8725Y9913D02*
X8739Y9903D01*
X8752Y9890D01*
X8762Y9876D01*
X8769Y9860D01*
X8773Y9843D01*
X8775Y9825D01*
X8725Y9913D02*
X8588Y9988D01*
X9055Y10175D02*
X9055Y9725D01*
X8930Y10175D02*
X9180Y10175D01*
X9366Y9725D02*
X9566Y9725D01*
X9366Y9725D02*
X9366Y10175D01*
X9566Y10175D01*
X9516Y9975D02*
X9366Y9975D01*
X9762Y10175D02*
X9762Y9725D01*
X9762Y10175D02*
X9887Y10175D01*
X9908Y10173D01*
X9928Y10168D01*
X9946Y10160D01*
X9964Y10149D01*
X9979Y10135D01*
X9992Y10118D01*
X10001Y10100D01*
X10008Y10081D01*
X10012Y10060D01*
X10012Y10040D01*
X10008Y10019D01*
X10001Y10000D01*
X9992Y9982D01*
X9979Y9965D01*
X9964Y9951D01*
X9946Y9940D01*
X9928Y9932D01*
X9908Y9927D01*
X9887Y9925D01*
X9762Y9925D01*
X10205Y9725D02*
X10205Y10175D01*
X10330Y10175D01*
X10350Y10173D01*
X10369Y10169D01*
X10387Y10161D01*
X10403Y10151D01*
X10418Y10138D01*
X10431Y10123D01*
X10441Y10107D01*
X10449Y10089D01*
X10453Y10070D01*
X10455Y10050D01*
X10455Y9850D01*
X10453Y9830D01*
X10449Y9811D01*
X10441Y9793D01*
X10431Y9777D01*
X10418Y9762D01*
X10403Y9749D01*
X10387Y9739D01*
X10369Y9731D01*
X10350Y9727D01*
X10330Y9725D01*
X10205Y9725D01*
X10688Y9725D02*
X10688Y10175D01*
X10813Y10175D01*
X10834Y10173D01*
X10854Y10168D01*
X10872Y10160D01*
X10890Y10149D01*
X10905Y10135D01*
X10918Y10118D01*
X10927Y10100D01*
X10934Y10081D01*
X10938Y10060D01*
X10938Y10040D01*
X10934Y10019D01*
X10927Y10000D01*
X10918Y9982D01*
X10905Y9965D01*
X10890Y9951D01*
X10872Y9940D01*
X10854Y9932D01*
X10834Y9927D01*
X10813Y9925D01*
X10688Y9925D01*
X10838Y9925D02*
X10938Y9725D01*
X11260Y9725D02*
X11110Y10175D01*
X11410Y10175D02*
X11260Y9725D01*
X11722Y10176D02*
X11742Y10174D01*
X11761Y10169D01*
X11779Y10161D01*
X11795Y10150D01*
X11809Y10136D01*
X11820Y10120D01*
X11828Y10102D01*
X11833Y10083D01*
X11835Y10063D01*
X11722Y10175D02*
X11699Y10173D01*
X11677Y10168D01*
X11656Y10159D01*
X11637Y10147D01*
X11619Y10132D01*
X11605Y10115D01*
X11593Y10096D01*
X11584Y10075D01*
X11797Y9975D02*
X11810Y9990D01*
X11821Y10006D01*
X11829Y10024D01*
X11833Y10043D01*
X11835Y10063D01*
X11797Y9975D02*
X11585Y9725D01*
X11835Y9725D01*
X22750Y24250D02*
X22750Y30500D01*
X22750Y24250D02*
X14500Y24250D01*
X14500Y30500D01*
X22750Y30500D01*
X15000Y27000D02*
X15000Y25500D01*
X15250Y25750D01*
X15000Y25500D02*
X14750Y25750D01*
X15000Y27000D02*
X16500Y27000D01*
X16250Y26750D01*
X16500Y27000D02*
X16250Y27250D01*
D14*
X15173Y25230D02*
X15480Y25026D01*
X15480Y25230D02*
X15173Y25026D01*
X17133Y26276D02*
X17133Y26327D01*
X16673Y26480D01*
X16673Y26276D02*
X16980Y26378D01*
X18071Y24980D02*
X18071Y24520D01*
X18020Y24520D02*
X18122Y24520D01*
X18122Y24980D02*
X18020Y24980D01*
X18401Y24980D02*
X18401Y24520D01*
X18273Y24980D02*
X18529Y24980D01*
X18887Y24776D02*
X18964Y24776D01*
X18964Y24520D01*
X18811Y24520D01*
X18793Y24522D01*
X18776Y24526D01*
X18760Y24534D01*
X18745Y24544D01*
X18733Y24556D01*
X18723Y24571D01*
X18715Y24587D01*
X18711Y24604D01*
X18709Y24622D01*
X18708Y24622D02*
X18708Y24878D01*
X18709Y24878D02*
X18711Y24898D01*
X18717Y24917D01*
X18726Y24935D01*
X18739Y24950D01*
X18754Y24963D01*
X18772Y24972D01*
X18791Y24978D01*
X18811Y24980D01*
X18964Y24980D01*
X19358Y25031D02*
X19154Y24469D01*
X19553Y24520D02*
X19553Y24980D01*
X19706Y24724D01*
X19859Y24980D01*
X19859Y24520D01*
X20095Y24520D02*
X20095Y24980D01*
X20223Y24980D01*
X20244Y24978D01*
X20265Y24973D01*
X20284Y24965D01*
X20302Y24953D01*
X20317Y24939D01*
X20330Y24922D01*
X20340Y24903D01*
X20347Y24883D01*
X20351Y24863D01*
X20351Y24841D01*
X20347Y24821D01*
X20340Y24801D01*
X20330Y24782D01*
X20317Y24765D01*
X20302Y24751D01*
X20284Y24739D01*
X20265Y24731D01*
X20244Y24726D01*
X20223Y24724D01*
X20095Y24724D01*
X20538Y24648D02*
X20538Y24980D01*
X20538Y24648D02*
X20540Y24627D01*
X20545Y24606D01*
X20553Y24587D01*
X20565Y24569D01*
X20579Y24554D01*
X20596Y24541D01*
X20615Y24531D01*
X20635Y24524D01*
X20655Y24520D01*
X20677Y24520D01*
X20697Y24524D01*
X20717Y24531D01*
X20736Y24541D01*
X20753Y24554D01*
X20767Y24569D01*
X20779Y24587D01*
X20787Y24606D01*
X20792Y24627D01*
X20794Y24648D01*
X20794Y24980D01*
D15*
X12500Y30500D02*
X12500Y12500D01*
X12500Y30500D02*
X12498Y30560D01*
X12493Y30621D01*
X12484Y30680D01*
X12471Y30739D01*
X12455Y30798D01*
X12435Y30855D01*
X12412Y30910D01*
X12385Y30965D01*
X12356Y31017D01*
X12323Y31068D01*
X12287Y31117D01*
X12249Y31163D01*
X12207Y31207D01*
X12163Y31249D01*
X12117Y31287D01*
X12068Y31323D01*
X12017Y31356D01*
X11965Y31385D01*
X11910Y31412D01*
X11855Y31435D01*
X11798Y31455D01*
X11739Y31471D01*
X11680Y31484D01*
X11621Y31493D01*
X11560Y31498D01*
X11500Y31500D01*
X4500Y31500D01*
X4440Y31498D01*
X4379Y31493D01*
X4320Y31484D01*
X4261Y31471D01*
X4202Y31455D01*
X4145Y31435D01*
X4090Y31412D01*
X4035Y31385D01*
X3983Y31356D01*
X3932Y31323D01*
X3883Y31287D01*
X3837Y31249D01*
X3793Y31207D01*
X3751Y31163D01*
X3713Y31117D01*
X3677Y31068D01*
X3644Y31017D01*
X3615Y30965D01*
X3588Y30910D01*
X3565Y30855D01*
X3545Y30798D01*
X3529Y30739D01*
X3516Y30680D01*
X3507Y30621D01*
X3502Y30560D01*
X3500Y30500D01*
X3500Y12500D01*
X3502Y12440D01*
X3507Y12379D01*
X3516Y12320D01*
X3529Y12261D01*
X3545Y12202D01*
X3565Y12145D01*
X3588Y12090D01*
X3615Y12035D01*
X3644Y11983D01*
X3677Y11932D01*
X3713Y11883D01*
X3751Y11837D01*
X3793Y11793D01*
X3837Y11751D01*
X3883Y11713D01*
X3932Y11677D01*
X3983Y11644D01*
X4035Y11615D01*
X4090Y11588D01*
X4145Y11565D01*
X4202Y11545D01*
X4261Y11529D01*
X4320Y11516D01*
X4379Y11507D01*
X4440Y11502D01*
X4500Y11500D01*
X11500Y11500D01*
X11560Y11502D01*
X11621Y11507D01*
X11680Y11516D01*
X11739Y11529D01*
X11798Y11545D01*
X11855Y11565D01*
X11910Y11588D01*
X11965Y11615D01*
X12017Y11644D01*
X12068Y11677D01*
X12117Y11713D01*
X12163Y11751D01*
X12207Y11793D01*
X12249Y11837D01*
X12287Y11883D01*
X12323Y11932D01*
X12356Y11983D01*
X12385Y12035D01*
X12412Y12090D01*
X12435Y12145D01*
X12455Y12202D01*
X12471Y12261D01*
X12484Y12320D01*
X12493Y12379D01*
X12498Y12440D01*
X12500Y12500D01*
D10*
X8000Y25250D02*
X7983Y25252D01*
X7966Y25256D01*
X7950Y25263D01*
X7936Y25273D01*
X7923Y25286D01*
X7913Y25300D01*
X7906Y25316D01*
X7902Y25333D01*
X7900Y25350D01*
X9000Y25250D02*
X9017Y25252D01*
X9034Y25256D01*
X9050Y25263D01*
X9064Y25273D01*
X9077Y25286D01*
X9087Y25300D01*
X9094Y25316D01*
X9098Y25333D01*
X9100Y25350D01*
X9100Y28550D02*
X9098Y28567D01*
X9094Y28584D01*
X9087Y28600D01*
X9077Y28614D01*
X9064Y28627D01*
X9050Y28637D01*
X9034Y28644D01*
X9017Y28648D01*
X9000Y28650D01*
X8000Y28650D02*
X7983Y28648D01*
X7966Y28644D01*
X7950Y28637D01*
X7936Y28627D01*
X7923Y28614D01*
X7913Y28600D01*
X7906Y28584D01*
X7902Y28567D01*
X7900Y28550D01*
X8000Y25250D02*
X9000Y25250D01*
X7900Y25350D02*
X7900Y25600D01*
X7950Y25650D01*
X9100Y25600D02*
X9100Y25350D01*
X9100Y25600D02*
X9050Y25650D01*
X7950Y28250D02*
X7900Y28300D01*
X7950Y28250D02*
X7950Y25650D01*
X9050Y28250D02*
X9100Y28300D01*
X9050Y28250D02*
X9050Y25650D01*
X7900Y28300D02*
X7900Y28550D01*
X9100Y28550D02*
X9100Y28300D01*
X9000Y28650D02*
X8000Y28650D01*
D16*
X8500Y28820D03*
X8500Y25080D03*
D11*
X7725Y25325D02*
X7275Y25325D01*
X7275Y25450D01*
X7277Y25471D01*
X7282Y25491D01*
X7290Y25509D01*
X7301Y25527D01*
X7315Y25542D01*
X7332Y25555D01*
X7350Y25564D01*
X7369Y25571D01*
X7390Y25575D01*
X7410Y25575D01*
X7431Y25571D01*
X7450Y25564D01*
X7468Y25555D01*
X7485Y25542D01*
X7499Y25527D01*
X7510Y25509D01*
X7518Y25491D01*
X7523Y25471D01*
X7525Y25450D01*
X7525Y25325D01*
X7525Y25475D02*
X7725Y25575D01*
X7375Y25772D02*
X7275Y25897D01*
X7725Y25897D01*
X7725Y25772D02*
X7725Y26022D01*
D10*
X6500Y25800D02*
X6483Y25802D01*
X6466Y25806D01*
X6450Y25813D01*
X6436Y25823D01*
X6423Y25836D01*
X6413Y25850D01*
X6406Y25866D01*
X6402Y25883D01*
X6400Y25900D01*
X7500Y25800D02*
X7517Y25802D01*
X7534Y25806D01*
X7550Y25813D01*
X7564Y25823D01*
X7577Y25836D01*
X7587Y25850D01*
X7594Y25866D01*
X7598Y25883D01*
X7600Y25900D01*
X7600Y29100D02*
X7598Y29117D01*
X7594Y29134D01*
X7587Y29150D01*
X7577Y29164D01*
X7564Y29177D01*
X7550Y29187D01*
X7534Y29194D01*
X7517Y29198D01*
X7500Y29200D01*
X6500Y29200D02*
X6483Y29198D01*
X6466Y29194D01*
X6450Y29187D01*
X6436Y29177D01*
X6423Y29164D01*
X6413Y29150D01*
X6406Y29134D01*
X6402Y29117D01*
X6400Y29100D01*
X6500Y25800D02*
X7500Y25800D01*
X6400Y25900D02*
X6400Y26150D01*
X6450Y26200D01*
X7600Y26150D02*
X7600Y25900D01*
X7600Y26150D02*
X7550Y26200D01*
X6450Y28800D02*
X6400Y28850D01*
X6450Y28800D02*
X6450Y26200D01*
X7550Y28800D02*
X7600Y28850D01*
X7550Y28800D02*
X7550Y26200D01*
X6400Y28850D02*
X6400Y29100D01*
X7600Y29100D02*
X7600Y28850D01*
X7500Y29200D02*
X6500Y29200D01*
D16*
X7000Y29370D03*
X7000Y25630D03*
D11*
X6225Y25875D02*
X5775Y25875D01*
X5775Y26000D01*
X5777Y26021D01*
X5782Y26041D01*
X5790Y26059D01*
X5801Y26077D01*
X5815Y26092D01*
X5832Y26105D01*
X5850Y26114D01*
X5869Y26121D01*
X5890Y26125D01*
X5910Y26125D01*
X5931Y26121D01*
X5950Y26114D01*
X5968Y26105D01*
X5985Y26092D01*
X5999Y26077D01*
X6010Y26059D01*
X6018Y26041D01*
X6023Y26021D01*
X6025Y26000D01*
X6025Y25875D01*
X6025Y26025D02*
X6225Y26125D01*
X5888Y26572D02*
X5868Y26570D01*
X5849Y26565D01*
X5832Y26557D01*
X5815Y26546D01*
X5801Y26532D01*
X5790Y26516D01*
X5782Y26498D01*
X5777Y26479D01*
X5775Y26459D01*
X5777Y26436D01*
X5782Y26414D01*
X5791Y26393D01*
X5803Y26374D01*
X5818Y26356D01*
X5835Y26342D01*
X5854Y26330D01*
X5875Y26321D01*
X5976Y26534D02*
X5961Y26547D01*
X5945Y26558D01*
X5927Y26566D01*
X5908Y26570D01*
X5888Y26572D01*
X5975Y26534D02*
X6225Y26322D01*
X6225Y26572D01*
D10*
X3950Y11950D02*
X3952Y11933D01*
X3956Y11916D01*
X3963Y11900D01*
X3973Y11886D01*
X3986Y11873D01*
X4000Y11863D01*
X4016Y11856D01*
X4033Y11852D01*
X4050Y11850D01*
X5050Y11850D02*
X5067Y11852D01*
X5084Y11856D01*
X5100Y11863D01*
X5114Y11873D01*
X5127Y11886D01*
X5137Y11900D01*
X5144Y11916D01*
X5148Y11933D01*
X5150Y11950D01*
X5150Y15150D02*
X5148Y15167D01*
X5144Y15184D01*
X5137Y15200D01*
X5127Y15214D01*
X5114Y15227D01*
X5100Y15237D01*
X5084Y15244D01*
X5067Y15248D01*
X5050Y15250D01*
X4050Y15250D02*
X4033Y15248D01*
X4016Y15244D01*
X4000Y15237D01*
X3986Y15227D01*
X3973Y15214D01*
X3963Y15200D01*
X3956Y15184D01*
X3952Y15167D01*
X3950Y15150D01*
X4050Y11850D02*
X5050Y11850D01*
X3950Y11950D02*
X3950Y12200D01*
X4000Y12250D01*
X5150Y12200D02*
X5150Y11950D01*
X5150Y12200D02*
X5100Y12250D01*
X4000Y14850D02*
X3950Y14900D01*
X4000Y14850D02*
X4000Y12250D01*
X5100Y14850D02*
X5150Y14900D01*
X5100Y14850D02*
X5100Y12250D01*
X3950Y14900D02*
X3950Y15150D01*
X5150Y15150D02*
X5150Y14900D01*
X5050Y15250D02*
X4050Y15250D01*
D16*
X4550Y15420D03*
X4550Y11680D03*
D11*
X3775Y11925D02*
X3325Y11925D01*
X3325Y12050D01*
X3327Y12071D01*
X3332Y12091D01*
X3340Y12109D01*
X3351Y12127D01*
X3365Y12142D01*
X3382Y12155D01*
X3400Y12164D01*
X3419Y12171D01*
X3440Y12175D01*
X3460Y12175D01*
X3481Y12171D01*
X3500Y12164D01*
X3518Y12155D01*
X3535Y12142D01*
X3549Y12127D01*
X3560Y12109D01*
X3568Y12091D01*
X3573Y12071D01*
X3575Y12050D01*
X3575Y11925D01*
X3575Y12075D02*
X3775Y12175D01*
X3775Y12372D02*
X3775Y12497D01*
X3773Y12518D01*
X3768Y12538D01*
X3760Y12556D01*
X3749Y12574D01*
X3735Y12589D01*
X3718Y12602D01*
X3700Y12611D01*
X3681Y12618D01*
X3660Y12622D01*
X3640Y12622D01*
X3619Y12618D01*
X3600Y12611D01*
X3582Y12602D01*
X3565Y12589D01*
X3551Y12574D01*
X3540Y12556D01*
X3532Y12538D01*
X3527Y12518D01*
X3525Y12497D01*
X3325Y12522D02*
X3325Y12372D01*
X3325Y12522D02*
X3327Y12540D01*
X3332Y12558D01*
X3340Y12575D01*
X3351Y12589D01*
X3365Y12602D01*
X3380Y12612D01*
X3398Y12618D01*
X3416Y12622D01*
X3434Y12622D01*
X3452Y12618D01*
X3470Y12612D01*
X3485Y12602D01*
X3499Y12589D01*
X3510Y12575D01*
X3518Y12558D01*
X3523Y12540D01*
X3525Y12522D01*
X3525Y12422D01*
D10*
X6500Y18750D02*
X6483Y18752D01*
X6466Y18756D01*
X6450Y18763D01*
X6436Y18773D01*
X6423Y18786D01*
X6413Y18800D01*
X6406Y18816D01*
X6402Y18833D01*
X6400Y18850D01*
X7500Y18750D02*
X7517Y18752D01*
X7534Y18756D01*
X7550Y18763D01*
X7564Y18773D01*
X7577Y18786D01*
X7587Y18800D01*
X7594Y18816D01*
X7598Y18833D01*
X7600Y18850D01*
X7600Y22050D02*
X7598Y22067D01*
X7594Y22084D01*
X7587Y22100D01*
X7577Y22114D01*
X7564Y22127D01*
X7550Y22137D01*
X7534Y22144D01*
X7517Y22148D01*
X7500Y22150D01*
X6500Y22150D02*
X6483Y22148D01*
X6466Y22144D01*
X6450Y22137D01*
X6436Y22127D01*
X6423Y22114D01*
X6413Y22100D01*
X6406Y22084D01*
X6402Y22067D01*
X6400Y22050D01*
X6500Y18750D02*
X7500Y18750D01*
X6400Y18850D02*
X6400Y19100D01*
X6450Y19150D01*
X7600Y19100D02*
X7600Y18850D01*
X7600Y19100D02*
X7550Y19150D01*
X6450Y21750D02*
X6400Y21800D01*
X6450Y21750D02*
X6450Y19150D01*
X7550Y21750D02*
X7600Y21800D01*
X7550Y21750D02*
X7550Y19150D01*
X6400Y21800D02*
X6400Y22050D01*
X7600Y22050D02*
X7600Y21800D01*
X7500Y22150D02*
X6500Y22150D01*
D16*
X7000Y22320D03*
X7000Y18580D03*
D11*
X6225Y18825D02*
X5775Y18825D01*
X5775Y18950D01*
X5777Y18971D01*
X5782Y18991D01*
X5790Y19009D01*
X5801Y19027D01*
X5815Y19042D01*
X5832Y19055D01*
X5850Y19064D01*
X5869Y19071D01*
X5890Y19075D01*
X5910Y19075D01*
X5931Y19071D01*
X5950Y19064D01*
X5968Y19055D01*
X5985Y19042D01*
X5999Y19027D01*
X6010Y19009D01*
X6018Y18991D01*
X6023Y18971D01*
X6025Y18950D01*
X6025Y18825D01*
X6025Y18975D02*
X6225Y19075D01*
X6125Y19272D02*
X5775Y19372D01*
X6125Y19272D02*
X6125Y19522D01*
X6025Y19447D02*
X6225Y19447D01*
D10*
X21050Y3350D02*
X21052Y3324D01*
X21057Y3298D01*
X21065Y3273D01*
X21077Y3250D01*
X21091Y3228D01*
X21109Y3209D01*
X21128Y3191D01*
X21150Y3177D01*
X21173Y3165D01*
X21198Y3157D01*
X21224Y3152D01*
X21250Y3150D01*
X21750Y3150D02*
X21776Y3152D01*
X21802Y3157D01*
X21827Y3165D01*
X21850Y3177D01*
X21872Y3191D01*
X21891Y3209D01*
X21909Y3228D01*
X21923Y3250D01*
X21935Y3273D01*
X21943Y3298D01*
X21948Y3324D01*
X21950Y3350D01*
X21050Y3350D02*
X21050Y4650D01*
X21950Y4650D02*
X21950Y3350D01*
X21050Y4650D02*
X21052Y4676D01*
X21057Y4702D01*
X21065Y4727D01*
X21077Y4750D01*
X21091Y4772D01*
X21109Y4791D01*
X21128Y4809D01*
X21150Y4823D01*
X21173Y4835D01*
X21198Y4843D01*
X21224Y4848D01*
X21250Y4850D01*
X21750Y4850D02*
X21776Y4848D01*
X21802Y4843D01*
X21827Y4835D01*
X21850Y4823D01*
X21872Y4809D01*
X21891Y4791D01*
X21909Y4772D01*
X21923Y4750D01*
X21935Y4727D01*
X21943Y4702D01*
X21948Y4676D01*
X21950Y4650D01*
D17*
X21500Y3880D02*
X21200Y3880D01*
X21500Y3880D02*
X21800Y3880D01*
X21500Y4130D02*
X21200Y4130D01*
X21500Y4130D02*
X21800Y4130D01*
D10*
X21500Y4130D02*
X21500Y4500D01*
X21500Y3880D02*
X21500Y3500D01*
D11*
X20925Y3375D02*
X20925Y3275D01*
X20923Y3258D01*
X20919Y3241D01*
X20912Y3225D01*
X20902Y3211D01*
X20889Y3198D01*
X20875Y3188D01*
X20859Y3181D01*
X20842Y3177D01*
X20825Y3175D01*
X20575Y3175D01*
X20558Y3177D01*
X20541Y3181D01*
X20525Y3188D01*
X20511Y3198D01*
X20498Y3211D01*
X20488Y3225D01*
X20481Y3241D01*
X20477Y3258D01*
X20475Y3275D01*
X20475Y3375D01*
X20925Y3551D02*
X20925Y3701D01*
X20923Y3718D01*
X20919Y3735D01*
X20912Y3751D01*
X20902Y3765D01*
X20889Y3778D01*
X20875Y3788D01*
X20859Y3795D01*
X20842Y3799D01*
X20825Y3801D01*
X20775Y3801D01*
X20758Y3799D01*
X20741Y3795D01*
X20725Y3788D01*
X20711Y3778D01*
X20698Y3765D01*
X20688Y3751D01*
X20681Y3735D01*
X20677Y3718D01*
X20675Y3701D01*
X20675Y3551D01*
X20475Y3551D01*
X20475Y3801D01*
D10*
X15450Y11650D02*
X15448Y11676D01*
X15443Y11702D01*
X15435Y11727D01*
X15423Y11750D01*
X15409Y11772D01*
X15391Y11791D01*
X15372Y11809D01*
X15350Y11823D01*
X15327Y11835D01*
X15302Y11843D01*
X15276Y11848D01*
X15250Y11850D01*
X14750Y11850D02*
X14724Y11848D01*
X14698Y11843D01*
X14673Y11835D01*
X14650Y11823D01*
X14628Y11809D01*
X14609Y11791D01*
X14591Y11772D01*
X14577Y11750D01*
X14565Y11727D01*
X14557Y11702D01*
X14552Y11676D01*
X14550Y11650D01*
X15450Y11650D02*
X15450Y10350D01*
X14550Y10350D02*
X14550Y11650D01*
X15450Y10350D02*
X15448Y10324D01*
X15443Y10298D01*
X15435Y10273D01*
X15423Y10250D01*
X15409Y10228D01*
X15391Y10209D01*
X15372Y10191D01*
X15350Y10177D01*
X15327Y10165D01*
X15302Y10157D01*
X15276Y10152D01*
X15250Y10150D01*
X14750Y10150D02*
X14724Y10152D01*
X14698Y10157D01*
X14673Y10165D01*
X14650Y10177D01*
X14628Y10191D01*
X14609Y10209D01*
X14591Y10228D01*
X14577Y10250D01*
X14565Y10273D01*
X14557Y10298D01*
X14552Y10324D01*
X14550Y10350D01*
D17*
X15000Y11120D02*
X15300Y11120D01*
X15000Y11120D02*
X14700Y11120D01*
X15000Y10870D02*
X15300Y10870D01*
X15000Y10870D02*
X14700Y10870D01*
D10*
X15000Y10870D02*
X15000Y10500D01*
X15000Y11120D02*
X15000Y11500D01*
D11*
X16025Y11399D02*
X16025Y11299D01*
X16023Y11282D01*
X16019Y11265D01*
X16012Y11249D01*
X16002Y11235D01*
X15989Y11222D01*
X15975Y11212D01*
X15959Y11205D01*
X15942Y11201D01*
X15925Y11199D01*
X15675Y11199D01*
X15658Y11201D01*
X15641Y11205D01*
X15625Y11212D01*
X15611Y11222D01*
X15598Y11235D01*
X15588Y11249D01*
X15581Y11265D01*
X15577Y11282D01*
X15575Y11299D01*
X15575Y11399D01*
X15775Y11575D02*
X15775Y11725D01*
X15777Y11742D01*
X15781Y11759D01*
X15788Y11775D01*
X15798Y11789D01*
X15811Y11802D01*
X15825Y11812D01*
X15841Y11819D01*
X15858Y11823D01*
X15875Y11825D01*
X15900Y11825D01*
X15921Y11823D01*
X15941Y11818D01*
X15959Y11810D01*
X15977Y11799D01*
X15992Y11785D01*
X16005Y11768D01*
X16014Y11750D01*
X16021Y11731D01*
X16025Y11710D01*
X16025Y11690D01*
X16021Y11669D01*
X16014Y11650D01*
X16005Y11632D01*
X15992Y11615D01*
X15977Y11601D01*
X15959Y11590D01*
X15941Y11582D01*
X15921Y11577D01*
X15900Y11575D01*
X15775Y11575D01*
X15749Y11577D01*
X15723Y11582D01*
X15698Y11590D01*
X15675Y11602D01*
X15653Y11616D01*
X15634Y11634D01*
X15616Y11653D01*
X15602Y11675D01*
X15590Y11698D01*
X15582Y11723D01*
X15577Y11749D01*
X15575Y11775D01*
D10*
X13750Y25650D02*
X13724Y25652D01*
X13698Y25657D01*
X13673Y25665D01*
X13650Y25677D01*
X13628Y25691D01*
X13609Y25709D01*
X13591Y25728D01*
X13577Y25750D01*
X13565Y25773D01*
X13557Y25798D01*
X13552Y25824D01*
X13550Y25850D01*
X14250Y25650D02*
X14276Y25652D01*
X14302Y25657D01*
X14327Y25665D01*
X14350Y25677D01*
X14372Y25691D01*
X14391Y25709D01*
X14409Y25728D01*
X14423Y25750D01*
X14435Y25773D01*
X14443Y25798D01*
X14448Y25824D01*
X14450Y25850D01*
X13550Y25850D02*
X13550Y27150D01*
X14450Y27150D02*
X14450Y25850D01*
X13550Y27150D02*
X13552Y27176D01*
X13557Y27202D01*
X13565Y27227D01*
X13577Y27250D01*
X13591Y27272D01*
X13609Y27291D01*
X13628Y27309D01*
X13650Y27323D01*
X13673Y27335D01*
X13698Y27343D01*
X13724Y27348D01*
X13750Y27350D01*
X14250Y27350D02*
X14276Y27348D01*
X14302Y27343D01*
X14327Y27335D01*
X14350Y27323D01*
X14372Y27309D01*
X14391Y27291D01*
X14409Y27272D01*
X14423Y27250D01*
X14435Y27227D01*
X14443Y27202D01*
X14448Y27176D01*
X14450Y27150D01*
D17*
X14000Y26380D02*
X13700Y26380D01*
X14000Y26380D02*
X14300Y26380D01*
X14000Y26630D02*
X13700Y26630D01*
X14000Y26630D02*
X14300Y26630D01*
D10*
X14000Y26630D02*
X14000Y27000D01*
X14000Y26380D02*
X14000Y26000D01*
D11*
X13425Y25875D02*
X13425Y25775D01*
X13423Y25758D01*
X13419Y25741D01*
X13412Y25725D01*
X13402Y25711D01*
X13389Y25698D01*
X13375Y25688D01*
X13359Y25681D01*
X13342Y25677D01*
X13325Y25675D01*
X13075Y25675D01*
X13058Y25677D01*
X13041Y25681D01*
X13025Y25688D01*
X13011Y25698D01*
X12998Y25711D01*
X12988Y25725D01*
X12981Y25741D01*
X12977Y25758D01*
X12975Y25775D01*
X12975Y25875D01*
X12975Y26051D02*
X13025Y26051D01*
X12975Y26051D02*
X12975Y26301D01*
X13425Y26176D01*
D10*
X24050Y27350D02*
X24052Y27324D01*
X24057Y27298D01*
X24065Y27273D01*
X24077Y27250D01*
X24091Y27228D01*
X24109Y27209D01*
X24128Y27191D01*
X24150Y27177D01*
X24173Y27165D01*
X24198Y27157D01*
X24224Y27152D01*
X24250Y27150D01*
X24750Y27150D02*
X24776Y27152D01*
X24802Y27157D01*
X24827Y27165D01*
X24850Y27177D01*
X24872Y27191D01*
X24891Y27209D01*
X24909Y27228D01*
X24923Y27250D01*
X24935Y27273D01*
X24943Y27298D01*
X24948Y27324D01*
X24950Y27350D01*
X24050Y27350D02*
X24050Y28650D01*
X24950Y28650D02*
X24950Y27350D01*
X24050Y28650D02*
X24052Y28676D01*
X24057Y28702D01*
X24065Y28727D01*
X24077Y28750D01*
X24091Y28772D01*
X24109Y28791D01*
X24128Y28809D01*
X24150Y28823D01*
X24173Y28835D01*
X24198Y28843D01*
X24224Y28848D01*
X24250Y28850D01*
X24750Y28850D02*
X24776Y28848D01*
X24802Y28843D01*
X24827Y28835D01*
X24850Y28823D01*
X24872Y28809D01*
X24891Y28791D01*
X24909Y28772D01*
X24923Y28750D01*
X24935Y28727D01*
X24943Y28702D01*
X24948Y28676D01*
X24950Y28650D01*
D17*
X24500Y27880D02*
X24200Y27880D01*
X24500Y27880D02*
X24800Y27880D01*
X24500Y28130D02*
X24200Y28130D01*
X24500Y28130D02*
X24800Y28130D01*
D10*
X24500Y28130D02*
X24500Y28500D01*
X24500Y27880D02*
X24500Y27500D01*
D11*
X23925Y27375D02*
X23925Y27275D01*
X23923Y27258D01*
X23919Y27241D01*
X23912Y27225D01*
X23902Y27211D01*
X23889Y27198D01*
X23875Y27188D01*
X23859Y27181D01*
X23842Y27177D01*
X23825Y27175D01*
X23575Y27175D01*
X23558Y27177D01*
X23541Y27181D01*
X23525Y27188D01*
X23511Y27198D01*
X23498Y27211D01*
X23488Y27225D01*
X23481Y27241D01*
X23477Y27258D01*
X23475Y27275D01*
X23475Y27375D01*
X23800Y27551D02*
X23779Y27553D01*
X23759Y27558D01*
X23741Y27566D01*
X23723Y27577D01*
X23708Y27591D01*
X23695Y27608D01*
X23686Y27626D01*
X23679Y27645D01*
X23675Y27666D01*
X23675Y27686D01*
X23679Y27707D01*
X23686Y27726D01*
X23695Y27744D01*
X23708Y27761D01*
X23723Y27775D01*
X23741Y27786D01*
X23759Y27794D01*
X23779Y27799D01*
X23800Y27801D01*
X23821Y27799D01*
X23841Y27794D01*
X23859Y27786D01*
X23877Y27775D01*
X23892Y27761D01*
X23905Y27744D01*
X23914Y27726D01*
X23921Y27707D01*
X23925Y27686D01*
X23925Y27666D01*
X23921Y27645D01*
X23914Y27626D01*
X23905Y27608D01*
X23892Y27591D01*
X23877Y27577D01*
X23859Y27566D01*
X23841Y27558D01*
X23821Y27553D01*
X23800Y27551D01*
X23575Y27576D02*
X23557Y27578D01*
X23539Y27583D01*
X23522Y27591D01*
X23508Y27602D01*
X23495Y27616D01*
X23485Y27631D01*
X23479Y27649D01*
X23475Y27667D01*
X23475Y27685D01*
X23479Y27703D01*
X23485Y27721D01*
X23495Y27736D01*
X23508Y27750D01*
X23522Y27761D01*
X23539Y27769D01*
X23557Y27774D01*
X23575Y27776D01*
X23593Y27774D01*
X23611Y27769D01*
X23628Y27761D01*
X23642Y27750D01*
X23655Y27736D01*
X23665Y27721D01*
X23671Y27703D01*
X23675Y27685D01*
X23675Y27667D01*
X23671Y27649D01*
X23665Y27631D01*
X23655Y27616D01*
X23642Y27602D01*
X23628Y27591D01*
X23611Y27583D01*
X23593Y27578D01*
X23575Y27576D01*
D10*
X10100Y16000D02*
X9600Y16000D01*
X10100Y16000D02*
X10350Y15750D01*
X10350Y15250D01*
X10100Y15000D01*
X9350Y15250D02*
X9350Y15750D01*
X9600Y16000D01*
X9350Y15250D02*
X9600Y15000D01*
X10100Y15000D01*
D11*
X9495Y16345D02*
X9495Y16695D01*
X9495Y16345D02*
X9493Y16328D01*
X9489Y16311D01*
X9482Y16295D01*
X9472Y16281D01*
X9459Y16268D01*
X9445Y16258D01*
X9429Y16251D01*
X9412Y16247D01*
X9395Y16245D01*
X9345Y16245D01*
X9730Y16245D02*
X9730Y16695D01*
X9855Y16695D01*
X9876Y16693D01*
X9896Y16688D01*
X9914Y16680D01*
X9932Y16669D01*
X9947Y16655D01*
X9960Y16638D01*
X9969Y16620D01*
X9976Y16601D01*
X9980Y16580D01*
X9980Y16560D01*
X9976Y16539D01*
X9969Y16520D01*
X9960Y16502D01*
X9947Y16485D01*
X9932Y16471D01*
X9914Y16460D01*
X9896Y16452D01*
X9876Y16447D01*
X9855Y16445D01*
X9730Y16445D01*
X10158Y16595D02*
X10283Y16695D01*
X10283Y16245D01*
X10158Y16245D02*
X10408Y16245D01*
D10*
X10250Y14000D02*
X10750Y14000D01*
X11000Y13750D01*
X11000Y13250D01*
X10750Y13000D01*
X10000Y13250D02*
X10000Y13750D01*
X10250Y14000D01*
X10000Y13250D02*
X10250Y13000D01*
X10750Y13000D01*
D11*
X10145Y14345D02*
X10145Y14695D01*
X10145Y14345D02*
X10143Y14328D01*
X10139Y14311D01*
X10132Y14295D01*
X10122Y14281D01*
X10109Y14268D01*
X10095Y14258D01*
X10079Y14251D01*
X10062Y14247D01*
X10045Y14245D01*
X9995Y14245D01*
X10380Y14245D02*
X10380Y14695D01*
X10505Y14695D01*
X10526Y14693D01*
X10546Y14688D01*
X10564Y14680D01*
X10582Y14669D01*
X10597Y14655D01*
X10610Y14638D01*
X10619Y14620D01*
X10626Y14601D01*
X10630Y14580D01*
X10630Y14560D01*
X10626Y14539D01*
X10619Y14520D01*
X10610Y14502D01*
X10597Y14485D01*
X10582Y14471D01*
X10564Y14460D01*
X10546Y14452D01*
X10526Y14447D01*
X10505Y14445D01*
X10380Y14445D01*
X10945Y14696D02*
X10965Y14694D01*
X10984Y14689D01*
X11002Y14681D01*
X11018Y14670D01*
X11032Y14656D01*
X11043Y14640D01*
X11051Y14622D01*
X11056Y14603D01*
X11058Y14583D01*
X10945Y14695D02*
X10922Y14693D01*
X10900Y14688D01*
X10879Y14679D01*
X10860Y14667D01*
X10842Y14652D01*
X10828Y14635D01*
X10816Y14616D01*
X10807Y14595D01*
X11020Y14495D02*
X11033Y14510D01*
X11044Y14526D01*
X11052Y14544D01*
X11056Y14563D01*
X11058Y14583D01*
X11020Y14495D02*
X10808Y14245D01*
X11058Y14245D01*
D10*
X22750Y20500D02*
X23250Y20500D01*
X23500Y20250D01*
X23500Y19750D01*
X23250Y19500D01*
X22500Y19750D02*
X22500Y20250D01*
X22750Y20500D01*
X22500Y19750D02*
X22750Y19500D01*
X23250Y19500D01*
D11*
X22645Y20845D02*
X22645Y21195D01*
X22645Y20845D02*
X22643Y20828D01*
X22639Y20811D01*
X22632Y20795D01*
X22622Y20781D01*
X22609Y20768D01*
X22595Y20758D01*
X22579Y20751D01*
X22562Y20747D01*
X22545Y20745D01*
X22495Y20745D01*
X22880Y20745D02*
X22880Y21195D01*
X23005Y21195D01*
X23026Y21193D01*
X23046Y21188D01*
X23064Y21180D01*
X23082Y21169D01*
X23097Y21155D01*
X23110Y21138D01*
X23119Y21120D01*
X23126Y21101D01*
X23130Y21080D01*
X23130Y21060D01*
X23126Y21039D01*
X23119Y21020D01*
X23110Y21002D01*
X23097Y20985D01*
X23082Y20971D01*
X23064Y20960D01*
X23046Y20952D01*
X23026Y20947D01*
X23005Y20945D01*
X22880Y20945D01*
X23308Y20745D02*
X23433Y20745D01*
X23454Y20747D01*
X23474Y20752D01*
X23492Y20760D01*
X23510Y20771D01*
X23525Y20785D01*
X23538Y20802D01*
X23547Y20820D01*
X23554Y20839D01*
X23558Y20860D01*
X23558Y20880D01*
X23554Y20901D01*
X23547Y20920D01*
X23538Y20938D01*
X23525Y20955D01*
X23510Y20969D01*
X23492Y20980D01*
X23474Y20988D01*
X23454Y20993D01*
X23433Y20995D01*
X23458Y21195D02*
X23308Y21195D01*
X23458Y21195D02*
X23476Y21193D01*
X23494Y21188D01*
X23511Y21180D01*
X23525Y21169D01*
X23538Y21155D01*
X23548Y21140D01*
X23554Y21122D01*
X23558Y21104D01*
X23558Y21086D01*
X23554Y21068D01*
X23548Y21050D01*
X23538Y21035D01*
X23525Y21021D01*
X23511Y21010D01*
X23494Y21002D01*
X23476Y20997D01*
X23458Y20995D01*
X23358Y20995D01*
D10*
X23250Y13500D02*
X22750Y13500D01*
X23250Y13500D02*
X23500Y13250D01*
X23500Y12750D01*
X23250Y12500D01*
X22500Y12750D02*
X22500Y13250D01*
X22750Y13500D01*
X22500Y12750D02*
X22750Y12500D01*
X23250Y12500D01*
D11*
X22645Y13845D02*
X22645Y14195D01*
X22645Y13845D02*
X22643Y13828D01*
X22639Y13811D01*
X22632Y13795D01*
X22622Y13781D01*
X22609Y13768D01*
X22595Y13758D01*
X22579Y13751D01*
X22562Y13747D01*
X22545Y13745D01*
X22495Y13745D01*
X22880Y13745D02*
X22880Y14195D01*
X23005Y14195D01*
X23026Y14193D01*
X23046Y14188D01*
X23064Y14180D01*
X23082Y14169D01*
X23097Y14155D01*
X23110Y14138D01*
X23119Y14120D01*
X23126Y14101D01*
X23130Y14080D01*
X23130Y14060D01*
X23126Y14039D01*
X23119Y14020D01*
X23110Y14002D01*
X23097Y13985D01*
X23082Y13971D01*
X23064Y13960D01*
X23046Y13952D01*
X23026Y13947D01*
X23005Y13945D01*
X22880Y13945D01*
X23308Y13845D02*
X23408Y14195D01*
X23308Y13845D02*
X23558Y13845D01*
X23483Y13945D02*
X23483Y13745D01*
M02*
