G04 EAGLE Gerber RS-274X export*
G75*
%MOIN*%
%FSLAX34Y34*%
%LPD*%
%INSoldermask Top*%
%IPPOS*%
%AMOC8*
5,1,8,0,0,1.08239X$1,22.5*%
G01*
%ADD10P,0.073603X8X112.500000*%
%ADD11C,0.208000*%
%ADD12C,0.068000*%
%ADD13C,0.059496*%
%ADD14C,0.078000*%
%ADD15C,0.078000*%
%ADD16P,0.064943X8X112.500000*%
%ADD17P,0.064943X8X292.500000*%
%ADD18P,0.073603X8X22.500000*%


D10*
X17440Y18520D03*
X17440Y17430D03*
X17440Y16350D03*
X17440Y15260D03*
X17440Y14170D03*
X17440Y13090D03*
X17440Y12000D03*
X17440Y10910D03*
X17440Y9830D03*
X17440Y8740D03*
X17440Y7650D03*
X17440Y6570D03*
X17440Y5480D03*
X18560Y17980D03*
X18560Y16890D03*
X18560Y15800D03*
X18560Y14720D03*
X18560Y13630D03*
X18560Y12540D03*
X18560Y11460D03*
X18560Y10370D03*
X18560Y9280D03*
X18560Y8200D03*
X18560Y7110D03*
X18560Y6020D03*
D11*
X18000Y2740D03*
X18000Y21260D03*
D12*
X25200Y13500D02*
X25800Y13500D01*
X25800Y14500D02*
X25200Y14500D01*
X25200Y15500D02*
X25800Y15500D01*
X25800Y16500D02*
X25200Y16500D01*
X5300Y9500D02*
X4700Y9500D01*
X4700Y8500D02*
X5300Y8500D01*
X5300Y7500D02*
X4700Y7500D01*
X4700Y6500D02*
X5300Y6500D01*
D13*
X28243Y3500D02*
X28757Y3500D01*
X28757Y4500D02*
X28243Y4500D01*
X28243Y5500D02*
X28757Y5500D01*
X28757Y6500D02*
X28243Y6500D01*
X28243Y7500D02*
X28757Y7500D01*
X28757Y8500D02*
X28243Y8500D01*
X28243Y9500D02*
X28757Y9500D01*
X28757Y10500D02*
X28243Y10500D01*
X23757Y10500D02*
X23243Y10500D01*
X23243Y9500D02*
X23757Y9500D01*
X23757Y8500D02*
X23243Y8500D01*
X23243Y7500D02*
X23757Y7500D01*
X23757Y6500D02*
X23243Y6500D01*
X23243Y5500D02*
X23757Y5500D01*
X23757Y4500D02*
X23243Y4500D01*
X23243Y3500D02*
X23757Y3500D01*
X9257Y9000D02*
X8743Y9000D01*
X8743Y8000D02*
X9257Y8000D01*
X9257Y7000D02*
X8743Y7000D01*
X8743Y6000D02*
X9257Y6000D01*
X9257Y5000D02*
X8743Y5000D01*
X8743Y4000D02*
X9257Y4000D01*
X9257Y3000D02*
X8743Y3000D01*
X8743Y2000D02*
X9257Y2000D01*
X13743Y2000D02*
X14257Y2000D01*
X14257Y3000D02*
X13743Y3000D01*
X13743Y4000D02*
X14257Y4000D01*
X14257Y5000D02*
X13743Y5000D01*
X13743Y6000D02*
X14257Y6000D01*
X14257Y7000D02*
X13743Y7000D01*
X13743Y8000D02*
X14257Y8000D01*
X14257Y9000D02*
X13743Y9000D01*
D14*
X19000Y29150D02*
X19000Y29850D01*
X18000Y29850D02*
X18000Y29150D01*
X20000Y29150D02*
X20000Y29850D01*
X21000Y29850D02*
X21000Y29150D01*
X22000Y29150D02*
X22000Y29850D01*
X17000Y29850D02*
X17000Y29150D01*
X16000Y29150D02*
X16000Y29850D01*
X15000Y29850D02*
X15000Y29150D01*
D15*
X12000Y14000D03*
X12000Y15000D03*
X12000Y16000D03*
X12000Y17000D03*
X12000Y18000D03*
X12000Y19000D03*
X12000Y20000D03*
X12000Y21000D03*
X12000Y22000D03*
X12000Y23000D03*
X12000Y24000D03*
X12000Y25000D03*
X12000Y26000D03*
X12000Y27000D03*
X12000Y28000D03*
X12000Y29000D03*
X4000Y29000D03*
X4000Y28000D03*
X4000Y27000D03*
X4000Y26000D03*
X4000Y25000D03*
X4000Y24000D03*
X4000Y23000D03*
X4000Y22000D03*
X4000Y21000D03*
X4000Y20000D03*
X4000Y19000D03*
X4000Y18000D03*
D16*
X8500Y24450D03*
X8500Y29450D03*
X7000Y25000D03*
X7000Y30000D03*
X4550Y11050D03*
X4550Y16050D03*
X7000Y17950D03*
X7000Y22950D03*
X21500Y3000D03*
X21500Y5000D03*
D17*
X15000Y12000D03*
X15000Y10000D03*
D16*
X14000Y25500D03*
X14000Y27500D03*
X24500Y27000D03*
X24500Y29000D03*
D18*
X9850Y15500D03*
X10500Y13500D03*
X23000Y20000D03*
X23000Y13000D03*
M02*
