G04 EAGLE Gerber RS-274X export*
G75*
%MOMM*%
%FSLAX34Y34*%
%LPD*%
%INTop Copper*%
%IPPOS*%
%AMOC8*
5,1,8,0,0,1.08239X$1,22.5*%
G01*
%ADD10P,1.649562X8X112.500000*%
%ADD11C,5.080000*%
%ADD12C,1.524000*%
%ADD13C,1.308000*%
%ADD14C,1.778000*%
%ADD15C,1.778000*%
%ADD16P,1.429621X8X112.500000*%
%ADD17P,1.429621X8X292.500000*%
%ADD18P,1.649562X8X22.500000*%
%ADD19C,0.508000*%
%ADD20C,0.508000*%
%ADD21C,0.152400*%


D10*
X442976Y470408D03*
X442976Y442722D03*
X442976Y415290D03*
X442976Y387604D03*
X442976Y359918D03*
X442976Y332486D03*
X442976Y304800D03*
X442976Y277114D03*
X442976Y249682D03*
X442976Y221996D03*
X442976Y194310D03*
X442976Y166878D03*
X442976Y139192D03*
X471424Y456692D03*
X471424Y429006D03*
X471424Y401320D03*
X471424Y373888D03*
X471424Y346202D03*
X471424Y318516D03*
X471424Y291084D03*
X471424Y263398D03*
X471424Y235712D03*
X471424Y208280D03*
X471424Y180594D03*
X471424Y152908D03*
D11*
X457200Y69596D03*
X457200Y540004D03*
D12*
X640080Y342900D02*
X655320Y342900D01*
X655320Y368300D02*
X640080Y368300D01*
X640080Y393700D02*
X655320Y393700D01*
X655320Y419100D02*
X640080Y419100D01*
X134620Y241300D02*
X119380Y241300D01*
X119380Y215900D02*
X134620Y215900D01*
X134620Y190500D02*
X119380Y190500D01*
X119380Y165100D02*
X134620Y165100D01*
D13*
X717360Y88900D02*
X730440Y88900D01*
X730440Y114300D02*
X717360Y114300D01*
X717360Y139700D02*
X730440Y139700D01*
X730440Y165100D02*
X717360Y165100D01*
X717360Y190500D02*
X730440Y190500D01*
X730440Y215900D02*
X717360Y215900D01*
X717360Y241300D02*
X730440Y241300D01*
X730440Y266700D02*
X717360Y266700D01*
X603440Y266700D02*
X590360Y266700D01*
X590360Y241300D02*
X603440Y241300D01*
X603440Y215900D02*
X590360Y215900D01*
X590360Y190500D02*
X603440Y190500D01*
X603440Y165100D02*
X590360Y165100D01*
X590360Y139700D02*
X603440Y139700D01*
X603440Y114300D02*
X590360Y114300D01*
X590360Y88900D02*
X603440Y88900D01*
X235140Y228600D02*
X222060Y228600D01*
X222060Y203200D02*
X235140Y203200D01*
X235140Y177800D02*
X222060Y177800D01*
X222060Y152400D02*
X235140Y152400D01*
X235140Y127000D02*
X222060Y127000D01*
X222060Y101600D02*
X235140Y101600D01*
X235140Y76200D02*
X222060Y76200D01*
X222060Y50800D02*
X235140Y50800D01*
X349060Y50800D02*
X362140Y50800D01*
X362140Y76200D02*
X349060Y76200D01*
X349060Y101600D02*
X362140Y101600D01*
X362140Y127000D02*
X349060Y127000D01*
X349060Y152400D02*
X362140Y152400D01*
X362140Y177800D02*
X349060Y177800D01*
X349060Y203200D02*
X362140Y203200D01*
X362140Y228600D02*
X349060Y228600D01*
D14*
X482600Y740410D02*
X482600Y758190D01*
X457200Y758190D02*
X457200Y740410D01*
X508000Y740410D02*
X508000Y758190D01*
X533400Y758190D02*
X533400Y740410D01*
X558800Y740410D02*
X558800Y758190D01*
X431800Y758190D02*
X431800Y740410D01*
X406400Y740410D02*
X406400Y758190D01*
X381000Y758190D02*
X381000Y740410D01*
D15*
X304800Y355600D03*
X304800Y381000D03*
X304800Y406400D03*
X304800Y431800D03*
X304800Y457200D03*
X304800Y482600D03*
X304800Y508000D03*
X304800Y533400D03*
X304800Y558800D03*
X304800Y584200D03*
X304800Y609600D03*
X304800Y635000D03*
X304800Y660400D03*
X304800Y685800D03*
X304800Y711200D03*
X304800Y736600D03*
X101600Y736600D03*
X101600Y711200D03*
X101600Y685800D03*
X101600Y660400D03*
X101600Y635000D03*
X101600Y609600D03*
X101600Y584200D03*
X101600Y558800D03*
X101600Y533400D03*
X101600Y508000D03*
X101600Y482600D03*
X101600Y457200D03*
D16*
X215900Y621030D03*
X215900Y748030D03*
X177800Y635000D03*
X177800Y762000D03*
X115570Y280670D03*
X115570Y407670D03*
X177800Y455930D03*
X177800Y582930D03*
X546100Y76200D03*
X546100Y127000D03*
D17*
X381000Y304800D03*
X381000Y254000D03*
D16*
X355600Y647700D03*
X355600Y698500D03*
X622300Y685800D03*
X622300Y736600D03*
D18*
X250190Y393700D03*
X266700Y342900D03*
X584200Y508000D03*
X584200Y330200D03*
D19*
X546100Y127000D02*
X525018Y127000D01*
X546100Y127000D02*
X571500Y127000D01*
X584200Y114300D01*
X596900Y114300D01*
X596900Y266700D02*
X635000Y266700D01*
X635000Y114300D01*
X596900Y114300D01*
X471932Y152400D02*
X471424Y152908D01*
X499618Y152400D02*
X525018Y127000D01*
X499618Y152400D02*
X471932Y152400D01*
X546100Y76200D02*
X584200Y76200D01*
X596900Y88900D01*
X455168Y127000D02*
X442976Y139192D01*
X495300Y127000D02*
X546100Y76200D01*
X495300Y127000D02*
X455168Y127000D01*
X723900Y190500D02*
X723900Y215900D01*
X228600Y127000D02*
X228600Y101600D01*
X50800Y152400D02*
X50800Y660400D01*
X50800Y152400D02*
X152400Y50800D01*
X228600Y50800D01*
X101600Y660400D02*
X76200Y660400D01*
X50800Y660400D01*
X63500Y635000D02*
X63500Y165100D01*
X152400Y76200D02*
X228600Y76200D01*
X152400Y76200D02*
X63500Y165100D01*
X63500Y635000D02*
X101600Y635000D01*
X533400Y749300D02*
X533400Y787400D01*
X330200Y700314D02*
X330200Y457200D01*
X304800Y431800D01*
X355600Y700314D02*
X520700Y700314D01*
X355600Y700314D02*
X330200Y700314D01*
X406400Y787400D02*
X533400Y787400D01*
X533400Y716643D02*
X520700Y700314D01*
X406400Y749300D02*
X406400Y787400D01*
X571500Y787400D02*
X622300Y736600D01*
X571500Y787400D02*
X533400Y787400D01*
X533400Y749300D02*
X533400Y716643D01*
X355600Y700314D02*
X355600Y698500D01*
X584200Y139700D02*
X596900Y139700D01*
X568198Y155702D02*
X519430Y156210D01*
X519430Y262890D01*
X471424Y263398D01*
X568198Y155702D02*
X584200Y139700D01*
X573532Y175768D02*
X533400Y175768D01*
X573532Y175768D02*
X584200Y165100D01*
X596900Y165100D01*
X533400Y175768D02*
X533400Y279400D01*
X520700Y292100D01*
X471424Y291084D01*
X546862Y190500D02*
X596900Y190500D01*
X546862Y190500D02*
X546862Y293878D01*
X523240Y317500D01*
X472440Y317500D01*
X471424Y318516D01*
X558800Y215900D02*
X596900Y215900D01*
X558800Y215900D02*
X558800Y304800D01*
X518160Y345440D01*
X472186Y345440D02*
X471424Y346202D01*
X472186Y345440D02*
X518160Y345440D01*
X442976Y166878D02*
X377698Y101600D01*
X355600Y101600D01*
X375666Y127000D02*
X442976Y194310D01*
X375666Y127000D02*
X355600Y127000D01*
X373380Y152400D02*
X442976Y221996D01*
X373380Y152400D02*
X355600Y152400D01*
X355600Y177800D02*
X368300Y177800D01*
X371094Y177800D02*
X442976Y249682D01*
X371094Y177800D02*
X368300Y177800D01*
X787400Y76200D02*
X787400Y533400D01*
X753533Y50800D02*
X660400Y50800D01*
X685800Y635000D02*
X622300Y635000D01*
X787400Y76200D02*
X753533Y50800D01*
X660400Y50800D02*
X660400Y292100D01*
X660400Y50800D02*
X533400Y50800D01*
X406400Y76200D02*
X355600Y76200D01*
X787400Y533400D02*
X685800Y635000D01*
X622300Y635000D02*
X622300Y685800D01*
X584200Y292100D02*
X660400Y292100D01*
X571500Y279400D02*
X571500Y241300D01*
X596900Y241300D01*
X622300Y685800D02*
X558800Y685800D01*
X558800Y749300D01*
X355600Y647700D02*
X342900Y635000D01*
X355600Y647700D02*
X355600Y670560D01*
X370840Y685800D01*
X558800Y685800D01*
X342900Y419100D02*
X304800Y381000D01*
X342900Y419100D02*
X342900Y635000D01*
X444500Y114300D02*
X406400Y76200D01*
X444500Y114300D02*
X469900Y114300D01*
X533400Y50800D01*
X609600Y800100D02*
X177800Y800100D01*
X647700Y762000D02*
X647700Y711200D01*
X622300Y685800D01*
X177800Y698500D02*
X177800Y635000D01*
X609600Y800100D02*
X647700Y762000D01*
X177800Y698500D02*
X152400Y723900D01*
X152400Y774700D01*
X177800Y635000D02*
X215900Y635000D01*
X152400Y774700D02*
X177800Y800100D01*
X584200Y292100D02*
X571500Y279400D01*
X215900Y621030D02*
X215900Y635000D01*
X723900Y241300D02*
X749300Y241300D01*
X749300Y482600D01*
X647700Y584200D02*
X381000Y584200D01*
X381000Y387350D01*
X243840Y304800D02*
X203200Y345440D01*
X647700Y584200D02*
X749300Y482600D01*
X203200Y403860D02*
X203200Y345440D01*
X203200Y403860D02*
X241300Y441960D01*
X243840Y304800D02*
X298450Y304800D01*
X381000Y387350D01*
X241300Y441960D02*
X241300Y568960D01*
X279400Y635000D02*
X304800Y635000D01*
X279400Y607060D02*
X241300Y568960D01*
X279400Y607060D02*
X279400Y635000D01*
X190500Y406400D02*
X190500Y340360D01*
X393700Y386080D02*
X393700Y495300D01*
X469900Y495300D01*
X238760Y292100D02*
X190500Y340360D01*
X266700Y660400D02*
X304800Y660400D01*
X266700Y660400D02*
X266700Y614680D01*
X238760Y292100D02*
X299720Y292100D01*
X393700Y386080D01*
X228600Y444500D02*
X190500Y406400D01*
X228600Y444500D02*
X228600Y576580D01*
X266700Y614680D01*
X635000Y571500D02*
X723900Y482600D01*
X635000Y571500D02*
X546100Y571500D01*
X723900Y482600D02*
X723900Y266700D01*
X469900Y495300D02*
X546100Y571500D01*
X381000Y342900D02*
X304800Y266700D01*
X232410Y266700D02*
X165100Y334010D01*
X232410Y266700D02*
X304800Y266700D01*
X165100Y412750D02*
X203200Y450850D01*
X165100Y412750D02*
X165100Y334010D01*
X203200Y450850D02*
X203200Y590550D01*
X381000Y342900D02*
X421640Y342900D01*
X203200Y590550D02*
X184150Y609600D01*
X151130Y609600D02*
X151130Y699770D01*
X114300Y736600D02*
X101600Y736600D01*
X114300Y736600D02*
X151130Y699770D01*
X151130Y609600D02*
X184150Y609600D01*
X421640Y397510D02*
X442976Y415290D01*
X421640Y397510D02*
X421640Y342900D01*
X355600Y279400D02*
X355600Y228600D01*
X355600Y279400D02*
X381000Y304800D01*
X406400Y304800D01*
X415290Y304800D01*
X415290Y283210D01*
X421386Y277114D02*
X442976Y277114D01*
X421386Y277114D02*
X415290Y283210D01*
D20*
X406400Y304800D03*
D19*
X508000Y711200D02*
X508000Y749300D01*
X508000Y711200D02*
X365760Y711200D01*
D21*
X215900Y748030D02*
X215900Y749300D01*
D19*
X254000Y749300D01*
X266700Y736600D01*
X304800Y736600D01*
X340360Y736600D02*
X365760Y711200D01*
X340360Y736600D02*
X304800Y736600D01*
X342900Y774700D02*
X190500Y774700D01*
X355600Y762000D02*
X355600Y736600D01*
X368300Y723900D02*
X482600Y723900D01*
X355600Y762000D02*
X342900Y774700D01*
X190500Y774700D02*
X177800Y762000D01*
X177800Y736600D01*
X203200Y711200D02*
X304800Y711200D01*
X482600Y723900D02*
X482600Y749300D01*
X368300Y723900D02*
X355600Y736600D01*
X203200Y711200D02*
X177800Y736600D01*
X127000Y190500D02*
X88900Y190500D01*
X88900Y279810D01*
X88900Y419100D01*
X127000Y457200D01*
X127000Y495300D01*
X114300Y508000D02*
X101600Y508000D01*
X114300Y508000D02*
X127000Y495300D01*
X177800Y304800D02*
X177800Y190500D01*
X127000Y190500D01*
X115570Y280670D02*
X88900Y279810D01*
X177800Y450850D02*
X177800Y455930D01*
X177800Y450850D02*
X152400Y425450D01*
X152400Y330200D01*
X177800Y304800D01*
X139700Y449580D02*
X139700Y520700D01*
X139700Y449580D02*
X115570Y425450D01*
X115570Y407670D01*
X115570Y328930D01*
X114300Y685800D02*
X101600Y685800D01*
X114300Y685800D02*
X127000Y673100D01*
X127000Y533400D02*
X139700Y520700D01*
X127000Y533400D02*
X127000Y673100D01*
X115570Y328930D02*
X152400Y292100D01*
X152400Y266700D01*
X127000Y241300D01*
X127000Y165100D02*
X190500Y165100D01*
X190500Y254000D01*
X304800Y254000D01*
X304800Y203200D01*
X304800Y76200D01*
X330200Y50800D02*
X355600Y50800D01*
X381000Y215900D02*
X381000Y254000D01*
X307340Y254000D02*
X383540Y330200D01*
X368300Y203200D02*
X355600Y203200D01*
X368300Y203200D02*
X381000Y215900D01*
X307340Y254000D02*
X304800Y254000D01*
X304800Y203200D02*
X355600Y203200D01*
X304800Y76200D02*
X330200Y50800D01*
X383540Y330200D02*
X419100Y330200D01*
X442976Y304800D01*
X228600Y228600D02*
X203200Y228600D01*
X203200Y127000D01*
X127000Y127000D01*
X76200Y177800D01*
X76200Y609600D02*
X101600Y609600D01*
X76200Y609600D02*
X76200Y177800D01*
X165100Y241300D02*
X165100Y304800D01*
X152400Y533400D02*
X177800Y558800D01*
X152400Y533400D02*
X152400Y444500D01*
X139700Y431800D01*
X139700Y330200D01*
X165100Y304800D01*
X139700Y685800D02*
X114300Y711200D01*
X101600Y711200D01*
X139700Y685800D02*
X139700Y582930D01*
X177800Y582930D01*
X177800Y558800D01*
X165100Y241300D02*
X165100Y215900D01*
X127000Y215900D01*
X302260Y279400D02*
X406400Y383540D01*
X302260Y279400D02*
X234950Y279400D01*
X177800Y336550D01*
X177800Y410210D01*
X215900Y448310D01*
X254000Y622300D02*
X254000Y685800D01*
X304800Y685800D01*
X215900Y584200D02*
X215900Y448310D01*
X215900Y584200D02*
X254000Y622300D01*
X406400Y443230D02*
X406400Y383540D01*
X406400Y443230D02*
X442976Y442722D01*
X774700Y88900D02*
X749300Y63500D01*
X774700Y88900D02*
X774700Y508000D01*
X355600Y609600D02*
X355600Y406400D01*
X304800Y355600D01*
X685800Y495300D02*
X685800Y63500D01*
X749300Y63500D01*
X774700Y508000D02*
X673100Y609600D01*
X355600Y609600D01*
X447040Y485140D02*
X442976Y481076D01*
X442976Y470408D01*
X447040Y485140D02*
X485140Y485140D01*
X558800Y558800D01*
X622300Y558800D01*
X685800Y495300D01*
X673100Y660400D02*
X660400Y673100D01*
X673100Y660400D02*
X685800Y673100D01*
X685800Y685800D01*
X660400Y685800D02*
X660400Y673100D01*
X698500Y660400D02*
X698500Y685800D01*
X698500Y660400D02*
X723900Y660400D01*
X304800Y482600D02*
X284480Y482600D01*
X284480Y360680D01*
X266700Y342900D01*
X266700Y445770D02*
X266700Y552450D01*
X298450Y584200D01*
X304800Y584200D01*
X723900Y88900D02*
X749300Y88900D01*
X762000Y101600D01*
X762000Y495300D01*
X660400Y596900D01*
X368300Y596900D02*
X368300Y389890D01*
X293370Y314960D01*
X368300Y596900D02*
X660400Y596900D01*
X252730Y314960D02*
X228600Y339090D01*
X228600Y368300D01*
X252730Y314960D02*
X293370Y314960D01*
X274320Y438150D02*
X266700Y445770D01*
X274320Y438150D02*
X274320Y375920D01*
X266700Y368300D01*
X228600Y368300D01*
X254000Y558800D02*
X304800Y609600D01*
X254000Y397510D02*
X250190Y393700D01*
X254000Y397510D02*
X254000Y558800D01*
X442976Y359918D02*
X554482Y359918D01*
X584200Y330200D01*
X457200Y401828D02*
X442976Y387604D01*
X457200Y469900D02*
X461010Y473710D01*
X584200Y505460D02*
X584200Y508000D01*
X457200Y469900D02*
X457200Y401828D01*
X461010Y473710D02*
X552450Y473710D01*
X584200Y505460D01*
X609600Y457200D02*
X647700Y419100D01*
X609600Y457200D02*
X471932Y457200D01*
D21*
X471424Y456692D01*
D19*
X635000Y393700D02*
X647700Y393700D01*
X635000Y393700D02*
X598170Y430530D01*
X472948Y430530D01*
D21*
X471424Y429006D01*
D19*
X635000Y368300D02*
X647700Y368300D01*
X635000Y368300D02*
X601980Y401320D01*
X471424Y401320D01*
X635000Y342900D02*
X647700Y342900D01*
X635000Y342900D02*
X603250Y374650D01*
X472186Y374650D01*
D21*
X471424Y373888D01*
M02*
