0
SECTION
2
HEADER
9
$ANGDIR
70
1
9
$AUNITS
70
0
9
$PROJECTNAME
1
plu
9
$TDCREATE
40
2458650.20145895
9
$INSUNITS
70
1
0
ENDSEC
0
SECTION
2
ENTITIES
0
POLYLINE
66
1
8
outline
10
0.0
20
0.0
30
0.0
70
1
0
VERTEX
8
0
10
-0.2
20
0.225
30
0
0
VERTEX
8
0
10
-0.19686983267716535
20
0.2033062253937008
30
0
0
VERTEX
8
0
10
-0.1918607283464567
20
0.1819677657480315
30
0
0
VERTEX
8
0
10
-0.1850109498031496
20
0.16114714566929134
30
0
0
VERTEX
8
0
10
-0.17637266240157481
20
0.1410027066929134
30
0
0
VERTEX
8
0
10
-0.16601144192913386
20
0.12168774606299212
30
0
0
VERTEX
8
0
10
-0.15400639763779528
20
0.1033494094488189
30
0
0
VERTEX
8
0
10
-0.14044857283464568
20
0.08612709153543308
30
0
0
VERTEX
8
0
10
-0.12544143700787402
20
0.07015194389763779
30
0
0
VERTEX
8
0
10
-0.10909904035433071
20
0.05554564468503937
30
0
0
VERTEX
8
0
10
-0.09154576771653543
20
0.04241916830708661
30
0
0
VERTEX
8
0
10
-0.07291535433070866
20
0.03087253937007874
30
0
0
VERTEX
8
0
10
-0.0533494094488189
20
0.020993602362204725
30
0
0
VERTEX
8
0
10
-0.03299692421259842
20
0.012857652559055119
30
0
0
VERTEX
8
0
10
-0.012012672244094488
20
0.00652632874015748
30
0
0
VERTEX
8
0
10
0.009443405511811024
20
0.0020481053149606298
30
0
0
VERTEX
8
0
10
0.031208169291338583
20
-0.0005431840551181102
30
0
0
VERTEX
8
0
10
0.05311589566929134
20
-0.0012276082677165354
30
0
0
VERTEX
8
0
10
0.075
20
0
30
0
0
VERTEX
8
0
10
3.425
20
0
30
0
0
VERTEX
8
0
10
3.446884104330709
20
-0.0012276082677165354
30
0
0
VERTEX
8
0
10
3.4687918307086614
20
-0.0005431840551181102
30
0
0
VERTEX
8
0
10
3.490556594488189
20
0.0020481053149606298
30
0
0
VERTEX
8
0
10
3.5120126722440945
20
0.00652632874015748
30
0
0
VERTEX
8
0
10
3.5329969242125983
20
0.012857652559055119
30
0
0
VERTEX
8
0
10
3.5533494094488187
20
0.020993602362204725
30
0
0
VERTEX
8
0
10
3.572915354330709
20
0.03087253937007874
30
0
0
VERTEX
8
0
10
3.591545767716535
20
0.04241916830708661
30
0
0
VERTEX
8
0
10
3.6090990403543306
20
0.05554564468503937
30
0
0
VERTEX
8
0
10
3.625441437007874
20
0.07015194389763779
30
0
0
VERTEX
8
0
10
3.6404485728346456
20
0.08612709153543308
30
0
0
VERTEX
8
0
10
3.6540063976377954
20
0.1033494094488189
30
0
0
VERTEX
8
0
10
3.666011441929134
20
0.12168774606299212
30
0
0
VERTEX
8
0
10
3.6763726624015747
20
0.1410027066929134
30
0
0
VERTEX
8
0
10
3.6850109498031496
20
0.16114714566929134
30
0
0
VERTEX
8
0
10
3.6918607283464566
20
0.1819677657480315
30
0
0
VERTEX
8
0
10
3.6968698326771654
20
0.2033062253937008
30
0
0
VERTEX
8
0
10
3.7
20
0.225
30
0
0
VERTEX
8
0
10
3.7
20
3.555
30
0
0
VERTEX
8
0
10
3.6990676673228347
20
3.5763531003937006
30
0
0
VERTEX
8
0
10
3.6962779281496063
20
3.5975437992125983
30
0
0
VERTEX
8
0
10
3.6916518208661415
20
3.6184106791338584
30
0
0
VERTEX
8
0
10
3.685224655511811
20
3.638794906496063
30
0
0
VERTEX
8
0
10
3.677045398622047
20
3.658541461614173
30
0
0
VERTEX
8
0
10
3.667176181102362
20
3.6775
30
0
0
VERTEX
8
0
10
3.6556922982283466
20
3.6955262057086613
30
0
0
VERTEX
8
0
10
3.642680856299213
20
3.712483021653543
30
0
0
VERTEX
8
0
10
3.6282411417322833
20
3.7282411417322834
30
0
0
VERTEX
8
0
10
3.6124830216535435
20
3.7426808562992124
30
0
0
VERTEX
8
0
10
3.595526205708661
20
3.7556922982283463
30
0
0
VERTEX
8
0
10
3.5775
20
3.767176181102362
30
0
0
VERTEX
8
0
10
3.558541461614173
20
3.777045398622047
30
0
0
VERTEX
8
0
10
3.538794906496063
20
3.785224655511811
30
0
0
VERTEX
8
0
10
3.5184106791338583
20
3.7916518208661416
30
0
0
VERTEX
8
0
10
3.4975437992125986
20
3.7962779281496064
30
0
0
VERTEX
8
0
10
3.476353100393701
20
3.7990676673228347
30
0
0
VERTEX
8
0
10
3.455
20
3.8
30
0
0
VERTEX
8
0
10
0.105
20
3.8
30
0
0
VERTEX
8
0
10
0.08091806102362205
20
3.801568159448819
30
0
0
VERTEX
8
0
10
0.05679096948818898
20
3.801031619094488
30
0
0
VERTEX
8
0
10
0.0328025344488189
20
3.7983941929133858
30
0
0
VERTEX
8
0
10
0.009135211614173229
20
3.793676058070866
30
0
0
VERTEX
8
0
10
-0.014030757874015748
20
3.7869131397637794
30
0
0
VERTEX
8
0
10
-0.036519192913385824
20
3.7781569881889765
30
0
0
VERTEX
8
0
10
-0.058158956692913384
20
3.7674741633858266
30
0
0
VERTEX
8
0
10
-0.07878531003937007
20
3.7549458661417323
30
0
0
VERTEX
8
0
10
-0.09824114173228346
20
3.7406675688976376
30
0
0
VERTEX
8
0
10
-0.11637856791338583
20
3.724747908464567
30
0
0
VERTEX
8
0
10
-0.1330595472440945
20
3.7073080708661417
30
0
0
VERTEX
8
0
10
-0.14815698818897638
20
3.688480807086614
30
0
0
VERTEX
8
0
10
-0.16155610236220472
20
3.6684092027559054
30
0
0
VERTEX
8
0
10
-0.1731548966535433
20
3.647246309055118
30
0
0
VERTEX
8
0
10
-0.1828650344488189
20
3.6251530511811025
30
0
0
VERTEX
8
0
10
-0.1906126968503937
20
3.6022974901574805
30
0
0
VERTEX
8
0
10
-0.19633882874015748
20
3.578853715551181
30
0
0
VERTEX
8
0
10
-0.2
20
3.555
30
0
0
VERTEX
8
0
10
-0.2
20
0.225
30
0
0
SEQEND
0
POLYLINE
66
1
8
holes
10
0.0
20
0.0
30
0.0
70
1
0
VERTEX
8
0
10
3.506003937007874
20
3.527999753937008
30
0
0
VERTEX
8
0
10
3.505718503937008
20
3.524009596456693
30
0
0
VERTEX
8
0
10
3.5051492372047246
20
3.5200499507874015
30
0
0
VERTEX
8
0
10
3.504298843503937
20
3.516140994094488
30
0
0
VERTEX
8
0
10
3.503171875
20
3.512302657480315
30
0
0
VERTEX
8
0
10
3.501773868110236
20
3.508554502952756
30
0
0
VERTEX
8
0
10
3.5001120816929134
20
3.5049157234251966
30
0
0
VERTEX
8
0
10
3.4981948818897637
20
3.501404650590551
30
0
0
VERTEX
8
0
10
3.4960321112204724
20
3.49803937007874
30
0
0
VERTEX
8
0
10
3.4936348425196853
20
3.4948368602362203
30
0
0
VERTEX
8
0
10
3.4910151328740158
20
3.4918136072834645
30
0
0
VERTEX
8
0
10
3.4881863927165355
20
3.488984867125984
30
0
0
VERTEX
8
0
10
3.4851631397637797
20
3.486365157480315
30
0
0
VERTEX
8
0
10
3.48196062992126
20
3.4839678887795276
30
0
0
VERTEX
8
0
10
3.478595349409449
20
3.4818051181102363
30
0
0
VERTEX
8
0
10
3.4750842765748033
20
3.4798879183070865
30
0
0
VERTEX
8
0
10
3.471445497047244
20
3.478226131889764
30
0
0
VERTEX
8
0
10
3.467697342519685
20
3.476828125
30
0
0
VERTEX
8
0
10
3.463859005905512
20
3.475701156496063
30
0
0
VERTEX
8
0
10
3.4599500492125985
20
3.4748507627952754
30
0
0
VERTEX
8
0
10
3.455990403543307
20
3.474281496062992
30
0
0
VERTEX
8
0
10
3.452000246062992
20
3.473996062992126
30
0
0
VERTEX
8
0
10
3.4479997539370077
20
3.473996062992126
30
0
0
VERTEX
8
0
10
3.444009596456693
20
3.474281496062992
30
0
0
VERTEX
8
0
10
3.4400499507874014
20
3.4748507627952754
30
0
0
VERTEX
8
0
10
3.436140994094488
20
3.475701156496063
30
0
0
VERTEX
8
0
10
3.432302657480315
20
3.476828125
30
0
0
VERTEX
8
0
10
3.428554502952756
20
3.478226131889764
30
0
0
VERTEX
8
0
10
3.424915723425197
20
3.4798879183070865
30
0
0
VERTEX
8
0
10
3.421404650590551
20
3.4818051181102363
30
0
0
VERTEX
8
0
10
3.4180393700787404
20
3.4839678887795276
30
0
0
VERTEX
8
0
10
3.4148368602362207
20
3.486365157480315
30
0
0
VERTEX
8
0
10
3.4118136072834644
20
3.488984867125984
30
0
0
VERTEX
8
0
10
3.408984867125984
20
3.4918136072834645
30
0
0
VERTEX
8
0
10
3.406365157480315
20
3.4948368602362203
30
0
0
VERTEX
8
0
10
3.4039678887795275
20
3.49803937007874
30
0
0
VERTEX
8
0
10
3.4018051181102362
20
3.501404650590551
30
0
0
VERTEX
8
0
10
3.3998879183070865
20
3.5049157234251966
30
0
0
VERTEX
8
0
10
3.3982261318897637
20
3.508554502952756
30
0
0
VERTEX
8
0
10
3.396828125
20
3.512302657480315
30
0
0
VERTEX
8
0
10
3.395701156496063
20
3.516140994094488
30
0
0
VERTEX
8
0
10
3.3948507627952758
20
3.5200499507874015
30
0
0
VERTEX
8
0
10
3.3942814960629923
20
3.524009596456693
30
0
0
VERTEX
8
0
10
3.393996062992126
20
3.527999753937008
30
0
0
VERTEX
8
0
10
3.393996062992126
20
3.5320002460629922
30
0
0
VERTEX
8
0
10
3.3942814960629923
20
3.535990403543307
30
0
0
VERTEX
8
0
10
3.3948507627952758
20
3.5399500492125986
30
0
0
VERTEX
8
0
10
3.395701156496063
20
3.543859005905512
30
0
0
VERTEX
8
0
10
3.396828125
20
3.547697342519685
30
0
0
VERTEX
8
0
10
3.3982261318897637
20
3.551445497047244
30
0
0
VERTEX
8
0
10
3.3998879183070865
20
3.555084276574803
30
0
0
VERTEX
8
0
10
3.4018051181102362
20
3.558595349409449
30
0
0
VERTEX
8
0
10
3.4039678887795275
20
3.56196062992126
30
0
0
VERTEX
8
0
10
3.406365157480315
20
3.5651631397637797
30
0
0
VERTEX
8
0
10
3.408984867125984
20
3.5681863927165356
30
0
0
VERTEX
8
0
10
3.4118136072834644
20
3.571015132874016
30
0
0
VERTEX
8
0
10
3.4148368602362207
20
3.573634842519685
30
0
0
VERTEX
8
0
10
3.4180393700787404
20
3.5760321112204725
30
0
0
VERTEX
8
0
10
3.421404650590551
20
3.5781948818897638
30
0
0
VERTEX
8
0
10
3.424915723425197
20
3.5801120816929135
30
0
0
VERTEX
8
0
10
3.428554502952756
20
3.5817738681102362
30
0
0
VERTEX
8
0
10
3.432302657480315
20
3.583171875
30
0
0
VERTEX
8
0
10
3.436140994094488
20
3.584298843503937
30
0
0
VERTEX
8
0
10
3.4400499507874014
20
3.5851492372047242
30
0
0
VERTEX
8
0
10
3.444009596456693
20
3.585718503937008
30
0
0
VERTEX
8
0
10
3.4479997539370077
20
3.5860039370078742
30
0
0
VERTEX
8
0
10
3.452000246062992
20
3.5860039370078742
30
0
0
VERTEX
8
0
10
3.455990403543307
20
3.585718503937008
30
0
0
VERTEX
8
0
10
3.4599500492125985
20
3.5851492372047242
30
0
0
VERTEX
8
0
10
3.463859005905512
20
3.584298843503937
30
0
0
VERTEX
8
0
10
3.467697342519685
20
3.583171875
30
0
0
VERTEX
8
0
10
3.471445497047244
20
3.5817738681102362
30
0
0
VERTEX
8
0
10
3.4750842765748033
20
3.5801120816929135
30
0
0
VERTEX
8
0
10
3.478595349409449
20
3.5781948818897638
30
0
0
VERTEX
8
0
10
3.48196062992126
20
3.5760321112204725
30
0
0
VERTEX
8
0
10
3.4851631397637797
20
3.573634842519685
30
0
0
VERTEX
8
0
10
3.4881863927165355
20
3.571015132874016
30
0
0
VERTEX
8
0
10
3.4910151328740158
20
3.5681863927165356
30
0
0
VERTEX
8
0
10
3.4936348425196853
20
3.5651631397637797
30
0
0
VERTEX
8
0
10
3.4960321112204724
20
3.56196062992126
30
0
0
VERTEX
8
0
10
3.4981948818897637
20
3.558595349409449
30
0
0
VERTEX
8
0
10
3.5001120816929134
20
3.555084276574803
30
0
0
VERTEX
8
0
10
3.501773868110236
20
3.551445497047244
30
0
0
VERTEX
8
0
10
3.503171875
20
3.547697342519685
30
0
0
VERTEX
8
0
10
3.504298843503937
20
3.543859005905512
30
0
0
VERTEX
8
0
10
3.5051492372047246
20
3.5399500492125986
30
0
0
VERTEX
8
0
10
3.505718503937008
20
3.535990403543307
30
0
0
VERTEX
8
0
10
3.506003937007874
20
3.5320002460629922
30
0
0
VERTEX
8
0
10
3.506003937007874
20
3.527999753937008
30
0
0
SEQEND
0
POLYLINE
66
1
8
holes
10
0.0
20
0.0
30
0.0
70
1
0
VERTEX
8
0
10
0.006003937007874016
20
0.8979997539370079
30
0
0
VERTEX
8
0
10
0.005718503937007874
20
0.8940095964566929
30
0
0
VERTEX
8
0
10
0.005149237204724409
20
0.8900499507874016
30
0
0
VERTEX
8
0
10
0.004298843503937008
20
0.8861409940944882
30
0
0
VERTEX
8
0
10
0.003171875
20
0.882302657480315
30
0
0
VERTEX
8
0
10
0.0017738681102362204
20
0.878554502952756
30
0
0
VERTEX
8
0
10
0.00011208169291338582
20
0.8749157234251969
30
0
0
VERTEX
8
0
10
-0.0018051181102362204
20
0.8714046505905512
30
0
0
VERTEX
8
0
10
-0.003967888779527559
20
0.8680393700787401
30
0
0
VERTEX
8
0
10
-0.00636515748031496
20
0.8648368602362204
30
0
0
VERTEX
8
0
10
-0.008984867125984251
20
0.8618136072834646
30
0
0
VERTEX
8
0
10
-0.011813607283464566
20
0.8589848671259842
30
0
0
VERTEX
8
0
10
-0.014836860236220472
20
0.8563651574803149
30
0
0
VERTEX
8
0
10
-0.018039370078740156
20
0.8539678887795276
30
0
0
VERTEX
8
0
10
-0.02140465059055118
20
0.8518051181102362
30
0
0
VERTEX
8
0
10
-0.02491572342519685
20
0.8498879183070867
30
0
0
VERTEX
8
0
10
-0.028554502952755904
20
0.8482261318897638
30
0
0
VERTEX
8
0
10
-0.03230265748031496
20
0.846828125
30
0
0
VERTEX
8
0
10
-0.03614099409448819
20
0.845701156496063
30
0
0
VERTEX
8
0
10
-0.040049950787401575
20
0.8448507627952756
30
0
0
VERTEX
8
0
10
-0.04400959645669291
20
0.8442814960629921
30
0
0
VERTEX
8
0
10
-0.04799975393700787
20
0.843996062992126
30
0
0
VERTEX
8
0
10
-0.052000246062992125
20
0.843996062992126
30
0
0
VERTEX
8
0
10
-0.05599040354330709
20
0.8442814960629921
30
0
0
VERTEX
8
0
10
-0.05995004921259842
20
0.8448507627952756
30
0
0
VERTEX
8
0
10
-0.06385900590551181
20
0.845701156496063
30
0
0
VERTEX
8
0
10
-0.06769734251968504
20
0.846828125
30
0
0
VERTEX
8
0
10
-0.0714454970472441
20
0.8482261318897638
30
0
0
VERTEX
8
0
10
-0.07508427657480315
20
0.8498879183070867
30
0
0
VERTEX
8
0
10
-0.07859534940944882
20
0.8518051181102362
30
0
0
VERTEX
8
0
10
-0.08196062992125984
20
0.8539678887795276
30
0
0
VERTEX
8
0
10
-0.08516313976377952
20
0.8563651574803149
30
0
0
VERTEX
8
0
10
-0.08818639271653543
20
0.8589848671259842
30
0
0
VERTEX
8
0
10
-0.09101513287401575
20
0.8618136072834646
30
0
0
VERTEX
8
0
10
-0.09363484251968504
20
0.8648368602362204
30
0
0
VERTEX
8
0
10
-0.09603211122047244
20
0.8680393700787401
30
0
0
VERTEX
8
0
10
-0.09819488188976377
20
0.8714046505905512
30
0
0
VERTEX
8
0
10
-0.10011208169291338
20
0.8749157234251969
30
0
0
VERTEX
8
0
10
-0.10177386811023623
20
0.878554502952756
30
0
0
VERTEX
8
0
10
-0.103171875
20
0.882302657480315
30
0
0
VERTEX
8
0
10
-0.104298843503937
20
0.8861409940944882
30
0
0
VERTEX
8
0
10
-0.10514923720472441
20
0.8900499507874016
30
0
0
VERTEX
8
0
10
-0.10571850393700788
20
0.8940095964566929
30
0
0
VERTEX
8
0
10
-0.10600393700787401
20
0.8979997539370079
30
0
0
VERTEX
8
0
10
-0.10600393700787401
20
0.9020002460629921
30
0
0
VERTEX
8
0
10
-0.10571850393700788
20
0.9059904035433071
30
0
0
VERTEX
8
0
10
-0.10514923720472441
20
0.9099500492125985
30
0
0
VERTEX
8
0
10
-0.104298843503937
20
0.9138590059055118
30
0
0
VERTEX
8
0
10
-0.103171875
20
0.917697342519685
30
0
0
VERTEX
8
0
10
-0.10177386811023623
20
0.9214454970472441
30
0
0
VERTEX
8
0
10
-0.10011208169291338
20
0.9250842765748032
30
0
0
VERTEX
8
0
10
-0.09819488188976377
20
0.9285953494094488
30
0
0
VERTEX
8
0
10
-0.09603211122047244
20
0.9319606299212598
30
0
0
VERTEX
8
0
10
-0.09363484251968504
20
0.9351631397637795
30
0
0
VERTEX
8
0
10
-0.09101513287401575
20
0.9381863927165355
30
0
0
VERTEX
8
0
10
-0.08818639271653543
20
0.9410151328740157
30
0
0
VERTEX
8
0
10
-0.08516313976377952
20
0.943634842519685
30
0
0
VERTEX
8
0
10
-0.08196062992125984
20
0.9460321112204725
30
0
0
VERTEX
8
0
10
-0.07859534940944882
20
0.9481948818897638
30
0
0
VERTEX
8
0
10
-0.07508427657480315
20
0.9501120816929134
30
0
0
VERTEX
8
0
10
-0.0714454970472441
20
0.9517738681102362
30
0
0
VERTEX
8
0
10
-0.06769734251968504
20
0.953171875
30
0
0
VERTEX
8
0
10
-0.06385900590551181
20
0.954298843503937
30
0
0
VERTEX
8
0
10
-0.05995004921259842
20
0.9551492372047244
30
0
0
VERTEX
8
0
10
-0.05599040354330709
20
0.9557185039370079
30
0
0
VERTEX
8
0
10
-0.052000246062992125
20
0.956003937007874
30
0
0
VERTEX
8
0
10
-0.04799975393700787
20
0.956003937007874
30
0
0
VERTEX
8
0
10
-0.04400959645669291
20
0.9557185039370079
30
0
0
VERTEX
8
0
10
-0.040049950787401575
20
0.9551492372047244
30
0
0
VERTEX
8
0
10
-0.03614099409448819
20
0.954298843503937
30
0
0
VERTEX
8
0
10
-0.03230265748031496
20
0.953171875
30
0
0
VERTEX
8
0
10
-0.028554502952755904
20
0.9517738681102362
30
0
0
VERTEX
8
0
10
-0.02491572342519685
20
0.9501120816929134
30
0
0
VERTEX
8
0
10
-0.02140465059055118
20
0.9481948818897638
30
0
0
VERTEX
8
0
10
-0.018039370078740156
20
0.9460321112204725
30
0
0
VERTEX
8
0
10
-0.014836860236220472
20
0.943634842519685
30
0
0
VERTEX
8
0
10
-0.011813607283464566
20
0.9410151328740157
30
0
0
VERTEX
8
0
10
-0.008984867125984251
20
0.9381863927165355
30
0
0
VERTEX
8
0
10
-0.00636515748031496
20
0.9351631397637795
30
0
0
VERTEX
8
0
10
-0.003967888779527559
20
0.9319606299212598
30
0
0
VERTEX
8
0
10
-0.0018051181102362204
20
0.9285953494094488
30
0
0
VERTEX
8
0
10
0.00011208169291338582
20
0.9250842765748032
30
0
0
VERTEX
8
0
10
0.0017738681102362204
20
0.9214454970472441
30
0
0
VERTEX
8
0
10
0.003171875
20
0.917697342519685
30
0
0
VERTEX
8
0
10
0.004298843503937008
20
0.9138590059055118
30
0
0
VERTEX
8
0
10
0.005149237204724409
20
0.9099500492125985
30
0
0
VERTEX
8
0
10
0.005718503937007874
20
0.9059904035433071
30
0
0
VERTEX
8
0
10
0.006003937007874016
20
0.9020002460629921
30
0
0
VERTEX
8
0
10
0.006003937007874016
20
0.8979997539370079
30
0
0
SEQEND
0
POLYLINE
66
1
8
holes
10
0.0
20
0.0
30
0.0
70
1
0
VERTEX
8
0
10
0.15600393700787402
20
3.527999753937008
30
0
0
VERTEX
8
0
10
0.15571850393700787
20
3.524009596456693
30
0
0
VERTEX
8
0
10
0.1551492372047244
20
3.5200499507874015
30
0
0
VERTEX
8
0
10
0.154298843503937
20
3.516140994094488
30
0
0
VERTEX
8
0
10
0.153171875
20
3.512302657480315
30
0
0
VERTEX
8
0
10
0.15177386811023622
20
3.508554502952756
30
0
0
VERTEX
8
0
10
0.15011208169291337
20
3.5049157234251966
30
0
0
VERTEX
8
0
10
0.1481948818897638
20
3.501404650590551
30
0
0
VERTEX
8
0
10
0.14603211122047244
20
3.49803937007874
30
0
0
VERTEX
8
0
10
0.14363484251968503
20
3.4948368602362203
30
0
0
VERTEX
8
0
10
0.14101513287401574
20
3.4918136072834645
30
0
0
VERTEX
8
0
10
0.13818639271653543
20
3.488984867125984
30
0
0
VERTEX
8
0
10
0.13516313976377953
20
3.486365157480315
30
0
0
VERTEX
8
0
10
0.13196062992125984
20
3.4839678887795276
30
0
0
VERTEX
8
0
10
0.1285953494094488
20
3.4818051181102363
30
0
0
VERTEX
8
0
10
0.12508427657480314
20
3.4798879183070865
30
0
0
VERTEX
8
0
10
0.1214454970472441
20
3.478226131889764
30
0
0
VERTEX
8
0
10
0.11769734251968504
20
3.476828125
30
0
0
VERTEX
8
0
10
0.11385900590551182
20
3.475701156496063
30
0
0
VERTEX
8
0
10
0.10995004921259842
20
3.4748507627952754
30
0
0
VERTEX
8
0
10
0.10599040354330709
20
3.474281496062992
30
0
0
VERTEX
8
0
10
0.10200024606299213
20
3.473996062992126
30
0
0
VERTEX
8
0
10
0.09799975393700787
20
3.473996062992126
30
0
0
VERTEX
8
0
10
0.0940095964566929
20
3.474281496062992
30
0
0
VERTEX
8
0
10
0.09004995078740158
20
3.4748507627952754
30
0
0
VERTEX
8
0
10
0.0861409940944882
20
3.475701156496063
30
0
0
VERTEX
8
0
10
0.08230265748031496
20
3.476828125
30
0
0
VERTEX
8
0
10
0.0785545029527559
20
3.478226131889764
30
0
0
VERTEX
8
0
10
0.07491572342519685
20
3.4798879183070865
30
0
0
VERTEX
8
0
10
0.07140465059055118
20
3.4818051181102363
30
0
0
VERTEX
8
0
10
0.06803937007874016
20
3.4839678887795276
30
0
0
VERTEX
8
0
10
0.06483686023622047
20
3.486365157480315
30
0
0
VERTEX
8
0
10
0.061813607283464564
20
3.488984867125984
30
0
0
VERTEX
8
0
10
0.058984867125984254
20
3.4918136072834645
30
0
0
VERTEX
8
0
10
0.05636515748031496
20
3.4948368602362203
30
0
0
VERTEX
8
0
10
0.05396788877952756
20
3.49803937007874
30
0
0
VERTEX
8
0
10
0.05180511811023622
20
3.501404650590551
30
0
0
VERTEX
8
0
10
0.049887918307086616
20
3.5049157234251966
30
0
0
VERTEX
8
0
10
0.04822613188976378
20
3.508554502952756
30
0
0
VERTEX
8
0
10
0.046828125
20
3.512302657480315
30
0
0
VERTEX
8
0
10
0.04570115649606299
20
3.516140994094488
30
0
0
VERTEX
8
0
10
0.04485076279527559
20
3.5200499507874015
30
0
0
VERTEX
8
0
10
0.04428149606299213
20
3.524009596456693
30
0
0
VERTEX
8
0
10
0.04399606299212598
20
3.527999753937008
30
0
0
VERTEX
8
0
10
0.04399606299212598
20
3.5320002460629922
30
0
0
VERTEX
8
0
10
0.04428149606299213
20
3.535990403543307
30
0
0
VERTEX
8
0
10
0.04485076279527559
20
3.5399500492125986
30
0
0
VERTEX
8
0
10
0.04570115649606299
20
3.543859005905512
30
0
0
VERTEX
8
0
10
0.046828125
20
3.547697342519685
30
0
0
VERTEX
8
0
10
0.04822613188976378
20
3.551445497047244
30
0
0
VERTEX
8
0
10
0.049887918307086616
20
3.555084276574803
30
0
0
VERTEX
8
0
10
0.05180511811023622
20
3.558595349409449
30
0
0
VERTEX
8
0
10
0.05396788877952756
20
3.56196062992126
30
0
0
VERTEX
8
0
10
0.05636515748031496
20
3.5651631397637797
30
0
0
VERTEX
8
0
10
0.058984867125984254
20
3.5681863927165356
30
0
0
VERTEX
8
0
10
0.061813607283464564
20
3.571015132874016
30
0
0
VERTEX
8
0
10
0.06483686023622047
20
3.573634842519685
30
0
0
VERTEX
8
0
10
0.06803937007874016
20
3.5760321112204725
30
0
0
VERTEX
8
0
10
0.07140465059055118
20
3.5781948818897638
30
0
0
VERTEX
8
0
10
0.07491572342519685
20
3.5801120816929135
30
0
0
VERTEX
8
0
10
0.0785545029527559
20
3.5817738681102362
30
0
0
VERTEX
8
0
10
0.08230265748031496
20
3.583171875
30
0
0
VERTEX
8
0
10
0.0861409940944882
20
3.584298843503937
30
0
0
VERTEX
8
0
10
0.09004995078740158
20
3.5851492372047242
30
0
0
VERTEX
8
0
10
0.0940095964566929
20
3.585718503937008
30
0
0
VERTEX
8
0
10
0.09799975393700787
20
3.5860039370078742
30
0
0
VERTEX
8
0
10
0.10200024606299213
20
3.5860039370078742
30
0
0
VERTEX
8
0
10
0.10599040354330709
20
3.585718503937008
30
0
0
VERTEX
8
0
10
0.10995004921259842
20
3.5851492372047242
30
0
0
VERTEX
8
0
10
0.11385900590551182
20
3.584298843503937
30
0
0
VERTEX
8
0
10
0.11769734251968504
20
3.583171875
30
0
0
VERTEX
8
0
10
0.1214454970472441
20
3.5817738681102362
30
0
0
VERTEX
8
0
10
0.12508427657480314
20
3.5801120816929135
30
0
0
VERTEX
8
0
10
0.1285953494094488
20
3.5781948818897638
30
0
0
VERTEX
8
0
10
0.13196062992125984
20
3.5760321112204725
30
0
0
VERTEX
8
0
10
0.13516313976377953
20
3.573634842519685
30
0
0
VERTEX
8
0
10
0.13818639271653543
20
3.571015132874016
30
0
0
VERTEX
8
0
10
0.14101513287401574
20
3.5681863927165356
30
0
0
VERTEX
8
0
10
0.14363484251968503
20
3.5651631397637797
30
0
0
VERTEX
8
0
10
0.14603211122047244
20
3.56196062992126
30
0
0
VERTEX
8
0
10
0.1481948818897638
20
3.558595349409449
30
0
0
VERTEX
8
0
10
0.15011208169291337
20
3.555084276574803
30
0
0
VERTEX
8
0
10
0.15177386811023622
20
3.551445497047244
30
0
0
VERTEX
8
0
10
0.153171875
20
3.547697342519685
30
0
0
VERTEX
8
0
10
0.154298843503937
20
3.543859005905512
30
0
0
VERTEX
8
0
10
0.1551492372047244
20
3.5399500492125986
30
0
0
VERTEX
8
0
10
0.15571850393700787
20
3.535990403543307
30
0
0
VERTEX
8
0
10
0.15600393700787402
20
3.5320002460629922
30
0
0
VERTEX
8
0
10
0.15600393700787402
20
3.527999753937008
30
0
0
SEQEND
0
POLYLINE
66
1
8
holes
10
0.0
20
0.0
30
0.0
70
1
0
VERTEX
8
0
10
3.506003937007874
20
0.24799975393700788
30
0
0
VERTEX
8
0
10
3.505718503937008
20
0.2440095964566929
30
0
0
VERTEX
8
0
10
3.5051492372047246
20
0.24004995078740157
30
0
0
VERTEX
8
0
10
3.504298843503937
20
0.2361409940944882
30
0
0
VERTEX
8
0
10
3.503171875
20
0.23230265748031495
30
0
0
VERTEX
8
0
10
3.501773868110236
20
0.2285545029527559
30
0
0
VERTEX
8
0
10
3.5001120816929134
20
0.22491572342519686
30
0
0
VERTEX
8
0
10
3.4981948818897637
20
0.22140465059055117
30
0
0
VERTEX
8
0
10
3.4960321112204724
20
0.21803937007874016
30
0
0
VERTEX
8
0
10
3.4936348425196853
20
0.21483686023622048
30
0
0
VERTEX
8
0
10
3.4910151328740158
20
0.21181360728346457
30
0
0
VERTEX
8
0
10
3.4881863927165355
20
0.20898486712598424
30
0
0
VERTEX
8
0
10
3.4851631397637797
20
0.20636515748031495
30
0
0
VERTEX
8
0
10
3.48196062992126
20
0.20396788877952757
30
0
0
VERTEX
8
0
10
3.478595349409449
20
0.20180511811023621
30
0
0
VERTEX
8
0
10
3.4750842765748033
20
0.1998879183070866
30
0
0
VERTEX
8
0
10
3.471445497047244
20
0.1982261318897638
30
0
0
VERTEX
8
0
10
3.467697342519685
20
0.196828125
30
0
0
VERTEX
8
0
10
3.463859005905512
20
0.19570115649606298
30
0
0
VERTEX
8
0
10
3.4599500492125985
20
0.19485076279527558
30
0
0
VERTEX
8
0
10
3.455990403543307
20
0.19428149606299214
30
0
0
VERTEX
8
0
10
3.452000246062992
20
0.193996062992126
30
0
0
VERTEX
8
0
10
3.4479997539370077
20
0.193996062992126
30
0
0
VERTEX
8
0
10
3.444009596456693
20
0.19428149606299214
30
0
0
VERTEX
8
0
10
3.4400499507874014
20
0.19485076279527558
30
0
0
VERTEX
8
0
10
3.436140994094488
20
0.19570115649606298
30
0
0
VERTEX
8
0
10
3.432302657480315
20
0.196828125
30
0
0
VERTEX
8
0
10
3.428554502952756
20
0.1982261318897638
30
0
0
VERTEX
8
0
10
3.424915723425197
20
0.1998879183070866
30
0
0
VERTEX
8
0
10
3.421404650590551
20
0.20180511811023621
30
0
0
VERTEX
8
0
10
3.4180393700787404
20
0.20396788877952757
30
0
0
VERTEX
8
0
10
3.4148368602362207
20
0.20636515748031495
30
0
0
VERTEX
8
0
10
3.4118136072834644
20
0.20898486712598424
30
0
0
VERTEX
8
0
10
3.408984867125984
20
0.21181360728346457
30
0
0
VERTEX
8
0
10
3.406365157480315
20
0.21483686023622048
30
0
0
VERTEX
8
0
10
3.4039678887795275
20
0.21803937007874016
30
0
0
VERTEX
8
0
10
3.4018051181102362
20
0.22140465059055117
30
0
0
VERTEX
8
0
10
3.3998879183070865
20
0.22491572342519686
30
0
0
VERTEX
8
0
10
3.3982261318897637
20
0.2285545029527559
30
0
0
VERTEX
8
0
10
3.396828125
20
0.23230265748031495
30
0
0
VERTEX
8
0
10
3.395701156496063
20
0.2361409940944882
30
0
0
VERTEX
8
0
10
3.3948507627952758
20
0.24004995078740157
30
0
0
VERTEX
8
0
10
3.3942814960629923
20
0.2440095964566929
30
0
0
VERTEX
8
0
10
3.393996062992126
20
0.24799975393700788
30
0
0
VERTEX
8
0
10
3.393996062992126
20
0.25200024606299215
30
0
0
VERTEX
8
0
10
3.3942814960629923
20
0.2559904035433071
30
0
0
VERTEX
8
0
10
3.3948507627952758
20
0.2599500492125984
30
0
0
VERTEX
8
0
10
3.395701156496063
20
0.2638590059055118
30
0
0
VERTEX
8
0
10
3.396828125
20
0.267697342519685
30
0
0
VERTEX
8
0
10
3.3982261318897637
20
0.2714454970472441
30
0
0
VERTEX
8
0
10
3.3998879183070865
20
0.27508427657480317
30
0
0
VERTEX
8
0
10
3.4018051181102362
20
0.2785953494094488
30
0
0
VERTEX
8
0
10
3.4039678887795275
20
0.28196062992125986
30
0
0
VERTEX
8
0
10
3.406365157480315
20
0.28516313976377955
30
0
0
VERTEX
8
0
10
3.408984867125984
20
0.28818639271653546
30
0
0
VERTEX
8
0
10
3.4118136072834644
20
0.29101513287401576
30
0
0
VERTEX
8
0
10
3.4148368602362207
20
0.293634842519685
30
0
0
VERTEX
8
0
10
3.4180393700787404
20
0.29603211122047246
30
0
0
VERTEX
8
0
10
3.421404650590551
20
0.2981948818897638
30
0
0
VERTEX
8
0
10
3.424915723425197
20
0.30011208169291337
30
0
0
VERTEX
8
0
10
3.428554502952756
20
0.3017738681102362
30
0
0
VERTEX
8
0
10
3.432302657480315
20
0.303171875
30
0
0
VERTEX
8
0
10
3.436140994094488
20
0.304298843503937
30
0
0
VERTEX
8
0
10
3.4400499507874014
20
0.3051492372047244
30
0
0
VERTEX
8
0
10
3.444009596456693
20
0.3057185039370079
30
0
0
VERTEX
8
0
10
3.4479997539370077
20
0.30600393700787404
30
0
0
VERTEX
8
0
10
3.452000246062992
20
0.30600393700787404
30
0
0
VERTEX
8
0
10
3.455990403543307
20
0.3057185039370079
30
0
0
VERTEX
8
0
10
3.4599500492125985
20
0.3051492372047244
30
0
0
VERTEX
8
0
10
3.463859005905512
20
0.304298843503937
30
0
0
VERTEX
8
0
10
3.467697342519685
20
0.303171875
30
0
0
VERTEX
8
0
10
3.471445497047244
20
0.3017738681102362
30
0
0
VERTEX
8
0
10
3.4750842765748033
20
0.30011208169291337
30
0
0
VERTEX
8
0
10
3.478595349409449
20
0.2981948818897638
30
0
0
VERTEX
8
0
10
3.48196062992126
20
0.29603211122047246
30
0
0
VERTEX
8
0
10
3.4851631397637797
20
0.293634842519685
30
0
0
VERTEX
8
0
10
3.4881863927165355
20
0.29101513287401576
30
0
0
VERTEX
8
0
10
3.4910151328740158
20
0.28818639271653546
30
0
0
VERTEX
8
0
10
3.4936348425196853
20
0.28516313976377955
30
0
0
VERTEX
8
0
10
3.4960321112204724
20
0.28196062992125986
30
0
0
VERTEX
8
0
10
3.4981948818897637
20
0.2785953494094488
30
0
0
VERTEX
8
0
10
3.5001120816929134
20
0.27508427657480317
30
0
0
VERTEX
8
0
10
3.501773868110236
20
0.2714454970472441
30
0
0
VERTEX
8
0
10
3.503171875
20
0.267697342519685
30
0
0
VERTEX
8
0
10
3.504298843503937
20
0.2638590059055118
30
0
0
VERTEX
8
0
10
3.5051492372047246
20
0.2599500492125984
30
0
0
VERTEX
8
0
10
3.505718503937008
20
0.2559904035433071
30
0
0
VERTEX
8
0
10
3.506003937007874
20
0.25200024606299215
30
0
0
VERTEX
8
0
10
3.506003937007874
20
0.24799975393700788
30
0
0
SEQEND
0
POLYLINE
66
1
8
1_copper
10
0.0
20
0.0
30
0.0
70
1
0
VERTEX
8
0
10
1.228
20
0.48840206692913385
30
0
0
VERTEX
8
0
10
1.228
20
0.5115979330708661
30
0
0
VERTEX
8
0
10
1.2115979330708662
20
0.528
30
0
0
VERTEX
8
0
10
1.1884020669291337
20
0.528
30
0
0
VERTEX
8
0
10
1.172
20
0.5115979330708661
30
0
0
VERTEX
8
0
10
1.172
20
0.48840206692913385
30
0
0
VERTEX
8
0
10
1.1884020669291337
20
0.472
30
0
0
VERTEX
8
0
10
1.2115979330708662
20
0.472
30
0
0
SEQEND
0
POLYLINE
66
1
8
1_copper
10
0.0
20
0.0
30
0.0
70
1
0
VERTEX
8
0
10
0.728
20
0.38840206692913387
30
0
0
VERTEX
8
0
10
0.728
20
0.4115979330708661
30
0
0
VERTEX
8
0
10
0.7115979330708662
20
0.428
30
0
0
VERTEX
8
0
10
0.6884020669291339
20
0.428
30
0
0
VERTEX
8
0
10
0.672
20
0.4115979330708661
30
0
0
VERTEX
8
0
10
0.672
20
0.38840206692913387
30
0
0
VERTEX
8
0
10
0.6884020669291339
20
0.372
30
0
0
VERTEX
8
0
10
0.7115979330708662
20
0.372
30
0
0
SEQEND
0
POLYLINE
66
1
8
1_copper
10
0.0
20
0.0
30
0.0
70
1
0
VERTEX
8
0
10
1.228
20
0.38840206692913387
30
0
0
VERTEX
8
0
10
1.228
20
0.4115979330708661
30
0
0
VERTEX
8
0
10
1.2115979330708662
20
0.428
30
0
0
VERTEX
8
0
10
1.1884020669291337
20
0.428
30
0
0
VERTEX
8
0
10
1.172
20
0.4115979330708661
30
0
0
VERTEX
8
0
10
1.172
20
0.38840206692913387
30
0
0
VERTEX
8
0
10
1.1884020669291337
20
0.372
30
0
0
VERTEX
8
0
10
1.2115979330708662
20
0.372
30
0
0
SEQEND
0
POLYLINE
66
1
8
16_copper
10
0.0
20
0.0
30
0.0
70
1
0
VERTEX
8
0
10
1.228
20
0.48840206692913385
30
0
0
VERTEX
8
0
10
1.228
20
0.5115979330708661
30
0
0
VERTEX
8
0
10
1.2115979330708662
20
0.528
30
0
0
VERTEX
8
0
10
1.1884020669291337
20
0.528
30
0
0
VERTEX
8
0
10
1.172
20
0.5115979330708661
30
0
0
VERTEX
8
0
10
1.172
20
0.48840206692913385
30
0
0
VERTEX
8
0
10
1.1884020669291337
20
0.472
30
0
0
VERTEX
8
0
10
1.2115979330708662
20
0.472
30
0
0
SEQEND
0
POLYLINE
66
1
8
16_copper
10
0.0
20
0.0
30
0.0
70
1
0
VERTEX
8
0
10
0.728
20
0.38840206692913387
30
0
0
VERTEX
8
0
10
0.728
20
0.4115979330708661
30
0
0
VERTEX
8
0
10
0.7115979330708662
20
0.428
30
0
0
VERTEX
8
0
10
0.6884020669291339
20
0.428
30
0
0
VERTEX
8
0
10
0.672
20
0.4115979330708661
30
0
0
VERTEX
8
0
10
0.672
20
0.38840206692913387
30
0
0
VERTEX
8
0
10
0.6884020669291339
20
0.372
30
0
0
VERTEX
8
0
10
0.7115979330708662
20
0.372
30
0
0
SEQEND
0
POLYLINE
66
1
8
16_copper
10
0.0
20
0.0
30
0.0
70
1
0
VERTEX
8
0
10
1.228
20
0.38840206692913387
30
0
0
VERTEX
8
0
10
1.228
20
0.4115979330708661
30
0
0
VERTEX
8
0
10
1.2115979330708662
20
0.428
30
0
0
VERTEX
8
0
10
1.1884020669291337
20
0.428
30
0
0
VERTEX
8
0
10
1.172
20
0.4115979330708661
30
0
0
VERTEX
8
0
10
1.172
20
0.38840206692913387
30
0
0
VERTEX
8
0
10
1.1884020669291337
20
0.372
30
0
0
VERTEX
8
0
10
1.2115979330708662
20
0.372
30
0
0
SEQEND
0
POLYLINE
66
1
8
1_copper
10
0.0
20
0.0
30
0.0
70
1
0
VERTEX
8
0
10
-0.05787721456692913
20
3.098603715551181
30
0
42
0.9159168875285966
0
VERTEX
8
0
10
-0.042
20
3.1
30
0
0
VERTEX
8
0
10
-0.042
20
3.192
30
0
0
VERTEX
8
0
10
0.05
20
3.192
30
0
42
0.4142135623730951
0
VERTEX
8
0
10
0.058
20
3.2
30
0
0
VERTEX
8
0
10
0.058
20
3.3
30
0
42
0.4142135623730951
0
VERTEX
8
0
10
0.05
20
3.308
30
0
0
VERTEX
8
0
10
-0.05
20
3.308
30
0
42
0.4142135623730951
0
VERTEX
8
0
10
-0.058
20
3.3
30
0
0
VERTEX
8
0
10
-0.058
20
3.1
30
0
0
SEQEND
0
POLYLINE
66
1
8
1_copper
10
0.0
20
0.0
30
0.0
70
1
0
VERTEX
8
0
10
-0.042
20
3.208
30
0
0
VERTEX
8
0
10
-0.042
20
3.292
30
0
0
VERTEX
8
0
10
0.042
20
3.292
30
0
0
VERTEX
8
0
10
0.042
20
3.208
30
0
0
SEQEND
0
POLYLINE
66
1
8
1_copper
10
0.0
20
0.0
30
0.0
70
1
0
VERTEX
8
0
10
0.2513962844488189
20
3.092122785433071
30
0
42
0.9159168875285966
0
VERTEX
8
0
10
0.25
20
3.108
30
0
0
VERTEX
8
0
10
0.11931373031496063
20
3.108
30
0
0
VERTEX
8
0
10
0.2556568651574803
20
3.2443431348425196
30
0
42
0.4142135623730951
0
VERTEX
8
0
10
0.2556568651574803
20
3.2556568651574804
30
0
0
VERTEX
8
0
10
0.20565686515748033
20
3.3056568651574803
30
0
42
0.19891236737965798
0
VERTEX
8
0
10
0.2
20
3.308
30
0
0
VERTEX
8
0
10
0.155
20
3.308
30
0
42
0.19891236737965798
0
VERTEX
8
0
10
0.14934313484251968
20
3.3056568651574803
30
0
0
VERTEX
8
0
10
0.11434313484251969
20
3.27065686515748
30
0
42
0.9999999999999999
0
VERTEX
8
0
10
0.1256568651574803
20
3.2593431348425197
30
0
0
VERTEX
8
0
10
0.15831373031496063
20
3.292
30
0
0
VERTEX
8
0
10
0.19668626968503938
20
3.292
30
0
0
VERTEX
8
0
10
0.23868626968503937
20
3.25
30
0
0
VERTEX
8
0
10
0.09434313484251969
20
3.1056568651574805
30
0
42
0.6681786379192989
0
VERTEX
8
0
10
0.1
20
3.092
30
0
0
VERTEX
8
0
10
0.25
20
3.092
30
0
0
SEQEND
0
POLYLINE
66
1
8
1_copper
10
0.0
20
0.0
30
0.0
70
1
0
VERTEX
8
0
10
2.9594072342519686
20
0.2402888779527559
30
0
42
0.3578057741447831
0
VERTEX
8
0
10
2.985
20
0.2685262057086614
30
0
0
VERTEX
8
0
10
2.985
20
0.3314737942913386
30
0
42
0.1349622529079658
0
VERTEX
8
0
10
2.98
20
0.3465834153543307
30
0
0
VERTEX
8
0
10
2.98
20
0.39464468503937006
30
0
0
VERTEX
8
0
10
3.517677657480315
20
0.932322342519685
30
0
42
0.19891236737965798
0
VERTEX
8
0
10
3.525
20
0.95
30
0
0
VERTEX
8
0
10
3.525
20
3.3
30
0
42
0.4142135623730951
0
VERTEX
8
0
10
3.5
20
3.325
30
0
0
VERTEX
8
0
10
3.1307824803149606
20
3.325
30
0
42
0.23715177325943035
0
VERTEX
8
0
10
3.095988558070866
20
3.34425
30
0
0
VERTEX
8
0
10
3.004011441929134
20
3.34425
30
0
42
0.9614820847987363
0
VERTEX
8
0
10
3.004011441929134
20
3.25575
30
0
0
VERTEX
8
0
10
3.095988558070866
20
3.25575
30
0
42
0.23715177325943035
0
VERTEX
8
0
10
3.1307824803149606
20
3.275
30
0
0
VERTEX
8
0
10
3.475
20
3.275
30
0
0
VERTEX
8
0
10
3.475
20
0.9603553149606299
30
0
0
VERTEX
8
0
10
2.937322342519685
20
0.42267765748031494
30
0
42
0.19891236737965798
0
VERTEX
8
0
10
2.93
20
0.405
30
0
0
VERTEX
8
0
10
2.93
20
0.3465834153543307
30
0
42
0.1349622529079658
0
VERTEX
8
0
10
2.925
20
0.3314737942913386
30
0
0
VERTEX
8
0
10
2.925
20
0.2685262057086614
30
0
0
VERTEX
8
0
10
2.925288877952756
20
0.2655927657480315
30
0
0
VERTEX
8
0
10
2.9258639271653544
20
0.2627017716535433
30
0
0
VERTEX
8
0
10
2.9267196112204723
20
0.2598811515748031
30
0
0
VERTEX
8
0
10
2.927847563976378
20
0.2571578494094488
30
0
0
VERTEX
8
0
10
2.9292370816929134
20
0.25455831692913383
30
0
0
VERTEX
8
0
10
2.9308747539370077
20
0.25210752952755905
30
0
0
VERTEX
8
0
10
2.9327447096456694
20
0.24982898622047245
30
0
0
VERTEX
8
0
10
2.9348289862204724
20
0.2477447096456693
30
0
0
VERTEX
8
0
10
2.9371075295275593
20
0.24587475393700786
30
0
0
VERTEX
8
0
10
2.939558316929134
20
0.2442370816929134
30
0
0
VERTEX
8
0
10
2.942157849409449
20
0.24284756397637794
30
0
0
VERTEX
8
0
10
2.944881151574803
20
0.24171961122047245
30
0
0
VERTEX
8
0
10
2.947701771653543
20
0.24086392716535432
30
0
0
VERTEX
8
0
10
2.9505927657480315
20
0.2402888779527559
30
0
0
VERTEX
8
0
10
2.9535262057086613
20
0.24
30
0
0
VERTEX
8
0
10
2.9564737942913384
20
0.24
30
0
0
SEQEND
0
POLYLINE
66
1
8
16_copper
10
0.0
20
0.0
30
0.0
70
1
0
VERTEX
8
0
10
3.099455093503937
20
3.2560227608267716
30
0
42
0.9243903367892725
0
VERTEX
8
0
10
3.095988558070866
20
3.34425
30
0
0
VERTEX
8
0
10
3.004011441929134
20
3.34425
30
0
42
0.9614820847987363
0
VERTEX
8
0
10
3.004011441929134
20
3.25575
30
0
0
VERTEX
8
0
10
3.095988558070866
20
3.25575
30
0
0
SEQEND
0
POLYLINE
66
1
8
16_copper
10
0.0
20
0.0
30
0.0
70
1
0
VERTEX
8
0
10
2.9594072342519686
20
0.2402888779527559
30
0
42
0.3578057741447831
0
VERTEX
8
0
10
2.985
20
0.2685262057086614
30
0
0
VERTEX
8
0
10
2.985
20
0.3314737942913386
30
0
42
0.9520795017710559
0
VERTEX
8
0
10
2.925
20
0.3314737942913386
30
0
0
VERTEX
8
0
10
2.925
20
0.2685262057086614
30
0
0
VERTEX
8
0
10
2.925288877952756
20
0.2655927657480315
30
0
0
VERTEX
8
0
10
2.9258639271653544
20
0.2627017716535433
30
0
0
VERTEX
8
0
10
2.9267196112204723
20
0.2598811515748031
30
0
0
VERTEX
8
0
10
2.927847563976378
20
0.2571578494094488
30
0
0
VERTEX
8
0
10
2.9292370816929134
20
0.25455831692913383
30
0
0
VERTEX
8
0
10
2.9308747539370077
20
0.25210752952755905
30
0
0
VERTEX
8
0
10
2.9327447096456694
20
0.24982898622047245
30
0
0
VERTEX
8
0
10
2.9348289862204724
20
0.2477447096456693
30
0
0
VERTEX
8
0
10
2.9371075295275593
20
0.24587475393700786
30
0
0
VERTEX
8
0
10
2.939558316929134
20
0.2442370816929134
30
0
0
VERTEX
8
0
10
2.942157849409449
20
0.24284756397637794
30
0
0
VERTEX
8
0
10
2.944881151574803
20
0.24171961122047245
30
0
0
VERTEX
8
0
10
2.947701771653543
20
0.24086392716535432
30
0
0
VERTEX
8
0
10
2.9505927657480315
20
0.2402888779527559
30
0
0
VERTEX
8
0
10
2.9535262057086613
20
0.24
30
0
0
VERTEX
8
0
10
2.9564737942913384
20
0.24
30
0
0
SEQEND
0
POLYLINE
66
1
8
1_copper
10
0.0
20
0.0
30
0.0
70
1
0
VERTEX
8
0
10
2.200208415354331
20
0.1250103346456693
30
0
42
0.41177297565780335
0
VERTEX
8
0
10
2.225
20
0.15
30
0
0
VERTEX
8
0
10
2.225
20
0.2534165846456693
30
0
42
0.1349622529079658
0
VERTEX
8
0
10
2.23
20
0.2685262057086614
30
0
0
VERTEX
8
0
10
2.23
20
0.3314737942913386
30
0
42
0.9520795017710559
0
VERTEX
8
0
10
2.17
20
0.3314737942913386
30
0
0
VERTEX
8
0
10
2.17
20
0.2685262057086614
30
0
42
0.1349622529079658
0
VERTEX
8
0
10
2.175
20
0.2534165846456693
30
0
0
VERTEX
8
0
10
2.175
20
0.175
30
0
0
VERTEX
8
0
10
1.96
20
0.175
30
0
0
VERTEX
8
0
10
1.96
20
0.3746446850393701
30
0
0
VERTEX
8
0
10
3.212677657480315
20
1.627322342519685
30
0
42
0.19891236737965798
0
VERTEX
8
0
10
3.22
20
1.645
30
0
0
VERTEX
8
0
10
3.22
20
2.735
30
0
42
0.4142135623730951
0
VERTEX
8
0
10
3.195
20
2.76
30
0
0
VERTEX
8
0
10
2.32535531496063
20
2.76
30
0
0
VERTEX
8
0
10
2.117677657480315
20
2.9676776574803148
30
0
42
0.19891236737965798
0
VERTEX
8
0
10
2.1
20
2.975
30
0
0
VERTEX
8
0
10
1.9854330708661416
20
2.975
30
0
0
VERTEX
8
0
10
1.9854330708661416
20
2.985433070866142
30
0
0
VERTEX
8
0
10
1.9145669291338583
20
2.985433070866142
30
0
0
VERTEX
8
0
10
1.9145669291338583
20
2.914566929133858
30
0
0
VERTEX
8
0
10
1.9854330708661416
20
2.914566929133858
30
0
0
VERTEX
8
0
10
1.9854330708661416
20
2.925
30
0
0
VERTEX
8
0
10
2.08964468503937
20
2.925
30
0
0
VERTEX
8
0
10
2.297322342519685
20
2.717322342519685
30
0
42
0.19891236737965798
0
VERTEX
8
0
10
2.315
20
2.71
30
0
0
VERTEX
8
0
10
3.17
20
2.71
30
0
0
VERTEX
8
0
10
3.17
20
1.65535531496063
30
0
0
VERTEX
8
0
10
1.917322342519685
20
0.402677657480315
30
0
42
0.19891236737965798
0
VERTEX
8
0
10
1.91
20
0.385
30
0
0
VERTEX
8
0
10
1.91
20
0.15
30
0
42
0.4142135623730951
0
VERTEX
8
0
10
1.935
20
0.125
30
0
0
VERTEX
8
0
10
2.2
20
0.125
30
0
0
SEQEND
0
POLYLINE
66
1
8
16_copper
10
0.0
20
0.0
30
0.0
70
1
0
VERTEX
8
0
10
1.9854330708661416
20
2.985433070866142
30
0
0
VERTEX
8
0
10
1.9145669291338583
20
2.985433070866142
30
0
0
VERTEX
8
0
10
1.9145669291338583
20
2.914566929133858
30
0
0
VERTEX
8
0
10
1.9854330708661416
20
2.914566929133858
30
0
0
SEQEND
0
POLYLINE
66
1
8
16_copper
10
0.0
20
0.0
30
0.0
70
1
0
VERTEX
8
0
10
2.2044072342519687
20
0.2402888779527559
30
0
42
0.3578057741447831
0
VERTEX
8
0
10
2.23
20
0.2685262057086614
30
0
0
VERTEX
8
0
10
2.23
20
0.3314737942913386
30
0
42
0.9520795017710559
0
VERTEX
8
0
10
2.17
20
0.3314737942913386
30
0
0
VERTEX
8
0
10
2.17
20
0.2685262057086614
30
0
0
VERTEX
8
0
10
2.170288877952756
20
0.2655927657480315
30
0
0
VERTEX
8
0
10
2.1708639271653545
20
0.2627017716535433
30
0
0
VERTEX
8
0
10
2.1717196112204724
20
0.2598811515748031
30
0
0
VERTEX
8
0
10
2.172847563976378
20
0.2571578494094488
30
0
0
VERTEX
8
0
10
2.1742370816929135
20
0.25455831692913383
30
0
0
VERTEX
8
0
10
2.175874753937008
20
0.25210752952755905
30
0
0
VERTEX
8
0
10
2.1777447096456695
20
0.24982898622047245
30
0
0
VERTEX
8
0
10
2.1798289862204725
20
0.2477447096456693
30
0
0
VERTEX
8
0
10
2.182107529527559
20
0.24587475393700786
30
0
0
VERTEX
8
0
10
2.184558316929134
20
0.2442370816929134
30
0
0
VERTEX
8
0
10
2.187157849409449
20
0.24284756397637794
30
0
0
VERTEX
8
0
10
2.189881151574803
20
0.24171961122047245
30
0
0
VERTEX
8
0
10
2.1927017716535433
20
0.24086392716535432
30
0
0
VERTEX
8
0
10
2.1955927657480316
20
0.2402888779527559
30
0
0
VERTEX
8
0
10
2.1985262057086614
20
0.24
30
0
0
VERTEX
8
0
10
2.2014737942913385
20
0.24
30
0
0
SEQEND
0
POLYLINE
66
1
8
1_copper
10
0.0
20
0.0
30
0.0
70
1
0
VERTEX
8
0
10
1.128
20
0.48840206692913385
30
0
0
VERTEX
8
0
10
1.128
20
0.5115979330708661
30
0
0
VERTEX
8
0
10
1.111597933070866
20
0.528
30
0
0
VERTEX
8
0
10
1.108
20
0.528
30
0
0
VERTEX
8
0
10
1.108
20
0.592
30
0
0
VERTEX
8
0
10
1.4
20
0.592
30
0
42
0.4142135623730951
0
VERTEX
8
0
10
1.408
20
0.6
30
0
0
VERTEX
8
0
10
1.408
20
0.9464563238188977
30
0
0
VERTEX
8
0
10
1.7069504183070867
20
1.217697219488189
30
0
42
0.9999999999999999
0
VERTEX
8
0
10
1.6961991879921259
20
1.229546875
30
0
0
VERTEX
8
0
10
1.3946243848425197
20
0.9559248277559055
30
0
42
0.2115645954890364
0
VERTEX
8
0
10
1.392
20
0.95
30
0
0
VERTEX
8
0
10
1.392
20
0.608
30
0
0
VERTEX
8
0
10
1.1
20
0.608
30
0
42
0.4142135623730951
0
VERTEX
8
0
10
1.092
20
0.6
30
0
0
VERTEX
8
0
10
1.092
20
0.528
30
0
0
VERTEX
8
0
10
1.0884020669291339
20
0.528
30
0
0
VERTEX
8
0
10
1.072
20
0.5115979330708661
30
0
0
VERTEX
8
0
10
1.072
20
0.48840206692913385
30
0
0
VERTEX
8
0
10
1.0884020669291339
20
0.472
30
0
0
VERTEX
8
0
10
1.111597933070866
20
0.472
30
0
0
SEQEND
0
POLYLINE
66
1
8
16_copper
10
0.0
20
0.0
30
0.0
70
1
0
VERTEX
8
0
10
1.128
20
0.48840206692913385
30
0
0
VERTEX
8
0
10
1.128
20
0.5115979330708661
30
0
0
VERTEX
8
0
10
1.111597933070866
20
0.528
30
0
0
VERTEX
8
0
10
1.0884020669291339
20
0.528
30
0
0
VERTEX
8
0
10
1.072
20
0.5115979330708661
30
0
0
VERTEX
8
0
10
1.072
20
0.48840206692913385
30
0
0
VERTEX
8
0
10
1.0884020669291339
20
0.472
30
0
0
VERTEX
8
0
10
1.111597933070866
20
0.472
30
0
0
SEQEND
0
POLYLINE
66
1
8
1_copper
10
0.0
20
0.0
30
0.0
70
1
0
VERTEX
8
0
10
1.4500323572834646
20
0.29200282972440944
30
0
42
0.41302899196029463
0
VERTEX
8
0
10
1.458
20
0.3
30
0
0
VERTEX
8
0
10
1.458
20
0.8963204970472441
30
0
0
VERTEX
8
0
10
1.8052063238188976
20
1.19392593503937
30
0
42
0.21894410244816112
0
VERTEX
8
0
10
1.808
20
1.2
30
0
0
VERTEX
8
0
10
1.808
20
1.2236220472440944
30
0
42
0.9999999999999999
0
VERTEX
8
0
10
1.792
20
1.2236220472440944
30
0
0
VERTEX
8
0
10
1.792
20
1.2036795029527558
30
0
0
VERTEX
8
0
10
1.4447936761811024
20
0.9060740649606299
30
0
42
0.21894410244816112
0
VERTEX
8
0
10
1.442
20
0.9
30
0
0
VERTEX
8
0
10
1.442
20
0.308
30
0
0
VERTEX
8
0
10
1.108
20
0.308
30
0
0
VERTEX
8
0
10
1.108
20
0.372
30
0
0
VERTEX
8
0
10
1.111597933070866
20
0.372
30
0
0
VERTEX
8
0
10
1.128
20
0.38840206692913387
30
0
0
VERTEX
8
0
10
1.128
20
0.4115979330708661
30
0
0
VERTEX
8
0
10
1.111597933070866
20
0.428
30
0
0
VERTEX
8
0
10
1.0884020669291339
20
0.428
30
0
0
VERTEX
8
0
10
1.072
20
0.4115979330708661
30
0
0
VERTEX
8
0
10
1.072
20
0.38840206692913387
30
0
0
VERTEX
8
0
10
1.0884020669291339
20
0.372
30
0
0
VERTEX
8
0
10
1.092
20
0.372
30
0
0
VERTEX
8
0
10
1.092
20
0.3
30
0
42
0.4142135623730951
0
VERTEX
8
0
10
1.1
20
0.292
30
0
0
VERTEX
8
0
10
1.45
20
0.292
30
0
0
SEQEND
0
POLYLINE
66
1
8
16_copper
10
0.0
20
0.0
30
0.0
70
1
0
VERTEX
8
0
10
1.128
20
0.38840206692913387
30
0
0
VERTEX
8
0
10
1.128
20
0.4115979330708661
30
0
0
VERTEX
8
0
10
1.111597933070866
20
0.428
30
0
0
VERTEX
8
0
10
1.0884020669291339
20
0.428
30
0
0
VERTEX
8
0
10
1.072
20
0.4115979330708661
30
0
0
VERTEX
8
0
10
1.072
20
0.38840206692913387
30
0
0
VERTEX
8
0
10
1.0884020669291339
20
0.372
30
0
0
VERTEX
8
0
10
1.111597933070866
20
0.372
30
0
0
SEQEND
0
POLYLINE
66
1
8
1_copper
10
0.0
20
0.0
30
0.0
70
1
0
VERTEX
8
0
10
1.028
20
0.48840206692913385
30
0
0
VERTEX
8
0
10
1.028
20
0.5115979330708661
30
0
0
VERTEX
8
0
10
1.0115979330708662
20
0.528
30
0
0
VERTEX
8
0
10
1.008
20
0.528
30
0
0
VERTEX
8
0
10
1.008
20
0.5966862696850393
30
0
0
VERTEX
8
0
10
1.0533137303149607
20
0.642
30
0
0
VERTEX
8
0
10
1.35
20
0.642
30
0
42
0.4142135623730951
0
VERTEX
8
0
10
1.358
20
0.65
30
0
0
VERTEX
8
0
10
1.358
20
1.3466862696850395
30
0
0
VERTEX
8
0
10
1.4533137303149606
20
1.442
30
0
0
VERTEX
8
0
10
1.5982610728346456
20
1.442
30
0
0
VERTEX
8
0
10
1.695917937992126
20
1.3443431348425197
30
0
42
0.9999999999999999
0
VERTEX
8
0
10
1.7072316683070867
20
1.3556568651574803
30
0
0
VERTEX
8
0
10
1.6072316683070866
20
1.4556568651574804
30
0
42
0.19891236737965798
0
VERTEX
8
0
10
1.6015748031496062
20
1.458
30
0
0
VERTEX
8
0
10
1.45
20
1.458
30
0
42
0.19891236737965798
0
VERTEX
8
0
10
1.4443431348425197
20
1.4556568651574804
30
0
0
VERTEX
8
0
10
1.3443431348425197
20
1.3556568651574803
30
0
42
0.19891236737965798
0
VERTEX
8
0
10
1.342
20
1.35
30
0
0
VERTEX
8
0
10
1.342
20
0.658
30
0
0
VERTEX
8
0
10
1.05
20
0.658
30
0
42
0.19891236737965798
0
VERTEX
8
0
10
1.0443431348425196
20
0.6556568651574803
30
0
0
VERTEX
8
0
10
0.9943431348425197
20
0.6056568651574803
30
0
42
0.19891236737965798
0
VERTEX
8
0
10
0.992
20
0.6
30
0
0
VERTEX
8
0
10
0.992
20
0.528
30
0
0
VERTEX
8
0
10
0.9884020669291339
20
0.528
30
0
0
VERTEX
8
0
10
0.972
20
0.5115979330708661
30
0
0
VERTEX
8
0
10
0.972
20
0.48840206692913385
30
0
0
VERTEX
8
0
10
0.9884020669291339
20
0.472
30
0
0
VERTEX
8
0
10
1.0115979330708662
20
0.472
30
0
0
SEQEND
0
POLYLINE
66
1
8
16_copper
10
0.0
20
0.0
30
0.0
70
1
0
VERTEX
8
0
10
1.028
20
0.48840206692913385
30
0
0
VERTEX
8
0
10
1.028
20
0.5115979330708661
30
0
0
VERTEX
8
0
10
1.0115979330708662
20
0.528
30
0
0
VERTEX
8
0
10
0.9884020669291339
20
0.528
30
0
0
VERTEX
8
0
10
0.972
20
0.5115979330708661
30
0
0
VERTEX
8
0
10
0.972
20
0.48840206692913385
30
0
0
VERTEX
8
0
10
0.9884020669291339
20
0.472
30
0
0
VERTEX
8
0
10
1.0115979330708662
20
0.472
30
0
0
SEQEND
0
POLYLINE
66
1
8
1_copper
10
0.0
20
0.0
30
0.0
70
1
0
VERTEX
8
0
10
1.842034940944882
20
2.749602239173228
30
0
42
0.18597604843350257
0
VERTEX
8
0
10
1.8443431348425197
20
2.7443431348425196
30
0
0
VERTEX
8
0
10
2.092
20
2.496686269685039
30
0
0
VERTEX
8
0
10
2.092
20
2.4033137303149608
30
0
0
VERTEX
8
0
10
1.9443431348425197
20
2.2556568651574804
30
0
42
0.9999999999999999
0
VERTEX
8
0
10
1.9556568651574804
20
2.2443431348425196
30
0
0
VERTEX
8
0
10
2.1056568651574805
20
2.3943431348425195
30
0
42
0.19891236737965798
0
VERTEX
8
0
10
2.108
20
2.4
30
0
0
VERTEX
8
0
10
2.108
20
2.5
30
0
42
0.19891236737965798
0
VERTEX
8
0
10
2.1056568651574805
20
2.5056568651574804
30
0
0
VERTEX
8
0
10
1.858
20
2.753313730314961
30
0
0
VERTEX
8
0
10
1.858
20
2.9629270423228347
30
0
0
VERTEX
8
0
10
1.8694932332677165
20
2.9836149114173227
30
0
42
0.055315658881570626
0
VERTEX
8
0
10
1.8701749507874015
20
2.9852426181102363
30
0
0
VERTEX
8
0
10
1.8826749507874017
20
3.0277426181102363
30
0
42
0.07163632654068146
0
VERTEX
8
0
10
1.883
20
3.03
30
0
0
VERTEX
8
0
10
1.883
20
3.4465909202755904
30
0
42
0.24800116555779156
0
VERTEX
8
0
10
1.8795066437007875
20
3.453200787401575
30
0
0
VERTEX
8
0
10
1.727839936023622
20
3.5566098671259843
30
0
42
0.15072872162266163
0
VERTEX
8
0
10
1.7233332923228346
20
3.558
30
0
0
VERTEX
8
0
10
0.8
20
3.558
30
0
42
0.19891236737965798
0
VERTEX
8
0
10
0.7943431348425197
20
3.5556568651574803
30
0
0
VERTEX
8
0
10
0.1943431348425197
20
2.95565686515748
30
0
42
0.19891236737965798
0
VERTEX
8
0
10
0.192
20
2.95
30
0
0
VERTEX
8
0
10
0.192
20
1.15
30
0
42
0.19891236737965798
0
VERTEX
8
0
10
0.1943431348425197
20
1.1443431348425197
30
0
0
VERTEX
8
0
10
0.492
20
0.8466862696850393
30
0
0
VERTEX
8
0
10
0.492
20
0.5
30
0
42
0.9234163001787705
0
VERTEX
8
0
10
0.5078988681102362
20
0.49873191437007874
30
0
0
VERTEX
8
0
10
0.508
20
0.5
30
0
0
VERTEX
8
0
10
0.508
20
0.85
30
0
42
0.19891236737965798
0
VERTEX
8
0
10
0.5056568651574803
20
0.8556568651574803
30
0
0
VERTEX
8
0
10
0.208
20
1.1533137303149605
30
0
0
VERTEX
8
0
10
0.208
20
2.9466862696850393
30
0
0
VERTEX
8
0
10
0.8033137303149607
20
3.542
30
0
0
VERTEX
8
0
10
1.7208655265748032
20
3.542
30
0
0
VERTEX
8
0
10
1.867
20
3.4423629429133857
30
0
0
VERTEX
8
0
10
1.867
20
3.03115218996063
30
0
0
VERTEX
8
0
10
1.855400590551181
20
2.9917143208661416
30
0
0
VERTEX
8
0
10
1.8443431348425197
20
2.9806568651574805
30
0
42
0.19891236737965798
0
VERTEX
8
0
10
1.842
20
2.975
30
0
0
VERTEX
8
0
10
1.842
20
2.75
30
0
0
SEQEND
0
POLYLINE
66
1
8
1_copper
10
0.0
20
0.0
30
0.0
70
1
0
VERTEX
8
0
10
1.6500323572834645
20
0.09000282972440946
30
0
42
0.41302899196029463
0
VERTEX
8
0
10
1.658
20
0.098
30
0
0
VERTEX
8
0
10
1.658
20
0.6961550196850393
30
0
0
VERTEX
8
0
10
1.9028062253937008
20
0.892
30
0
0
VERTEX
8
0
10
2.3
20
0.892
30
0
42
0.19891236737965798
0
VERTEX
8
0
10
2.3056568651574803
20
0.8943431348425197
30
0
0
VERTEX
8
0
10
3.1056568651574805
20
1.6943431348425197
30
0
42
0.19891236737965798
0
VERTEX
8
0
10
3.108
20
1.7
30
0
0
VERTEX
8
0
10
3.108
20
2.455
30
0
42
0.19891236737965798
0
VERTEX
8
0
10
3.1056568651574805
20
2.4606568651574805
30
0
0
VERTEX
8
0
10
2.95565686515748
20
2.6106568651574804
30
0
42
0.19891236737965798
0
VERTEX
8
0
10
2.95
20
2.613
30
0
0
VERTEX
8
0
10
2.705
20
2.613
30
0
42
0.19891236737965798
0
VERTEX
8
0
10
2.6993431348425196
20
2.6106568651574804
30
0
0
VERTEX
8
0
10
2.54434313484252
20
2.45565686515748
30
0
42
0.19891236737965798
0
VERTEX
8
0
10
2.542
20
2.45
30
0
0
VERTEX
8
0
10
2.542
20
2.3
30
0
42
0.19891236737965798
0
VERTEX
8
0
10
2.54434313484252
20
2.29434313484252
30
0
0
VERTEX
8
0
10
2.5693431348425197
20
2.2693431348425195
30
0
42
0.19891236737965798
0
VERTEX
8
0
10
2.575
20
2.267
30
0
0
VERTEX
8
0
10
2.8216862696850393
20
2.267
30
0
0
VERTEX
8
0
10
2.8443431348425197
20
2.2443431348425196
30
0
42
0.9999999999999999
0
VERTEX
8
0
10
2.8556568651574805
20
2.2556568651574804
30
0
0
VERTEX
8
0
10
2.83065686515748
20
2.2806568651574803
30
0
42
0.19891236737965798
0
VERTEX
8
0
10
2.825
20
2.283
30
0
0
VERTEX
8
0
10
2.5783137303149606
20
2.283
30
0
0
VERTEX
8
0
10
2.558
20
2.3033137303149607
30
0
0
VERTEX
8
0
10
2.558
20
2.4466862696850393
30
0
0
VERTEX
8
0
10
2.7083137303149605
20
2.597
30
0
0
VERTEX
8
0
10
2.9466862696850393
20
2.597
30
0
0
VERTEX
8
0
10
3.092
20
2.451686269685039
30
0
0
VERTEX
8
0
10
3.092
20
1.7033137303149606
30
0
0
VERTEX
8
0
10
2.2966862696850394
20
0.908
30
0
0
VERTEX
8
0
10
1.9
20
0.908
30
0
42
0.17030362141383304
0
VERTEX
8
0
10
1.8950024606299212
20
0.9062469242125984
30
0
0
VERTEX
8
0
10
1.6450024606299212
20
0.7062469242125984
30
0
42
0.22783779158266837
0
VERTEX
8
0
10
1.642
20
0.7
30
0
0
VERTEX
8
0
10
1.642
20
0.106
30
0
0
VERTEX
8
0
10
0.508
20
0.106
30
0
0
VERTEX
8
0
10
0.508
20
0.372
30
0
0
VERTEX
8
0
10
0.5115979330708661
20
0.372
30
0
0
VERTEX
8
0
10
0.528
20
0.38840206692913387
30
0
0
VERTEX
8
0
10
0.528
20
0.4115979330708661
30
0
0
VERTEX
8
0
10
0.5115979330708661
20
0.428
30
0
0
VERTEX
8
0
10
0.48840206692913385
20
0.428
30
0
0
VERTEX
8
0
10
0.472
20
0.4115979330708661
30
0
0
VERTEX
8
0
10
0.472
20
0.38840206692913387
30
0
0
VERTEX
8
0
10
0.48840206692913385
20
0.372
30
0
0
VERTEX
8
0
10
0.492
20
0.372
30
0
0
VERTEX
8
0
10
0.492
20
0.098
30
0
42
0.4142135623730951
0
VERTEX
8
0
10
0.5
20
0.09
30
0
0
VERTEX
8
0
10
1.65
20
0.09
30
0
0
SEQEND
0
POLYLINE
66
1
8
16_copper
10
0.0
20
0.0
30
0.0
70
1
0
VERTEX
8
0
10
0.528
20
0.38840206692913387
30
0
0
VERTEX
8
0
10
0.528
20
0.4115979330708661
30
0
0
VERTEX
8
0
10
0.5115979330708661
20
0.428
30
0
0
VERTEX
8
0
10
0.48840206692913385
20
0.428
30
0
0
VERTEX
8
0
10
0.472
20
0.4115979330708661
30
0
0
VERTEX
8
0
10
0.472
20
0.38840206692913387
30
0
0
VERTEX
8
0
10
0.48840206692913385
20
0.372
30
0
0
VERTEX
8
0
10
0.5115979330708661
20
0.372
30
0
0
SEQEND
0
POLYLINE
66
1
8
1_copper
10
0.0
20
0.0
30
0.0
70
1
0
VERTEX
8
0
10
0.628
20
0.48840206692913385
30
0
0
VERTEX
8
0
10
0.628
20
0.5115979330708661
30
0
0
VERTEX
8
0
10
0.6115979330708662
20
0.528
30
0
0
VERTEX
8
0
10
0.608
20
0.528
30
0
0
VERTEX
8
0
10
0.608
20
0.85
30
0
42
0.19891236737965798
0
VERTEX
8
0
10
0.6056568651574803
20
0.8556568651574803
30
0
0
VERTEX
8
0
10
0.308
20
1.1533137303149605
30
0
0
VERTEX
8
0
10
0.308
20
2.8966862696850395
30
0
0
VERTEX
8
0
10
0.8533137303149606
20
3.442
30
0
0
VERTEX
8
0
10
1.6972789124015748
20
3.442
30
0
0
VERTEX
8
0
10
1.817
20
3.3499069881889763
30
0
0
VERTEX
8
0
10
1.817
20
3.032124630905512
30
0
0
VERTEX
8
0
10
1.7985855068897638
20
2.9998992372047244
30
0
0
VERTEX
8
0
10
1.7943431348425196
20
2.99565686515748
30
0
42
0.19891236737965798
0
VERTEX
8
0
10
1.792
20
2.99
30
0
0
VERTEX
8
0
10
1.792
20
2.5357143208661417
30
0
42
0.19891236737965798
0
VERTEX
8
0
10
1.7943431348425196
20
2.5300574557086613
30
0
0
VERTEX
8
0
10
1.8183464566929133
20
2.506054133858268
30
0
0
VERTEX
8
0
10
1.869359128937008
20
2.3967413877952755
30
0
0
VERTEX
8
0
10
1.8741608021653544
20
2.3087858021653545
30
0
0
VERTEX
8
0
10
1.842615403543307
20
2.2330768946850394
30
0
42
0.09901891629356943
0
VERTEX
8
0
10
1.842
20
2.23
30
0
0
VERTEX
8
0
10
1.842
20
2.15
30
0
42
0.4142135623730951
0
VERTEX
8
0
10
1.85
20
2.142
30
0
0
VERTEX
8
0
10
2.15
20
2.142
30
0
42
0.19891236737965798
0
VERTEX
8
0
10
2.1556568651574803
20
2.1443431348425195
30
0
0
VERTEX
8
0
10
2.2283137303149605
20
2.217
30
0
0
VERTEX
8
0
10
2.7225376476377954
20
2.217
30
0
0
VERTEX
8
0
10
2.842
20
2.135765625
30
0
0
VERTEX
8
0
10
2.842
20
2.085433070866142
30
0
0
VERTEX
8
0
10
2.8145669291338584
20
2.085433070866142
30
0
0
VERTEX
8
0
10
2.8145669291338584
20
2.014566929133858
30
0
0
VERTEX
8
0
10
2.8854330708661418
20
2.014566929133858
30
0
0
VERTEX
8
0
10
2.8854330708661418
20
2.085433070866142
30
0
0
VERTEX
8
0
10
2.858
20
2.085433070866142
30
0
0
VERTEX
8
0
10
2.858
20
2.14
30
0
42
0.2483272010105686
0
VERTEX
8
0
10
2.854498523622047
20
2.146615403543307
30
0
0
VERTEX
8
0
10
2.729498523622047
20
2.231615403543307
30
0
42
0.1504146373726061
0
VERTEX
8
0
10
2.725
20
2.233
30
0
0
VERTEX
8
0
10
2.225
20
2.233
30
0
42
0.19891236737965798
0
VERTEX
8
0
10
2.2193431348425197
20
2.2306568651574805
30
0
0
VERTEX
8
0
10
2.1466862696850395
20
2.158
30
0
0
VERTEX
8
0
10
1.858
20
2.158
30
0
0
VERTEX
8
0
10
1.858
20
2.228400098425197
30
0
0
VERTEX
8
0
10
1.8896331200787402
20
2.3043195127952756
30
0
42
0.11280849749127826
0
VERTEX
8
0
10
1.890236589566929
20
2.3078325541338582
30
0
0
VERTEX
8
0
10
1.8852508612204724
20
2.399158833661417
30
0
42
0.09581243145049276
0
VERTEX
8
0
10
1.8845123031496063
20
2.402105807086614
30
0
0
VERTEX
8
0
10
1.8322495078740157
20
2.514097440944882
30
0
42
0.0874139200077851
0
VERTEX
8
0
10
1.8306568651574804
20
2.516371186023622
30
0
0
VERTEX
8
0
10
1.808
20
2.5390280511811025
30
0
0
VERTEX
8
0
10
1.808
20
2.9866862696850394
30
0
0
VERTEX
8
0
10
1.8106568651574804
20
2.9893431348425197
30
0
42
0.06666197128208196
0
VERTEX
8
0
10
1.8119459891732284
20
2.991030880905512
30
0
0
VERTEX
8
0
10
1.8319459891732284
20
3.0260308809055116
30
0
42
0.13051971891382774
0
VERTEX
8
0
10
1.833
20
3.03
30
0
0
VERTEX
8
0
10
1.833
20
3.3538462106299214
30
0
42
0.23285225279497698
0
VERTEX
8
0
10
1.8298777066929133
20
3.3601872539370077
30
0
0
VERTEX
8
0
10
1.7048777066929133
20
3.4563410433070865
30
0
42
0.1654076490143626
0
VERTEX
8
0
10
1.7
20
3.458
30
0
0
VERTEX
8
0
10
0.85
20
3.458
30
0
42
0.19891236737965798
0
VERTEX
8
0
10
0.8443431348425197
20
3.45565686515748
30
0
0
VERTEX
8
0
10
0.29434313484251967
20
2.9056568651574803
30
0
42
0.19891236737965798
0
VERTEX
8
0
10
0.292
20
2.9
30
0
0
VERTEX
8
0
10
0.292
20
1.15
30
0
42
0.19891236737965798
0
VERTEX
8
0
10
0.29434313484251967
20
1.1443431348425197
30
0
0
VERTEX
8
0
10
0.592
20
0.8466862696850393
30
0
0
VERTEX
8
0
10
0.592
20
0.528
30
0
0
VERTEX
8
0
10
0.5884020669291339
20
0.528
30
0
0
VERTEX
8
0
10
0.572
20
0.5115979330708661
30
0
0
VERTEX
8
0
10
0.572
20
0.48840206692913385
30
0
0
VERTEX
8
0
10
0.5884020669291339
20
0.472
30
0
0
VERTEX
8
0
10
0.6115979330708662
20
0.472
30
0
0
SEQEND
0
POLYLINE
66
1
8
16_copper
10
0.0
20
0.0
30
0.0
70
1
0
VERTEX
8
0
10
2.8854330708661418
20
2.085433070866142
30
0
0
VERTEX
8
0
10
2.8145669291338584
20
2.085433070866142
30
0
0
VERTEX
8
0
10
2.8145669291338584
20
2.014566929133858
30
0
0
VERTEX
8
0
10
2.8854330708661418
20
2.014566929133858
30
0
0
SEQEND
0
POLYLINE
66
1
8
16_copper
10
0.0
20
0.0
30
0.0
70
1
0
VERTEX
8
0
10
0.628
20
0.48840206692913385
30
0
0
VERTEX
8
0
10
0.628
20
0.5115979330708661
30
0
0
VERTEX
8
0
10
0.6115979330708662
20
0.528
30
0
0
VERTEX
8
0
10
0.5884020669291339
20
0.528
30
0
0
VERTEX
8
0
10
0.572
20
0.5115979330708661
30
0
0
VERTEX
8
0
10
0.572
20
0.48840206692913385
30
0
0
VERTEX
8
0
10
0.5884020669291339
20
0.472
30
0
0
VERTEX
8
0
10
0.6115979330708662
20
0.472
30
0
0
SEQEND
0
POLYLINE
66
1
8
1_copper
10
0.0
20
0.0
30
0.0
70
1
0
VERTEX
8
0
10
1.6000323572834645
20
0.14200282972440945
30
0
42
0.41302899196029463
0
VERTEX
8
0
10
1.608
20
0.15
30
0
0
VERTEX
8
0
10
1.608
20
0.7461550196850394
30
0
0
VERTEX
8
0
10
1.8528062253937008
20
0.942
30
0
0
VERTEX
8
0
10
2.25
20
0.942
30
0
42
0.19891236737965798
0
VERTEX
8
0
10
2.2556568651574804
20
0.9443431348425196
30
0
0
VERTEX
8
0
10
3.0056568651574804
20
1.6943431348425197
30
0
42
0.19891236737965798
0
VERTEX
8
0
10
3.008
20
1.7
30
0
0
VERTEX
8
0
10
3.008
20
2.45
30
0
42
0.19891236737965798
0
VERTEX
8
0
10
3.0056568651574804
20
2.45565686515748
30
0
0
VERTEX
8
0
10
2.9056568651574803
20
2.5556568651574803
30
0
42
0.19891236737965798
0
VERTEX
8
0
10
2.9
20
2.558
30
0
0
VERTEX
8
0
10
2.8
20
2.558
30
0
42
0.19891236737965798
0
VERTEX
8
0
10
2.79434313484252
20
2.5556568651574803
30
0
0
VERTEX
8
0
10
2.6443431348425195
20
2.4056568651574803
30
0
42
0.19891236737965798
0
VERTEX
8
0
10
2.642
20
2.4
30
0
0
VERTEX
8
0
10
2.642
20
2.35
30
0
42
0.9234163001787705
0
VERTEX
8
0
10
2.657898868110236
20
2.3487319143700787
30
0
0
VERTEX
8
0
10
2.658
20
2.35
30
0
0
VERTEX
8
0
10
2.658
20
2.3966862696850395
30
0
0
VERTEX
8
0
10
2.8033137303149607
20
2.542
30
0
0
VERTEX
8
0
10
2.8966862696850395
20
2.542
30
0
0
VERTEX
8
0
10
2.992
20
2.4466862696850393
30
0
0
VERTEX
8
0
10
2.992
20
1.7033137303149606
30
0
0
VERTEX
8
0
10
2.246686269685039
20
0.958
30
0
0
VERTEX
8
0
10
1.85
20
0.958
30
0
42
0.17030362141383304
0
VERTEX
8
0
10
1.8450024606299213
20
0.9562469242125984
30
0
0
VERTEX
8
0
10
1.5950024606299213
20
0.7562469242125984
30
0
42
0.22783779158266837
0
VERTEX
8
0
10
1.592
20
0.75
30
0
0
VERTEX
8
0
10
1.592
20
0.158
30
0
0
VERTEX
8
0
10
0.608
20
0.158
30
0
0
VERTEX
8
0
10
0.608
20
0.372
30
0
0
VERTEX
8
0
10
0.6115979330708662
20
0.372
30
0
0
VERTEX
8
0
10
0.628
20
0.38840206692913387
30
0
0
VERTEX
8
0
10
0.628
20
0.4115979330708661
30
0
0
VERTEX
8
0
10
0.6115979330708662
20
0.428
30
0
0
VERTEX
8
0
10
0.5884020669291339
20
0.428
30
0
0
VERTEX
8
0
10
0.572
20
0.4115979330708661
30
0
0
VERTEX
8
0
10
0.572
20
0.38840206692913387
30
0
0
VERTEX
8
0
10
0.5884020669291339
20
0.372
30
0
0
VERTEX
8
0
10
0.592
20
0.372
30
0
0
VERTEX
8
0
10
0.592
20
0.15
30
0
42
0.4142135623730951
0
VERTEX
8
0
10
0.6
20
0.142
30
0
0
VERTEX
8
0
10
1.6
20
0.142
30
0
0
SEQEND
0
POLYLINE
66
1
8
16_copper
10
0.0
20
0.0
30
0.0
70
1
0
VERTEX
8
0
10
0.628
20
0.38840206692913387
30
0
0
VERTEX
8
0
10
0.628
20
0.4115979330708661
30
0
0
VERTEX
8
0
10
0.6115979330708662
20
0.428
30
0
0
VERTEX
8
0
10
0.5884020669291339
20
0.428
30
0
0
VERTEX
8
0
10
0.572
20
0.4115979330708661
30
0
0
VERTEX
8
0
10
0.572
20
0.38840206692913387
30
0
0
VERTEX
8
0
10
0.5884020669291339
20
0.372
30
0
0
VERTEX
8
0
10
0.6115979330708662
20
0.372
30
0
0
SEQEND
0
POLYLINE
66
1
8
1_copper
10
0.0
20
0.0
30
0.0
70
1
0
VERTEX
8
0
10
0.728
20
0.48840206692913385
30
0
0
VERTEX
8
0
10
0.728
20
0.5115979330708661
30
0
0
VERTEX
8
0
10
0.7115979330708662
20
0.528
30
0
0
VERTEX
8
0
10
0.708
20
0.528
30
0
0
VERTEX
8
0
10
0.708
20
0.85
30
0
42
0.19891236737965798
0
VERTEX
8
0
10
0.7056568651574803
20
0.8556568651574803
30
0
0
VERTEX
8
0
10
0.408
20
1.1533137303149605
30
0
0
VERTEX
8
0
10
0.408
20
2.8466862696850392
30
0
0
VERTEX
8
0
10
0.8033137303149607
20
3.242
30
0
0
VERTEX
8
0
10
1.75
20
3.242
30
0
42
0.9999999999999999
0
VERTEX
8
0
10
1.75
20
3.258
30
0
0
VERTEX
8
0
10
0.8
20
3.258
30
0
42
0.19891236737965798
0
VERTEX
8
0
10
0.7943431348425197
20
3.2556568651574804
30
0
0
VERTEX
8
0
10
0.3943431348425197
20
2.8556568651574805
30
0
42
0.19891236737965798
0
VERTEX
8
0
10
0.392
20
2.85
30
0
0
VERTEX
8
0
10
0.392
20
1.15
30
0
42
0.19891236737965798
0
VERTEX
8
0
10
0.3943431348425197
20
1.1443431348425197
30
0
0
VERTEX
8
0
10
0.692
20
0.8466862696850393
30
0
0
VERTEX
8
0
10
0.692
20
0.528
30
0
0
VERTEX
8
0
10
0.6884020669291339
20
0.528
30
0
0
VERTEX
8
0
10
0.672
20
0.5115979330708661
30
0
0
VERTEX
8
0
10
0.672
20
0.48840206692913385
30
0
0
VERTEX
8
0
10
0.6884020669291339
20
0.472
30
0
0
VERTEX
8
0
10
0.7115979330708662
20
0.472
30
0
0
SEQEND
0
POLYLINE
66
1
8
16_copper
10
0.0
20
0.0
30
0.0
70
1
0
VERTEX
8
0
10
0.728
20
0.48840206692913385
30
0
0
VERTEX
8
0
10
0.728
20
0.5115979330708661
30
0
0
VERTEX
8
0
10
0.7115979330708662
20
0.528
30
0
0
VERTEX
8
0
10
0.6884020669291339
20
0.528
30
0
0
VERTEX
8
0
10
0.672
20
0.5115979330708661
30
0
0
VERTEX
8
0
10
0.672
20
0.48840206692913385
30
0
0
VERTEX
8
0
10
0.6884020669291339
20
0.472
30
0
0
VERTEX
8
0
10
0.7115979330708662
20
0.472
30
0
0
SEQEND
0
POLYLINE
66
1
8
1_copper
10
0.0
20
0.0
30
0.0
70
1
0
VERTEX
8
0
10
0.828
20
0.48840206692913385
30
0
0
VERTEX
8
0
10
0.828
20
0.5115979330708661
30
0
0
VERTEX
8
0
10
0.8254558316929134
20
0.5141421013779528
30
0
0
VERTEX
8
0
10
0.8556568651574803
20
0.5443431348425197
30
0
42
0.19891236737965798
0
VERTEX
8
0
10
0.858
20
0.55
30
0
0
VERTEX
8
0
10
0.858
20
2.048111466535433
30
0
0
VERTEX
8
0
10
0.9571553887795275
20
2.246422244094488
30
0
42
0.9999999999999999
0
VERTEX
8
0
10
0.9428446112204725
20
2.253577755905512
30
0
0
VERTEX
8
0
10
0.8428446112204725
20
2.0535777559055117
30
0
42
0.11643556419449759
0
VERTEX
8
0
10
0.842
20
2.05
30
0
0
VERTEX
8
0
10
0.842
20
0.5533137303149607
30
0
0
VERTEX
8
0
10
0.8141421013779527
20
0.5254558316929134
30
0
0
VERTEX
8
0
10
0.8115979330708661
20
0.528
30
0
0
VERTEX
8
0
10
0.7884020669291338
20
0.528
30
0
0
VERTEX
8
0
10
0.772
20
0.5115979330708661
30
0
0
VERTEX
8
0
10
0.772
20
0.48840206692913385
30
0
0
VERTEX
8
0
10
0.7884020669291338
20
0.472
30
0
0
VERTEX
8
0
10
0.8115979330708661
20
0.472
30
0
0
SEQEND
0
POLYLINE
66
1
8
16_copper
10
0.0
20
0.0
30
0.0
70
1
0
VERTEX
8
0
10
0.828
20
0.48840206692913385
30
0
0
VERTEX
8
0
10
0.828
20
0.5115979330708661
30
0
0
VERTEX
8
0
10
0.8115979330708661
20
0.528
30
0
0
VERTEX
8
0
10
0.7884020669291338
20
0.528
30
0
0
VERTEX
8
0
10
0.772
20
0.5115979330708661
30
0
0
VERTEX
8
0
10
0.772
20
0.48840206692913385
30
0
0
VERTEX
8
0
10
0.7884020669291338
20
0.472
30
0
0
VERTEX
8
0
10
0.8115979330708661
20
0.472
30
0
0
SEQEND
0
POLYLINE
66
1
8
1_copper
10
0.0
20
0.0
30
0.0
70
1
0
VERTEX
8
0
10
0.8996022391732283
20
2.357965059055118
30
0
42
0.18597604843350257
0
VERTEX
8
0
10
0.8943431348425197
20
2.3556568651574805
30
0
0
VERTEX
8
0
10
0.8443431348425197
20
2.3056568651574803
30
0
42
0.19891236737965798
0
VERTEX
8
0
10
0.842
20
2.3
30
0
0
VERTEX
8
0
10
0.842
20
2.2033137303149606
30
0
0
VERTEX
8
0
10
0.7466862696850394
20
2.108
30
0
0
VERTEX
8
0
10
0.7
20
2.108
30
0
42
0.19891236737965798
0
VERTEX
8
0
10
0.6943431348425196
20
2.1056568651574805
30
0
0
VERTEX
8
0
10
0.6741193405511811
20
2.085433070866142
30
0
0
VERTEX
8
0
10
0.6145669291338582
20
2.085433070866142
30
0
0
VERTEX
8
0
10
0.6145669291338582
20
2.014566929133858
30
0
0
VERTEX
8
0
10
0.6854330708661417
20
2.014566929133858
30
0
0
VERTEX
8
0
10
0.6854330708661417
20
2.074119340551181
30
0
0
VERTEX
8
0
10
0.7033137303149606
20
2.092
30
0
0
VERTEX
8
0
10
0.75
20
2.092
30
0
42
0.19891236737965798
0
VERTEX
8
0
10
0.7556568651574803
20
2.0943431348425197
30
0
0
VERTEX
8
0
10
0.8556568651574803
20
2.1943431348425197
30
0
42
0.19891236737965798
0
VERTEX
8
0
10
0.858
20
2.2
30
0
0
VERTEX
8
0
10
0.858
20
2.2966862696850394
30
0
0
VERTEX
8
0
10
0.9033137303149607
20
2.342
30
0
0
VERTEX
8
0
10
1.042
20
2.342
30
0
0
VERTEX
8
0
10
1.042
20
2.2034344242125985
30
0
0
VERTEX
8
0
10
0.9444900344488188
20
2.110799950787402
30
0
42
0.20558309801157884
0
VERTEX
8
0
10
0.942
20
2.105
30
0
0
VERTEX
8
0
10
0.942
20
0.5533137303149607
30
0
0
VERTEX
8
0
10
0.9141421013779527
20
0.5254558316929134
30
0
0
VERTEX
8
0
10
0.9115979330708661
20
0.528
30
0
0
VERTEX
8
0
10
0.8884020669291338
20
0.528
30
0
0
VERTEX
8
0
10
0.872
20
0.5115979330708661
30
0
0
VERTEX
8
0
10
0.872
20
0.48840206692913385
30
0
0
VERTEX
8
0
10
0.8884020669291338
20
0.472
30
0
0
VERTEX
8
0
10
0.9115979330708661
20
0.472
30
0
0
VERTEX
8
0
10
0.928
20
0.48840206692913385
30
0
0
VERTEX
8
0
10
0.928
20
0.5115979330708661
30
0
0
VERTEX
8
0
10
0.9254558316929133
20
0.5141421013779528
30
0
0
VERTEX
8
0
10
0.9556568651574803
20
0.5443431348425197
30
0
42
0.19891236737965798
0
VERTEX
8
0
10
0.958
20
0.55
30
0
0
VERTEX
8
0
10
0.958
20
2.1015655757874017
30
0
0
VERTEX
8
0
10
1.055509965551181
20
2.1942000492125984
30
0
42
0.20558309801157884
0
VERTEX
8
0
10
1.058
20
2.2
30
0
0
VERTEX
8
0
10
1.058
20
2.342
30
0
0
VERTEX
8
0
10
1.75
20
2.342
30
0
42
0.9999999999999999
0
VERTEX
8
0
10
1.75
20
2.358
30
0
0
VERTEX
8
0
10
0.9
20
2.358
30
0
0
SEQEND
0
POLYLINE
66
1
8
16_copper
10
0.0
20
0.0
30
0.0
70
1
0
VERTEX
8
0
10
0.6854330708661417
20
2.085433070866142
30
0
0
VERTEX
8
0
10
0.6145669291338582
20
2.085433070866142
30
0
0
VERTEX
8
0
10
0.6145669291338582
20
2.014566929133858
30
0
0
VERTEX
8
0
10
0.6854330708661417
20
2.014566929133858
30
0
0
SEQEND
0
POLYLINE
66
1
8
16_copper
10
0.0
20
0.0
30
0.0
70
1
0
VERTEX
8
0
10
0.928
20
0.48840206692913385
30
0
0
VERTEX
8
0
10
0.928
20
0.5115979330708661
30
0
0
VERTEX
8
0
10
0.9115979330708661
20
0.528
30
0
0
VERTEX
8
0
10
0.8884020669291338
20
0.528
30
0
0
VERTEX
8
0
10
0.872
20
0.5115979330708661
30
0
0
VERTEX
8
0
10
0.872
20
0.48840206692913385
30
0
0
VERTEX
8
0
10
0.8884020669291338
20
0.472
30
0
0
VERTEX
8
0
10
0.9115979330708661
20
0.472
30
0
0
SEQEND
0
POLYLINE
66
1
8
1_copper
10
0.0
20
0.0
30
0.0
70
1
0
VERTEX
8
0
10
1.8231568651574803
20
2.29184313484252
30
0
42
0.13879465048008705
0
VERTEX
8
0
10
1.8252824803149605
20
2.2956470226377954
30
0
0
VERTEX
8
0
10
1.8377824803149607
20
2.348147022637795
30
0
42
0.11740699010094496
0
VERTEX
8
0
10
1.8377824803149607
20
2.3518529773622046
30
0
0
VERTEX
8
0
10
1.8252824803149605
20
2.4043529773622048
30
0
42
0.13879465048008705
0
VERTEX
8
0
10
1.8231568651574803
20
2.4081568651574803
30
0
0
VERTEX
8
0
10
1.758
20
2.4733137303149606
30
0
0
VERTEX
8
0
10
1.758
20
3.05
30
0
42
0.4142135623730951
0
VERTEX
8
0
10
1.75
20
3.058
30
0
0
VERTEX
8
0
10
1.35
20
3.058
30
0
42
0.19891236737965798
0
VERTEX
8
0
10
1.3443431348425197
20
3.0556568651574803
30
0
0
VERTEX
8
0
10
0.7443431348425197
20
2.45565686515748
30
0
42
0.19891236737965798
0
VERTEX
8
0
10
0.742
20
2.45
30
0
0
VERTEX
8
0
10
0.742
20
2.25
30
0
42
0.9234163001787705
0
VERTEX
8
0
10
0.7578988681102362
20
2.2487319143700786
30
0
0
VERTEX
8
0
10
0.758
20
2.25
30
0
0
VERTEX
8
0
10
0.758
20
2.4466862696850393
30
0
0
VERTEX
8
0
10
1.3533137303149607
20
3.042
30
0
0
VERTEX
8
0
10
1.742
20
3.042
30
0
0
VERTEX
8
0
10
1.742
20
2.47
30
0
42
0.19891236737965798
0
VERTEX
8
0
10
1.7443431348425198
20
2.4643431348425198
30
0
0
VERTEX
8
0
10
1.810242002952756
20
2.3984442667322834
30
0
0
VERTEX
8
0
10
1.8217763287401574
20
2.35
30
0
0
VERTEX
8
0
10
1.810242002952756
20
2.3015557332677163
30
0
0
VERTEX
8
0
10
1.7443431348425198
20
2.2356568651574804
30
0
42
0.19891236737965798
0
VERTEX
8
0
10
1.742
20
2.23
30
0
0
VERTEX
8
0
10
1.742
20
2.1
30
0
42
0.19891236737965798
0
VERTEX
8
0
10
1.7443431348425198
20
2.0943431348425197
30
0
0
VERTEX
8
0
10
1.7943431348425196
20
2.04434313484252
30
0
42
0.19891236737965798
0
VERTEX
8
0
10
1.8
20
2.042
30
0
0
VERTEX
8
0
10
1.9145669291338583
20
2.042
30
0
0
VERTEX
8
0
10
1.9145669291338583
20
2.014566929133858
30
0
0
VERTEX
8
0
10
1.942
20
2.014566929133858
30
0
0
VERTEX
8
0
10
1.942
20
1.7
30
0
42
0.19891236737965798
0
VERTEX
8
0
10
1.9443431348425197
20
1.6943431348425197
30
0
0
VERTEX
8
0
10
2.142
20
1.4966862696850394
30
0
0
VERTEX
8
0
10
2.142
20
1.108
30
0
0
VERTEX
8
0
10
1.8
20
1.108
30
0
42
0.1754508564979814
0
VERTEX
8
0
10
1.7948785679133858
20
1.1061457923228346
30
0
0
VERTEX
8
0
10
1.4948785679133858
20
0.8561457923228346
30
0
42
0.22258643186049593
0
VERTEX
8
0
10
1.492
20
0.85
30
0
0
VERTEX
8
0
10
1.492
20
0.258
30
0
0
VERTEX
8
0
10
1.008
20
0.258
30
0
0
VERTEX
8
0
10
1.008
20
0.372
30
0
0
VERTEX
8
0
10
1.0115979330708662
20
0.372
30
0
0
VERTEX
8
0
10
1.028
20
0.38840206692913387
30
0
0
VERTEX
8
0
10
1.028
20
0.4115979330708661
30
0
0
VERTEX
8
0
10
1.0115979330708662
20
0.428
30
0
0
VERTEX
8
0
10
0.9884020669291339
20
0.428
30
0
0
VERTEX
8
0
10
0.972
20
0.4115979330708661
30
0
0
VERTEX
8
0
10
0.972
20
0.38840206692913387
30
0
0
VERTEX
8
0
10
0.9884020669291339
20
0.372
30
0
0
VERTEX
8
0
10
0.992
20
0.372
30
0
0
VERTEX
8
0
10
0.992
20
0.25
30
0
42
0.4142135623730951
0
VERTEX
8
0
10
1
20
0.242
30
0
0
VERTEX
8
0
10
1.5
20
0.242
30
0
42
0.4142135623730951
0
VERTEX
8
0
10
1.508
20
0.25
30
0
0
VERTEX
8
0
10
1.508
20
0.8462530757874016
30
0
0
VERTEX
8
0
10
1.8028964074803149
20
1.092
30
0
0
VERTEX
8
0
10
2.15
20
1.092
30
0
42
0.4142135623730951
0
VERTEX
8
0
10
2.158
20
1.1
30
0
0
VERTEX
8
0
10
2.158
20
1.5
30
0
42
0.19891236737965798
0
VERTEX
8
0
10
2.1556568651574803
20
1.5056568651574802
30
0
0
VERTEX
8
0
10
1.958
20
1.7033137303149606
30
0
0
VERTEX
8
0
10
1.958
20
2.014566929133858
30
0
0
VERTEX
8
0
10
1.9854330708661416
20
2.014566929133858
30
0
0
VERTEX
8
0
10
1.9854330708661416
20
2.042
30
0
0
VERTEX
8
0
10
2.65
20
2.042
30
0
42
0.4142135623730951
0
VERTEX
8
0
10
2.658
20
2.05
30
0
0
VERTEX
8
0
10
2.658
20
2.15
30
0
42
0.9999999999999999
0
VERTEX
8
0
10
2.642
20
2.15
30
0
0
VERTEX
8
0
10
2.642
20
2.058
30
0
0
VERTEX
8
0
10
1.9854330708661416
20
2.058
30
0
0
VERTEX
8
0
10
1.9854330708661416
20
2.085433070866142
30
0
0
VERTEX
8
0
10
1.9145669291338583
20
2.085433070866142
30
0
0
VERTEX
8
0
10
1.9145669291338583
20
2.058
30
0
0
VERTEX
8
0
10
1.8033137303149607
20
2.058
30
0
0
VERTEX
8
0
10
1.758
20
2.1033137303149605
30
0
0
VERTEX
8
0
10
1.758
20
2.2266862696850396
30
0
0
SEQEND
0
POLYLINE
66
1
8
16_copper
10
0.0
20
0.0
30
0.0
70
1
0
VERTEX
8
0
10
1.9854330708661416
20
2.085433070866142
30
0
0
VERTEX
8
0
10
1.9145669291338583
20
2.085433070866142
30
0
0
VERTEX
8
0
10
1.9145669291338583
20
2.014566929133858
30
0
0
VERTEX
8
0
10
1.9854330708661416
20
2.014566929133858
30
0
0
SEQEND
0
POLYLINE
66
1
8
16_copper
10
0.0
20
0.0
30
0.0
70
1
0
VERTEX
8
0
10
1.028
20
0.38840206692913387
30
0
0
VERTEX
8
0
10
1.028
20
0.4115979330708661
30
0
0
VERTEX
8
0
10
1.0115979330708662
20
0.428
30
0
0
VERTEX
8
0
10
0.9884020669291339
20
0.428
30
0
0
VERTEX
8
0
10
0.972
20
0.4115979330708661
30
0
0
VERTEX
8
0
10
0.972
20
0.38840206692913387
30
0
0
VERTEX
8
0
10
0.9884020669291339
20
0.372
30
0
0
VERTEX
8
0
10
1.0115979330708662
20
0.372
30
0
0
SEQEND
0
POLYLINE
66
1
8
1_copper
10
0.0
20
0.0
30
0.0
70
1
0
VERTEX
8
0
10
3.2000323572834644
20
0.14200282972440945
30
0
42
0.41302899196029463
0
VERTEX
8
0
10
3.208
20
0.15
30
0
0
VERTEX
8
0
10
3.208
20
0.2
30
0
42
0.19891236737965798
0
VERTEX
8
0
10
3.20565686515748
20
0.20565686515748033
30
0
0
VERTEX
8
0
10
3.1613137303149608
20
0.25
30
0
0
VERTEX
8
0
10
3.20565686515748
20
0.29434313484251967
30
0
42
0.19891236737965798
0
VERTEX
8
0
10
3.208
20
0.3
30
0
0
VERTEX
8
0
10
3.208
20
0.35
30
0
42
0.4142135623730951
0
VERTEX
8
0
10
3.2
20
0.358
30
0
0
VERTEX
8
0
10
3.1
20
0.358
30
0
42
0.4142135623730951
0
VERTEX
8
0
10
3.092
20
0.35
30
0
0
VERTEX
8
0
10
3.092
20
0.15
30
0
42
0.4142135623730951
0
VERTEX
8
0
10
3.1
20
0.142
30
0
0
VERTEX
8
0
10
3.2
20
0.142
30
0
0
SEQEND
0
POLYLINE
66
1
8
1_copper
10
0.0
20
0.0
30
0.0
70
1
0
VERTEX
8
0
10
3.108
20
0.158
30
0
0
VERTEX
8
0
10
3.108
20
0.342
30
0
0
VERTEX
8
0
10
3.192
20
0.342
30
0
0
VERTEX
8
0
10
3.192
20
0.3033137303149606
30
0
0
VERTEX
8
0
10
3.1443431348425195
20
0.2556568651574803
30
0
42
0.4142135623730951
0
VERTEX
8
0
10
3.1443431348425195
20
0.24434313484251968
30
0
0
VERTEX
8
0
10
3.192
20
0.19668626968503938
30
0
0
VERTEX
8
0
10
3.192
20
0.158
30
0
0
SEQEND
0
POLYLINE
66
1
8
1_copper
10
0.0
20
0.0
30
0.0
70
1
0
VERTEX
8
0
10
2.466275344488189
20
0.1271023622047244
30
0
42
0.5185579394052147
0
VERTEX
8
0
10
2.472009719488189
20
0.13885531496062992
30
0
0
VERTEX
8
0
10
2.4199050196850393
20
0.23359128937007875
30
0
0
VERTEX
8
0
10
2.4656568651574804
20
0.27934313484251966
30
0
42
0.19891236737965798
0
VERTEX
8
0
10
2.468
20
0.285
30
0
0
VERTEX
8
0
10
2.468
20
0.335
30
0
42
0.4142135623730951
0
VERTEX
8
0
10
2.46
20
0.343
30
0
0
VERTEX
8
0
10
2.36
20
0.343
30
0
42
0.6453614727216217
0
VERTEX
8
0
10
2.354
20
0.32972022637795273
30
0
0
VERTEX
8
0
10
2.354
20
0.2402672244094488
30
0
42
0.37699869073068476
0
VERTEX
8
0
10
2.354
20
0.22972022637795275
30
0
0
VERTEX
8
0
10
2.354
20
0.135
30
0
42
0.9499505787532483
0
VERTEX
8
0
10
2.3659683809055116
20
0.13438521161417322
30
0
0
VERTEX
8
0
10
2.366
20
0.135
30
0
0
VERTEX
8
0
10
2.366
20
0.227
30
0
0
VERTEX
8
0
10
2.4052698080708663
20
0.227
30
0
0
VERTEX
8
0
10
2.4579902805118112
20
0.13114468503937007
30
0
0
VERTEX
8
0
10
2.458770792322835
20
0.12998031496062992
30
0
0
VERTEX
8
0
10
2.45974249507874
20
0.12897022637795275
30
0
0
VERTEX
8
0
10
2.46087561515748
20
0.12814505413385827
30
0
0
VERTEX
8
0
10
2.4621353346456694
20
0.12753051181102362
30
0
0
VERTEX
8
0
10
2.4634830216535435
20
0.12714517716535434
30
0
0
VERTEX
8
0
10
2.464877337598425
20
0.1270009842519685
30
0
0
SEQEND
0
POLYLINE
66
1
8
1_copper
10
0.0
20
0.0
30
0.0
70
1
0
VERTEX
8
0
10
2.366
20
0.243
30
0
0
VERTEX
8
0
10
2.366
20
0.327
30
0
0
VERTEX
8
0
10
2.452
20
0.327
30
0
0
VERTEX
8
0
10
2.452
20
0.2883137303149606
30
0
0
VERTEX
8
0
10
2.4066862696850393
20
0.243
30
0
0
SEQEND
0
POLYLINE
66
1
8
1_copper
10
0.0
20
0.0
30
0.0
70
1
0
VERTEX
8
0
10
2.5464602608267715
20
0.16213435039370078
30
0
42
0.3614164396978822
0
VERTEX
8
0
10
2.553
20
0.17
30
0
0
VERTEX
8
0
10
2.553
20
0.212
30
0
0
VERTEX
8
0
10
2.59
20
0.212
30
0
42
0.9999999999999999
0
VERTEX
8
0
10
2.59
20
0.228
30
0
0
VERTEX
8
0
10
2.553
20
0.228
30
0
0
VERTEX
8
0
10
2.553
20
0.255
30
0
42
0.9999999999999999
0
VERTEX
8
0
10
2.537
20
0.255
30
0
0
VERTEX
8
0
10
2.537
20
0.228
30
0
0
VERTEX
8
0
10
2.505
20
0.228
30
0
42
0.9234163001787705
0
VERTEX
8
0
10
2.503731914370079
20
0.2121011318897638
30
0
0
VERTEX
8
0
10
2.505
20
0.212
30
0
0
VERTEX
8
0
10
2.537
20
0.212
30
0
0
VERTEX
8
0
10
2.537
20
0.17
30
0
0
VERTEX
8
0
10
2.5371227854330707
20
0.16860371555118112
30
0
0
VERTEX
8
0
10
2.5374874507874017
20
0.16725024606299213
30
0
0
VERTEX
8
0
10
2.538082677165354
20
0.16598129921259844
30
0
0
VERTEX
8
0
10
2.5388902559055118
20
0.16483562992125983
30
0
0
VERTEX
8
0
10
2.5398854576771654
20
0.16384854822834646
30
0
0
VERTEX
8
0
10
2.541037524606299
20
0.1630501968503937
30
0
0
VERTEX
8
0
10
2.5423113927165355
20
0.16246530511811025
30
0
0
VERTEX
8
0
10
2.5436676919291337
20
0.1621117125984252
30
0
0
VERTEX
8
0
10
2.5450649606299214
20
0.16200024606299213
30
0
0
SEQEND
0
POLYLINE
66
1
8
1_copper
10
0.0
20
0.0
30
0.0
70
1
0
VERTEX
8
0
10
2.0003134842519685
20
3.125015501968504
30
0
42
0.1956536628276476
0
VERTEX
8
0
10
2.017677657480315
20
3.132322342519685
30
0
0
VERTEX
8
0
10
2.16035531496063
20
3.275
30
0
0
VERTEX
8
0
10
2.3692175196850394
20
3.275
30
0
42
0.23715177325943035
0
VERTEX
8
0
10
2.404011441929134
20
3.25575
30
0
0
VERTEX
8
0
10
2.495988558070866
20
3.25575
30
0
42
0.9614820847987363
0
VERTEX
8
0
10
2.495988558070866
20
3.34425
30
0
0
VERTEX
8
0
10
2.404011441929134
20
3.34425
30
0
42
0.23715177325943035
0
VERTEX
8
0
10
2.3692175196850394
20
3.325
30
0
0
VERTEX
8
0
10
2.15
20
3.325
30
0
42
0.19891236737965798
0
VERTEX
8
0
10
2.132322342519685
20
3.317677657480315
30
0
0
VERTEX
8
0
10
1.98964468503937
20
3.175
30
0
0
VERTEX
8
0
10
1.95
20
3.175
30
0
42
0.9676364582332677
0
VERTEX
8
0
10
1.9483565452755907
20
3.1250541338582676
30
0
0
VERTEX
8
0
10
1.95
20
3.125
30
0
0
VERTEX
8
0
10
2
20
3.125
30
0
0
SEQEND
0
POLYLINE
66
1
8
16_copper
10
0.0
20
0.0
30
0.0
70
1
0
VERTEX
8
0
10
2.499455093503937
20
3.2560227608267716
30
0
42
0.9243903367892725
0
VERTEX
8
0
10
2.495988558070866
20
3.34425
30
0
0
VERTEX
8
0
10
2.404011441929134
20
3.34425
30
0
42
0.9614820847987363
0
VERTEX
8
0
10
2.404011441929134
20
3.25575
30
0
0
VERTEX
8
0
10
2.495988558070866
20
3.25575
30
0
0
SEQEND
0
POLYLINE
66
1
8
1_copper
10
0.0
20
0.0
30
0.0
70
1
0
VERTEX
8
0
10
2.1044072342519686
20
0.2402888779527559
30
0
42
0.3578057741447831
0
VERTEX
8
0
10
2.13
20
0.2685262057086614
30
0
0
VERTEX
8
0
10
2.13
20
0.3314737942913386
30
0
42
0.12312550566479114
0
VERTEX
8
0
10
2.1257747293307085
20
0.3454194143700787
30
0
0
VERTEX
8
0
10
3.312677657480315
20
1.532322342519685
30
0
42
0.19891236737965798
0
VERTEX
8
0
10
3.32
20
1.55
30
0
0
VERTEX
8
0
10
3.32
20
2.85
30
0
42
0.4142135623730951
0
VERTEX
8
0
10
3.295
20
2.875
30
0
0
VERTEX
8
0
10
2.475
20
2.875
30
0
0
VERTEX
8
0
10
2.475
20
2.95575
30
0
0
VERTEX
8
0
10
2.495988558070866
20
2.95575
30
0
42
0.9614820847987363
0
VERTEX
8
0
10
2.495988558070866
20
3.04425
30
0
0
VERTEX
8
0
10
2.404011441929134
20
3.04425
30
0
42
0.9614820847987363
0
VERTEX
8
0
10
2.404011441929134
20
2.95575
30
0
0
VERTEX
8
0
10
2.425
20
2.95575
30
0
0
VERTEX
8
0
10
2.425
20
2.85
30
0
42
0.4142135623730951
0
VERTEX
8
0
10
2.45
20
2.825
30
0
0
VERTEX
8
0
10
3.27
20
2.825
30
0
0
VERTEX
8
0
10
3.27
20
1.56035531496063
30
0
0
VERTEX
8
0
10
2.082322342519685
20
0.37267765748031495
30
0
42
0.19891236737965798
0
VERTEX
8
0
10
2.075
20
0.355
30
0
0
VERTEX
8
0
10
2.075
20
0.3465834153543307
30
0
42
0.1349622529079658
0
VERTEX
8
0
10
2.07
20
0.3314737942913386
30
0
0
VERTEX
8
0
10
2.07
20
0.2685262057086614
30
0
0
VERTEX
8
0
10
2.070288877952756
20
0.2655927657480315
30
0
0
VERTEX
8
0
10
2.0708639271653544
20
0.2627017716535433
30
0
0
VERTEX
8
0
10
2.0717196112204723
20
0.2598811515748031
30
0
0
VERTEX
8
0
10
2.072847563976378
20
0.2571578494094488
30
0
0
VERTEX
8
0
10
2.0742370816929134
20
0.25455831692913383
30
0
0
VERTEX
8
0
10
2.0758747539370077
20
0.25210752952755905
30
0
0
VERTEX
8
0
10
2.0777447096456694
20
0.24982898622047245
30
0
0
VERTEX
8
0
10
2.0798289862204724
20
0.2477447096456693
30
0
0
VERTEX
8
0
10
2.082107529527559
20
0.24587475393700786
30
0
0
VERTEX
8
0
10
2.084558316929134
20
0.2442370816929134
30
0
0
VERTEX
8
0
10
2.087157849409449
20
0.24284756397637794
30
0
0
VERTEX
8
0
10
2.089881151574803
20
0.24171961122047245
30
0
0
VERTEX
8
0
10
2.092701771653543
20
0.24086392716535432
30
0
0
VERTEX
8
0
10
2.0955927657480315
20
0.2402888779527559
30
0
0
VERTEX
8
0
10
2.0985262057086613
20
0.24
30
0
0
VERTEX
8
0
10
2.1014737942913384
20
0.24
30
0
0
SEQEND
0
POLYLINE
66
1
8
16_copper
10
0.0
20
0.0
30
0.0
70
1
0
VERTEX
8
0
10
2.499455093503937
20
2.9560227608267717
30
0
42
0.9243903367892725
0
VERTEX
8
0
10
2.495988558070866
20
3.04425
30
0
0
VERTEX
8
0
10
2.404011441929134
20
3.04425
30
0
42
0.9614820847987363
0
VERTEX
8
0
10
2.404011441929134
20
2.95575
30
0
0
VERTEX
8
0
10
2.495988558070866
20
2.95575
30
0
0
SEQEND
0
POLYLINE
66
1
8
16_copper
10
0.0
20
0.0
30
0.0
70
1
0
VERTEX
8
0
10
2.1044072342519686
20
0.2402888779527559
30
0
42
0.3578057741447831
0
VERTEX
8
0
10
2.13
20
0.2685262057086614
30
0
0
VERTEX
8
0
10
2.13
20
0.3314737942913386
30
0
42
0.9520795017710559
0
VERTEX
8
0
10
2.07
20
0.3314737942913386
30
0
0
VERTEX
8
0
10
2.07
20
0.2685262057086614
30
0
0
VERTEX
8
0
10
2.070288877952756
20
0.2655927657480315
30
0
0
VERTEX
8
0
10
2.0708639271653544
20
0.2627017716535433
30
0
0
VERTEX
8
0
10
2.0717196112204723
20
0.2598811515748031
30
0
0
VERTEX
8
0
10
2.072847563976378
20
0.2571578494094488
30
0
0
VERTEX
8
0
10
2.0742370816929134
20
0.25455831692913383
30
0
0
VERTEX
8
0
10
2.0758747539370077
20
0.25210752952755905
30
0
0
VERTEX
8
0
10
2.0777447096456694
20
0.24982898622047245
30
0
0
VERTEX
8
0
10
2.0798289862204724
20
0.2477447096456693
30
0
0
VERTEX
8
0
10
2.082107529527559
20
0.24587475393700786
30
0
0
VERTEX
8
0
10
2.084558316929134
20
0.2442370816929134
30
0
0
VERTEX
8
0
10
2.087157849409449
20
0.24284756397637794
30
0
0
VERTEX
8
0
10
2.089881151574803
20
0.24171961122047245
30
0
0
VERTEX
8
0
10
2.092701771653543
20
0.24086392716535432
30
0
0
VERTEX
8
0
10
2.0955927657480315
20
0.2402888779527559
30
0
0
VERTEX
8
0
10
2.0985262057086613
20
0.24
30
0
0
VERTEX
8
0
10
2.1014737942913384
20
0.24
30
0
0
SEQEND
0
POLYLINE
66
1
8
1_copper
10
0.0
20
0.0
30
0.0
70
1
0
VERTEX
8
0
10
2.8594072342519685
20
0.2402888779527559
30
0
42
0.3578057741447831
0
VERTEX
8
0
10
2.885
20
0.2685262057086614
30
0
0
VERTEX
8
0
10
2.885
20
0.3314737942913386
30
0
42
0.1349622529079658
0
VERTEX
8
0
10
2.88
20
0.3465834153543307
30
0
0
VERTEX
8
0
10
2.88
20
0.54464468503937
30
0
0
VERTEX
8
0
10
3.417677657480315
20
1.082322342519685
30
0
42
0.19891236737965798
0
VERTEX
8
0
10
3.425
20
1.1
30
0
0
VERTEX
8
0
10
3.425
20
3
30
0
42
0.4142135623730951
0
VERTEX
8
0
10
3.4
20
3.025
30
0
0
VERTEX
8
0
10
3.1307824803149606
20
3.025
30
0
42
0.23715177325943035
0
VERTEX
8
0
10
3.095988558070866
20
3.04425
30
0
0
VERTEX
8
0
10
3.004011441929134
20
3.04425
30
0
42
0.9614820847987363
0
VERTEX
8
0
10
3.004011441929134
20
2.95575
30
0
0
VERTEX
8
0
10
3.095988558070866
20
2.95575
30
0
42
0.23715177325943035
0
VERTEX
8
0
10
3.1307824803149606
20
2.975
30
0
0
VERTEX
8
0
10
3.375
20
2.975
30
0
0
VERTEX
8
0
10
3.375
20
1.11035531496063
30
0
0
VERTEX
8
0
10
2.837322342519685
20
0.572677657480315
30
0
42
0.19891236737965798
0
VERTEX
8
0
10
2.83
20
0.555
30
0
0
VERTEX
8
0
10
2.83
20
0.3465834153543307
30
0
42
0.1349622529079658
0
VERTEX
8
0
10
2.825
20
0.3314737942913386
30
0
0
VERTEX
8
0
10
2.825
20
0.2685262057086614
30
0
0
VERTEX
8
0
10
2.825288877952756
20
0.2655927657480315
30
0
0
VERTEX
8
0
10
2.8258639271653543
20
0.2627017716535433
30
0
0
VERTEX
8
0
10
2.8267196112204727
20
0.2598811515748031
30
0
0
VERTEX
8
0
10
2.827847563976378
20
0.2571578494094488
30
0
0
VERTEX
8
0
10
2.8292370816929133
20
0.25455831692913383
30
0
0
VERTEX
8
0
10
2.830874753937008
20
0.25210752952755905
30
0
0
VERTEX
8
0
10
2.8327447096456693
20
0.24982898622047245
30
0
0
VERTEX
8
0
10
2.8348289862204723
20
0.2477447096456693
30
0
0
VERTEX
8
0
10
2.837107529527559
20
0.24587475393700786
30
0
0
VERTEX
8
0
10
2.839558316929134
20
0.2442370816929134
30
0
0
VERTEX
8
0
10
2.842157849409449
20
0.24284756397637794
30
0
0
VERTEX
8
0
10
2.8448811515748034
20
0.24171961122047245
30
0
0
VERTEX
8
0
10
2.847701771653543
20
0.24086392716535432
30
0
0
VERTEX
8
0
10
2.8505927657480314
20
0.2402888779527559
30
0
0
VERTEX
8
0
10
2.8535262057086612
20
0.24
30
0
0
VERTEX
8
0
10
2.8564737942913387
20
0.24
30
0
0
SEQEND
0
POLYLINE
66
1
8
16_copper
10
0.0
20
0.0
30
0.0
70
1
0
VERTEX
8
0
10
3.099455093503937
20
2.9560227608267717
30
0
42
0.9243903367892725
0
VERTEX
8
0
10
3.095988558070866
20
3.04425
30
0
0
VERTEX
8
0
10
3.004011441929134
20
3.04425
30
0
42
0.9614820847987363
0
VERTEX
8
0
10
3.004011441929134
20
2.95575
30
0
0
VERTEX
8
0
10
3.095988558070866
20
2.95575
30
0
0
SEQEND
0
POLYLINE
66
1
8
16_copper
10
0.0
20
0.0
30
0.0
70
1
0
VERTEX
8
0
10
2.8594072342519685
20
0.2402888779527559
30
0
42
0.3578057741447831
0
VERTEX
8
0
10
2.885
20
0.2685262057086614
30
0
0
VERTEX
8
0
10
2.885
20
0.3314737942913386
30
0
42
0.9520795017710559
0
VERTEX
8
0
10
2.825
20
0.3314737942913386
30
0
0
VERTEX
8
0
10
2.825
20
0.2685262057086614
30
0
0
VERTEX
8
0
10
2.825288877952756
20
0.2655927657480315
30
0
0
VERTEX
8
0
10
2.8258639271653543
20
0.2627017716535433
30
0
0
VERTEX
8
0
10
2.8267196112204727
20
0.2598811515748031
30
0
0
VERTEX
8
0
10
2.827847563976378
20
0.2571578494094488
30
0
0
VERTEX
8
0
10
2.8292370816929133
20
0.25455831692913383
30
0
0
VERTEX
8
0
10
2.830874753937008
20
0.25210752952755905
30
0
0
VERTEX
8
0
10
2.8327447096456693
20
0.24982898622047245
30
0
0
VERTEX
8
0
10
2.8348289862204723
20
0.2477447096456693
30
0
0
VERTEX
8
0
10
2.837107529527559
20
0.24587475393700786
30
0
0
VERTEX
8
0
10
2.839558316929134
20
0.2442370816929134
30
0
0
VERTEX
8
0
10
2.842157849409449
20
0.24284756397637794
30
0
0
VERTEX
8
0
10
2.8448811515748034
20
0.24171961122047245
30
0
0
VERTEX
8
0
10
2.847701771653543
20
0.24086392716535432
30
0
0
VERTEX
8
0
10
2.8505927657480314
20
0.2402888779527559
30
0
0
VERTEX
8
0
10
2.8535262057086612
20
0.24
30
0
0
VERTEX
8
0
10
2.8564737942913387
20
0.24
30
0
0
SEQEND
0
POLYLINE
66
1
8
1_copper
10
0.0
20
0.0
30
0.0
70
1
0
VERTEX
8
0
10
0.2513962844488189
20
0.49212278543307086
30
0
42
0.9159168875285966
0
VERTEX
8
0
10
0.25
20
0.508
30
0
0
VERTEX
8
0
10
-0.1
20
0.508
30
0
42
0.9234163001787705
0
VERTEX
8
0
10
-0.10126808562992126
20
0.4921011318897638
30
0
0
VERTEX
8
0
10
-0.1
20
0.492
30
0
0
VERTEX
8
0
10
0.25
20
0.492
30
0
0
SEQEND
0
POLYLINE
66
1
8
1_copper
10
0.0
20
0.0
30
0.0
70
1
0
VERTEX
8
0
10
3.2764602608267714
20
0.1771343503937008
30
0
42
0.3614164396978822
0
VERTEX
8
0
10
3.283
20
0.185
30
0
0
VERTEX
8
0
10
3.283
20
0.227
30
0
0
VERTEX
8
0
10
3.32
20
0.227
30
0
42
0.9999999999999999
0
VERTEX
8
0
10
3.32
20
0.243
30
0
0
VERTEX
8
0
10
3.283
20
0.243
30
0
0
VERTEX
8
0
10
3.283
20
0.275
30
0
42
0.9999999999999999
0
VERTEX
8
0
10
3.267
20
0.275
30
0
0
VERTEX
8
0
10
3.267
20
0.243
30
0
0
VERTEX
8
0
10
3.235
20
0.243
30
0
42
0.9234163001787705
0
VERTEX
8
0
10
3.233731914370079
20
0.22710113188976377
30
0
0
VERTEX
8
0
10
3.235
20
0.227
30
0
0
VERTEX
8
0
10
3.267
20
0.227
30
0
0
VERTEX
8
0
10
3.267
20
0.185
30
0
0
VERTEX
8
0
10
3.2671227854330707
20
0.1836037155511811
30
0
0
VERTEX
8
0
10
3.2674874507874017
20
0.18225024606299212
30
0
0
VERTEX
8
0
10
3.268082677165354
20
0.18098129921259842
30
0
0
VERTEX
8
0
10
3.2688902559055117
20
0.17983562992125984
30
0
0
VERTEX
8
0
10
3.2698854576771654
20
0.17884854822834645
30
0
0
VERTEX
8
0
10
3.271037524606299
20
0.1780501968503937
30
0
0
VERTEX
8
0
10
3.2723113927165355
20
0.17746530511811023
30
0
0
VERTEX
8
0
10
3.2736676919291336
20
0.1771117125984252
30
0
0
VERTEX
8
0
10
3.2750649606299214
20
0.17700024606299214
30
0
0
SEQEND
0
POLYLINE
66
1
8
1_copper
10
0.0
20
0.0
30
0.0
70
1
0
VERTEX
8
0
10
1.5500323572834647
20
0.19200282972440944
30
0
42
0.41302899196029463
0
VERTEX
8
0
10
1.558
20
0.2
30
0
0
VERTEX
8
0
10
1.558
20
0.7961550196850393
30
0
0
VERTEX
8
0
10
1.8028062253937007
20
0.992
30
0
0
VERTEX
8
0
10
2.15
20
0.992
30
0
42
0.19891236737965798
0
VERTEX
8
0
10
2.1556568651574803
20
0.9943431348425197
30
0
0
VERTEX
8
0
10
2.2556568651574804
20
1.0943431348425197
30
0
42
0.19891236737965798
0
VERTEX
8
0
10
2.258
20
1.1
30
0
0
VERTEX
8
0
10
2.258
20
1.6
30
0
42
0.19891236737965798
0
VERTEX
8
0
10
2.2556568651574804
20
1.6056568651574803
30
0
0
VERTEX
8
0
10
2.158
20
1.7033137303149606
30
0
0
VERTEX
8
0
10
2.158
20
1.8203149606299212
30
0
0
VERTEX
8
0
10
2.1622958907480316
20
1.8203149606299212
30
0
0
VERTEX
8
0
10
2.179685039370079
20
1.8377041092519686
30
0
0
VERTEX
8
0
10
2.179685039370079
20
1.8622958907480316
30
0
0
VERTEX
8
0
10
2.1622958907480316
20
1.8796850393700788
30
0
0
VERTEX
8
0
10
2.1377041092519686
20
1.8796850393700788
30
0
0
VERTEX
8
0
10
2.1203149606299214
20
1.8622958907480316
30
0
0
VERTEX
8
0
10
2.1203149606299214
20
1.8377041092519686
30
0
0
VERTEX
8
0
10
2.1377041092519686
20
1.8203149606299212
30
0
0
VERTEX
8
0
10
2.142
20
1.8203149606299212
30
0
0
VERTEX
8
0
10
2.142
20
1.7
30
0
42
0.19891236737965798
0
VERTEX
8
0
10
2.1443431348425195
20
1.6943431348425197
30
0
0
VERTEX
8
0
10
2.242
20
1.5966862696850395
30
0
0
VERTEX
8
0
10
2.242
20
1.1033137303149607
30
0
0
VERTEX
8
0
10
2.1466862696850395
20
1.008
30
0
0
VERTEX
8
0
10
1.8
20
1.008
30
0
42
0.17030362141383304
0
VERTEX
8
0
10
1.7950024606299213
20
1.0062469242125984
30
0
0
VERTEX
8
0
10
1.5450024606299213
20
0.8062469242125985
30
0
42
0.22783779158266837
0
VERTEX
8
0
10
1.542
20
0.8
30
0
0
VERTEX
8
0
10
1.542
20
0.208
30
0
0
VERTEX
8
0
10
0.908
20
0.208
30
0
0
VERTEX
8
0
10
0.908
20
0.372
30
0
0
VERTEX
8
0
10
0.9115979330708661
20
0.372
30
0
0
VERTEX
8
0
10
0.928
20
0.38840206692913387
30
0
0
VERTEX
8
0
10
0.928
20
0.4115979330708661
30
0
0
VERTEX
8
0
10
0.9115979330708661
20
0.428
30
0
0
VERTEX
8
0
10
0.8884020669291338
20
0.428
30
0
0
VERTEX
8
0
10
0.872
20
0.4115979330708661
30
0
0
VERTEX
8
0
10
0.872
20
0.38840206692913387
30
0
0
VERTEX
8
0
10
0.8884020669291338
20
0.372
30
0
0
VERTEX
8
0
10
0.892
20
0.372
30
0
0
VERTEX
8
0
10
0.892
20
0.2
30
0
42
0.4142135623730951
0
VERTEX
8
0
10
0.9
20
0.192
30
0
0
VERTEX
8
0
10
1.55
20
0.192
30
0
0
SEQEND
0
POLYLINE
66
1
8
16_copper
10
0.0
20
0.0
30
0.0
70
1
0
VERTEX
8
0
10
2.179685039370079
20
1.8377041092519686
30
0
0
VERTEX
8
0
10
2.179685039370079
20
1.8622958907480316
30
0
0
VERTEX
8
0
10
2.1622958907480316
20
1.8796850393700788
30
0
0
VERTEX
8
0
10
2.1377041092519686
20
1.8796850393700788
30
0
0
VERTEX
8
0
10
2.1203149606299214
20
1.8622958907480316
30
0
0
VERTEX
8
0
10
2.1203149606299214
20
1.8377041092519686
30
0
0
VERTEX
8
0
10
2.1377041092519686
20
1.8203149606299212
30
0
0
VERTEX
8
0
10
2.1622958907480316
20
1.8203149606299212
30
0
0
SEQEND
0
POLYLINE
66
1
8
16_copper
10
0.0
20
0.0
30
0.0
70
1
0
VERTEX
8
0
10
0.928
20
0.38840206692913387
30
0
0
VERTEX
8
0
10
0.928
20
0.4115979330708661
30
0
0
VERTEX
8
0
10
0.9115979330708661
20
0.428
30
0
0
VERTEX
8
0
10
0.8884020669291338
20
0.428
30
0
0
VERTEX
8
0
10
0.872
20
0.4115979330708661
30
0
0
VERTEX
8
0
10
0.872
20
0.38840206692913387
30
0
0
VERTEX
8
0
10
0.8884020669291338
20
0.372
30
0
0
VERTEX
8
0
10
0.9115979330708661
20
0.372
30
0
0
SEQEND
0
POLYLINE
66
1
8
1_copper
10
0.0
20
0.0
30
0.0
70
1
0
VERTEX
8
0
10
1.1796850393700788
20
0.7877041092519685
30
0
0
VERTEX
8
0
10
1.1796850393700788
20
0.8122958907480315
30
0
0
VERTEX
8
0
10
1.1622958907480314
20
0.8296850393700788
30
0
0
VERTEX
8
0
10
1.1377041092519684
20
0.8296850393700788
30
0
0
VERTEX
8
0
10
1.1203149606299212
20
0.8122958907480315
30
0
0
VERTEX
8
0
10
1.1203149606299212
20
0.808
30
0
0
VERTEX
8
0
10
1.058
20
0.808
30
0
0
VERTEX
8
0
10
1.058
20
2.05
30
0
42
0.9999999999999999
0
VERTEX
8
0
10
1.042
20
2.05
30
0
0
VERTEX
8
0
10
1.042
20
0.8
30
0
42
0.4142135623730951
0
VERTEX
8
0
10
1.05
20
0.792
30
0
0
VERTEX
8
0
10
1.1203149606299212
20
0.792
30
0
0
VERTEX
8
0
10
1.1203149606299212
20
0.7877041092519685
30
0
0
VERTEX
8
0
10
1.1377041092519684
20
0.7703149606299212
30
0
0
VERTEX
8
0
10
1.1622958907480314
20
0.7703149606299212
30
0
0
SEQEND
0
POLYLINE
66
1
8
16_copper
10
0.0
20
0.0
30
0.0
70
1
0
VERTEX
8
0
10
1.1796850393700788
20
0.7877041092519685
30
0
0
VERTEX
8
0
10
1.1796850393700788
20
0.8122958907480315
30
0
0
VERTEX
8
0
10
1.1622958907480314
20
0.8296850393700788
30
0
0
VERTEX
8
0
10
1.1377041092519684
20
0.8296850393700788
30
0
0
VERTEX
8
0
10
1.1203149606299212
20
0.8122958907480315
30
0
0
VERTEX
8
0
10
1.1203149606299212
20
0.7877041092519685
30
0
0
VERTEX
8
0
10
1.1377041092519684
20
0.7703149606299212
30
0
0
VERTEX
8
0
10
1.1622958907480314
20
0.7703149606299212
30
0
0
SEQEND
0
POLYLINE
66
1
8
1_copper
10
0.0
20
0.0
30
0.0
70
1
0
VERTEX
8
0
10
1.8281102362204724
20
1.3781102362204725
30
0
0
VERTEX
8
0
10
1.803
20
1.3781102362204725
30
0
0
VERTEX
8
0
10
1.803
20
1.8203149606299212
30
0
0
VERTEX
8
0
10
1.8072958907480314
20
1.8203149606299212
30
0
0
VERTEX
8
0
10
1.8246850393700786
20
1.8377041092519686
30
0
0
VERTEX
8
0
10
1.8246850393700786
20
1.8622958907480316
30
0
0
VERTEX
8
0
10
1.8072958907480314
20
1.8796850393700788
30
0
0
VERTEX
8
0
10
1.7827041092519684
20
1.8796850393700788
30
0
0
VERTEX
8
0
10
1.7653149606299212
20
1.8622958907480316
30
0
0
VERTEX
8
0
10
1.7653149606299212
20
1.8377041092519686
30
0
0
VERTEX
8
0
10
1.7827041092519684
20
1.8203149606299212
30
0
0
VERTEX
8
0
10
1.787
20
1.8203149606299212
30
0
0
VERTEX
8
0
10
1.787
20
1.3781102362204725
30
0
0
VERTEX
8
0
10
1.7718897637795274
20
1.3781102362204725
30
0
0
VERTEX
8
0
10
1.7718897637795274
20
1.3218897637795275
30
0
0
VERTEX
8
0
10
1.8281102362204724
20
1.3218897637795275
30
0
0
SEQEND
0
POLYLINE
66
1
8
16_copper
10
0.0
20
0.0
30
0.0
70
1
0
VERTEX
8
0
10
1.8246850393700786
20
1.8377041092519686
30
0
0
VERTEX
8
0
10
1.8246850393700786
20
1.8622958907480316
30
0
0
VERTEX
8
0
10
1.8072958907480314
20
1.8796850393700788
30
0
0
VERTEX
8
0
10
1.7827041092519684
20
1.8796850393700788
30
0
0
VERTEX
8
0
10
1.7653149606299212
20
1.8622958907480316
30
0
0
VERTEX
8
0
10
1.7653149606299212
20
1.8377041092519686
30
0
0
VERTEX
8
0
10
1.7827041092519684
20
1.8203149606299212
30
0
0
VERTEX
8
0
10
1.8072958907480314
20
1.8203149606299212
30
0
0
SEQEND
0
POLYLINE
66
1
8
16_copper
10
0.0
20
0.0
30
0.0
70
1
0
VERTEX
8
0
10
1.8281102362204724
20
1.3781102362204725
30
0
0
VERTEX
8
0
10
1.7718897637795274
20
1.3781102362204725
30
0
0
VERTEX
8
0
10
1.7718897637795274
20
1.3218897637795275
30
0
0
VERTEX
8
0
10
1.8281102362204724
20
1.3218897637795275
30
0
0
SEQEND
0
POLYLINE
66
1
8
1_copper
10
0.0
20
0.0
30
0.0
70
1
0
VERTEX
8
0
10
0.7546850393700787
20
0.2127041092519685
30
0
0
VERTEX
8
0
10
0.7546850393700787
20
0.2372958907480315
30
0
0
VERTEX
8
0
10
0.7516473917322835
20
0.24033366141732285
30
0
0
VERTEX
8
0
10
0.8056568651574804
20
0.29434313484251967
30
0
42
0.19891236737965798
0
VERTEX
8
0
10
0.808
20
0.3
30
0
0
VERTEX
8
0
10
0.808
20
0.372
30
0
0
VERTEX
8
0
10
0.8115979330708661
20
0.372
30
0
0
VERTEX
8
0
10
0.828
20
0.38840206692913387
30
0
0
VERTEX
8
0
10
0.828
20
0.4115979330708661
30
0
0
VERTEX
8
0
10
0.8115979330708661
20
0.428
30
0
0
VERTEX
8
0
10
0.7884020669291338
20
0.428
30
0
0
VERTEX
8
0
10
0.772
20
0.4115979330708661
30
0
0
VERTEX
8
0
10
0.772
20
0.38840206692913387
30
0
0
VERTEX
8
0
10
0.7884020669291338
20
0.372
30
0
0
VERTEX
8
0
10
0.792
20
0.372
30
0
0
VERTEX
8
0
10
0.792
20
0.3033137303149606
30
0
0
VERTEX
8
0
10
0.7403336614173228
20
0.25164739173228345
30
0
0
VERTEX
8
0
10
0.7372958907480315
20
0.25468503937007875
30
0
0
VERTEX
8
0
10
0.7127041092519685
20
0.25468503937007875
30
0
0
VERTEX
8
0
10
0.6953149606299213
20
0.2372958907480315
30
0
0
VERTEX
8
0
10
0.6953149606299213
20
0.2127041092519685
30
0
0
VERTEX
8
0
10
0.7127041092519685
20
0.19531496062992126
30
0
0
VERTEX
8
0
10
0.7372958907480315
20
0.19531496062992126
30
0
0
SEQEND
0
POLYLINE
66
1
8
16_copper
10
0.0
20
0.0
30
0.0
70
1
0
VERTEX
8
0
10
0.828
20
0.38840206692913387
30
0
0
VERTEX
8
0
10
0.828
20
0.4115979330708661
30
0
0
VERTEX
8
0
10
0.8115979330708661
20
0.428
30
0
0
VERTEX
8
0
10
0.7884020669291338
20
0.428
30
0
0
VERTEX
8
0
10
0.772
20
0.4115979330708661
30
0
0
VERTEX
8
0
10
0.772
20
0.38840206692913387
30
0
0
VERTEX
8
0
10
0.7884020669291338
20
0.372
30
0
0
VERTEX
8
0
10
0.8115979330708661
20
0.372
30
0
0
SEQEND
0
POLYLINE
66
1
8
16_copper
10
0.0
20
0.0
30
0.0
70
1
0
VERTEX
8
0
10
0.7546850393700787
20
0.2127041092519685
30
0
0
VERTEX
8
0
10
0.7546850393700787
20
0.2372958907480315
30
0
0
VERTEX
8
0
10
0.7372958907480315
20
0.25468503937007875
30
0
0
VERTEX
8
0
10
0.7127041092519685
20
0.25468503937007875
30
0
0
VERTEX
8
0
10
0.6953149606299213
20
0.2372958907480315
30
0
0
VERTEX
8
0
10
0.6953149606299213
20
0.2127041092519685
30
0
0
VERTEX
8
0
10
0.7127041092519685
20
0.19531496062992126
30
0
0
VERTEX
8
0
10
0.7372958907480315
20
0.19531496062992126
30
0
0
SEQEND
0
CIRCLE
8
drills_NPTH
10
3.45
20
3.53
30
0
40
0.05600393700787402
0
CIRCLE
8
drills_NPTH
10
-0.05
20
0.9
30
0
40
0.05600393700787402
0
CIRCLE
8
drills_NPTH
10
0.1
20
3.53
30
0
40
0.05600393700787402
0
CIRCLE
8
drills_NPTH
10
3.45
20
0.25
30
0
40
0.05600393700787402
0
CIRCLE
8
drills_PTH
10
1.9877952755905512
20
1.243503937007874
30
0
40
0.045275590551181105
0
CIRCLE
8
drills_PTH
10
1.513779527559055
20
1.243503937007874
30
0
40
0.045275590551181105
0
CIRCLE
8
drills_PTH
10
3.05
20
3.3
30
0
40
0.0295
0
CIRCLE
8
drills_PTH
10
2.45
20
3.3
30
0
40
0.0295
0
CIRCLE
8
drills_PTH
10
2.45
20
3
30
0
40
0.0295
0
CIRCLE
8
drills_PTH
10
3.05
20
3
30
0
40
0.0295
0
CIRCLE
8
drills_PTH
10
1.05
20
2.05
30
0
40
0.023622047244094488
0
CIRCLE
8
drills_PTH
10
1.95
20
2.45
30
0
40
0.023622047244094488
0
CIRCLE
8
drills_PTH
10
2.65
20
2.35
30
0
40
0.023622047244094488
0
CIRCLE
8
drills_PTH
10
2.65
20
2.15
30
0
40
0.023622047244094488
0
CIRCLE
8
drills_PTH
10
2.85
20
2.45
30
0
40
0.023622047244094488
0
CIRCLE
8
drills_PTH
10
2.85
20
2.25
30
0
40
0.023622047244094488
0
CIRCLE
8
drills_PTH
10
2.85
20
2.05
30
0
40
0.023622047244094488
0
CIRCLE
8
drills_PTH
10
1.75
20
2.35
30
0
40
0.023622047244094488
0
CIRCLE
8
drills_PTH
10
1.95
20
2.95
30
0
40
0.023622047244094488
0
CIRCLE
8
drills_PTH
10
1.95
20
3.15
30
0
40
0.023622047244094488
0
CIRCLE
8
drills_PTH
10
1.95
20
3.35
30
0
40
0.023622047244094488
0
CIRCLE
8
drills_PTH
10
1.75
20
3.05
30
0
40
0.023622047244094488
0
CIRCLE
8
drills_PTH
10
1.75
20
3.25
30
0
40
0.023622047244094488
0
CIRCLE
8
drills_PTH
10
0.65
20
2.05
30
0
40
0.023622047244094488
0
CIRCLE
8
drills_PTH
10
0.85
20
2.05
30
0
40
0.023622047244094488
0
CIRCLE
8
drills_PTH
10
1.75
20
2.15
30
0
40
0.023622047244094488
0
CIRCLE
8
drills_PTH
10
0.75
20
2.25
30
0
40
0.023622047244094488
0
CIRCLE
8
drills_PTH
10
0.95
20
2.25
30
0
40
0.023622047244094488
0
CIRCLE
8
drills_PTH
10
1.95
20
2.05
30
0
40
0.023622047244094488
0
CIRCLE
8
drills_PTH
10
1.95
20
2.25
30
0
40
0.023622047244094488
0
CIRCLE
8
drills_PTH
10
2.2
20
0.3
30
0
40
0.02
0
CIRCLE
8
drills_PTH
10
2.1
20
0.3
30
0
40
0.02
0
CIRCLE
8
drills_PTH
10
2.855
20
0.3
30
0
40
0.02
0
CIRCLE
8
drills_PTH
10
2.955
20
0.3
30
0
40
0.02
0
CIRCLE
8
drills_PTH
10
1.795
20
1.85
30
0
40
0.01968503937007874
0
CIRCLE
8
drills_PTH
10
2.15
20
1.85
30
0
40
0.01968503937007874
0
CIRCLE
8
drills_PTH
10
1.15
20
0.8
30
0
40
0.01968503937007874
0
CIRCLE
8
drills_PTH
10
0.725
20
0.225
30
0
40
0.01968503937007874
0
CIRCLE
8
drills_PTH
10
1.7015748031496063
20
1.35
30
0
40
0.01811023622047244
0
CIRCLE
8
drills_PTH
10
1.8
20
1.35
30
0
40
0.01811023622047244
0
CIRCLE
8
drills_PTH
10
1.8
20
1.2236220472440944
30
0
40
0.01811023622047244
0
CIRCLE
8
drills_PTH
10
1.7015748031496063
20
1.2236220472440944
30
0
40
0.01811023622047244
0
CIRCLE
8
drills_PTH
10
0.8
20
0.5
30
0
40
0.018
0
CIRCLE
8
drills_PTH
10
1.2
20
0.4
30
0
40
0.018
0
CIRCLE
8
drills_PTH
10
1.2
20
0.5
30
0
40
0.018
0
CIRCLE
8
drills_PTH
10
1.1
20
0.4
30
0
40
0.018
0
CIRCLE
8
drills_PTH
10
1.1
20
0.5
30
0
40
0.018
0
CIRCLE
8
drills_PTH
10
1
20
0.4
30
0
40
0.018
0
CIRCLE
8
drills_PTH
10
1
20
0.5
30
0
40
0.018
0
CIRCLE
8
drills_PTH
10
0.9
20
0.4
30
0
40
0.018
0
CIRCLE
8
drills_PTH
10
0.9
20
0.5
30
0
40
0.018
0
CIRCLE
8
drills_PTH
10
0.7
20
0.4
30
0
40
0.018
0
CIRCLE
8
drills_PTH
10
0.7
20
0.5
30
0
40
0.018
0
CIRCLE
8
drills_PTH
10
0.6
20
0.4
30
0
40
0.018
0
CIRCLE
8
drills_PTH
10
0.6
20
0.5
30
0
40
0.018
0
CIRCLE
8
drills_PTH
10
0.5
20
0.4
30
0
40
0.018
0
CIRCLE
8
drills_PTH
10
0.5
20
0.5
30
0
40
0.018
0
CIRCLE
8
drills_PTH
10
0.8
20
0.4
30
0
40
0.018
0
ENDSEC
0
EOF